<svg viewBox="0 0 463 378" fill="none" xmlns="http://www.w3.org/2000/svg">
<path d="M235.44 115.183C235.44 115.183 234.074 111.571 227.241 102.298C224.02 97.9058 206.84 84.1424 219.432 68.4269C232.024 52.7113 250.082 58.5681 255.158 74.7717C260.234 90.9753 248.13 112.84 248.13 112.84L235.44 115.183Z" fill="black"/>
<path d="M237.49 114.012C236.807 110.107 236.124 106.105 235.245 102.298C234.855 100.346 234.367 98.3938 233.879 96.5391C233.391 94.6845 232.707 92.8299 232.024 90.9752C231.634 90.0967 231.243 89.3158 230.657 88.6326C230.365 88.3397 230.072 88.0469 229.877 88.0469C229.584 87.9493 229.389 88.0469 229.096 88.1445C228.608 88.7302 228.412 89.4134 228.51 90.1943C228.51 91.0729 228.705 91.9514 229.096 92.8299C229.779 94.4893 230.95 95.9535 232.414 96.832C233.976 97.7105 235.831 98.0033 237.588 97.7105C241.297 97.1248 244.714 95.1726 246.959 92.1466C247.447 91.4633 247.935 90.5848 248.13 89.8039C248.423 89.1206 248.325 88.3397 248.032 87.754C247.837 87.5588 247.544 87.4612 247.252 87.3636C247.056 87.3636 246.861 87.3636 246.666 87.3636C246.471 87.3636 246.275 87.4612 246.178 87.4612C245.592 87.6564 245.104 88.3397 244.714 89.2182C244.03 90.9752 243.64 92.9275 243.542 94.8797C243.347 96.832 243.249 98.7842 243.249 100.834C243.249 104.836 243.445 108.741 243.738 112.743C243.054 108.838 242.566 104.836 242.273 100.834C242.176 98.8818 242.176 96.832 242.176 94.7821C242.176 93.806 242.273 92.7323 242.469 91.7561C242.566 90.6824 242.859 89.7063 243.249 88.7302C243.445 88.2421 243.737 87.6564 244.03 87.266C244.421 86.7779 244.909 86.2899 245.495 86.0946C245.787 85.997 246.08 85.8994 246.373 85.8994C246.666 85.8994 247.056 85.8994 247.349 85.8994C248.032 85.997 248.716 86.2899 249.204 86.7779C249.594 87.3636 249.887 87.9493 249.887 88.6326C249.887 89.2182 249.887 89.8039 249.692 90.3896C249.399 91.4633 248.911 92.4394 248.325 93.3179C247.056 95.0749 245.495 96.5391 243.64 97.6129C241.785 98.6866 239.833 99.3699 237.686 99.7603C235.44 100.151 233.195 99.7603 231.243 98.589C229.389 97.4176 227.924 95.6606 227.143 93.6108C226.753 92.537 226.558 91.4633 226.46 90.3896C226.46 89.8039 226.558 89.2182 226.655 88.6326C226.851 87.9493 227.241 87.3636 227.729 86.9731C228.315 86.5827 229.096 86.3875 229.877 86.5827C230.56 86.7779 231.146 87.1684 231.536 87.6564C232.219 88.5349 232.707 89.5111 233.098 90.4872C234.464 94.2941 235.343 98.1985 235.929 102.298C236.807 106.008 237.295 110.01 237.49 114.012Z" fill="#F2EBEB"/>
<path d="M233.488 113.914L249.497 111.181L249.692 112.45C250.473 116.842 247.447 121.039 243.054 121.82C238.662 122.601 234.464 119.575 233.683 115.183L233.488 113.914Z" fill="#000001"/>
<path d="M234.464 119.575L250.473 116.842C251.254 121.235 248.228 125.432 243.835 126.213C239.443 126.994 235.245 123.968 234.464 119.575Z" fill="#000001"/>
<path d="M216.699 65.3033C215.918 64.7176 215.332 64.0343 214.747 63.2534C214.161 62.5701 213.673 61.7893 213.282 61.0084C212.794 60.2275 212.502 59.3489 212.111 58.4704C211.818 57.5919 211.525 56.6158 211.525 55.7373C212.306 56.323 212.892 57.0063 213.478 57.7872C214.063 58.4704 214.551 59.2513 214.942 60.1298C215.43 60.9107 215.723 61.7893 216.113 62.6678C216.308 63.351 216.601 64.3272 216.699 65.3033Z" fill="black"/>
<path d="M212.794 71.9405C212.014 72.0381 211.135 72.0381 210.354 71.9405C208.792 71.7453 207.426 71.2573 206.059 70.4764C205.376 70.0859 204.693 69.5978 204.107 69.0122C204.888 68.9146 205.669 68.9146 206.547 69.0122C207.328 69.1098 208.011 69.305 208.792 69.5002C209.476 69.7931 210.257 70.0859 210.842 70.4764C211.525 70.8668 212.209 71.3549 212.794 71.9405Z" fill="black"/>
<path d="M316.654 80.4326C316.654 80.4326 327.196 92.0485 330.124 92.6341C331.393 92.927 330.124 80.4326 330.124 80.4326C330.124 80.4326 347.694 81.0183 348.963 76.9186C350.232 72.8189 354.039 42.6567 348.378 42.6567C342.716 42.6567 293.91 35.1406 289.322 48.5135C284.735 61.8863 281.22 74.6735 289.322 78.0899C297.424 81.5064 316.654 80.4326 316.654 80.4326Z" fill="#F2EBEB"/>
<path d="M307.088 65.4003C306.697 65.4003 306.209 65.3027 305.819 65.1075C304.94 64.8146 304.355 64.0338 304.257 63.1552C304.159 61.3982 306.404 59.8364 306.6 59.6412L306.795 59.5436C308.942 59.0555 309.723 59.8364 310.114 60.4221C310.797 61.5934 310.211 63.4481 309.235 64.4242C308.747 65.0099 307.966 65.4003 307.088 65.4003ZM307.185 60.4221C306.6 60.8125 305.233 62.0815 305.331 63.0576C305.331 63.4481 305.721 63.9361 306.307 64.229C307.088 64.6194 307.966 64.4242 308.552 63.7409C309.333 63.0576 309.626 61.8863 309.333 60.9102C308.942 60.1293 307.869 60.3245 307.185 60.4221Z" fill="black"/>
<path d="M319.68 65.8886C319.289 65.8886 318.801 65.791 318.411 65.5958C317.532 65.3029 316.947 64.522 316.849 63.6435C316.751 61.8865 318.996 60.3247 319.192 60.1295L319.387 60.0319C321.534 59.5438 322.413 60.3247 322.706 60.9104C323.389 62.0817 322.803 63.9364 321.827 64.9125C321.241 65.5958 320.461 65.8886 319.68 65.8886ZM319.68 61.008C319.094 61.3984 317.727 62.6674 317.825 63.6435C317.825 64.034 318.216 64.522 318.899 64.8149C319.68 65.2053 320.558 65.0101 321.144 64.3268C321.925 63.6435 322.218 62.4722 321.925 61.4961C321.437 60.7152 320.363 60.8128 319.68 61.008Z" fill="black"/>
<path d="M330.124 65.8886C329.734 65.8886 329.246 65.791 328.855 65.5958C327.977 65.3029 327.391 64.522 327.293 63.6435C327.196 61.8865 329.441 60.3247 329.636 60.1295L329.831 60.0319C331.979 59.5438 332.76 60.3247 333.15 60.9104C333.833 62.0817 333.248 63.9364 332.272 64.9125C331.686 65.5958 330.905 65.8886 330.124 65.8886ZM330.124 61.008C329.539 61.3984 328.172 62.6674 328.27 63.6435C328.27 64.034 328.66 64.522 329.246 64.8149C330.027 65.2053 330.905 65.0101 331.491 64.3268C332.272 63.6435 332.564 62.4722 332.272 61.4961C331.881 60.7152 330.807 60.8128 330.124 61.008Z" fill="black"/>
<path d="M130.507 91.2681L127.969 96.344C127.677 96.9296 127.872 97.5153 128.458 97.8081C128.848 98.0034 129.238 98.0034 129.629 97.7105C133.045 95.4654 138.024 92.5371 139.781 92.8299C142.514 93.318 169.064 95.7583 169.064 87.0708C169.064 78.3833 176.385 60.5203 167.502 59.0561C158.62 57.5919 120.844 57.6896 118.696 68.915C116.549 80.1403 114.109 89.3159 118.696 89.6087C123.284 89.9016 130.507 91.2681 130.507 91.2681Z" fill="black"/>
<path d="M147.101 67.8408C147.101 67.8408 137.047 78.6757 137.828 78.2853C138.609 77.8948 147.101 78.2853 147.101 78.2853L142.416 87.168L153.739 76.0402L147.101 74.1856L153.739 67.7432L147.101 67.8408Z" fill="#F2EBEB"/>
<path d="M254.28 166.039C258.431 166.039 261.796 162.674 261.796 158.522C261.796 154.371 258.431 151.006 254.28 151.006C250.128 151.006 246.763 154.371 246.763 158.522C246.763 162.674 250.128 166.039 254.28 166.039Z" fill="#F2EBEB"/>
<path d="M52.1248 24.9886C57.6236 24.9886 62.0813 20.5309 62.0813 15.0321C62.0813 9.53333 57.6236 5.07568 52.1248 5.07568C46.626 5.07568 42.1684 9.53333 42.1684 15.0321C42.1684 20.5309 46.626 24.9886 52.1248 24.9886Z" fill="#F2EBEB"/>
<path d="M254.865 15.0323C259.016 15.0323 262.381 11.6672 262.381 7.51613C262.381 3.36509 259.016 0 254.865 0C250.714 0 247.349 3.36509 247.349 7.51613C247.349 11.6672 250.714 15.0323 254.865 15.0323Z" fill="#F2EBEB"/>
<path d="M405.578 47.439C409.406 47.439 412.509 44.3362 412.509 40.5086C412.509 36.681 409.406 33.5781 405.578 33.5781C401.751 33.5781 398.648 36.681 398.648 40.5086C398.648 44.3362 401.751 47.439 405.578 47.439Z" fill="#F2EBEB"/>
<path d="M424.71 369.95C424.71 369.95 438.571 331.003 436.912 309.138C435.252 287.272 417.585 260.136 417.585 260.136L362.239 258.086C362.239 258.086 345.937 299.572 344.18 314.018C342.423 328.465 344.18 369.95 344.18 369.95H424.71Z" fill="#000001"/>
<path d="M345.84 270.678C345.84 270.678 334.126 269.507 332.565 270.678C331.003 271.85 336.664 274.68 336.664 274.68C336.664 274.68 330.027 273.802 330.027 275.852C330.027 277.902 343.497 281.025 343.497 281.025L348.963 275.657L345.84 270.678Z" fill="#A04040"/>
<path d="M394.451 180.875C394.451 180.875 411.728 167.893 419.244 174.14C426.76 180.387 471.076 267.262 461.705 276.047C452.335 284.832 421.587 266.676 421.587 266.676L422.953 247.739L431.738 246.08L426.858 226.948L417.682 260.136L362.336 258.086C362.336 258.086 364.191 242.956 362.336 241.297C360.482 239.638 352.965 232.805 352.965 224.41V211.428L330.222 227.046L347.109 247.837L334.126 261.21C334.126 261.21 294.789 242.371 298.01 227.046C301.231 211.72 358.822 172.188 369.267 172.578C379.711 172.968 380.492 180.68 380.492 180.68L394.451 180.875Z" fill="black"/>
<path d="M390.253 215.82H380.492C378.833 214.063 376.588 213.087 374.147 212.99C370.145 212.892 370.243 215.82 370.243 215.82H360.97L363.117 221.384L390.351 220.213L390.253 215.82Z" fill="#000001"/>
<path d="M396.208 218.065C396.208 218.065 358.139 217.675 358.139 218.749C358.139 219.822 373.366 271.654 373.366 271.654C373.366 271.654 409.288 271.166 409.873 269.995C410.459 268.824 396.208 218.065 396.208 218.065Z" fill="#F2EBEB"/>
<path d="M394.451 218.261C394.451 218.261 356.382 217.87 356.382 218.944C356.382 220.018 371.609 271.85 371.609 271.85C371.609 271.85 407.531 271.362 408.116 270.19C408.702 269.019 394.451 218.261 394.451 218.261Z" fill="#F2EBEB"/>
<path d="M390.253 303.281C390.351 306.698 390.058 310.114 389.472 313.433C388.887 316.752 388.106 320.071 387.032 323.292C385.958 326.513 384.494 329.637 382.835 332.663C381.078 335.591 378.93 338.324 376.49 340.569C378.345 337.836 380.102 334.908 381.566 331.882C382.932 328.856 384.201 325.83 385.275 322.608C386.349 319.485 387.227 316.264 388.106 313.042C388.984 309.821 389.57 306.6 390.253 303.281Z" fill="#000001"/>
<path d="M419.146 206.938C420.318 208.987 421.294 211.135 422.172 213.282C423.051 215.43 423.929 217.577 424.71 219.822C425.491 222.067 426.175 224.215 426.858 226.46C427.541 228.705 428.029 230.95 428.42 233.293C427.248 231.243 426.272 229.095 425.394 226.948C424.515 224.801 423.637 222.653 422.856 220.408C422.075 218.163 421.392 216.015 420.708 213.77C420.123 211.525 419.537 209.28 419.146 206.938Z" fill="#000001"/>
<path d="M345.742 249.008L360.189 263.357C360.189 263.357 353.551 281.416 353.356 281.904C353.161 282.392 350.135 281.904 350.135 281.904C350.135 281.904 332.174 287.858 331.491 286.296C330.807 284.734 335.102 279.854 338.519 279.268C341.057 278.682 343.497 277.804 345.84 276.633V268.824L335.395 259.55L345.742 249.008Z" fill="#EA8383"/>
<path d="M353.161 269.02C353.356 271.167 353.356 273.217 353.161 275.364C353.063 276.438 352.868 277.512 352.673 278.488C352.477 279.562 352.185 280.635 351.696 281.709C351.501 282.1 351.306 282.392 350.916 282.588C350.818 282.685 350.623 282.783 350.525 282.783L350.33 282.88L349.939 282.978L348.475 283.369C347.499 283.661 346.425 283.857 345.449 284.149C343.399 284.637 341.35 285.028 339.202 285.223C341.057 284.247 343.009 283.369 344.961 282.685C345.937 282.295 346.913 282.002 347.89 281.611L349.354 281.123L349.744 281.026H349.842C349.842 281.026 349.744 281.123 349.744 281.026C349.842 280.928 349.939 280.831 349.939 280.733C350.33 279.854 350.72 278.976 350.916 278C351.208 277.024 351.404 276.048 351.696 274.974C352.087 273.119 352.673 271.069 353.161 269.02Z" fill="#000001"/>
<path d="M422.758 249.009C421.489 248.618 420.318 248.13 419.146 247.447C417.097 246.275 400.698 234.464 400.698 234.464L401.186 244.616C401.186 244.616 378.735 236.221 375.807 236.514C372.878 236.807 376.978 240.907 378.833 242.078C380.687 243.249 373.269 238.857 370.828 239.833C368.388 240.809 373.952 244.616 380.492 247.74C380.492 247.74 369.364 244.811 370.243 247.154C371.121 249.497 386.739 255.939 386.739 255.939C386.739 255.939 378.93 253.499 377.076 255.061C375.221 256.622 386.349 259.355 393.963 262.186C401.576 265.017 421.489 265.895 421.489 265.895L422.758 249.009Z" fill="#EA8383"/>
<path d="M398.355 249.594C396.305 249.302 394.353 248.911 392.401 248.423C390.448 247.935 388.594 247.252 386.642 246.568C384.787 245.885 382.932 245.007 381.175 244.03C380.297 243.542 379.418 242.957 378.637 242.371C377.759 241.785 377.076 241.005 376.49 240.224C376.88 240.516 377.368 240.712 377.759 241.005L378.442 241.297L379.125 241.59C379.614 241.785 380.004 241.981 380.492 242.176C380.98 242.371 381.371 242.566 381.859 242.664L387.422 244.811C389.277 245.592 391.132 246.276 392.889 247.056C394.743 247.74 396.598 248.618 398.355 249.594Z" fill="#000001"/>
<path d="M397.281 255.256C395.134 254.768 392.986 254.085 390.937 253.304C388.887 252.523 386.837 251.644 384.787 250.766C382.737 249.887 380.785 248.814 378.93 247.74C376.978 246.666 375.123 245.3 373.464 243.835C375.514 244.714 377.564 245.495 379.614 246.373C381.663 247.252 383.616 248.13 385.665 249.009C387.715 249.887 389.668 250.864 391.62 251.937C393.474 252.913 395.427 254.085 397.281 255.256Z" fill="#000001"/>
<path d="M394.451 259.258C392.596 258.965 390.741 258.574 388.984 258.086C387.227 257.598 385.47 256.915 383.713 256.232C381.956 255.548 380.297 254.67 378.637 253.791C377.856 253.303 376.978 252.815 376.295 252.23C375.514 251.644 374.831 250.961 374.245 250.277C375.904 251.058 377.564 251.839 379.321 252.425C381.078 253.108 382.737 253.791 384.494 254.475C386.251 255.158 387.911 255.939 389.57 256.72C391.229 257.403 392.889 258.282 394.451 259.258Z" fill="#000001"/>
<path d="M364.386 112.742C364.386 112.742 376.002 109.424 384.006 110.204C391.815 110.888 397.086 114.89 399.526 122.601C402.162 130.801 403.236 135.876 399.136 143.002C395.036 150.128 389.277 155.106 378.442 151.397C367.607 147.687 363.117 127.872 356.382 127.189C349.647 126.506 346.328 118.013 349.647 115.085C352.965 112.157 353.258 111.473 364.386 112.742Z" fill="#A04040"/>
<path d="M385.275 199.324C384.397 201.277 378.735 190.051 378.149 188.001C375.514 179.119 377.173 165.843 372.683 163.403C368.193 160.963 353.258 153.837 353.258 153.837C353.258 153.837 343.79 155.985 343.009 154.227C342.228 152.47 348.378 141.831 350.916 135.779C353.453 129.727 359.505 121.723 359.505 121.723C359.31 122.796 361.751 130.117 367.705 134.705C371.317 137.536 378.833 138.414 378.833 138.414C378.833 138.414 374.342 129.044 382.347 130.996C390.351 132.948 383.03 143.588 384.299 144.954C387.032 147.687 390.253 178.435 393.084 182.242C393.67 182.633 387.911 193.565 385.275 199.324Z" fill="#EA8383"/>
<path d="M367.119 136.852C367.119 136.852 357.26 136.364 356.284 143.49C356.284 143.49 366.436 143.783 367.119 136.852Z" fill="#F2EBEB"/>
<path d="M367.51 136.755C365.167 137.048 362.824 137.633 360.677 138.609C359.603 139.098 358.725 139.781 357.846 140.562C357.065 141.44 356.479 142.416 356.187 143.588C356.089 142.319 356.479 141.05 357.26 140.074C358.041 139.098 359.017 138.219 360.189 137.731C361.36 137.243 362.531 136.852 363.703 136.755C365.069 136.56 366.338 136.56 367.51 136.755Z" fill="#000001"/>
<path d="M359.115 138.902C359.115 138.902 361.653 138.804 361.555 142.709C361.555 142.709 356.968 144.173 356.284 143.49C356.284 143.49 357.163 139.39 359.115 138.902Z" fill="#000001"/>
<path d="M368.291 140.268C367.998 140.366 367.802 140.464 367.51 140.561C367.412 140.659 367.314 140.659 367.217 140.659C367.119 140.659 367.022 140.561 367.022 140.366C366.924 140.073 366.826 139.878 366.729 139.585C366.826 139.292 367.022 138.999 367.314 138.902C367.51 138.804 367.705 138.804 367.9 138.804C368.095 138.902 368.291 139.097 368.388 139.292C368.583 139.585 368.486 139.976 368.291 140.268Z" fill="#000001"/>
<path d="M366.436 142.026C366.143 142.123 365.85 142.221 365.557 142.221C365.46 142.221 365.265 142.221 365.167 142.221C365.069 142.123 365.069 142.123 364.972 141.928C364.874 141.635 364.874 141.342 364.776 141.147C364.874 140.854 365.167 140.561 365.46 140.464C365.655 140.366 365.948 140.464 366.143 140.561C366.338 140.659 366.436 140.854 366.533 141.147C366.631 141.44 366.533 141.733 366.436 142.026Z" fill="#000001"/>
<path d="M367.803 151.396C366.729 150.811 365.46 151.103 364.679 152.079C363.508 153.739 368.095 156.57 370.34 154.715C372.585 152.86 367.803 151.396 367.803 151.396Z" fill="#A04040"/>
<path d="M367.119 148.956C367.802 149.444 368.388 150.127 368.583 150.908C368.876 151.787 368.779 152.665 368.486 153.446C368.193 154.227 367.607 154.91 366.924 155.398C366.631 155.594 366.241 155.789 365.85 155.984C365.46 156.082 365.069 156.179 364.679 156.179C364.874 155.887 365.069 155.496 365.265 155.203C365.46 154.91 365.655 154.618 365.85 154.325C366.143 153.837 366.436 153.251 366.631 152.763C366.826 152.177 366.924 151.689 367.022 151.104C367.119 150.323 367.119 149.639 367.119 148.956Z" fill="#000001"/>
<path d="M401.674 137.536C402.845 138.024 404.017 138.61 404.993 139.391C405.578 139.781 405.969 140.367 406.359 140.855C406.847 141.538 406.945 142.514 406.554 143.295C406.164 143.979 405.578 144.564 404.797 144.857C404.212 145.15 403.724 145.443 403.138 145.736C402.65 146.028 402.162 146.321 401.674 146.614C401.283 146.809 400.991 147.2 400.698 147.59C400.6 147.883 400.6 148.273 400.795 148.566C401.088 149.054 401.283 149.542 401.674 150.03C401.967 150.421 402.064 150.909 402.162 151.397C402.162 151.983 401.869 152.568 401.381 152.861C400.795 153.252 400.112 153.447 399.331 153.642C398.843 153.74 398.355 153.935 397.965 154.13C397.867 154.13 397.867 154.228 397.867 154.423C397.965 154.716 398.062 154.911 398.257 155.204C398.843 156.278 399.526 157.351 400.307 158.328C399.234 157.644 398.257 156.766 397.477 155.79C397.281 155.497 397.086 155.204 396.891 154.911C396.793 154.716 396.696 154.423 396.696 154.228C396.696 153.935 396.793 153.642 396.988 153.447C397.281 153.154 397.574 152.861 397.965 152.666C398.257 152.568 398.55 152.373 398.941 152.276C399.429 152.08 399.917 151.885 400.405 151.592C400.503 151.495 400.405 151.495 400.405 151.495C400.405 151.397 400.307 151.202 400.21 151.104C399.819 150.519 399.429 150.03 399.136 149.347C399.038 149.152 399.038 148.957 398.941 148.762C398.843 148.566 398.843 148.371 398.843 148.176C398.745 147.688 398.843 147.2 399.038 146.809C399.429 146.126 400.014 145.54 400.698 145.052C401.283 144.662 401.869 144.369 402.455 144.076C403.04 143.783 403.626 143.588 404.212 143.295C404.602 143.1 404.993 142.905 405.286 142.514C405.481 142.124 405.481 141.733 405.286 141.343C405.09 140.855 404.7 140.367 404.309 139.976C403.528 139.196 402.65 138.317 401.674 137.536Z" fill="black"/>
<path d="M407.823 147.785C407.823 147.785 453.799 166.136 449.797 185.854C445.795 205.571 412.997 179.899 404.505 149.933C404.602 149.933 405.383 146.711 407.823 147.785Z" fill="#A04040"/>
<path d="M366.436 133.827C364.874 133.827 363.605 133.631 362.434 133.631C361.848 133.631 361.262 133.631 360.677 133.729C359.993 133.729 359.408 133.924 358.627 134.12C358.92 133.339 359.505 132.753 360.189 132.363C360.872 131.972 361.751 131.777 362.531 131.777C363.312 131.777 364.093 131.972 364.874 132.363C365.46 132.558 366.045 133.143 366.436 133.827Z" fill="#A04040"/>
<path d="M258.379 336.079L145.735 356.187C145.735 356.187 206.059 250.278 227.339 264.627C227.339 264.627 250.863 302.5 250.18 306.893C249.497 311.285 241.492 329.832 241.883 334.81C242.273 339.788 258.379 336.079 258.379 336.079Z" fill="#000001"/>
<path d="M300.743 318.216L285.808 366.73L145.735 363.411C141.147 347.598 166.038 330.613 300.743 318.216Z" fill="#000001"/>
<path d="M248.423 312.164C248.423 312.164 241.785 316.459 234.367 336.079C226.948 355.699 229.291 368.486 238.271 362.629C247.251 356.772 253.303 318.313 248.423 312.164Z" fill="#000001"/>
<path d="M248.423 312.164C242.078 314.994 235.636 317.727 229.096 320.363C222.653 322.999 216.113 325.536 209.573 328.074C203.033 330.612 196.493 333.053 189.953 335.395C183.413 337.738 176.776 340.081 170.138 342.228C176.483 339.397 182.925 336.664 189.465 334.029C195.908 331.393 202.448 328.855 208.988 326.317C215.528 323.779 222.068 321.339 228.608 318.996C235.148 316.654 241.785 314.311 248.423 312.164Z" fill="#000001"/>
<path d="M273.119 336.47C273.119 336.47 284.637 332.468 285.418 330.613C286.199 328.758 268.824 326.708 268.824 326.708L273.119 336.47Z" fill="#000001"/>
<path d="M239.247 325.439C239.247 325.439 266.383 325.146 269.605 326.903C272.826 328.66 287.565 354.528 286.784 356.285C286.004 358.042 271.459 345.157 271.459 345.157C271.459 345.157 276.926 357.066 283.563 364.484C285.808 366.924 278.585 366.339 278.585 366.339C278.585 366.339 276.73 367.51 269.312 366.631C269.312 366.631 266.774 368.486 263.65 364.094C260.527 359.701 254.084 346.426 254.084 346.426L229.877 353.844C229.877 353.844 230.462 337.641 239.247 325.439Z" fill="#EA8383"/>
<path d="M262.284 345.45C263.553 347.012 264.626 348.573 265.603 350.33C266.579 351.99 267.457 353.844 268.238 355.601C269.019 357.456 269.605 359.311 269.995 361.263C270.19 362.239 270.288 363.313 270.288 364.289C270.288 364.777 270.19 365.363 269.995 365.851C269.8 366.339 269.409 366.729 268.824 366.827C269.214 366.534 269.409 366.143 269.409 365.655C269.409 365.167 269.409 364.777 269.312 364.289C269.117 363.41 268.824 362.434 268.531 361.556C267.848 359.799 267.164 358.042 266.383 356.187C265.603 354.332 264.919 352.673 264.236 350.818C263.553 348.964 262.869 347.402 262.284 345.45Z" fill="#000001"/>
<path d="M265.7 340.862C266.969 342.815 268.043 344.864 268.921 347.012C269.897 349.159 270.678 351.307 271.362 353.454C272.045 355.699 272.631 357.944 272.923 360.189C273.021 360.775 273.021 361.361 273.119 361.947C273.216 362.532 273.119 363.118 273.216 363.704C273.216 364.289 273.119 364.875 273.119 365.461C273.021 366.046 272.923 366.632 272.631 367.12C272.533 364.875 272.143 362.63 271.459 360.482C270.776 358.335 270.19 356.187 269.507 354.04C268.824 351.892 268.14 349.745 267.457 347.5C266.774 345.255 266.188 343.107 265.7 340.862Z" fill="#000001"/>
<path d="M268.824 336.079C269.995 338.422 270.971 340.862 271.85 343.302C272.826 345.743 273.607 348.183 274.388 350.721C275.169 353.259 275.852 355.699 276.535 358.237C277.218 360.775 277.706 363.313 278.097 365.948C276.926 363.606 275.949 361.165 275.071 358.725C274.095 356.285 273.314 353.845 272.533 351.307C271.752 348.769 271.069 346.328 270.386 343.79C269.702 341.253 269.214 338.715 268.824 336.079Z" fill="#000001"/>
<path d="M242.468 250.473C247.74 252.816 266.481 260.918 266.481 260.918C266.481 260.918 269.312 241.493 261.6 237.491C253.889 233.489 242.468 250.473 242.468 250.473Z" fill="#000001"/>
<path d="M230.755 288.932C231.341 290.103 232.707 290.494 233.879 289.908C234.464 289.615 234.952 289.03 235.05 288.346C237.197 279.366 242.664 252.425 248.13 253.499C258.477 255.549 267.945 244.616 267.945 244.616C267.945 244.616 277.218 244.616 277.902 242.762C278.585 240.907 273.216 234.953 270.483 228.998C267.75 223.044 266.774 216.016 261.112 215.333C255.451 214.649 259.258 223.825 253.596 228.705C250.18 231.634 245.494 229.877 245.494 229.877C245.494 229.877 246.568 223.337 238.759 225.679C230.95 228.022 238.759 238.369 237.49 239.736C234.952 242.664 224.898 265.115 222.263 269.117C221.872 269.898 227.924 283.271 230.755 288.932Z" fill="#EA8383"/>
<path d="M254.475 231.048C254.475 231.048 264.041 229.779 265.603 236.71C265.603 236.71 255.646 237.979 254.475 231.048Z" fill="#F2EBEB"/>
<path d="M253.987 230.951C255.158 230.658 256.329 230.561 257.598 230.658C258.77 230.658 260.039 230.951 261.112 231.341C261.698 231.537 262.284 231.83 262.772 232.122C263.26 232.415 263.748 232.806 264.236 233.294C265.115 234.172 265.603 235.344 265.7 236.613C265.31 235.539 264.626 234.563 263.748 233.879C262.869 233.196 261.893 232.61 260.82 232.318C258.672 231.537 256.329 231.049 253.987 230.951Z" fill="#000001"/>
<path d="M262.577 232.513C262.577 232.513 260.039 232.61 260.429 236.515C260.429 236.515 266.188 237.589 265.7 236.32C265.7 236.32 264.529 232.806 262.577 232.513Z" fill="#000001"/>
<path d="M253.499 234.563C253.401 234.367 253.401 234.074 253.596 233.977C253.694 233.782 253.889 233.684 253.987 233.586C254.377 233.391 254.768 233.489 255.06 233.782C254.963 233.977 254.865 234.074 254.67 234.27C254.572 234.367 254.475 234.465 254.377 234.465C254.28 234.465 254.182 234.563 253.987 234.563C253.889 234.563 253.694 234.465 253.499 234.563Z" fill="#000001"/>
<path d="M255.549 236.124C255.451 235.734 255.549 235.246 255.939 235.051C256.134 234.953 256.329 234.855 256.525 234.855C256.72 234.855 257.013 234.953 257.11 235.051C256.915 235.344 256.72 235.539 256.525 235.832C256.232 236.027 255.841 236.222 255.549 236.124Z" fill="#000001"/>
<path d="M254.475 245.398C255.549 244.812 256.817 245.007 257.598 245.983C258.867 247.643 254.475 250.669 252.132 248.912C249.789 247.155 254.475 245.398 254.475 245.398Z" fill="#A04040"/>
<path d="M255.158 242.859C254.963 243.542 254.963 244.225 254.963 244.909C254.963 245.592 255.158 246.178 255.353 246.763C255.646 247.349 256.037 247.935 256.427 248.423C256.622 248.716 256.915 248.911 257.208 249.204C257.501 249.497 257.794 249.692 257.989 249.985C257.598 249.887 257.306 249.789 256.915 249.594C256.622 249.399 256.232 249.204 255.939 249.008C255.256 248.52 254.768 247.935 254.475 247.154C253.792 245.787 254.084 244.03 255.158 242.859Z" fill="#000001"/>
<path d="M258.282 226.851C258.672 226.363 259.16 226.07 259.746 225.875C260.332 225.679 261.015 225.679 261.6 225.777C262.186 225.875 262.772 226.167 263.26 226.46C263.748 226.851 264.138 227.241 264.431 227.827C263.846 227.632 263.358 227.339 262.869 227.144C262.381 226.948 261.893 226.851 261.405 226.753C260.917 226.656 260.429 226.656 259.843 226.656C259.355 226.656 258.77 226.656 258.282 226.851Z" fill="#000001"/>
<path d="M265.798 216.407C265.798 216.407 254.865 233.098 240.711 234.953C240.711 234.953 248.911 245.202 244.323 250.668C239.735 256.135 249.497 262.479 246.959 267.165L194.736 238.76C194.736 238.76 206.059 225.68 216.601 230.17C227.143 234.66 218.846 216.895 235.05 210.94C251.254 204.986 265.798 216.407 265.798 216.407Z" fill="black"/>
<path d="M191.124 236.71C193.174 234.367 195.712 232.512 198.445 230.951C201.179 229.389 204.302 228.413 207.426 228.12C210.647 227.827 213.868 228.51 216.699 230.072C219.432 231.634 221.677 233.879 223.336 236.612C221.189 234.465 218.749 232.708 216.016 231.439C214.649 230.853 213.282 230.463 211.818 230.267C210.354 230.072 208.988 229.975 207.523 230.17C204.595 230.463 201.764 231.244 199.031 232.415C196.298 233.586 193.662 235.05 191.124 236.71Z" fill="black"/>
<path d="M265.798 216.407C264.041 219.726 261.796 222.849 259.16 225.582C256.525 228.413 253.499 230.756 250.082 232.61C248.325 233.489 246.568 234.172 244.616 234.66C242.664 235.051 240.711 235.246 238.759 235.051C234.855 234.66 231.243 233.098 228.315 230.56C231.536 232.415 235.148 233.391 238.857 233.489C242.468 233.489 245.983 232.513 249.204 230.756C252.425 228.999 255.451 226.851 258.086 224.313C260.82 222.068 263.455 219.335 265.798 216.407Z" fill="#000001"/>
<path d="M241.395 264.041L227.339 259.551L228.705 257.11L241.395 264.041Z" fill="#000001"/>
<path d="M27.6242 232.902C27.6242 232.902 30.4549 180.875 36.3117 173.554C45.6824 161.841 133.436 191.613 144.271 197.567C155.106 203.521 160.279 251.546 160.279 251.546L125.139 271.85C125.139 271.85 105.323 322.413 102.59 322.413C99.8572 322.413 18.9367 284.93 18.9367 284.93L27.6242 232.902Z" fill="#000001"/>
<path d="M125.236 271.85C125.236 271.85 164.574 363.508 166.624 363.508H219.627C218.163 361.751 216.016 360.775 213.77 360.58C210.061 360.384 187.708 351.99 187.708 351.99L160.279 251.547L125.236 271.85Z" fill="#A04040"/>
<path d="M186.049 354.528C190.246 355.406 194.346 356.382 198.543 357.359C200.593 357.847 202.643 358.237 204.693 358.432L205.571 358.53C205.864 358.53 206.157 358.628 206.45 358.628C207.035 358.725 207.621 358.92 208.109 359.116C209.28 359.604 210.354 360.385 211.037 361.458C211.33 361.849 211.428 362.337 211.428 362.825C211.428 363.118 211.33 363.411 211.135 363.703C210.94 363.899 210.745 364.094 210.549 364.191C210.159 364.387 209.866 364.484 209.476 364.484C209.183 364.484 208.89 364.484 208.597 364.484H205.376C203.228 364.387 201.081 364.387 198.933 364.289C194.639 364.191 190.441 363.899 186.146 363.508C190.441 363.118 194.639 362.922 198.933 362.727C201.081 362.63 203.228 362.63 205.376 362.532H208.597C208.89 362.532 209.085 362.532 209.28 362.532C209.378 362.532 209.573 362.532 209.671 362.434C209.768 362.337 209.573 362.532 209.573 362.532C209.573 362.532 209.573 362.532 209.476 362.337C208.987 361.654 208.207 361.165 207.426 360.775C207.035 360.58 206.547 360.482 206.059 360.287C205.864 360.287 205.571 360.189 205.376 360.189L204.595 360.092C202.447 359.799 200.3 359.311 198.25 358.628C193.955 357.651 189.953 356.187 186.049 354.528Z" fill="#000001"/>
<path d="M138.047 235.209L124.728 271.601L125.644 271.937L138.963 235.545L138.047 235.209Z" fill="#000001"/>
<path d="M102.688 322.315L120.063 366.826H13.8609C13.8609 366.826 -0.585711 296.838 18.9367 284.832L102.688 322.315Z" fill="black"/>
<path d="M127.189 140.073C127.189 140.073 126.505 165.843 125.529 165.843C124.553 165.843 121.918 164.184 121.918 164.184C121.918 164.184 119.965 181.656 108.642 202.35C108.642 202.35 85.7034 192.296 77.9921 178.728C77.9921 178.728 97.2216 121.332 102.688 121.137C108.154 120.942 127.189 140.073 127.189 140.073Z" fill="#A04040"/>
<path d="M99.8571 137.73C99.8571 137.73 98.881 150.225 97.0264 151.884C95.1718 153.544 90.1935 145.442 90.1935 145.442C90.1935 145.442 96.8312 118.403 100.638 116.061C104.445 113.718 151.982 150.615 146.809 151.201C141.635 151.787 127.286 139.976 127.286 139.976L110.594 133.338C110.497 133.436 105.031 138.219 99.8571 137.73Z" fill="#000001"/>
<path d="M90.4864 145.931C90.4864 145.931 83.1655 139.391 88.1437 132.656C93.1219 125.92 95.4646 143.198 95.4646 143.198L90.4864 145.931Z" fill="#A04040"/>
<path d="M99.7595 197.762L87.1675 204.01L78.0896 178.826L109.521 200.984L113.913 216.309L99.7595 197.762Z" fill="#F2EBEB"/>
<path d="M108.154 146.711C108.154 146.711 117.135 146.125 117.915 153.837C118.013 154.325 117.623 154.91 117.135 155.008C117.037 155.008 116.939 155.008 116.939 155.008C114.304 154.813 107.861 153.641 108.154 146.711Z" fill="#F2EBEB"/>
<path d="M107.764 146.516C109.033 146.321 110.302 146.321 111.473 146.614C112.742 146.809 113.913 147.297 114.987 147.98C116.061 148.663 116.939 149.737 117.525 150.908C118.013 152.08 118.208 153.349 117.915 154.618C117.818 153.446 117.427 152.275 116.842 151.201C116.256 150.225 115.475 149.347 114.499 148.761C113.523 148.078 112.449 147.59 111.278 147.297C110.106 146.906 108.935 146.614 107.764 146.516Z" fill="#000001"/>
<path d="M115.768 149.151C115.768 149.151 113.23 149.151 112.84 154.031C112.84 154.031 118.013 156.081 118.013 154.324C118.013 154.324 117.623 149.834 115.768 149.151Z" fill="#000001"/>
<path d="M105.226 158.718C105.519 159.596 105.909 160.377 106.495 161.06C106.69 161.353 106.983 161.646 107.373 161.939C107.569 162.134 107.764 162.329 107.959 162.525C108.154 162.72 108.349 163.013 108.545 163.208C108.252 163.306 107.959 163.403 107.666 163.403C107.373 163.403 106.983 163.403 106.69 163.306C106.007 163.11 105.519 162.817 105.031 162.232C104.543 161.646 104.347 160.963 104.347 160.28C104.347 159.694 104.64 159.108 105.226 158.718Z" fill="#000001"/>
<path d="M108.057 142.611C109.13 142.221 110.302 142.123 111.473 142.221C112.644 142.318 113.718 142.514 114.792 142.904C116.939 143.587 118.892 144.954 120.356 146.711C119.184 146.516 118.208 146.125 117.232 145.735L114.304 144.661C112.156 144.075 110.204 143.392 108.057 142.611Z" fill="#000001"/>
<path d="M88.9246 115.963C88.3389 115.085 87.9485 114.206 87.6556 113.23C87.07 111.375 86.6795 109.423 86.5819 107.471C86.4843 106.495 86.5819 105.421 86.7771 104.445C87.3628 105.323 87.7532 106.202 88.0461 107.178C88.3389 108.154 88.6318 109.033 88.827 110.009C89.0222 110.985 89.1198 111.961 89.1198 112.937C89.2174 114.011 89.1198 114.987 88.9246 115.963Z" fill="#EA8383"/>
<path d="M84.7273 118.989C84.2392 119.185 83.6535 119.282 83.0679 119.185C82.5798 119.185 82.0918 119.087 81.6037 118.892C81.1156 118.697 80.7252 118.501 80.3347 118.209C79.8467 117.916 79.4562 117.525 79.1634 117.037C79.6515 116.842 80.2371 116.744 80.8228 116.842C81.3109 116.842 81.7989 116.94 82.287 117.135C82.775 117.33 83.1655 117.525 83.5559 117.818C84.044 118.111 84.4344 118.501 84.7273 118.989Z" fill="#EA8383"/>
<path d="M99.7596 197.762C100.931 200.398 101.712 203.228 101.907 206.059C102.2 208.89 102.298 211.818 102.005 214.649C101.712 217.48 101.224 220.311 100.54 223.141C100.248 224.508 99.7596 225.875 99.2715 227.241C98.7835 228.608 98.1978 229.877 97.6121 231.146C97.8073 229.681 98.1002 228.315 98.393 226.948L98.6859 224.898C98.7835 224.215 98.9787 223.532 99.0763 222.849C99.2715 221.482 99.5644 220.115 99.662 218.749C99.7596 217.382 99.9548 216.016 100.052 214.552C100.248 211.818 100.345 208.988 100.345 206.254C100.345 203.326 100.15 200.495 99.7596 197.762Z" fill="#000001"/>
<path d="M154.618 248.131C154.618 248.131 200.202 249.985 199.91 247.545C199.617 245.105 174.921 243.25 174.921 243.25L154.618 248.131Z" fill="#000001"/>
<path d="M31.1382 262.772C31.1382 262.772 40.4113 305.136 59.4457 305.136C78.4801 305.136 136.169 251.839 136.169 251.839C136.169 251.839 197.274 244.714 196.591 242.859C195.907 241.004 163.598 241.004 157.643 240.614C151.689 240.224 159.889 234.855 167.307 231.731C174.726 228.608 178.044 226.753 175.116 225.777C172.188 224.801 137.145 226.167 129.336 229.486C121.527 232.805 74.966 258.282 74.966 258.282L75.1613 246.08L31.1382 262.772Z" fill="#A04040"/>
<path d="M76.6255 225.289C76.9184 228.022 76.9184 230.755 76.9184 233.488C76.9184 236.221 76.8208 238.954 76.7231 241.687C76.6255 244.421 76.4303 247.154 76.0399 249.887C75.6494 252.62 75.3566 255.353 74.8685 258.086C74.5757 255.353 74.5757 252.62 74.5757 249.887C74.5757 247.154 74.6733 244.421 74.7709 241.687C74.8685 238.954 75.1614 236.221 75.4542 233.488C75.747 230.755 76.1375 228.022 76.6255 225.289Z" fill="#000001"/>
<path d="M390.937 366.534L428.517 282.587L312.652 279.854L285.808 366.729L390.937 366.534Z" fill="black"/>
<path d="M310.016 272.631C309.626 271.85 309.43 270.972 309.235 270.093C309.138 269.215 309.04 268.434 309.04 267.555C309.04 266.677 309.138 265.798 309.235 265.017C309.333 264.139 309.626 263.26 310.016 262.479C310.407 263.26 310.602 264.139 310.797 265.017C310.895 265.896 310.992 266.677 310.992 267.555C310.992 268.434 310.895 269.312 310.797 270.093C310.699 270.874 310.407 271.753 310.016 272.631Z" fill="black"/>
<path d="M306.404 275.462C305.721 274.974 305.038 274.486 304.55 273.9C304.062 273.315 303.574 272.631 303.183 272.046C302.793 271.363 302.402 270.679 302.11 269.996C301.817 269.215 301.621 268.434 301.524 267.556C302.207 267.946 302.89 268.532 303.378 269.117C303.867 269.703 304.355 270.289 304.745 270.972C305.136 271.655 305.526 272.339 305.819 273.12C306.112 273.803 306.307 274.681 306.404 275.462Z" fill="black"/>
<path d="M366.631 329.637L356.382 317.533C356.382 317.533 354.332 320.559 356.382 326.708C358.432 332.858 366.631 329.637 366.631 329.637Z" fill="#F2EBEB"/>
<mask id="mask0_61_1456" style="mask-type:luminance" maskUnits="userSpaceOnUse" x="285" y="279" width="144" height="88">
<path d="M390.937 366.534L428.517 282.587L312.652 279.854L285.808 366.729L390.937 366.534Z" fill="white"/>
</mask>
<g mask="url(#mask0_61_1456)">
<path d="M418.366 376.979C418.073 376.979 417.877 376.783 417.877 376.491L412.704 248.228C412.704 247.935 412.899 247.74 413.192 247.74C413.485 247.74 413.68 247.935 413.68 248.228L418.854 376.491C418.854 376.783 418.658 376.979 418.366 376.979Z" fill="#F2EBEB"/>
<path d="M404.407 376.978C404.114 376.978 403.919 376.783 403.919 376.49L402.26 248.521C402.26 248.228 402.455 248.033 402.748 248.033C403.04 248.033 403.236 248.228 403.236 248.521L404.895 376.49C404.895 376.783 404.7 376.978 404.407 376.978Z" fill="#F2EBEB"/>
<path d="M391.425 376.978C391.132 376.978 390.937 376.783 390.937 376.49V248.521C390.937 248.228 391.132 248.033 391.425 248.033C391.717 248.033 391.913 248.228 391.913 248.521V376.49C391.913 376.783 391.717 376.978 391.425 376.978Z" fill="#F2EBEB"/>
<path d="M379.125 376.978C378.833 376.978 378.637 376.783 378.637 376.49L379.809 248.423C379.809 248.13 380.004 247.935 380.199 247.935C380.199 247.935 380.199 247.935 380.297 247.935C380.59 247.935 380.785 248.13 380.785 248.423L379.614 376.49C379.614 376.783 379.321 376.978 379.125 376.978Z" fill="#F2EBEB"/>
<path d="M365.753 376.978C365.46 376.978 365.265 376.783 365.265 376.49L370.438 248.521C370.438 248.228 370.633 248.033 370.926 248.033C371.219 248.033 371.414 248.228 371.414 248.521L366.241 376.49C366.241 376.783 366.045 376.978 365.753 376.978Z" fill="#F2EBEB"/>
<path d="M354.43 376.978C354.137 376.978 353.942 376.685 353.942 376.49L360.384 248.521C360.384 248.228 360.579 248.033 360.872 248.033C360.872 248.033 360.872 248.033 360.97 248.033C361.262 248.033 361.458 248.228 361.458 248.521L354.918 376.49C354.918 376.783 354.722 376.978 354.43 376.978Z" fill="#F2EBEB"/>
<path d="M347.304 376.978C347.011 376.978 346.816 376.685 346.816 376.49L353.942 248.521C353.942 248.228 354.137 248.033 354.43 248.033C354.722 248.033 354.918 248.228 354.918 248.521L347.792 376.49C347.792 376.783 347.597 376.978 347.304 376.978Z" fill="#F2EBEB"/>
<path d="M341.154 376.978C340.862 376.978 340.666 376.783 340.666 376.49L345.84 248.521C345.84 248.228 346.035 248.033 346.328 248.033C346.621 248.033 346.816 248.228 346.816 248.521L341.642 376.49C341.642 376.783 341.447 376.978 341.154 376.978Z" fill="#F2EBEB"/>
<path d="M458.484 288.542H290.982C290.689 288.542 290.494 288.346 290.494 288.053C290.494 287.761 290.689 287.565 290.982 287.565H458.484C458.777 287.565 458.972 287.761 458.972 288.053C458.972 288.346 458.777 288.542 458.484 288.542Z" fill="#F2EBEB"/>
<path d="M292.934 282.197C292.641 282.197 292.446 282.002 292.446 281.709C292.446 281.416 292.641 281.221 292.934 281.221L458.289 279.659C458.582 279.659 458.777 279.854 458.777 280.147C458.777 280.44 458.582 280.635 458.289 280.635L292.934 282.197Z" fill="#F2EBEB"/>
<path d="M260.039 352.673C259.746 352.673 259.551 352.478 259.551 352.185C259.551 351.892 259.746 351.697 260.039 351.697L470.783 347.695C471.076 347.695 471.271 347.89 471.271 348.085V348.183C471.271 348.476 471.076 348.671 470.783 348.671L260.039 352.673Z" fill="#F2EBEB"/>
<path d="M260.039 342.033C259.746 342.033 259.551 341.838 259.551 341.545C259.551 341.252 259.746 341.057 260.039 341.057L470.393 339.788C470.686 339.788 470.881 339.983 470.881 340.276C470.881 340.569 470.686 340.764 470.393 340.764L260.039 342.033Z" fill="#F2EBEB"/>
<path d="M470.393 332.076H260.039C259.746 332.076 259.551 331.881 259.551 331.588C259.551 331.295 259.746 331.1 260.039 331.1H470.393C470.686 331.1 470.881 331.295 470.881 331.588C470.881 331.881 470.588 332.076 470.393 332.076Z" fill="#F2EBEB"/>
<path d="M470.49 323.584L260.039 322.608C259.746 322.608 259.551 322.413 259.551 322.12C259.551 321.827 259.746 321.632 260.039 321.632L470.49 322.608C470.783 322.608 470.978 322.803 470.978 323.096C470.978 323.389 470.783 323.584 470.49 323.584Z" fill="#F2EBEB"/>
<path d="M470.393 316.361L260.039 312.358C259.746 312.358 259.551 312.163 259.551 311.87C259.551 311.578 259.746 311.382 260.039 311.382L470.393 315.384C470.686 315.384 470.881 315.58 470.881 315.872C470.881 316.165 470.588 316.361 470.393 316.361Z" fill="#F2EBEB"/>
<path d="M470.295 308.747L259.941 303.769C259.648 303.769 259.453 303.574 259.453 303.281C259.453 302.988 259.648 302.793 259.941 302.793L470.295 307.771C470.588 307.771 470.783 307.966 470.783 308.259C470.783 308.552 470.588 308.747 470.295 308.747Z" fill="#F2EBEB"/>
<path d="M470.295 303.769L259.941 298.302C259.648 298.302 259.453 298.107 259.453 297.814C259.453 297.521 259.648 297.326 259.941 297.326L470.295 302.792C470.588 302.792 470.783 302.988 470.783 303.281C470.783 303.573 470.588 303.769 470.295 303.769Z" fill="#F2EBEB"/>
<path d="M470.295 297.522L259.941 293.52C259.648 293.52 259.453 293.325 259.453 293.032C259.453 292.739 259.648 292.544 259.941 292.544L470.295 296.546C470.588 296.546 470.783 296.741 470.783 297.034C470.783 297.327 470.588 297.522 470.295 297.522Z" fill="#F2EBEB"/>
<path d="M338.421 381.956C338.128 381.956 337.933 381.761 337.933 381.468L332.76 253.205C332.76 252.913 332.955 252.717 333.248 252.717C333.541 252.717 333.736 252.913 333.736 253.205L338.909 381.468C338.909 381.761 338.714 381.956 338.421 381.956Z" fill="#F2EBEB"/>
<path d="M324.463 381.956C324.17 381.956 323.975 381.761 323.975 381.468L322.315 253.499C322.315 253.206 322.51 253.011 322.803 253.011C323.096 253.011 323.291 253.206 323.291 253.499L324.951 381.468C324.951 381.761 324.756 381.956 324.463 381.956Z" fill="#F2EBEB"/>
<path d="M311.48 381.956C311.187 381.956 310.992 381.761 310.992 381.468V253.499C310.992 253.206 311.187 253.011 311.48 253.011C311.773 253.011 311.968 253.206 311.968 253.499V381.468C311.968 381.761 311.773 381.956 311.48 381.956Z" fill="#F2EBEB"/>
<path d="M299.084 381.956C298.791 381.956 298.595 381.761 298.595 381.468L299.767 253.401C299.767 253.206 299.962 252.913 300.157 252.913H300.255C300.548 252.913 300.743 253.108 300.743 253.401L299.572 381.468C299.572 381.761 299.376 381.956 299.084 381.956Z" fill="#F2EBEB"/>
<path d="M285.808 381.956C285.515 381.956 285.32 381.761 285.32 381.468L290.494 253.499C290.494 253.206 290.689 253.011 290.982 253.011C291.275 253.011 291.47 253.206 291.47 253.499L286.296 381.468C286.296 381.761 286.101 381.956 285.808 381.956Z" fill="#F2EBEB"/>
</g>
<path d="M456.141 363.41L11.5182 363.508L0 377.564L456.434 376.49L456.141 363.41Z" fill="#F2EBEB"/>
</svg>
