<svg viewBox="0 0 1084 1084" fill="none" xmlns="http://www.w3.org/2000/svg">
<path d="M512.082 667.527C512.082 667.527 487.583 746.659 490.618 746.659C493.654 746.659 541.35 745.142 548.504 742.757C555.658 740.372 593.815 733.218 595.116 727.798C596.417 722.378 589.913 725.196 583.409 725.63C576.905 726.063 544.168 724.329 542.434 721.511C540.699 718.692 556.526 673.815 556.526 673.815L512.082 667.527Z" fill="#000001"/>
<path d="M191.868 841.618C191.868 841.618 158.698 884.544 144.389 906.007C130.08 927.47 123.793 958.256 119.457 957.606C115.121 956.955 111.652 853.975 119.457 853.108C127.262 852.241 140.27 845.954 150.242 830.127C160.215 814.301 157.397 803.678 164.551 803.678C171.706 803.678 191.868 841.618 191.868 841.618Z" fill="#000001"/>
<path d="M479.995 460.483C479.995 460.483 398.695 638.693 387.855 653.002C377.015 667.311 198.806 850.507 198.806 850.507L132.898 802.594L300.485 617.23L357.72 460.483H479.995Z" fill="#000001"/>
<path d="M395.443 287.26C395.443 287.26 397.394 379.833 404.115 383.953C410.836 388.072 436.418 358.804 436.418 358.804L446.825 297.883L395.443 287.26Z" fill="#A04040"/>
<path d="M453.112 256.258C453.112 256.258 537.664 252.139 545.903 248.02C554.141 243.901 553.491 160.649 553.491 160.649C553.491 160.649 414.088 180.595 398.912 187.966C383.736 195.337 396.961 331.705 396.961 331.705C396.961 331.705 418.424 346.013 446.608 326.935L453.112 256.258Z" fill="#000001"/>
<path d="M507.312 449.427C507.312 449.427 666.66 336.691 686.172 300.485C705.684 264.279 662.324 223.087 637.175 203.142C612.026 183.196 573.436 153.928 543.301 161.733C513.166 169.538 395.443 401.08 395.443 401.08C395.443 401.08 420.592 444.44 507.312 449.427Z" fill="black"/>
<path d="M678.584 93.441C678.584 93.441 679.234 142.871 677.066 143.088C674.898 143.305 670.129 140.27 670.129 140.27C670.129 140.27 667.527 173.874 647.365 214.415C647.365 214.415 612.46 190.784 586.878 171.272C586.878 171.272 619.831 59.837 630.238 58.9698C640.644 58.1026 678.584 93.441 678.584 93.441Z" fill="#A04040"/>
<path d="M625.685 90.8394C625.685 90.8394 624.818 114.904 621.349 118.373C617.88 121.842 607.69 106.666 607.69 106.666C607.69 106.666 618.53 54.417 625.685 49.4306C632.839 44.4442 726.714 112.086 716.741 113.82C706.768 115.555 678.584 93.441 678.584 93.441L646.064 81.9506C646.064 81.7338 635.658 91.273 625.685 90.8394Z" fill="black"/>
<path d="M608.341 107.316C608.341 107.316 593.815 95.3918 602.921 81.9502C612.026 68.5086 617.663 101.462 617.663 101.462L608.341 107.316Z" fill="#A04040"/>
<path d="M642.378 107.316C642.378 107.316 659.506 105.581 661.674 120.324C661.89 121.408 661.023 122.275 659.939 122.492H659.722C654.736 122.492 642.378 120.757 642.378 107.316Z" fill="#F2EBEB"/>
<path d="M641.511 107.099C643.896 106.449 646.281 106.449 648.666 106.882C651.05 107.316 653.435 107.966 655.603 109.267C657.771 110.568 659.506 112.519 660.59 114.687C661.674 116.855 662.107 119.457 661.674 121.841C661.023 117.289 658.422 113.386 654.519 111.001C652.568 109.701 650.617 108.833 648.449 108.183C646.064 107.749 643.896 107.316 641.511 107.099Z" fill="#000001"/>
<path d="M657.338 111.652C657.338 111.652 652.568 111.652 651.918 121.192C651.918 121.192 662.107 124.877 661.89 121.408C661.89 121.408 660.807 112.736 657.338 111.652Z" fill="#000001"/>
<path d="M637.609 130.73C637.826 133.549 638.476 136.15 639.343 138.752C639.777 139.836 640.427 140.703 641.078 141.57C641.945 142.654 643.029 143.522 644.33 144.606C640.644 145.69 636.742 143.738 635.441 140.27C634.79 138.535 634.79 136.584 635.224 134.85C635.441 133.332 636.308 131.814 637.609 130.73Z" fill="#000001"/>
<path d="M641.945 99.5113C644.113 98.6441 646.281 98.2105 648.449 98.4273C650.617 98.4273 652.785 98.8609 654.953 99.5113C659.289 100.595 662.974 103.197 665.793 106.666C663.625 106.232 661.674 105.799 659.506 105.365C657.554 104.715 655.603 104.281 653.652 103.631C649.75 102.33 646.064 101.246 641.945 99.5113Z" fill="black"/>
<path d="M586.878 171.272L661.674 233.928L648.232 212.681L586.878 171.272Z" fill="#F2EBEB"/>
<path d="M499.29 425.578C499.29 425.578 699.614 404.115 706.768 425.578C713.922 447.042 565.848 682.053 565.848 682.053L471.54 676.85L573.87 518.586C573.87 518.586 333.872 533.762 333.872 504.277C333.872 474.792 395.443 401.08 395.443 401.08L499.29 425.578Z" fill="#000001"/>
<path d="M743.407 306.772C743.407 306.772 733.218 226.773 729.098 213.331C724.979 199.89 719.559 190.351 732.567 184.28C745.575 178.21 770.507 178.86 773.326 184.28C776.144 189.7 772.025 216.8 769.206 212.681L766.605 208.562L761.835 232.193L792.404 303.303L743.407 306.772Z" fill="#A04040"/>
<path d="M645.197 333.222C645.197 333.222 736.903 416.69 758.366 414.305C779.83 411.921 811.699 370.295 792.187 303.521C792.187 303.521 760.751 294.632 742.974 303.521L743.841 320.431C743.841 320.431 639.777 202.492 614.411 208.996C589.046 215.5 645.197 333.222 645.197 333.222Z" fill="black"/>
<path d="M733.868 238.914C733.868 238.914 758.583 236.095 762.269 233.927C765.955 231.759 767.906 247.369 767.906 247.369C767.906 247.369 739.505 254.957 735.603 251.922C731.7 248.886 733.868 238.914 733.868 238.914Z" fill="black"/>
<path d="M731.05 237.613C731.05 237.613 740.372 232.41 745.358 236.313C750.345 240.215 754.464 257.125 745.358 260.161C736.253 263.196 727.581 259.293 727.581 252.573C727.581 245.852 727.581 238.914 731.05 237.613Z" fill="#000001"/>
<path d="M731.266 240.431C731.266 240.431 737.987 236.529 741.89 239.564C745.792 242.599 748.61 254.957 741.89 257.125C735.169 259.293 728.882 256.474 728.882 251.488C728.882 246.502 728.665 241.298 731.266 240.431Z" fill="#F2EBEB"/>
<path d="M736.686 252.139C736.036 250.621 735.602 249.104 735.602 247.369C735.386 245.852 735.602 244.117 736.253 242.6C737.337 245.635 737.554 249.104 736.686 252.139Z" fill="black"/>
<path d="M733.434 244.768C733.868 243.467 734.519 242.166 735.386 241.082L735.819 240.432L736.47 240.865C737.554 241.732 738.421 242.6 739.071 243.9C737.77 243.684 736.47 243.033 735.386 242.166L736.47 241.949C735.819 243.25 734.735 244.117 733.434 244.768Z" fill="black"/>
<path d="M89.7552 817.77C92.7904 813.217 95.8256 808.665 99.2944 804.329C102.546 799.993 106.232 795.873 109.701 791.537C113.17 787.201 117.072 783.299 120.974 779.397C124.877 775.494 128.779 771.592 133.115 768.123C130.08 772.893 127.045 777.229 123.576 781.565C120.324 785.901 116.638 790.02 113.17 794.356C109.701 798.692 105.798 802.377 102.113 806.28C97.9936 810.399 93.8744 814.301 89.7552 817.77Z" fill="black"/>
<path d="M101.896 779.396C103.847 775.927 106.015 772.458 108.4 769.206C110.785 765.954 113.17 762.919 115.771 759.884C118.373 756.849 121.191 754.03 124.01 751.212C126.828 748.394 129.863 745.792 133.115 743.19C131.164 746.659 128.996 750.128 126.611 753.38C124.226 756.632 121.842 759.667 119.24 762.702C116.638 765.738 113.82 768.556 111.002 771.374C108.183 774.193 105.148 777.011 101.896 779.396Z" fill="black"/>
<path d="M776.144 434.034C778.746 430.565 781.564 427.53 784.599 424.495C787.634 421.459 790.67 418.641 793.922 415.823C797.174 413.004 800.426 410.403 803.894 407.801C807.363 405.199 810.832 402.814 814.518 400.863C811.916 404.332 809.098 407.367 806.062 410.403C803.027 413.438 799.992 416.256 796.74 419.075C793.488 421.893 790.236 424.494 786.767 426.879C783.515 429.698 779.83 432.082 776.144 434.034Z" fill="black"/>
<path d="M814.518 425.362C815.818 423.194 817.119 421.242 818.854 419.508C820.371 417.774 822.106 416.039 823.84 414.522C825.574 413.004 827.526 411.486 829.477 410.186C831.428 408.885 833.596 407.801 835.981 406.717C834.68 408.885 833.379 410.836 831.645 412.57C830.127 414.305 828.393 416.039 826.658 417.557C824.924 419.074 822.973 420.592 821.022 421.893C819.07 423.41 816.902 424.494 814.518 425.362Z" fill="black"/>
<path d="M326.501 257.776C328.886 254.307 331.487 250.838 334.306 247.586C337.124 244.334 339.942 241.299 342.978 238.264C346.013 235.229 349.265 232.41 352.3 229.592C355.552 226.774 359.021 224.172 362.49 221.787C360.105 225.473 357.503 228.725 354.685 231.977C351.866 235.229 349.048 238.264 346.013 241.299C342.978 244.334 339.942 247.153 336.474 249.971C333.438 252.79 330.186 255.391 326.501 257.776Z" fill="black"/>
<path d="M354.685 257.775C352.95 260.811 350.999 263.629 348.831 266.231C346.663 268.832 344.495 271.434 342.11 273.819C339.726 276.203 337.341 278.588 334.739 280.756C332.138 283.141 329.319 285.092 326.501 287.043C328.235 284.008 330.186 281.19 332.354 278.588C334.522 275.987 336.69 273.385 339.075 271C341.46 268.615 343.845 266.231 346.446 264.063C348.831 261.678 351.65 259.727 354.685 257.775Z" fill="black"/>
<path d="M615.929 303.087C624.601 311.109 633.273 319.13 641.728 327.369C650.183 335.39 658.639 343.629 667.311 351.65C671.647 355.769 675.983 359.672 680.319 363.791C684.655 367.91 688.991 371.596 693.327 375.498C697.663 379.401 702.215 383.086 706.985 386.772C711.538 390.457 716.524 393.493 721.944 395.877C719.126 395.227 716.307 394.36 713.489 392.842C712.188 392.192 710.887 391.541 709.587 390.674L705.684 388.506C700.698 385.254 695.928 381.785 691.159 378.1C681.836 370.728 672.947 362.924 664.275 354.902C655.603 346.881 647.365 338.425 639.343 329.753C631.322 321.081 623.3 312.193 615.929 303.087Z" fill="#000001"/>
<path d="M106.232 1040.86C106.232 1040.86 96.0424 969.746 106.232 965.844C116.422 961.941 266.447 965.844 266.447 965.844V1040.86H106.232Z" fill="#F2EBEB"/>
<path d="M461.567 1040.86C461.567 1040.86 427.963 748.828 446.608 748.828C465.253 748.828 620.265 736.036 627.853 748.828C635.441 761.619 622.866 1040.86 622.866 1040.86H461.567Z" fill="black"/>
<path d="M792.187 1040.86L767.906 560.428L985.573 541.35L969.313 1040.86H792.187Z" fill="#F2EBEB"/>
<mask id="mask0_317_80" style="mask-type:luminance" maskUnits="userSpaceOnUse" x="767" y="541" width="219" height="500">
<path d="M792.187 1040.86L767.906 560.428L985.573 541.35L969.313 1040.86H792.187Z" fill="white"/>
</mask>
<g mask="url(#mask0_317_80)">
<path d="M790.453 507.095L791.537 587.094L792.621 666.876L794.355 826.875L795.439 986.873L796.089 1066.87L796.306 1146.87L795.005 1066.87L793.921 986.873L792.187 826.875L791.103 666.876L790.453 587.094V507.095Z" fill="#F2EBEB"/>
<path d="M835.33 507.312L839.016 587.311L842.268 667.093L848.772 827.092L854.626 986.873L857.661 1066.87L860.262 1146.87L856.577 1066.87L853.325 986.873L846.604 827.092L840.75 667.31L837.932 587.311L835.33 507.312Z" fill="#F2EBEB"/>
<path d="M883.677 507.528L888.013 587.311L892.132 667.31L900.154 827.092L907.525 987.09L911.21 1067.09L914.679 1146.87L910.126 1067.09L906.224 987.09L897.986 827.308L890.614 667.31L886.929 587.311L883.677 507.528Z" fill="#F2EBEB"/>
<path d="M948.934 1146.87L944.164 1067.09L939.611 987.09L930.722 827.308L922.484 667.31L918.365 587.311L914.679 507.528L919.449 587.311L924.002 667.31L932.89 827.092L941.129 987.09L945.248 1067.09L948.934 1146.87Z" fill="#F2EBEB"/>
<path d="M953.703 507.528L957.389 587.311L960.641 667.31L967.145 827.092L973.215 987.09L976.034 1067.09L978.635 1146.87L974.95 1067.09L971.698 987.09L964.977 827.308L959.123 667.31L956.305 587.311L953.703 507.528Z" fill="#F2EBEB"/>
<path d="M414.088 704.816L514.9 704.383L615.712 704.166L817.119 703.732L1018.53 704.166L1119.12 704.383L1219.93 704.816L1119.12 705.467L1018.53 705.684L817.119 705.9L615.712 705.684L514.9 705.467L414.088 704.816Z" fill="#F2EBEB"/>
<path d="M415.389 665.142L514.683 665.575L614.194 666.442L813 667.96L1011.81 670.345L1111.1 671.646L1210.61 673.163L1111.1 672.73L1011.81 671.862L813 670.128L614.194 667.96L514.683 666.659L415.389 665.142Z" fill="#F2EBEB"/>
<path d="M415.389 621.782L492.353 621.132L569.317 620.915L723.245 620.698L876.956 620.915L953.92 621.132L1030.88 621.782L953.92 622.216L876.956 622.433L723.245 622.649L569.317 622.433L492.353 622.216L415.389 621.782Z" fill="#F2EBEB"/>
<path d="M415.172 579.072L492.136 577.988L569.1 577.338L723.028 575.82L876.956 574.953L953.92 574.52H1030.88L953.92 575.604L876.956 576.471L723.028 577.988L569.1 578.639L492.136 579.072H415.172Z" fill="#F2EBEB"/>
<path d="M415.389 543.517L492.353 540.482L569.317 537.88L723.028 532.46L876.956 527.907L953.92 525.522L1030.88 523.571L953.92 526.606L876.956 529.208L723.245 534.628L569.317 539.181L492.353 541.566L415.389 543.517Z" fill="#F2EBEB"/>
<path d="M355.335 1005.52L481.946 1007.47L608.774 1009.85L861.997 1014.41L1115.44 1019.83L1242.26 1022.43L1368.88 1025.46L1242.26 1023.51L1115.44 1021.13L861.997 1016.57L608.558 1011.15L481.946 1008.55L355.335 1005.52Z" fill="#F2EBEB"/>
<path d="M357.286 965.844L483.681 966.061L610.075 966.711L863.081 967.795L1116.09 969.746L1242.48 970.613L1368.88 971.914L1242.48 971.697L1116.09 971.264L863.081 969.963L610.075 968.012L483.681 967.145L357.286 965.844Z" fill="#F2EBEB"/>
<path d="M357.286 922.267L483.681 921.833L610.075 921.616L863.081 921.183L1116.09 921.616L1242.48 921.833L1368.88 922.267L1242.48 922.917L1116.09 923.134L863.081 923.351L610.075 923.134L483.681 922.917L357.286 922.267Z" fill="#F2EBEB"/>
<path d="M356.853 879.774L483.247 878.69L609.858 878.04L862.864 876.306L1115.87 875.655L1242.48 875.222H1368.88L1242.48 876.306L1115.87 876.956L862.864 878.474L609.858 879.341L483.247 879.774H356.853Z" fill="#F2EBEB"/>
<path d="M357.286 844.002L483.681 841.184L610.075 838.365L863.081 833.162L1116.09 828.393L1242.48 826.225L1368.88 824.273L1242.48 827.309L1116.09 829.91L863.081 835.33L610.075 839.883L483.681 842.051L357.286 844.002Z" fill="#F2EBEB"/>
<path d="M357.503 805.628L483.897 802.16L610.292 798.908L863.297 792.404L1116.09 786.55L1242.7 783.515L1369.09 781.13L1242.7 784.599L1116.3 787.851L863.297 794.572L610.292 800.208L483.897 803.244L357.503 805.628Z" fill="#F2EBEB"/>
<path d="M1369.09 753.813L1242.7 757.716L1116.3 761.185L863.297 768.556L610.292 775.06L483.897 778.095L357.503 781.13L483.897 777.228L610.292 773.542L863.297 766.388L1116.09 759.884L1242.7 756.632L1369.09 753.813Z" fill="#F2EBEB"/>
<path d="M357.503 749.91L483.897 747.092L610.292 744.274L863.297 739.07L1116.09 734.301L1242.7 732.133L1369.09 730.182L1242.7 733.217L1116.3 735.818L863.297 741.238L610.292 745.791L483.897 747.959L357.503 749.91Z" fill="#F2EBEB"/>
</g>
<path d="M932.674 205.093C940.935 205.093 947.633 198.396 947.633 190.134C947.633 181.872 940.935 175.175 932.674 175.175C924.412 175.175 917.714 181.872 917.714 190.134C917.714 198.396 924.412 205.093 932.674 205.093Z" fill="#F2EBEB"/>
<path d="M103.414 584.493C112.274 584.493 119.457 577.31 119.457 568.449C119.457 559.589 112.274 552.406 103.414 552.406C94.5531 552.406 87.3704 559.589 87.3704 568.449C87.3704 577.31 94.5531 584.493 103.414 584.493Z" fill="#F2EBEB"/>
<path d="M232.193 383.086C243.927 383.086 253.439 373.573 253.439 361.839C253.439 350.105 243.927 340.593 232.193 340.593C220.459 340.593 210.946 350.105 210.946 361.839C210.946 373.573 220.459 383.086 232.193 383.086Z" fill="#F2EBEB"/>
<path d="M304.387 160.649C310.853 160.649 316.094 155.407 316.094 148.942C316.094 142.476 310.853 137.234 304.387 137.234C297.921 137.234 292.68 142.476 292.68 148.942C292.68 155.407 297.921 160.649 304.387 160.649Z" fill="#F2EBEB"/>
<path d="M704.817 842.051C713.677 842.051 720.86 834.868 720.86 826.008C720.86 817.148 713.677 809.965 704.817 809.965C695.956 809.965 688.774 817.148 688.774 826.008C688.774 834.868 695.956 842.051 704.817 842.051Z" fill="#F2EBEB"/>
<path d="M975.6 455.063C987.334 455.063 996.846 445.551 996.846 433.817C996.846 422.083 987.334 412.57 975.6 412.57C963.866 412.57 954.354 422.083 954.354 433.817C954.354 445.551 963.866 455.063 975.6 455.063Z" fill="#F2EBEB"/>
</svg>
