<svg viewBox="0 0 540 530" fill="none" xmlns="http://www.w3.org/2000/svg">
<path d="M16.006 333.249C16.006 333.249 149.305 282.355 165.311 271.351C181.317 260.347 261.472 195.198 268.6 191.821C275.727 188.445 274.852 199.824 266.849 211.078C266.849 211.078 290.858 189.195 297.61 190.696C304.363 192.196 299.361 202.7 290.358 212.704C290.358 212.704 306.739 199.199 313.116 198.449C320.494 197.698 320.994 207.077 304.613 228.085C304.613 228.085 322.37 217.581 327.246 219.832C332.123 222.083 330.873 229.585 309.49 251.468C288.857 272.601 254.97 295.36 254.469 301.737C253.969 308.114 278.228 302.988 289.733 304.363C301.237 305.739 311.24 312.616 302.487 317.368C293.734 322.12 261.222 331.123 225.334 335.375C189.445 339.626 42.0156 425.658 42.0156 425.658L16.006 333.249Z" fill="#A04040"/>
<path d="M230.961 239.59C233.962 237.214 237.088 234.963 240.214 232.587C243.34 230.211 246.341 228.085 249.342 225.709C252.344 223.334 255.345 221.083 258.346 218.707C261.347 216.331 264.098 213.83 266.974 211.204C264.848 214.455 262.347 217.456 259.596 220.207C256.845 222.958 253.969 225.459 250.843 227.835C247.717 230.211 244.591 232.337 241.214 234.338C237.963 236.338 234.462 238.089 230.961 239.59Z" fill="#000001"/>
<path d="M255.595 201.324C256.72 202.324 258.096 203.2 259.471 203.825C260.096 204.075 260.597 204.2 261.222 204.075C261.847 204.075 262.347 203.825 262.722 203.45C263.973 202.574 264.973 201.699 265.974 200.449C266.974 199.323 267.974 198.073 268.975 196.697C268.85 198.323 268.349 200.074 267.599 201.574C266.849 203.2 265.598 204.575 264.098 205.576C263.723 205.826 263.223 206.076 262.722 206.201C262.222 206.326 261.722 206.451 261.097 206.451C260.096 206.451 259.096 206.076 258.346 205.451C257.095 204.45 256.095 202.95 255.595 201.324Z" fill="#000001"/>
<path d="M282.23 198.573C282.104 200.574 282.48 202.45 283.355 204.2C283.73 204.951 284.355 205.576 285.106 206.076C285.481 206.326 285.856 206.451 286.231 206.701L286.731 206.826C286.856 206.826 287.106 206.826 287.231 206.826C288.982 206.701 290.608 205.951 291.858 204.701C293.359 203.325 294.859 201.949 296.235 200.449C295.609 202.45 294.609 204.45 293.234 206.076C292.483 206.951 291.733 207.702 290.733 208.327C289.732 209.077 288.482 209.327 287.106 209.327C286.731 209.327 286.481 209.327 286.106 209.202L285.106 208.827C284.855 208.702 284.605 208.577 284.355 208.327C284.105 208.202 283.855 207.952 283.605 207.827C282.605 207.076 281.979 206.076 281.604 204.826C280.854 202.825 281.104 200.574 282.23 198.573Z" fill="#000001"/>
<path d="M309.74 228.585C310.115 229.835 310.74 230.961 311.741 231.836C312.116 232.211 312.616 232.586 313.116 232.836C313.616 233.087 314.117 233.337 314.742 233.462H314.242C315.367 233.212 316.367 232.836 317.493 232.336C318.618 231.836 319.619 231.336 320.619 230.711C321.619 230.085 322.62 229.335 323.495 228.585C324.495 227.835 325.371 226.959 326.371 226.084C325.996 227.334 325.371 228.46 324.621 229.585C324.495 229.835 324.245 230.085 323.995 230.336L323.37 231.086C322.87 231.586 322.495 232.086 321.995 232.461C320.994 233.337 319.869 234.087 318.618 234.587C317.368 235.212 315.992 235.588 314.617 235.713H314.367L314.242 235.588C313.491 235.337 312.866 234.962 312.241 234.462C311.616 233.962 311.115 233.462 310.74 232.711C309.615 231.461 309.365 229.96 309.74 228.585Z" fill="#000001"/>
<path d="M288.607 322.62C287.357 321.12 286.732 319.369 286.606 317.493C286.481 316.368 286.857 315.243 287.607 314.367C287.732 314.117 287.982 313.867 288.232 313.742C288.482 313.617 288.732 313.367 288.857 313.242C289.232 312.992 289.733 312.742 290.108 312.617C291.858 311.866 293.609 311.491 295.485 311.491C296.36 311.491 297.36 311.491 298.236 311.616C299.111 311.741 300.111 312.116 300.862 312.617C299.986 312.617 299.111 312.617 298.236 312.867C297.36 312.992 296.61 313.242 295.735 313.492C294.109 313.867 292.484 314.492 290.983 314.993C290.358 315.243 289.733 315.618 289.107 315.993C288.732 316.493 288.357 317.118 288.357 317.744C288.357 319.244 288.357 320.995 288.607 322.62Z" fill="#000001"/>
<path d="M313.866 207.577C313.366 209.578 312.366 211.454 311.115 213.204C310.49 214.08 309.74 214.83 308.864 215.58C307.989 216.33 306.989 216.956 305.738 217.331C305.488 217.456 305.113 217.456 304.738 217.456H303.738C303.362 217.456 303.112 217.331 302.737 217.206C302.487 217.081 302.112 217.081 301.862 216.831C300.861 216.33 299.861 215.705 299.111 214.955C298.736 214.58 298.361 214.08 298.11 213.579C297.86 213.079 297.61 212.454 297.61 211.829C297.485 210.703 297.86 209.578 298.611 208.703C298.361 209.703 298.486 210.578 298.861 211.454C299.236 212.204 299.736 212.954 300.486 213.329C301.237 213.829 301.987 214.205 302.862 214.58C303.612 214.83 304.363 214.955 304.988 214.705C306.614 214.08 308.239 213.079 309.365 211.704C311.115 210.578 312.491 209.078 313.866 207.577Z" fill="#000001"/>
<path d="M290.483 212.705C287.607 216.206 284.606 219.458 281.48 222.709C278.353 225.96 275.102 229.086 271.851 232.087C268.6 235.088 265.223 238.089 261.847 240.966C258.471 243.842 254.845 246.593 251.093 249.094C254.219 245.842 257.346 242.716 260.597 239.59C263.723 236.464 266.974 233.338 270.225 230.337C273.477 227.335 276.728 224.334 280.229 221.333C283.73 218.332 286.857 215.456 290.483 212.705Z" fill="#000001"/>
<path d="M304.738 228.21C302.237 231.461 299.611 234.587 296.735 237.588C293.984 240.59 290.983 243.466 287.982 246.342C284.981 249.218 281.854 251.844 278.603 254.345C276.978 255.595 275.227 256.846 273.476 257.846L272.101 258.596L270.725 259.347C269.85 259.847 268.85 260.222 267.849 260.472C268.725 259.972 269.6 259.347 270.35 258.721L271.601 257.846L272.726 256.846C273.476 256.22 274.227 255.595 274.977 254.845C275.727 254.095 276.477 253.469 277.228 252.844C277.978 252.219 278.728 251.469 279.479 250.843L281.729 248.718L286.231 244.591C289.232 241.84 292.233 239.089 295.234 236.338C298.236 233.587 301.487 230.711 304.738 228.21Z" fill="#000001"/>
<path d="M0 333.249C0 333.249 121.92 280.479 133.424 286.356C133.424 286.356 140.802 315.867 147.555 325.246L100.787 364.885C100.787 364.885 147.305 381.642 167.312 379.016L169.813 422.532C169.813 422.532 147.805 425.283 131.799 413.028C115.793 400.774 107.415 437.662 88.5328 432.786C69.6508 427.909 10.0037 461.046 8.75325 452.418C7.50278 443.79 0 333.249 0 333.249Z" fill="black"/>
<path d="M200.324 217.581C197.323 213.705 195.072 209.328 193.447 204.701C191.821 200.075 190.946 195.198 190.696 190.196L190.571 188.32C190.571 187.695 190.571 187.07 190.696 186.445C190.821 185.194 190.821 183.944 190.946 182.693C191.321 180.192 191.821 177.816 192.446 175.44L192.946 173.69C193.071 173.065 193.322 172.564 193.572 171.939L195.072 168.563C195.572 167.438 196.198 166.312 196.823 165.312C197.448 164.311 198.073 163.186 198.824 162.186C198.448 163.311 197.948 164.436 197.448 165.562C196.948 166.687 196.573 167.813 196.198 168.938L195.197 172.314C194.947 172.94 194.822 173.44 194.697 174.065L194.322 175.816C193.822 178.066 193.447 180.442 193.197 182.818C193.071 183.944 193.071 185.194 193.071 186.32C193.071 186.945 192.946 187.445 193.071 188.07L193.197 189.821C193.322 194.573 194.072 199.199 195.322 203.826C196.573 208.703 198.198 213.33 200.324 217.581Z" fill="black"/>
<path d="M182.318 194.572C181.692 193.572 181.317 192.572 181.192 191.446C181.067 190.946 181.067 190.321 180.942 189.696C180.817 189.07 180.942 188.57 180.942 187.945C181.067 185.694 181.442 183.443 182.318 181.318C183.068 179.192 184.068 177.191 185.319 175.315C185.944 174.44 186.569 173.565 187.319 172.689C188.07 171.814 188.82 171.064 189.695 170.313C189.32 171.439 188.82 172.314 188.445 173.315C188.07 174.315 187.57 175.315 187.069 176.191C186.194 178.191 185.444 180.067 184.693 182.068C183.943 184.069 183.318 186.069 182.943 188.07C182.693 189.07 182.568 190.071 182.443 191.196C182.193 192.447 182.193 193.572 182.318 194.572Z" fill="black"/>
<path d="M52.6445 311.491C52.6445 311.491 60.0223 351.506 39.1395 366.512C18.2568 381.517 0 333.249 0 333.249L52.6445 311.491Z" fill="#F2EBEB"/>
<path d="M147.68 325.37C147.68 325.37 136.05 309.99 111.541 322.744C87.0322 335.499 100.787 364.885 100.787 364.885L147.68 325.37Z" fill="#F2EBEB"/>
<path d="M58.2716 378.515C58.2716 378.515 20.0074 387.269 33.1373 414.904C46.2672 442.539 71.4015 430.66 80.4048 412.028C89.4082 393.396 72.1518 372.888 58.2716 378.515Z" fill="#F2EBEB"/>
<path d="M140.552 108.791C140.552 108.791 169.563 145.43 186.694 153.057C203.826 160.685 303.237 185.444 309.615 189.571C315.992 193.698 306.239 198.699 292.984 197.824C292.984 197.824 322.995 206.327 325.121 212.454C327.246 218.582 316.242 219.832 303.613 217.706C303.613 217.706 322.995 224.209 326.746 229.086C331.123 234.713 323.745 239.84 298.236 237.214C298.236 237.214 315.867 246.342 316.367 251.469C316.867 256.596 310.24 259.347 281.604 253.095C253.969 246.967 218.206 230.961 212.829 233.837C207.452 236.713 223.833 253.845 228.585 263.849C233.337 273.852 232.711 285.607 224.458 280.73C216.205 275.853 194.947 246.092 173.314 218.957C151.681 191.822 88.6578 151.932 88.6578 151.932L140.552 108.791Z" fill="#EA8383"/>
<path d="M251.469 182.818C254.97 184.069 258.346 185.444 261.847 186.82C265.349 188.195 268.6 189.446 272.101 190.821C275.602 192.197 278.979 193.322 282.355 194.573C285.731 195.823 289.358 196.824 292.859 197.824C289.107 197.824 285.356 197.324 281.73 196.448C278.103 195.573 274.602 194.448 271.101 193.197C267.599 191.822 264.223 190.321 260.972 188.696C257.721 186.82 254.595 184.944 251.469 182.818Z" fill="#000001"/>
<path d="M295.234 183.568C294.984 185.069 294.984 186.569 295.234 187.945C295.359 188.57 295.485 189.07 295.86 189.571C296.235 189.946 296.61 190.321 297.11 190.571C298.361 191.071 299.736 191.446 301.112 191.696C302.612 191.946 304.113 192.072 305.613 192.322C304.238 193.072 302.612 193.572 300.987 193.697C299.236 193.822 297.61 193.572 295.985 192.947C295.485 192.697 295.109 192.447 294.734 192.197C294.359 191.821 293.984 191.446 293.734 191.071C293.234 190.196 293.109 189.195 293.109 188.32C293.359 186.319 293.984 184.819 295.234 183.568Z" fill="#000001"/>
<path d="M310.865 203.826C309.24 204.701 307.864 206.077 306.864 207.578C306.489 208.328 306.239 209.078 306.239 209.828C306.239 210.204 306.239 210.579 306.364 210.954C306.364 211.079 306.489 211.329 306.489 211.454C306.489 211.579 306.614 211.829 306.739 211.954C307.739 213.33 309.115 214.205 310.74 214.58C312.491 215.205 314.367 215.581 316.367 216.081C314.367 216.706 312.366 216.831 310.24 216.456C309.115 216.331 308.114 215.956 307.114 215.455C305.989 214.955 305.113 214.08 304.488 213.08C304.363 212.83 304.238 212.454 304.113 212.204C303.988 211.954 303.988 211.579 303.863 211.329C303.863 211.079 303.863 210.704 303.863 210.454C303.863 210.204 303.863 209.828 303.863 209.578C303.988 208.453 304.488 207.327 305.238 206.327C306.739 204.827 308.74 203.951 310.865 203.826Z" fill="#000001"/>
<path d="M300.361 241.466C299.611 242.341 298.986 243.467 298.736 244.717C298.611 245.217 298.611 245.842 298.611 246.343C298.611 246.843 298.736 247.468 298.861 247.968L298.611 247.468C299.361 248.218 300.236 248.844 301.112 249.469C301.987 250.094 302.987 250.594 303.988 251.219C304.988 251.72 306.114 252.22 307.114 252.595C308.239 252.97 309.365 253.345 310.615 253.72C309.365 253.97 308.114 254.095 306.864 254.095C306.614 254.095 306.239 254.096 305.864 253.97L304.863 253.845C304.238 253.72 303.613 253.595 302.987 253.345C301.737 252.97 300.612 252.345 299.486 251.72C298.361 250.969 297.36 250.094 296.61 249.094L296.485 248.844V248.593C296.36 247.843 296.36 247.093 296.36 246.343C296.485 245.592 296.61 244.842 296.985 244.217C297.861 242.841 298.986 241.841 300.361 241.466Z" fill="#000001"/>
<path d="M213.079 271.852C213.704 270.101 214.83 268.601 216.33 267.6C217.206 266.975 218.331 266.6 219.456 266.725C219.706 266.725 220.082 266.85 220.332 266.975C220.582 267.1 220.832 267.225 221.082 267.35C221.457 267.6 221.832 267.851 222.207 268.101C223.708 269.101 224.833 270.477 225.834 271.977C226.334 272.727 226.709 273.478 227.084 274.353C227.459 275.228 227.584 276.104 227.584 276.979C227.209 276.229 226.709 275.603 226.084 274.978C225.584 274.353 224.958 273.853 224.333 273.228C223.208 272.102 221.957 271.102 220.707 270.226C220.207 269.851 219.581 269.476 218.956 269.226C218.331 269.101 217.706 269.226 217.206 269.476C215.705 269.976 214.329 270.852 213.079 271.852Z" fill="#000001"/>
<path d="M319.619 234.213C317.743 234.838 315.617 235.088 313.616 234.838C312.616 234.713 311.491 234.588 310.49 234.213C309.365 233.962 308.365 233.337 307.489 232.587C307.239 232.337 307.114 232.087 306.864 231.962C306.739 231.712 306.489 231.462 306.364 231.211C306.239 230.961 306.114 230.586 305.989 230.336C305.864 230.086 305.864 229.711 305.864 229.461C305.739 228.335 305.739 227.335 305.989 226.21C306.114 225.709 306.364 225.084 306.614 224.584C306.864 224.084 307.239 223.709 307.739 223.334C308.615 222.708 309.74 222.333 310.74 222.583C309.865 222.958 309.115 223.459 308.615 224.209C308.114 224.959 307.864 225.709 307.864 226.585C307.864 227.46 307.989 228.21 308.114 229.086C308.239 229.836 308.615 230.461 309.115 230.836C310.49 231.837 311.991 232.587 313.742 232.962C315.742 233.337 317.618 233.712 319.619 234.213Z" fill="#000001"/>
<path d="M303.613 217.707C299.361 217.207 295.109 216.332 290.983 215.456C286.856 214.581 282.605 213.581 278.478 212.455C274.352 211.33 270.225 210.079 266.099 208.704C261.972 207.328 257.971 205.828 254.094 203.952C258.346 204.827 262.472 205.703 266.599 206.703C270.725 207.704 274.852 208.829 279.104 209.829C283.355 210.955 287.357 212.205 291.483 213.456C295.61 214.706 299.486 216.207 303.613 217.707Z" fill="#000001"/>
<path d="M298.236 237.213C294.359 236.838 290.358 236.338 286.481 235.462C282.605 234.712 278.728 233.837 274.977 232.836C271.226 231.836 267.349 230.586 263.723 229.21C261.847 228.46 260.097 227.71 258.221 226.834L256.845 226.084L255.595 225.334C254.72 224.833 253.969 224.208 253.219 223.583C254.094 224.083 254.97 224.458 255.845 224.708L257.22 225.209L258.596 225.584C259.471 225.834 260.472 226.209 261.347 226.459C262.222 226.709 263.223 227.084 264.098 227.209C264.973 227.334 265.974 227.71 266.849 227.96L269.725 228.71L275.352 230.21C279.104 231.211 282.855 232.211 286.606 233.337C290.358 234.462 294.484 235.838 298.236 237.213Z" fill="#000001"/>
<path d="M143.678 139.678C143.678 139.678 139.052 141.804 129.798 151.682C120.545 161.561 113.792 171.565 114.543 172.94C115.293 174.316 126.422 183.819 130.924 182.444C130.924 182.444 146.429 153.433 157.058 151.432C167.687 149.431 143.678 139.678 143.678 139.678Z" fill="black"/>
<path d="M8.7533 143.429C8.7533 143.429 17.6316 156.434 40.5151 144.054C63.3986 131.675 54.1451 163.437 86.5321 164.187L158.059 101.789L84.1563 26.5107L8.7533 143.429Z" fill="#000001"/>
<path d="M143.929 124.547C143.929 124.547 133.675 131.3 142.803 143.429C151.931 155.559 172.939 167.563 178.566 156.059C184.193 144.554 171.064 133.425 163.811 129.299C156.558 125.172 147.18 120.921 143.929 124.547Z" fill="#000001"/>
<path d="M172.689 108.416C177.566 109.291 182.193 110.917 186.444 113.168C190.821 115.419 194.822 118.42 198.324 121.921L199.574 123.297C199.949 123.797 200.324 124.297 200.825 124.672C201.575 125.672 202.45 126.548 203.201 127.548C204.576 129.549 205.826 131.675 206.952 133.925L207.702 135.551C207.952 136.051 208.202 136.676 208.452 137.302L209.703 140.803C210.078 141.928 210.328 143.179 210.578 144.304C210.828 145.555 211.078 146.68 211.203 147.931C210.703 146.805 210.328 145.68 209.828 144.554C209.453 143.429 208.953 142.304 208.452 141.178L206.952 137.927C206.702 137.427 206.452 136.802 206.077 136.426L205.201 134.926C203.951 132.925 202.7 130.924 201.325 129.049C200.575 128.048 199.824 127.298 199.074 126.298C198.699 125.797 198.324 125.422 197.949 124.922L196.698 123.672C193.322 120.295 189.696 117.294 185.694 114.793C181.442 112.292 177.191 110.167 172.689 108.416Z" fill="black"/>
<path d="M201.575 113.168C202.7 113.418 203.701 113.918 204.576 114.669C205.076 115.044 205.451 115.419 205.951 115.794C206.452 116.169 206.702 116.544 207.077 117.044C208.577 118.795 209.703 120.671 210.578 122.797C211.453 124.797 212.079 127.048 212.454 129.174C212.579 130.299 212.704 131.425 212.829 132.425C212.829 133.551 212.829 134.676 212.704 135.676C212.204 134.676 211.954 133.676 211.578 132.55C211.203 131.425 210.828 130.549 210.578 129.549C209.828 127.548 209.203 125.548 208.327 123.672C207.577 121.796 206.577 119.92 205.576 118.045C205.076 117.169 204.451 116.294 203.826 115.419C203.075 114.669 202.325 113.793 201.575 113.168Z" fill="black"/>
<path d="M153.182 135.927C153.932 136.177 154.682 136.552 155.308 137.052C155.933 137.552 156.558 137.928 157.183 138.428C158.434 139.428 159.559 140.553 160.56 141.679L159.559 141.304C161.31 141.179 162.935 141.179 164.686 141.304C165.561 141.429 166.437 141.429 167.312 141.554C168.187 141.679 169.063 141.929 169.938 142.054C169.063 142.304 168.312 142.554 167.437 142.804C166.562 142.929 165.687 143.179 164.936 143.305C163.186 143.555 161.56 143.68 159.809 143.68H159.184L158.809 143.305C157.809 142.179 156.808 140.929 155.933 139.678C155.433 139.053 155.058 138.428 154.557 137.802L153.182 135.927Z" fill="#F2EBEB"/>
<path d="M420.281 66.1504C420.281 66.1504 383.642 99.0376 365.385 107.791C347.129 116.544 247.091 154.558 240.464 159.185C233.836 163.812 244.34 168.939 258.721 167.563C258.721 167.563 226.584 177.817 224.458 184.569C222.332 191.322 234.337 192.322 247.967 189.571C247.967 189.571 227.334 197.324 223.458 202.576C218.956 208.828 227.084 214.08 254.469 210.329C254.469 210.329 235.712 220.833 235.337 226.335C234.962 231.837 242.09 239.215 272.851 231.337C302.487 223.709 339 208.328 346.628 203.576C348.254 202.576 335.374 225.585 330.622 236.589C325.871 247.593 326.871 260.222 335.624 254.72C344.377 249.218 366.01 223.209 395.021 199.45C427.533 172.69 487.806 138.052 487.806 138.052L420.281 66.1504Z" fill="#A04040"/>
<path d="M302.862 149.931C299.611 152.307 296.235 154.432 292.733 156.308C289.232 158.184 285.606 159.934 281.979 161.56C278.228 163.061 274.477 164.436 270.6 165.436C266.724 166.562 262.722 167.187 258.721 167.437C262.597 166.187 266.349 164.936 269.975 163.561C273.601 162.185 277.353 160.685 280.979 159.184C284.605 157.684 288.232 156.058 291.858 154.557C295.484 153.057 299.236 151.556 302.862 149.931Z" fill="#000001"/>
<path d="M255.845 152.307C257.095 153.557 257.846 155.308 258.096 157.058C258.221 158.059 257.971 159.184 257.595 160.06C257.345 160.56 256.97 160.935 256.595 161.31C256.22 161.685 255.845 161.935 255.345 162.185C253.719 162.936 251.843 163.311 250.093 163.186C248.342 163.186 246.591 162.685 245.091 161.935C246.841 161.685 248.467 161.435 249.968 161.185C251.468 160.935 252.844 160.435 254.219 159.809C254.719 159.559 255.22 159.184 255.595 158.684C255.97 158.184 256.22 157.559 256.22 156.933C256.22 155.433 256.095 153.807 255.845 152.307Z" fill="#000001"/>
<path d="M239.464 174.69C241.84 174.69 243.965 175.691 245.591 177.441C246.466 178.442 246.966 179.567 247.217 180.818C247.342 181.068 247.342 181.443 247.342 181.818C247.342 182.193 247.342 182.443 247.342 182.818C247.342 183.194 247.217 183.444 247.092 183.819C246.966 184.194 246.841 184.444 246.716 184.819C246.091 185.945 245.091 186.945 243.965 187.445C242.965 187.945 241.84 188.32 240.714 188.571C238.588 188.946 236.338 188.946 234.087 188.446C236.087 187.945 238.213 187.445 240.214 186.695C242.09 185.945 243.84 184.944 244.591 183.694C244.716 183.569 244.716 183.319 244.841 183.194C244.841 183.069 244.966 182.818 244.966 182.693C244.966 182.318 244.966 181.818 244.966 181.443C244.966 180.568 244.591 179.692 244.215 178.942C242.84 176.941 241.339 175.691 239.464 174.69Z" fill="#000001"/>
<path d="M252.218 214.955C253.719 215.455 254.844 216.456 255.595 217.831C255.97 218.581 256.22 219.332 256.345 220.082C256.47 220.832 256.47 221.708 256.345 222.458V222.708L256.22 222.958C255.345 224.083 254.344 225.084 253.219 225.959C252.093 226.709 250.843 227.46 249.592 227.96C248.967 228.21 248.342 228.46 247.592 228.585H246.341L245.341 228.71C243.965 228.835 242.715 228.835 241.339 228.585C242.59 228.085 243.84 227.835 244.966 227.335C246.091 226.834 247.342 226.334 248.342 225.834C249.467 225.209 250.468 224.584 251.468 223.833C252.468 223.083 253.344 222.333 254.094 221.583L253.844 222.083C253.969 221.457 254.094 220.957 254.094 220.332C254.094 219.707 254.094 219.082 253.969 218.581C253.844 217.081 253.094 215.955 252.218 214.955Z" fill="#000001"/>
<path d="M347.504 244.967C346.128 243.841 344.628 242.966 343.002 242.216C342.377 241.966 341.751 241.841 341.001 242.091C340.376 242.341 339.751 242.716 339.126 243.216C337.75 244.342 336.5 245.467 335.249 246.717C334.624 247.343 333.999 247.968 333.498 248.718C332.873 249.343 332.373 250.094 331.998 250.969C331.873 249.969 332.123 248.968 332.498 248.093C332.873 247.218 333.248 246.342 333.874 245.592C334.874 243.966 336.249 242.591 337.75 241.34C338.125 241.09 338.625 240.715 339 240.465C339.251 240.34 339.501 240.215 339.751 240.09C340.001 239.965 340.376 239.84 340.626 239.84C341.751 239.715 343.002 239.965 343.877 240.59C345.503 241.591 346.753 243.091 347.504 244.967Z" fill="#000001"/>
<path d="M231.211 207.827C233.336 207.327 235.337 206.952 237.338 206.326C238.338 206.076 239.214 205.701 240.089 205.326C240.964 204.951 241.714 204.451 242.34 203.951C242.965 203.45 243.215 202.7 243.34 201.95C243.465 201.075 243.59 200.074 243.465 199.199C243.465 198.323 243.09 197.448 242.59 196.698C241.965 195.948 241.089 195.322 240.214 195.072C241.339 194.947 242.465 195.197 243.465 195.823C243.965 196.198 244.34 196.698 244.716 197.198C244.966 197.698 245.216 198.323 245.466 198.824C245.716 199.949 245.841 201.075 245.716 202.325C245.716 202.7 245.716 202.95 245.591 203.325C245.591 203.7 245.466 203.951 245.341 204.326C245.216 204.576 244.966 204.951 244.841 205.201C244.716 205.451 244.465 205.701 244.215 205.951C243.34 206.827 242.34 207.452 241.089 207.827C240.089 208.202 238.963 208.452 237.838 208.577C235.462 208.452 233.211 208.327 231.211 207.827Z" fill="#000001"/>
<path d="M247.967 189.446C252.218 187.695 256.595 186.194 260.971 184.694C265.348 183.193 269.725 181.818 274.226 180.442C278.728 179.067 283.105 177.816 287.606 176.566C292.108 175.315 296.485 174.19 301.111 173.064C296.985 175.065 292.608 176.941 288.231 178.441C283.855 180.067 279.478 181.443 274.977 182.818C270.475 184.194 266.098 185.444 261.597 186.569C257.095 187.695 252.468 188.695 247.967 189.446Z" fill="#000001"/>
<path d="M254.344 210.328C258.346 208.828 262.347 207.452 266.349 206.202C270.35 204.951 274.477 203.701 278.478 202.45L284.605 200.575L287.606 199.699C288.607 199.324 289.607 199.074 290.608 198.699C291.608 198.324 292.608 198.074 293.609 197.699C294.609 197.323 295.609 197.073 296.61 196.698L298.11 196.198L299.611 195.573C300.611 195.198 301.487 194.697 302.487 194.197C301.737 194.948 300.861 195.573 299.986 196.198L298.611 197.073L297.235 197.824C295.359 198.824 293.359 199.699 291.358 200.575C287.481 202.2 283.355 203.576 279.353 204.826C275.352 206.077 271.1 207.202 266.974 208.077C262.847 209.078 258.596 209.828 254.344 210.328Z" fill="#000001"/>
<path d="M481.929 0C481.929 0 420.281 66.1495 405.15 79.1544C400.648 83.0308 463.297 150.181 466.798 150.431C470.299 150.681 539.2 118.419 539.2 118.419" fill="black"/>
<mask id="mask0_61_1802" style="mask-type:luminance" maskUnits="userSpaceOnUse" x="404" y="0" width="136" height="151">
<path d="M539.2 118.542C539.2 118.542 470.299 150.929 466.798 150.554C463.296 150.179 400.648 83.1538 405.15 79.2774C420.405 66.1475 482.053 0.123047 482.053 0.123047L539.2 118.542Z" fill="white"/>
</mask>
<g mask="url(#mask0_61_1802)">
<path d="M579.214 253.841C578.964 253.841 578.714 253.716 578.589 253.341L485.43 -73.4049C485.305 -73.7801 485.555 -74.0302 485.805 -74.1552C486.18 -74.2803 486.43 -74.0302 486.555 -73.7801L579.715 252.966C579.84 253.341 579.59 253.591 579.214 253.716C579.339 253.841 579.214 253.841 579.214 253.841Z" fill="#F2EBEB"/>
<path d="M549.579 261.22C549.328 261.22 549.078 260.97 548.953 260.72L463.547 -67.277C463.422 -67.6521 463.672 -67.9022 464.047 -68.0273C464.422 -68.1523 464.672 -67.9022 464.797 -67.6521L550.204 260.47C550.329 260.845 550.079 261.095 549.704 261.22H549.579Z" fill="#F2EBEB"/>
<path d="M522.068 268.096C521.818 268.096 521.568 267.846 521.443 267.596L439.413 -61.2758C439.288 -61.6509 439.538 -61.901 439.913 -62.0261C440.288 -62.1511 440.538 -61.901 440.663 -61.5259L522.694 267.346C522.819 267.721 522.569 267.971 522.193 268.096H522.068Z" fill="#F2EBEB"/>
<path d="M495.934 274.6C495.683 274.6 495.433 274.35 495.308 274.099L415.904 -55.5229C415.779 -55.898 416.029 -56.1481 416.404 -56.2731C416.779 -56.3982 417.029 -56.1481 417.154 -55.773L496.559 273.849C496.684 274.224 496.434 274.475 496.059 274.6H495.934Z" fill="#F2EBEB"/>
<path d="M467.798 281.602C467.548 281.602 467.298 281.352 467.173 281.102L396.147 -50.5209C396.021 -50.896 396.272 -51.1461 396.647 -51.2712C397.022 -51.3962 397.272 -51.1461 397.397 -50.771L468.423 280.852C468.548 281.227 468.298 281.477 467.923 281.602H467.798Z" fill="#F2EBEB"/>
<path d="M443.914 287.604C443.664 287.604 443.414 287.354 443.289 287.104L374.889 -45.144C374.764 -45.5191 375.014 -45.7692 375.389 -45.8942C375.764 -46.0193 376.014 -45.7692 376.139 -45.394L444.414 286.854C444.539 287.229 444.414 287.479 443.914 287.604C444.039 287.604 444.039 287.604 443.914 287.604Z" fill="#F2EBEB"/>
<path d="M428.784 291.356C428.534 291.356 428.284 291.105 428.159 290.855L361.259 -41.768C361.134 -42.1431 361.384 -42.3932 361.759 -42.5183C362.134 -42.6433 362.384 -42.3932 362.509 -42.0181L429.409 290.605C429.409 290.98 429.284 291.231 428.909 291.356H428.784Z" fill="#F2EBEB"/>
<path d="M415.654 294.607C415.404 294.607 415.154 294.357 415.029 294.107L344.127 -37.391C344.002 -37.7662 344.252 -38.0163 344.628 -38.1413C345.003 -38.2663 345.253 -38.0163 345.378 -37.6411L416.404 293.982C416.404 294.357 416.279 294.607 415.904 294.732L415.654 294.607Z" fill="#F2EBEB"/>
<path d="M248.342 75.7757C247.967 75.7757 247.717 75.5256 247.592 75.2756C247.467 75.0255 247.842 74.6503 248.092 74.5253L602.723 -13.8825C603.098 -14.0076 603.474 -13.7575 603.474 -13.3823C603.474 -13.0072 603.349 -12.632 602.973 -12.632L248.467 75.7757H248.342Z" fill="#F2EBEB"/>
<path d="M249.092 61.2707C248.842 61.2707 248.592 61.1457 248.467 60.7705C248.342 60.3954 248.592 60.1453 248.967 60.0203L598.097 -30.6384C598.472 -30.7634 598.847 -30.5133 598.847 -30.1382C598.847 -29.763 598.722 -29.3879 598.347 -29.3879L249.217 61.2707H249.092Z" fill="#F2EBEB"/>
<path d="M322.744 19.7553C322.494 19.7553 322.244 19.5052 322.119 19.2551C321.994 18.88 322.244 18.6299 322.619 18.5048L593.595 -49.0202C593.97 -49.1453 594.22 -48.8952 594.345 -48.52C594.47 -48.1449 594.22 -47.8948 593.845 -47.7697L322.869 19.7553H322.744Z" fill="#F2EBEB"/>
<path d="M192.696 170.437C192.446 170.437 192.196 170.186 192.071 169.936C191.946 169.561 192.196 169.311 192.446 169.186L636.486 49.5167C636.861 49.3916 637.111 49.6417 637.236 49.8918C637.361 50.2669 637.111 50.517 636.861 50.6421L192.821 170.311C192.821 170.437 192.821 170.437 192.696 170.437Z" fill="#F2EBEB"/>
<path d="M187.069 147.803C186.694 147.803 186.444 147.553 186.319 147.303C186.194 147.052 186.569 146.677 186.819 146.552L631.484 32.8851C631.859 32.76 632.109 33.0101 632.234 33.3853C632.359 33.7604 632.109 34.0105 631.734 34.1355L187.069 147.803Z" fill="#F2EBEB"/>
<path d="M181.817 126.795C181.442 126.795 181.192 126.545 181.067 126.295C180.942 126.045 181.317 125.669 181.567 125.544L626.857 14.5032C627.232 14.3782 627.607 14.6283 627.607 15.0034C627.607 15.3786 627.482 15.7537 627.107 15.7537L181.692 126.67L181.817 126.795Z" fill="#F2EBEB"/>
<path d="M176.94 106.787C176.69 106.787 176.44 106.537 176.315 106.287C176.19 105.912 176.44 105.662 176.815 105.537L622.73 -3.50385C623.106 -3.6289 623.356 -3.3788 623.481 -3.12871C623.606 -2.75357 623.356 -2.50348 622.981 -2.37843L176.94 106.662V106.787Z" fill="#F2EBEB"/>
<path d="M171.563 85.154C171.313 85.154 171.063 84.9039 170.938 84.6539C170.813 84.2787 171.063 84.0286 171.438 83.9036L618.854 -18.6345C619.229 -18.7595 619.48 -18.5094 619.605 -18.1343C619.73 -17.7591 619.48 -17.509 619.104 -17.384L171.688 85.154H171.563Z" fill="#F2EBEB"/>
<path d="M166.812 66.8974C166.436 66.8974 166.186 66.6473 166.061 66.3973C166.061 66.0221 166.311 65.772 166.561 65.647L614.478 -34.8903C614.853 -35.0154 615.103 -34.7653 615.228 -34.3901C615.353 -34.015 615.103 -33.7649 614.728 -33.6399L167.062 66.8974H166.812Z" fill="#F2EBEB"/>
<path d="M163.935 55.3931C163.685 55.3931 163.435 55.143 163.31 54.8929C163.185 54.5178 163.435 54.2677 163.81 54.1426L612.102 -45.2692C612.477 -45.3943 612.727 -45.1442 612.852 -44.769C612.977 -44.3939 612.727 -44.1438 612.352 -44.0188L164.061 55.2681L163.935 55.3931Z" fill="#F2EBEB"/>
<path d="M161.434 45.3904C161.184 45.3904 160.934 45.1403 160.809 44.8902C160.684 44.5151 160.934 44.265 161.309 44.1399L608.725 -58.5231C609.101 -58.6482 609.351 -58.3981 609.476 -58.0229C609.601 -57.6478 609.351 -57.3977 608.975 -57.2727L161.56 45.2654L161.434 45.3904Z" fill="#F2EBEB"/>
<path d="M223.458 257.717C223.207 257.717 222.957 257.467 222.832 257.217C222.707 256.842 222.957 256.592 223.333 256.467L668.623 145.426C668.998 145.301 669.248 145.551 669.373 145.801C669.498 146.176 669.248 146.426 668.873 146.551L223.583 257.592L223.458 257.717Z" fill="#F2EBEB"/>
<path d="M218.581 237.836C218.206 237.836 217.956 237.586 217.831 237.336C217.705 237.086 218.081 236.711 218.331 236.586L664.371 127.545C664.746 127.42 664.996 127.67 665.121 128.045C665.246 128.421 664.996 128.671 664.621 128.796L218.581 237.836Z" fill="#F2EBEB"/>
<path d="M213.079 216.203C212.829 216.203 212.578 215.953 212.453 215.703C212.328 215.328 212.578 215.077 212.954 214.952L660.37 112.414C660.745 112.289 660.995 112.539 661.12 112.915C661.245 113.29 660.995 113.54 660.62 113.665L213.204 216.203H213.079Z" fill="#F2EBEB"/>
<path d="M208.452 197.945C208.077 197.945 207.827 197.695 207.702 197.445C207.702 197.07 207.952 196.82 208.202 196.695L656.118 96.1575C656.493 96.0325 656.743 96.2826 656.868 96.6577C656.993 97.0329 656.743 97.2829 656.368 97.408L208.452 197.945Z" fill="#F2EBEB"/>
<path d="M205.576 186.317C205.201 186.317 204.951 186.067 204.826 185.817C204.826 185.442 205.076 185.192 205.326 185.066L653.617 85.6546C653.992 85.5296 654.242 85.7796 654.367 86.1548C654.492 86.5299 654.242 86.78 653.867 86.9051L205.701 186.317H205.576Z" fill="#F2EBEB"/>
<path d="M203.075 176.313C202.825 176.313 202.575 176.063 202.45 175.813C202.325 175.438 202.575 175.188 202.95 175.063L650.366 72.5247C650.741 72.3997 650.991 72.6498 651.116 73.0249C651.241 73.4 650.991 73.6501 650.616 73.7752L203.2 176.313H203.075Z" fill="#F2EBEB"/>
</g>
<path d="M463.672 129.173C463.672 129.173 457.42 137.926 467.298 138.426C477.177 138.926 481.804 130.924 477.927 126.047C474.051 121.17 464.922 126.797 463.672 129.173Z" fill="#F2EBEB"/>
<path d="M365.885 269.976C365.135 274.852 363.51 279.479 361.259 283.856C359.008 288.232 356.007 292.234 352.631 295.735L351.38 296.986C350.88 297.486 350.38 297.736 350.005 298.236C349.004 298.986 348.129 299.862 347.128 300.612C345.128 302.113 343.002 303.363 340.876 304.488L339.251 305.364C338.75 305.614 338.125 305.864 337.5 306.114L333.999 307.364C332.873 307.74 331.623 308.115 330.497 308.24C329.247 308.49 328.121 308.74 326.871 308.99C327.996 308.49 329.122 308.115 330.247 307.615C331.373 307.239 332.498 306.739 333.498 306.239L336.75 304.613C337.25 304.363 337.875 304.113 338.25 303.738L339.751 302.863C341.752 301.612 343.752 300.237 345.628 298.861C346.503 298.111 347.379 297.361 348.254 296.61C348.754 296.235 349.129 295.86 349.629 295.485L350.88 294.235C354.256 290.858 357.132 287.107 359.633 283.105C362.134 278.854 364.26 274.477 365.885 269.976Z" fill="black"/>
<path d="M361.509 298.861C361.259 299.987 360.759 300.987 360.008 301.862C359.633 302.363 359.258 302.738 358.883 303.238C358.508 303.738 358.133 303.988 357.632 304.363C355.882 305.864 354.006 307.114 351.88 307.99C349.88 308.865 347.754 309.49 345.503 309.865C344.377 309.99 343.252 310.115 342.252 310.241C341.126 310.241 340.001 310.241 339 310.241C340.001 309.74 341.001 309.49 342.127 309.115C343.252 308.74 344.127 308.365 345.128 307.99C347.128 307.239 349.129 306.489 351.005 305.614C352.881 304.864 354.756 303.863 356.507 302.738C357.382 302.238 358.258 301.612 359.008 300.987C360.008 300.362 360.884 299.612 361.509 298.861Z" fill="black"/>
<path d="M204.201 412.278C204.201 412.278 224.958 369.512 228.21 350.255C231.461 330.998 240.214 228.21 242.715 220.707C245.216 213.204 252.844 221.707 255.345 235.337C255.345 235.337 256.345 202.825 261.972 199.074C267.599 195.323 271.726 206.202 272.851 219.582C272.851 219.582 274.477 198.324 278.478 193.322C283.105 187.445 290.108 193.697 293.984 220.082C293.984 220.082 298.736 199.949 303.738 198.074C308.74 196.198 313.241 202.2 314.242 232.837C315.117 262.347 307.989 302.612 312.366 307.364C316.743 312.116 329.747 291.108 338.751 283.855C347.754 276.603 359.633 274.102 356.882 283.73C354.131 293.359 338.251 322.995 316.242 351.756C294.234 380.516 280.479 441.039 280.479 441.039L204.201 412.278Z" fill="#EA8383"/>
<path d="M250.718 281.105C251.093 277.228 251.593 273.477 252.094 269.601C252.594 265.724 253.094 261.973 253.469 258.221C253.844 254.47 254.344 250.594 254.594 246.842C254.845 243.091 255.095 239.214 255.22 235.338C256.095 239.089 256.595 242.966 256.595 246.842C256.595 250.719 256.47 254.595 255.97 258.471C255.47 262.348 254.845 266.099 253.969 269.851C253.219 273.727 252.094 277.479 250.718 281.105Z" fill="#000001"/>
<path d="M240.339 236.838C241.84 236.713 243.34 236.338 244.841 235.837C245.466 235.587 245.966 235.212 246.342 234.712C246.717 234.212 246.967 233.712 246.967 233.211C247.217 231.836 247.217 230.335 247.092 228.835C246.967 227.334 246.717 225.709 246.467 224.083C247.592 225.333 248.467 226.834 248.968 228.46C249.593 230.085 249.718 231.961 249.468 233.712C249.343 234.212 249.218 234.712 248.968 235.087C248.717 235.587 248.467 235.962 247.967 236.338C247.217 236.963 246.342 237.463 245.341 237.713C243.591 237.838 241.84 237.588 240.339 236.838Z" fill="#000001"/>
<path d="M256.845 215.705C258.221 217.081 259.847 218.206 261.722 218.832C262.598 219.082 263.348 219.082 264.223 218.832C264.598 218.707 265.099 218.581 265.474 218.456C265.599 218.331 265.724 218.331 265.974 218.206C266.099 218.081 266.224 217.956 266.349 217.831C267.474 216.456 268.1 214.83 267.975 213.079C268.1 211.079 268.1 209.078 267.975 206.952C268.975 208.828 269.725 210.829 269.85 213.079C269.975 214.205 269.975 215.33 269.725 216.456C269.475 217.706 268.85 218.832 267.975 219.707C267.725 219.957 267.474 220.082 267.224 220.332L266.349 220.832C266.099 220.957 265.724 221.082 265.474 221.082C265.224 221.207 264.848 221.207 264.598 221.207C263.348 221.332 262.097 221.207 261.097 220.582C258.971 219.582 257.471 217.831 256.845 215.705Z" fill="#000001"/>
<path d="M297.61 216.831C298.736 217.457 299.986 217.707 301.362 217.707C301.987 217.707 302.487 217.582 303.112 217.331C303.613 217.081 304.238 216.831 304.738 216.581L304.363 216.956C304.863 215.956 305.363 214.956 305.738 213.83C306.114 212.705 306.489 211.579 306.739 210.454C306.989 209.328 307.114 208.078 307.239 206.828C307.364 205.577 307.364 204.327 307.489 203.076C308.114 204.202 308.489 205.452 308.739 206.703C308.739 207.078 308.865 207.328 308.865 207.703L308.99 208.703C308.99 209.328 308.99 210.079 308.99 210.704C308.865 212.08 308.614 213.33 308.114 214.58C307.614 215.831 306.989 217.081 306.239 218.207L305.988 218.457L305.863 218.582C305.113 218.957 304.363 219.082 303.613 219.207C302.862 219.332 302.112 219.332 301.362 219.082C299.736 218.832 298.486 217.957 297.61 216.831Z" fill="#000001"/>
<path d="M350.63 297.234C348.754 297.109 346.879 296.359 345.503 295.109C344.628 294.358 344.128 293.358 343.878 292.233C343.878 291.982 343.878 291.607 343.878 291.357C343.878 291.107 344.003 290.857 344.003 290.607C344.128 290.107 344.253 289.732 344.503 289.231C345.253 287.481 346.128 285.98 347.379 284.48C348.004 283.729 348.629 283.104 349.38 282.604C350.13 281.979 351.005 281.604 351.881 281.479C351.255 282.104 350.755 282.729 350.255 283.479C349.755 284.23 349.38 284.855 349.004 285.605C348.129 287.106 347.504 288.606 346.879 290.107C346.629 290.732 346.378 291.357 346.253 292.107C346.253 292.733 346.504 293.358 346.879 293.858C348.004 295.109 349.255 296.234 350.63 297.234Z" fill="#000001"/>
<path d="M285.231 199.198C286.356 200.949 286.982 202.95 287.357 205.075C287.607 206.201 287.607 207.201 287.482 208.327C287.482 209.452 287.107 210.703 286.606 211.703C286.481 211.953 286.231 212.203 286.106 212.453C285.856 212.703 285.606 212.953 285.356 213.203C285.106 213.454 284.856 213.579 284.606 213.704C284.356 213.829 284.105 213.954 283.73 214.079C282.73 214.454 281.605 214.704 280.479 214.704C279.854 214.704 279.354 214.579 278.728 214.454C278.103 214.329 277.603 213.954 277.103 213.704C276.228 212.953 275.602 211.953 275.477 210.828C275.977 211.578 276.728 212.203 277.728 212.578C278.478 212.828 279.354 212.953 280.229 212.703C281.104 212.578 281.98 212.203 282.73 211.828C283.355 211.578 283.98 210.953 284.356 210.327C285.106 208.702 285.356 206.826 285.356 205.075C285.481 203.2 285.356 201.199 285.231 199.198Z" fill="#000001"/>
<path d="M272.726 219.581C273.227 224.083 273.477 228.459 273.602 232.961C273.727 237.463 273.727 241.839 273.727 246.341C273.727 250.843 273.477 255.219 273.102 259.721C272.851 264.223 272.226 268.599 271.476 273.101C271.351 268.599 271.226 264.098 271.226 259.721C271.226 255.344 271.226 250.843 271.226 246.341C271.226 241.839 271.476 237.463 271.601 232.961C271.726 228.459 272.226 224.083 272.726 219.581Z" fill="#000001"/>
<path d="M293.859 220.082C294.484 224.209 294.86 228.21 295.11 232.337C295.36 236.463 295.36 240.59 295.36 244.716C295.36 248.843 295.11 252.969 294.609 257.096C294.359 259.097 294.109 261.222 293.609 263.223L293.234 264.724L292.734 266.224C292.359 267.225 291.983 268.225 291.483 269.1C291.733 268.1 291.858 267.099 291.983 266.099L292.109 264.599L292.234 263.098C292.359 262.098 292.359 261.097 292.359 260.097C292.359 259.097 292.484 258.096 292.484 257.096C292.484 256.095 292.484 255.095 292.609 254.095V251.094L292.734 244.966C292.859 240.84 292.859 236.838 292.984 232.712C293.109 228.585 293.359 224.084 293.859 220.082Z" fill="#000001"/>
<path d="M147.68 511.815C147.68 511.815 185.819 397.397 191.321 395.647C196.823 393.896 320.619 442.414 321.87 445.665C323.12 448.917 253.219 529.697 253.219 529.697L147.68 511.815Z" fill="#000001"/>
<path d="M213.704 287.858C208.828 287.357 204.076 285.982 199.699 283.856C195.198 281.855 191.071 279.104 187.445 275.728L186.069 274.478C185.569 274.102 185.194 273.602 184.819 273.102C183.943 272.227 183.068 271.351 182.318 270.351C180.817 268.475 179.442 266.35 178.191 264.224L177.316 262.598C176.941 262.098 176.691 261.598 176.441 260.973L175.065 257.596C174.565 256.471 174.19 255.345 173.94 254.095C173.69 252.97 173.314 251.719 173.064 250.594C173.565 251.719 174.065 252.845 174.565 253.845C175.065 254.97 175.565 256.096 176.065 257.096L177.816 260.222C178.066 260.723 178.441 261.223 178.691 261.723L179.692 263.223C180.942 265.224 182.443 267.1 183.943 268.851C184.694 269.726 185.569 270.601 186.319 271.476C186.694 271.852 187.07 272.352 187.57 272.727L188.945 273.852C192.447 276.979 196.323 279.73 200.45 282.105C204.701 284.481 209.078 286.482 213.704 287.858Z" fill="black"/>
<path d="M184.569 284.856C183.443 284.606 182.443 284.105 181.442 283.48C180.942 283.23 180.567 282.855 180.067 282.48C179.567 282.105 179.192 281.73 178.816 281.354C177.191 279.729 175.94 277.853 174.94 275.852C173.94 273.852 173.189 271.726 172.689 269.6C172.439 268.475 172.314 267.474 172.189 266.349C172.064 265.223 172.064 264.098 172.064 263.098C172.564 264.098 172.939 265.098 173.314 266.099C173.69 267.099 174.19 268.099 174.565 269.1C175.44 271.101 176.19 272.976 177.191 274.852C178.066 276.728 179.067 278.478 180.317 280.229C180.942 281.104 181.567 281.98 182.193 282.73C182.943 283.48 183.818 284.23 184.569 284.856Z" fill="black"/>
<path d="M190.571 415.779L187.57 414.778L188.32 412.402L191.321 413.403L190.571 415.779Z" fill="#F2EBEB"/>
<path d="M295.985 456.794C294.359 455.793 292.484 454.793 290.483 453.793L291.608 451.542C293.609 452.667 295.485 453.668 297.235 454.668L295.985 456.794ZM284.856 451.042C282.98 450.166 281.104 449.291 279.229 448.416L280.229 446.165C282.23 447.04 284.106 447.915 285.981 448.791L284.856 451.042ZM273.477 445.79C271.601 445.039 269.6 444.164 267.725 443.289L268.725 440.913C270.726 441.663 272.601 442.538 274.602 443.414L273.477 445.79ZM261.847 441.038C259.972 440.288 257.971 439.537 255.97 438.662L256.845 436.286C258.846 437.036 260.722 437.787 262.723 438.662L261.847 441.038ZM250.093 436.411L244.216 434.16L245.091 431.784L250.968 434.035L250.093 436.411ZM238.339 432.035L232.461 429.909L233.337 427.533L239.339 429.659L238.339 432.035ZM226.459 427.783L220.457 425.782L221.207 423.406L227.209 425.532L226.459 427.783ZM214.58 423.656L208.578 421.656L209.328 419.28L215.33 421.281L214.58 423.656ZM202.575 419.655L196.573 417.654L197.323 415.278L203.326 417.279L202.575 419.655Z" fill="#F2EBEB"/>
<path d="M303.363 461.921C302.737 461.296 301.862 460.671 300.987 460.046L302.487 458.045C303.488 458.795 304.363 459.42 304.988 460.046L303.363 461.921Z" fill="#F2EBEB"/>
<path d="M448.792 350.254C448.792 350.254 412.278 319.868 401.399 303.612C390.52 287.356 340.376 197.197 334.999 191.445C329.622 185.693 326.246 196.572 329.497 209.952C329.497 209.952 315.242 180.691 308.49 179.566C301.737 178.44 302.487 190.07 306.989 202.699C306.989 202.699 296.735 184.067 291.108 181.066C284.481 177.565 280.604 186.193 287.982 211.703C287.982 211.703 275.352 195.322 270.1 195.572C264.848 195.822 263.098 203.2 274.852 231.585C286.231 258.845 309.115 292.608 307.239 298.735C305.363 304.862 284.731 291.107 273.477 288.106C262.222 285.105 250.468 287.856 256.845 295.484C263.223 303.112 289.983 323.619 321.869 340.876C353.756 358.132 391.145 407.65 391.145 407.65L448.792 350.254Z" fill="#EA8383"/>
<path d="M352.506 249.842C349.755 247.091 347.254 244.215 344.878 241.089C342.502 237.963 340.376 234.836 338.375 231.46C336.375 228.084 334.624 224.708 332.998 221.081C331.373 217.58 330.247 213.829 329.497 209.952C331.248 213.453 332.998 216.83 334.749 220.206C336.5 223.582 338.5 226.833 340.501 230.085C342.502 233.336 344.503 236.587 346.503 239.838C348.504 243.089 350.505 246.466 352.506 249.842Z" fill="#000001"/>
<path d="M343.753 205.075C342.627 206.45 341.252 207.451 339.501 207.951C338.501 208.201 337.5 208.201 336.5 207.826C336 207.701 335.5 207.326 335.124 207.075C334.749 206.7 334.374 206.325 334.124 205.95C333.124 204.449 332.498 202.699 332.373 200.948C332.123 199.323 332.373 197.572 332.874 195.946C333.374 197.572 333.749 199.072 334.249 200.573C334.624 201.949 335.249 203.324 336.125 204.449C336.375 204.95 336.875 205.325 337.375 205.575C337.875 205.825 338.501 205.95 339.126 205.95C340.752 205.825 342.252 205.575 343.753 205.075Z" fill="#000001"/>
<path d="M320.119 192.696C320.369 194.946 319.744 197.197 318.368 198.948C317.618 199.948 316.492 200.573 315.367 200.949C315.117 201.074 314.742 201.074 314.492 201.199C314.241 201.324 313.866 201.324 313.616 201.324C313.241 201.324 312.991 201.324 312.616 201.324C312.241 201.324 311.991 201.199 311.616 201.074C310.49 200.573 309.365 199.823 308.614 198.823C307.989 197.947 307.489 196.947 307.114 195.822C306.364 193.821 306.113 191.695 306.364 189.444C307.114 191.32 307.989 193.196 308.864 194.946C309.615 196.572 310.74 197.822 312.366 198.573C312.491 198.698 312.741 198.698 312.866 198.698C312.991 198.698 313.241 198.698 313.366 198.698C313.741 198.698 314.241 198.698 314.617 198.573C315.492 198.448 316.242 198.073 316.867 197.447C318.368 196.197 319.493 194.571 320.119 192.696Z" fill="#000001"/>
<path d="M283.355 210.327C283.105 211.828 282.355 213.078 281.104 213.954C280.479 214.454 279.729 214.704 279.104 214.954C278.353 215.204 277.603 215.329 276.853 215.204H276.603L276.353 215.079C275.102 214.454 273.977 213.579 273.101 212.578C272.226 211.578 271.351 210.577 270.725 209.327C270.35 208.702 270.1 208.202 269.85 207.576L269.475 206.701C269.35 206.451 269.35 206.076 269.225 205.701C268.85 204.45 268.725 203.075 268.85 201.824C269.475 202.95 269.975 204.075 270.6 205.2C271.226 206.201 271.851 207.326 272.601 208.202C273.351 209.202 274.102 210.077 274.852 210.828C275.602 211.703 276.478 212.453 277.353 213.078L276.853 212.953C277.478 212.953 277.978 212.953 278.603 212.953C279.229 212.953 279.729 212.828 280.354 212.578C281.479 212.203 282.605 211.453 283.355 210.327Z" fill="#000001"/>
<path d="M267.974 305.488C268.85 303.987 269.475 302.487 269.975 300.861C270.1 300.236 270.1 299.611 269.85 298.985C269.475 298.36 269.1 297.86 268.474 297.36C267.224 296.234 265.974 295.109 264.598 294.108C263.848 293.608 263.222 293.108 262.472 292.608C261.722 292.108 260.972 291.733 260.096 291.482C260.972 291.232 261.972 291.232 262.847 291.482C263.723 291.733 264.598 291.983 265.473 292.358C267.224 293.108 268.725 294.234 270.1 295.484C270.475 295.859 270.725 296.234 271.1 296.609C271.225 296.859 271.476 296.985 271.601 297.235C271.726 297.485 271.851 297.735 271.976 298.11C272.351 299.235 272.226 300.361 271.726 301.361C270.975 303.237 269.725 304.612 267.974 305.488Z" fill="#000001"/>
<path d="M287.357 189.319C288.107 191.195 288.857 193.071 289.608 194.946C290.233 196.572 291.358 198.073 292.609 199.323C293.234 199.823 293.859 200.073 294.609 200.073C295.485 200.073 296.36 200.073 297.235 199.823C298.111 199.698 298.861 199.198 299.486 198.698C300.111 197.948 300.612 197.197 300.737 196.197C301.112 197.322 300.987 198.448 300.487 199.448C300.237 199.948 299.861 200.448 299.361 200.824C298.861 201.199 298.361 201.449 297.861 201.699C296.86 202.199 295.735 202.449 294.609 202.449C294.359 202.449 293.984 202.449 293.734 202.449C293.359 202.449 293.109 202.324 292.734 202.324C292.484 202.199 292.109 202.074 291.858 201.949C291.608 201.824 291.358 201.574 291.108 201.449C290.108 200.699 289.357 199.823 288.857 198.698C288.357 197.697 287.982 196.697 287.732 195.697C287.232 193.446 287.107 191.445 287.357 189.319Z" fill="#000001"/>
<path d="M307.114 202.824C309.365 206.701 311.491 210.577 313.491 214.579C315.492 218.58 317.493 222.582 319.368 226.583C321.244 230.585 323.12 234.711 324.87 238.838C326.621 242.964 328.372 247.091 330.122 251.217C327.621 247.591 325.246 243.714 323.12 239.713C320.994 235.836 318.993 231.71 317.118 227.708C315.242 223.707 313.366 219.58 311.741 215.454C310.115 211.327 308.489 207.076 307.114 202.824Z" fill="#000001"/>
<path d="M288.107 211.828C290.108 215.454 291.983 219.081 293.734 222.707C295.485 226.334 297.235 230.085 298.986 233.711L301.612 239.213L302.862 241.964C303.363 242.84 303.738 243.84 304.238 244.715C304.738 245.591 305.113 246.466 305.613 247.466C306.114 248.467 306.489 249.342 306.989 250.217L307.739 251.593L308.49 252.843C308.99 253.719 309.615 254.594 310.24 255.344C309.365 254.719 308.615 253.969 307.989 253.218L306.989 252.093L305.989 250.843C304.738 249.217 303.613 247.466 302.612 245.716C300.487 242.214 298.611 238.463 296.86 234.837C295.11 231.21 293.484 227.334 291.983 223.457C290.483 219.581 289.232 215.705 288.107 211.828Z" fill="#000001"/>
<path d="M389.019 240.838C392.521 237.587 395.772 234.086 398.648 230.209C401.524 226.458 403.9 222.331 405.775 217.955L406.526 216.329C406.776 215.829 406.901 215.204 407.151 214.703C407.526 213.578 407.901 212.453 408.276 211.327C408.902 209.076 409.527 206.701 409.902 204.45L410.152 202.699C410.277 202.074 410.402 201.574 410.402 200.948L410.652 197.322C410.777 196.072 410.777 194.946 410.777 193.696C410.777 192.445 410.777 191.32 410.777 190.069C411.027 191.195 411.278 192.445 411.403 193.696C411.653 194.946 411.778 196.072 411.903 197.322L412.028 200.948C412.028 201.574 412.028 202.199 411.903 202.824L411.778 204.7C411.528 207.201 411.152 209.577 410.527 211.952C410.277 213.078 409.777 214.328 409.402 215.454C409.152 216.079 409.027 216.579 408.777 217.204L408.026 218.955C406.026 223.457 403.4 227.708 400.148 231.46C397.022 235.211 393.271 238.337 389.019 240.838Z" fill="black"/>
<path d="M414.279 226.083C414.779 225.082 415.154 224.082 415.404 223.081C415.654 222.081 415.904 221.081 416.154 220.08C416.529 217.955 416.654 215.954 416.779 213.828C416.905 211.702 416.779 209.576 416.779 207.451C416.654 206.325 416.654 205.325 416.654 204.199C416.654 203.074 416.529 202.074 416.654 200.948C417.155 201.949 417.53 202.949 417.905 203.949C418.28 204.95 418.53 206.075 418.78 207.201C419.28 209.326 419.405 211.577 419.405 213.828C419.405 216.079 418.905 218.33 418.155 220.455C417.905 220.956 417.78 221.456 417.53 221.956C417.28 222.456 417.03 222.956 416.654 223.457C416.029 224.582 415.279 225.332 414.279 226.083Z" fill="black"/>
<path d="M418.03 482.428C418.03 482.428 365.636 480.553 369.887 456.044C374.139 431.535 354.507 441.788 352.006 413.028C349.505 384.267 413.028 302.862 453.668 322.744C494.309 342.627 533.698 482.428 533.698 482.428H418.03Z" fill="#F2EBEB"/>
<path d="M469.549 336.249C469.549 336.249 433.536 335.874 418.03 364.76C402.525 393.646 381.517 405.775 373.014 414.778C364.51 423.782 365.761 438.162 365.761 438.162L368.012 440.788C368.012 440.788 367.887 423.031 386.894 413.903C405.901 404.775 423.657 375.264 427.659 364.76C431.66 354.256 476.552 345.503 476.552 345.503L469.549 336.249Z" fill="black"/>
<path d="M369.887 455.918C369.887 455.918 379.641 425.156 398.648 425.531C417.655 425.907 441.914 405.649 448.791 388.518C455.669 371.386 490.932 369.761 490.932 369.761L499.81 388.518C499.81 388.518 482.054 383.891 463.547 409.776C445.04 435.66 422.282 454.667 406.651 446.289C391.02 437.911 376.015 470.423 376.015 470.423C376.015 470.423 365.636 466.046 369.887 455.918Z" fill="black"/>
<path d="M409.777 481.677C409.777 481.677 399.648 464.546 429.284 465.922C458.92 467.297 471.3 428.408 487.806 418.279C504.312 408.15 512.19 418.279 512.19 418.279L520.443 440.912C509.814 439.537 499.31 444.539 493.683 453.792C483.554 469.673 468.174 461.045 455.669 470.673C443.164 480.302 442.789 482.428 442.789 482.428C442.789 482.428 414.654 482.303 409.777 481.677Z" fill="black"/>
<path d="M266.849 202.074C267.599 206.576 268.725 210.953 270.1 215.204C271.351 219.456 272.851 223.832 274.602 227.959C276.228 232.085 278.228 236.212 280.354 240.213C282.48 244.215 284.606 248.216 286.731 252.218C290.983 260.221 295.36 268.099 299.361 276.227C301.362 280.228 303.363 284.355 305.113 288.606C305.989 290.732 306.864 292.858 307.614 294.984C307.989 296.109 308.365 297.109 308.615 298.235C308.99 299.36 308.99 300.486 308.74 301.611C308.865 300.486 308.615 299.36 308.239 298.36C307.864 297.234 307.489 296.234 306.989 295.234C306.114 293.233 305.113 291.107 303.988 289.106C301.987 285.105 299.736 281.104 297.611 277.227C293.234 269.349 288.857 261.471 284.481 253.468C282.355 249.467 280.229 245.465 278.228 241.339C276.103 237.212 274.227 233.086 272.726 228.709C269.6 220.081 267.599 211.078 266.849 202.074Z" fill="#000001"/>
<path d="M331.623 346.127C321.995 340.875 312.491 335.498 302.987 329.996C298.236 327.245 293.609 324.494 288.857 321.743C284.105 318.992 279.479 316.116 274.977 312.99C270.35 309.989 265.974 306.612 261.847 302.986C259.721 301.11 257.846 298.985 256.22 296.734C255.345 295.483 254.72 293.983 254.595 292.482C254.469 291.607 254.72 290.732 254.97 289.981C255.22 289.606 255.345 289.231 255.72 288.856C255.97 288.606 256.345 288.231 256.595 287.981C259.096 286.355 261.972 285.605 264.973 285.855C267.724 285.98 270.475 286.48 273.226 287.355C275.852 288.231 278.353 289.231 280.854 290.356C283.355 291.482 285.731 292.857 288.107 294.233C283.23 291.732 278.103 289.856 272.851 288.481C270.225 287.856 267.599 287.48 264.973 287.355C262.472 287.23 259.972 287.981 257.846 289.356C256.97 289.981 256.595 290.982 256.72 292.107C256.97 293.232 257.346 294.358 258.096 295.358C259.596 297.484 261.472 299.36 263.473 301.11C267.599 304.612 271.976 307.863 276.478 310.739C280.979 313.865 285.606 316.741 290.233 319.492C294.859 322.243 299.486 325.244 304.113 328.12C313.241 334.123 322.495 340 331.623 346.127Z" fill="#000001"/>
<path d="M310.865 96.9105C316.183 96.9105 320.494 92.5996 320.494 87.2819C320.494 81.9642 316.183 77.6533 310.865 77.6533C305.547 77.6533 301.237 81.9642 301.237 87.2819C301.237 92.5996 305.547 96.9105 310.865 96.9105Z" fill="#F2EBEB"/>
<path d="M53.8949 260.346C60.9391 260.346 66.6496 254.636 66.6496 247.592C66.6496 240.547 60.9391 234.837 53.8949 234.837C46.8506 234.837 41.1401 240.547 41.1401 247.592C41.1401 254.636 46.8506 260.346 53.8949 260.346Z" fill="#F2EBEB"/>
<path d="M241.339 55.5208C246.657 55.5208 250.968 51.21 250.968 45.8922C250.968 40.5745 246.657 36.2637 241.339 36.2637C236.022 36.2637 231.711 40.5745 231.711 45.8922C231.711 51.21 236.022 55.5208 241.339 55.5208Z" fill="#F2EBEB"/>
<path d="M486.93 255.22C491.834 255.22 495.809 251.245 495.809 246.342C495.809 241.439 491.834 237.464 486.93 237.464C482.027 237.464 478.052 241.439 478.052 246.342C478.052 251.245 482.027 255.22 486.93 255.22Z" fill="#F2EBEB"/>
</svg>
