<svg viewBox="0 0 502 416" fill="none" xmlns="http://www.w3.org/2000/svg">
<path d="M232.423 346.033L220.708 409.691L84.771 407.702L82.7816 333.323L232.423 346.033Z" fill="black"/>
<path d="M406.267 103.995C407.372 95.5956 407.593 74.2657 407.593 74.2657C407.593 74.2657 412.456 82.665 414.556 77.6917C416.656 72.7184 413.893 65.0927 412.898 63.5455C411.904 61.9982 401.957 58.1301 401.957 58.1301C401.957 58.1301 416.877 60.8931 425.055 56.9144C433.234 52.9358 423.176 52.7147 415.44 52.1621C407.704 51.6096 404.609 49.8413 398.199 50.9464C394.442 51.499 391.126 53.5989 389.026 56.6934C389.026 56.6934 392.01 43.8733 391.9 37.5738C391.789 31.2743 389.026 25.1958 386.485 28.2903C383.943 31.3848 375.985 83.7702 372.559 91.396L406.267 103.995Z" fill="#EA8383"/>
<path d="M246.679 128.203C246.679 128.203 280.829 148.648 315.311 195.508C318.406 199.708 371.233 85.6533 371.233 85.6533L416.877 109.967C416.877 109.967 384.385 262.703 335.094 275.081C319.29 279.059 265.246 261.266 254.305 245.462C243.474 229.879 246.679 128.203 246.679 128.203Z" fill="black"/>
<path d="M85.8762 342.717C85.8762 342.717 67.0881 124.554 88.9707 113.945C110.853 103.335 217.503 106.098 246.569 128.202C303.928 171.856 243.474 346.364 243.474 346.364C243.474 346.364 104.443 351.447 85.8762 342.717Z" fill="black"/>
<path d="M223.913 117.923C223.913 117.923 258.394 145.774 253.974 183.902C249.553 222.031 225.018 347.469 225.018 347.469L141.025 348.905C141.025 348.905 174.29 175.724 127.983 108.419C127.873 108.419 181.253 101.456 223.913 117.923Z" fill="#F2EBEB"/>
<path d="M201.478 31.2766C201.478 31.2766 213.966 69.5157 212.419 70.1788C210.872 70.8419 206.341 69.6262 206.341 69.6262C206.341 69.6262 212.53 96.3715 206.783 132.621C206.783 132.621 167.77 129.748 149.313 113.833C149.313 113.833 147.656 19.3406 155.502 16.1356C163.349 12.9306 201.478 31.2766 201.478 31.2766Z" fill="#EA8383"/>
<path d="M159.923 42.1076C159.923 42.1076 165.007 61.0061 163.128 64.4322C161.249 67.8582 149.645 58.6852 149.645 58.6852C149.645 58.6852 145.335 15.4728 149.645 9.9469C153.955 4.42101 243.143 33.9293 235.959 37.5763C228.776 41.2234 201.478 31.2768 201.478 31.2768L173.406 30.1717C173.296 30.1717 167.77 40.1183 159.923 42.1076Z" fill="#A04040"/>
<path d="M150.419 59.1274C150.419 59.1274 136.272 53.3805 140.03 40.892C143.787 28.4035 156.165 52.4964 156.165 52.4964L150.419 59.1274Z" fill="#EA8383"/>
<path d="M191.089 130.52L175.948 146.324L149.313 113.942L207.225 130.078L221.592 150.413L191.089 130.52Z" fill="#F2EBEB"/>
<path d="M184.458 53.1593C186.116 52.0542 188.105 51.7226 189.984 52.2752C190.868 52.4962 191.752 53.0488 192.526 53.6014C193.299 54.154 193.852 55.0381 194.184 55.9223L191.642 55.0381C190.868 54.8171 190.094 54.4856 189.321 54.2645C188.547 54.0435 187.774 53.8225 187 53.6014C186.226 53.3804 185.453 53.4909 184.458 53.1593Z" fill="#000001"/>
<path d="M178.822 70.1797C179.485 71.5059 180.479 72.6111 181.695 73.3847C182.358 73.7163 182.911 74.0478 183.574 74.2689C183.905 74.3794 184.347 74.4899 184.679 74.7109C185.121 74.8214 185.563 75.0425 185.895 75.153C185.453 75.374 185.121 75.595 184.679 75.7056C184.237 75.8161 183.795 75.9266 183.353 75.9266C182.358 75.9266 181.364 75.7056 180.59 75.2635C179.706 74.7109 179.043 73.9373 178.711 72.9426C178.269 72.0585 178.38 71.0638 178.822 70.1797Z" fill="#000001"/>
<path d="M181.695 43.7647C182.358 42.3279 183.574 41.1122 185.121 40.5596C186.668 39.8965 188.326 39.786 189.984 40.1176C191.531 40.4491 192.968 41.2227 194.184 42.3279C194.736 42.8805 195.178 43.5436 195.62 44.2067C195.952 44.8698 196.173 45.6435 196.394 46.4171C195.62 46.3066 194.957 46.0855 194.294 45.8645C193.631 45.754 193.078 45.4224 192.415 45.3119C191.31 44.9804 190.205 44.6488 189.21 44.4278C188.105 44.2067 187.11 43.9857 186.005 43.9857C184.569 43.8752 183.353 43.8752 181.695 43.7647Z" fill="#A04040"/>
<path d="M132.404 15.9146C131.299 14.8094 130.304 13.5937 129.31 12.378C127.541 9.9466 125.994 7.18366 124.778 4.42071C124.115 2.98398 123.563 1.54725 123.231 0C124.336 1.10518 125.331 2.32087 126.326 3.53657C128.094 6.07847 129.641 8.73091 130.857 11.4939C131.52 12.9306 132.073 14.3673 132.404 15.9146Z" fill="#EA8383"/>
<path d="M127.873 22.4353C127.21 22.8773 126.436 23.0984 125.552 23.3194C124.005 23.651 122.458 23.651 121.021 23.3194C120.247 23.2089 119.474 22.8773 118.7 22.4353C119.363 21.9932 120.137 21.7722 121.021 21.5511C121.794 21.4406 122.568 21.3301 123.342 21.3301C124.115 21.3301 124.889 21.4406 125.663 21.5511C126.326 21.7722 127.099 22.1037 127.873 22.4353Z" fill="#EA8383"/>
<path d="M188.989 132.733L191.089 130.522L196.062 133.838L193.742 139.474H190.537L188.989 132.733Z" fill="#000001"/>
<path d="M191.089 130.522C191.089 130.522 196.062 230.762 115.053 225.457L67.7512 253.86L126.215 263.807C126.215 263.807 270.441 227.889 191.089 130.522Z" fill="#000001"/>
<path d="M91.8441 112.948C89.4127 114.606 6.52438 157.597 0.777455 217.83C-4.96947 278.062 22.7705 330.668 30.6173 334.868C38.464 339.068 62.3359 252.643 62.3359 252.643L58.9098 231.976C58.9098 231.976 105.438 184.453 105.438 179.701C105.438 174.949 91.8441 112.948 91.8441 112.948Z" fill="black"/>
<path d="M52.1682 199.483C53.4944 203.794 54.5996 208.214 55.4837 212.635C56.3679 217.056 57.3625 221.476 58.2467 225.897C59.1308 230.318 59.9045 234.739 60.5676 239.27C61.2307 243.801 61.8938 248.222 62.2253 252.753C60.8991 248.443 59.7939 244.022 58.7993 239.601C57.8046 235.181 56.9205 230.76 56.0363 226.339C55.1522 221.919 54.3786 217.498 53.7155 212.967C53.0523 208.435 52.6103 204.015 52.1682 199.483Z" fill="#000001"/>
<path d="M78.1399 267.785C78.1399 267.785 161.802 264.469 167.107 269.111C172.412 273.753 208.993 402.617 201.588 409.248C194.184 415.879 40.8954 417.868 38.243 409.911C35.5906 401.954 74.1613 267.122 78.1399 267.785Z" fill="#000001"/>
<path d="M419.64 110.628C419.64 110.628 381.843 61.3372 382.285 58.4638C382.727 55.5903 458.984 0.331399 462.631 0.220882C466.278 0.110364 503.081 51.3906 501.976 53.3799C500.87 55.3692 423.287 113.06 419.64 110.628Z" fill="#000001"/>
<path d="M442.407 98.0293C436.77 89.6299 430.139 80.5674 428.923 79.6833C427.045 80.2359 412.456 90.4035 407.925 93.6085L407.262 92.7244C407.483 92.6139 427.155 78.5781 428.923 78.5781C430.25 78.6886 437.433 88.8563 443.291 97.3661L442.407 98.0293Z" fill="#F2EBEB"/>
<path d="M453.016 32.4926C452.906 32.4926 452.906 32.4926 452.795 32.4926C450.253 31.719 442.075 17.4622 440.528 14.5887L441.522 14.0361C445.39 20.9988 451.69 31.0559 453.127 31.4979H453.237C455.006 31.4979 466.61 23.3196 476.999 15.2518L477.662 16.136C472.578 20.0041 456.221 32.4926 453.016 32.4926Z" fill="#F2EBEB"/>
<path d="M399.968 57.248C398.42 57.3586 397.757 59.1269 397.757 59.1269L397.536 58.7953L395.879 60.011L400.189 66.0895L401.847 64.9843L400.631 63.3265C401.847 63.216 402.841 62.3319 402.952 61.2267C403.283 59.4584 402.068 57.6901 400.299 57.3586C400.189 57.2481 400.078 57.248 399.968 57.248ZM401.073 61.3372C399.968 62.2214 399.415 61.3372 399.415 61.3372C398.31 60.1215 399.194 59.1269 400.078 59.0163C400.962 58.9058 402.178 60.4531 401.073 61.3372Z" fill="#F2EBEB"/>
<path d="M414.753 51.4952L413.046 52.7188L414.077 54.1558L415.783 52.9323L414.753 51.4952Z" fill="black"/>
<path d="M407.593 51.6121C406.82 52.0542 406.378 52.8278 406.267 53.6014C406.157 53.6014 405.494 53.1594 404.388 54.154C404.057 54.4856 403.836 54.8171 403.615 55.2592L403.173 54.5961L401.515 55.8118L404.83 60.4535L406.488 59.2378L404.388 56.2539C404.278 55.7013 404.499 55.1487 404.941 54.8171C405.494 54.4856 405.715 54.7066 405.825 54.8171L408.146 58.0221L409.804 56.8064L407.483 53.4909C407.483 52.8278 407.814 52.2752 408.367 51.9437C408.588 51.8331 408.809 51.8331 409.03 51.9437L411.462 55.3697L413.009 54.2645L410.467 50.949C409.472 50.6175 408.367 50.8385 407.593 51.6121Z" fill="#F2EBEB"/>
<path d="M408.432 47.6671L406.725 48.8906L407.756 50.3277L409.462 49.1041L408.432 47.6671Z" fill="black"/>
<path d="M422.071 80.1275L425.829 85.4324C426.381 86.0955 434.891 79.9065 435.776 78.4697C436.66 77.033 432.57 73.607 431.907 72.7228C431.244 71.9492 421.408 78.8013 422.071 80.1275Z" fill="black"/>
<path d="M439.865 25.3082L443.622 30.613C444.175 31.2761 452.685 25.0872 453.569 23.6504C454.453 22.2137 450.364 18.7876 449.701 17.9035C449.038 17.0194 439.202 23.982 439.865 25.3082Z" fill="black"/>
<path d="M439.186 54.1294L431.238 59.9238L431.629 60.4597L439.577 54.6653L439.186 54.1294Z" fill="#F2EBEB"/>
<path d="M463.654 36.1301L441.924 52.0996L442.317 52.6339L464.047 36.6645L463.654 36.1301Z" fill="#F2EBEB"/>
<path d="M442.17 58.688L434.221 64.4824L434.612 65.0183L442.561 59.2238L442.17 58.688Z" fill="#F2EBEB"/>
<path d="M468.458 42.2668L446.661 58.1445L447.052 58.6805L468.848 42.8027L468.458 42.2668Z" fill="#F2EBEB"/>
<path d="M445.589 63.6948L437.641 69.4893L438.031 70.0251L445.98 64.2307L445.589 63.6948Z" fill="#F2EBEB"/>
<path d="M470.21 45.721L448.481 61.6904L448.874 62.2248L470.603 46.2553L470.21 45.721Z" fill="#F2EBEB"/>
<path d="M394.442 88.634C394.442 88.634 394 81.4503 385.6 76.5875C390.353 75.2613 394.331 72.2773 397.205 68.2987C401.515 61.6676 391.789 66.4199 383.722 66.6409" fill="#EA8383"/>
<path d="M394.442 88.6349C394.11 87.4192 393.668 86.2035 393.005 85.0983C392.453 83.9931 391.679 82.9985 390.905 82.0038C390.132 81.1197 389.137 80.2355 388.142 79.4619C387.148 78.6883 386.153 78.0252 385.048 77.4726L383.169 76.3674L385.379 75.7043C387.811 74.9307 390.132 73.715 392.121 72.1677C393.116 71.3941 394.11 70.51 394.884 69.5153C395.326 69.0732 395.658 68.5207 396.1 67.9681C396.431 67.526 396.763 66.9734 397.094 66.4208C397.205 66.1998 397.205 66.0893 397.315 65.8682C397.315 65.7577 397.426 65.9787 397.315 65.8682C397.094 65.7577 396.873 65.7577 396.763 65.7577C396.431 65.7577 396.21 65.7577 395.879 65.7577C394.663 65.8682 393.226 66.0893 391.9 66.1998C389.248 66.6419 386.485 66.8629 383.722 66.6419C386.374 66.1998 389.026 65.5367 391.568 64.8736C392.895 64.542 394.221 64.2105 395.658 63.9894C395.989 63.9894 396.431 63.8789 396.763 63.8789C397.205 63.8789 397.757 63.9894 398.089 64.0999C398.199 64.2105 398.42 64.2105 398.531 64.321C398.642 64.4315 398.752 64.542 398.863 64.7631C398.973 64.8736 399.084 65.0946 399.084 65.2051C399.084 65.3156 399.194 65.5367 399.194 65.6472C399.194 66.0893 399.084 66.6419 398.973 67.0839C398.642 67.747 398.31 68.4101 397.868 69.0732C397.426 69.6258 397.094 70.2889 396.542 70.8415C395.658 71.9467 394.552 72.9414 393.447 73.8255C391.237 75.5938 388.584 76.8095 385.821 77.5831L386.042 75.8148C386.595 76.1464 387.148 76.5885 387.7 76.92C388.253 77.3621 388.695 77.8041 389.247 78.2462C390.242 79.1304 391.126 80.125 391.9 81.2302C393.447 83.4405 394.331 85.9825 394.442 88.6349Z" fill="#000001"/>
<path d="M147.103 414.663C146.219 408.143 138.704 350.673 143.456 346.474C148.208 342.274 188.216 343.711 189.873 343.711V344.816C178.38 344.374 147.877 344.042 144.23 347.247C141.025 350.121 144.893 389.023 148.319 414.442L147.103 414.663Z" fill="#F2EBEB"/>
<path d="M157.05 287.346C158.044 284.804 155.613 282.373 155.613 282.373L156.276 282.262L155.502 278.615L142.13 281.489L142.903 285.025L146.55 284.252C145.777 286.351 146.55 288.562 148.429 289.778C151.634 291.877 156.055 289.999 157.05 287.346ZM149.313 286.241C148.54 283.81 150.419 283.367 150.419 283.367C153.292 282.483 154.397 284.583 153.845 286.13C153.292 287.678 150.087 288.672 149.313 286.241Z" fill="#F2EBEB"/>
<path d="M155.279 312.455L152.147 313.137L152.97 316.916L156.102 316.235L155.279 312.455Z" fill="black"/>
<path d="M161.028 304.145C160.365 301.603 159.149 300.719 158.597 300.498C158.707 300.387 159.923 299.503 159.149 296.961C158.928 296.187 158.486 295.524 157.823 294.972L159.26 294.64L158.486 290.993L148.208 293.204L148.982 296.851L155.392 295.414C155.944 295.635 157.271 296.298 157.492 297.293C157.713 298.287 157.16 298.619 156.829 298.729L149.755 300.277L150.529 304.034L157.713 302.487C158.707 303.04 159.37 303.924 159.702 305.029C159.813 305.471 159.592 305.913 159.26 306.245L151.745 307.902L152.408 311.218L159.923 309.56C161.249 308.123 161.691 306.024 161.028 304.145Z" fill="#F2EBEB"/>
<path d="M166.101 304.733L162.969 305.415L163.792 309.195L166.923 308.513L166.101 304.733Z" fill="black"/>
<path d="M172.191 329.232L156.165 330.227C154.066 330.338 155.723 356.309 157.602 359.956C159.481 363.603 171.97 359.735 174.622 359.404C177.274 359.072 175.727 329.453 172.191 329.232Z" fill="black"/>
<path d="M125.994 308.897L127.541 308.786L128.094 321.496L126.547 321.606L125.994 308.897Z" fill="#F2EBEB"/>
<path d="M126.657 326.139L128.204 326.028L129.862 360.952H128.315L126.657 326.139Z" fill="#F2EBEB"/>
<path d="M111.406 308.233H112.842L112.732 320.943H111.185L111.406 308.233Z" fill="#F2EBEB"/>
<path d="M111.074 325.475H112.621L112.4 360.398H110.964L111.074 325.475Z" fill="#F2EBEB"/>
<path d="M97.591 307.792L99.0278 307.903L97.9226 320.612L96.3753 320.391L97.591 307.792Z" fill="#F2EBEB"/>
<path d="M95.9333 324.922L97.37 325.032L94.386 359.846L92.9493 359.735L95.9333 324.922Z" fill="#F2EBEB"/>
<path d="M84.2184 296.409C78.582 296.409 70.5142 295.967 67.1986 295.746L67.3092 294.641C77.2558 295.193 88.4181 295.525 89.4127 294.972C90.5179 293.646 93.2808 272.979 93.9439 266.569L95.0491 266.68C95.0491 266.901 91.7336 294.53 89.9653 295.857C89.5232 296.299 87.2024 296.409 84.2184 296.409Z" fill="#F2EBEB"/>
<path d="M95.2701 289.003L85.6551 287.898C84.4394 287.788 83.1132 299.724 83.8868 301.602C84.6604 303.481 92.5072 302.929 94.0544 303.039C95.6017 303.15 97.37 289.445 95.2701 289.003Z" fill="black"/>
<path d="M30.0647 289.005L54.3786 341.832L67.4197 294.199C67.4197 294.199 116.821 288.121 116.821 280.385C116.821 272.648 73.3876 269.443 71.0668 266.901C68.7459 264.359 62.2253 252.645 62.2253 252.645C62.2253 252.645 33.3802 279.058 30.0647 289.005Z" fill="#EA8383"/>
<path d="M21.5548 306.466C21.7758 304.587 22.3284 302.598 22.9915 300.829C23.6546 298.951 24.3177 297.182 25.0914 295.414C26.6386 291.878 28.5174 288.451 30.6173 285.136C32.7171 281.82 35.038 278.726 37.6904 275.852C40.2323 272.979 43.2163 270.327 46.4213 268.116C43.8794 270.99 41.3375 273.863 39.0166 276.958C36.6957 280.052 34.5959 283.147 32.4961 286.352C30.3962 289.557 28.5174 292.872 26.7491 296.188C26.3071 297.072 25.865 297.846 25.4229 298.73C24.9809 299.614 24.5388 300.387 24.0967 301.272C23.1021 302.929 22.3284 304.698 21.5548 306.466Z" fill="#000001"/>
</svg>
