<svg viewBox="0 0 126 20" fill="none" xmlns="http://www.w3.org/2000/svg">
<path d="M10 0L13.09 6.26L20 7.27L15 12.14L16.18 19.02L10 15.77L3.82 19.02L5 12.14L0 7.27L6.91 6.26L10 0Z" fill="#F9BD15"/>
<path d="M39 0L42.09 6.26L49 7.27L44 12.14L45.18 19.02L39 15.77L32.82 19.02L34 12.14L29 7.27L35.91 6.26L39 0Z" fill="#F9BD15"/>
<path d="M68 0L71.09 6.26L78 7.27L73 12.14L74.18 19.02L68 15.77L61.82 19.02L63 12.14L58 7.27L64.91 6.26L68 0Z" fill="#F9BD15"/>
<path d="M97 0L100.09 6.26L107 7.27L102 12.14L103.18 19.02L97 15.77L90.82 19.02L92 12.14L87 7.27L93.91 6.26L97 0Z" fill="#F9BD15"/>
<path d="M126 15.8L119.8 19L121 12.1L116 7.3L123 6.3L126 0" fill="#F9BD15"/>
</svg>
