<svg viewBox="0 0 65 55" fill="none" xmlns="http://www.w3.org/2000/svg">
<path d="M57.4088 38.4307H7.59131V53.6131H57.4088V38.4307Z" fill="#BDBDBD"/>
<path d="M35.1094 41.752H29.416V53.6133H35.1094V41.752Z" fill="black"/>
<path d="M54.5621 21.3501H10.438V34.6348H54.5621V21.3501Z" fill="#BDBDBD"/>
<path d="M58.8652 21.8248H6.1347C6.04667 21.8248 5.96065 21.7987 5.88769 21.7497C5.81474 21.7008 5.75819 21.6313 5.72531 21.5501C5.69242 21.469 5.68471 21.38 5.70316 21.2945C5.72162 21.209 5.76539 21.1309 5.82886 21.0703L20.2401 7.30932V1.31534C20.2403 1.19909 20.2868 1.08765 20.3695 1.00545C20.4523 0.923257 20.5645 0.877022 20.6815 0.876891H23.5258C23.6428 0.877018 23.755 0.923253 23.8377 1.00545C23.9204 1.08765 23.967 1.19909 23.9671 1.31534V3.75057L25.0556 2.71117C26.8369 1.01028 29.2001 0.042153 31.6705 0.00134441C34.1408 -0.0394642 36.5352 0.85007 38.3723 2.49118L59.1602 21.0603C59.2266 21.1196 59.2734 21.1975 59.2943 21.2838C59.3151 21.37 59.3092 21.4605 59.2772 21.5433C59.2453 21.6261 59.1888 21.6974 59.1152 21.7476C59.0416 21.7979 58.9544 21.8248 58.8652 21.8248Z" fill="black"/>
<path d="M22.0621 24.6714C22.4048 24.6714 22.7441 24.7445 23.0607 24.8865C23.3773 25.0285 23.665 25.2366 23.9073 25.4989C24.1496 25.7613 24.3418 26.0728 24.473 26.4156C24.6041 26.7584 24.6716 27.1258 24.6716 27.4969V31.3137H19.4526V27.4969C19.4526 27.1258 19.5201 26.7584 19.6513 26.4156C19.7824 26.0728 19.9746 25.7613 20.2169 25.4989C20.4593 25.2366 20.7469 25.0285 21.0635 24.8865C21.3801 24.7445 21.7194 24.6714 22.0621 24.6714Z" fill="white"/>
<path d="M32.2627 24.6714C33.0177 24.6714 33.7418 24.9691 34.2757 25.4989C34.8095 26.0288 35.1094 26.7475 35.1094 27.4969V31.3137H29.416V27.4969C29.416 26.7475 29.7159 26.0288 30.2498 25.4989C30.7837 24.9691 31.5077 24.6714 32.2627 24.6714Z" fill="white"/>
<path d="M42.7007 24.6714C43.4557 24.6714 44.1798 24.9691 44.7136 25.4989C45.2475 26.0288 45.5474 26.7475 45.5474 27.4969V31.3137H39.854V27.4969C39.854 26.7475 40.1539 26.0288 40.6878 25.4989C41.2217 24.9691 41.9457 24.6714 42.7007 24.6714Z" fill="white"/>
<path d="M46.9707 41.752C47.7257 41.752 48.4498 42.0284 48.9837 42.5204C49.5175 43.0124 49.8175 43.6798 49.8175 44.3756V47.9198H44.124V44.3756C44.124 43.6798 44.4239 43.0124 44.9578 42.5204C45.4917 42.0284 46.2157 41.752 46.9707 41.752Z" fill="white"/>
<path d="M18.9781 41.752C19.7331 41.752 20.4571 42.0284 20.991 42.5204C21.5249 43.0124 21.8248 43.6798 21.8248 44.3756V47.9198H16.1313V44.3756C16.1313 44.0311 16.205 43.6899 16.348 43.3716C16.4911 43.0533 16.7008 42.764 16.9651 42.5204C17.2295 42.2768 17.5433 42.0835 17.8887 41.9517C18.2341 41.8198 18.6042 41.752 18.9781 41.752Z" fill="white"/>
<path d="M64.765 38.8122L55.3971 34.669C55.3468 34.6467 55.2924 34.6353 55.2374 34.6353H10.5917C10.5407 34.6352 10.4902 34.6451 10.443 34.6643L0.246101 38.8075C0.161287 38.842 0.0910942 38.9049 0.0475377 38.9854C0.0039812 39.0659 -0.0102311 39.159 0.00733422 39.2488C0.0248995 39.3386 0.0731497 39.4195 0.143826 39.4777C0.214502 39.5359 0.30321 39.5677 0.394765 39.5677H3.04037V53.1812H2.7443V54.5623H62.2558V53.1812H61.7623V39.5677H64.6052C64.6958 39.5677 64.7835 39.5366 64.8538 39.4796C64.9242 39.4226 64.9727 39.3432 64.9915 39.2547C65.0102 39.1662 64.9979 39.0739 64.9567 38.9933C64.9154 38.9128 64.8477 38.8488 64.765 38.8122ZM60.9728 53.1812H3.82991V39.5677H60.9728V53.1812Z" fill="black"/>
<path d="M25.6207 30.8398H18.5039V31.7887H25.6207V30.8398Z" fill="black"/>
<path d="M36.0582 30.8398H28.9414V31.7887H36.0582V30.8398Z" fill="black"/>
<path d="M46.4962 30.8398H39.3794V31.7887H46.4962V30.8398Z" fill="black"/>
<path d="M50.2921 47.9194H43.1753V48.8683H50.2921V47.9194Z" fill="black"/>
<path d="M22.7735 47.9194H15.6567V48.8683H22.7735V47.9194Z" fill="black"/>
<path d="M48.8688 20.8029C48.8688 20.8807 48.8676 20.9597 48.8664 21.0375C48.8652 21.1311 48.8628 21.2235 48.8592 21.3171C48.8556 21.3986 48.8519 21.4788 48.8471 21.5591C48.8326 21.8277 48.8097 22.0952 48.7783 22.3639C48.771 22.432 48.7626 22.4988 48.7529 22.5669C48.7456 22.6192 48.7384 22.6727 48.73 22.7262C48.7215 22.7857 48.713 22.8453 48.7034 22.9049C48.6841 23.0313 48.6623 23.1578 48.6382 23.2842C48.6261 23.3474 48.614 23.4106 48.6008 23.4738C48.5754 23.5991 48.5476 23.7255 48.5187 23.8507C48.5162 23.8605 48.5138 23.8714 48.5114 23.8811C48.4969 23.9431 48.4824 24.0039 48.4667 24.0659C48.4619 24.0841 48.4583 24.1012 48.4522 24.1194C48.4414 24.1656 48.4293 24.2118 48.4172 24.258C48.4003 24.3224 48.3834 24.3856 48.3653 24.4501C48.3363 24.5498 48.3073 24.6483 48.2771 24.7479C48.2734 24.7583 48.2701 24.7689 48.2675 24.7796C48.2095 24.968 48.1479 25.154 48.0803 25.3388C48.0453 25.436 48.0079 25.5345 47.9704 25.6318C47.933 25.729 47.8943 25.8263 47.8545 25.9223C47.8159 26.016 47.776 26.1096 47.7362 26.202C47.7265 26.2238 47.7168 26.2457 47.706 26.2676C47.6637 26.3636 47.6202 26.4573 47.5756 26.5509C47.5743 26.5521 47.5743 26.5545 47.5731 26.5557C47.5381 26.6311 47.5007 26.7065 47.4632 26.7806C47.4632 26.7829 47.4623 26.7851 47.4608 26.7867C47.4246 26.8597 47.3872 26.9326 47.3485 27.0043L47.2869 27.1223L47.2797 27.1356C47.2024 27.2803 47.1227 27.4238 47.0382 27.566C47.0201 27.5976 47.002 27.6292 46.9839 27.6596C46.9657 27.6912 46.9464 27.7228 46.9271 27.7532C46.915 27.7751 46.9018 27.797 46.8872 27.8189C46.8619 27.8602 46.8365 27.9028 46.81 27.9441C46.8051 27.9526 46.7991 27.9611 46.7943 27.9696C46.7484 28.0414 46.7025 28.1119 46.6566 28.1836C46.5999 28.2699 46.5419 28.355 46.4827 28.4401L45.1713 30.5531L45.1146 30.5056L45.0989 30.4911H45.0977L45.0457 30.4473L44.9033 30.3257C44.8598 30.3683 44.8175 30.4108 44.774 30.4522C44.7571 30.4692 44.739 30.485 44.7221 30.502C44.7089 30.5142 44.6968 30.5263 44.6835 30.5385C42.4163 32.7675 39.4005 34.0583 36.2331 34.1553H36.2295C33.8318 34.2216 31.4582 33.6576 29.3429 32.5189C29.2958 32.4946 29.2499 32.4702 29.204 32.4423C28.9287 32.2915 28.6595 32.1323 28.395 31.9621C28.3938 31.9609 28.3926 31.9609 28.3914 31.9596C28.0847 31.7408 27.7852 31.5074 27.493 31.2594C25.9252 29.929 24.6849 28.251 23.8693 26.3571C23.0537 24.4632 22.685 22.4048 22.792 20.3433C22.7956 20.2618 22.8005 20.1816 22.8065 20.1002C22.8258 19.8059 22.8556 19.513 22.8959 19.2212C22.9067 19.1397 22.9188 19.0583 22.9309 18.978H48.7456C48.7964 19.35 48.8314 19.7241 48.8507 20.1002C48.8628 20.3348 48.8688 20.5682 48.8688 20.8029Z" fill="#BDBDBD"/>
<path d="M48.291 19.2771C47.8338 16.1587 46.3008 13.3122 43.9707 11.2548C41.6407 9.19744 38.6682 8.06592 35.5936 8.06592C32.5191 8.06592 29.5466 9.19744 27.2165 11.2548C24.8865 13.3122 23.3535 16.1587 22.8963 19.2771C22.8844 19.3575 22.8725 19.4392 22.8618 19.5208C22.8227 19.8132 22.7933 20.1068 22.7739 20.4017H48.3944C48.3753 20.0252 48.3409 19.6504 48.291 19.2771Z" fill="#FFDD93"/>
<path d="M36.5326 32.7373H28.9414V26.626C29.0815 23.8332 31.4534 23.6076 33.6822 23.7575C34.0565 23.7575 34.4272 23.8317 34.773 23.9758C35.1188 24.12 35.4331 24.3313 35.6978 24.5976C35.9625 24.864 36.1724 25.1802 36.3157 25.5283C36.4589 25.8763 36.5327 26.2493 36.5326 26.626V32.7373Z" fill="#FFDD93"/>
<path d="M29.1844 28.3579V28.359C29.1844 28.3602 29.1856 28.3602 29.1868 28.3602L29.1844 28.3579ZM26.1856 19.2298C26.1808 19.2597 26.1748 19.2897 26.1699 19.3197C26.1748 19.2897 26.1808 19.2597 26.1868 19.2298H26.1856ZM26.0363 20.3362C26.0327 20.3817 26.0291 20.4273 26.0267 20.4728C26.0291 20.4273 26.0327 20.3817 26.0375 20.3362C26.0373 20.3278 26.0377 20.3193 26.0387 20.311C26.0375 20.3194 26.0375 20.3278 26.0363 20.3362ZM29.1844 28.359C29.1844 28.3602 29.1856 28.3602 29.1868 28.3602L29.1844 28.3579V28.359ZM26.1856 19.2298C26.1808 19.2597 26.1748 19.2897 26.1699 19.3197C26.1748 19.2897 26.1808 19.2597 26.1868 19.2298H26.1856ZM26.0267 20.4728C26.0291 20.4273 26.0327 20.3817 26.0375 20.3362C26.0373 20.3278 26.0377 20.3193 26.0387 20.311C26.0375 20.3194 26.0375 20.3278 26.0363 20.3362C26.0327 20.3817 26.0291 20.4273 26.0267 20.4728ZM63.2184 42.5241C63.195 42.4993 63.1701 42.4761 63.1437 42.4545L63.1425 42.4533L57.1811 37.444L57.027 37.3145L56.4407 36.8218L56.2938 36.6984L55.4584 35.9959L55.2296 35.8041L54.7565 35.4062L54.5146 35.2024L52.2321 33.2857L50.9235 32.1865L50.7477 32.039L46.8918 28.799C46.9508 28.7151 47.0086 28.6311 47.0651 28.546C47.1109 28.4753 47.1566 28.4058 47.2024 28.3351C47.2072 28.3267 47.2132 28.3183 47.218 28.3099C47.2445 28.2691 47.2698 28.2272 47.2951 28.1864C47.3095 28.1648 47.3228 28.1433 47.3348 28.1217C47.3541 28.0917 47.3733 28.0606 47.3914 28.0294C47.4095 27.9994 47.4275 27.9683 47.4455 27.9371C47.5298 27.7969 47.6093 27.6554 47.6863 27.5128L47.6935 27.4996L47.7549 27.3833C47.7935 27.3126 47.8308 27.2407 47.8669 27.1687C47.8684 27.1671 47.8693 27.165 47.8693 27.1628C47.9066 27.0896 47.944 27.0153 47.9789 26.941C47.9801 26.9398 47.9801 26.9374 47.9813 26.9362C48.0258 26.8439 48.0692 26.7516 48.1113 26.6569C48.1221 26.6353 48.1318 26.6137 48.1414 26.5922C48.1811 26.5011 48.2208 26.4088 48.2594 26.3165C48.2991 26.2218 48.3376 26.1259 48.3749 26.03C48.4123 25.9341 48.4496 25.837 48.4845 25.7411C48.5507 25.5577 48.6129 25.3739 48.6711 25.1897C48.6737 25.1791 48.677 25.1687 48.6807 25.1585C48.7108 25.0602 48.7397 24.9631 48.7686 24.8648C48.7866 24.8013 48.8035 24.739 48.8204 24.6755C48.8324 24.6299 48.8444 24.5844 48.8553 24.5388C48.8613 24.5208 48.8649 24.504 48.8697 24.4861C48.8854 24.4249 48.8998 24.365 48.9143 24.3039C48.9167 24.2943 48.9191 24.2835 48.9215 24.2739C48.9503 24.1504 48.9781 24.0258 49.0033 23.9023C49.0166 23.84 49.0286 23.7776 49.0406 23.7153C49.0635 23.5906 49.0864 23.466 49.1056 23.3413C49.1153 23.2826 49.1237 23.2238 49.1322 23.1651C49.1406 23.1124 49.1478 23.0596 49.155 23.0081C49.1647 22.9409 49.1731 22.875 49.1803 22.8079C49.2116 22.543 49.2345 22.2793 49.2489 22.0143C49.2537 21.9352 49.2574 21.8561 49.261 21.7758C49.2646 21.6835 49.267 21.5924 49.2682 21.5001C49.2694 21.4234 49.2706 21.3455 49.2706 21.2687C49.2706 21.0374 49.2646 20.8073 49.2525 20.5759C49.2333 20.2055 49.1983 19.8367 49.1478 19.4695C48.7165 16.3307 47.1651 13.4512 44.7773 11.3575C42.3895 9.26375 39.3247 8.09557 36.1432 8.06647C32.9616 8.03738 29.8758 9.14932 27.4498 11.199C25.0237 13.2488 23.4195 16.0994 22.9304 19.2298C22.9184 19.3089 22.9063 19.3892 22.8955 19.4695C22.8558 19.7572 22.8261 20.0461 22.8064 20.3362C22.8004 20.4165 22.7956 20.4956 22.792 20.5759C22.6853 22.6085 23.0529 24.638 23.866 26.5054C24.6791 28.3728 25.9156 30.0272 27.4785 31.339C27.7699 31.5835 28.0684 31.8137 28.3742 32.0295C28.3754 32.0307 28.3766 32.0307 28.3778 32.0319C28.4801 32.1038 28.5825 32.1745 28.686 32.244C28.8509 32.3519 29.0171 32.4574 29.1844 32.5581C29.1976 32.5653 29.2109 32.5737 29.2241 32.5809C29.3686 32.6672 29.5143 32.7499 29.6599 32.8302H29.6611C30.2034 33.127 30.7662 33.385 31.3453 33.6022C33.0445 34.2387 34.8566 34.5218 36.6699 34.434H36.6735C38.7899 34.3321 40.8507 33.7249 42.6819 32.6636C42.948 32.5101 43.2104 32.3459 43.4668 32.1709C43.5306 32.1278 43.5956 32.0834 43.6582 32.0391C43.7353 31.9851 43.8123 31.9288 43.8894 31.8724C43.8906 31.8724 43.8906 31.8712 43.8918 31.8712C43.8975 31.8664 43.9036 31.862 43.9099 31.858C43.9616 31.8185 44.0146 31.7789 44.0652 31.7406C44.0784 31.731 44.0916 31.7214 44.1049 31.7106C44.1084 31.7082 44.1116 31.7054 44.1145 31.7022C44.1446 31.6806 44.1735 31.6567 44.2036 31.6339C44.2337 31.6111 44.2626 31.5871 44.2927 31.5632C44.2978 31.56 44.3026 31.5563 44.3071 31.5524C44.3408 31.5248 44.3746 31.4984 44.4082 31.4709C44.4431 31.4433 44.4769 31.4145 44.5094 31.3869C44.5431 31.3594 44.5756 31.3318 44.6093 31.303C44.6382 31.2791 44.6683 31.2539 44.6972 31.2275C44.7068 31.2203 44.7152 31.2119 44.7249 31.2035C44.7286 31.2 44.7326 31.1968 44.7369 31.1939C44.7766 31.1604 44.8152 31.1256 44.8537 31.0909C44.8633 31.0825 44.8717 31.0741 44.8814 31.0657C44.9404 31.0129 44.9993 30.9602 45.0571 30.9051C45.0704 30.8931 45.0848 30.8799 45.098 30.8679C45.1113 30.8559 45.1234 30.8439 45.1366 30.8319C45.1534 30.8152 45.1715 30.7996 45.1883 30.7828C45.2317 30.742 45.2738 30.7001 45.3172 30.6581L45.4592 30.778L45.511 30.8212H45.5122L45.5278 30.8356L45.5844 30.8823L46.4247 31.5895L46.4428 31.6051L46.4572 31.6159L46.5523 31.6962L46.7425 31.8568L46.9327 32.0163L46.9604 32.039L47.8452 32.7822L47.968 32.8853L48.8216 33.6022L53.2397 37.3145L53.3938 37.444L59.4407 42.5241L60.9913 43.827L61.5679 44.3113C61.6903 44.4144 61.8319 44.4925 61.9846 44.5411C62.1374 44.5897 62.2982 44.6079 62.458 44.5945C62.6178 44.5811 62.7733 44.5366 62.9158 44.4633C63.0582 44.39 63.1848 44.2895 63.2882 44.1675C63.3748 44.0662 63.4436 43.9511 63.4916 43.827C63.5791 43.6071 63.5998 43.3664 63.5512 43.1348C63.5026 42.9032 63.3869 42.6908 63.2184 42.5241ZM28.3465 14.737C29.5542 13.312 31.1422 12.2562 32.927 11.6916C34.7118 11.1271 36.6206 11.0768 38.4329 11.5467C40.2451 12.0165 41.8869 12.9873 43.1686 14.3468C44.4503 15.7063 45.3195 17.3992 45.6759 19.2298C45.6916 19.3101 45.706 19.3892 45.7192 19.4695C45.7686 19.756 45.8047 20.0461 45.8264 20.3362C45.8324 20.4165 45.8384 20.4956 45.842 20.5759C45.8529 20.7557 45.8577 20.9367 45.8577 21.1165C45.8584 22.2072 45.6769 23.2904 45.3208 24.3218V24.323C44.9227 25.4795 44.3116 26.5519 43.5186 27.4852C43.5018 27.5044 43.4849 27.5248 43.4668 27.5439C43.3079 27.7309 43.1406 27.9107 42.9684 28.0822C42.9673 28.0834 42.966 28.0858 42.9649 28.087C42.9058 28.1457 42.8456 28.2056 42.7854 28.2608C42.6627 28.3794 42.5375 28.4921 42.4099 28.6C42.2184 28.7666 42.0222 28.9228 41.8212 29.0687C41.7538 29.1178 41.6863 29.1658 41.6177 29.2137C41.5503 29.2617 41.4817 29.3072 41.4131 29.3528C41.2758 29.4439 41.1362 29.5314 40.9953 29.6141C40.9255 29.656 40.8533 29.6968 40.7823 29.7364C40.7112 29.7771 40.639 29.8155 40.5668 29.8526C40.4946 29.891 40.4223 29.9281 40.3489 29.9641C40.2032 30.0372 40.0563 30.1055 39.9071 30.1691C39.8324 30.2026 39.7578 30.2338 39.6831 30.2626C39.6362 30.2818 39.5904 30.3009 39.5435 30.3177C39.5251 30.3262 39.5062 30.3334 39.4869 30.3393C39.4616 30.3501 39.4364 30.3597 39.4111 30.3681C39.4029 30.3718 39.3944 30.375 39.3858 30.3777C39.334 30.398 39.2835 30.416 39.2305 30.434C39.1546 30.4616 39.0788 30.4867 39.0018 30.5107C38.9247 30.5359 38.8489 30.5599 38.7718 30.5814C38.6948 30.6054 38.6165 30.627 38.5395 30.6474C38.4612 30.6689 38.3842 30.6893 38.3059 30.7073C38.2229 30.7289 38.1398 30.7481 38.0555 30.766C37.9821 30.7828 37.9099 30.7972 37.8364 30.8104C37.7678 30.8248 37.698 30.8368 37.6294 30.8488C37.5331 30.8655 37.4368 30.8811 37.3393 30.8943C37.2863 30.9027 37.2345 30.9099 37.1816 30.9147C37.1587 30.9183 37.137 30.9207 37.1153 30.9231C37.0479 30.9327 36.9805 30.9399 36.9143 30.9458C36.8962 30.947 36.8794 30.9494 36.8625 30.9506C36.7891 30.9578 36.7145 30.9638 36.641 30.9698C36.4833 30.9806 36.3268 30.9878 36.1691 30.9914C36.0897 30.9926 36.009 30.9938 35.9295 30.9938C35.8501 30.9938 35.7706 30.9926 35.6912 30.9902C35.6912 30.9902 35.6912 30.9914 35.69 30.9902C35.6888 30.9914 35.6888 30.9914 35.6876 30.9902C35.6874 30.9904 35.6872 30.9905 35.687 30.9906C35.6868 30.9907 35.6866 30.9907 35.6864 30.9907C35.6861 30.9907 35.6859 30.9907 35.6857 30.9906C35.6855 30.9905 35.6853 30.9904 35.6852 30.9902C35.6812 30.9914 35.6771 30.9914 35.6731 30.9902C35.6166 30.9902 35.56 30.9878 35.5046 30.9842C35.4637 30.983 35.4215 30.9818 35.3794 30.9782C35.3228 30.9758 35.2663 30.9722 35.2097 30.9674C35.1916 30.9674 35.1735 30.965 35.1555 30.9638C35.147 30.9636 35.1386 30.9628 35.1302 30.9614C35.0724 30.9566 35.0134 30.9518 34.9556 30.9458C34.9268 30.9435 34.8967 30.9411 34.8677 30.9375C34.7799 30.9279 34.692 30.9171 34.6053 30.9051C34.5066 30.8931 34.4079 30.8787 34.3104 30.8607C34.2646 30.8547 34.2201 30.8464 34.1755 30.838C34.1166 30.8284 34.0576 30.8176 33.9986 30.8056C33.9372 30.7936 33.8758 30.7816 33.8144 30.7672C33.765 30.7565 33.7145 30.7457 33.6651 30.7337C33.641 30.7289 33.6169 30.7229 33.5941 30.7169C33.4677 30.6869 33.3425 30.6546 33.2185 30.6186C33.1402 30.597 33.062 30.5743 32.9849 30.5503C32.879 30.5179 32.7743 30.4832 32.6695 30.446C32.6286 30.4328 32.5889 30.4184 32.5479 30.4028C32.507 30.3897 32.4673 30.3741 32.4264 30.3585C32.389 30.3453 32.3517 30.3309 32.3156 30.3165C32.2554 30.2938 32.1964 30.2698 32.1374 30.2458C32.0158 30.1967 31.8966 30.1451 31.7775 30.09C31.71 30.0576 31.6426 30.0265 31.5764 29.9941C31.3152 29.8682 31.058 29.7284 30.8047 29.5746C30.7421 29.5374 30.6796 29.4978 30.617 29.4583C30.5387 29.4103 30.4629 29.36 30.387 29.3096C30.3449 29.2809 30.3039 29.2533 30.263 29.2245C30.1872 29.1718 30.1125 29.1178 30.0391 29.0639C30.0006 29.0363 29.962 29.0076 29.9247 28.9788C29.7911 28.8781 29.6599 28.7726 29.5311 28.6647C29.4697 28.6132 29.4083 28.5604 29.3481 28.5065C29.3228 28.4849 29.2975 28.4621 29.2722 28.4394C29.2434 28.413 29.2145 28.3878 29.1868 28.3602L29.1844 28.3579C29.1423 28.3207 29.1001 28.2811 29.0592 28.2416C28.9954 28.1817 28.9328 28.1205 28.8726 28.0582C28.81 27.9971 28.7498 27.9335 28.6908 27.8712C28.6306 27.8089 28.5728 27.7453 28.5163 27.6806C28.4585 27.6171 28.4019 27.5524 28.3465 27.4864C28.2923 27.4241 28.2394 27.3594 28.1888 27.2958C28.066 27.1448 27.9488 26.9909 27.8373 26.8343C27.7855 26.7624 27.7362 26.6905 27.688 26.6174C27.6362 26.543 27.5869 26.4675 27.5399 26.392C27.4906 26.3165 27.4436 26.2398 27.3979 26.1619C27.3967 26.1592 27.3951 26.1568 27.3931 26.1547C27.3028 26.0024 27.2161 25.849 27.1354 25.6932C27.0524 25.5349 26.9741 25.3751 26.9007 25.2137C26.8634 25.1334 26.8272 25.0518 26.7935 24.9703C26.7237 24.8061 26.6587 24.6419 26.5985 24.4753C26.5684 24.395 26.5407 24.3146 26.513 24.2331C26.5121 24.2277 26.5105 24.2225 26.5082 24.2176C26.4528 24.0521 26.4023 23.8855 26.3577 23.7177C26.3565 23.7153 26.3565 23.7129 26.3553 23.7105C26.3325 23.6278 26.3108 23.5451 26.2915 23.4612C26.2723 23.3881 26.2554 23.3149 26.2398 23.2406C26.2217 23.1579 26.2037 23.0752 26.188 22.9913C26.1796 22.9481 26.1712 22.905 26.1639 22.8618C26.1567 22.8259 26.1507 22.7887 26.1446 22.7528C26.1386 22.7168 26.1326 22.6796 26.1266 22.6425C26.1145 22.5694 26.1037 22.4962 26.0941 22.4231C26.082 22.3368 26.0724 22.2505 26.0628 22.163C26.0519 22.0587 26.0423 21.9544 26.0339 21.8489C26.0279 21.7782 26.0243 21.7063 26.0207 21.6344C26.017 21.5684 26.0134 21.5025 26.0122 21.4366C26.011 21.4331 26.011 21.4293 26.0122 21.4258C26.0121 21.4256 26.0119 21.4255 26.0119 21.4253C26.0118 21.425 26.0117 21.4248 26.0117 21.4246C26.0117 21.4244 26.0118 21.4242 26.0119 21.4239C26.0119 21.4237 26.0121 21.4236 26.0122 21.4234C26.011 21.4222 26.011 21.4222 26.0122 21.421C26.0121 21.4208 26.0119 21.4207 26.0119 21.4205C26.0118 21.4202 26.0117 21.42 26.0117 21.4198C26.0117 21.4196 26.0118 21.4194 26.0119 21.4192C26.0119 21.4189 26.0121 21.4188 26.0122 21.4186C26.011 21.3922 26.0098 21.3659 26.0098 21.3395C26.0074 21.2616 26.0062 21.1837 26.0062 21.1058C26.0062 21.035 26.0074 20.9655 26.0086 20.8948C26.011 20.7965 26.0146 20.6982 26.0194 20.5999C26.0194 20.5783 26.0219 20.5579 26.0231 20.5364C26.0243 20.5148 26.0255 20.4944 26.0267 20.4728C26.0291 20.4273 26.0327 20.3817 26.0375 20.3362C26.0373 20.3278 26.0377 20.3193 26.0387 20.311C26.0424 20.2594 26.0471 20.2079 26.0519 20.1564C26.0616 20.0533 26.0736 19.949 26.0869 19.8459C26.0941 19.7944 26.1001 19.7428 26.1085 19.6913C26.1134 19.6553 26.1194 19.6182 26.1254 19.581C26.1302 19.5438 26.1362 19.5067 26.1435 19.4695C26.1519 19.4204 26.1603 19.37 26.1699 19.3197C26.1748 19.2897 26.1808 19.2597 26.1868 19.2298C26.2097 19.1099 26.2349 18.99 26.2626 18.8702C26.2903 18.7491 26.3216 18.6292 26.3553 18.5094C26.3878 18.3883 26.4239 18.2672 26.4625 18.1462C26.4805 18.085 26.4998 18.0251 26.5215 17.9652C26.5612 17.8441 26.6033 17.7242 26.6503 17.6056C26.6719 17.5468 26.6948 17.4869 26.7201 17.4281C26.7683 17.3095 26.8188 17.1908 26.8706 17.0745C26.897 17.0158 26.9236 16.9571 26.9524 16.8983C27.0066 16.782 27.0632 16.6658 27.1246 16.5519C27.1836 16.4356 27.2474 16.3217 27.3124 16.2091C27.3774 16.0964 27.4448 15.9837 27.5158 15.8722C27.5483 15.8171 27.5844 15.7608 27.6218 15.7068C27.694 15.5965 27.7698 15.4863 27.8469 15.3784C28.0022 15.1602 28.1696 14.9456 28.3465 14.737ZM26.0363 20.3362C26.0327 20.3817 26.0291 20.4273 26.0267 20.4728C26.0291 20.4273 26.0327 20.3817 26.0375 20.3362C26.0373 20.3278 26.0377 20.3193 26.0387 20.311C26.0375 20.3194 26.0375 20.3278 26.0363 20.3362ZM26.1856 19.2298C26.1808 19.2597 26.1748 19.2897 26.1699 19.3197C26.1748 19.2897 26.1808 19.2597 26.1868 19.2298H26.1856ZM29.1844 28.3579V28.359C29.1844 28.3602 29.1856 28.3602 29.1868 28.3602L29.1844 28.3579Z" fill="#3F3D56"/>
<path opacity="0.3" d="M29.2505 28.6467C27.3444 27.0253 26.1129 24.7406 25.8006 22.2463C25.4882 19.7521 26.1179 17.2306 27.5644 15.1826C27.3745 15.3755 27.1908 15.5774 27.0135 15.7885C26.1721 16.7937 25.5353 17.9562 25.1395 19.2095C24.7437 20.4627 24.5967 21.7823 24.7069 23.0929C24.817 24.4034 25.1821 25.6793 25.7814 26.8476C26.3807 28.0159 27.2024 29.0538 28.1997 29.902C30.2136 31.615 32.8201 32.4514 35.4459 32.2271C38.0716 32.0029 40.5014 30.7364 42.2007 28.7063C42.3777 28.4949 42.5443 28.2785 42.7006 28.0569C40.9412 29.8389 38.5814 30.8887 36.0897 30.9979C33.598 31.1072 31.1567 30.2679 29.2505 28.6467Z" fill="black"/>
</svg>
