<svg viewBox="0 0 470 388" fill="none" xmlns="http://www.w3.org/2000/svg">
<path d="M332.084 31.3779C332.084 31.3779 354.984 7.57788 364.584 8.17788C374.184 8.77788 368.684 24.0779 373.884 22.8779C379.084 21.6779 385.684 0.0778815 402.384 1.77788C419.084 3.47788 404.084 26.4779 405.684 26.4779C407.284 26.4779 424.484 20.3779 420.284 31.3779H332.084Z" fill="#F2EBEB"/>
<path d="M95.6843 24.578C95.6843 24.578 114.684 4.77799 122.584 5.37799C130.484 5.97799 125.984 18.578 130.284 17.578C134.584 16.578 140.084 -1.32201 153.884 0.0779876C167.684 1.47799 155.284 20.478 156.684 20.478C158.084 20.478 172.284 15.478 168.784 24.478L95.6843 24.578Z" fill="#F2EBEB"/>
<path d="M171.184 89.7778C171.184 89.7778 182.284 77.3778 186.184 79.6778C190.084 81.9778 188.084 86.3778 188.084 86.3778C188.084 86.3778 203.184 66.1778 217.484 65.7778C231.784 65.3778 225.084 83.9778 225.084 83.9778C225.084 83.9778 247.884 54.2778 272.184 54.6778C296.484 55.0778 283.184 86.2778 283.184 86.2778L171.184 89.7778Z" fill="#F2EBEB"/>
<path d="M76.5843 257.678L82.9843 282.078L173.684 300.878L158.084 260.678L129.484 248.378L76.5843 257.678Z" fill="#000001"/>
<path d="M336.984 303.878C336.984 303.878 303.984 221.878 300.484 225.578C296.984 229.278 280.284 266.678 282.884 268.078C285.484 269.478 293.984 278.178 293.984 278.178L283.184 316.478C283.284 316.478 330.484 312.978 336.984 303.878Z" fill="black"/>
<path d="M261.284 278.277L276.584 283.877L280.084 309.577L259.184 304.577C259.184 304.577 260.584 282.777 261.284 278.277Z" fill="black"/>
<path d="M371.684 308.178L443.184 312.678C443.184 312.678 439.984 303.278 427.484 266.578C414.984 229.878 395.584 210.878 387.484 235.578L371.684 308.178Z" fill="black"/>
<path d="M347.584 278.378L366.084 284.478L370.284 312.078L344.984 306.678C345.084 306.578 346.784 283.278 347.584 278.378Z" fill="black"/>
<path d="M248.384 298.878C248.384 298.878 215.384 216.878 211.884 220.578C208.384 224.278 191.684 261.678 194.284 263.078C196.884 264.478 205.384 273.178 205.384 273.178L194.584 311.478C194.684 311.478 241.984 307.878 248.384 298.878Z" fill="black"/>
<path d="M172.684 273.178L187.984 278.778L191.484 304.478L170.584 299.478C170.684 299.578 172.084 277.778 172.684 273.178Z" fill="black"/>
<path d="M469.184 303.477C462.984 302.277 418.084 310.977 285.984 303.477C153.884 295.977 14.7843 271.077 14.7843 271.077L80.1843 359.377C80.1843 359.377 84.9843 362.377 92.1843 366.477C99.9843 360.777 109.284 345.677 118.584 346.077C128.084 346.577 137.284 370.977 148.184 371.477C157.984 371.977 169.484 348.477 180.084 348.977C186.384 349.277 192.284 359.077 198.484 366.477C200.284 366.077 202.184 365.877 204.084 365.777C203.084 355.377 202.684 344.777 204.884 344.977C207.084 345.177 215.184 354.977 223.284 365.677C229.484 359.277 235.784 351.677 241.684 351.977C251.884 352.477 261.084 376.977 271.284 377.477C277.884 377.777 284.984 368.277 291.884 361.577C291.584 354.977 291.784 349.877 293.384 350.077C294.384 350.177 296.684 352.377 299.684 355.777C300.784 355.277 301.984 355.077 303.184 355.077C313.684 355.577 322.784 380.077 332.784 380.577C343.384 381.077 354.884 357.677 364.784 358.177C374.284 358.677 382.484 377.377 390.684 382.377C389.384 370.577 388.184 355.277 390.884 355.577C392.884 355.777 400.684 364.977 408.584 375.377C415.084 368.877 421.184 360.977 426.284 361.277C435.684 361.777 439.284 367.777 442.384 373.777C452.884 351.277 473.884 304.377 469.184 303.477Z" fill="#F2EBEB"/>
<path d="M294.284 355.877C294.284 355.877 258.584 241.277 259.184 238.577C259.784 235.877 263.684 230.777 263.684 230.777L299.784 355.877H294.284Z" fill="#000001"/>
<path d="M392.284 375.078C392.284 375.078 344.384 238.478 345.084 235.578C345.784 232.678 350.484 227.178 350.484 227.178L398.384 375.078H392.284Z" fill="#000001"/>
<path d="M209.584 363.278C209.584 363.278 170.084 236.178 170.584 233.478C171.084 230.778 175.084 225.678 175.084 225.678L214.684 363.278H209.584Z" fill="#000001"/>
<path d="M293.484 350.078C291.884 349.878 291.684 354.978 291.984 361.578C294.684 358.978 297.284 356.778 299.884 355.778C296.784 352.378 294.484 350.178 293.484 350.078Z" fill="#000001"/>
<path d="M408.684 375.378C400.884 364.978 393.084 355.778 390.984 355.578C388.284 355.278 389.484 370.578 390.784 382.378C391.884 383.078 393.084 383.578 394.384 383.678C399.184 383.878 403.984 379.978 408.684 375.378Z" fill="#000001"/>
<path d="M218.684 370.177C214.484 367.077 209.284 365.577 204.084 365.777C204.284 368.077 204.584 370.377 204.784 372.577C206.184 373.677 207.884 374.277 209.684 374.477C212.684 374.677 215.584 372.877 218.684 370.177Z" fill="#000001"/>
<path d="M218.684 370.177C220.184 368.877 221.784 367.277 223.284 365.677C215.284 354.977 207.084 345.177 204.884 344.977C202.684 344.777 203.084 355.377 204.084 365.777C209.284 365.577 214.484 367.077 218.684 370.177Z" fill="#000001"/>
<path d="M300.584 306.878C300.584 306.878 296.884 309.578 295.384 310.078C293.884 310.578 285.984 307.278 284.084 307.778C282.184 308.278 269.284 315.278 270.984 315.778C272.684 316.278 275.884 315.478 275.884 315.478C275.584 316.478 275.984 317.478 276.884 317.978C276.884 317.978 276.784 320.878 278.684 321.278C278.684 321.278 278.384 323.678 281.284 322.778C284.184 321.878 286.284 320.578 288.084 322.778C289.884 324.978 295.384 327.678 297.584 325.978C299.784 324.278 306.784 321.178 306.784 321.178L300.584 306.878Z" fill="#A04040"/>
<path d="M282.184 312.978C281.484 313.778 280.684 314.478 279.784 314.978C278.884 315.478 277.984 315.978 276.984 316.278C275.984 316.578 274.984 316.778 273.884 316.778C272.784 316.878 271.684 316.478 270.884 315.778C271.884 315.678 272.784 315.478 273.684 315.178L276.384 314.278C277.284 313.978 278.184 313.678 279.184 313.478C280.184 313.278 281.184 313.078 282.184 312.978Z" fill="#000001"/>
<path d="M283.284 315.978C282.884 316.478 282.384 316.878 281.784 317.178C281.284 317.478 280.784 317.678 280.184 317.878C279.684 318.078 279.084 318.178 278.584 318.278L277.684 318.378C277.384 318.378 277.084 318.478 276.784 318.578C276.684 318.178 276.984 317.778 277.184 317.578C277.384 317.278 277.684 317.078 277.884 316.878C278.384 316.478 278.984 316.178 279.584 315.978C280.184 315.778 280.784 315.678 281.384 315.678C282.084 315.678 282.684 315.778 283.284 315.978Z" fill="#000001"/>
<path d="M283.784 318.978C283.484 319.378 283.084 319.778 282.684 320.078C282.284 320.378 281.884 320.578 281.484 320.678C281.084 320.878 280.584 320.978 280.184 320.978C279.984 320.978 279.684 320.978 279.484 321.078C279.184 321.078 278.984 321.078 278.784 321.178C278.684 320.878 278.684 320.478 278.884 320.278C278.984 320.078 279.184 319.778 279.384 319.578C279.784 319.178 280.184 318.978 280.684 318.778C281.184 318.578 281.684 318.478 282.184 318.478C282.684 318.578 283.284 318.678 283.784 318.978Z" fill="#000001"/>
<path d="M294.884 308.977C294.884 308.977 299.784 327.077 302.184 327.877C304.584 328.677 352.784 317.277 351.984 304.677C349.384 261.677 317.284 227.677 307.784 232.477C302.084 235.277 307.984 252.477 313.584 267.177C317.384 277.377 327.384 293.977 327.384 293.977L294.884 308.977Z" fill="black"/>
<path d="M325.884 294.477L317.384 273.377L313.084 262.877C311.684 259.377 310.184 255.877 308.984 252.277C309.884 255.977 311.184 259.477 312.384 263.177C313.584 266.877 314.884 270.377 316.184 273.977C318.684 280.777 321.284 287.577 323.884 294.477C321.584 295.577 319.284 296.577 317.084 297.577C314.584 298.777 312.084 299.877 309.584 301.177C307.084 302.477 304.684 303.677 302.184 304.977C300.884 305.677 299.684 306.377 298.484 306.977C297.284 307.577 296.084 308.277 294.884 308.977C296.184 308.477 297.384 307.777 298.684 307.277C299.984 306.777 301.284 306.277 302.584 305.777C305.184 304.777 307.784 303.677 310.284 302.577C312.784 301.477 315.384 300.277 317.884 299.177C320.384 298.077 322.884 296.877 325.384 295.677L326.184 295.277L325.884 294.477Z" fill="#000001"/>
<path d="M261.284 278.277C261.284 278.277 263.584 261.877 264.684 260.177C265.784 258.477 277.884 252.377 278.584 253.077C279.284 253.777 272.484 261.077 272.484 261.077C272.484 261.077 282.184 258.977 282.784 259.677C283.384 260.377 281.884 262.777 281.884 262.777C281.884 262.777 282.784 263.077 281.384 265.677C281.384 265.677 281.884 266.477 279.784 267.877C277.684 269.277 271.484 271.677 271.484 271.677L272.484 287.077C267.884 285.277 263.984 282.277 261.284 278.277Z" fill="#A04040"/>
<path d="M271.784 266.578C272.484 265.978 273.184 265.478 274.084 265.078C274.884 264.678 275.784 264.478 276.584 264.278C277.484 264.078 278.384 264.078 279.384 264.178C279.884 264.278 280.384 264.478 280.784 264.678C280.984 264.878 281.184 265.078 281.384 265.278C281.484 265.478 281.484 265.778 281.384 266.078C281.184 265.778 280.784 265.578 280.384 265.578C279.984 265.578 279.684 265.678 279.284 265.678L276.884 266.178C276.084 266.278 275.284 266.478 274.384 266.578C273.484 266.678 272.584 266.678 271.784 266.578Z" fill="#000001"/>
<path d="M270.084 263.977C270.884 263.277 271.784 262.777 272.784 262.377C273.684 261.977 274.684 261.677 275.684 261.477C276.684 261.277 277.784 261.277 278.784 261.377C279.284 261.477 279.884 261.577 280.384 261.777C280.884 261.977 281.384 262.277 281.784 262.677C280.784 262.677 279.784 262.777 278.884 262.977C277.984 263.177 276.984 263.377 276.084 263.477C275.184 263.577 274.184 263.777 273.184 263.877C272.184 264.077 271.184 264.077 270.084 263.977Z" fill="#000001"/>
<path d="M268.384 261.577C269.284 261.077 270.184 260.577 271.184 260.277C273.084 259.677 275.084 259.377 276.984 259.277C277.984 259.277 278.984 259.377 279.984 259.577C279.084 260.077 278.184 260.577 277.184 260.877C276.284 261.177 275.284 261.477 274.284 261.577C273.284 261.777 272.284 261.877 271.284 261.877C270.384 261.877 269.384 261.777 268.384 261.577Z" fill="#000001"/>
<path d="M397.884 307.777C397.884 307.777 393.384 310.777 391.584 311.177C389.784 311.577 380.184 308.177 377.884 308.677C375.584 309.177 359.984 316.777 361.984 317.277C363.984 317.777 367.984 316.977 367.984 316.977C367.584 318.077 368.184 319.177 369.184 319.677C369.184 319.677 369.084 322.877 371.384 323.277C371.384 323.277 371.084 325.777 374.584 324.877C378.084 323.977 380.684 322.477 382.784 324.877C384.884 327.277 391.584 330.077 394.284 328.377C396.984 326.677 405.384 323.177 405.384 323.177L397.884 307.777Z" fill="#EA8383"/>
<path d="M375.584 314.277C374.684 315.077 373.684 315.777 372.584 316.377C371.484 316.977 370.384 317.377 369.184 317.777C367.984 318.177 366.784 318.277 365.584 318.377C364.284 318.477 363.084 318.077 361.984 317.377C363.184 317.377 364.284 317.177 365.384 316.777L368.684 315.877C369.784 315.577 370.884 315.277 372.084 314.977C373.184 314.577 374.384 314.377 375.584 314.277Z" fill="#000001"/>
<path d="M376.984 317.477C376.384 317.977 375.784 318.377 375.084 318.677C374.484 318.977 373.784 319.177 373.084 319.377C372.384 319.577 371.784 319.677 371.084 319.777L370.084 319.877C369.784 319.877 369.384 319.977 369.084 320.077C368.984 319.577 369.384 319.277 369.584 318.977C369.884 318.677 370.184 318.477 370.484 318.277C371.084 317.877 371.784 317.577 372.484 317.377C373.184 317.177 373.884 317.077 374.584 317.077C375.484 317.077 376.284 317.177 376.984 317.477Z" fill="#000001"/>
<path d="M377.484 320.778C377.084 321.278 376.584 321.678 376.084 321.978C375.584 322.278 375.084 322.478 374.584 322.678C374.084 322.878 373.584 322.978 372.984 323.078L372.184 323.178C371.884 323.178 371.584 323.278 371.384 323.378C371.284 322.978 371.484 322.678 371.684 322.378C371.884 322.078 372.084 321.878 372.384 321.678C372.884 321.278 373.384 321.078 373.984 320.878C374.584 320.678 375.084 320.578 375.684 320.578C376.284 320.378 376.884 320.578 377.484 320.778Z" fill="#000001"/>
<path d="M389.684 308.177C389.684 308.177 394.784 329.377 397.284 330.277C399.784 331.177 450.084 317.877 449.284 303.077C446.484 252.677 413.084 212.977 403.184 218.577C397.184 221.877 403.384 241.977 409.184 259.177C413.184 271.077 423.584 290.577 423.584 290.577L389.684 308.177Z" fill="black"/>
<path d="M425.684 288.577L416.184 262.077L411.384 248.877C409.884 244.477 408.184 240.077 406.884 235.577C407.884 240.177 409.384 244.677 410.684 249.177C411.984 253.677 413.484 258.077 414.884 262.577C417.684 271.177 420.584 279.877 423.584 288.477C420.984 289.777 418.384 291.077 415.884 292.477C413.084 293.977 410.284 295.377 407.484 296.977C404.684 298.577 401.984 300.077 399.184 301.677C397.784 302.477 396.484 303.277 395.084 304.077C393.684 304.877 392.284 305.677 390.984 306.577C392.384 305.977 394.084 305.277 395.484 304.577C396.884 303.877 398.384 303.277 399.784 302.577C402.684 301.277 405.484 299.877 408.384 298.477C411.284 297.077 414.084 295.577 416.884 294.177C419.684 292.777 422.484 291.277 425.284 289.777L425.984 289.377L425.684 288.577Z" fill="#000001"/>
<path d="M347.584 278.377C347.584 278.377 350.384 260.777 351.684 258.877C352.984 256.977 367.784 250.477 368.584 251.177C369.384 251.877 361.184 259.777 361.184 259.777C361.184 259.777 372.884 257.477 373.584 258.277C374.284 259.077 372.484 261.577 372.484 261.577C372.484 261.577 373.584 261.877 371.884 264.677C371.884 264.677 372.484 265.577 369.884 267.077C367.284 268.577 359.884 271.177 359.884 271.177L361.084 287.677C355.684 286.077 350.984 282.777 347.584 278.377Z" fill="#EA8383"/>
<path d="M360.284 265.778C361.184 265.078 362.084 264.578 363.084 264.178C364.084 263.778 365.084 263.478 366.084 263.278C367.184 263.078 368.284 263.078 369.284 263.178C369.884 263.278 370.384 263.378 370.984 263.678C371.284 263.778 371.484 263.978 371.684 264.278C371.884 264.478 371.984 264.878 371.884 265.178C371.584 264.778 371.184 264.578 370.684 264.678C370.184 264.678 369.784 264.778 369.284 264.778C368.384 264.878 367.384 265.078 366.384 265.278C365.384 265.478 364.384 265.578 363.384 265.678C362.384 265.878 361.384 265.878 360.284 265.778Z" fill="#000001"/>
<path d="M358.284 262.977C359.284 262.277 360.484 261.777 361.584 261.377C362.784 260.977 363.884 260.677 365.184 260.477C366.384 260.277 367.684 260.277 368.884 260.277C369.484 260.377 370.184 260.477 370.784 260.677C371.384 260.877 371.984 261.177 372.484 261.677C371.284 261.577 370.084 261.677 368.984 261.977C367.884 262.177 366.684 262.377 365.484 262.577C364.284 262.777 363.184 262.877 361.984 263.077C360.784 262.977 359.484 263.077 358.284 262.977Z" fill="#000001"/>
<path d="M356.184 260.477C357.284 259.877 358.384 259.477 359.584 259.177C360.784 258.877 361.884 258.577 363.084 258.377C364.284 258.177 365.484 258.077 366.684 258.077C367.884 258.077 369.184 258.077 370.384 258.277C369.284 258.877 368.184 259.277 366.984 259.577C365.784 259.877 364.684 260.177 363.484 260.377C362.284 260.577 361.084 260.677 359.884 260.677C358.684 260.677 357.384 260.677 356.184 260.477Z" fill="#000001"/>
<path d="M401.784 204.378C401.784 204.378 408.284 225.278 408.284 225.778C408.284 226.278 395.084 233.678 395.084 233.678L392.184 214.378C392.184 214.378 380.484 220.178 381.284 205.678C381.284 205.678 374.784 206.178 375.184 205.478C375.584 204.778 381.984 195.378 385.684 191.478C389.384 187.578 407.584 192.378 407.884 194.878C408.184 197.378 407.184 204.678 401.784 204.378Z" fill="#EA8383"/>
<path d="M392.384 196.478C392.384 196.478 385.784 194.578 384.184 200.278C384.184 200.178 391.084 202.078 392.384 196.478Z" fill="#F2EBEB"/>
<path d="M392.684 196.378C391.784 196.378 390.884 196.378 390.084 196.478C389.284 196.578 388.484 196.678 387.684 196.978C386.084 197.478 384.884 198.678 384.184 200.178C384.184 199.278 384.484 198.378 385.084 197.578C385.684 196.778 386.484 196.278 387.384 195.978C388.284 195.678 389.184 195.578 390.084 195.678C391.084 195.778 391.884 195.978 392.684 196.378Z" fill="#000001"/>
<path d="M386.684 196.878C386.684 196.878 388.384 197.278 387.884 200.478C387.884 200.478 384.984 201.078 384.184 200.178C384.184 200.178 385.384 196.978 386.684 196.878Z" fill="#000001"/>
<path d="M389.884 183.178C389.884 183.178 398.884 174.978 390.884 171.378C383.884 168.278 376.884 179.678 376.384 185.178C376.184 184.478 376.184 183.678 376.284 182.878C376.384 181.078 376.684 179.278 377.184 177.578C377.684 175.778 378.284 174.078 378.984 172.378C377.984 173.878 377.184 175.578 376.584 177.378C375.884 179.078 375.484 180.978 375.384 182.878C375.284 183.878 375.384 184.878 375.684 185.778C375.984 186.778 376.484 187.678 377.184 188.378C377.484 188.578 377.784 188.878 378.084 189.078C380.184 191.578 383.384 193.078 387.084 193.478C391.684 194.078 393.884 193.878 393.984 195.078C394.084 196.278 392.684 202.078 390.584 203.478C388.484 204.878 381.384 205.678 381.384 205.678C381.384 205.678 374.784 213.478 373.384 218.678C371.984 223.878 375.384 221.778 375.384 221.778C375.384 221.778 373.784 223.778 378.184 224.078C382.584 224.378 396.884 215.078 399.584 202.778C399.584 202.778 401.984 194.478 403.784 194.878C405.584 195.278 407.184 200.878 401.684 204.378L403.084 208.878C407.784 206.278 410.884 201.478 411.384 196.178C412.284 186.978 405.484 182.078 389.884 183.178Z" fill="#A04040"/>
<path d="M390.584 206.278C390.784 206.678 390.884 207.178 390.684 207.678C390.484 208.178 390.184 208.578 389.784 208.878C389.384 209.178 388.884 209.278 388.384 209.278C387.884 209.278 387.484 209.178 386.984 209.078C387.384 208.878 387.784 208.678 388.184 208.578C388.484 208.478 388.884 208.278 389.184 208.078C389.884 207.678 390.384 207.078 390.584 206.278Z" fill="#000001"/>
<path d="M298.584 186.978C298.584 186.978 306.484 187.378 311.184 189.478C315.884 191.578 318.284 195.078 318.184 200.378C318.084 205.978 317.684 209.378 313.684 212.878C309.684 216.378 305.084 218.278 299.184 213.678C293.284 209.078 294.684 195.878 290.784 194.078C286.884 192.278 286.584 186.278 289.184 185.178C291.784 184.078 291.984 183.878 298.584 186.978Z" fill="#000001"/>
<path d="M299.684 242.878C299.084 243.478 298.184 243.478 297.584 242.978C297.284 242.678 297.084 242.278 297.084 241.778C297.284 235.778 297.484 224.878 295.184 222.478C292.884 220.078 282.984 209.978 282.984 209.978C282.984 209.978 276.684 209.278 276.584 208.078C276.484 206.878 282.484 201.578 285.384 198.378C287.884 195.778 290.684 193.478 293.684 191.478C293.284 192.078 293.284 197.078 295.984 201.178C297.584 203.678 302.084 205.778 302.084 205.778C302.084 205.778 301.284 199.078 305.784 201.878C310.284 204.678 303.584 209.778 304.084 210.878C305.184 213.178 307.484 228.978 308.384 231.978C308.584 232.578 302.484 239.878 299.684 242.878Z" fill="#A04040"/>
<path d="M293.984 201.078C293.184 201.478 292.384 201.778 291.584 202.078C290.784 202.378 289.884 202.578 289.084 202.678C289.584 201.878 290.384 201.278 291.284 201.078C292.184 200.878 293.084 200.778 293.984 201.078Z" fill="#000001"/>
<path d="M295.384 205.377C295.284 205.377 295.084 205.277 294.984 205.277C294.884 205.277 294.884 205.277 294.784 205.177C294.684 205.077 294.684 204.877 294.684 204.477C294.884 204.277 295.284 204.277 295.484 204.477C295.584 204.577 295.584 204.677 295.584 204.877C295.684 205.077 295.584 205.277 295.384 205.377Z" fill="#000001"/>
<path d="M293.684 205.778C293.284 205.678 293.084 205.578 293.084 205.478C293.084 205.378 293.084 205.278 293.084 204.778C293.284 204.678 293.484 204.678 293.584 204.678C293.884 204.778 294.084 205.178 293.984 205.478C293.884 205.678 293.784 205.778 293.684 205.778Z" fill="#000001"/>
<path d="M292.484 211.578C291.984 210.978 291.084 210.878 290.384 211.378C289.284 212.178 291.484 214.878 293.284 214.178C295.084 213.478 292.484 211.578 292.484 211.578Z" fill="#EA8383"/>
<path d="M292.584 209.878C293.184 210.778 293.084 211.978 292.384 212.878C291.984 213.278 291.584 213.578 291.084 213.778C290.884 213.878 290.584 213.878 290.284 213.878C289.984 213.878 289.784 213.878 289.484 213.778C289.684 213.678 289.884 213.478 290.084 213.378C290.284 213.278 290.484 213.178 290.584 212.978C290.884 212.778 291.184 212.478 291.484 212.178C292.084 211.578 292.484 210.778 292.584 209.878Z" fill="#000001"/>
<path d="M316.384 210.178C316.984 210.778 317.484 211.378 317.984 212.078C318.184 212.478 318.384 212.878 318.484 213.278C318.584 213.778 318.484 214.378 318.084 214.778C317.684 215.078 317.284 215.278 316.784 215.378L315.584 215.578C314.884 215.578 314.184 215.878 313.584 216.178C313.284 216.478 313.384 217.278 313.584 218.078L313.684 218.478C313.684 218.678 313.684 218.778 313.684 218.978C313.584 219.278 313.284 219.578 312.984 219.678C312.584 219.778 312.084 219.778 311.584 219.778C311.284 219.678 310.884 219.678 310.584 219.778C310.484 219.778 310.484 220.178 310.584 220.578C310.684 221.378 310.884 222.178 311.184 222.878C310.684 222.178 310.284 221.478 310.084 220.678C309.984 220.478 309.984 220.278 309.884 220.078C309.784 219.778 309.984 219.478 310.184 219.278C310.584 219.078 311.084 218.978 311.584 218.978C311.984 218.978 312.284 218.978 312.684 218.878C312.784 218.878 312.784 218.778 312.784 218.778V218.678L312.684 218.478C312.584 218.078 312.484 217.678 312.384 217.278C312.284 216.778 312.484 216.178 312.784 215.778C313.184 215.478 313.584 215.178 314.084 215.078C314.484 214.978 314.884 214.878 315.384 214.878L316.584 214.778C316.884 214.778 317.184 214.678 317.484 214.478C317.884 214.178 317.784 213.278 317.484 212.578C317.184 211.578 316.784 210.878 316.384 210.178Z" fill="black"/>
<path d="M317.984 217.777C317.984 217.777 342.484 238.777 335.784 250.177C329.084 261.577 314.384 238.677 315.484 218.477C315.484 218.477 316.684 216.577 317.984 217.777Z" fill="#000001"/>
<path d="M294.484 199.778C293.684 199.478 292.784 199.178 291.984 198.978C291.584 198.878 291.184 198.878 290.784 198.878C290.284 198.878 289.884 198.878 289.384 198.978C289.684 198.578 290.084 198.278 290.584 198.178C291.084 198.078 291.584 197.978 292.084 198.078C292.584 198.178 293.084 198.378 293.484 198.678C293.884 198.878 294.284 199.278 294.484 199.778Z" fill="#000001"/>
<path d="M294.484 189.878C294.184 191.478 294.084 193.178 294.084 194.778C294.084 196.378 294.384 197.878 294.884 199.378C295.384 200.878 296.184 202.178 297.084 203.378L297.484 203.878C297.584 204.078 297.784 204.178 297.884 204.278L298.684 205.178C299.284 205.778 299.884 206.278 300.484 206.978C299.684 206.678 298.884 206.378 298.084 205.978C297.284 205.578 296.584 205.078 295.984 204.478C294.584 203.278 293.584 201.778 292.984 199.978C292.384 198.278 292.284 196.478 292.484 194.678C292.684 192.878 293.384 191.178 294.484 189.878Z" fill="#000001"/>
<path d="M212.084 301.878C212.084 301.878 208.384 304.578 206.884 305.078C205.384 305.578 197.484 302.278 195.584 302.778C193.684 303.278 180.784 310.278 182.484 310.778C184.184 311.278 187.384 310.478 187.384 310.478C187.084 311.478 187.484 312.478 188.384 312.978C188.384 312.978 188.284 315.878 190.184 316.278C190.184 316.278 189.884 318.678 192.784 317.778C195.684 316.878 197.784 315.578 199.584 317.778C201.384 319.978 206.884 322.678 209.084 320.978C211.284 319.278 218.284 316.178 218.284 316.178L212.084 301.878Z" fill="#EA8383"/>
<path d="M193.584 307.978C192.884 308.778 192.084 309.478 191.184 309.978C190.284 310.478 189.384 310.978 188.384 311.278C187.384 311.578 186.384 311.778 185.284 311.778C184.184 311.878 183.084 311.478 182.284 310.778C183.284 310.678 184.184 310.478 185.084 310.178L187.784 309.278C188.684 308.978 189.584 308.678 190.584 308.478C191.684 308.278 192.584 308.078 193.584 307.978Z" fill="#000001"/>
<path d="M194.784 310.878C194.384 311.378 193.884 311.778 193.284 312.078C192.784 312.378 192.284 312.578 191.684 312.778C191.184 312.978 190.584 313.078 190.084 313.178L189.284 313.278C188.984 313.278 188.684 313.378 188.384 313.478C188.284 313.078 188.584 312.678 188.784 312.478C188.984 312.178 189.284 311.978 189.484 311.778C189.984 311.378 190.584 311.078 191.184 310.978C191.784 310.778 192.384 310.678 192.984 310.678C193.484 310.578 194.184 310.678 194.784 310.878Z" fill="#000001"/>
<path d="M195.184 313.978C194.884 314.378 194.484 314.778 194.084 315.078C193.684 315.378 193.284 315.578 192.884 315.678C192.484 315.878 192.084 315.978 191.584 315.978L190.884 316.078C190.584 316.078 190.384 316.078 190.184 316.178C190.084 315.878 190.184 315.478 190.284 315.278C190.484 315.078 190.584 314.778 190.884 314.578C191.684 313.878 192.684 313.478 193.684 313.578C194.184 313.578 194.684 313.778 195.184 313.978Z" fill="#000001"/>
<path d="M206.384 303.977C206.384 303.977 211.184 322.077 213.684 322.877C216.184 323.677 264.284 312.277 263.484 299.677C260.884 256.677 228.784 222.677 219.284 227.477C213.584 230.277 219.484 247.477 225.084 262.177C228.884 272.377 238.884 288.977 238.884 288.977L206.384 303.977Z" fill="black"/>
<path d="M237.384 289.477L228.884 268.377L224.584 257.877C223.184 254.377 221.684 250.877 220.484 247.277C221.384 250.877 222.684 254.477 223.884 258.177C225.084 261.877 226.384 265.377 227.684 268.977C230.184 275.777 232.784 282.577 235.384 289.477C233.084 290.577 230.784 291.577 228.584 292.577C226.084 293.777 223.584 294.877 221.084 296.177C218.584 297.477 216.184 298.677 213.684 299.977C212.384 300.677 211.184 301.377 209.984 301.977C208.784 302.577 207.584 303.277 206.384 303.977C207.684 303.477 208.784 302.777 210.084 302.277C211.384 301.777 212.684 301.277 213.984 300.777C216.584 299.777 219.184 298.677 221.684 297.577C224.184 296.477 226.684 295.277 229.284 294.177C231.884 293.077 234.384 291.877 236.884 290.677L237.684 290.277L237.384 289.477Z" fill="#000001"/>
<path d="M172.684 273.178C172.684 273.178 174.984 256.778 176.084 255.078C177.184 253.378 189.384 247.278 189.984 247.978C190.584 248.678 183.884 255.978 183.884 255.978C183.884 255.978 193.584 253.878 194.184 254.578C194.784 255.278 193.284 257.678 193.284 257.678C193.284 257.678 194.184 257.978 192.784 260.578C192.784 260.578 193.284 261.378 191.184 262.778C189.084 264.178 182.884 266.578 182.884 266.578L183.884 281.978C179.384 280.378 175.384 277.278 172.684 273.178Z" fill="#EA8383"/>
<path d="M183.284 261.477C183.984 260.877 184.684 260.277 185.484 259.977C186.284 259.577 187.184 259.277 187.984 259.177C188.884 258.977 189.784 258.977 190.784 259.077C191.284 259.177 191.784 259.377 192.184 259.577C192.384 259.777 192.584 259.977 192.784 260.177C192.884 260.377 192.884 260.677 192.784 260.977C192.584 260.677 192.184 260.477 191.784 260.477C191.384 260.477 191.084 260.577 190.684 260.577L188.284 261.077C187.484 261.177 186.684 261.377 185.784 261.477C184.984 261.577 184.084 261.577 183.284 261.477Z" fill="#000001"/>
<path d="M181.584 258.977C182.384 258.277 183.284 257.777 184.284 257.377C185.184 256.977 186.184 256.677 187.184 256.477C188.184 256.277 189.284 256.277 190.284 256.377C190.784 256.477 191.384 256.577 191.884 256.777C192.384 256.977 192.884 257.277 193.284 257.677C192.284 257.677 191.384 257.777 190.384 257.977C189.484 258.177 188.484 258.377 187.584 258.477C186.684 258.577 185.684 258.777 184.684 258.877C183.684 259.077 182.584 259.077 181.584 258.977Z" fill="#000001"/>
<path d="M179.884 256.577C180.784 256.077 181.684 255.577 182.684 255.277C184.584 254.677 186.584 254.277 188.484 254.277C189.484 254.277 190.584 254.377 191.584 254.577C190.684 255.077 189.784 255.577 188.784 255.877C187.884 256.177 186.884 256.377 185.884 256.577C184.884 256.777 183.884 256.877 182.884 256.877C181.884 256.877 180.884 256.777 179.884 256.577Z" fill="#000001"/>
<path d="M211.984 210.978C207.784 211.178 192.684 211.678 192.684 211.678C192.684 211.678 195.884 197.578 202.284 196.878C208.684 196.178 211.984 210.978 211.984 210.978Z" fill="#000001"/>
<path d="M209.684 240.578C208.984 241.178 207.884 241.078 207.284 240.378C206.984 239.978 206.784 239.478 206.884 239.078C207.784 232.278 211.284 212.378 207.184 211.678C199.584 210.378 195.984 200.278 195.984 200.278C195.984 200.278 189.584 197.778 189.584 196.378C189.584 194.978 194.884 192.278 198.384 188.878C201.884 185.478 204.384 180.878 208.484 181.978C212.584 183.078 207.484 188.278 210.084 193.178C211.684 196.178 215.384 196.178 215.384 196.178C215.384 196.178 216.384 191.378 221.184 195.078C225.984 198.778 217.784 203.778 218.284 205.078C219.284 207.778 220.184 225.878 220.884 229.278C220.884 229.878 213.184 237.478 209.684 240.578Z" fill="#EA8383"/>
<path d="M208.884 194.477C208.884 194.477 202.684 191.077 199.784 195.377C199.784 195.377 206.184 198.877 208.884 194.477Z" fill="#F2EBEB"/>
<path d="M209.184 194.577C207.584 194.177 205.884 193.877 204.184 193.777C202.484 193.677 200.884 194.177 199.684 195.277C199.984 194.377 200.684 193.677 201.484 193.277C202.284 192.877 203.284 192.677 204.184 192.777C205.084 192.777 205.984 192.977 206.884 193.277C207.684 193.577 208.484 193.977 209.184 194.577Z" fill="#000001"/>
<path d="M202.884 193.277C202.884 193.277 204.584 194.077 203.284 196.577C203.284 196.577 198.984 195.777 199.684 195.077C199.784 195.077 201.484 192.977 202.884 193.277Z" fill="#000001"/>
<path d="M208.584 197.177C208.484 197.077 208.284 197.077 208.184 197.077C208.084 197.077 207.984 196.977 207.984 196.977C207.884 196.877 207.784 196.677 207.784 196.177C208.084 195.977 208.384 195.977 208.684 196.177C208.784 196.277 208.884 196.477 208.884 196.577C208.884 196.777 208.784 196.977 208.584 197.177Z" fill="#000001"/>
<path d="M206.784 197.677C206.384 197.577 206.184 197.477 206.084 197.277C205.984 197.077 205.984 196.977 205.984 196.477C206.184 196.377 206.384 196.277 206.584 196.377C206.784 196.377 206.884 196.577 206.984 196.677C207.084 197.077 206.984 197.477 206.784 197.677Z" fill="#000001"/>
<path d="M204.984 204.378C204.384 203.678 203.484 203.478 202.684 203.878C201.384 204.678 203.584 207.878 205.684 207.378C207.784 206.878 204.984 204.378 204.984 204.378Z" fill="#A04040"/>
<path d="M205.284 202.478C205.784 203.578 205.584 204.878 204.684 205.778C204.284 206.178 203.684 206.478 203.084 206.678C202.784 206.778 202.484 206.778 202.184 206.778C201.884 206.778 201.584 206.678 201.384 206.678C201.584 206.578 201.884 206.378 202.084 206.278C202.284 206.178 202.584 206.078 202.784 205.878C203.184 205.678 203.584 205.378 203.884 205.078C204.184 204.778 204.484 204.378 204.684 203.978C204.984 203.378 205.084 202.978 205.284 202.478Z" fill="#000001"/>
<path d="M207.384 190.578C206.984 190.378 206.584 190.178 206.284 190.078C205.984 189.978 205.584 189.878 205.284 189.778C204.884 189.678 204.584 189.678 204.184 189.678C203.784 189.678 203.384 189.678 202.984 189.578C203.584 188.878 204.584 188.578 205.484 188.778C206.384 188.978 207.184 189.678 207.384 190.578Z" fill="#000001"/>
<path d="M246.684 210.078C247.484 210.878 248.184 211.678 248.884 212.578C249.584 213.378 250.284 214.378 250.884 215.278C249.984 213.178 248.684 211.178 247.284 209.678C245.784 207.878 243.984 206.378 241.884 205.378C240.484 204.578 238.884 204.178 237.284 204.078C236.584 203.878 235.884 203.778 235.084 203.878C226.684 204.078 237.084 194.178 227.584 185.778C218.084 177.378 204.984 181.478 204.984 181.478C204.984 181.478 208.084 195.878 217.284 200.878C217.284 200.878 208.884 205.778 210.584 210.678C212.284 215.578 203.884 217.378 204.384 221.278L247.784 215.678C247.784 215.678 245.584 209.578 241.284 206.178H241.384C243.384 207.178 245.184 208.478 246.684 210.078Z" fill="black"/>
<path d="M204.984 181.478C205.384 182.778 205.784 184.078 206.284 185.378C206.784 186.678 207.284 187.978 207.884 189.178C209.084 191.678 210.484 193.978 212.284 195.978C215.784 200.278 221.384 202.378 226.784 201.178C225.484 201.578 224.084 201.878 222.684 201.878C221.284 201.878 219.884 201.678 218.484 201.278C217.084 200.878 215.784 200.178 214.684 199.378C213.484 198.578 212.484 197.578 211.584 196.478C209.784 194.378 208.284 191.878 207.284 189.278C206.184 186.878 205.384 184.178 204.984 181.478Z" fill="#000001"/>
<path d="M209.084 220.577L219.884 221.277L219.584 219.277L209.084 220.577Z" fill="#000001"/>
<path d="M54.7843 344.077C55.2843 344.577 55.6843 345.077 56.0843 345.677L57.2843 347.377C58.0843 348.477 58.8843 349.577 59.7843 350.577C61.4843 352.677 63.2843 354.777 65.1843 356.677C68.8843 360.677 73.3843 363.877 78.2843 366.277C80.7843 367.377 83.3843 368.177 86.0843 368.477C86.7843 368.577 87.3843 368.577 88.0843 368.577C88.6843 368.577 89.3843 368.377 89.9843 368.177C91.1843 367.677 92.3843 366.977 93.3843 366.077C95.4843 364.377 97.3843 362.477 99.2843 360.477C101.184 358.477 102.984 356.477 104.884 354.477C106.784 352.477 108.884 350.677 111.084 348.977C113.284 347.177 115.984 346.077 118.884 345.877C120.384 345.877 121.784 346.177 123.084 346.977C124.284 347.677 125.484 348.577 126.484 349.577C128.484 351.477 130.284 353.577 131.984 355.777C135.384 360.077 138.584 364.577 142.584 368.077C144.584 369.777 146.984 371.177 149.484 371.177C150.784 371.077 151.984 370.777 153.084 370.177C154.284 369.577 155.284 368.777 156.384 367.977C160.484 364.577 163.984 360.277 167.884 356.377C169.784 354.377 171.984 352.577 174.284 350.977C175.484 350.177 176.784 349.477 178.184 349.077C179.684 348.577 181.184 348.477 182.684 348.877C184.084 349.277 185.484 349.877 186.684 350.777C187.784 351.577 188.884 352.577 189.884 353.577C191.784 355.577 193.584 357.677 195.284 359.877C196.984 362.077 198.684 364.177 200.384 366.277C202.084 368.377 203.984 370.277 205.984 371.877C208.084 373.477 210.484 374.477 212.884 373.777C215.384 372.977 217.584 371.577 219.484 369.777C223.484 366.177 226.984 361.977 230.984 358.177C232.984 356.177 235.184 354.377 237.584 352.977C238.884 352.177 240.284 351.777 241.784 351.577C243.284 351.477 244.884 351.777 246.284 352.477C248.784 353.877 251.084 355.677 252.884 357.877C254.784 359.977 256.484 362.077 258.084 364.277C259.684 366.477 261.384 368.577 263.184 370.677C264.884 372.677 266.784 374.477 268.984 375.977C269.984 376.577 271.184 376.977 272.384 377.177C273.584 377.177 274.784 376.977 275.884 376.477C278.184 375.277 280.384 373.677 282.284 371.877C286.184 368.177 289.784 363.977 293.784 360.177C295.784 358.177 298.184 356.577 300.784 355.377C302.184 354.777 303.784 354.677 305.284 354.877C306.784 355.177 308.184 355.777 309.384 356.577C311.684 358.177 313.784 360.177 315.484 362.377C317.284 364.477 318.984 366.677 320.584 368.877C322.184 371.077 323.884 373.177 325.684 375.177C327.384 377.177 329.484 378.777 331.784 379.977C334.084 380.977 336.684 380.277 338.884 378.877C341.184 377.477 343.284 375.777 345.084 373.877C348.984 370.077 352.484 365.877 356.684 362.277C357.784 361.377 358.884 360.477 360.084 359.777C361.284 358.977 362.684 358.477 364.184 358.177C365.684 357.977 367.184 358.177 368.584 358.777C369.884 359.277 371.184 360.077 372.284 360.977C374.384 362.777 376.384 364.777 378.084 366.977C379.884 369.077 381.484 371.277 383.184 373.477C384.784 375.677 386.584 377.777 388.384 379.677C389.284 380.677 390.284 381.477 391.384 382.277C392.384 383.077 393.584 383.577 394.884 383.777C397.484 383.877 400.084 383.177 402.184 381.577C404.384 380.077 406.484 378.277 408.384 376.377C412.284 372.577 415.884 368.377 420.084 364.877C421.184 363.977 422.284 363.177 423.584 362.577C424.884 361.877 426.284 361.577 427.684 361.677C430.484 361.877 433.184 362.677 435.584 364.177C437.884 365.777 439.784 367.777 441.184 370.177C442.584 372.577 443.684 375.077 444.984 377.477C446.084 379.977 447.584 382.277 449.484 384.277C450.484 385.277 451.584 385.977 452.884 386.577C454.184 387.077 455.484 387.377 456.884 387.477C455.484 387.377 454.184 387.177 452.884 386.677C451.584 386.177 450.484 385.377 449.484 384.477C447.584 382.477 445.984 380.177 444.884 377.677C443.684 375.277 442.484 372.777 440.984 370.477C439.584 368.177 437.684 366.177 435.484 364.677C433.184 363.277 430.584 362.477 427.884 362.377C426.584 362.277 425.284 362.577 424.084 363.177C422.884 363.877 421.784 364.577 420.784 365.477C416.684 368.977 413.184 373.277 409.284 377.177C407.384 379.177 405.184 380.977 402.884 382.477C400.584 384.177 397.684 385.077 394.884 384.877C393.484 384.677 392.084 384.077 390.884 383.277C389.784 382.477 388.684 381.577 387.684 380.577C385.784 378.577 383.984 376.477 382.284 374.277C380.584 372.077 378.984 369.977 377.184 367.877C375.484 365.777 373.584 363.877 371.484 362.177C370.484 361.377 369.384 360.677 368.084 360.177C366.884 359.677 365.684 359.577 364.484 359.677C361.984 360.077 359.784 361.777 357.784 363.477C353.784 366.977 350.284 371.277 346.284 375.077C344.284 377.077 342.184 378.877 339.784 380.477C338.484 381.277 337.184 381.777 335.684 382.077C334.184 382.377 332.584 382.177 331.184 381.677C328.584 380.477 326.284 378.677 324.484 376.477C322.584 374.477 320.884 372.277 319.184 370.077C317.484 367.877 315.884 365.777 314.084 363.677C312.384 361.577 310.484 359.777 308.284 358.277C307.284 357.577 306.084 357.077 304.884 356.777C303.684 356.577 302.484 356.777 301.384 357.177C298.984 358.277 296.784 359.777 294.984 361.577C290.984 365.177 287.484 369.477 283.484 373.277C281.484 375.277 279.184 376.977 276.584 378.277C275.184 378.977 273.684 379.277 272.184 379.177C270.684 379.077 269.184 378.577 267.884 377.777C265.484 376.177 263.384 374.277 261.484 372.077C259.684 369.977 257.984 367.777 256.284 365.677C254.584 363.577 252.984 361.377 251.184 359.377C249.484 357.377 247.484 355.677 245.184 354.377C244.084 353.777 242.884 353.577 241.684 353.677C240.484 353.777 239.284 354.177 238.184 354.777C235.884 356.177 233.784 357.777 231.984 359.677C228.084 363.377 224.584 367.677 220.384 371.377C218.284 373.377 215.784 374.877 213.084 375.777C211.584 376.177 209.984 376.177 208.484 375.677C207.084 375.177 205.784 374.477 204.584 373.577C202.384 371.777 200.384 369.877 198.684 367.677C196.884 365.577 195.284 363.377 193.584 361.177C191.984 358.977 190.184 356.977 188.384 354.977C186.584 353.077 184.484 351.277 182.084 350.677C179.684 350.077 177.184 351.077 175.084 352.577C172.884 354.077 170.884 355.877 168.984 357.777C165.084 361.577 161.584 365.777 157.284 369.377C156.184 370.277 154.984 371.077 153.784 371.777C151.184 373.277 147.884 373.277 145.284 371.777C143.984 371.077 142.884 370.277 141.784 369.377C137.584 365.677 134.384 361.077 131.084 356.877C129.484 354.677 127.684 352.677 125.784 350.777C123.884 348.977 121.584 347.277 119.084 347.377C116.484 347.577 113.984 348.577 111.884 350.177C109.684 351.777 107.684 353.577 105.784 355.477C103.884 357.377 101.984 359.377 100.084 361.377C98.1843 363.377 96.1843 365.277 94.0843 366.977C92.9843 367.877 91.7843 368.577 90.4843 369.077C89.7843 369.377 89.0843 369.477 88.3843 369.577C87.6843 369.577 86.9843 369.577 86.2843 369.477C83.5843 369.177 80.8843 368.377 78.3843 367.177C73.4843 364.677 68.9843 361.377 65.2843 357.277C63.3843 355.277 61.5843 353.177 59.9843 351.077C59.1843 349.977 58.2843 348.877 57.5843 347.777L56.3843 346.077C55.6843 345.077 55.2843 344.577 54.7843 344.077Z" fill="black"/>
<path d="M306.784 345.077C309.784 344.677 312.684 344.477 315.684 344.277C318.684 344.077 321.584 344.077 324.584 344.077C327.584 344.077 330.484 344.177 333.484 344.277C336.484 344.377 339.384 344.677 342.384 345.077C339.384 345.477 336.484 345.677 333.484 345.877C330.484 346.077 327.584 346.077 324.584 346.077C321.584 346.077 318.684 345.977 315.684 345.877C312.684 345.777 309.784 345.477 306.784 345.077Z" fill="black"/>
<path d="M318.184 352.577C319.184 352.177 320.184 351.977 321.184 351.777C322.184 351.677 323.184 351.577 324.184 351.577C325.184 351.577 326.184 351.677 327.184 351.777C328.184 351.877 329.184 352.177 330.184 352.577C329.184 352.977 328.184 353.177 327.184 353.377C326.184 353.477 325.184 353.577 324.184 353.577C323.184 353.577 322.184 353.477 321.184 353.377C320.184 353.277 319.084 352.977 318.184 352.577Z" fill="black"/>
<path d="M211.984 333.277C213.884 332.877 215.784 332.677 217.784 332.477C219.684 332.377 221.584 332.277 223.584 332.277C225.584 332.277 227.384 332.377 229.284 332.477C231.184 332.577 233.184 332.877 235.084 333.277C233.184 333.677 231.284 333.977 229.284 334.077C227.384 334.177 225.484 334.277 223.584 334.277C221.684 334.277 219.784 334.177 217.784 334.077C215.784 333.977 213.884 333.677 211.984 333.277Z" fill="black"/>
<path d="M395.484 342.077C397.184 341.677 398.884 341.477 400.684 341.277C402.384 341.177 404.184 341.077 405.884 341.077C407.584 341.077 409.384 341.177 411.084 341.277C412.784 341.377 414.584 341.677 416.284 342.077C414.584 342.477 412.884 342.777 411.084 342.877C409.384 342.977 407.684 343.077 405.884 343.077C404.084 343.077 402.484 342.977 400.684 342.877C398.984 342.677 397.184 342.477 395.484 342.077Z" fill="black"/>
<path d="M406.384 350.078C407.584 349.678 408.784 349.478 409.984 349.278C412.384 348.978 414.784 348.978 417.184 349.278C418.384 349.378 419.584 349.678 420.784 350.078C419.584 350.478 418.384 350.778 417.184 350.878C415.984 350.978 414.784 351.078 413.584 351.078C412.384 351.078 411.184 350.978 409.984 350.878C408.784 350.678 407.584 350.478 406.384 350.078Z" fill="black"/>
<path d="M60.6843 161.878C60.6843 161.878 16.2843 129.078 9.68429 125.378C3.08429 121.678 -0.615707 121.178 0.0842935 123.078C0.784293 124.978 7.78429 129.978 7.78429 129.978C7.78429 129.978 2.18429 134.178 6.18429 134.778C6.18429 134.778 2.08429 136.178 4.28429 139.078C6.48429 141.978 9.78429 143.978 10.4843 142.278C10.4843 142.278 13.1843 146.678 16.1843 148.278C19.1843 149.878 39.9843 168.278 39.9843 168.278L60.6843 161.878Z" fill="#000001"/>
<path d="M132.584 206.078C132.584 206.078 54.1843 150.478 48.2843 149.478C42.3843 148.478 31.7843 163.978 31.7843 163.978L134.884 243.978L132.584 206.078Z" fill="#000001"/>
<path d="M74.6843 271.877C74.6843 271.877 75.0843 200.477 79.9843 197.077C84.8843 193.677 127.084 185.777 134.484 195.577C139.884 202.677 160.884 264.277 160.884 264.277L74.6843 271.877Z" fill="black"/>
<path d="M106.984 153.977C106.984 153.977 96.7843 168.677 97.2843 169.077C97.7843 169.477 99.9843 169.677 99.9843 169.677C99.9843 169.677 93.8843 180.277 91.6843 196.477C91.6843 196.477 108.684 200.277 118.584 195.877C118.584 195.877 131.384 155.877 128.384 153.477C125.384 151.077 106.984 153.977 106.984 153.977Z" fill="#EA8383"/>
<path d="M123.284 163.878C123.284 163.878 118.684 171.278 119.084 172.978C119.484 174.678 125.584 172.178 125.584 172.178C125.584 172.178 132.984 154.278 131.784 151.378C130.584 148.478 88.8843 149.578 91.4843 152.178C94.0843 154.778 106.984 153.878 106.984 153.878L119.084 156.978C118.984 157.078 120.184 162.078 123.284 163.878Z" fill="#A04040"/>
<path d="M125.084 172.377C125.084 172.377 131.884 171.777 131.884 165.977C131.884 160.177 123.484 168.877 123.484 168.877L125.084 172.377Z" fill="#EA8383"/>
<path d="M98.6843 197.577L103.084 206.177L118.584 195.777L91.8843 195.277L83.1843 202.077L98.6843 197.577Z" fill="black"/>
<path d="M114.784 171.378C114.984 171.978 114.984 172.778 114.784 173.378C114.584 174.078 114.184 174.678 113.684 175.078C113.184 175.578 112.384 175.878 111.684 175.978C110.984 175.978 110.284 175.678 109.784 175.178C110.284 174.978 110.884 174.778 111.284 174.478C111.684 174.278 111.984 173.978 112.284 173.678C113.084 173.078 113.684 172.278 114.784 171.378Z" fill="#000001"/>
<path d="M116.984 160.778C116.384 160.878 115.684 160.978 115.084 160.878C114.484 160.878 113.984 160.778 113.384 160.678L111.884 160.378C111.284 160.278 110.784 160.278 110.184 160.378C110.384 159.678 110.884 159.078 111.684 158.878C112.284 158.678 112.984 158.578 113.684 158.778C114.284 158.878 114.984 159.078 115.484 159.378C116.184 159.678 116.684 160.178 116.984 160.778Z" fill="#A04040"/>
<path d="M96.7843 216.178C96.2843 214.678 95.8843 213.078 95.6843 211.478C95.4843 209.878 95.3843 208.278 95.4843 206.678C95.4843 205.078 95.7843 203.378 96.1843 201.778C96.3843 200.978 96.6843 200.178 97.0843 199.378C97.4843 198.578 97.9843 197.978 98.6843 197.478C98.0843 198.878 97.6843 200.378 97.6843 201.978C97.5843 203.478 97.4843 205.078 97.4843 206.678C97.4843 208.278 97.3843 209.778 97.2843 211.378C97.1843 212.978 97.0843 214.578 96.7843 216.178Z" fill="#F2EBEB"/>
<path d="M110.784 168.677C110.784 168.677 115.784 165.777 111.984 162.377C110.684 161.177 62.9843 142.777 62.9843 142.777L65.1843 161.077L110.784 168.677Z" fill="#000001"/>
<path d="M42.9843 163.678C47.9843 166.578 53.9843 167.478 59.5843 165.978C64.4843 164.578 70.0843 161.378 72.3843 153.878C76.9843 139.178 61.7843 128.878 49.8843 129.978C39.0843 131.078 23.3843 152.478 42.9843 163.678Z" fill="black"/>
<path d="M43.5843 163.978C47.4843 166.578 52.3843 167.178 56.6843 165.478C60.6843 163.978 65.1843 160.578 67.3843 153.378C71.6843 139.178 60.0843 129.978 50.4843 131.578C41.8843 132.978 28.4843 154.078 43.5843 163.978Z" fill="#EA8383"/>
<path d="M64.0843 149.178C64.0843 149.178 53.2843 136.778 42.0843 145.778C41.2843 146.378 41.0843 147.578 41.7843 148.378C41.7843 148.478 41.8843 148.478 41.9843 148.578C45.5843 151.778 55.2843 158.578 64.0843 149.178Z" fill="#F2EBEB"/>
<path d="M64.8843 149.478C63.0843 148.178 61.1843 146.978 59.1843 145.978C58.1843 145.478 57.1843 145.078 56.1843 144.678C55.1843 144.278 54.1843 143.978 53.0843 143.778C50.9843 143.378 48.8843 143.378 46.8843 143.878C44.7843 144.478 42.7843 145.378 40.9843 146.778C42.2843 144.778 44.1843 143.178 46.3843 142.378C47.4843 141.978 48.6843 141.678 49.8843 141.578C50.4843 141.478 51.0843 141.478 51.6843 141.578C52.2843 141.578 52.8843 141.678 53.4843 141.778C55.7843 142.278 57.9843 143.178 59.9843 144.578C61.8843 145.878 63.5843 147.578 64.8843 149.478Z" fill="#000001"/>
<path d="M50.8843 142.577C50.8843 142.577 54.1843 145.777 48.3843 152.777C48.3843 152.777 38.8843 148.777 41.2843 146.377C41.3843 146.377 47.6843 140.877 50.8843 142.577Z" fill="#000001"/>
<path d="M88.2843 216.478C88.2843 216.478 90.9843 186.578 93.9843 174.578C96.9843 162.578 96.7843 153.878 94.5843 151.978C92.3843 150.078 91.2843 149.978 91.2843 149.978C91.2843 149.978 87.7843 145.978 85.6843 147.378C85.6843 147.378 83.0843 143.278 79.9843 145.278C79.9843 145.278 72.2843 142.278 72.9843 146.078C73.6843 149.878 70.6843 159.778 67.5843 162.678C64.4843 165.578 56.5843 214.478 59.3843 220.078C62.1843 225.678 88.2843 216.478 88.2843 216.478Z" fill="#EA8383"/>
<path d="M135.884 229.678C135.884 229.678 87.9843 251.178 74.5843 250.378C61.1843 249.578 59.3843 220.178 59.3843 220.178L88.8843 210.378L88.6843 214.878C88.6843 214.878 115.284 188.178 127.684 193.978C140.184 199.778 144.484 225.978 135.884 229.678Z" fill="black"/>
<path d="M91.7843 155.578C91.6843 154.578 91.4843 153.578 91.1843 152.678C90.9843 151.878 90.6843 151.078 90.1843 150.278C89.6843 149.578 89.0843 148.978 88.3843 148.478C87.6843 147.878 86.7843 147.478 85.7843 147.478C86.6843 146.778 87.9843 146.578 89.0843 147.078C90.1843 147.478 91.0843 148.178 91.7843 149.178C92.4843 150.178 92.7843 151.278 92.7843 152.478C92.7843 153.578 92.3843 154.678 91.7843 155.578Z" fill="#000001"/>
<path d="M88.1843 156.377C87.5843 155.077 87.1843 153.877 86.6843 152.577C86.1843 151.277 85.7843 150.077 85.2843 148.977C85.0843 148.377 84.7843 147.877 84.4843 147.377L84.2843 146.977L84.0843 146.677C83.9843 146.577 83.8843 146.477 83.7843 146.377C83.6843 146.277 83.5843 146.177 83.4843 146.077C82.5843 145.277 81.2843 144.877 80.0843 145.177C80.5843 144.577 81.2843 144.277 82.0843 144.277C82.8843 144.277 83.5843 144.377 84.2843 144.777C84.6843 144.977 84.9843 145.077 85.2843 145.377C85.4843 145.477 85.5843 145.677 85.7843 145.777L86.1843 146.177C86.3843 146.477 86.5843 146.777 86.7843 147.077C86.9843 147.377 87.0843 147.677 87.2843 148.077C87.7843 149.377 88.1843 150.777 88.2843 152.177C88.3843 153.677 88.3843 155.077 88.1843 156.377Z" fill="#000001"/>
<path d="M81.5843 154.778C81.2843 153.478 80.9843 152.178 80.7843 150.978C80.5843 149.778 80.1843 148.678 79.7843 147.578C79.6843 147.278 79.5843 147.078 79.3843 146.878C79.2843 146.678 79.0843 146.478 78.9843 146.278C78.7843 146.078 78.6843 145.878 78.4843 145.778L77.6843 145.278C77.1843 144.978 76.6843 144.678 76.0843 144.478C75.4843 144.278 74.8843 144.178 74.2843 144.378C74.7843 143.778 75.4843 143.478 76.1843 143.478C76.8843 143.478 77.5843 143.578 78.2843 143.878C78.5843 143.978 78.9843 144.078 79.2843 144.278C80.2843 144.878 81.1843 145.778 81.5843 146.878C82.0843 148.178 82.3843 149.578 82.3843 150.978C82.2843 152.178 82.0843 153.478 81.5843 154.778Z" fill="#000001"/>
<path d="M132.384 231.278C125.184 235.078 117.784 238.578 110.184 241.778C102.684 244.978 94.8843 247.678 86.8843 249.878C84.8843 250.378 82.8843 250.778 80.7843 251.078C78.6843 251.478 76.5843 251.578 74.4843 251.478L73.6843 251.378L72.8843 251.278C72.5843 251.178 72.3843 251.178 72.0843 251.078L71.2843 250.778C70.2843 250.378 69.2843 249.778 68.3843 249.078C66.6843 247.778 65.2843 246.078 64.2843 244.178C62.2843 240.478 60.8843 236.578 60.2843 232.378C59.9843 230.378 59.6843 228.378 59.4843 226.278C59.2843 224.278 59.2843 222.178 59.2843 220.178C59.5843 224.278 60.1843 228.278 61.1843 232.278C62.0843 236.178 63.4843 239.978 65.5843 243.478C66.5843 245.178 67.8843 246.578 69.4843 247.778C70.1843 248.378 71.0843 248.778 71.8843 249.078L72.4843 249.278C72.6843 249.378 72.9843 249.378 73.1843 249.378L73.8843 249.478H74.5843C76.5843 249.578 78.5843 249.378 80.4843 249.078C82.4843 248.778 84.3843 248.378 86.3843 247.878C90.2843 246.878 94.1843 245.678 98.0843 244.378C101.984 243.078 105.784 241.678 109.584 240.278C117.184 237.378 124.784 234.378 132.384 231.278Z" fill="#000001"/>
<path d="M89.7843 222.777C89.2843 219.677 89.0843 216.677 88.9843 213.577C88.8843 210.477 88.8843 207.377 89.0843 204.277C89.2843 201.177 89.4843 198.077 89.9843 195.077C90.3843 191.977 91.1843 188.977 92.0843 186.077L91.4843 195.277L90.9843 204.477L90.4843 213.677C90.2843 216.677 90.0843 219.777 89.7843 222.777Z" fill="#000001"/>
<path d="M29.5843 122.378C30.5843 122.978 31.5843 123.578 32.4843 124.378C33.3843 125.078 34.1843 125.878 34.9843 126.778C35.7843 127.578 36.4843 128.478 37.0843 129.378C37.7843 130.278 38.3843 131.278 38.7843 132.378C37.7843 131.778 36.7843 131.178 35.8843 130.378C34.9843 129.678 34.1843 128.878 33.3843 127.978C32.5843 127.178 31.8843 126.278 31.2843 125.278C30.6843 124.378 30.0843 123.378 29.5843 122.378Z" fill="black"/>
<path d="M44.2843 127.778C43.7843 127.478 43.2843 127.078 42.9843 126.678C42.6843 126.278 42.3843 125.778 42.1843 125.278C41.9843 124.778 41.8843 124.278 41.7843 123.778C41.6843 123.178 41.7843 122.578 41.8843 121.978C42.3843 122.278 42.8843 122.678 43.1843 123.078C43.8843 123.878 44.2843 124.878 44.3843 125.978C44.4843 126.578 44.3843 127.178 44.2843 127.778Z" fill="black"/>
<path d="M59.4843 136.577C56.8843 134.877 53.7843 134.077 50.7843 134.377C45.9843 134.977 45.6843 136.177 45.6843 136.177C45.6843 136.177 55.3843 134.377 59.4843 136.577Z" fill="#F2EBEB"/>
<path d="M44.5843 136.978C44.5843 136.978 42.8843 137.578 43.1843 138.178C43.4843 138.778 44.5843 136.978 44.5843 136.978Z" fill="#F2EBEB"/>
<path d="M215.884 161.677C218.084 159.377 220.584 157.277 223.184 155.477C224.484 154.577 225.884 153.677 227.184 152.877C228.484 152.077 229.984 151.277 231.484 150.577C237.384 147.677 243.784 146.177 250.384 146.177C253.684 146.177 256.984 146.677 260.084 147.577C261.684 148.077 263.184 148.777 264.584 149.577C265.984 150.477 267.384 151.477 268.484 152.777C270.784 155.277 272.284 158.377 272.784 161.777C273.084 163.477 272.984 165.177 272.584 166.877C272.384 167.877 271.884 168.777 271.284 169.477C271.184 169.577 271.084 169.677 270.884 169.777C270.784 169.877 270.584 169.977 270.384 169.977C270.184 170.077 269.984 170.077 269.784 170.077C269.584 170.077 269.384 170.077 269.184 169.977C268.584 169.777 268.084 169.377 267.784 168.877C267.484 168.477 267.184 167.977 267.084 167.477C266.984 166.977 266.984 166.477 266.984 165.977C267.084 165.077 267.284 164.177 267.684 163.377C268.284 161.777 269.184 160.377 270.184 158.977C272.184 156.377 274.484 153.977 276.984 151.977C282.084 147.877 287.784 144.777 294.084 142.777C300.284 140.777 306.784 139.977 313.184 140.177C319.584 140.477 325.984 141.777 331.984 144.077C328.884 143.177 325.784 142.477 322.684 141.977C319.584 141.477 316.384 141.277 313.184 141.277C306.884 141.277 300.584 142.277 294.584 144.377C288.584 146.477 283.084 149.577 278.184 153.577C275.784 155.577 273.584 157.777 271.784 160.377C270.884 161.577 270.084 162.877 269.584 164.277C269.084 165.677 268.784 167.177 269.484 167.877C269.584 168.077 269.684 168.177 269.884 168.277C269.884 168.277 269.984 168.277 269.984 168.177C270.384 167.677 270.684 167.177 270.784 166.577C271.084 165.177 271.184 163.677 270.984 162.177C270.584 159.177 269.284 156.377 267.184 154.077C266.184 152.977 264.984 151.977 263.684 151.177C262.384 150.377 260.984 149.777 259.484 149.277C257.984 148.777 256.484 148.477 254.984 148.177L252.684 147.877C252.284 147.877 251.884 147.777 251.484 147.777H250.384C244.084 147.577 237.784 148.877 231.984 151.477C230.484 152.077 229.084 152.777 227.684 153.477C226.284 154.177 224.884 155.077 223.584 155.877C222.284 156.677 220.984 157.677 219.684 158.577C218.384 159.577 217.084 160.577 215.884 161.677Z" fill="black"/>
</svg>
