<svg  viewBox="0 0 448 377" fill="none" xmlns="http://www.w3.org/2000/svg">
<path d="M0.799988 30.5C5.79999 30.6 10.7 30.1 15.6 29.2C16.8 28.9 18 28.5 19.1 28C20.2 27.6 21.2 26.8 21.8 25.7C22.2 24.6 22 23.3 21.3 22.4C20.7 21.4 19.8 20.6 18.7 20C17.7 19.4 16.4 19.5 15.5 20.2C14.8 21.1 14.7 22.4 15.1 23.4C16.1 25.6 17.6 27.6 19.5 29.2C23.3 32.3 27.5 35 32 37C36.5 39.1 41.1 40.9 45.9 42.4C50.6 44 55.3 45.5 60 47C69.5 50 79 52.8 88.6 55.4C126.9 65.8 166.2 73.3 205.8 76C225.6 77.4 245.5 77.5 265.3 76.2C285.1 74.9 304.8 71.9 324.1 67.2C343.4 62.5 362.1 55.6 379.9 46.8C398 38 414.6 26.9 429.7 14C414.8 27.2 398.3 38.6 380.5 47.7C362.7 56.8 344 63.8 324.6 68.7C305.3 73.6 285.5 76.7 265.6 78.1C245.7 79.5 225.7 79.4 205.8 78C166 75.1 126.6 67.7 88.3 56.9C78.7 54.2 69.2 51.3 59.7 48.2C55 46.6 50.3 45.1 45.5 43.5C40.8 41.9 36.1 40 31.6 37.8C27 35.7 22.8 33 18.9 29.7C16.9 28.1 15.4 26 14.5 23.6C14.3 23 14.2 22.3 14.2 21.6C14.2 20.9 14.5 20.2 15 19.8C15.5 19.3 16.2 19.1 16.9 19.1C17.6 19.1 18.2 19.3 18.8 19.6C19.9 20.2 20.9 21.2 21.5 22.3C21.9 22.9 22.1 23.5 22.2 24.1C22.4 24.8 22.3 25.4 22 26C21.3 27.1 20.3 28 19.1 28.4C17.9 28.9 16.7 29.3 15.5 29.5C10.8 30.4 5.79999 30.7 0.799988 30.5Z" fill="#000001"/>
<path d="M17.6 90.3008C17.6 90.3008 33 36.8008 37.9 36.8008C42.8 36.8008 79.5 43.9008 80.5 50.3008C81.5 56.7008 68.2 109.001 62.3 107.001C56.4 105.001 50.8 90.4008 43.7 90.2008C36.6 90.0008 16.2 94.8008 17.6 90.3008Z" fill="#E1C692"/>
<path d="M80.5 105.1C80.5 105.1 93.2 54.4004 97.8 54.4004C102.5 54.4004 129.6 59.8004 131.6 62.5004C133.6 65.2004 125.7 117.3 122 117.1C118.3 116.9 107.8 103.6 103.9 103.6C100 103.6 78.1 108.4 80.5 105.1Z" fill="#E1C692"/>
<path d="M141.6 117C141.6 117 146.7 68.2001 150.4 67.8001C154.1 67.4001 185.2 70.8001 187.3 71.9001C189.4 73.0001 189.3 129 186.1 129C182.9 129 166.8 111.1 162.9 112.6C159 114.1 138.2 121.9 141.6 117Z" fill="#E1C692"/>
<path d="M228.1 114.8C228.1 114.8 206.3 128.8 204.6 126C202.9 123.2 208 74.4999 211.6 74.1999C215.2 73.8999 245.5 75.3999 248.3 75.2999C251.1 75.1999 258.9 123.7 256.1 125.1C253.3 126.5 228.1 114.8 228.1 114.8Z" fill="#E1C692"/>
<path d="M447 71.5005C447 71.5005 418.6 23.6005 413.9 24.8005C409.2 26.0005 375.4 42.1005 376.1 48.5005C376.8 54.9005 402.7 102.3 407.9 98.9005C413.1 95.5005 414.9 79.9005 421.7 78.0005C428.5 76.1005 449.4 75.6005 447 71.5005Z" fill="#E1C692"/>
<path d="M380.6 101.2C380.6 101.2 367.7 54.4004 363.1 54.4004C358.5 54.4004 328 61.1004 326.1 63.8004C324.2 66.5004 331.5 115.9 335.2 115.7C338.9 115.5 353 100.3 356.9 100.3C360.8 100.3 383 104.4 380.6 101.2Z" fill="#E1C692"/>
<path d="M316.3 118.9C316.3 118.9 311.2 70.1005 307.5 69.7005C303.8 69.3005 272.7 72.7005 270.5 73.8005C268.3 74.9005 272.6 126.4 275.8 126.4C279 126.4 291 113.101 295 114.501C299 115.901 319.7 123.8 316.3 118.9Z" fill="#E1C692"/>
<path d="M35.4 51.4006C35.4 51.4006 39.1 51.2006 40.1 52.8006C41.1 54.4006 41.8 75.9006 42.7 75.7006C43.6 75.5006 51.3 64.7006 52.8 64.4006C54.3 64.1006 55.4 64.5006 55.4 65.4006C55.4 66.3006 57.2 80.2006 57.2 80.2006C57.2 80.2006 70.6 62.3006 71.6 62.6006C72.6 62.9006 73.9 62.6006 73.8 62.9006C73.7 63.2006 55 86.7006 54.4 86.5006L52.6 86.0006L52.3 69.5006C52.3 69.5006 42.2 81.7006 40.5 82.3006C39.7 82.7006 38.7 82.4006 38.3 81.5006C38.4 81.4006 34.6 51.2006 35.4 51.4006Z" fill="black"/>
<path d="M104.7 67.2002C104.7 67.2002 120.6 70.9002 120.8 71.5002C121 72.1002 120.7 73.6002 119.8 73.8002C118.9 74.0002 108.7 71.0002 108.7 71.0002L106.3 80.0002C106.3 80.0002 113.9 81.6002 113.7 82.4002L113.2 84.2002C113.2 84.2002 105.7 82.2002 105.5 82.8002L102.7 93.3002C102.7 93.3002 114.1 96.1002 114 96.7002C113.9 97.3002 114.1 98.9002 113.1 98.7002C112.1 98.5002 97.3 94.3002 97.3 93.8002C97.3 93.3002 103.4 67.7002 104.7 67.2002Z" fill="black"/>
<path d="M159.1 76.9C159.1 76.9 164.1 76.7 164.1 77.8C164.1 78.9 162.7 103.6 162.7 103.6C162.7 103.6 177.6 103.3 177.6 104.2C177.6 105.1 177.7 106.6 177.7 106.6C177.7 106.6 157.2 106.2 157.2 105C157.2 103.8 159.1 76.9 159.1 76.9Z" fill="black"/>
<path d="M238.1 87.5C238.7 87 239.1 86.4 239.4 85.7C239.6 84.8 234.2 80.2 227.7 81.8C221.2 83.4 217.5 87.2 217.4 96.3C217.3 105.4 223.5 110 230.9 109.7C238.3 109.5 239.9 105.5 239.5 105.1L238.1 103.6C238.1 103.6 236 107.2 230.7 107.1C225.4 107 221.2 102.6 222.3 93.3C223.4 84 233 81.6 238.1 87.5Z" fill="black"/>
<path d="M304.8 90.8004C301.8 82.0004 294.1 79.8004 291.6 80.1004C291.6 80.1004 281.2 79.6004 277.6 91.0004C274 102.4 284.6 109.3 291.8 108.4C299 107.5 307.8 99.7004 304.8 90.8004ZM291.7 104.5C287.1 105.1 280.3 100.1 282.6 92.1004C284.9 84.1004 291.5 84.4004 291.5 84.4004C293.1 84.2004 298 85.8004 300 92.0004C302 98.2004 296.3 103.9 291.7 104.5Z" fill="black"/>
<path d="M339.1 97.4001C339.1 97.4001 331.6 71.2001 331.8 70.5001C332 69.8001 334.9 68.9001 336.4 69.7001C337.9 70.5001 351.1 87.3001 351.1 87.3001C351.1 87.3001 353.4 65.1001 354.6 64.3001C355.8 63.5001 358.6 61.8001 358.9 63.1001C359.2 64.4001 367.9 89.6001 366.3 90.6001C364.7 91.6001 361.9 92.7001 361.5 91.3001C361.1 89.9001 355.8 70.1001 355.8 70.1001C355.8 70.1001 352.8 92.2001 351.9 93.5001C351 94.8001 350.1 94.0001 349.5 93.3001L335 75.1001C335 75.1001 342 96.2001 341.5 97.0001C341 97.8001 339.1 97.4001 339.1 97.4001Z" fill="black"/>
<path d="M392.9 50.9001C392.9 50.9001 406.6 42.1001 407.2 42.4001C407.8 42.7001 408.6 44.0001 408.2 44.7001C407.8 45.4001 398.4 50.7001 398.4 50.7001L403.2 58.7001C403.2 58.7001 409.6 54.3001 410.1 55.0001L411 56.6001C411 56.6001 404.4 60.6001 404.7 61.1001C405 61.6001 410.3 70.5001 410.3 70.5001C410.3 70.5001 420.3 64.2001 420.5 64.7001C420.7 65.2001 422.1 66.2001 421.3 66.7001C420.5 67.2001 407.1 75.0001 406.8 74.6001C406.5 74.2001 392.4 52.2001 392.9 50.9001Z" fill="black"/>
<path d="M202.7 36.8C201.4 35.6 200.2 34.2 199.1 32.8C198 31.4 197 30 196 28.5C195 27 194.1 25.5 193.2 23.9C192.3 22.3 191.5 20.7 190.9 19C192.2 20.2 193.4 21.6 194.5 23C195.6 24.4 196.6 25.8 197.6 27.3C198.6 28.8 199.5 30.3 200.4 31.9C201.3 33.5 202.1 35.1 202.7 36.8Z" fill="#E1C692"/>
<path d="M223 36.8004C222.6 33.8004 222.4 30.8004 222.2 27.7004C222 24.6004 222 21.7004 222 18.6004C222 15.5004 222.1 12.6004 222.2 9.50039C222.3 6.40039 222.6 3.50039 223 0.400391C223.4 3.40039 223.6 6.40039 223.8 9.50039C224 12.6004 224 15.5004 224 18.6004C224 21.7004 223.9 24.6004 223.8 27.7004C223.7 30.8004 223.5 33.8004 223 36.8004Z" fill="#E1C692"/>
<path d="M243.6 36.8006C244.4 35.1006 245.2 33.4006 246.2 31.8006C247.2 30.2006 248.2 28.6006 249.3 27.1006C250.4 25.6006 251.5 24.1006 252.7 22.7006C253.9 21.2006 255.2 19.9006 256.6 18.6006C255.8 20.3006 255 22.0006 254 23.6006C253 25.2006 252 26.8006 250.9 28.3006C249.8 29.8006 248.7 31.3006 247.5 32.7006C246.3 34.1006 245 35.5006 243.6 36.8006Z" fill="#E1C692"/>
<path d="M77.2 202C77.2 202 66 187 66.6 175.6C67.2 164.2 60.1 170.7 58.8 179.4C58.8 179.4 44.9 163.2 42.5 157.8C40.1 152.4 32.5 159.8 46.9 178.2C46.9 178.2 38.9 170 35.7 165.6C32.5 161.2 27.2 164.3 33.7 174.5C37.1 180 40.8 185.3 44.8 190.4C44.8 190.4 35.8 181.7 33.8 177.9C31.8 174.1 26.4 177.6 33.8 189.6C41.2 201.6 57.9 216.3 59.7 218.1C61.5 219.9 77.2 202 77.2 202Z" fill="#EA8383"/>
<path d="M57.7 197.5C56.2 196.6 55 195.2 54.3 193.6C53.6 191.9 53.3 190.1 53.5 188.3C53.8 186.5 54.4 184.8 55.3 183.3C55.8 182.6 56.3 181.9 56.9 181.2C57.5 180.5 58.1 180 58.8 179.5C58.5 180.3 58.1 181.1 57.7 181.8L56.7 184C56.4 184.7 56.2 185.5 55.9 186.2C55.8 186.6 55.7 187 55.6 187.3L55.4 188.4C55.2 189.9 55.3 191.5 55.6 193C56.1 194.6 56.8 196.1 57.7 197.5Z" fill="#000001"/>
<path d="M161.8 271.6C160.8 268.6 77.2 202 77.2 202L58.8 209.1L59.7 218.1C59.7 218.1 141 301.6 147 303.4C153 305.2 161.8 271.6 161.8 271.6Z" fill="#EA8383"/>
<path d="M214.4 291.6L155.3 260.5L130.9 306.6L189 351.2L214.4 291.6Z" fill="#000001"/>
<path d="M370.8 200.9C370.8 200.9 382 185.9 381.4 174.4C380.8 162.9 387.9 169.5 389.2 178.2C389.2 178.2 403.1 162 405.5 156.6C407.9 151.2 415.5 158.6 401.1 177C401.1 177 409.1 168.8 412.3 164.4C415.5 160 420.8 163.1 414.3 173.3C410.9 178.8 407.2 184.1 403.2 189.2C403.2 189.2 412.2 180.5 414.2 176.7C416.2 172.9 421.6 176.5 414.2 188.4C406.8 200.3 390.1 215.1 388.3 216.9C386.5 218.7 370.8 200.9 370.8 200.9Z" fill="#EA8383"/>
<path d="M390.3 196.3C391.2 194.9 391.9 193.4 392.3 191.9C392.7 190.4 392.7 188.9 392.5 187.3L392.3 186.2C392.2 185.8 392.1 185.4 392 185.1C391.8 184.3 391.5 183.6 391.2 182.8L390.2 180.6C389.8 179.9 389.4 179.1 389.1 178.3C389.8 178.8 390.4 179.4 391 180C391.6 180.7 392.1 181.4 392.6 182.1C393.6 183.6 394.2 185.3 394.5 187.1C394.7 188.9 394.5 190.8 393.7 192.4C393.1 194 391.9 195.4 390.3 196.3Z" fill="#000001"/>
<path d="M286.2 270.499C287.2 267.499 370.8 200.899 370.8 200.899L389.2 207.999L388.3 216.999C388.3 216.999 307.1 300.399 301.1 302.199C295.1 303.999 286.2 270.499 286.2 270.499Z" fill="#EA8383"/>
<path d="M179.6 376.5C179.6 376.5 180.4 290.4 221.5 289.7C277.7 288.7 271.6 376.5 271.6 376.5H179.6Z" fill="#000001"/>
<path d="M233.6 264.5V302.3C233.6 302.3 226.4 314.7 223.5 316.4C220.6 318.1 212.5 300 212.5 300L213.8 266L233.6 264.5Z" fill="#EA8383"/>
<path d="M212.8 292.7L233.6 290.5V264.5H212.8V292.7Z" fill="#000001"/>
<path d="M240.1 233.4C240.1 233.4 242.9 227.1 247.2 228.5C251.5 229.9 246.9 245.1 241.2 243.9C235.5 242.7 240.1 233.4 240.1 233.4Z" fill="#EA8383"/>
<path d="M202.7 232.3C202.7 232.3 200.5 226 197 227.4C193.5 228.8 197.2 244 201.8 242.8C206.4 241.6 202.7 232.3 202.7 232.3Z" fill="#EA8383"/>
<path d="M221.9 287C221.9 287 227.6 294 232.3 285.3C239.7 271.6 242 264.5 242.8 235.9C243.2 220.4 245.3 210.1 241 204.5C236.7 198.9 224.1 197.1 224.1 197.1C224.1 197.1 208.9 176.6 195.7 183.3C182.5 190 201.3 210.6 201.3 210.6C201.3 210.6 200.1 229.2 200.9 233.8C200.9 233.9 202.1 296.6 221.9 287Z" fill="#A04040"/>
<path d="M203.7 214.099C203.7 214.099 202.7 226.299 202.7 237.499C202.7 248.699 204.6 248.999 208.8 247.199C213 245.399 215.7 243.099 217.6 243.099L224.1 243.299C227.2 243.699 230.3 244.699 232.9 246.399C236.4 248.499 239.1 249.699 240 247.399C240.9 245.099 241.7 227.699 239.5 221.499C237.3 215.299 235.2 211.499 235.2 207.899C235.2 207.999 213.4 219.399 203.7 214.099Z" fill="#EA8383"/>
<path d="M233.5 252C234 252.5 234.2 253.2 234.1 253.9C234 254.6 233.6 255.2 233 255.7C232.5 256.1 231.8 256.3 231.2 256.4C230.9 256.4 230.6 256.4 230.3 256.3C230 256.2 229.7 256.1 229.4 255.9C229.6 255.7 229.9 255.5 230.1 255.3C230.3 255.1 230.5 255 230.7 254.8C231.1 254.5 231.5 254.3 231.7 254C232.5 253.5 233.1 252.8 233.5 252Z" fill="#000001"/>
<path d="M226.7 224.099C227.2 223.299 227.9 222.599 228.7 222.199C229.5 221.699 230.4 221.399 231.4 221.299C232.4 221.199 233.4 221.399 234.3 221.899C235.2 222.399 235.8 223.199 236.1 224.099C235.4 223.799 234.6 223.499 233.8 223.399C233.1 223.299 232.4 223.299 231.7 223.299C230 223.499 228.5 223.899 226.7 224.099Z" fill="#A04040"/>
<path d="M215 223.2C213.3 222.9 211.9 222.5 210.6 222.4C210 222.3 209.3 222.4 208.7 222.5C208 222.7 207.2 222.9 206.6 223.2C206.8 222.3 207.3 221.5 208.1 221C208.9 220.5 209.9 220.3 210.8 220.4C211.7 220.5 212.5 220.8 213.3 221.3C214 221.8 214.6 222.5 215 223.2Z" fill="#A04040"/>
<path d="M186.1 191.5C187.7 195.7 189.9 199.6 192.7 203.2C195.3 206.7 198.8 209.5 202.8 211.2C204.8 212 206.9 212.5 209.1 212.6C209.6 212.6 210.2 212.6 210.7 212.6C211.2 212.6 211.8 212.6 212.3 212.5C213.4 212.4 214.5 212.2 215.5 212C219.9 211 224.1 209.5 228.1 207.4C224.5 210.2 220.3 212.3 215.9 213.6C211.3 214.9 206.4 214.7 202 213C199.8 212.1 197.8 210.8 196 209.3C194.2 207.8 192.7 206 191.4 204.1C188.9 200.3 187.1 196 186.1 191.5Z" fill="#A04040"/>
<path d="M221.1 231.399L208.9 244.499L224.8 243.099" fill="#EA8383"/>
<path d="M221.1 231.399C220.2 232.599 219.3 233.799 218.4 234.999C217.5 236.199 216.5 237.299 215.6 238.499C214.7 239.699 213.7 240.799 212.7 241.899C211.7 242.999 210.7 244.099 209.7 245.199L208.9 243.499C211.6 243.299 214.2 243.099 216.9 242.999C218.2 242.899 219.6 242.899 220.9 242.899C222.2 242.899 223.6 242.899 224.9 242.999C223.6 243.299 222.3 243.599 220.9 243.799C219.5 243.999 218.3 244.299 216.9 244.399C214.3 244.799 211.6 245.099 208.9 245.299L206.4 245.499L208.1 243.599C209.1 242.499 210.2 241.399 211.2 240.399C212.2 239.399 213.3 238.299 214.4 237.199C215.5 236.099 216.6 235.099 217.7 234.099C218.8 233.099 219.9 232.399 221.1 231.399Z" fill="#000001"/>
<path d="M208.4 229.6C208.7 228.8 209.3 228.2 210.1 227.9C210.9 227.6 211.8 227.6 212.7 227.9C213.5 228.2 214.2 228.7 214.7 229.3C214.9 229.6 215.1 230 215.3 230.3C215.5 230.7 215.6 231 215.6 231.4C215.2 231.3 214.9 231.1 214.5 230.9C214.2 230.7 213.9 230.6 213.6 230.4C213.1 230.1 212.5 229.9 212 229.7C210.8 229.3 209.6 229.3 208.4 229.6Z" fill="#000001"/>
<path d="M234.9 229.8C234.2 229.8 233.4 229.8 232.7 229.8C232.1 229.8 231.5 230 231 230.2C230.4 230.4 229.9 230.7 229.4 231.1L228.5 231.7C228.2 232 227.9 232.2 227.5 232.4C227.5 232 227.6 231.6 227.7 231.2C227.8 230.8 228 230.4 228.2 230.1C228.7 229.3 229.4 228.8 230.2 228.4C231.1 228.1 232 228 232.9 228.3C233.7 228.5 234.4 229.1 234.9 229.8Z" fill="#000001"/>
<path d="M233.6 290.499L292.7 259.399L317.1 305.399L268.3 339.999L233.6 290.499Z" fill="#000001"/>
<path d="M76.2 321.5C73.9 323.4 71.5 325.1 69.1 326.8C66.7 328.5 64.2 330 61.7 331.6C59.2 333.2 56.7 334.6 54.1 336C51.5 337.4 48.9 338.8 46.2 340C48.5 338.1 50.9 336.4 53.3 334.7C55.7 333 58.2 331.5 60.7 329.9C63.2 328.3 65.7 326.9 68.3 325.5C70.9 324.1 73.4 322.7 76.2 321.5Z" fill="#E1C692"/>
<path d="M58.9 296.599C57.2 297.199 55.5 297.699 53.7 298.099C52 298.499 50.2 298.799 48.4 299.099C46.6 299.399 44.8 299.499 43 299.599C41.2 299.699 39.4 299.699 37.6 299.599C39.3 298.999 41 298.499 42.8 298.099C44.6 297.699 46.3 297.399 48.1 297.099C49.9 296.799 51.7 296.699 53.5 296.599C55.3 296.499 57.1 296.499 58.9 296.599Z" fill="#E1C692"/>
<path d="M51.3 269.6C49.3 269.6 47.3 269.4 45.4 269.1C43.5 268.8 41.5 268.5 39.6 268C37.7 267.6 35.8 267.1 33.9 266.5C32 266 30.1 265.3 28.3 264.5C30.3 264.5 32.3 264.7 34.2 265C36.2 265.3 38.1 265.6 40 266.1C41.9 266.6 43.8 267 45.7 267.6C47.6 268.1 49.5 268.8 51.3 269.6Z" fill="#E1C692"/>
<path d="M371.9 318.899C374.6 320.099 377.2 321.399 379.8 322.899C382.4 324.399 384.9 325.799 387.4 327.299C389.9 328.799 392.4 330.399 394.8 332.099C397.2 333.799 399.6 335.499 401.9 337.399C399.2 336.199 396.5 334.899 394 333.399C391.5 331.899 388.9 330.499 386.4 328.999C383.9 327.499 381.4 325.899 379 324.199C376.6 322.499 374.2 320.799 371.9 318.899Z" fill="#E1C692"/>
<path d="M389.2 294.099C391 293.999 392.8 293.999 394.6 294.099C396.4 294.199 398.2 294.399 400 294.599C401.8 294.799 403.5 295.199 405.3 295.599C407.1 295.999 408.8 296.499 410.5 297.099C408.7 297.199 406.9 297.199 405.1 297.099C403.3 296.999 401.5 296.799 399.7 296.599C397.9 296.399 396.2 295.999 394.4 295.599C392.6 295.199 390.9 294.699 389.2 294.099Z" fill="#E1C692"/>
<path d="M396.8 266.999C398.6 266.199 400.5 265.499 402.4 264.999C404.3 264.399 406.2 263.899 408.1 263.499C410 263.099 412 262.699 413.9 262.399C415.9 262.099 417.8 261.899 419.8 261.899C418 262.699 416.1 263.399 414.2 263.899C412.3 264.499 410.4 264.999 408.5 265.399C406.6 265.799 404.6 266.199 402.7 266.399C400.8 266.799 398.8 266.999 396.8 266.999Z" fill="#E1C692"/>
</svg>
