<svg  viewBox="0 0 304 290" xmlns="http://www.w3.org/2000/svg">
<path d="M4.52236 166.334C4.52236 166.334 -4.77572 269.688 3.29286 278.372C11.3614 287.055 128.625 293.126 140.766 288.284C152.907 283.443 153.753 171.79 147.375 164.182C140.997 156.575 8.59507 155.422 4.52236 166.334Z" fill="#A04040"/>
<path d="M134.081 181.164L131.775 181.088V181.011L134.081 181.164Z" fill="#F2EBEB"/>
<path d="M127.088 180.935L122.477 180.781V180.55L127.165 180.781L127.088 180.935Z" fill="#F2EBEB"/>
<path d="M117.867 180.627L113.256 180.473V180.089L117.867 180.319V180.627Z" fill="#F2EBEB"/>
<path d="M108.569 180.32L103.958 180.166V179.628L108.569 179.858V180.32Z" fill="#F2EBEB"/>
<path d="M99.3473 180.012L94.7367 179.935V179.244L99.3473 179.397V180.012Z" fill="#F2EBEB"/>
<path d="M90.0493 179.782L85.4387 179.628L85.5156 178.783L90.1262 179.013L90.0493 179.782Z" fill="#F2EBEB"/>
<path d="M80.8281 179.474L76.1406 179.32L76.2175 178.475L80.8281 178.629V179.474Z" fill="#F2EBEB"/>
<path d="M71.53 179.243L66.9194 179.09V178.091L71.6069 178.321L71.53 179.243Z" fill="#F2EBEB"/>
<path d="M62.3087 179.013L57.6212 178.859L57.6981 177.784L62.3087 177.937V179.013Z" fill="#F2EBEB"/>
<path d="M53.0106 178.782L48.4 178.705V177.553L53.0106 177.63V178.782Z" fill="#F2EBEB"/>
<path d="M43.7125 178.629L39.1019 178.552V177.323L43.7894 177.4L43.7125 178.629Z" fill="#F2EBEB"/>
<path d="M34.4914 178.552L29.8807 178.475V177.169L34.4914 177.246V178.552Z" fill="#F2EBEB"/>
<path d="M25.2701 178.475L20.5826 178.552V177.246L25.1933 177.169L25.2701 178.475Z" fill="#F2EBEB"/>
<path d="M15.9721 178.783C15.2036 178.859 14.512 178.936 13.7436 179.013C13.5899 179.013 13.4362 179.09 13.3594 179.09L13.4362 179.013C13.5131 178.936 13.5131 178.859 13.5131 178.783V179.09L13.3594 180.166L11.9762 180.089L12.1299 178.859V178.552C12.1299 178.398 12.2067 178.322 12.2836 178.245C12.3604 178.168 12.3604 178.091 12.4373 178.091C12.5141 178.014 12.5909 178.014 12.6678 177.937C12.8983 177.86 13.1288 177.784 13.3594 177.707C14.1278 177.553 14.9731 177.476 15.7415 177.399L15.9721 178.783Z" fill="#F2EBEB"/>
<path d="M13.1289 184.853L12.8983 189.464L11.5151 189.387L11.7457 184.7L13.1289 184.853Z" fill="#F2EBEB"/>
<path d="M12.6678 194.074L12.4373 198.685L11.0541 198.608L11.2078 193.998L12.6678 194.074Z" fill="#F2EBEB"/>
<path d="M12.2836 203.295L12.053 207.983L10.593 207.906L10.8236 203.295H12.2836Z" fill="#F2EBEB"/>
<path d="M11.8993 212.593L11.7456 217.204L10.2087 217.127L10.3624 212.517L11.8993 212.593Z" fill="#F2EBEB"/>
<path d="M11.5151 221.815L11.3615 226.426H9.82458L10.0551 221.815H11.5151Z" fill="#F2EBEB"/>
<path d="M11.2078 231.113L11.0541 235.724L9.51721 235.647L9.6709 231.036L11.2078 231.113Z" fill="#F2EBEB"/>
<path d="M10.9004 240.334L10.7467 245.022L9.20984 244.945L9.36352 240.334H10.9004Z" fill="#F2EBEB"/>
<path d="M10.5931 249.633L10.4394 254.243H8.97937L9.13305 249.556L10.5931 249.633Z" fill="#F2EBEB"/>
<path d="M10.2856 258.854L10.2087 263.541L8.82556 263.464L8.90241 258.854H10.2856Z" fill="#F2EBEB"/>
<path d="M10.132 268.152L10.2088 272.762L8.82562 272.839L8.74878 268.152H10.132Z" fill="#F2EBEB"/>
<path d="M12.3604 275.452C13.7436 275.99 15.2036 276.451 16.6637 276.835L16.3563 278.142C14.8194 277.757 13.2825 277.296 11.8225 276.682L12.3604 275.452Z" fill="#F2EBEB"/>
<path d="M21.1205 277.834L25.6543 278.679L25.4238 279.986L20.89 279.14L21.1205 277.834Z" fill="#F2EBEB"/>
<path d="M30.1881 279.448L34.7987 280.139L34.645 281.369L30.0344 280.754L30.1881 279.448Z" fill="#F2EBEB"/>
<path d="M39.4094 280.677L43.9432 281.292L43.8664 282.521L39.2557 281.984L39.4094 280.677Z" fill="#F2EBEB"/>
<path d="M48.5538 281.753L53.1644 282.214L53.0875 283.367L48.4769 282.982L48.5538 281.753Z" fill="#F2EBEB"/>
<path d="M57.775 282.675L62.3856 283.06L62.3087 284.135L57.6981 283.751L57.775 282.675Z" fill="#F2EBEB"/>
<path d="M66.9963 283.443L71.6069 283.828L71.53 284.75L66.9194 284.442L66.9963 283.443Z" fill="#F2EBEB"/>
<path d="M76.2174 284.135L80.9049 284.366L80.828 285.288L76.2174 285.057V284.135Z" fill="#F2EBEB"/>
<path d="M85.5156 284.673L90.1262 284.827V285.595L85.4387 285.442L85.5156 284.673Z" fill="#F2EBEB"/>
<path d="M94.7367 285.058L99.3473 285.211V285.826L94.7367 285.749V285.058Z" fill="#F2EBEB"/>
<path d="M104.035 285.288L108.645 285.364V285.825H104.035V285.288Z" fill="#F2EBEB"/>
<path d="M113.256 285.288L117.943 285.211V285.595L113.256 285.749V285.288Z" fill="#F2EBEB"/>
<path d="M122.554 285.057L127.165 284.75V284.903L122.554 285.287V285.057Z" fill="#F2EBEB"/>
<path d="M131.775 284.212L134.081 283.828L131.775 284.289V284.212Z" fill="#F2EBEB"/>
<path d="M153.829 250.785C153.829 250.785 87.5134 254.704 83.287 249.171C79.0606 243.638 76.6784 204.602 84.5933 203.449C92.5082 202.297 150.986 198.301 154.214 204.294C157.441 210.288 161.13 247.557 153.829 250.785Z" fill="#000001"/>
<path d="M91.3556 223.044C91.3556 223.044 98.6558 221.123 98.9632 228.5C99.2705 235.877 89.0503 234.417 88.3587 230.037C87.6671 225.657 89.5114 223.275 91.3556 223.044Z" fill="#F2EBEB"/>
<path d="M225.217 261.774C216.226 248.173 218.224 230.191 229.059 217.973C237.128 208.829 249.807 199.992 267.558 202.681C312.665 209.52 298.372 269.612 276.625 276.605C260.719 281.676 236.974 279.602 225.217 261.774Z" fill="#E1C692"/>
<path d="M229.52 234.571C229.52 234.571 236.206 189.233 280.775 204.064C315.662 215.744 305.518 268.459 286 276.067C261.718 285.595 229.597 277.834 229.52 234.571Z" fill="#E1C692"/>
<path d="M250.652 204.679C244.351 208.751 239.126 214.361 235.437 220.893C233.67 224.12 232.363 227.655 231.518 231.267C230.75 234.878 230.442 238.567 230.673 242.332C231.057 249.786 233.516 257.009 237.819 263.08C242.199 269.227 247.963 274.222 254.571 277.757C247.578 274.683 241.508 269.919 236.897 263.771C235.744 262.235 234.746 260.621 233.823 258.93C232.901 257.24 232.133 255.472 231.518 253.705C230.212 250.093 229.443 246.251 229.213 242.486C228.982 238.644 229.29 234.801 230.135 231.036C231.057 227.271 232.44 223.736 234.361 220.355C238.357 213.669 243.967 208.29 250.652 204.679Z" fill="#F2EBEB"/>
<path d="M227.445 263.848C228.137 263.464 228.905 263.157 229.674 262.926C230.442 262.696 231.134 262.542 231.902 262.465C232.671 262.388 233.439 262.312 234.208 262.312C234.976 262.312 235.821 262.388 236.59 262.619C235.898 263.003 235.13 263.31 234.361 263.541C233.593 263.772 232.901 263.925 232.133 264.002C231.364 264.079 230.596 264.156 229.828 264.156C228.982 264.156 228.214 264.079 227.445 263.848Z" fill="#F2EBEB"/>
<path d="M222.681 249.479C223.219 249.095 223.757 248.787 224.372 248.557C224.909 248.326 225.524 248.173 226.139 248.019C226.754 247.865 227.368 247.865 227.983 247.865C228.598 247.865 229.29 247.942 229.904 248.096C229.366 248.48 228.829 248.787 228.214 249.018C227.676 249.248 227.061 249.402 226.446 249.556C225.832 249.709 225.217 249.709 224.602 249.709C223.987 249.709 223.373 249.633 222.681 249.479Z" fill="#F2EBEB"/>
<path d="M223.142 233.649C223.603 233.265 224.141 233.035 224.756 232.804C225.832 232.42 226.984 232.266 228.137 232.343C228.752 232.343 229.367 232.497 229.904 232.727C229.443 233.111 228.905 233.342 228.291 233.572C227.753 233.726 227.215 233.88 226.6 233.957C226.062 234.033 225.448 234.033 224.91 234.033C224.295 233.957 223.757 233.88 223.142 233.649Z" fill="#F2EBEB"/>
<path d="M227.445 221.2C227.983 220.893 228.598 220.586 229.29 220.432C229.904 220.278 230.519 220.201 231.134 220.125C231.749 220.048 232.363 220.048 233.055 220.125C233.747 220.201 234.361 220.355 234.976 220.586C234.438 220.893 233.823 221.2 233.132 221.354C232.517 221.508 231.902 221.585 231.288 221.661C230.673 221.738 230.058 221.738 229.367 221.661C228.675 221.585 228.06 221.431 227.445 221.2Z" fill="#F2EBEB"/>
<path d="M260.642 257.086C263.178 255.319 265.099 252.937 266.328 250.094C269.018 250.785 271.246 251.246 271.246 251.246C271.246 251.246 272.937 247.558 272.629 247.174C271.016 246.482 269.325 245.79 267.558 245.329C267.635 244.561 267.712 243.792 267.712 243.024C267.712 233.188 265.637 231.421 269.709 225.35C273.782 219.279 275.857 220.663 277.471 222.353C279.084 224.044 274.32 233.419 274.935 233.649L279.776 235.34C279.776 235.34 287.537 219.356 279.084 216.59C270.632 213.823 259.489 221.047 261.257 234.494C261.641 237.414 261.718 240.411 261.487 243.331L257.568 242.102C256.8 243.331 256.339 244.791 256.185 246.175C256.108 246.866 258.029 247.788 260.565 248.557C259.259 253.321 256.953 256.241 255.34 256.933C252.496 258.162 250.729 258.854 250.575 259.392C250.422 259.93 269.863 265.078 269.863 265.078L271.477 260.237L260.642 257.086Z" fill="#000001"/>
<path d="M223.142 200.452L234.976 190.77C234.976 190.77 230.519 127.912 223.142 122.687C215.765 117.461 145.453 137.133 145.453 137.133L158.056 171.406L204.546 148.045L223.142 200.452Z" fill="#000001"/>
<path d="M187.948 62.9793C187.948 62.9793 186.181 22.5596 186.488 21.2533C186.795 19.9469 192.251 23.4049 193.173 23.7891C194.095 24.1733 194.557 62.9793 194.557 62.9793H187.948Z" fill="#000001"/>
<path d="M142.072 111.16C142.072 111.16 151.294 120.458 157.902 122.456C171.58 126.606 204.393 54.6035 204.469 50.3002C204.546 45.997 194.019 33.3946 192.251 34.7778C190.484 36.161 193.327 40.4643 193.327 40.4643C193.327 40.4643 187.18 37.8516 192.251 45.8433C192.251 45.8433 186.104 41.6938 193.327 54.6803L194.403 63.0563H187.794L187.256 49.5318C187.256 49.5318 182.338 47.9181 183.107 50.4539C183.875 52.9898 186.027 57.6772 186.257 65.8226C186.334 69.7417 158.824 100.095 158.824 100.095L155.366 91.0273L147.221 98.9422L142.072 111.16Z" fill="#EA8383"/>
<path d="M157.134 102.323C159.362 99.2494 161.667 96.3293 163.973 93.4093C166.278 90.4892 168.737 87.646 171.196 84.8028C173.655 81.9596 176.114 79.1164 178.65 76.35C181.186 73.5836 183.722 70.8173 186.411 68.2046C184.183 71.2783 181.877 74.1984 179.572 77.1184C177.267 80.0385 174.808 82.8817 172.349 85.7249C169.89 88.5681 167.431 91.4113 164.895 94.1777C162.359 96.9441 159.823 99.7104 157.134 102.323Z" fill="#000001"/>
<path d="M148.527 98.4045L155.52 91.0275C155.52 91.0275 143.071 48.6098 131.237 53.2973C119.48 57.9079 148.527 98.4045 148.527 98.4045Z" fill="#000001"/>
<path d="M95.6588 135.289L157.902 137.595C157.902 137.595 146.068 61.9036 135.771 53.9119C125.474 45.9202 123.553 46.0739 115.484 55.5256C100.654 72.9691 95.6588 135.289 95.6588 135.289Z" fill="#000001"/>
<path d="M198.245 53.6814C196.862 51.914 195.863 50.1466 194.633 48.4561C194.095 47.6108 193.404 46.9192 192.712 46.2276C192.021 45.536 191.022 45.2286 190.023 45.4592C190.484 45.075 191.022 44.7676 191.636 44.7676C192.251 44.7676 192.866 44.9213 193.404 45.2286C194.403 45.7665 195.248 46.6118 195.94 47.5339C196.554 48.4561 197.092 49.3782 197.477 50.454C197.861 51.5298 198.168 52.6056 198.245 53.6814Z" fill="#000001"/>
<path d="M200.32 50.377C198.706 48.5327 197.477 46.5348 196.093 44.6905C195.402 43.7684 194.71 42.8463 193.942 42.001C193.25 41.0789 192.251 40.4641 191.175 40.1568C191.79 39.9262 192.482 40.0031 193.097 40.2336C193.711 40.4641 194.249 40.7715 194.787 41.1557C195.786 41.9242 196.631 42.8463 197.323 43.8453C198.014 44.8442 198.629 45.92 199.167 46.9959C199.705 47.9948 200.089 49.1475 200.32 50.377Z" fill="#000001"/>
<path d="M190.023 28.5533V32.3186H188.947C188.947 32.3186 188.64 27.0933 188.947 27.0933C189.254 27.0933 190.023 28.5533 190.023 28.5533Z" fill="#E1C692"/>
<path d="M190.023 34.7009V37.2368H188.947C188.947 37.2368 188.64 33.7788 188.947 33.7788C189.254 33.7788 190.023 34.7009 190.023 34.7009Z" fill="#E1C692"/>
<path d="M170.889 12.3394C171.811 12.3394 172.81 12.493 173.732 12.7236C174.654 12.9541 175.499 13.1846 176.421 13.5689C177.267 13.8762 178.189 14.2604 178.957 14.7215C179.803 15.1826 180.648 15.6436 181.339 16.2584C180.417 16.1815 179.418 16.1047 178.496 15.8742C177.574 15.6436 176.729 15.4131 175.807 15.0289C174.961 14.7215 174.039 14.3373 173.271 13.8762C172.426 13.492 171.657 12.9541 170.889 12.3394Z" fill="#E1C692"/>
<path d="M166.816 20.1005C167.969 19.7931 169.044 19.5626 170.197 19.4857C171.35 19.4089 172.502 19.332 173.578 19.332C174.731 19.332 175.883 19.4089 176.959 19.4857C178.112 19.5626 179.265 19.7931 180.34 20.1005C179.188 20.4078 178.112 20.5615 176.959 20.7152C175.807 20.7921 174.654 20.8689 173.578 20.8689C172.502 20.8689 171.273 20.7921 170.197 20.7152C169.044 20.5615 167.892 20.4078 166.816 20.1005Z" fill="#E1C692"/>
<path d="M179.726 25.7873C179.495 26.2484 179.265 26.5557 178.88 26.9399C178.573 27.2473 178.189 27.4779 177.805 27.7084C177.42 27.9389 177.036 28.0926 176.575 28.1694C176.114 28.2463 175.653 28.3231 175.192 28.2463C175.422 27.7852 175.653 27.401 176.037 27.0936C176.345 26.7863 176.729 26.5557 177.113 26.3252C177.497 26.0947 177.881 25.941 178.342 25.8641C178.727 25.7104 179.265 25.7104 179.726 25.7873Z" fill="#E1C692"/>
<path d="M131.929 30.7818C131.929 30.7818 123.399 50.1464 123.323 50.5306C123.246 50.9148 135.08 59.4444 135.08 59.4444L139.998 41.2325C139.998 41.2325 150.602 47.9947 151.37 34.0861C151.37 34.0861 157.595 35.2387 157.287 34.624C156.98 34.0092 151.831 24.2501 148.758 20.0237C145.684 15.7973 127.626 18.4868 127.165 20.869C126.704 23.2511 126.704 30.3976 131.929 30.7818Z" fill="#EA8383"/>
<path d="M134.081 29.4755C134.081 29.4755 132.697 21.2532 130.93 21.4838C129.163 21.7143 127.011 26.786 131.929 30.7818L130.085 34.9314C125.858 31.9345 123.399 27.0165 123.553 21.7911C123.707 12.8773 130.7 8.88141 145.607 11.6478C145.607 11.6478 137.846 2.81077 145.915 0.274933C153.983 -2.26091 160.054 13.492 157.825 16.8731C155.597 20.2543 151.601 21.7911 147.144 21.868C142.687 21.9448 140.612 21.4838 140.382 22.6364C140.151 23.7891 140.843 29.4755 142.687 31.0892C144.531 32.7029 151.294 34.2398 151.294 34.2398C151.294 34.2398 156.749 42.4621 157.595 47.6106C158.44 52.7591 155.366 50.3769 155.366 50.3769C155.366 50.3769 156.673 52.4517 152.446 52.298C148.22 52.1443 135.387 41.4631 134.081 29.4755Z" fill="#A04040"/>
<path d="M141.688 24.1736C141.688 24.1736 148.22 23.0209 149.142 28.7073C149.142 28.7073 142.38 29.7831 141.688 24.1736Z" fill="#F2EBEB"/>
<path d="M141.458 24.0964C142.303 23.8659 143.148 23.7122 143.993 23.789C144.839 23.8659 145.761 24.0196 146.529 24.4038C146.913 24.6343 147.298 24.8648 147.682 25.0954C147.989 25.4027 148.297 25.7101 148.527 26.0943C148.988 26.8628 149.219 27.7081 149.142 28.6302C148.911 27.8617 148.527 27.0933 148.066 26.4786C147.528 25.8638 146.913 25.4027 146.222 25.0954C145.453 24.788 144.685 24.4806 143.917 24.4038C143.071 24.2501 142.226 24.1732 141.458 24.0964Z" fill="#000001"/>
<path d="M147.144 25.1724C147.144 25.1724 145.453 25.3261 145.607 28.4766C145.607 28.4766 148.297 29.3988 149.142 28.6303C149.142 28.6303 148.45 25.4797 147.144 25.1724Z" fill="#000001"/>
<path d="M142.38 33.8555C142.457 34.6239 142.841 35.3155 143.379 35.7766C143.686 36.0071 143.993 36.2376 144.301 36.3913C144.454 36.4681 144.685 36.545 144.839 36.6218C145.069 36.6987 145.223 36.7755 145.377 36.9292C145.146 37.0061 144.916 37.0061 144.685 37.0061C144.454 37.0061 144.224 37.0061 143.993 36.9292C143.532 36.8524 143.148 36.6218 142.764 36.3913C142.38 36.0839 142.149 35.6997 141.995 35.1618C142.072 34.7007 142.149 34.2397 142.38 33.8555Z" fill="#000001"/>
<path d="M157.134 2.58057C157.902 4.19428 158.517 5.88484 158.978 7.65225C159.439 9.41965 159.593 11.1871 159.516 13.0313C159.439 13.9534 159.208 14.8755 158.901 15.7208C158.517 16.5661 157.979 17.3345 157.287 17.9493C156.596 18.4872 155.674 18.9483 154.828 19.1788C153.906 19.3325 153.061 19.4093 152.139 19.3325C153.906 19.2556 155.597 18.6409 156.903 17.5651C158.056 16.3356 158.747 14.645 158.824 12.9544C158.901 11.187 158.824 9.49649 158.517 7.72909C158.363 6.88381 158.209 6.03853 157.979 5.11641C157.748 4.19428 157.364 3.42585 157.134 2.58057Z" fill="#A04040"/>
<path d="M159.977 59.5982C159.977 59.5982 168.891 47.6875 169.121 45.9201C169.352 44.1527 168.43 39.0042 168.43 39.0042C168.43 39.0042 174.961 37.5441 177.267 36.622C179.572 35.6999 182.492 32.4725 180.955 32.7798C179.418 33.0872 167.892 35.0851 166.047 35.9304C164.203 36.7757 155.059 46.7654 151.755 50.9149C148.45 55.0645 133.466 81.345 133.466 81.345L116.637 100.325C116.637 100.325 124.321 118.537 135.848 118.537C143.993 118.537 159.977 59.5982 159.977 59.5982Z" fill="#EA8383"/>
<path d="M126.089 95.2539C127.472 92.257 128.932 89.2601 130.392 86.3401C131.852 83.42 133.466 80.5 135.08 77.5799C136.693 74.6598 138.384 71.8166 140.074 69.0503C141.765 66.2839 143.532 63.4407 145.453 60.6743C144.147 63.6712 142.61 66.6681 141.15 69.5882C139.69 72.5082 138.076 75.4283 136.463 78.3483C134.849 81.2684 133.158 84.1116 131.468 86.878C129.777 89.6443 128.01 92.5644 126.089 95.2539Z" fill="#000001"/>
<path d="M99.0399 135.443C99.0399 135.443 105.495 156.959 113.487 158.265C121.478 159.572 171.196 197.148 171.196 197.148L155.597 275.375H176.191C176.191 275.375 198.706 197.917 198.322 190.77C197.938 183.624 145.453 137.133 145.453 137.133L99.0399 135.443Z" fill="#E1C692"/>
<path d="M213.844 176.938C213.844 176.938 226.37 217.896 228.982 218.357C231.595 218.818 261.026 200.606 261.257 196.918C261.487 193.229 249.961 197.379 247.963 197.071C245.965 196.764 236.744 191.923 236.744 191.923L236.513 173.865L213.844 176.938Z" fill="#000001"/>
<path d="M152.754 285.518C153.368 286.594 186.104 285.518 186.104 283.674C186.104 281.83 178.342 271.763 178.342 271.763L187.487 241.64L162.359 231.728C162.359 231.728 150.295 281.138 152.754 285.518Z" fill="#000001"/>
<path d="M259.412 62.134C262.426 62.134 264.868 59.6913 264.868 56.6781C264.868 53.6649 262.426 51.2222 259.412 51.2222C256.399 51.2222 253.957 53.6649 253.957 56.6781C253.957 59.6913 256.399 62.134 259.412 62.134Z" fill="#F2EBEB"/>
<path d="M73.5278 42.6157C76.7956 42.6157 79.4447 39.9665 79.4447 36.6987C79.4447 33.4308 76.7956 30.7817 73.5278 30.7817C70.2599 30.7817 67.6108 33.4308 67.6108 36.6987C67.6108 39.9665 70.2599 42.6157 73.5278 42.6157Z" fill="#F2EBEB"/>
<path d="M274.166 140.514C278.495 140.514 282.004 137.005 282.004 132.676C282.004 128.348 278.495 124.838 274.166 124.838C269.837 124.838 266.328 128.348 266.328 132.676C266.328 137.005 269.837 140.514 274.166 140.514Z" fill="#F2EBEB"/>
<path d="M31.8786 104.244C34.2552 104.244 36.1818 102.318 36.1818 99.9409C36.1818 97.5643 34.2552 95.6377 31.8786 95.6377C29.5019 95.6377 27.5753 97.5643 27.5753 99.9409C27.5753 102.318 29.5019 104.244 31.8786 104.244Z" fill="#F2EBEB"/>
<path d="M73.5278 136.057C76.541 136.057 78.9837 133.615 78.9837 130.601C78.9837 127.588 76.541 125.146 73.5278 125.146C70.5146 125.146 68.0719 127.588 68.0719 130.601C68.0719 133.615 70.5146 136.057 73.5278 136.057Z" fill="#F2EBEB"/>
</svg>
