<svg viewBox="0 0 286 257" fill="none" xmlns="http://www.w3.org/2000/svg">
<path d="M119.921 240.741L7.8645 230.46C7.8645 230.46 45.1245 84.3183 79.1415 104.19C79.1415 104.19 110.399 149.73 111.296 154.767C112.193 159.804 97.3575 179.4 97.3575 179.4L119.921 240.741Z" fill="#000001"/>
<path d="M72.3104 217.764C72.3104 217.764 119.368 222.111 122.404 221.076C125.44 220.041 136.549 207.552 140.275 206.172C144.001 204.792 172.636 200.307 170.29 202.653C167.944 204.999 161.389 207.414 161.389 207.414C161.389 207.414 163.666 208.863 161.803 211.692C161.803 211.692 164.563 215.349 161.458 217.902C161.458 217.902 163.942 220.662 158.146 222.663C152.35 224.664 147.451 225.147 146.209 229.77C144.967 234.393 137.653 243.708 132.271 243.915C126.889 244.122 65.4104 239.43 65.4104 239.43L72.3104 217.764Z" fill="#EA8383"/>
<path d="M148.141 210.795C150.073 210.174 151.936 209.622 153.868 209.07C155.8 208.518 157.663 207.966 159.526 207.345C160.492 207.069 161.389 206.724 162.355 206.448C163.321 206.172 164.218 205.758 165.115 205.413C166.978 204.723 168.703 203.826 170.29 202.584C169.738 203.412 168.979 204.171 168.151 204.792C167.323 205.413 166.495 205.965 165.529 206.379C163.735 207.276 161.872 208.035 159.94 208.656C158.008 209.277 156.076 209.691 154.075 210.105C152.143 210.519 150.142 210.726 148.141 210.795Z" fill="#000001"/>
<path d="M148.625 215.9C149.591 215.21 150.694 214.658 151.798 214.175C152.902 213.692 154.007 213.278 155.111 212.864C156.284 212.519 157.388 212.243 158.63 212.036C159.251 211.967 159.802 211.898 160.423 211.898C160.699 211.898 161.045 211.898 161.321 211.967C161.666 211.967 161.941 212.105 162.148 212.381C161.872 212.312 161.597 212.312 161.321 212.381C161.045 212.45 160.768 212.519 160.492 212.588C159.94 212.726 159.389 212.933 158.837 213.14C157.733 213.485 156.629 213.899 155.525 214.244C154.421 214.589 153.316 214.934 152.143 215.21C150.97 215.486 149.867 215.693 148.625 215.9Z" fill="#000001"/>
<path d="M150.556 220.317C151.315 219.765 152.143 219.282 153.04 218.868C153.868 218.454 154.765 218.178 155.731 217.902C156.628 217.626 157.594 217.488 158.56 217.35C159.043 217.281 159.526 217.281 160.009 217.35C160.285 217.35 160.492 217.419 160.768 217.488C161.044 217.557 161.251 217.695 161.389 217.902C161.182 217.833 160.906 217.833 160.699 217.833C160.492 217.833 160.216 217.902 160.009 217.971C159.595 218.109 159.112 218.247 158.698 218.385C157.801 218.661 156.973 218.937 156.007 219.213C155.041 219.489 154.213 219.696 153.247 219.903C152.419 220.11 151.522 220.248 150.556 220.317Z" fill="#000001"/>
<path d="M26.4944 171.051C26.4944 171.051 -3.52055 237.36 0.343448 251.712C4.13845 265.857 126.889 243.915 126.889 243.915L122.473 221.145L50.8515 216.384L67.5494 177.192L26.4944 171.051Z" fill="#EA8383"/>
<path d="M94.3214 81.5579C100.945 84.8009 124.888 95.9789 124.888 95.9789C124.888 95.9789 129.373 71.0009 119.575 65.5499C109.777 60.0989 94.3214 81.5579 94.3214 81.5579Z" fill="#000001"/>
<path d="M77.6925 130.755C78.3825 132.204 80.1765 132.825 81.6945 132.135C82.4535 131.79 83.0055 131.1 83.2125 130.272C86.3865 118.68 94.5285 84.1798 101.567 85.8358C114.815 88.9408 127.58 75.2098 127.58 75.2098C127.58 75.2098 139.586 75.5548 140.552 73.2088C141.518 70.8628 134.894 62.9278 131.444 55.1308C127.994 47.3338 127.235 38.1568 119.921 37.1218C112.607 36.0868 117.23 48.0238 109.64 54.0958C105.086 57.8218 99.0825 55.3378 99.0825 55.3378C99.0825 55.3378 100.739 46.9198 90.5265 49.6108C80.3145 52.3018 89.9745 65.9638 88.3875 67.6888C85.0065 71.3458 71.0685 100.05 67.4805 105.018C66.9285 105.846 74.1735 123.372 77.6925 130.755Z" fill="#EA8383"/>
<path d="M110.605 56.9942C110.605 56.9942 123.025 55.6832 124.75 64.7912C124.75 64.7912 111.916 65.8952 110.605 56.9942Z" fill="#F2EBEB"/>
<path d="M110.053 56.7866C111.571 56.4416 113.158 56.3036 114.676 56.4416C116.263 56.5106 117.781 56.8556 119.299 57.4766C120.058 57.7526 120.748 58.1666 121.438 58.5806C122.128 59.0636 122.749 59.5465 123.301 60.1675C124.405 61.3405 125.026 62.9276 124.957 64.5146C124.474 63.1346 123.646 61.8926 122.473 60.9266C121.369 60.0296 120.127 59.2705 118.747 58.7875C117.367 58.2355 115.918 57.8216 114.538 57.5456C113.089 57.2006 111.64 56.9936 110.053 56.7866Z" fill="#000001"/>
<path d="M121.094 59.1328C121.094 59.1328 117.782 59.2018 118.127 64.2388C118.127 64.2388 125.51 65.8948 124.889 64.2388C124.958 64.2388 123.647 59.6848 121.094 59.1328Z" fill="#000001"/>
<path d="M109.225 61.4096C109.087 61.1336 109.156 60.7886 109.294 60.5816C109.432 60.3746 109.639 60.2366 109.846 60.0986C110.053 60.0296 110.329 59.9606 110.536 60.0296C110.812 60.0986 111.019 60.2366 111.226 60.4436C111.088 60.6506 110.95 60.8576 110.812 61.0646C110.674 61.2026 110.536 61.2716 110.398 61.3406C110.26 61.4096 110.122 61.4096 109.915 61.4096C109.777 61.4786 109.57 61.4096 109.225 61.4096Z" fill="#000001"/>
<path d="M111.847 63.6182C111.778 63.3422 111.778 63.0662 111.916 62.7902C111.985 62.5832 112.192 62.3762 112.399 62.2382C112.606 62.1002 112.882 62.0312 113.158 62.0312C113.503 62.0312 113.779 62.1692 113.986 62.4452C113.779 62.7212 113.71 62.9283 113.572 63.0662C113.503 63.2042 113.365 63.3422 113.227 63.4112C113.089 63.4803 112.882 63.6182 112.744 63.6182C112.399 63.6182 112.123 63.6182 111.847 63.6182Z" fill="#000001"/>
<path d="M110.122 75.4855C110.122 75.4855 112.606 74.1745 114.193 76.3135C115.78 78.4525 109.984 82.2475 107.017 79.9015C104.05 77.5555 110.122 75.4855 110.122 75.4855Z" fill="#A04040"/>
<path d="M111.019 72.2432C110.536 73.8992 110.605 75.7622 111.157 77.4182C111.502 78.1772 111.916 78.9362 112.468 79.5572C112.606 79.7642 112.744 79.9022 112.882 80.0402L113.365 80.5232C113.71 80.8682 114.055 81.2132 114.331 81.5582C113.848 81.4202 113.434 81.2822 112.951 81.0752C112.537 80.8682 112.123 80.5922 111.709 80.3162C110.881 79.6952 110.26 78.8672 109.846 77.9012C109.432 76.9352 109.363 75.8312 109.57 74.8652C109.846 73.8302 110.329 72.9332 111.019 72.2432Z" fill="#000001"/>
<path d="M115.781 51.6118C116.264 50.9908 116.954 50.5768 117.713 50.3698C118.472 50.1628 119.3 50.0938 120.128 50.3008C120.887 50.4388 121.646 50.7838 122.267 51.3358C122.543 51.6118 122.819 51.8878 123.095 52.1638C123.302 52.5088 123.509 52.7848 123.716 53.1298C123.302 52.9918 123.026 52.7848 122.681 52.6468C122.336 52.5088 122.06 52.3708 121.715 52.2328C121.094 51.9568 120.473 51.7498 119.852 51.6118C118.472 51.4048 117.092 51.4048 115.781 51.6118Z" fill="#000001"/>
<path d="M125.854 38.5709C125.854 38.5709 111.02 59.6849 92.6655 61.4099C92.6655 61.4099 102.809 75.0029 96.7365 81.8339C90.6645 88.6649 102.946 97.2899 99.4965 103.224L33.1875 64.3769C33.1875 64.3769 48.3675 47.9549 61.8225 54.0959C75.2775 60.2369 65.2035 36.9839 86.3865 30.0149C107.569 23.0459 125.854 38.5709 125.854 38.5709Z" fill="#E1C692"/>
<path d="M28.5645 61.6174C31.4625 58.9264 34.7745 56.6494 38.4315 54.9244C42.0195 53.1304 45.9525 52.0954 50.0235 51.7504C54.0945 51.4744 58.1655 52.4404 61.7535 54.4414C65.2035 56.4424 68.1015 59.3404 70.2405 62.7214L69.2055 61.6174C68.8605 61.2724 68.5845 60.8584 68.2395 60.5134C67.5495 59.8234 66.7905 59.1334 66.0315 58.5124C64.5825 57.2704 62.9265 56.1664 61.2015 55.3384C59.4765 54.4414 57.6825 53.8204 55.7505 53.4754C53.8875 53.0614 51.9555 52.9234 50.0235 53.0614C46.1595 53.3374 42.3645 54.3034 38.8455 55.8214C37.0515 56.5804 35.2575 57.4084 33.5325 58.3744C31.8765 59.4784 30.2205 60.5134 28.5645 61.6174Z" fill="#E1C692"/>
<path d="M125.854 38.5713C123.232 42.7113 120.127 46.5063 116.608 49.8873C113.089 53.3373 109.087 56.2353 104.671 58.4433C102.463 59.5473 100.117 60.3753 97.7024 60.8583C95.2874 61.3413 92.7344 61.4793 90.3194 61.2723C87.8354 60.9963 85.4204 60.3753 83.2124 59.3403L81.5564 58.5123L79.9694 57.5463C79.6934 57.4083 79.4174 57.2703 79.2104 57.0633L78.4514 56.5113L77.0024 55.4073C81.0734 58.0293 85.6964 59.8233 90.3884 60.0993C92.7344 60.2373 95.1494 60.0303 97.4264 59.4783C99.7724 58.9263 101.98 58.0983 104.119 57.0633C108.397 54.9243 112.399 52.1643 115.918 48.9903C117.712 47.4033 119.437 45.6783 121.093 43.9533C122.749 42.2973 124.336 40.4343 125.854 38.5713Z" fill="#000001"/>
<path d="M92.3895 99.0145L74.4495 92.6665L76.2435 89.5615L92.3895 99.0145Z" fill="#000001"/>
<path d="M215.002 237.843C215.002 237.843 262.198 164.841 259.093 164.082C255.988 163.323 199.684 160.977 197.269 162.081C194.854 163.185 154.834 239.844 154.834 239.844L84.1785 245.502C84.1785 245.502 80.4525 250.677 83.5575 251.85C86.6625 253.023 209.689 240.051 215.002 237.843Z" fill="#E1C692"/>
<mask id="mask0_56_4636" style="mask-type:luminance" maskUnits="userSpaceOnUse" x="82" y="161" width="178" height="91">
<path d="M215.002 237.843C215.002 237.843 262.198 164.841 259.093 164.082C255.988 163.323 199.684 160.977 197.269 162.081C194.854 163.185 154.834 239.844 154.834 239.844L84.1785 245.502C84.1785 245.502 80.4525 250.677 83.5575 251.85C86.6625 253.023 209.689 240.051 215.002 237.843Z" fill="white"/>
</mask>
<g mask="url(#mask0_56_4636)">
<path d="M84.4545 213.693L107.017 220.662L129.649 227.7L174.775 241.776L219.832 256.059L242.326 263.235L264.889 270.48L242.257 263.511L219.694 256.473L174.568 242.397L129.511 228.114L106.948 220.938L84.4545 213.693Z" fill="#F2EBEB"/>
<path d="M87.4905 204.31L110.191 210.865L132.823 217.489L178.087 230.668L223.351 244.123L245.914 250.885L268.546 257.716L245.845 251.23L223.213 244.606L177.88 231.358L132.685 217.903L110.122 211.141L87.4905 204.31Z" fill="#F2EBEB"/>
<path d="M90.4575 193.96L113.228 200.308L135.929 206.725L181.262 219.559L226.595 232.669L249.296 239.224L271.928 245.848L249.158 239.569L226.457 233.083L181.124 220.249L135.791 207.139L113.09 200.584L90.4575 193.96Z" fill="#F2EBEB"/>
<path d="M93.2865 183.748L116.056 189.958L138.826 196.237L184.297 208.864L229.7 221.698L252.47 228.115L275.102 234.601L252.331 228.391L229.631 222.112L184.09 209.554L138.688 196.72L115.987 190.303L93.2865 183.748Z" fill="#F2EBEB"/>
<path d="M95.8395 175.261L118.747 180.988L141.586 186.853L187.333 198.514L232.942 210.451L255.781 216.385L278.62 222.457L255.712 216.73L232.873 210.865L187.126 199.204L141.448 187.267L118.609 181.333L95.8395 175.261Z" fill="#F2EBEB"/>
<path d="M98.4614 166.152L121.438 171.741L144.346 177.399L190.093 188.784L235.84 200.445L258.748 206.241L281.587 212.175L258.679 206.586L235.771 200.859L189.955 189.474L144.208 177.882L121.3 172.017L98.4614 166.152Z" fill="#F2EBEB"/>
<path d="M283.451 205.621L260.543 200.101L237.566 194.512L191.75 183.265L145.934 171.811L123.026 166.084L100.187 160.219L123.095 165.739L146.072 171.328L191.888 182.575L237.704 194.029L260.612 199.825L283.451 205.621Z" fill="#F2EBEB"/>
<path d="M102.325 152.836L125.164 158.563L148.072 164.428L193.75 176.089L239.428 187.957L262.267 193.96L285.037 199.963L262.198 194.236L239.29 188.44L193.612 176.779L147.934 164.842L125.095 158.908L102.325 152.836Z" fill="#F2EBEB"/>
<path d="M119.093 268.342L124.406 249.229L129.788 230.047L140.621 191.821L151.661 153.664L157.181 134.551L162.839 115.507L157.526 134.62L152.144 153.802L141.311 192.028L130.271 230.254L124.682 249.298L119.093 268.342Z" fill="#F2EBEB"/>
<path d="M109.846 265.513L115.297 246.676L120.886 227.839L132.064 190.234L143.38 152.629L149.107 133.861L154.903 115.162L149.452 133.999L143.932 152.836L132.685 190.441L121.369 227.977L115.642 246.745L109.846 265.513Z" fill="#F2EBEB"/>
<path d="M99.7035 262.615L103.705 247.918L107.776 233.29L116.056 204.103L124.543 174.916L128.752 160.357L133.099 145.798L129.097 160.426L125.026 175.054L116.746 204.31L108.328 233.428L104.05 248.056L99.7035 262.615Z" fill="#F2EBEB"/>
<path d="M89.7675 259.786L93.6315 245.089L97.5645 230.461L105.568 201.136L113.779 171.88L117.919 157.252L122.059 142.624L118.195 157.321L114.262 172.018L106.258 201.274L98.1165 230.599L93.9765 245.158L89.7675 259.786Z" fill="#F2EBEB"/>
<path d="M81.4185 257.37L84.8685 242.535L88.3875 227.769L95.4945 198.237L102.739 168.705L106.465 153.939L110.191 139.242L106.741 154.008L103.291 168.843L96.1155 198.375L88.8705 227.907L85.2135 242.604L81.4185 257.37Z" fill="#F2EBEB"/>
<path d="M72.4485 254.749L75.7605 239.914L79.1415 225.079L85.9725 195.478L92.9415 165.877L96.4605 151.111L100.117 136.345L96.8055 151.18L93.4935 166.015L86.5935 195.616L79.6245 225.217L76.1055 239.983L72.4485 254.749Z" fill="#F2EBEB"/>
<path d="M93.7004 134.481L90.5264 149.316L87.2144 164.22L80.5214 193.89L73.6904 223.491L70.2404 238.326L66.7214 253.092L69.8954 238.257L73.2074 223.422L79.9004 193.752L86.7314 164.082L90.1814 149.247L93.7004 134.481Z" fill="#F2EBEB"/>
<path d="M59.4075 251.023L62.8575 236.257L66.3765 221.422L73.4835 191.89L80.7975 162.358L84.4545 147.661L88.1805 132.895L84.7995 147.73L81.2805 162.496L74.1735 192.028L66.8595 221.56L63.2025 236.326L59.4075 251.023Z" fill="#F2EBEB"/>
<path d="M154.282 286.35L161.596 262.476L168.979 238.533L183.814 190.785L198.856 143.037L206.377 119.163L213.967 95.3584L206.653 119.301L199.27 143.175L184.435 190.992L169.393 238.671L161.872 262.545L154.282 286.35Z" fill="#F2EBEB"/>
<path d="M145.105 283.384L152.005 259.372L158.974 235.429L172.981 187.474L187.195 139.588L194.302 115.714L201.478 91.7705L194.578 115.783L187.609 139.726L173.602 187.681L159.388 235.498L152.281 259.441L145.105 283.384Z" fill="#F2EBEB"/>
<path d="M134.963 280.417L141.656 256.405L148.487 232.393L162.08 184.369L175.949 136.414L182.849 112.402L189.887 88.459L183.194 112.54L176.363 136.552L162.77 184.576L148.901 232.531L142.001 256.474L134.963 280.417Z" fill="#F2EBEB"/>
<path d="M124.958 277.657L131.582 253.576L138.206 229.564L151.592 181.402L165.185 133.378L171.947 109.297L178.847 85.3535L172.292 109.435L165.599 133.447L152.282 181.609L138.689 229.633L131.858 253.714L124.958 277.657Z" fill="#F2EBEB"/>
<path d="M116.677 275.241L122.749 251.022L129.028 226.803L141.448 178.503L154.145 130.203L160.492 106.053L166.978 81.9033L160.837 106.122L154.627 130.272L142.138 178.641L129.442 226.941L123.094 251.091L116.677 275.241Z" fill="#F2EBEB"/>
<path d="M107.708 272.62L113.711 248.332L119.783 224.113L131.927 175.744L144.347 127.306L150.557 103.156L156.836 79.0059L150.902 103.225L144.761 127.444L132.617 175.882L120.197 224.251L113.987 248.47L107.708 272.62Z" fill="#F2EBEB"/>
<path d="M150.487 77.1426L144.554 101.431L138.551 125.65L126.544 174.157L114.262 222.595L108.191 246.814L101.911 270.964L107.846 246.676L113.849 222.457L125.854 173.95L138.136 125.581L144.277 101.362L150.487 77.1426Z" fill="#F2EBEB"/>
<path d="M94.6665 268.894L100.807 244.675L107.017 220.525L119.507 172.156L132.202 123.856L138.551 99.7057L144.967 75.5557L138.827 99.7747L132.617 123.994L120.128 172.294L107.501 220.594L101.152 244.744L94.6665 268.894Z" fill="#F2EBEB"/>
<path d="M111.157 142.417L129.787 148.213L148.348 154.078L185.47 165.877L222.523 177.883L241.015 183.886L259.576 190.027L240.946 184.231L222.385 178.366L185.263 166.498L148.141 154.561L129.649 148.489L111.157 142.417Z" fill="#F2EBEB"/>
<path d="M114.125 133.032L132.824 138.345L151.523 143.796L188.783 154.767L226.043 165.945L244.604 171.534L263.234 177.261L244.535 171.879L225.836 166.428L188.576 155.457L151.316 144.348L132.755 138.69L114.125 133.032Z" fill="#F2EBEB"/>
<path d="M117.091 122.613L135.859 127.788L154.558 133.032L191.956 143.658L229.285 154.422L247.984 159.873L266.614 165.393L247.846 160.218L229.147 154.974L191.749 144.348L154.42 133.584L135.79 128.133L117.091 122.613Z" fill="#F2EBEB"/>
<path d="M226.663 311.052L233.977 287.109L241.36 263.235L256.195 215.418L271.237 167.67L278.758 143.865L286.348 119.991L279.103 143.934L271.651 167.877L256.885 215.625L241.843 263.373L234.322 287.247L226.663 311.052Z" fill="#F2EBEB"/>
<path d="M217.486 308.017L224.386 284.005L231.355 260.062L245.362 212.107L259.576 164.29L266.683 140.347L273.859 116.473L267.028 140.416L259.99 164.428L246.052 212.314L231.838 260.2L224.731 284.143L217.486 308.017Z" fill="#F2EBEB"/>
<path d="M207.344 305.119L214.037 281.038L220.868 257.026L234.461 209.002L248.33 161.047L255.23 137.104L262.268 113.092L255.575 137.173L248.744 161.185L235.151 209.209L221.282 257.164L214.382 281.176L207.344 305.119Z" fill="#F2EBEB"/>
<path d="M197.407 302.358L203.962 278.277L210.655 254.196L223.972 206.103L237.565 158.01L244.327 133.998L251.227 109.986L244.672 134.067L237.979 158.148L224.662 206.241L211.069 254.334L204.307 278.346L197.407 302.358Z" fill="#F2EBEB"/>
<path d="M189.058 299.875L195.199 275.656L201.409 251.506L213.898 203.137L226.525 154.837L232.873 130.687L239.359 106.537L233.218 130.756L227.008 154.975L214.519 203.344L201.892 251.575L195.475 275.725L189.058 299.875Z" fill="#F2EBEB"/>
<path d="M180.089 297.253L186.092 273.034L192.164 248.815L204.377 200.377L216.728 152.008L222.938 127.789L229.286 103.639L223.283 127.858L217.211 152.077L204.998 200.515L192.647 248.953L186.437 273.103L180.089 297.253Z" fill="#F2EBEB"/>
<path d="M222.868 101.845L217.003 126.064L211 150.283L198.925 198.79L186.712 247.228L180.571 271.447L174.361 295.597L180.226 271.378L186.229 247.09L198.304 198.652L210.517 150.214L216.658 125.995L222.868 101.845Z" fill="#F2EBEB"/>
<path d="M167.116 293.527L173.188 269.308L179.467 245.158L191.887 196.789L204.583 148.489L210.931 124.339L217.348 100.258L211.276 124.477L204.997 148.627L192.577 196.996L179.881 245.296L173.533 269.446L167.116 293.527Z" fill="#F2EBEB"/>
</g>
<path d="M212.312 199.064L203.135 206.033C203.135 206.033 206.792 208.517 211.898 206.516C217.004 204.515 212.312 199.064 212.312 199.064Z" fill="#F2EBEB"/>
<path d="M50.7825 216.315C52.6455 211.071 54.5775 205.827 56.5785 200.652C58.5795 195.477 60.6495 190.302 62.7195 185.127C64.7895 179.952 66.9975 174.846 69.2055 169.74C71.4135 164.634 73.6905 159.528 76.0365 154.491C74.1735 159.735 72.2415 164.979 70.2405 170.154C68.2395 175.329 66.1695 180.504 64.0305 185.679C61.8915 190.854 59.7525 195.96 57.6135 201.066C55.4745 206.172 53.1285 211.278 50.7825 216.315Z" fill="#000001"/>
<path d="M246.259 214.591H278.965L271.789 244.054H254.263L246.259 214.591Z" fill="#F2EBEB"/>
<path d="M271.375 232.461C273.652 232.116 275.86 231.84 277.93 231.357C278.965 231.15 279.931 230.805 280.828 230.391C281.587 230.115 282.208 229.563 282.553 228.873C282.691 228.528 282.691 228.183 282.622 227.838C282.622 227.493 282.484 227.079 282.277 226.734C281.794 225.975 281.104 225.423 280.276 225.147C278.206 224.388 276.136 223.905 273.928 223.698C276.136 222.87 278.62 222.732 280.897 223.284C282.277 223.56 283.45 224.388 284.278 225.492C284.692 226.113 284.968 226.803 285.037 227.562C285.175 228.321 285.106 229.149 284.83 229.839C284.209 231.15 283.036 232.185 281.656 232.668C280.483 233.082 279.31 233.289 278.068 233.358C275.929 233.427 273.583 233.151 271.375 232.461Z" fill="#F2EBEB"/>
<path d="M246.259 214.59C246.259 214.59 276.964 212.796 279.034 214.59C278.965 214.59 262.681 223.284 246.259 214.59Z" fill="#000001"/>
<path d="M263.44 185.403C261.577 186.3 259.852 187.473 258.334 188.922C258.127 189.129 257.989 189.267 257.851 189.474C257.644 189.681 257.506 189.819 257.368 190.026L256.954 190.647L256.609 191.268C256.471 191.475 256.402 191.751 256.333 191.958C256.264 192.165 256.195 192.441 256.057 192.648L255.919 193.338L255.85 193.683C255.85 193.821 255.85 193.89 255.85 194.028C255.781 194.511 255.85 194.994 255.919 195.477L255.988 196.236L256.126 196.995L256.264 197.823L256.333 198.651C256.402 199.203 256.402 199.755 256.333 200.307C256.264 201.411 255.988 202.515 255.505 203.55C255.022 204.516 254.056 205.275 253.021 205.482C253.918 205.068 254.677 204.24 254.953 203.274C255.229 202.308 255.367 201.342 255.298 200.307C255.229 199.272 255.091 198.306 254.884 197.271C254.815 196.995 254.746 196.788 254.746 196.512L254.608 195.684C254.539 195.132 254.47 194.58 254.539 193.959C254.539 193.821 254.539 193.683 254.539 193.545L254.608 193.131L254.746 192.303C254.815 192.027 254.953 191.751 255.022 191.475C255.091 191.199 255.229 190.923 255.367 190.716L255.781 189.957L256.333 189.267C256.471 189.06 256.678 188.853 256.885 188.646C257.092 188.439 257.299 188.232 257.506 188.094C259.3 186.714 261.301 185.817 263.44 185.403Z" fill="#E1C692"/>
<path d="M268.615 188.854C266.752 189.751 265.027 190.924 263.509 192.373C263.302 192.511 263.164 192.718 263.026 192.925C262.888 193.132 262.681 193.27 262.543 193.477L262.129 194.098L261.784 194.719C261.646 194.926 261.577 195.202 261.508 195.409C261.439 195.616 261.37 195.823 261.232 196.099L261.094 196.789L261.025 197.134C261.025 197.272 261.025 197.41 261.025 197.479C260.956 197.962 261.025 198.445 261.094 198.928L261.163 199.618L261.301 200.377L261.439 201.205L261.508 202.033C261.577 202.585 261.577 203.137 261.508 203.689C261.439 204.793 261.163 205.897 260.68 206.932C260.197 207.967 259.231 208.657 258.127 208.864C259.024 208.45 259.783 207.622 260.059 206.656C260.335 205.69 260.473 204.724 260.404 203.689C260.335 202.654 260.197 201.688 259.99 200.653C259.921 200.377 259.921 200.17 259.852 199.894L259.714 199.066C259.645 198.514 259.576 197.962 259.645 197.341C259.645 197.203 259.645 197.065 259.645 196.927L259.714 196.513L259.852 195.685C259.921 195.409 260.059 195.133 260.128 194.857C260.197 194.581 260.335 194.305 260.473 194.098L260.887 193.339L261.439 192.649C261.577 192.442 261.784 192.235 261.991 192.028C262.198 191.821 262.405 191.614 262.612 191.476C264.475 190.165 266.476 189.268 268.615 188.854Z" fill="#E1C692"/>
<path d="M159.319 31.809C159.319 31.809 253.573 27.462 259.507 31.809C265.441 36.156 264.613 118.404 259.507 123.096C254.401 127.788 161.665 127.443 159.319 121.44C156.973 115.437 155.731 33.741 159.319 31.809Z" fill="#F2EBEB"/>
<path d="M174.085 59.4775C174.085 59.4775 171.256 94.6675 172.705 96.8755C174.154 99.0835 204.997 111.78 206.446 111.573C207.895 111.366 208.033 67.9645 208.033 67.9645L174.085 59.4775Z" fill="#EA8383"/>
<path d="M248.053 62.1689L208.102 67.9649L206.515 111.573C206.515 111.573 248.122 103.155 248.26 99.9119C248.398 96.6689 248.053 62.1689 248.053 62.1689Z" fill="#EA8383"/>
<path d="M174.085 59.4777C174.085 59.4777 210.448 51.4047 211.276 51.6807C212.104 51.9567 247.984 62.1687 247.984 62.1687L208.033 67.9647L174.085 59.4777Z" fill="#EA8383"/>
<path d="M184.711 102.948L187.126 62.721L225.49 55.752L235.84 58.719L197.131 65.205L192.508 106.329L184.711 102.948Z" fill="#A04040"/>
<path d="M174.085 59.4775C176.983 60.0295 179.812 60.7195 182.641 61.2715C185.47 61.8235 188.368 62.5135 191.197 63.2035C194.026 63.8935 196.855 64.5145 199.753 65.2045C202.651 65.8945 205.411 66.5845 208.24 67.2745H207.964C211.207 66.7915 214.45 66.3085 217.762 65.8945L227.56 64.5835C230.803 64.1695 234.115 63.7555 237.358 63.3415C240.67 62.9965 243.913 62.5825 247.156 62.3065C243.913 62.9275 240.67 63.4795 237.427 64.1005C234.184 64.7215 230.941 65.2045 227.698 65.6875L217.969 67.2055C214.726 67.6885 211.483 68.1715 208.171 68.6545H208.033L207.895 68.5855C205.066 67.8955 202.237 67.1365 199.408 66.3775C196.579 65.6185 193.75 64.9285 190.921 64.1695C188.092 63.4105 185.263 62.6515 182.503 61.8235C179.743 60.9955 176.914 60.3055 174.085 59.4775Z" fill="#000001"/>
<path d="M206.446 111.573C206.308 107.916 206.308 104.259 206.308 100.671C206.308 97.0828 206.446 93.4258 206.584 89.7688C206.722 86.1118 206.929 82.5238 207.136 78.8668C207.343 75.2098 207.688 71.6218 208.102 67.9648C208.24 71.6218 208.24 75.2788 208.24 78.8668C208.24 82.4548 208.102 86.1118 207.964 89.7688C207.826 93.4258 207.619 97.0138 207.412 100.671C207.205 104.328 206.929 107.916 206.446 111.573Z" fill="#000001"/>
<path d="M211.345 102.258C211.345 101.706 213.829 101.706 213.829 101.706C213.829 101.706 213.967 104.811 212.863 105.087C211.759 105.363 211.345 103.983 211.345 102.258Z" fill="#A04040"/>
<path d="M212.104 108.192C212.242 108.192 213.829 107.916 213.691 107.778C213.553 107.64 212.932 107.571 212.932 107.571L213.07 104.397H212.794V107.502C212.725 107.502 211.69 108.192 212.104 108.192Z" fill="#A04040"/>
<path d="M216.382 103.569L222.661 102.258C222.661 102.258 220.936 100.602 219.349 100.74C217.762 100.878 216.382 103.569 216.382 103.569Z" fill="#A04040"/>
<path d="M219.556 102.189C219.556 102.189 219.901 105.363 219.694 106.122C219.487 106.881 218.383 106.398 218.314 105.639L218.659 105.57C218.659 105.57 219.073 106.122 219.349 105.984C219.625 105.846 219.211 102.603 219.211 102.603L219.556 102.189Z" fill="#A04040"/>
<path d="M227.146 82.8004C227.146 82.8004 227.767 71.2774 227.491 70.3114C227.215 69.3454 211.966 72.2434 211.966 72.2434C212.035 72.8644 211.828 85.9054 211.828 85.9054C213.346 85.9054 227.146 82.8004 227.146 82.8004Z" fill="#F2EBEB"/>
<path d="M219.211 80.7305V83.2145L218.314 83.4215V80.9375L219.211 80.7305Z" fill="#F2EBEB"/>
<path d="M215.416 81.4199V83.9729C214.795 84.1109 214.174 84.2489 213.553 84.2489C213.553 84.1109 213.346 81.8339 213.346 81.8339L215.416 81.4199Z" fill="#F2EBEB"/>
<path d="M216.934 81.1436V83.6966L216.313 83.8346V81.2816L216.934 81.1436Z" fill="#F2EBEB"/>
<path d="M218.107 80.9365V83.4205L217.21 83.6275V81.1435L218.107 80.9365Z" fill="#F2EBEB"/>
<path d="M224.317 79.6953V82.1793L223.42 82.3863V79.9023L224.317 79.6953Z" fill="#F2EBEB"/>
<path d="M225.973 79.5566C226.042 80.3156 226.042 81.0746 225.973 81.7646L224.938 81.9716V79.5566C225.559 79.4876 225.973 79.4876 225.973 79.5566Z" fill="#F2EBEB"/>
<path d="M220.522 80.3848V82.9378C219.901 83.0758 219.28 83.2138 218.659 83.2138C218.659 83.0758 218.452 80.7988 218.452 80.7988C218.452 80.7988 219.349 80.6608 220.522 80.3848Z" fill="#F2EBEB"/>
<path d="M222.04 80.1094V82.6624L221.419 82.8004V80.2474L222.04 80.1094Z" fill="#F2EBEB"/>
<path d="M223.144 79.9023V82.3863L222.247 82.5933V80.1093L223.144 79.9023Z" fill="#F2EBEB"/>
<path d="M213.622 74.796C213.691 74.451 213.829 74.175 213.967 73.899C214.036 73.761 214.174 73.623 214.243 73.485C214.381 73.347 214.588 73.278 214.795 73.209H214.933C215.002 73.209 215.071 73.278 215.14 73.347C215.209 73.416 215.278 73.485 215.278 73.623C215.347 73.761 215.416 73.968 215.416 74.106C215.485 74.451 215.554 74.727 215.623 75.072C215.692 75.693 215.692 76.383 215.692 77.073C215.692 77.418 215.623 77.763 215.554 78.108C215.485 78.315 215.416 78.522 215.278 78.66C215.209 78.798 215.071 78.936 214.933 79.005C214.864 79.074 214.726 79.074 214.588 79.074C214.45 79.074 214.381 79.074 214.243 79.005C214.036 78.936 213.829 78.798 213.76 78.591C213.691 78.453 213.691 78.315 213.691 78.177C213.691 77.97 213.691 77.763 213.76 77.556C213.829 77.211 213.967 76.866 214.105 76.521C214.381 75.9 214.726 75.279 215.209 74.727C215.485 74.382 215.899 74.175 216.313 74.037C216.658 73.968 217.003 74.037 217.279 74.175C217.486 74.313 217.693 74.52 217.831 74.727C218.176 75.348 218.452 76.038 218.59 76.728C218.659 77.142 218.659 77.556 218.59 77.97C218.521 78.315 218.314 78.591 218.038 78.729C217.831 78.867 217.624 78.867 217.417 78.867C217.348 78.867 217.21 78.867 217.141 78.867C217.003 78.798 216.865 78.729 216.727 78.66C216.589 78.522 216.451 78.315 216.451 78.039C216.451 77.901 216.451 77.763 216.451 77.625C216.451 77.418 216.52 77.211 216.589 77.004C216.658 76.659 216.796 76.314 216.934 76.038C217.21 75.348 217.693 74.796 218.176 74.313C218.383 74.175 218.59 74.037 218.797 73.968C219.073 73.83 219.418 73.899 219.694 74.037C219.901 74.175 220.108 74.313 220.246 74.589C220.384 74.727 220.453 74.934 220.522 75.141C220.798 75.831 220.729 76.659 220.453 77.349C220.384 77.556 220.315 77.694 220.177 77.832C220.039 78.039 219.901 78.246 219.694 78.315C219.625 78.315 219.625 78.384 219.556 78.384C219.487 78.384 219.349 78.384 219.28 78.384C219.142 78.315 219.073 78.246 219.004 78.108C218.935 77.97 218.935 77.832 218.935 77.763C218.935 77.556 218.935 77.418 219.004 77.211C219.142 76.521 219.349 75.9 219.694 75.348C219.832 75.072 220.108 74.796 220.453 74.658C220.798 74.52 221.143 74.658 221.35 74.934C221.143 74.727 220.798 74.658 220.522 74.865C220.315 75.072 220.108 75.279 220.039 75.555C219.832 76.107 219.694 76.728 219.694 77.349C219.694 77.487 219.694 77.625 219.694 77.763V77.832C219.694 77.901 219.625 77.694 219.556 77.694C219.487 77.694 219.487 77.694 219.418 77.694H219.349C219.28 77.694 219.418 77.625 219.487 77.487C219.556 77.349 219.556 77.211 219.625 77.142C219.763 76.659 219.763 76.107 219.556 75.624C219.487 75.417 219.211 75.141 219.211 75.21C219.211 75.279 219.28 75.21 219.211 75.21C219.142 75.279 219.073 75.279 219.004 75.348C218.659 75.762 218.314 76.245 218.176 76.728C218.038 77.004 217.969 77.28 217.9 77.487C217.9 77.625 217.831 77.694 217.831 77.832V77.901C217.831 77.901 217.831 77.901 217.762 77.763C217.348 77.418 217.279 77.901 217.348 77.694C217.417 77.487 217.417 77.28 217.348 77.073C217.21 76.521 217.072 75.969 216.727 75.555C216.727 75.486 216.658 75.486 216.658 75.417H216.727C216.52 75.486 216.382 75.624 216.244 75.762C215.83 76.176 215.554 76.659 215.278 77.142C215.14 77.418 215.071 77.625 215.002 77.901C215.002 77.97 214.933 78.108 214.933 78.246C214.933 78.315 214.933 78.315 214.933 78.246C214.864 78.177 214.864 78.177 214.795 78.108C214.726 78.108 214.657 78.108 214.588 78.108C214.657 78.039 214.726 77.901 214.726 77.832C214.795 77.556 214.864 77.28 214.933 77.004C215.071 76.383 215.071 75.762 215.071 75.21C215.071 74.934 215.071 74.589 215.071 74.313C215.071 74.037 214.933 73.692 214.864 73.692C214.795 73.692 214.45 73.83 214.243 74.106C213.967 74.244 213.829 74.52 213.622 74.796Z" fill="#E1C692"/>
<path d="M224.524 105.57V104.259L231.079 102.948L231.01 104.052L224.524 105.57Z" fill="#A04040"/>
<path d="M225.421 103.638L225.49 101.637C225.49 101.637 224.662 101.844 224.8 101.637C224.938 101.43 225.421 100.257 225.835 100.395C226.249 100.533 226.732 101.43 226.732 101.43H226.18L226.249 103.569L225.421 103.638Z" fill="#A04040"/>
<path d="M229.078 102.81L229.147 100.809C229.147 100.809 228.319 101.016 228.457 100.809C228.595 100.602 229.078 99.4289 229.492 99.5669C229.906 99.7049 230.389 100.602 230.389 100.602H229.837L229.906 102.741L229.078 102.81Z" fill="#A04040"/>
<path d="M255.919 11.3162C255.919 11.3162 237.841 8.48725 235.909 28.2212C233.977 47.9552 252.4 50.9222 260.197 46.9893C267.994 43.0562 274.618 36.0182 273.583 24.9782C272.548 13.9382 255.919 11.3162 255.919 11.3162Z" fill="#E1C692"/>
<path d="M246.397 30.3596C247.294 31.3256 248.191 32.3606 249.019 33.3956C249.847 34.4306 250.744 35.3966 251.641 36.2936C251.848 36.5006 252.055 36.6386 252.262 36.8456C252.331 36.9146 252.4 36.9836 252.469 36.9836H252.4C252.331 36.9836 252.262 36.9836 252.193 36.9836C252.055 36.9836 251.917 37.0526 251.779 37.1216V37.0526L251.986 36.7766C252.124 36.5696 252.262 36.2936 252.4 36.0176C253.021 34.9136 253.573 33.7406 254.194 32.5676C255.367 30.2216 256.609 27.8756 257.851 25.5296C259.162 23.1836 260.542 20.9066 262.129 18.7676C261.577 21.3896 260.818 23.9426 259.921 26.4266C259.024 28.9106 257.92 31.3946 256.747 33.8096C256.126 34.9826 255.505 36.1556 254.746 37.3976C254.539 37.6736 254.332 37.9496 254.125 38.2946C253.987 38.4326 253.849 38.6396 253.711 38.7776C253.573 38.9156 253.504 38.9846 253.366 39.0536C253.09 39.2606 252.814 39.3986 252.538 39.3986C252.4 39.3986 252.262 39.3986 252.124 39.3986C251.986 39.3986 251.917 39.3296 251.779 39.3296C251.641 39.2606 251.503 39.1916 251.365 39.1226C251.158 38.9846 250.951 38.8466 250.813 38.7086C250.537 38.4326 250.261 38.1566 250.054 37.8116C249.226 36.7076 248.536 35.5346 247.984 34.2236C247.294 32.9126 246.811 31.6706 246.397 30.3596Z" fill="#F2EBEB"/>
<path d="M255.85 0C255.919 0.552 255.988 1.173 255.919 1.725C255.85 2.277 255.781 2.829 255.574 3.381C255.436 3.933 255.229 4.416 254.953 4.968C254.677 5.52 254.332 6.003 253.987 6.417C253.918 5.865 253.849 5.244 253.918 4.692C253.987 4.14 254.056 3.588 254.263 3.036C254.401 2.484 254.608 2.001 254.884 1.449C255.16 0.897004 255.505 0.414 255.85 0Z" fill="#EA8383"/>
<path d="M239.083 2.13867C239.497 2.55267 239.911 2.96667 240.187 3.44967C240.463 3.93267 240.739 4.41567 240.946 4.89867C241.153 5.38167 241.291 5.93367 241.429 6.48567C241.567 7.03767 241.567 7.65867 241.567 8.21067C241.153 7.79667 240.739 7.38267 240.463 6.89967C240.187 6.41667 239.911 5.93367 239.704 5.38167C239.497 4.89867 239.359 4.34667 239.221 3.79467C239.083 3.31167 239.014 2.69067 239.083 2.13867Z" fill="#EA8383"/>
<path d="M232.183 16.7671C231.562 16.7671 231.01 16.6291 230.389 16.4221C229.837 16.2151 229.285 16.0081 228.802 15.7321C228.319 15.4561 227.836 15.1111 227.353 14.7661C226.87 14.4211 226.456 13.9381 226.111 13.4551C226.732 13.4551 227.353 13.5931 227.905 13.8001C228.457 14.0071 229.009 14.2141 229.492 14.4901C229.975 14.7661 230.458 15.1111 230.941 15.4561C231.355 15.8011 231.769 16.2841 232.183 16.7671Z" fill="#EA8383"/>
</svg>
