<svg viewBox="0 0 350 370" xmlns="http://www.w3.org/2000/svg">
<path d="M121.034 188.899C121.034 188.899 183.852 251.717 183.852 256.059V369.999H60.6966C60.6966 369.999 58.836 253.578 60.6966 251.185C62.5572 248.793 121.034 188.899 121.034 188.899Z" fill="#F2EBEB"/>
<path d="M336.777 248.616L288.401 188.899H121.034L183.852 256.059L336.777 248.616Z" fill="#EA8383"/>
<path d="M136.846 189.821L136.198 190.425L197.098 255.755L197.746 255.151L136.846 189.821Z" fill="#F2EBEB"/>
<path d="M157.17 188.625L156.507 189.212L214.63 254.792L215.293 254.204L157.17 188.625Z" fill="#F2EBEB"/>
<path d="M176.037 188.943L175.389 189.547L235.262 253.776L235.91 253.172L176.037 188.943Z" fill="#F2EBEB"/>
<path d="M196.343 187.784L195.68 188.372L252.921 252.957L253.584 252.369L196.343 187.784Z" fill="#F2EBEB"/>
<path d="M215.561 188.064L214.913 188.668L273.517 251.535L274.165 250.931L215.561 188.064Z" fill="#F2EBEB"/>
<path d="M237.278 188.484L236.615 189.071L291.564 251.07L292.227 250.483L237.278 188.484Z" fill="#F2EBEB"/>
<path d="M257.233 188.66L256.578 189.258L312.148 250.093L312.802 249.495L257.233 188.66Z" fill="#F2EBEB"/>
<path d="M275.698 188.73L275.044 189.328L329.87 249.289L330.524 248.691L275.698 188.73Z" fill="#F2EBEB"/>
<path d="M183.852 370V256.059L336.777 248.616V367.342L183.852 370Z" fill="#F2EBEB"/>
<path d="M183.852 370C183.675 360.52 183.498 351.039 183.409 341.559L183.143 313.118L183.055 284.677C183.055 275.197 182.966 265.717 183.055 256.236L183.32 256.768L167.638 239.934L159.841 231.517L152.044 223.011L136.539 206.088C131.4 200.418 126.261 194.747 121.122 189.077C126.527 194.57 131.755 200.063 137.071 205.556L152.93 222.213L160.904 230.542L168.79 238.87L184.561 255.616L184.827 255.882V256.236C184.915 265.717 184.827 275.197 184.827 284.677L184.738 313.118L184.472 341.559C184.118 350.951 184.029 360.52 183.852 370Z" fill="#000001"/>
<path d="M300.097 97.9945C290.262 95.5136 216.723 76.553 214.419 85.7675C212.647 93.0328 194.839 184.823 187.219 224.074H280.339C291.768 175.786 306.83 99.6779 300.097 97.9945Z" fill="#E1C692"/>
<path d="M282.642 101.715C279.718 100.475 233.557 91.3486 233.557 91.3486C226.292 97.6393 223.28 95.3357 220.001 97.2849C216.723 99.2341 192.624 223.984 192.624 223.984L192.889 224.073H273.871C283.971 186.329 297.527 114.739 297.527 114.739C283.706 112.17 285.566 102.867 282.642 101.715Z" fill="#F2EBEB"/>
<path d="M241.177 194.569C241.177 194.569 213.179 192.354 220.356 164.445C226.026 142.56 258.72 146.636 264.213 158.243C271.124 172.685 267.669 192.709 241.177 194.569Z" fill="#E1C692"/>
<path d="M248.62 178.798C248.442 179.153 251.986 180.659 251.986 180.659C251.986 180.659 258.188 174.546 253.847 168.078C249.506 161.61 242.949 166.306 240.025 171.267C237.101 176.229 232.228 171.356 234 168.787C235.064 167.28 236.038 165.686 236.924 164.002L234.443 162.762C234.443 162.762 228.684 168.875 231.874 173.217C235.064 177.558 238.962 178.178 242.772 173.128C246.582 168.078 254.556 167.015 248.62 178.798Z" fill="#F2EBEB"/>
<path d="M253.121 172.448L252.554 174.772L256.859 175.821L257.425 173.496L253.121 172.448Z" fill="#F2EBEB"/>
<path d="M227.733 166.264L227.167 168.588L231.729 169.699L232.295 167.375L227.733 166.264Z" fill="#F2EBEB"/>
<path d="M253.404 139.46C252.429 138.928 243.924 133.878 243.126 129.625C242.949 128.65 243.215 127.676 243.835 126.967C245.164 125.461 247.29 124.84 249.771 125.283C249.328 123.866 249.328 122.448 249.771 121.031C250.037 120.145 250.834 119.524 251.809 119.524C251.277 117.132 251.72 115.36 253.138 114.651C254.999 113.765 258.011 113.322 258.809 114.651C259.074 115.094 259.34 115.98 257.923 117.132L256.859 115.714L257.037 115.626C255.973 115.626 254.91 115.803 254.024 116.335C253.315 116.689 253.492 118.107 253.581 118.461C253.67 118.904 253.758 119.347 253.935 119.79C256.505 120.499 257.923 122.005 257.834 123.334C257.745 124.22 257.037 124.929 256.062 124.929H255.973C254.556 124.929 253.315 123.157 252.518 121.296H252.252C251.809 121.208 251.72 121.385 251.632 121.474C251.189 122.094 251.277 123.954 251.898 125.815C253.758 126.435 255.53 127.587 255.885 129.005C256.062 129.713 255.796 130.334 255.176 130.777C254.467 131.308 253.492 131.308 252.784 130.688C251.72 129.713 250.923 128.562 250.48 127.233C248.708 126.79 246.493 126.79 245.253 128.207C244.987 128.562 244.81 129.005 244.898 129.448C245.43 132.371 251.809 136.624 254.29 138.042L253.404 139.46ZM252.961 128.207C253.492 129.005 253.847 129.359 254.024 129.359L254.113 129.27C254.024 129.093 253.67 128.65 252.961 128.207ZM254.822 122.094C255.176 122.714 255.619 123.068 255.796 123.068C255.619 122.714 255.265 122.36 254.822 122.094Z" fill="#000001"/>
<path d="M233.38 223.453C232.937 223.453 232.494 223.276 232.14 223.01C231.077 222.036 230.279 220.884 229.836 219.555C227.976 219.112 225.849 219.112 224.609 220.529L223.28 219.378C224.609 217.871 226.735 217.251 229.216 217.606C228.773 216.188 228.773 214.77 229.216 213.353C229.482 212.467 230.279 211.847 231.254 211.847C230.722 209.454 231.165 207.682 232.583 206.974C234.443 206.088 237.367 205.645 238.253 206.974C238.519 207.417 238.785 208.303 237.367 209.454L236.304 208.037L236.481 207.948C235.418 207.948 234.355 208.125 233.469 208.657C232.76 209.011 232.937 210.429 233.026 210.783C233.114 211.226 233.203 211.669 233.38 212.112C235.95 212.821 237.367 214.327 237.279 215.656C237.19 216.542 236.481 217.251 235.507 217.251C234.089 217.34 232.849 215.479 232.051 213.619H231.785C231.342 213.53 231.254 213.707 231.165 213.796C230.722 214.416 230.811 216.277 231.431 218.137C233.292 218.757 235.064 219.909 235.418 221.327C235.595 222.036 235.241 222.656 234.709 223.099C234.178 223.276 233.823 223.453 233.38 223.453ZM232.317 220.529C232.849 221.327 233.203 221.681 233.38 221.681C233.38 221.681 233.38 221.593 233.469 221.593C233.469 221.416 233.114 220.973 232.317 220.529ZM234.178 214.416C234.532 215.036 234.975 215.391 235.152 215.391C234.975 215.036 234.709 214.682 234.178 214.416Z" fill="#000001"/>
<path d="M322.158 108.981C320.918 109.246 319.589 109.335 318.348 109.424C317.108 109.424 315.779 109.424 314.539 109.335C313.298 109.246 311.969 109.069 310.729 108.892C309.488 108.715 308.159 108.36 307.008 107.917C308.248 107.652 309.577 107.563 310.906 107.474C313.475 107.386 316.045 107.563 318.526 108.006C319.678 108.183 321.007 108.538 322.158 108.981Z" fill="#E1C692"/>
<path d="M324.639 97.2856C323.31 98.0831 321.804 98.7033 320.386 99.2349C318.969 99.7665 317.462 100.298 315.956 100.741C314.45 101.184 312.944 101.538 311.438 101.893C309.931 102.247 308.337 102.425 306.83 102.513C308.159 101.716 309.666 101.095 311.083 100.564C312.501 100.032 314.007 99.5007 315.513 99.0577C317.019 98.6147 318.526 98.2603 320.032 97.9058C321.538 97.64 323.044 97.3742 324.639 97.2856Z" fill="#E1C692"/>
<path d="M305.501 94.805C305.679 94.1848 305.944 93.6532 306.299 93.1215C306.919 92.1469 307.805 91.3495 308.78 90.7293C309.311 90.3749 309.931 90.1091 310.463 90.0205C310.286 90.6407 310.02 91.1723 309.666 91.7039C309.311 92.2355 308.957 92.6785 308.602 93.0329C308.159 93.4759 307.716 93.8304 307.273 94.0962C306.742 94.4506 306.122 94.7164 305.501 94.805Z" fill="#E1C692"/>
<path d="M286.629 224.073C278.124 224.427 269.529 224.693 261.024 224.782C252.518 224.959 243.924 224.959 235.418 224.959C226.912 224.959 218.318 224.87 209.812 224.782C201.307 224.693 192.712 224.427 184.207 224.073C192.712 223.719 201.307 223.541 209.812 223.364C218.318 223.187 226.912 223.187 235.418 223.187C243.924 223.187 252.518 223.276 261.024 223.364C269.529 223.453 278.124 223.719 286.629 224.073Z" fill="#000001"/>
<path d="M176.853 43.5043C176.853 43.5043 189.877 39.4287 191.56 48.909C193.244 58.3893 175.258 80.7167 165.955 76.4639C156.652 72.211 154.348 69.4644 154.348 69.4644C154.348 69.4644 145.577 67.338 142.21 64.237C138.843 61.1359 139.197 41.6437 148.412 32.6064C157.626 23.5691 177.207 21.7971 176.853 43.5043Z" fill="#E1C692"/>
<path d="M146.019 54.6681C145.931 51.1241 146.462 47.58 147.791 44.2132C148.412 42.5298 149.386 40.9349 150.538 39.6059C151.69 38.1883 153.196 37.1251 154.88 36.5049C153.373 37.3909 152.133 38.6313 151.07 39.9603L150.361 41.0235L149.741 42.1754C149.563 42.5298 149.298 42.9728 149.209 43.3272C149.032 43.6816 148.855 44.1246 148.677 44.479C148.057 46.0738 147.526 47.7572 147.083 49.4406C146.64 51.2127 146.285 52.9847 146.019 54.6681Z" fill="#F2EBEB"/>
<path d="M179.333 39.2523C179.333 39.2523 188.193 31.0124 198.648 39.4295C198.648 39.4295 191.649 49.1756 179.333 39.2523Z" fill="#000001"/>
<path d="M174.549 46.1629C176.41 43.2391 178.447 40.4038 180.485 37.6572C182.612 34.9106 184.827 32.2525 187.13 29.6831C185.27 32.6069 183.232 35.4422 181.194 38.1888C179.156 40.9354 176.941 43.5935 174.549 46.1629Z" fill="#000001"/>
<path d="M326.145 23.1266C326.145 23.1266 293.452 3.5458 290.085 3.1028C286.718 2.65979 224.697 10.3681 226.469 13.3805C228.241 16.393 247.822 37.1256 254.644 38.1002C261.467 39.0748 330.93 25.9619 326.145 23.1266Z" fill="#000001"/>
<path d="M300.806 22.4173L299.122 42.1753L256.416 43.4157L254.024 23.9235C254.024 23.9235 278.567 6.91207 300.806 22.4173Z" fill="#000001"/>
<path d="M299.122 42.1751C299.122 42.1751 294.338 47.9342 277.415 47.4025C260.492 46.8709 256.416 43.4155 256.416 43.4155C256.416 43.4155 285.035 27.5559 299.122 42.1751Z" fill="#E1C692"/>
<path d="M300.805 22.4174C297.173 20.4682 293.363 18.962 289.376 18.076C285.389 17.1014 281.313 16.747 277.326 16.9242C275.288 17.0128 273.25 17.19 271.301 17.633C270.327 17.8102 269.352 18.076 268.289 18.2532C267.846 18.3418 267.314 18.519 266.871 18.6962C266.428 18.8734 265.896 18.962 265.365 19.1392C261.466 20.4682 257.657 22.063 254.113 24.1008C257.391 21.5314 261.023 19.405 264.922 17.8988C268.82 16.304 272.985 15.4179 277.237 15.2407C281.49 15.0635 285.655 15.5952 289.73 16.8356C293.717 17.8988 297.438 19.848 300.805 22.4174Z" fill="#F2EBEB"/>
<path d="M305.501 11.0764C307.539 10.3676 309.754 9.83594 311.881 9.48154C314.096 9.12713 316.311 8.94993 318.526 9.12713C320.741 9.21574 323.044 9.74734 325.082 10.6334C327.209 11.5194 329.069 12.937 330.487 14.7976C333.411 18.5188 334.119 23.3033 334.208 27.6448C334.385 31.9862 335.094 36.2391 336.335 40.4033C336.955 42.4411 337.841 44.3903 338.815 46.251C339.79 48.1116 341.119 49.7064 342.714 51.0354C343.423 51.6556 344.309 52.0986 345.283 52.453C345.726 52.5416 346.081 52.5416 346.524 52.453C346.878 52.3644 347.144 52.0986 347.321 51.8328C347.41 51.6556 347.498 51.4784 347.587 51.3012C347.675 51.124 347.675 50.8582 347.675 50.681C347.675 50.238 347.587 49.8836 347.41 49.5292C346.878 48.7318 346.081 48.2002 345.195 47.8458C343.245 47.137 341.119 47.137 339.258 47.8458C337.309 48.6432 335.892 50.238 335.36 52.2758C334.917 54.4023 334.917 56.5287 335.449 58.6551C335.98 60.7815 336.689 62.8194 337.575 64.8572C336.512 62.908 335.626 60.8701 335.006 58.7437C334.297 56.6173 334.119 54.3137 334.562 52.0986C335.006 49.7064 336.6 47.7572 338.815 46.7826C341.03 45.808 343.423 45.7194 345.726 46.5168C346.967 46.8712 348.03 47.6686 348.739 48.7318C349.093 49.352 349.27 49.9722 349.27 50.681C349.27 51.3898 349.093 52.01 348.739 52.6302C348.384 53.2505 347.764 53.7821 347.055 53.9593C346.346 54.1365 345.726 54.1365 345.017 53.9593C343.866 53.6935 342.714 53.0732 341.739 52.3644C339.967 50.8582 338.461 49.0862 337.309 47.0484C336.157 45.0992 335.271 42.9727 334.562 40.8463C333.322 36.5935 332.613 32.252 332.436 27.822C332.436 26.6701 332.347 25.6069 332.259 24.5437C332.17 23.4805 331.993 22.4173 331.727 21.4427C331.284 19.4049 330.398 17.4556 329.246 15.6836C328.626 14.8862 327.917 14.0888 327.031 13.4686C326.234 12.8484 325.348 12.2282 324.373 11.7852C322.424 10.8992 320.386 10.2789 318.171 10.1017C314.096 9.57014 309.754 9.92454 305.501 11.0764Z" fill="#E1C692"/>
<path d="M343.423 70.3502C343.511 69.73 337.221 58.6549 335.803 60.0725C334.385 61.4901 334.828 72.5652 336.866 71.5906C338.904 70.616 342.98 72.831 343.423 70.3502Z" fill="#E1C692"/>
<path d="M22.5982 144.687C22.5982 144.687 28.4458 122.625 31.6355 115.891C34.8251 109.158 67.0759 83.0203 72.1261 81.2483C77.1764 79.4762 96.0484 79.8306 99.6811 84.1721C103.314 88.5135 116.249 100.032 116.781 104.107C117.313 108.183 113.237 111.638 113.237 111.638C113.237 111.638 16.3961 198.645 13.3837 197.227C10.3712 195.809 -0.260907 179.684 0.00489637 175.52C0.2707 171.356 22.5982 144.687 22.5982 144.687Z" fill="#E1C692"/>
<path d="M35.0022 135.118C35.0022 135.118 79.4799 99.7662 78.8597 97.4626C78.2395 95.159 68.0504 89.5771 64.9494 91.4377C61.8483 93.2984 40.0525 111.55 37.7488 114.74C35.4452 117.929 33.5846 136.181 35.0022 135.118Z" fill="#000001"/>
<path d="M21.4463 173.925C21.4463 173.925 16.7505 182.608 26.0536 190.317C35.2681 197.936 43.508 188.633 42.8878 180.571C42.2676 172.508 28.3572 162.673 21.4463 173.925Z" fill="#000001"/>
<path d="M92.1501 113.411C92.1501 113.411 87.4542 122.094 96.7573 129.714C106.06 137.333 114.212 128.03 113.68 119.967C113.149 111.905 98.9724 102.07 92.1501 113.411Z" fill="#000001"/>
<path d="M72.5691 138.751C70.2655 136.802 68.0504 134.676 65.924 132.549C63.7976 130.423 61.6712 128.208 59.6333 125.993C57.5955 123.778 55.5577 121.474 53.6085 119.17C51.6592 116.867 49.7986 114.474 47.938 111.994C50.2416 113.943 52.4566 116.069 54.5831 118.196C56.7095 120.322 58.8359 122.537 60.8737 124.752C62.9116 126.967 64.9494 129.271 66.8986 131.574C68.9364 133.878 70.7971 136.27 72.5691 138.751Z" fill="#000001"/>
<path d="M65.4811 74.7805C66.7215 70.6162 68.3163 66.5406 70.2655 62.6421C72.1262 58.7437 74.3412 54.9338 76.822 51.3012C81.7837 44.1245 87.9857 37.6566 95.6054 33.2266C99.4153 30.923 103.491 29.2395 107.744 28.1763C112.085 27.0245 116.515 26.6701 120.945 27.3789C123.16 27.7333 125.375 28.4421 127.325 29.5053C129.451 30.5686 131.223 32.0748 132.463 34.1126C132.818 34.6442 132.995 35.2644 133.172 35.8846C133.261 36.239 133.261 36.682 133.172 37.0364C133.084 37.4794 132.818 37.8338 132.552 38.1882C131.932 38.7198 131.223 38.8971 130.426 38.8971C129.805 38.8971 129.097 38.8084 128.565 38.5426C127.325 38.0996 126.35 37.125 125.818 35.8846C125.375 34.7328 125.11 33.581 125.198 32.3406C125.287 30.0369 125.907 27.8219 126.882 25.7841C127.768 23.7463 128.919 21.7971 130.248 20.025C132.818 16.481 136.007 13.2913 139.463 10.5447C141.235 9.2157 143.007 7.97529 144.868 6.82347C146.728 5.67166 148.677 4.60845 150.715 3.72244C154.791 2.03902 159.132 0.975808 163.474 0.444201C172.157 -0.53041 181.017 0.0897947 189.523 2.39342C193.775 3.45663 197.851 5.05145 201.749 7.17788C203.699 8.24109 205.471 9.48151 207.066 10.8991C208.749 12.3167 210.078 14.0888 210.964 16.1266C209.989 14.1774 208.66 12.4939 206.888 11.1649C205.205 9.83591 203.433 8.5955 201.484 7.62088C197.585 5.67166 193.51 4.25404 189.345 3.27943C180.928 1.24161 172.245 0.798604 163.651 1.86182C159.398 2.39342 155.234 3.54524 151.335 5.22866C149.386 6.11467 147.526 7.08928 145.754 8.24109C143.893 9.39291 142.121 10.5447 140.438 11.8737C137.071 14.5318 134.058 17.5442 131.577 20.9996C130.337 22.6831 129.274 24.5437 128.476 26.4929C127.59 28.3535 127.147 30.3913 127.059 32.4292C127.059 33.4038 127.147 34.3784 127.502 35.2644C127.856 36.0618 128.476 36.682 129.274 37.0364C130.071 37.3908 131.223 37.3908 131.489 37.0364C131.666 36.8592 131.755 36.5048 131.666 36.3276C131.577 35.8846 131.4 35.5302 131.223 35.0872C130.071 33.4038 128.565 32.0748 126.704 31.1888C124.844 30.2141 122.895 29.5939 120.768 29.2395C116.604 28.6193 112.262 28.8851 108.187 29.9483C106.149 30.4799 104.111 31.1888 102.073 31.9862C101.099 32.3406 100.124 32.8722 99.1495 33.2266C98.1749 33.581 97.2003 34.2012 96.3142 34.7328C88.8718 38.9856 82.5811 45.1877 77.5308 52.1872C72.392 58.9209 68.4049 66.6292 65.4811 74.7805Z" fill="#E1C692"/>
</svg>
