<svg viewBox="0 0 288 223" xmlns="http://www.w3.org/2000/svg">
<path d="M119.234 172.369C119.234 172.369 207.342 174.106 207.901 179.07C208.273 181.925 208.087 184.779 207.466 187.571C207.466 187.571 182.585 207.302 174.829 207.923C167.073 208.543 93.4225 202.773 94.1051 199.546C94.7876 196.32 115.636 172.99 119.234 172.369Z" fill="#F2EBEB"/>
<path d="M100.558 196.878C105.398 197.188 110.176 197.561 114.953 197.871L129.348 198.988L158.138 201.408C162.916 201.842 167.756 202.276 172.534 202.648C173.154 202.711 173.712 202.711 174.333 202.773C174.457 202.773 174.581 202.773 174.643 202.773C174.767 202.773 174.891 202.711 175.015 202.648C175.264 202.524 175.512 202.462 175.76 202.338C176.815 201.78 177.808 201.159 178.8 200.539C180.786 199.236 182.771 197.871 184.757 196.444C188.666 193.652 192.513 190.735 196.36 187.819C200.207 184.903 203.992 181.987 207.839 179.07C204.178 182.235 200.455 185.275 196.732 188.315C193.009 191.356 189.162 194.334 185.315 197.25C183.392 198.677 181.406 200.104 179.421 201.47C178.428 202.152 177.373 202.773 176.256 203.393C175.946 203.517 175.698 203.703 175.388 203.765C175.202 203.827 175.077 203.889 174.891 203.951C174.705 204.014 174.519 204.014 174.333 204.014C173.712 204.014 173.092 203.951 172.471 203.889C167.632 203.579 162.854 203.145 158.076 202.773C148.459 201.904 138.904 201.035 129.286 200.105L114.953 198.615C110.113 197.995 105.336 197.498 100.558 196.878Z" fill="#000001"/>
<path d="M118.304 191.542C123.143 191.666 127.921 191.852 132.761 192.162C137.601 192.411 142.378 192.783 147.156 193.155C151.934 193.528 156.773 193.962 161.551 194.396C166.329 194.831 171.168 195.389 175.946 196.009C171.106 195.885 166.329 195.637 161.489 195.389C156.649 195.141 151.872 194.768 147.094 194.396C142.316 194.024 137.476 193.59 132.699 193.155C127.921 192.721 123.081 192.162 118.304 191.542Z" fill="#000001"/>
<path d="M120.599 185.585C125.998 185.709 131.334 185.895 136.67 186.143C142.006 186.392 147.342 186.702 152.678 187.074C158.014 187.446 163.35 187.819 168.686 188.253C174.023 188.687 179.359 189.184 184.695 189.804C179.297 189.68 173.96 189.494 168.624 189.246C163.288 188.998 157.952 188.687 152.616 188.315C147.28 187.943 141.944 187.57 136.608 187.136C131.272 186.702 125.935 186.143 120.599 185.585Z" fill="#000001"/>
<path d="M193.382 183.724C187.611 183.6 181.779 183.413 176.008 183.165C170.238 182.917 164.405 182.607 158.635 182.234C152.864 181.862 147.094 181.49 141.261 181.056C135.429 180.621 129.721 180.125 123.95 179.566C129.721 179.691 135.553 179.877 141.323 180.125C147.094 180.373 152.926 180.683 158.697 181.056C164.467 181.428 170.238 181.8 176.07 182.234C181.903 182.669 187.673 183.165 193.382 183.724Z" fill="#000001"/>
<path d="M160 197.746C161.799 195.947 163.723 194.272 165.646 192.596C167.57 190.921 169.493 189.308 171.479 187.695C173.464 186.081 175.45 184.53 177.497 183.041C179.545 181.552 181.592 180.063 183.702 178.636C181.903 180.435 179.979 182.11 178.118 183.786C176.256 185.461 174.271 187.074 172.285 188.687C170.3 190.301 168.314 191.852 166.267 193.341C164.219 194.83 162.171 196.319 160 197.746Z" fill="#000001"/>
<path d="M139.648 195.389C141.261 193.651 142.999 192.038 144.736 190.425C146.473 188.812 148.273 187.26 150.072 185.709C151.872 184.158 153.733 182.669 155.594 181.242C157.456 179.815 159.379 178.325 161.303 177.022C159.69 178.76 157.952 180.373 156.215 181.986C154.478 183.6 152.678 185.151 150.879 186.702C149.079 188.253 147.218 189.742 145.357 191.169C143.495 192.596 141.634 194.086 139.648 195.389Z" fill="#000001"/>
<path d="M204.364 138.491C204.364 138.491 210.879 145.875 209.886 149.722C208.893 153.569 200.827 157.788 199.338 157.788C197.849 157.788 173.03 155.803 174.581 153.755C176.132 151.707 185.812 146.557 185.812 146.557L182.461 140.042L204.364 138.491Z" fill="#000001"/>
<path d="M187.797 146.682C189.472 146.62 191.086 146.682 192.699 146.806C194.312 146.93 195.925 147.116 197.601 147.302C199.276 147.488 200.827 147.736 202.44 148.047C204.054 148.357 205.667 148.729 207.218 149.163C205.543 149.226 203.93 149.163 202.316 149.039C200.703 148.915 199.09 148.729 197.415 148.543C195.739 148.357 194.188 148.109 192.575 147.798C190.962 147.55 189.348 147.178 187.797 146.682Z" fill="#F2EBEB"/>
<path d="M248.542 61.7998C248.542 61.7998 251.024 64.7781 250.217 73.775C249.411 82.772 235.45 130.114 234.643 133.403C233.837 136.691 227.26 138.305 227.26 138.305L248.542 61.7998Z" fill="#000001"/>
<path d="M146.163 139.732C143.185 138.677 141.448 135.575 142.192 132.534C145.667 117.395 159.193 60.1245 161.799 59.8143C164.84 59.5041 244.819 59.504 248.542 61.7998C252.265 64.0956 232.472 134.148 228.128 138.491C224.343 142.214 163.909 145.688 146.163 139.732Z" fill="#F2EBEB"/>
<path d="M145.915 125.586L230.238 126.33C230.238 126.33 248.232 67.3226 246.743 64.9028C245.253 62.4829 165.212 60.1251 162.854 62.4829C160.496 64.8407 145.915 125.586 145.915 125.586Z" fill="#000001"/>
<path d="M182.647 131.294C182.647 131.294 180.91 131.666 180.91 133.031C180.91 134.396 182.709 135.141 184.261 134.21C185.812 133.279 184.819 131.294 182.647 131.294Z" fill="#E1C692"/>
<path d="M221.489 206.496C221.489 206.496 214.106 199.547 223.165 192.474C232.223 185.4 240.724 185.71 243.64 189.681C246.557 193.652 237.498 215.245 221.489 206.496Z" fill="#F2EBEB"/>
<path d="M234.147 193.527C234.147 192.659 234.395 191.728 234.829 190.984C235.264 190.239 235.822 189.556 236.443 188.998C237.125 188.44 237.932 188.005 238.8 187.757C239.731 187.509 240.662 187.633 241.531 188.005L239.669 189.494C239.111 189.991 238.614 190.425 238.056 190.859C237.497 191.294 236.939 191.79 236.319 192.224C235.574 192.721 234.891 193.155 234.147 193.527Z" fill="#E1C692"/>
<path d="M220.993 205.13C223.164 205.751 225.398 205.875 227.632 205.441C228.687 205.192 229.742 204.882 230.734 204.386C231.727 203.889 232.658 203.331 233.464 202.586C233.899 202.276 234.333 201.904 234.705 201.532C235.078 201.159 235.512 200.787 235.884 200.353C236.691 199.546 237.373 198.677 238.118 197.871C239.545 196.133 240.91 194.334 242.213 192.473C241.344 194.582 240.228 196.63 238.863 198.491C237.56 200.415 235.946 202.152 234.147 203.579C233.216 204.324 232.223 204.944 231.107 205.441C229.99 205.937 228.873 206.247 227.694 206.371C225.398 206.744 223.04 206.247 220.993 205.13Z" fill="#F2EBEB"/>
<path d="M158.759 125.832L213.423 126.453C213.796 122.047 213.92 117.642 213.734 113.175C213.734 113.175 224.902 124.157 233.03 121.427C241.159 118.697 261.51 87.5488 261.51 87.5488C261.51 87.5488 256.795 76.132 253.692 77.1248C250.59 78.1175 231.169 90.5892 231.169 90.5892C231.169 90.5892 214.044 57.89 198.78 64.0947L188.604 65.2116C188.604 65.2116 182.461 60.6821 173.34 66.1423C164.219 71.6025 135.739 108.893 142.875 118.014C150.01 127.197 160.993 115.967 160.993 115.967L158.759 125.832Z" fill="#EA8383"/>
<path d="M261.262 86.9289C261.262 86.9289 267.343 81.903 269.018 81.1585C270.693 80.4139 287.695 80.4759 287.26 78.7386C286.826 77.0013 280.559 77.0633 280.559 77.0633C280.559 77.0633 287.943 77.1254 285.399 74.7675C282.855 72.4097 276.092 73.1543 276.092 73.1543C276.092 73.1543 284.034 71.7272 278.76 70.3001C273.486 68.873 266.164 70.3001 266.164 70.3001C266.164 70.3001 267.901 64.3435 266.35 64.5297C264.799 64.7158 256.857 76.1946 255.057 77.2495L261.262 86.9289Z" fill="#A04040"/>
<path d="M276.898 77.1256C277.767 76.8154 278.698 76.6292 279.628 76.5051C280.559 76.381 281.49 76.3811 282.42 76.4431C283.351 76.5052 284.344 76.6292 285.213 76.8774C285.709 77.0015 286.143 77.2497 286.578 77.4979C286.826 77.622 287.012 77.8081 287.136 78.0563C287.26 78.3045 287.322 78.5527 287.26 78.8009C287.136 78.3045 286.764 78.1804 286.329 78.0563C285.895 77.9322 285.461 77.8702 285.026 77.8702C284.158 77.8082 283.227 77.7461 282.358 77.6841C281.49 77.622 280.559 77.56 279.628 77.4979C278.698 77.3738 277.767 77.3118 276.898 77.1256Z" fill="#000001"/>
<path d="M271.996 73.5268C273.175 73.1545 274.354 72.8443 275.533 72.7202C276.712 72.534 277.953 72.472 279.132 72.534C280.373 72.534 281.614 72.7201 282.793 73.0924C283.413 73.2786 283.972 73.5268 284.53 73.837C285.089 74.1473 285.523 74.6436 285.771 75.2021C285.337 74.8298 284.84 74.5195 284.282 74.3334C283.724 74.1472 283.165 74.0232 282.607 73.9611C281.49 73.837 280.311 73.775 279.132 73.7129C276.774 73.6509 274.416 73.7129 271.996 73.5268Z" fill="#000001"/>
<path d="M268.46 71.417C269.266 71.479 270.073 71.7272 270.818 72.0995C271.562 72.4718 272.245 72.9682 272.803 73.5266C273.424 74.1471 273.858 74.8917 274.106 75.7603C274.354 76.567 274.292 77.4356 273.92 78.2422C273.796 77.4977 273.548 76.8152 273.175 76.1326C272.803 75.5122 272.369 74.9537 271.872 74.4573C271.376 73.8989 270.818 73.4025 270.259 72.9682L268.46 71.417Z" fill="#000001"/>
<path d="M207.839 108.025L213.733 112.617C215.719 114.106 217.704 115.595 219.752 117.022C220.745 117.705 221.8 118.387 222.854 119.008C223.909 119.628 224.964 120.249 226.081 120.745C227.198 121.304 228.315 121.676 229.494 121.924C230.672 122.172 231.913 122.048 233.03 121.428C232.038 122.234 230.734 122.607 229.431 122.483C228.128 122.358 226.888 122.11 225.709 121.614C223.351 120.683 221.117 119.442 219.07 118.015C217.022 116.588 215.036 115.037 213.175 113.362C211.251 111.686 209.514 109.887 207.839 108.025Z" fill="#000001"/>
<path d="M200.952 67.0113C200.952 67.0113 181.841 99.7725 179.421 99.2762C177.001 98.7798 188.728 65.2119 188.728 65.2119L200.952 67.0113Z" fill="#F2EBEB"/>
<path d="M195.057 27.3631C205.853 25.0052 217.394 39.5244 214.974 51.0653C212.555 62.6062 203.061 61.9237 196.298 60.3725C189.535 58.8213 182.71 35.4913 182.71 35.4913C182.71 35.4913 178.987 34.1883 181.034 30.8377C182.151 28.9143 184.509 28.0456 186.619 28.7281C187.797 28.0456 189.1 27.4872 190.403 27.0528C195.864 25.0052 195.057 27.3631 195.057 27.3631Z" fill="#000001"/>
<path d="M194.188 44.9846C194.188 44.9846 194.188 38.8418 197.973 41.8822C201.758 44.9225 195.119 48.8315 195.491 49.8243C196.236 51.996 201.076 63.7851 200.952 67.0115C200.952 67.3838 193.816 74.6434 189.225 74.8296C187.984 74.8916 187.735 72.9061 188.294 66.0188C188.542 62.7923 187.301 63.4748 182.523 60.3724C175.822 56.0911 177.994 48.5213 177.994 48.5213C177.994 48.5213 170.921 45.543 170.921 44.4261C170.921 43.3093 176.939 39.1521 179.855 36.5461C182.71 33.9401 188.046 31.21 188.046 31.21C188.046 31.21 187.487 34.3744 189.659 35.4913C189.659 35.4913 189.225 39.028 191.582 39.4623C191.582 39.4623 191.024 42.8749 193.134 42.6888C193.134 42.6267 193.01 44.8605 194.188 44.9846Z" fill="#A04040"/>
<path d="M187.984 50.9412C187.549 50.3828 186.743 50.1966 186.122 50.5069C185.067 51.1274 186.805 53.7334 188.48 53.3611C190.155 52.9888 187.984 50.9412 187.984 50.9412Z" fill="#EA8383"/>
<path d="M188.232 49.4521C188.542 49.8865 188.604 50.3829 188.542 50.8792C188.48 51.3756 188.232 51.872 187.86 52.2443C187.487 52.6166 186.991 52.8648 186.494 52.9268C186.246 52.9268 185.998 52.9268 185.75 52.9268C185.502 52.8648 185.254 52.8027 185.067 52.7407C185.254 52.6166 185.44 52.4925 185.626 52.3684C185.812 52.2443 185.998 52.1202 186.122 52.0582C186.432 51.872 186.681 51.6859 186.929 51.4377C187.177 51.1895 187.363 50.9413 187.549 50.6311C187.86 50.1967 188.046 49.8244 188.232 49.4521Z" fill="#000001"/>
<path d="M188.046 39.1524C187.115 39.0283 186.37 38.8422 185.688 38.7181C185.316 38.656 185.005 38.594 184.633 38.594C184.261 38.5319 183.888 38.594 183.392 38.594C183.64 38.1596 184.013 37.8494 184.447 37.6633C184.881 37.4771 185.378 37.4151 185.874 37.5392C186.37 37.6012 186.805 37.7874 187.177 38.0976C187.549 38.3458 187.86 38.7181 188.046 39.1524Z" fill="#000001"/>
<path d="M187.487 41.3233C187.487 41.3233 182.586 39.9582 181.779 43.9293C181.779 43.9293 186.867 45.2323 187.487 41.3233Z" fill="#F2EBEB"/>
<path d="M187.735 41.3234C186.557 41.2613 185.378 41.3854 184.199 41.6336C183.64 41.8197 183.144 42.0679 182.772 42.4402C182.337 42.8746 182.027 43.3709 181.841 43.9294C181.841 43.2468 182.027 42.6264 182.461 42.13C182.896 41.6336 183.454 41.1993 184.075 41.0131C184.695 40.827 185.316 40.7649 185.998 40.827C186.557 40.889 187.177 41.0752 187.735 41.3234Z" fill="#000001"/>
<path d="M183.392 41.8816C183.392 41.8816 185.936 41.5714 185.44 43.9292C185.44 43.9292 182.896 44.7979 181.779 43.9913C181.779 43.9292 182.213 42.0057 183.392 41.8816Z" fill="#000001"/>
<path d="M186.557 44.7365C186.37 44.7365 186.184 44.7365 185.998 44.6744C185.936 44.6744 185.812 44.6124 185.75 44.5503C185.75 44.4883 185.75 44.4262 185.75 44.3642C185.812 44.178 185.874 44.0539 185.874 43.8678C185.998 43.7437 186.246 43.6816 186.433 43.6816C186.557 43.6816 186.681 43.8057 186.743 43.9298C186.805 44.0539 186.805 44.178 186.805 44.3021C186.867 44.4883 186.743 44.6744 186.557 44.7365Z" fill="#000001"/>
<path d="M187.798 44.3019C187.611 44.3019 187.425 44.3019 187.239 44.2398C187.177 44.2398 187.053 44.1778 186.991 44.1157C186.991 44.0537 186.991 43.9916 186.991 43.9296C187.053 43.7434 187.115 43.6194 187.115 43.4332C187.239 43.3091 187.487 43.2471 187.673 43.2471C187.798 43.2471 187.922 43.3712 187.984 43.4953C188.046 43.6194 188.046 43.7435 188.046 43.8675C188.108 43.9916 187.984 44.1778 187.798 44.3019Z" fill="#000001"/>
<path d="M189.225 31.1484C190.031 32.4514 190.9 33.6924 191.893 34.8713C192.327 35.4297 192.885 35.802 193.506 36.1123C193.754 36.2364 194.002 36.2364 194.25 36.1743C194.561 36.0502 194.809 35.9261 195.057 35.74C195.305 35.5538 195.553 35.3056 195.553 35.2436C195.553 35.1815 195.553 35.2436 195.553 35.1815C195.553 35.1195 195.491 35.1815 195.616 35.1815C195.74 35.1815 195.802 35.0574 195.864 34.9954V34.9334V35.0574C195.864 35.2436 195.864 35.3677 195.864 35.5538C195.926 35.9261 195.988 36.2364 196.05 36.6086C196.236 37.2912 196.608 37.8496 197.167 38.2219C197.849 38.5321 198.594 38.6562 199.338 38.5321C198.594 38.9044 197.725 39.0285 196.919 38.7803C196.484 38.6562 196.112 38.408 195.802 38.0357C195.491 37.7255 195.243 37.3532 195.119 36.9189C194.933 36.5466 194.809 36.1123 194.747 35.6779C194.685 35.4918 194.685 35.2436 194.685 35.0574V34.8093V34.6852C194.685 34.6231 194.685 34.5611 194.747 34.499C194.809 34.3749 194.933 34.2508 195.057 34.1267C195.181 34.0647 195.305 34.0026 195.429 34.0026C195.802 33.9406 196.236 34.1267 196.484 34.437C196.732 34.7472 196.794 35.1195 196.732 35.4918C196.546 35.9882 196.236 36.4225 195.802 36.7327C195.616 36.8568 195.429 36.9809 195.243 37.105C195.057 37.2291 194.809 37.3532 194.561 37.3532C194.064 37.4773 193.506 37.4153 193.072 37.2291C192.265 36.8568 191.644 36.2364 191.148 35.4918C190.217 34.1888 189.535 32.7617 189.225 31.1484Z" fill="#A04040"/>
<path d="M210.321 40.2689C208.273 39.7725 206.412 38.6556 204.985 37.0424C204.302 36.1737 203.806 35.1809 203.558 34.1261C203.496 33.8159 203.434 33.5677 203.434 33.2575C203.434 33.0713 203.434 32.8852 203.496 32.699C203.558 32.3888 203.806 32.1406 204.054 32.0165C204.364 31.8924 204.675 31.9545 204.923 32.0786C205.109 32.1406 205.233 32.2647 205.419 32.4508C205.729 32.699 205.915 33.0713 205.978 33.5057C206.04 33.8159 205.915 34.0641 205.791 34.3123L205.667 34.4364L205.543 34.4984C205.481 34.5605 205.419 34.6225 205.357 34.6225C205.109 34.8087 204.799 34.9328 204.488 35.0568C203.806 35.243 203.123 35.1189 202.565 34.7466C202.069 34.3743 201.696 33.94 201.386 33.3816C201.138 32.8852 200.89 32.3888 200.766 31.8924C200.455 30.9617 199.959 30.1551 199.276 29.4725C198.532 28.79 197.663 28.2936 196.732 27.9834C197.787 27.9834 198.842 28.3557 199.711 28.9762C200.579 29.5966 201.324 30.5274 201.696 31.5201C201.882 31.9545 202.131 32.3888 202.379 32.7611C202.627 33.1334 202.875 33.4436 203.247 33.6918C203.558 33.8779 203.93 33.94 204.24 33.8159C204.426 33.7538 204.55 33.6918 204.737 33.5677C204.799 33.5677 204.799 33.5057 204.861 33.4436L204.923 33.3816V33.4436C204.923 33.3195 204.861 33.2575 204.737 33.1334C204.675 33.0713 204.675 33.0713 204.612 33.0093C204.55 33.0093 204.612 33.0093 204.737 33.0093C204.861 33.0093 204.861 32.8852 204.861 32.8852C204.861 32.9472 204.861 33.0093 204.861 33.0713C204.861 33.2575 204.861 33.5057 204.923 33.6918C205.109 34.6225 205.481 35.4912 205.978 36.2978C206.97 38.0351 208.521 39.3381 210.321 40.2689Z" fill="#A04040"/>
<path d="M188.294 30.7754C188.17 31.8302 187.984 32.6368 187.922 33.4434C187.922 33.8157 187.922 34.2501 187.984 34.6224C188.046 35.0567 188.17 35.5531 188.294 35.9874C187.797 35.8013 187.301 35.429 187.053 34.9946C186.805 34.4983 186.619 33.9398 186.681 33.3814C186.743 32.823 186.867 32.3266 187.177 31.8923C187.425 31.4579 187.797 31.0236 188.294 30.7754Z" fill="#000001"/>
<path d="M197.787 52.5547C198.16 53.1752 198.532 53.7336 198.966 54.292C199.338 54.8505 199.773 55.2848 200.331 55.6571C200.393 55.7191 200.517 55.7191 200.579 55.7191C200.641 55.7191 200.703 55.7191 200.766 55.6571L201.076 55.3468L201.448 54.9745C201.696 54.7264 202.006 54.4782 202.317 54.23C202.689 53.9818 203.123 53.7956 203.558 53.7336C203.992 53.6715 204.488 53.7956 204.861 53.9818C205.233 54.1679 205.543 54.3541 205.915 54.6023C206.226 54.8505 206.474 55.0986 206.784 55.3468C206.97 55.533 207.218 55.7191 207.467 55.9053C207.653 56.0294 207.839 56.0294 208.025 55.9673C208.273 55.8432 208.459 55.595 208.522 55.3468C208.77 54.7264 208.956 54.0438 209.08 53.3613C209.204 54.1059 209.204 54.8505 209.08 55.533C209.018 55.9673 208.77 56.3396 208.459 56.6498C208.025 56.9601 207.467 57.0221 207.032 56.7739C206.66 56.6498 206.288 56.4017 205.978 56.1535C205.729 55.9673 205.481 55.7812 205.171 55.595C204.737 55.2227 204.178 55.0366 203.62 55.0366C203.061 55.1607 202.565 55.4709 202.131 55.9053L201.758 56.2155C201.572 56.3396 201.448 56.4637 201.262 56.5878C201.014 56.7119 200.703 56.836 200.455 56.7739C200.207 56.7119 199.959 56.6498 199.773 56.5257C199.152 56.0294 198.718 55.4089 198.408 54.6643C198.097 53.9818 197.911 53.2993 197.787 52.5547Z" fill="#A04040"/>
<path d="M200.145 42.6266C201.448 42.5025 202.751 42.6887 203.992 43.123C204.674 43.3712 205.233 43.6814 205.791 44.1778C205.915 44.3019 206.04 44.426 206.164 44.6121C206.288 44.7362 206.412 44.9224 206.474 45.1085L206.598 45.3567C206.66 45.4808 206.66 45.5429 206.66 45.6669L206.784 46.1633C207.032 47.2181 207.777 48.0248 208.77 48.3971C209.328 48.6452 209.887 48.7693 210.445 48.8314C211.065 48.8934 211.686 48.8314 212.244 48.6452C211.748 49.0796 211.127 49.3898 210.445 49.4519C209.762 49.5139 209.08 49.5139 208.459 49.3278C207.777 49.1416 207.156 48.8314 206.598 48.335C206.04 47.8386 205.667 47.1561 205.543 46.4115C205.481 46.1633 205.481 46.1633 205.481 46.0392C205.481 45.9151 205.481 45.9151 205.419 45.8531L205.357 45.729C205.233 45.4808 205.109 45.2947 204.923 45.1085C204.55 44.7362 204.054 44.3639 203.558 44.1158C202.441 43.4332 201.324 42.9989 200.145 42.6266Z" fill="#A04040"/>
<path d="M214.602 35.6159C214.602 35.6159 217.767 26.2467 226.329 31.0864C234.892 35.9261 230.983 44.6128 226.019 48.6459C221.055 52.679 211.252 45.4815 214.602 35.6159Z" fill="#000001"/>
<path d="M172.224 76.0703L167.322 82.6474C165.708 84.8191 164.033 87.0528 162.482 89.2865C161.737 90.4034 160.931 91.5202 160.248 92.6371C160.062 92.9473 159.938 93.1955 159.752 93.5057C159.628 93.7539 159.504 94.0021 159.442 94.2503V94.3744C159.442 94.4365 159.442 94.4985 159.442 94.5606C159.504 94.6847 159.504 94.8708 159.566 94.9949C159.69 95.3051 159.814 95.6154 159.938 95.8636C160.496 97.0425 161.179 98.2214 161.924 99.3382C162.668 100.455 163.413 101.634 164.157 102.689L164.343 102.937L164.281 103.185C163.475 106.66 162.606 110.073 161.675 113.485C161.241 115.222 160.745 116.898 160.31 118.635C159.876 120.372 159.38 122.048 158.821 123.723C159.131 121.986 159.442 120.248 159.814 118.511C160.186 116.774 160.496 115.036 160.869 113.299C161.613 109.824 162.358 106.35 163.165 102.937L163.289 103.433C161.613 101.2 160.186 98.8418 158.945 96.3599C158.821 96.0497 158.635 95.6774 158.573 95.3672C158.511 95.181 158.449 94.9949 158.449 94.8087C158.449 94.6846 158.387 94.6226 158.387 94.4985V94.3124C158.387 94.2503 158.387 94.1883 158.387 94.0642C158.511 93.6919 158.635 93.3196 158.821 92.9473C159.007 92.6371 159.193 92.3268 159.38 92.0166C160.124 90.8377 160.931 89.7208 161.737 88.604C163.413 86.4323 165.15 84.2606 166.887 82.151C168.625 80.0414 170.362 78.1179 172.224 76.0703Z" fill="#000001"/>
<path d="M128.542 72.1615C128.542 72.1615 125.936 64.7158 124.819 63.2266C123.702 61.7375 109.183 52.9887 110.424 51.7478C111.665 50.5068 117.063 53.7954 117.063 53.7954C117.063 53.7954 110.672 50.0725 114.085 49.3279C117.497 48.5834 122.833 52.7406 122.833 52.7406C122.833 52.7406 116.753 47.4044 122.027 48.9556C127.301 50.5068 132.823 55.4707 132.823 55.4707C132.823 55.4707 134.436 49.5141 135.615 50.4448C136.794 51.3755 137.725 65.3363 138.78 67.1977L128.542 72.1615Z" fill="#A04040"/>
<path d="M120.227 55.6565C119.359 55.3463 118.49 54.974 117.683 54.5397C116.877 54.1674 116.07 53.733 115.264 53.2987C114.457 52.8644 113.65 52.43 112.906 52.0577C112.534 51.8716 112.099 51.6855 111.727 51.5614C111.355 51.3752 110.858 51.4373 110.548 51.7475C110.61 51.4993 110.796 51.2511 111.044 51.1891C111.293 51.065 111.541 51.0029 111.789 51.0029C112.285 51.0029 112.782 51.065 113.278 51.1891C114.209 51.4373 115.077 51.8096 115.946 52.2439C116.753 52.6782 117.559 53.1746 118.304 53.7951C118.924 54.2915 119.607 54.9119 120.227 55.6565Z" fill="#000001"/>
<path d="M126.246 55.0979C124.074 54.0431 122.089 52.7401 120.041 51.6232C119.049 51.0648 117.994 50.5063 116.939 50.01C116.443 49.7618 115.884 49.5756 115.326 49.4515C114.767 49.2654 114.209 49.2654 113.588 49.3895C114.085 49.0172 114.705 48.8311 115.388 48.8311C116.008 48.8311 116.629 48.8931 117.249 49.0792C118.428 49.3895 119.607 49.8859 120.662 50.5063C121.717 51.1268 122.709 51.8093 123.64 52.5539C124.633 53.3605 125.502 54.1672 126.246 55.0979Z" fill="#000001"/>
<path d="M130.403 55.1602L128.108 55.4705C127.363 55.5946 126.68 55.7186 125.936 55.9048C125.253 56.0909 124.571 56.3391 123.95 56.7114C123.33 57.1457 122.709 57.5801 122.213 58.1385C122.337 57.2698 122.709 56.5253 123.33 55.9048C123.95 55.3464 124.757 54.912 125.564 54.6638C126.37 54.4777 127.239 54.3536 128.046 54.4777C128.852 54.5397 129.659 54.7879 130.403 55.1602Z" fill="#000001"/>
<path d="M138.842 67.1357L139.09 67.508L155.036 96.1121L142.751 117.146C142.751 117.146 132.389 102.007 128.542 72.0996L138.842 67.1357Z" fill="#EA8383"/>
<path d="M200.331 45.7294C200.331 45.7294 202.627 30.5897 197.105 26.6807C191.582 22.7717 186.619 28.6662 186.619 28.6662C188.852 27.6114 191.334 27.4873 193.63 28.2939C197.291 29.659 197.043 44.7986 197.043 44.7986C197.043 44.7986 198.904 46.8462 200.331 45.7294Z" fill="#E1C692"/>
<path d="M199.587 51.376C199.463 52.4308 199.028 53.4236 198.47 54.2922C197.911 55.2229 197.167 56.0296 196.36 56.65C195.553 57.3326 194.561 57.8289 193.568 58.2012C192.575 58.5735 191.52 58.7597 190.466 58.7597C190.9 58.5115 191.396 58.3253 191.831 58.0771C192.265 57.8289 192.699 57.6428 193.134 57.3326C194.002 56.8362 194.809 56.2778 195.554 55.7193C197.105 54.4784 198.47 53.0513 199.587 51.376Z" fill="#000001"/>
<path d="M191.272 57.1465C191.272 57.1465 185.502 57.2085 185.688 58.7597C185.874 60.3109 186.432 60.6212 188.418 60.6212C190.404 60.6212 192.017 60.435 192.017 60.1248C192.017 59.8145 193.01 57.3947 191.272 57.1465Z" fill="#E1C692"/>
<path d="M192.761 43.9916C192.823 41.0753 195.057 38.6555 197.973 38.2832C199.462 38.2211 201.014 38.6555 202.255 39.5241C207.715 42.9988 207.281 50.5686 203.061 52.9264C199.152 55.0361 192.389 52.9885 192.761 43.9916Z" fill="#E1C692"/>
<path d="M195.491 44.4885C195.553 43.3717 196.05 42.3169 196.918 41.6343C197.353 41.262 197.911 41.0759 198.532 41.0139C199.09 40.9518 199.711 41.0759 200.207 41.3241C202.255 42.3789 203.434 44.4885 203.247 46.7843C203.185 47.3427 203.061 47.9012 202.751 48.3976C202.503 48.8939 202.068 49.3283 201.572 49.6385C201.076 49.9487 200.517 50.1349 199.959 50.1969C199.4 50.259 198.78 50.1969 198.222 50.0108C197.663 49.8246 197.167 49.5144 196.732 49.0801C196.36 48.6457 196.05 48.2114 195.802 47.653C195.491 46.6602 195.367 45.6054 195.491 44.4885ZM195.553 44.4885C195.491 45.5434 195.74 46.5982 196.236 47.5289C196.732 48.3975 197.477 49.0801 198.47 49.3903C199.4 49.7005 200.455 49.6385 201.324 49.1421C201.758 48.8939 202.131 48.5216 202.379 48.1494C202.627 47.715 202.875 47.2186 202.937 46.7223C203.061 46.2259 203.061 45.6674 202.937 45.1711C202.875 44.6747 202.689 44.1783 202.379 43.6819C201.82 42.8132 200.952 42.1307 200.021 41.7584C199.09 41.3861 198.035 41.4482 197.167 41.8825C196.174 42.503 195.553 43.4337 195.553 44.4885Z" fill="#F2EBEB"/>
<path d="M73.3192 62.6066C73.3192 62.6066 82.6264 80.7245 81.9439 81.1589C81.2614 81.5932 78.8415 81.4071 78.8415 81.4071C78.8415 81.4071 84.1155 94.313 84.1776 112.927C84.1776 112.927 64.3844 114.665 53.8983 108.15C53.8983 108.15 45.4598 60.9933 49.1206 58.7596C52.7814 56.5259 73.3192 62.6066 73.3192 62.6066Z" fill="#EA8383"/>
<path d="M64.3844 71.541C64.3844 71.541 66.494 77.8699 65.8736 79.7934C65.2531 81.7168 51.2923 92.265 51.2923 92.265C51.2923 92.265 44.0327 59.1315 45.708 56.0291C47.3833 52.9267 94.4776 60.4965 91.127 62.9164C87.7764 65.3362 73.3193 62.5441 73.3193 62.5441L68.6657 63.785C68.6657 63.8471 68.9139 69.0591 64.3844 71.541Z" fill="#A04040"/>
<path d="M66.7421 83.0821C66.7421 83.0821 59.1723 81.3448 60.041 74.7677C60.9097 68.1906 69.1 79.2972 69.1 79.2972L66.7421 83.0821Z" fill="#EA8383"/>
<path d="M68.1072 71.2931C68.3554 70.7347 68.7277 70.3004 69.224 69.9901C69.7204 69.6799 70.2168 69.4317 70.7752 69.3076C71.3337 69.1835 71.8921 69.1215 72.4505 69.1835C73.009 69.2456 73.5674 69.4317 74.0638 69.6799C73.5674 69.866 73.071 70.0522 72.5126 70.1763L71.0855 70.5486L69.6584 70.9209L68.1072 71.2931Z" fill="#A04040"/>
<path d="M67.6729 74.5813C67.6729 74.5813 73.7535 71.2927 76.7939 76.4427C77.0421 76.815 76.918 77.3114 76.5457 77.4975L76.4836 77.5596C74.6222 78.3041 69.7825 79.5451 67.6729 74.5813Z" fill="#F2EBEB"/>
<path d="M67.3625 74.5813C68.1692 74.0849 69.0999 73.7126 70.0306 73.4644C70.9613 73.2162 71.9541 73.2162 72.9468 73.3403C73.9396 73.5264 74.8703 73.8987 75.6149 74.5813C76.3595 75.2017 76.9179 76.0704 77.1661 77.0011C76.7318 76.1945 76.1113 75.512 75.3667 74.9535C74.6221 74.4572 73.7535 74.0849 72.8848 73.9608C71.9541 73.8367 71.0854 73.8367 70.1547 73.9608C69.1619 74.0849 68.2312 74.271 67.3625 74.5813Z" fill="#000001"/>
<path d="M73.8776 73.8988C73.8776 73.8988 72.0782 74.7055 73.3192 78.2422C73.3192 78.2422 77.6625 78.056 77.0421 76.753C77.0421 76.753 75.3668 73.7127 73.8776 73.8988Z" fill="#000001"/>
<path d="M69.4723 83.8887C69.7205 84.6332 70.2169 85.1917 70.8994 85.564C71.2097 85.6881 71.582 85.8122 71.9543 85.8742L72.5127 85.9363C72.6988 85.9363 72.947 85.9983 73.1332 85.9983C72.947 86.0603 72.6988 86.1844 72.5127 86.2465C72.3265 86.3085 72.0783 86.3085 71.8922 86.3706C71.4579 86.3706 70.9615 86.3085 70.5892 86.1224C70.1549 85.9362 69.8446 85.564 69.5964 85.1917C69.4723 84.8194 69.4103 84.323 69.4723 83.8887Z" fill="#000001"/>
<path d="M153.547 200.105L164.343 190.736L165.584 189.247C165.584 189.247 164.964 183.104 165.522 182.732C166.081 182.359 171.975 182.98 170.672 181.242C169.369 179.505 163.537 179.071 163.537 179.071C163.537 179.071 163.785 175.286 162.296 175.41C160.807 175.534 157.704 177.83 157.704 177.83C157.704 177.83 158.635 173.735 155.967 174.169C153.299 174.603 151.624 177.582 151.624 177.582C151.624 177.582 149.762 175.41 148.397 176.899C147.032 178.388 139.834 184.841 139.834 184.841C139.834 184.841 143.247 196.692 153.547 200.105Z" fill="#EA8383"/>
<path d="M155.098 180.745C155.408 180.001 155.843 179.38 156.339 178.76C156.835 178.139 157.394 177.581 157.952 177.085C158.573 176.588 159.255 176.154 159.938 175.782C160.682 175.409 161.551 175.285 162.358 175.471C161.675 175.719 160.993 176.154 160.434 176.588C159.876 177.022 159.317 177.519 158.759 178.015C158.201 178.512 157.58 178.946 157.022 179.442C156.401 179.877 155.719 180.311 155.098 180.745Z" fill="#000001"/>
<path d="M159.318 183.289C159.628 182.358 160.062 181.428 160.683 180.683C161.241 179.815 162.048 179.07 162.916 178.574C163.04 178.512 163.164 178.449 163.351 178.387C163.475 178.325 163.661 178.263 163.785 178.263C164.095 178.201 164.343 178.201 164.654 178.263C165.15 178.325 165.646 178.449 166.143 178.574C167.073 178.884 168.004 179.318 168.811 179.939C167.818 179.815 166.887 179.69 165.957 179.566C165.522 179.504 165.026 179.442 164.592 179.442C164.219 179.38 163.847 179.442 163.537 179.628C162.792 180.063 162.048 180.621 161.427 181.304C160.745 181.924 160.062 182.607 159.318 183.289Z" fill="#000001"/>
<path d="M142.689 185.709L157.58 196.506C151.623 206.681 139.524 214.127 131.396 212.638C119.173 210.466 100.248 189.742 100.248 189.742L105.832 223H3.94975C3.94975 223 -10.1971 182.359 15.0563 129.866C23.4328 112.493 52.1609 96.4845 86.101 111.872C86.101 111.872 97.0835 118.015 110.982 136.567C124.881 155.12 142.689 185.709 142.689 185.709Z" fill="#E1C692"/>
<path d="M83.495 173.113C87.342 177.022 91.251 180.931 95.222 184.716C97.2076 186.64 99.1931 188.501 101.179 190.363C103.164 192.224 105.212 194.085 107.259 195.885C109.307 197.684 111.354 199.484 113.526 201.221C115.698 202.958 117.807 204.634 120.041 206.185C122.275 207.798 124.571 209.225 126.99 210.528C129.41 211.769 132.016 212.824 134.746 212.886H133.692C133.506 212.886 133.319 212.886 133.195 212.886L132.699 212.824L131.644 212.7L130.651 212.452C129.286 212.079 127.983 211.645 126.742 211.087C124.198 209.908 121.778 208.543 119.483 207.053C114.891 203.951 110.548 200.538 106.453 196.878C102.295 193.217 98.3244 189.37 94.5395 185.399C90.7546 181.366 87.0317 177.333 83.495 173.113Z" fill="#000001"/>
<path d="M115.884 37.2902C115.884 37.2902 114.953 35.4909 110.734 31.1475C108.749 29.0999 98.945 23.0813 104.467 14.0223C109.989 4.96335 119.793 6.88683 123.454 14.953C127.115 23.0193 122.337 35.2427 122.337 35.2427L115.884 37.2902Z" fill="#E1C692"/>
<path d="M116.877 36.5456C116.256 34.5601 115.636 32.5745 114.891 30.589C114.209 28.6035 113.402 26.7421 112.409 24.9427C112.161 24.5083 111.851 24.136 111.541 23.8258C111.417 23.7017 111.23 23.5776 111.168 23.6397C111.044 23.6397 110.92 23.6397 110.858 23.7638C110.672 24.074 110.61 24.4463 110.734 24.7565C110.796 25.1909 110.982 25.6252 111.23 26.0595C111.665 26.8661 112.347 27.5487 113.216 27.921C114.085 28.2932 115.015 28.2932 115.884 28.0451C117.745 27.4866 119.359 26.2457 120.351 24.5704C120.6 24.1981 120.724 23.7638 120.786 23.2674C120.848 22.9571 120.848 22.5849 120.662 22.2746C120.538 22.2126 120.476 22.1505 120.289 22.1505C120.227 22.1505 120.103 22.1505 120.041 22.1505C119.979 22.1505 119.855 22.2126 119.793 22.2746C119.483 22.5228 119.235 22.833 119.173 23.2053C118.924 24.1981 118.862 25.1909 118.924 26.1836C118.924 27.2384 119.048 28.2312 119.173 29.286C119.421 31.3336 119.793 33.4432 120.165 35.4908C119.545 33.5053 118.986 31.4577 118.552 29.4101C118.366 28.3553 118.18 27.3005 118.118 26.2457C118.056 25.6872 118.056 25.1909 118.056 24.6324C118.056 24.074 118.118 23.5156 118.242 22.9571C118.304 22.6469 118.428 22.3987 118.552 22.0885C118.738 21.7782 118.986 21.53 119.297 21.3439C119.421 21.2818 119.607 21.2198 119.793 21.1577C119.979 21.0957 120.103 21.0957 120.289 21.0957C120.724 21.0957 121.096 21.2198 121.406 21.468C121.654 21.7162 121.841 22.0885 121.903 22.4608C121.965 22.771 121.965 23.0812 121.903 23.4535C121.841 24.012 121.654 24.6324 121.344 25.1288C120.786 26.1216 120.041 26.9902 119.173 27.6728C118.304 28.3553 117.249 28.8517 116.194 29.224C115.077 29.5962 113.836 29.5342 112.72 29.0378C111.665 28.5414 110.734 27.6728 110.176 26.618C109.865 26.1216 109.679 25.5631 109.617 24.9427C109.555 24.6324 109.555 24.3222 109.617 24.012C109.679 23.6397 109.865 23.2674 110.176 22.9571C110.486 22.6469 110.92 22.5228 111.355 22.5849C111.727 22.6469 112.099 22.833 112.347 23.0812C112.72 23.5156 113.092 23.9499 113.34 24.4463C114.271 26.3698 115.015 28.3553 115.574 30.4029C116.008 32.3884 116.505 34.436 116.877 36.5456Z" fill="#F2EBEB"/>
<path d="M114.829 36.7319L122.957 34.25L123.144 34.9325C123.826 37.1662 122.585 39.5861 120.289 40.2686C118.056 40.9512 115.636 39.7102 114.953 37.4144L114.829 36.7319Z" fill="#000001"/>
<path d="M115.698 39.6489L123.826 37.167C124.509 39.4007 123.268 41.8206 120.972 42.5031C118.8 43.1856 116.38 41.8826 115.698 39.6489Z" fill="#000001"/>
<path d="M121.655 7.01215C121.779 6.51576 122.027 6.08143 122.275 5.64709C122.771 4.84047 123.454 4.15795 124.198 3.59952C124.571 3.28928 125.067 3.04109 125.502 2.91699C125.377 3.41337 125.129 3.84771 124.881 4.28204C124.385 5.08866 123.702 5.77119 122.958 6.32962C122.585 6.63986 122.151 6.88805 121.655 7.01215Z" fill="#EA8383"/>
<path d="M118.862 5.21202C118.614 4.83973 118.366 4.40539 118.242 3.97106C117.994 3.10239 117.87 2.23372 117.994 1.36505C118.056 0.868672 118.18 0.434335 118.366 0C118.614 0.372287 118.862 0.806621 118.986 1.24096C119.235 2.10962 119.359 2.9783 119.235 3.84697C119.11 4.2813 119.048 4.77768 118.862 5.21202Z" fill="#EA8383"/>
<path d="M123.826 9.43111C124.136 9.05882 124.571 8.74858 125.005 8.43834C125.439 8.19015 125.812 8.00401 126.308 7.81786C126.742 7.63172 127.177 7.50762 127.673 7.44558C128.17 7.32148 128.666 7.32148 129.162 7.38353C128.852 7.75582 128.418 8.06605 128.045 8.37629C127.673 8.62449 127.239 8.81063 126.804 8.99677C126.37 9.18292 125.936 9.30701 125.439 9.36906C124.881 9.49315 124.385 9.49316 123.826 9.43111Z" fill="#EA8383"/>
</svg>
