<svg viewBox="0 0 307 285" fill="none" xmlns="http://www.w3.org/2000/svg">
<path d="M221.356 251.063C221.356 251.063 210.372 250.649 205.33 249.751C200.287 248.853 179.77 242.428 184.122 251.201C184.122 251.201 160.29 241.185 155.8 241.599C151.31 242.014 150.135 244.224 159.392 250.303C168.648 256.382 199.458 275.448 199.458 275.448L221.356 251.063Z" fill="#000001"/>
<path d="M208.991 260.251C201.116 257.833 193.448 255.07 185.711 252.238C181.912 250.787 178.043 249.336 174.244 247.817L168.51 245.468C166.645 244.708 164.711 243.879 162.846 243.119C166.852 244.155 170.721 245.399 174.589 246.711C178.458 248.024 182.326 249.405 186.194 250.856C190.063 252.307 193.862 253.757 197.662 255.346C201.461 256.935 205.26 258.524 208.991 260.251Z" fill="#000001"/>
<path d="M188.958 204.089C188.958 204.089 162.086 250.649 171.204 264.119C180.323 277.59 232.063 281.873 241.734 261.356C251.405 240.84 213.826 208.856 212.307 203.053C210.787 197.251 219.836 188.339 219.836 188.339C218.04 190.066 216.382 192.829 209.198 192.829C202.014 192.829 200.839 187.441 195.935 190.066C191.03 192.691 178.25 190.135 177.836 188.063C177.421 185.991 179.01 197.527 188.958 204.089Z" fill="#E1C692"/>
<path d="M195.313 184.195C194.07 184.747 192.688 185.023 191.306 185.023C186.747 185.023 176.869 185.3 177.767 188.063C178.941 191.655 180.53 193.797 187.645 194.28C194.76 194.764 197.247 190.826 201.668 193.175C206.089 195.524 212.03 195.938 213.619 194.349C215.208 192.76 219.767 188.408 219.767 188.408C219.767 188.408 217.971 183.78 212.307 185.093C207.264 186.198 201.737 181.639 195.313 184.195Z" fill="#000001"/>
<path d="M198.836 200.981C198.352 200.152 197.938 199.254 197.593 198.356C197.247 197.458 196.971 196.56 196.764 195.662C196.556 194.764 196.349 193.796 196.211 192.898C196.073 191.931 196.004 190.964 196.004 189.997C196.487 190.826 196.902 191.724 197.247 192.622C197.938 194.418 198.422 196.214 198.698 198.079C198.767 199.046 198.836 200.014 198.836 200.981Z" fill="#000001"/>
<path d="M204.777 200.151C204.57 199.53 204.431 198.839 204.431 198.148C204.362 196.836 204.501 195.523 204.846 194.211C204.984 193.52 205.26 192.898 205.606 192.276C205.813 192.898 205.951 193.589 205.951 194.28C205.951 194.97 205.951 195.592 205.882 196.283C205.813 196.974 205.675 197.595 205.537 198.217C205.329 198.908 205.053 199.53 204.777 200.151Z" fill="#000001"/>
<path d="M188.958 204.089C188.405 204.227 187.922 204.504 187.507 204.78C187.438 204.849 187.369 204.918 187.3 205.056C187.3 205.125 187.369 205.194 187.507 205.263C187.714 205.402 187.991 205.471 188.267 205.471C189.372 205.678 190.408 205.747 191.514 205.678C193.724 205.609 195.935 205.332 198.076 205.056C200.218 204.78 202.428 204.434 204.57 204.02C205.606 203.813 206.711 203.606 207.747 203.329C208.784 203.053 209.751 202.777 210.718 202.293C210.925 202.224 211.132 202.086 211.27 201.948C211.339 201.879 211.409 201.809 211.339 201.879C211.27 201.948 211.27 202.086 211.339 202.155V202.224L211.201 202.086L210.925 201.74L210.372 201.119C209.682 200.29 208.922 199.53 208.093 198.839C207.333 198.148 206.504 197.596 205.537 197.112C204.777 196.698 203.81 196.49 202.912 196.629C202.705 196.629 202.497 196.698 202.359 196.836L202.083 196.974C202.014 197.043 201.945 197.043 201.876 197.112C201.806 197.181 201.806 197.181 201.806 197.181C201.806 197.25 201.876 197.319 201.876 197.457C202.083 197.803 202.359 198.148 202.705 198.425C203.05 198.77 203.464 199.046 203.879 199.392C205.675 200.566 207.54 201.464 209.543 202.155C210.51 202.5 211.547 202.777 212.583 202.915C213.066 202.984 213.55 202.984 213.964 202.984C214.448 202.915 214.862 202.846 215.277 202.638C217.142 201.809 218.731 200.497 219.905 198.839C220.182 198.425 220.389 198.01 220.596 197.596C220.734 197.319 220.803 196.974 220.734 196.629C220.734 196.559 220.665 196.559 220.596 196.49C220.458 196.421 220.32 196.352 220.182 196.352C219.767 196.283 219.284 196.283 218.8 196.421C217.833 196.629 216.866 196.974 216.037 197.527C215.139 198.079 214.241 198.632 213.481 199.323C211.892 200.704 210.441 202.362 209.336 204.158C208.783 205.056 208.3 206.023 207.955 206.99C207.609 207.958 207.471 208.994 207.54 210.03C207.609 210.513 207.678 210.997 207.885 211.481L208.231 212.24C208.369 212.517 208.438 212.793 208.576 213.069C208.922 214.175 209.06 215.349 208.922 216.454C208.645 218.734 207.54 220.806 205.951 222.395C206.642 221.566 207.264 220.599 207.678 219.563C208.093 218.596 208.369 217.49 208.438 216.454C208.507 215.418 208.3 214.313 207.885 213.346C207.816 213.138 207.678 212.862 207.54 212.655L207.126 211.895C206.849 211.342 206.642 210.79 206.573 210.168C206.435 208.994 206.504 207.819 206.849 206.645C207.195 205.54 207.609 204.434 208.162 203.467C209.267 201.464 210.718 199.668 212.445 198.079C213.274 197.319 214.241 196.559 215.208 196.007C216.244 195.385 217.349 194.902 218.524 194.625C219.145 194.487 219.836 194.418 220.458 194.487C220.872 194.556 221.218 194.625 221.563 194.832C221.978 195.109 222.323 195.454 222.53 195.938C222.738 196.698 222.738 197.527 222.392 198.217C222.185 198.77 221.839 199.323 221.494 199.875C220.803 200.842 219.974 201.74 219.076 202.5C218.178 203.329 217.142 203.951 216.037 204.434C215.415 204.711 214.793 204.849 214.172 204.918C213.55 204.987 212.928 204.918 212.307 204.849C211.132 204.642 210.027 204.365 208.922 204.02C206.711 203.26 204.639 202.224 202.774 200.911C202.29 200.566 201.806 200.221 201.392 199.806C200.908 199.323 200.425 198.839 200.149 198.217C199.941 197.803 199.872 197.319 199.872 196.836C199.941 196.352 200.218 195.869 200.563 195.523C200.701 195.385 200.908 195.247 201.047 195.178L201.53 194.971C201.876 194.832 202.221 194.694 202.566 194.625C203.879 194.418 205.191 194.694 206.366 195.385C207.402 195.938 208.369 196.629 209.267 197.457C210.096 198.217 210.925 199.046 211.616 199.944L212.168 200.635L212.445 200.981L212.583 201.188C212.652 201.257 212.652 201.326 212.721 201.395C212.79 201.464 212.79 201.602 212.79 201.671C212.859 202.017 212.79 202.431 212.583 202.707C212.445 202.915 212.307 203.053 212.099 203.191C211.823 203.398 211.547 203.536 211.201 203.675C210.096 204.089 208.991 204.434 207.885 204.642C206.78 204.918 205.675 205.056 204.57 205.263C202.359 205.609 200.149 205.816 197.938 206.023C195.728 206.161 193.517 206.231 191.237 206.161C190.132 206.161 189.027 205.954 187.922 205.678C187.645 205.609 187.369 205.471 187.093 205.332C186.954 205.263 186.816 205.056 186.816 204.918C186.885 204.78 186.954 204.642 187.093 204.573C187.922 204.365 188.405 204.227 188.958 204.089Z" fill="#000001"/>
<path d="M200.356 249.06C199.941 248.99 199.803 252.514 199.803 252.514C199.803 252.514 207.264 255.829 211.685 250.027C216.106 244.224 209.751 240.148 204.432 239.25C199.112 238.352 201.876 232.619 204.777 233.309C206.504 233.724 208.231 234.069 209.958 234.277L210.234 231.721C210.234 231.721 202.981 228.819 200.149 232.964C197.316 237.109 198.007 240.632 203.741 242.29C209.474 243.948 212.79 250.303 200.356 249.06Z" fill="#000001"/>
<path d="M205.675 255.139L207.955 254.794L207.54 250.787L205.26 251.063L205.675 255.139Z" fill="#000001"/>
<path d="M205.399 231.307L204.984 227.093L202.705 227.369L203.119 231.652L205.399 231.307Z" fill="#000001"/>
<path d="M271.922 262.668C271.922 262.668 242.425 283.668 229.991 284.843C217.557 286.017 152.76 280.353 154.695 276.484C156.629 272.616 193.103 269.991 193.103 269.991C193.103 269.991 241.942 224.951 248.85 226.263C255.757 227.576 306.6 234.622 306.6 234.622C306.6 234.622 289.537 273.445 288.501 273.445C287.465 273.445 271.922 262.668 271.922 262.668Z" fill="#A04040"/>
<path d="M248.573 251.823C247.882 252.03 247.261 252.307 246.57 252.652L244.636 253.619L240.767 255.484C238.211 256.728 235.586 257.971 232.961 259.146C230.336 260.389 227.642 261.425 224.879 262.323C224.534 262.461 224.119 262.531 223.843 262.6C223.497 262.669 223.221 262.807 222.876 262.876C222.254 263.152 221.632 263.429 221.011 263.774C219.767 264.465 218.593 265.156 217.349 265.984C214.932 267.504 212.583 269.162 210.165 270.682C207.747 272.271 205.191 273.721 202.566 274.896C201.876 275.172 201.185 275.379 200.494 275.587C200.149 275.656 199.734 275.794 199.389 275.794C199.043 275.863 198.629 275.863 198.284 275.863C196.833 275.863 195.382 275.794 193.932 275.656C193.172 275.587 192.481 275.379 191.79 275.103C191.445 274.965 191.099 274.758 190.823 274.481C190.547 274.205 190.408 273.721 190.478 273.307C190.616 272.547 191.03 271.925 191.514 271.373C191.997 270.82 192.55 270.336 193.103 269.922C192.619 270.406 192.135 270.958 191.721 271.511C191.237 272.063 190.961 272.685 190.892 273.376C190.823 274.067 191.445 274.481 192.066 274.619C192.757 274.827 193.448 274.965 194.139 274.965C195.52 275.034 196.971 275.034 198.353 274.965C199.734 274.896 201.047 274.481 202.29 273.86C204.777 272.616 207.195 271.165 209.543 269.577C211.961 267.988 214.31 266.33 216.728 264.81C217.971 264.05 219.145 263.29 220.458 262.6C221.08 262.254 221.77 261.909 222.461 261.632C222.807 261.494 223.221 261.425 223.567 261.287C223.981 261.218 224.257 261.149 224.603 261.011C227.297 260.251 229.991 259.146 232.616 258.109L240.56 254.863L244.567 253.274C245.879 252.721 247.192 252.238 248.573 251.823Z" fill="#000001"/>
<path d="M230.267 216.869C229.784 217.007 229.231 217.076 228.678 217.076C227.642 217.076 226.675 216.869 225.777 216.454C225.294 216.247 224.81 215.971 224.396 215.625C224.879 215.487 225.432 215.418 225.984 215.418C226.468 215.418 227.021 215.487 227.504 215.556C227.988 215.625 228.471 215.832 228.955 216.04C229.369 216.247 229.853 216.523 230.267 216.869Z" fill="#EA8383"/>
<path d="M234.066 209.271C233.376 209.754 232.685 210.238 231.925 210.583C231.165 210.928 230.474 211.274 229.645 211.55C228.885 211.826 228.126 212.034 227.297 212.241C226.468 212.448 225.639 212.517 224.81 212.586C225.432 212.034 226.191 211.619 226.951 211.274C228.402 210.514 229.922 209.961 231.511 209.616C232.409 209.409 233.238 209.34 234.066 209.271Z" fill="#EA8383"/>
<path d="M224.188 209.132C224.326 208.718 224.534 208.373 224.879 208.096C225.155 207.82 225.432 207.544 225.777 207.336C226.122 207.129 226.468 206.922 226.813 206.853C227.228 206.715 227.642 206.646 228.057 206.715C227.919 207.129 227.711 207.474 227.366 207.82C226.882 208.373 226.192 208.856 225.432 209.063C225.017 209.063 224.603 209.132 224.188 209.132Z" fill="#EA8383"/>
<path d="M156.283 43.3415C156.283 43.3415 147.372 35.4665 144.816 37.5389C142.26 39.6112 134.385 37.7461 130.931 41.8218C127.477 45.8974 142.26 48.2461 142.26 48.2461L156.283 43.3415Z" fill="#000001"/>
<path d="M101.572 5.48633C102.954 5.48633 163.744 6.17712 165.54 9.28569C167.336 12.3943 120.016 19.2331 120.016 19.2331L101.572 5.48633Z" fill="#A04040"/>
<path d="M124.783 7.48922C124.783 7.48922 151.793 -1.56016 153.175 0.235898C154.556 2.03196 142.605 12.3938 140.533 12.3248C138.461 12.2557 124.783 7.48922 124.783 7.48922Z" fill="#A04040"/>
<path d="M110.207 5.48602C114.836 5.27878 119.533 5.14062 124.161 5.14062C128.79 5.14062 133.487 5.27878 138.115 5.41694C142.744 5.5551 147.441 5.9005 152.069 6.45313C154.418 6.72945 156.698 7.00577 158.977 7.42024C160.152 7.62748 161.257 7.9038 162.431 8.24919C162.984 8.38735 163.536 8.59459 164.089 8.87091C164.365 9.00906 164.642 9.14722 164.849 9.35446C165.125 9.49262 165.263 9.83802 165.125 10.1143C165.194 9.83802 165.056 9.5617 164.78 9.42354C164.504 9.28538 164.296 9.14722 164.02 9.07814C163.467 8.87091 162.915 8.73275 162.362 8.66367C161.257 8.45643 160.083 8.31827 158.908 8.18011C156.629 7.9038 154.28 7.76564 152 7.62748C147.372 7.35116 142.744 7.14393 138.115 6.93669L124.161 6.31497C119.533 6.03866 114.836 5.76234 110.207 5.48602Z" fill="#000001"/>
<path d="M156.283 43.3417C159.737 45.4141 145.714 57.1576 141.431 70.7662C137.148 84.3748 176.869 166.234 141.431 170.724C105.993 175.214 90.1051 126.168 93.0755 107.447C95.1479 94.3913 118.704 72.9076 125.819 61.7168C127.132 59.6444 123.816 55.4306 122.572 48.1773C121.329 40.9239 133.349 37.1937 133.349 37.1937C133.349 37.1937 140.257 35.8121 140.257 38.9206C140.257 42.0292 137.908 42.5818 142.951 42.7891C147.994 42.9963 144.263 36.1575 156.283 43.3417Z" fill="#E1C692"/>
<path d="M121.398 122.714C120.984 122.576 120.155 125.892 120.155 125.892C120.155 125.892 126.994 130.451 132.52 125.892C138.046 121.332 132.451 116.29 127.27 114.355C122.089 112.421 125.957 107.655 128.72 108.829C130.378 109.589 132.036 110.211 133.763 110.763L134.523 108.414C134.523 108.414 127.822 104.27 124.23 107.586C120.638 110.901 120.638 114.355 126.095 117.049C131.553 119.743 133.556 126.306 121.398 122.714Z" fill="#000001"/>
<path d="M125.872 125.521L125.556 129.377L127.897 129.569L128.213 125.713L125.872 125.521Z" fill="#000001"/>
<path d="M127.775 102.86L127.442 106.922L129.783 107.114L130.116 103.051L127.775 102.86Z" fill="#000001"/>
<path d="M129.687 12.3938C122.227 6.79833 74.9076 -0.385909 67.1017 0.373962C59.2957 1.13383 2.37439 38.8511 2.37439 38.8511C2.37439 48.1077 6.17375 118.983 6.17375 118.983L66.2727 42.0978C66.2727 42.0978 85.684 56.4663 96.4603 57.2953C107.237 58.1242 127.822 57.2953 130.033 52.667C132.243 48.0387 110.622 48.0387 109.24 46.3117C107.858 44.5847 92.8682 31.3215 92.8682 31.3215C95.7005 31.3215 116.286 22.7556 116.286 22.7556L124.783 42.1669C124.783 42.1669 133.556 36.8478 137.701 36.986C137.701 36.986 131.76 13.9135 129.687 12.3938Z" fill="#EA8383"/>
<path d="M144.954 62.8214C145.438 63.2358 145.783 63.7885 145.99 64.4102C146.059 64.7556 146.128 65.101 146.059 65.4464C145.99 65.5845 145.921 65.7227 145.783 65.7918C145.714 65.8608 145.576 65.8608 145.507 65.8608C145.369 65.9299 145.161 65.9299 144.954 65.9299C143.711 65.9299 142.398 65.7918 141.155 65.5845C138.668 65.1701 136.25 64.6174 133.901 63.9266C131.553 63.2358 129.135 62.6141 126.786 61.8542L124.99 61.3016C124.368 61.1635 123.747 60.8871 123.194 60.5417C123.056 60.4036 122.918 60.2654 122.78 60.0582C122.711 59.851 122.711 59.5746 122.78 59.3674C122.918 59.022 123.194 58.8148 123.539 58.6075C124.092 58.2621 124.645 57.9858 125.266 57.8477C124.714 58.124 124.23 58.5384 123.816 58.8838C123.609 59.022 123.47 59.2983 123.332 59.5056C123.263 59.7128 123.401 59.7819 123.609 59.92C123.885 60.0582 124.092 60.1273 124.368 60.1964C124.645 60.2654 124.921 60.3345 125.266 60.3345C125.888 60.4727 126.51 60.6108 127.063 60.749C129.48 61.3016 131.898 61.9233 134.247 62.545C136.595 63.1668 139.013 63.8576 141.362 64.4793C142.536 64.8247 143.711 65.0319 144.885 65.2391C145.023 65.2391 145.161 65.2391 145.299 65.2391C145.438 65.2391 145.507 65.1701 145.438 65.2391C145.507 64.9628 145.507 64.6865 145.507 64.4102C145.576 63.8575 145.299 63.3049 144.954 62.8214Z" fill="#000001"/>
<path d="M155.454 183.434C154.832 182.467 154.211 181.431 153.727 180.395C153.244 179.358 152.76 178.253 152.415 177.217C152.069 176.181 151.655 175.006 151.378 173.901C151.033 172.796 150.826 171.622 150.688 170.447C151.309 171.414 151.931 172.451 152.415 173.487C152.898 174.523 153.382 175.628 153.727 176.664C154.142 177.77 154.487 178.875 154.763 179.98C155.04 181.085 155.316 182.26 155.454 183.434Z" fill="#E1C692"/>
<path d="M175.073 181.499C173.415 180.601 171.826 179.496 170.306 178.46C168.786 177.424 167.267 176.249 165.747 175.144C164.227 174.039 162.777 172.795 161.395 171.552C160.013 170.309 158.563 169.065 157.25 167.684C158.908 168.582 160.497 169.687 162.017 170.723C163.536 171.759 165.056 172.934 166.576 174.108C168.096 175.282 169.477 176.457 170.928 177.7C172.379 178.944 173.76 180.118 175.073 181.499Z" fill="#E1C692"/>
<path d="M163.122 161.882C164.02 162.02 164.918 162.227 165.747 162.504C166.576 162.78 167.405 163.125 168.234 163.471C169.063 163.816 169.823 164.231 170.582 164.714C171.342 165.198 172.102 165.681 172.724 166.303C171.826 166.165 170.928 166.027 170.099 165.681C169.27 165.405 168.441 165.129 167.612 164.714C166.783 164.369 166.023 163.954 165.263 163.471C164.504 162.987 163.744 162.504 163.122 161.882Z" fill="#E1C692"/>
<path d="M139.842 42.3047C139.773 43.9626 139.566 45.6205 139.29 47.2784C139.013 48.9363 138.737 50.5251 138.392 52.183C138.046 53.8409 137.632 55.4297 137.148 57.0186C136.734 58.6074 136.181 60.1962 135.559 61.785C135.628 60.1271 135.836 58.4692 136.112 56.8113C136.388 55.1534 136.665 53.5646 137.01 51.9067C137.355 50.2488 137.77 48.66 138.253 47.0712C138.668 45.4133 139.221 43.8244 139.842 42.3047Z" fill="#000001"/>
<path d="M139.013 64.548C137.77 63.9263 136.665 63.1664 135.628 62.1993C135.145 61.7157 134.73 61.1631 134.385 60.4723C134.04 59.7815 133.901 59.0217 134.04 58.3309C134.178 57.571 134.592 56.9493 135.076 56.3967C135.559 55.844 136.112 55.3605 136.734 55.0151C137.079 54.8078 137.493 54.6697 137.908 54.6006C138.046 54.6006 138.184 54.6006 138.322 54.6697C138.599 54.7387 138.875 54.8769 139.013 55.1532C139.082 55.2223 139.151 55.3605 139.22 55.4295C139.359 55.7749 139.497 56.1894 139.497 56.6039C139.566 56.9493 139.566 57.2947 139.566 57.7092C139.566 59.0907 139.497 60.4723 139.566 61.7848C139.566 62.4065 139.635 63.0973 139.773 63.719C139.842 64.2717 140.049 64.8243 140.395 65.377C140.671 65.7914 141.155 66.0677 141.638 66.2059C142.191 66.275 142.813 66.275 143.296 66.0677C144.47 65.6533 145.576 64.9625 146.543 64.1335C147.51 63.3046 148.339 62.3375 149.03 61.2322C149.168 60.9559 149.306 60.6796 149.375 60.4033C149.444 60.196 149.444 59.9888 149.444 59.7815C149.375 59.6434 149.375 59.6434 149.168 59.5052C148.892 59.4361 148.684 59.4361 148.408 59.4361C147.165 59.5743 145.921 59.9888 144.885 60.6796C141.431 62.6829 138.737 65.7914 137.217 69.5217C136.734 70.7651 136.388 72.0776 136.25 73.3901C136.112 74.7717 136.181 76.0842 136.388 77.4658C135.697 74.7717 135.767 71.9395 136.595 69.3145C137.493 66.6204 139.013 64.2717 141.017 62.2684C141.984 61.2322 143.089 60.4032 144.332 59.6434C145.576 58.8144 146.957 58.3309 148.408 58.1236C148.822 58.0546 149.237 58.1236 149.651 58.2618C149.928 58.3309 150.135 58.469 150.342 58.6763C150.549 58.8835 150.688 59.0907 150.826 59.3671C150.964 59.8506 150.964 60.2651 150.826 60.7486C150.688 61.094 150.549 61.5085 150.411 61.8539C149.721 63.0973 148.753 64.2026 147.648 65.1697C146.543 66.1368 145.299 66.8967 143.918 67.3112C143.158 67.5875 142.329 67.5875 141.569 67.4493C140.74 67.3112 139.98 66.7585 139.497 66.0677C139.082 65.446 138.806 64.6862 138.737 63.9263C138.599 63.2355 138.599 62.4756 138.599 61.7848C138.599 60.4033 138.737 59.0217 138.737 57.7092C138.806 57.0874 138.737 56.4657 138.599 55.9131C138.461 55.7059 138.461 55.6368 138.253 55.6368C137.977 55.6368 137.701 55.7059 137.493 55.844C136.388 56.4657 135.283 57.3638 135.007 58.5381C134.73 59.7124 135.352 61.025 136.181 61.9921C136.872 62.8901 137.908 63.7881 139.013 64.548Z" fill="#000001"/>
<path d="M82.161 139.085L82.5064 140.743L82.4373 140.812L82.161 139.085Z" fill="#EA8383"/>
<path d="M83.2663 144.059L84.1643 147.374L83.8189 147.443L83.0591 144.128L83.2663 144.059Z" fill="#EA8383"/>
<path d="M85.1314 150.621L86.1676 153.868L85.615 154.006L84.7169 150.759L85.1314 150.621Z" fill="#EA8383"/>
<path d="M87.273 157.046L88.4473 160.154L87.8256 160.431L86.6512 157.253L87.273 157.046Z" fill="#EA8383"/>
<path d="M89.8288 163.332L91.2104 166.372L90.4506 166.717L89.069 163.608L89.8288 163.332Z" fill="#EA8383"/>
<path d="M92.7302 169.411L94.3881 172.312L93.5592 172.796L91.9012 169.826L92.7302 169.411Z" fill="#EA8383"/>
<path d="M96.1842 175.145C96.8059 176.112 97.4276 177.01 98.1184 177.908L97.2204 178.598C96.5296 177.7 95.9078 176.733 95.2861 175.766L96.1842 175.145Z" fill="#EA8383"/>
<path d="M100.26 180.533C101.02 181.362 101.711 182.191 102.539 183.02L101.711 183.849C100.882 183.02 100.122 182.191 99.3618 181.293L100.26 180.533Z" fill="#EA8383"/>
<path d="M104.957 185.299C105.786 185.99 106.684 186.68 107.582 187.302L106.891 188.338C105.924 187.648 105.026 186.957 104.197 186.197L104.957 185.299Z" fill="#EA8383"/>
<path d="M110.414 189.029C111.382 189.513 112.418 189.996 113.385 190.411L112.901 191.585C111.796 191.171 110.76 190.618 109.793 190.065L110.414 189.029Z" fill="#EA8383"/>
<path d="M116.562 191.517C117.599 191.793 118.773 192 119.809 192.207L119.602 193.52C118.497 193.244 117.391 193.105 116.217 192.76L116.562 191.517Z" fill="#EA8383"/>
<path d="M123.125 192.622C124.23 192.691 125.336 192.76 126.441 192.691L126.51 194.073C125.336 194.142 124.161 194.073 122.987 194.004L123.125 192.622Z" fill="#EA8383"/>
<path d="M129.619 192.207C130.655 191.93 131.553 191.447 132.382 190.825L133.28 191.861C132.313 192.69 131.207 193.243 130.033 193.588L129.619 192.207Z" fill="#EA8383"/>
<path d="M134.04 188.27C134.316 187.303 134.385 186.198 134.247 185.231L135.559 185.023C135.767 186.267 135.697 187.51 135.352 188.685L134.04 188.27Z" fill="#EA8383"/>
<path d="M133.211 182.191C132.727 181.224 132.105 180.395 131.345 179.635L132.174 178.668C133.072 179.497 133.763 180.464 134.316 181.569L133.211 182.191Z" fill="#EA8383"/>
<path d="M128.79 178.391C128.582 178.391 128.375 178.46 128.168 178.529C128.099 178.598 127.961 178.598 127.892 178.667L127.753 178.737L127.684 178.806C127.546 178.944 127.546 179.082 127.477 179.289C127.408 179.496 127.408 179.773 127.408 179.98L126.165 180.049C126.165 179.704 126.165 179.358 126.234 179.013C126.303 178.598 126.51 178.253 126.717 177.977C126.786 177.908 126.924 177.839 126.993 177.769C127.063 177.7 127.132 177.7 127.201 177.631C127.339 177.562 127.477 177.493 127.684 177.424C128.03 177.286 128.375 177.217 128.72 177.217L128.79 178.391Z" fill="#EA8383"/>
<path d="M128.513 182.812C129.066 183.711 129.826 184.47 130.655 185.161L129.895 186.059C128.928 185.299 128.099 184.401 127.477 183.434L128.513 182.812Z" fill="#EA8383"/>
<path d="M133.418 186.819C134.385 187.303 135.421 187.648 136.526 187.925L136.25 188.961C135.145 188.684 134.04 188.339 132.934 187.856L133.418 186.819Z" fill="#EA8383"/>
<path d="M139.773 188.614C140.878 188.752 141.984 188.821 143.089 188.891V189.789C141.915 189.789 140.809 189.72 139.635 189.581L139.773 188.614Z" fill="#EA8383"/>
<path d="M146.543 189.236C147.648 189.444 148.823 189.789 149.859 190.273L149.582 191.032C148.546 190.618 147.51 190.342 146.405 190.134L146.543 189.236Z" fill="#EA8383"/>
<path d="M152.898 191.861C153.865 192.483 154.763 193.174 155.592 193.934L155.178 194.417C154.349 193.726 153.451 193.036 152.484 192.414L152.898 191.861Z" fill="#EA8383"/>
<path d="M158.01 196.421C158.77 197.319 159.461 198.217 160.082 199.184L159.737 199.46C159.115 198.562 158.355 197.664 157.596 196.835L158.01 196.421Z" fill="#EA8383"/>
<path d="M161.879 202.085C162.431 203.052 162.915 204.088 163.398 205.124L163.191 205.194C162.707 204.157 162.155 203.19 161.602 202.223L161.879 202.085Z" fill="#EA8383"/>
<path d="M164.642 208.303C164.849 208.855 164.987 209.408 165.194 209.961C164.987 209.408 164.78 208.855 164.642 208.303Z" fill="#EA8383"/>
<path d="M137.701 165.058C136.388 162.986 135.905 160.499 136.388 158.081C136.665 156.838 137.217 155.663 138.046 154.696C138.806 153.729 139.842 152.9 140.947 152.279C142.122 151.657 143.434 151.45 144.747 151.588C145.99 151.726 147.234 152.209 148.27 152.969C149.306 153.729 150.066 154.765 150.55 155.94C151.033 157.114 150.895 158.427 150.204 159.463C150.619 158.427 150.48 157.183 149.928 156.216C149.375 155.249 148.615 154.42 147.717 153.867C145.921 152.693 143.573 152.555 141.638 153.522C141.155 153.729 140.74 154.075 140.326 154.42C139.911 154.765 139.497 155.18 139.151 155.594C138.806 156.009 138.461 156.423 138.184 156.907C137.908 157.39 137.701 157.874 137.563 158.427C136.803 160.568 136.872 162.917 137.701 165.058Z" fill="#F2EBEB"/>
<path d="M109.309 46.3807C107.03 44.6537 104.819 42.8576 102.609 40.9925C100.398 39.1273 98.2565 37.2622 96.1841 35.3971C94.1118 33.5319 91.9703 31.5286 89.8979 29.5944L86.8584 26.624C85.8223 25.6569 84.8551 24.6207 83.7499 23.7227C84.9933 24.4134 86.1676 25.2424 87.342 26.1404C88.4473 27.0385 89.6216 27.8674 90.7269 28.7654C92.9374 30.5615 95.0789 32.4266 97.2203 34.3609C99.3618 36.2951 101.434 38.2293 103.507 40.2326C105.579 42.2359 107.375 44.2392 109.309 46.3807Z" fill="#000001"/>
<path d="M22.753 25.6572C22.753 25.6572 21.3023 43.1343 26.276 59.6442C31.2497 76.1542 36.2925 80.5752 36.2925 80.5752C36.2925 80.5752 23.3747 103.44 21.3714 99.503C3.41076 64.8252 5.2759 42.6507 6.51933 34.9829C7.76275 27.3151 22.753 25.6572 22.753 25.6572Z" fill="#000001"/>
<path d="M20.0588 21.7887C20.0588 21.7887 34.5654 16.5387 31.7332 29.8019C28.9009 43.0651 10.4568 50.4566 2.30541 44.5848C-5.84594 38.7131 9.42057 23.0321 20.0588 21.7887Z" fill="#E1C692"/>
<path d="M19.3679 23.1014C20.8186 22.6179 22.3383 22.2725 23.8581 22.2725C24.6179 22.2725 25.3778 22.3415 26.1377 22.5488C26.8975 22.756 27.5193 23.1705 28.0719 23.7231C28.9699 24.9666 29.3844 26.5554 29.1081 28.1442C28.9699 29.6639 28.6245 31.1837 28.0719 32.6343C26.8285 35.4666 24.8252 37.9535 22.2692 39.7495C19.7824 41.6147 16.8811 42.9272 13.8416 43.5489C12.3218 43.8252 10.733 43.8943 9.14417 43.687C7.55535 43.4798 6.03561 42.9272 4.79218 41.9601C4.10139 41.4765 3.61783 40.7857 3.34152 40.0258C3.0652 39.266 2.92704 38.437 2.99612 37.6771C3.20336 36.0883 3.75599 34.6376 4.65402 33.3251C6.381 30.7692 8.52246 28.5587 11.0093 26.7626C13.5652 25.0356 16.3284 23.5159 19.3679 23.1014ZM19.3679 23.1014C16.3284 23.5159 13.5652 25.1047 11.0784 26.8317C8.59154 28.6278 6.51916 30.9074 4.93034 33.5324C4.10139 34.7758 3.61783 36.2265 3.47967 37.7462C3.41059 38.437 3.54875 39.1969 3.82507 39.8877C4.10139 40.5785 4.58494 41.1311 5.13758 41.5456C6.31192 42.4436 7.76259 42.9272 9.21325 43.1344C10.733 43.2726 12.1837 43.2726 13.7034 42.9272C16.6738 42.3745 19.5061 41.1311 21.9238 39.335C24.4107 37.6081 26.414 35.2594 27.7265 32.4962C28.3482 31.1146 28.7627 29.6639 28.9008 28.1442C28.9699 27.3843 28.9699 26.6245 28.8318 25.8646C28.7627 25.1047 28.4173 24.4139 27.9337 23.7922C27.4502 23.2396 26.7594 22.8251 26.0686 22.6179C25.3087 22.4106 24.5488 22.3415 23.789 22.3415C22.3383 22.3415 20.8186 22.6179 19.3679 23.1014Z" fill="#F2EBEB"/>
<path d="M16.5358 27.7295C16.4667 28.5584 16.2595 29.3874 16.0522 30.2163C15.845 31.0453 15.6377 31.8052 15.3614 32.6341L14.7397 31.8052C16.3285 31.5979 17.9174 31.5289 19.5062 31.5289C20.3351 31.5289 21.095 31.5289 21.924 31.5979C22.7529 31.667 23.5128 31.7361 24.3417 31.8742C23.5819 32.0815 22.7529 32.2887 21.993 32.4269C21.1641 32.565 20.4042 32.7032 19.6443 32.7723C18.0555 32.9795 16.4667 33.0486 14.8779 33.0486H13.9108L14.2562 32.2196C14.6016 31.4598 14.947 30.6999 15.2924 29.94C15.6377 29.1111 16.1213 28.4203 16.5358 27.7295Z" fill="#000001"/>
<path d="M7.00288 39.1274C6.72656 39.1274 6.24301 38.9892 6.03577 37.953C5.89761 37.6076 6.03577 37.1932 6.31209 36.9168C6.72656 36.5714 7.21012 36.4333 7.69367 36.4333C7.69367 36.3642 7.69367 36.2951 7.69367 36.226L8.38446 36.0879C8.38446 36.157 8.38446 36.2951 8.38446 36.3642C9.48973 36.3642 10.595 36.5024 11.7003 36.7787L11.493 37.5386C10.4568 37.3313 9.42065 37.1932 8.31539 37.1241C8.24631 38.1603 7.76275 39.0583 7.14104 39.1274H7.00288ZM7.62459 37.1241C7.2792 37.1241 7.00288 37.2622 6.72656 37.4004C6.65748 37.5386 6.5884 37.6767 6.65748 37.8149C6.79564 38.2984 6.9338 38.4366 7.00288 38.4366C7.21012 38.4366 7.48643 37.884 7.62459 37.1241Z" fill="#F2EBEB"/>
<path d="M23.2496 24.5786L20.7954 26.4863L21.2193 27.0317L23.6736 25.124L23.2496 24.5786Z" fill="#E1C692"/>
<path d="M23.789 29.5945L23.0982 29.5254C23.0982 29.18 23.0982 28.9037 22.96 28.5583C22.7528 28.6965 22.5456 28.8346 22.3383 28.8346C21.9929 28.8346 21.6475 28.6274 21.5094 28.3511C21.164 27.7984 21.3021 27.453 21.4403 27.2458C21.7166 26.9695 22.1311 26.9695 22.4074 27.1076C22.6146 27.1767 22.8219 27.3149 22.96 27.453C23.3745 26.8313 23.7199 26.2096 23.9962 25.5879L24.6179 25.8642C24.2725 26.6241 23.8581 27.384 23.3745 28.0057C23.7199 28.5583 23.8581 29.1109 23.789 29.5945ZM22.062 27.7984C22.062 27.8675 22.1311 28.0057 22.2002 28.0747C22.2002 28.1438 22.2693 28.2129 22.3383 28.2129C22.4074 28.2129 22.5456 28.1438 22.6146 28.0747L22.4765 27.9366C22.3383 27.8675 22.2002 27.7984 22.062 27.7984Z" fill="#F2EBEB"/>
<path d="M20.6805 38.9204C20.1279 38.8513 19.5752 38.6441 19.0917 38.2987L19.4371 37.677C20.5423 38.3678 20.8187 38.1605 20.8187 38.1605C20.8187 38.1605 21.0259 37.8842 20.5423 36.5717C20.4733 36.4335 20.4042 36.1572 20.6805 36.0191C20.9568 35.8809 21.095 36.0882 21.3022 36.4336C21.3713 36.5026 21.3713 36.5717 21.4404 36.6408C21.7167 36.0882 21.8548 35.4664 21.9239 34.8447L22.6147 34.9138C22.4766 35.95 22.2002 37.1934 21.5785 37.3316H21.5094C21.6476 37.7461 21.5785 38.2987 21.2331 38.6441C21.095 38.8513 20.8877 38.9204 20.6805 38.9204Z" fill="#F2EBEB"/>
<path d="M12.7363 29.5256L12.1146 29.2492C12.3219 28.7657 12.5982 28.2821 12.8745 27.7986C12.8054 27.5913 12.7363 27.4532 12.7363 27.2459H13.2199C13.4962 26.8315 13.9107 26.4861 14.3942 26.417C14.6706 26.417 15.016 26.5551 15.1541 26.8315C15.4304 27.1769 15.4304 27.6604 15.2232 28.0058C14.8087 28.4894 14.187 28.6275 13.6344 28.4894C13.5653 28.4894 13.4962 28.4203 13.4271 28.4203C13.1508 28.7657 12.9436 29.1111 12.7363 29.5256ZM13.7725 27.7986C14.1179 27.8677 14.4633 27.7986 14.6706 27.5913C14.6706 27.5223 14.8087 27.4532 14.6015 27.1769C14.5324 27.1078 14.4633 27.1078 14.4633 27.1078C14.3252 27.1078 14.0488 27.3841 13.7725 27.7986Z" fill="#F2EBEB"/>
<path d="M190.616 85.4802C193.324 85.4802 195.52 83.2843 195.52 80.5755C195.52 77.8668 193.324 75.6709 190.616 75.6709C187.907 75.6709 185.711 77.8668 185.711 80.5755C185.711 83.2843 187.907 85.4802 190.616 85.4802Z" fill="#F2EBEB"/>
<path d="M37.9505 169.412C40.8881 169.412 43.2696 167.03 43.2696 164.093C43.2696 161.155 40.8881 158.773 37.9505 158.773C35.0128 158.773 32.6313 161.155 32.6313 164.093C32.6313 167.03 35.0128 169.412 37.9505 169.412Z" fill="#F2EBEB"/>
<path d="M82.1612 236.211C86.0526 236.211 89.2073 233.057 89.2073 229.165C89.2073 225.274 86.0526 222.119 82.1612 222.119C78.2697 222.119 75.1151 225.274 75.1151 229.165C75.1151 233.057 78.2697 236.211 82.1612 236.211Z" fill="#F2EBEB"/>
<path d="M69.0362 91.4214C71.1726 91.4214 72.9046 89.6895 72.9046 87.553C72.9046 85.4165 71.1726 83.6846 69.0362 83.6846C66.8997 83.6846 65.1677 85.4165 65.1677 87.553C65.1677 89.6895 66.8997 91.4214 69.0362 91.4214Z" fill="#F2EBEB"/>
<path d="M240.353 132.454C243.061 132.454 245.257 130.258 245.257 127.549C245.257 124.84 243.061 122.645 240.353 122.645C237.644 122.645 235.448 124.84 235.448 127.549C235.448 130.258 237.644 132.454 240.353 132.454Z" fill="#F2EBEB"/>
<path d="M246.639 72.6312C250.53 72.6312 253.685 69.4766 253.685 65.5852C253.685 61.6937 250.53 58.5391 246.639 58.5391C242.747 58.5391 239.593 61.6937 239.593 65.5852C239.593 69.4766 242.747 72.6312 246.639 72.6312Z" fill="#F2EBEB"/>
</svg>
