<svg  viewBox="0 0 373 183" fill="none" xmlns="http://www.w3.org/2000/svg">
<path d="M39.0354 67.4219C39.0354 67.4219 79.1264 107.513 79.1264 110.284V183.001H0.527761C0.527761 183.001 -0.659701 108.7 0.527761 107.174C1.71522 105.647 39.0354 67.4219 39.0354 67.4219Z" fill="#F2EBEB"/>
<path d="M176.724 105.534L145.85 67.4219H39.0354L79.1264 110.284L176.724 105.534Z" fill="#EA8383"/>
<path d="M49.1269 68.0089L48.7133 68.3945L87.5803 110.089L87.9939 109.703L49.1269 68.0089Z" fill="#F2EBEB"/>
<path d="M62.098 67.246L61.6748 67.6211L98.7691 109.474L99.1922 109.099L62.098 67.246Z" fill="#F2EBEB"/>
<path d="M74.1389 67.4494L73.7252 67.835L111.937 108.826L112.35 108.44L74.1389 67.4494Z" fill="#F2EBEB"/>
<path d="M87.0981 66.7099L86.6749 67.085L123.207 108.304L123.63 107.928L87.0981 66.7099Z" fill="#F2EBEB"/>
<path d="M99.3633 66.8879L98.9497 67.2734L136.352 107.396L136.765 107.01L99.3633 66.8879Z" fill="#F2EBEB"/>
<path d="M113.223 67.1552L112.8 67.5303L147.869 107.098L148.292 106.723L113.223 67.1552Z" fill="#F2EBEB"/>
<path d="M125.958 67.269L125.541 67.6504L161.006 106.476L161.423 106.094L125.958 67.269Z" fill="#F2EBEB"/>
<path d="M137.743 67.3128L137.326 67.6943L172.316 105.961L172.733 105.58L137.743 67.3128Z" fill="#F2EBEB"/>
<path d="M79.1265 183V110.282L176.724 105.532V181.304L79.1265 183Z" fill="#F2EBEB"/>
<path d="M79.1265 183.002C79.0134 176.951 78.9003 170.901 78.8437 164.85L78.6741 146.699L78.6176 128.548C78.6176 122.498 78.561 116.447 78.6176 110.397L78.7872 110.736L68.7786 99.9924L63.8025 94.6206L58.8265 89.1922L48.931 78.3919C45.6513 74.773 42.3717 71.1541 39.092 67.5352C42.5413 71.041 45.8775 74.5468 49.2703 78.0527L59.392 88.6833L64.4811 93.9986L69.5137 99.3139L79.5788 110.001L79.7485 110.171V110.397C79.805 116.447 79.7485 122.498 79.7485 128.548L79.6919 146.699L79.5223 164.85C79.2961 170.844 79.2396 176.951 79.1265 183.002Z" fill="#000001"/>
<path d="M153.314 9.40378C147.038 7.8205 100.105 -4.28031 98.6347 1.60046C97.5038 6.23721 86.1381 64.8187 81.2751 89.8684H140.705C147.999 59.051 157.612 10.4781 153.314 9.40378Z" fill="#E1C692"/>
<path d="M142.175 11.778C140.309 10.9863 110.849 5.16211 110.849 5.16211C106.212 9.17686 104.289 7.70667 102.197 8.95068C100.105 10.1947 84.7245 89.8112 84.7245 89.8112L84.8941 89.8677H136.577C143.023 65.7792 151.675 20.0902 151.675 20.0902C142.854 18.4504 144.041 12.5131 142.175 11.778Z" fill="#F2EBEB"/>
<path d="M115.712 71.0377C115.712 71.0377 97.8431 69.6241 102.423 51.8122C106.042 37.8454 126.908 40.4465 130.413 47.854C134.824 57.0709 132.619 69.8503 115.712 71.0377Z" fill="#E1C692"/>
<path d="M120.461 60.9731C120.348 61.1992 122.61 62.1605 122.61 62.1605C122.61 62.1605 126.568 58.2589 123.797 54.131C121.027 50.0032 116.842 53.0001 114.976 56.1667C113.11 59.3332 110 56.2232 111.131 54.5834C111.81 53.6221 112.432 52.6043 112.997 51.5299L111.414 50.7383C111.414 50.7383 107.738 54.6399 109.774 57.4107C111.81 60.1814 114.298 60.5772 116.729 57.3541C119.161 54.131 124.25 53.4525 120.461 60.9731Z" fill="#F2EBEB"/>
<path d="M123.334 56.9209L122.973 58.4043L125.72 59.0735L126.081 57.5901L123.334 56.9209Z" fill="#F2EBEB"/>
<path d="M107.131 52.9736L106.77 54.457L109.682 55.1664L110.043 53.683L107.131 52.9736Z" fill="#F2EBEB"/>
<path d="M123.515 35.8672C122.893 35.5279 117.465 32.3048 116.956 29.5906C116.843 28.9686 117.012 28.3466 117.408 27.8942C118.256 26.9329 119.613 26.5371 121.197 26.8198C120.914 25.9151 120.914 25.0104 121.197 24.1056C121.366 23.5402 121.875 23.1444 122.497 23.1444C122.158 21.6176 122.441 20.4867 123.345 20.0343C124.533 19.4689 126.455 19.1862 126.964 20.0343C127.134 20.3171 127.304 20.8825 126.399 21.6176L125.72 20.7129L125.833 20.6563C125.155 20.6563 124.476 20.7694 123.911 21.1087C123.458 21.3349 123.572 22.2396 123.628 22.4658C123.685 22.7485 123.741 23.0313 123.854 23.314C125.494 23.7664 126.399 24.7276 126.342 25.5758C126.286 26.1413 125.833 26.5936 125.211 26.5936H125.155C124.25 26.5936 123.458 25.4627 122.95 24.2753H122.78C122.497 24.2187 122.441 24.3318 122.384 24.3884C122.101 24.7842 122.158 25.9716 122.554 27.1591C123.741 27.5549 124.872 28.29 125.098 29.1948C125.211 29.6471 125.042 30.0429 124.646 30.3257C124.194 30.6649 123.572 30.6649 123.119 30.2691C122.441 29.6471 121.932 28.912 121.649 28.0638C120.518 27.7811 119.104 27.7811 118.313 28.6858C118.143 28.912 118.03 29.1948 118.087 29.4775C118.426 31.3435 122.497 34.0577 124.08 34.9624L123.515 35.8672ZM123.232 28.6858C123.572 29.1948 123.798 29.4209 123.911 29.4209L123.967 29.3644C123.911 29.2513 123.685 28.9686 123.232 28.6858ZM124.42 24.7842C124.646 25.18 124.929 25.4062 125.042 25.4062C124.929 25.18 124.702 24.9538 124.42 24.7842Z" fill="#000001"/>
<path d="M110.736 89.4728C110.453 89.4728 110.17 89.3597 109.944 89.19C109.265 88.568 108.757 87.8329 108.474 86.9847C107.286 86.702 105.929 86.702 105.138 87.6067L104.289 86.8717C105.138 85.9104 106.495 85.5146 108.078 85.7407C107.795 84.836 107.795 83.9313 108.078 83.0265C108.248 82.4611 108.757 82.0653 109.379 82.0653C109.039 80.5385 109.322 79.4076 110.227 78.9552C111.414 78.3898 113.28 78.1071 113.846 78.9552C114.015 79.238 114.185 79.8034 113.28 80.5385L112.602 79.6338L112.715 79.5772C112.036 79.5772 111.358 79.6903 110.792 80.0296C110.34 80.2558 110.453 81.1605 110.509 81.3867C110.566 81.6694 110.623 81.9522 110.736 82.2349C112.375 82.6873 113.28 83.6485 113.224 84.4967C113.167 85.0622 112.715 85.5146 112.093 85.5146C111.188 85.5711 110.396 84.3836 109.887 83.1962H109.718C109.435 83.1396 109.379 83.2527 109.322 83.3093C109.039 83.7051 109.096 84.8926 109.492 86.08C110.679 86.4758 111.81 87.2109 112.036 88.1157C112.149 88.568 111.923 88.9639 111.584 89.2466C111.245 89.3597 111.018 89.4728 110.736 89.4728ZM110.057 87.6067C110.396 88.1157 110.623 88.3418 110.736 88.3418C110.736 88.3418 110.736 88.2853 110.792 88.2853C110.792 88.1722 110.566 87.8895 110.057 87.6067ZM111.245 83.7051C111.471 84.1009 111.753 84.3271 111.867 84.3271C111.753 84.1009 111.584 83.8747 111.245 83.7051Z" fill="#000001"/>
<path d="M167.394 16.4149C166.603 16.5845 165.755 16.641 164.963 16.6976C164.171 16.6976 163.323 16.6976 162.531 16.6411C161.74 16.5845 160.892 16.4714 160.1 16.3583C159.308 16.2452 158.46 16.019 157.725 15.7363C158.517 15.5667 159.365 15.5101 160.213 15.4536C161.853 15.397 163.493 15.5101 165.076 15.7929C165.811 15.906 166.659 16.1321 167.394 16.4149Z" fill="#E1C692"/>
<path d="M168.978 8.95117C168.13 9.46008 167.168 9.8559 166.264 10.1952C165.359 10.5345 164.398 10.8737 163.436 11.1565C162.475 11.4392 161.514 11.6654 160.552 11.8916C159.591 12.1177 158.573 12.2308 157.612 12.2874C158.46 11.7785 159.422 11.3826 160.326 11.0434C161.231 10.7041 162.192 10.3648 163.154 10.0821C164.115 9.79936 165.076 9.57317 166.037 9.34699C166.999 9.17735 167.96 9.00772 168.978 8.95117Z" fill="#E1C692"/>
<path d="M156.764 7.3689C156.877 6.97308 157.047 6.63381 157.273 6.29453C157.669 5.67253 158.234 5.16362 158.856 4.7678C159.195 4.54161 159.591 4.37198 159.93 4.31543C159.817 4.71125 159.648 5.05052 159.421 5.3898C159.195 5.72907 158.969 6.0118 158.743 6.23798C158.46 6.52071 158.177 6.7469 157.895 6.91654C157.555 7.14272 157.16 7.31235 156.764 7.3689Z" fill="#E1C692"/>
<path d="M144.72 89.8682C139.291 90.0944 133.806 90.264 128.378 90.3206C122.949 90.4337 117.465 90.4337 112.036 90.4337C106.608 90.4337 101.123 90.3771 95.6944 90.3206C90.266 90.264 84.7811 90.0944 79.3527 89.8682C84.7811 89.642 90.266 89.5289 95.6944 89.4158C101.123 89.3027 106.608 89.3027 112.036 89.3027C117.465 89.3027 122.949 89.3593 128.378 89.4158C133.806 89.4724 139.291 89.642 144.72 89.8682Z" fill="#000001"/>
<path d="M234.906 67.4219C234.906 67.4219 274.997 107.513 274.997 110.284V183.001H196.398C196.398 183.001 195.211 108.7 196.398 107.174C197.586 105.647 234.906 67.4219 234.906 67.4219Z" fill="#F2EBEB"/>
<path d="M372.595 105.534L341.721 67.4219H234.906L274.997 110.284L372.595 105.534Z" fill="#EA8383"/>
<path d="M244.998 68.0089L244.584 68.3945L283.451 110.089L283.865 109.703L244.998 68.0089Z" fill="#F2EBEB"/>
<path d="M257.969 67.246L257.545 67.6211L294.64 109.474L295.063 109.099L257.969 67.246Z" fill="#F2EBEB"/>
<path d="M270.01 67.4494L269.596 67.835L307.807 108.826L308.221 108.44L270.01 67.4494Z" fill="#F2EBEB"/>
<path d="M282.969 66.7099L282.546 67.085L319.077 108.304L319.5 107.928L282.969 66.7099Z" fill="#F2EBEB"/>
<path d="M295.234 66.8879L294.82 67.2734L332.222 107.396L332.636 107.01L295.234 66.8879Z" fill="#F2EBEB"/>
<path d="M309.094 67.1552L308.671 67.5303L343.74 107.098L344.163 106.723L309.094 67.1552Z" fill="#F2EBEB"/>
<path d="M321.829 67.269L321.412 67.6504L356.877 106.476L357.294 106.094L321.829 67.269Z" fill="#F2EBEB"/>
<path d="M333.614 67.3128L333.197 67.6943L368.187 105.961L368.604 105.58L333.614 67.3128Z" fill="#F2EBEB"/>
<path d="M274.997 183V110.282L372.595 105.532V181.304L274.997 183Z" fill="#F2EBEB"/>
<path d="M274.997 183.002C274.884 176.951 274.771 170.901 274.714 164.85L274.545 146.699L274.488 128.548C274.488 122.498 274.431 116.447 274.488 110.397L274.658 110.736L264.649 99.9924L259.673 94.6206L254.697 89.1922L244.801 78.3919C241.522 74.773 238.242 71.1541 234.963 67.5352C238.412 71.041 241.748 74.5468 245.141 78.0527L255.262 88.6833L260.352 93.9986L265.384 99.3139L275.449 110.001L275.619 110.171V110.397C275.675 116.447 275.619 122.498 275.619 128.548L275.562 146.699L275.393 164.85C275.167 170.844 275.11 176.951 274.997 183.002Z" fill="#000001"/>
<path d="M349.185 9.40378C342.909 7.8205 295.976 -4.28031 294.506 1.60046C293.375 6.23721 282.009 64.8187 277.146 89.8684H336.576C343.87 59.051 353.483 10.4781 349.185 9.40378Z" fill="#E1C692"/>
<path d="M338.046 11.778C336.18 10.9863 306.719 5.16211 306.719 5.16211C302.083 9.17686 300.16 7.70667 298.068 8.95068C295.976 10.1947 280.595 89.8112 280.595 89.8112L280.765 89.8677H332.448C338.894 65.7792 347.546 20.0902 347.546 20.0902C338.724 18.4504 339.912 12.5131 338.046 11.778Z" fill="#F2EBEB"/>
<path d="M311.582 71.0377C311.582 71.0377 293.714 69.6241 298.294 51.8122C301.913 37.8454 322.778 40.4465 326.284 47.854C330.695 57.0709 328.49 69.8503 311.582 71.0377Z" fill="#E1C692"/>
<path d="M316.332 60.9731C316.219 61.1992 318.481 62.1605 318.481 62.1605C318.481 62.1605 322.439 58.2589 319.668 54.131C316.898 50.0032 312.713 53.0001 310.847 56.1667C308.981 59.3332 305.871 56.2232 307.002 54.5834C307.681 53.6221 308.303 52.6043 308.868 51.5299L307.285 50.7383C307.285 50.7383 303.609 54.6399 305.645 57.4107C307.681 60.1814 310.169 60.5772 312.6 57.3541C315.032 54.131 320.121 53.4525 316.332 60.9731Z" fill="#F2EBEB"/>
<path d="M319.205 56.9209L318.844 58.4043L321.591 59.0735L321.952 57.5901L319.205 56.9209Z" fill="#F2EBEB"/>
<path d="M303.002 52.9736L302.641 54.457L305.553 55.1664L305.914 53.683L303.002 52.9736Z" fill="#F2EBEB"/>
<path d="M319.386 35.8672C318.764 35.5279 313.335 32.3048 312.827 29.5906C312.713 28.9686 312.883 28.3466 313.279 27.8942C314.127 26.9329 315.484 26.5371 317.067 26.8198C316.785 25.9151 316.785 25.0104 317.067 24.1056C317.237 23.5402 317.746 23.1444 318.368 23.1444C318.029 21.6176 318.311 20.4867 319.216 20.0343C320.404 19.4689 322.326 19.1862 322.835 20.0343C323.005 20.3171 323.174 20.8825 322.27 21.6176L321.591 20.7129L321.704 20.6563C321.026 20.6563 320.347 20.7694 319.782 21.1087C319.329 21.3349 319.442 22.2396 319.499 22.4658C319.555 22.7485 319.612 23.0313 319.725 23.314C321.365 23.7664 322.27 24.7276 322.213 25.5758C322.157 26.1413 321.704 26.5936 321.082 26.5936H321.026C320.121 26.5936 319.329 25.4627 318.82 24.2753H318.651C318.368 24.2187 318.311 24.3318 318.255 24.3884C317.972 24.7842 318.029 25.9716 318.425 27.1591C319.612 27.5549 320.743 28.29 320.969 29.1948C321.082 29.6471 320.913 30.0429 320.517 30.3257C320.064 30.6649 319.442 30.6649 318.99 30.2691C318.311 29.6471 317.803 28.912 317.52 28.0638C316.389 27.7811 314.975 27.7811 314.184 28.6858C314.014 28.912 313.901 29.1948 313.957 29.4775C314.297 31.3435 318.368 34.0577 319.951 34.9624L319.386 35.8672ZM319.103 28.6858C319.442 29.1948 319.669 29.4209 319.782 29.4209L319.838 29.3644C319.782 29.2513 319.555 28.9686 319.103 28.6858ZM320.291 24.7842C320.517 25.18 320.799 25.4062 320.913 25.4062C320.799 25.18 320.573 24.9538 320.291 24.7842Z" fill="#000001"/>
<path d="M306.606 89.4728C306.324 89.4728 306.041 89.3597 305.815 89.19C305.136 88.568 304.627 87.8329 304.345 86.9847C303.157 86.702 301.8 86.702 301.008 87.6067L300.16 86.8717C301.008 85.9104 302.366 85.5146 303.949 85.7407C303.666 84.836 303.666 83.9313 303.949 83.0265C304.118 82.4611 304.627 82.0653 305.249 82.0653C304.91 80.5385 305.193 79.4076 306.098 78.9552C307.285 78.3898 309.151 78.1071 309.717 78.9552C309.886 79.238 310.056 79.8034 309.151 80.5385L308.472 79.6338L308.586 79.5772C307.907 79.5772 307.229 79.6903 306.663 80.0296C306.211 80.2558 306.324 81.1605 306.38 81.3867C306.437 81.6694 306.493 81.9522 306.606 82.2349C308.246 82.6873 309.151 83.6485 309.095 84.4967C309.038 85.0622 308.586 85.5146 307.964 85.5146C307.059 85.5711 306.267 84.3836 305.758 83.1962H305.589C305.306 83.1396 305.249 83.2527 305.193 83.3093C304.91 83.7051 304.967 84.8926 305.362 86.08C306.55 86.4758 307.681 87.2109 307.907 88.1157C308.02 88.568 307.794 88.9639 307.455 89.2466C307.115 89.3597 306.889 89.4728 306.606 89.4728ZM305.928 87.6067C306.267 88.1157 306.493 88.3418 306.606 88.3418C306.606 88.3418 306.606 88.2853 306.663 88.2853C306.663 88.1722 306.437 87.8895 305.928 87.6067ZM307.115 83.7051C307.342 84.1009 307.624 84.3271 307.737 84.3271C307.624 84.1009 307.455 83.8747 307.115 83.7051Z" fill="#000001"/>
<path d="M363.265 16.4149C362.474 16.5845 361.625 16.641 360.834 16.6976C360.042 16.6976 359.194 16.6976 358.402 16.6411C357.611 16.5845 356.763 16.4714 355.971 16.3583C355.179 16.2452 354.331 16.019 353.596 15.7363C354.388 15.5667 355.236 15.5101 356.084 15.4536C357.724 15.397 359.364 15.5101 360.947 15.7929C361.682 15.906 362.53 16.1321 363.265 16.4149Z" fill="#E1C692"/>
<path d="M364.849 8.95117C364 9.46008 363.039 9.8559 362.134 10.1952C361.23 10.5345 360.268 10.8737 359.307 11.1565C358.346 11.4392 357.385 11.6654 356.423 11.8916C355.462 12.1177 354.444 12.2308 353.483 12.2874C354.331 11.7785 355.292 11.3826 356.197 11.0434C357.102 10.7041 358.063 10.3648 359.024 10.0821C359.986 9.79936 360.947 9.57317 361.908 9.34699C362.87 9.17735 363.831 9.00772 364.849 8.95117Z" fill="#E1C692"/>
<path d="M352.635 7.3689C352.748 6.97308 352.917 6.63381 353.144 6.29453C353.539 5.67253 354.105 5.16362 354.727 4.7678C355.066 4.54161 355.462 4.37198 355.801 4.31543C355.688 4.71125 355.518 5.05052 355.292 5.3898C355.066 5.72907 354.84 6.0118 354.614 6.23798C354.331 6.52071 354.048 6.7469 353.766 6.91654C353.426 7.14272 353.03 7.31235 352.635 7.3689Z" fill="#E1C692"/>
<path d="M340.59 89.8682C335.162 90.0944 329.677 90.264 324.249 90.3206C318.82 90.4337 313.335 90.4337 307.907 90.4337C302.478 90.4337 296.994 90.3771 291.565 90.3206C286.137 90.264 280.652 90.0944 275.223 89.8682C280.652 89.642 286.137 89.5289 291.565 89.4158C296.994 89.3027 302.478 89.3027 307.907 89.3027C313.335 89.3027 318.82 89.3593 324.249 89.4158C329.677 89.4724 335.162 89.642 340.59 89.8682Z" fill="#000001"/>
</svg>
