<svg viewBox="0 0 146 173" fill="none" xmlns="http://www.w3.org/2000/svg">
<path d="M74.3968 104.158C74.0476 103.033 73.5044 101.985 72.806 101.054C72.1464 100.123 71.254 99.3855 70.2064 98.9587C69.1588 98.5707 68.0336 98.5319 66.9472 98.8035C65.8608 99.1139 64.852 99.6183 63.9596 100.317C63.0672 101.015 62.2524 101.83 61.5928 102.761C60.9332 103.692 60.39 104.701 60.0408 105.787C59.8468 106.331 59.7304 106.874 59.6916 107.456C59.614 108.038 59.614 108.581 59.6916 109.163C59.808 110.327 60.196 111.413 60.8168 112.422C60.0408 111.491 59.5364 110.405 59.3036 109.241C59.0708 108.038 59.1484 106.796 59.4588 105.632C60.1184 103.265 61.5152 101.209 63.494 99.7347C64.464 98.9975 65.5892 98.4155 66.7532 98.1439C67.956 97.8335 69.2752 97.9499 70.4004 98.4543C71.5256 98.9975 72.4568 99.8511 73.0776 100.899C73.7372 101.83 74.164 102.955 74.3968 104.158Z" fill="#000001"/>
<path d="M23.1032 139.582L15.188 167.518H3.39282C3.39282 167.518 12.1228 124.101 10.8036 117.971L23.1032 139.582Z" fill="#000001"/>
<path d="M4.36283 167.092C4.36283 167.092 3.16003 171.088 3.74203 171.437C4.32403 171.786 21.396 171.631 21.6288 171.01C21.8616 170.39 16.1192 169.342 16.1192 169.342L12.5884 167.053H4.36283V167.092Z" fill="#000001"/>
<path d="M29.2336 113.936C29.2336 113.936 41.2228 142.415 36.6444 167.518H27.3712C27.3712 167.518 24.888 147.924 19.7276 138.457C14.5672 128.99 8.5144 116.419 8.5144 116.419L29.2336 113.936Z" fill="#E1C692"/>
<path d="M27.8756 167.519C27.8756 167.519 26.6728 171.554 27.2548 171.903C27.8368 172.252 44.9088 172.097 45.1416 171.476C45.3744 170.855 39.632 169.808 39.632 169.808L36.1012 167.519H27.8756Z" fill="#000001"/>
<path d="M38.7784 107.805C38.7784 107.805 45.9176 117.117 47.0816 117.117C48.2456 117.117 52.5524 113.936 52.5524 113.936L44.6372 96.3203L38.7784 107.805Z" fill="#000001"/>
<path d="M52.5136 113.936L54.4148 115.138C54.4148 115.138 53.8716 115.177 53.9104 116.38C53.9492 117.583 54.9968 121.308 54.9968 122.122C54.2208 121.928 53.5612 121.424 53.1344 120.764C52.4748 119.678 47.004 117.117 47.004 117.117L52.5136 113.936Z" fill="#EA8383"/>
<path d="M51.7376 75.4462C51.7376 75.4462 49.4096 80.335 49.2156 80.2574C49.0216 80.1798 48.6724 79.6366 48.6724 79.6366C47.1204 82.0422 45.1804 84.1374 42.8912 85.8446C42.8912 85.8446 39.3216 81.9646 39.0112 78.7054C39.0112 78.7054 47.586 69.3158 48.6724 69.7426C49.7588 70.1694 51.7376 75.4462 51.7376 75.4462Z" fill="#EA8383"/>
<path d="M46.6548 72.6525C46.6548 72.6525 45.4132 74.9805 44.9088 75.1357C44.4044 75.2909 44.1328 73.3121 44.1328 73.3121C44.1328 73.3121 47.7024 68.6949 48.6336 68.5397C49.5648 68.3845 55.54 79.5589 54.4924 79.2097C53.4448 78.8605 51.6988 75.4073 51.6988 75.4073L49.0604 72.6913C49.0992 72.7301 47.6248 73.1957 46.6548 72.6525Z" fill="#A04040"/>
<path d="M44.1716 73.4287C44.1716 73.4287 43.318 71.5663 44.8312 70.6739C46.3444 69.7815 45.3356 73.3123 45.3356 73.3123L44.1716 73.4287Z" fill="#EA8383"/>
<path d="M46.9264 75.2129C46.9264 75.2129 48.7112 75.7561 48.3232 77.3469C48.2844 77.4633 48.168 77.5409 48.0516 77.5021H48.0128C47.5084 77.2693 46.3444 76.6097 46.9264 75.2129Z" fill="#F2EBEB"/>
<path d="M46.8489 75.1748C47.1205 75.1748 47.3921 75.2524 47.6249 75.4076C47.8577 75.524 48.0905 75.718 48.2457 75.9508C48.4009 76.1836 48.5173 76.4552 48.5173 76.7656C48.5173 77.0372 48.4397 77.3088 48.2457 77.5416C48.3233 77.076 48.2069 76.5716 47.9353 76.1836C47.7801 75.9896 47.6249 75.8344 47.4697 75.6404C47.2757 75.4852 47.0429 75.33 46.8489 75.1748Z" fill="#000001"/>
<path d="M48.2457 76.3C48.2457 76.3 47.7413 76.106 47.3145 77.0372C47.3145 77.0372 48.168 77.852 48.3232 77.464C48.2844 77.464 48.5561 76.5328 48.2457 76.3Z" fill="#000001"/>
<path d="M45.9177 77.1533C45.8789 77.3473 45.8789 77.5413 45.9565 77.7353C45.9565 77.8129 45.9953 77.8905 46.0341 77.9681C46.0729 78.0845 46.1117 78.2009 46.1505 78.3173C46.0341 78.3173 45.8789 78.2785 45.8013 78.1621C45.6849 78.0845 45.6073 77.9681 45.5685 77.8129C45.5297 77.6577 45.5297 77.5025 45.6073 77.3861C45.6849 77.2697 45.8013 77.1921 45.9177 77.1533Z" fill="#000001"/>
<path d="M47.8188 74.2821C48.0904 74.2433 48.362 74.2821 48.5948 74.3985C48.8276 74.4761 49.0216 74.6313 49.2156 74.7865C49.6036 75.1357 49.8364 75.6013 49.8364 76.1057C49.6036 76.0281 49.4096 75.8729 49.2156 75.7565C49.0216 75.6401 48.8664 75.4849 48.7112 75.3297C48.556 75.1745 48.4008 75.0193 48.2844 74.8641C48.0904 74.7089 47.974 74.4761 47.8188 74.2821Z" fill="#000001"/>
<path d="M63.3388 97.4849C56.898 95.8553 48.1292 88.9489 43.2792 85.6897C40.5244 80.1801 35.7908 77.9685 32.1048 79.0161C26.3624 80.6845 1.25882 108.077 0.599217 110.134C-0.0603834 112.19 29.2724 129.34 29.2724 129.34C37.0712 122.006 42.5032 107.418 44.5596 101.21C52.8628 102.723 63.3 103.46 63.3 103.46C63.9596 101.986 63.3388 97.4849 63.3388 97.4849Z" fill="#F2EBEB"/>
<path d="M63.3389 97.4847C63.3389 97.4847 66.0549 97.0191 67.1801 97.1743C68.3053 97.3295 68.6157 97.9891 68.6157 97.9891C68.6157 97.9891 66.6757 97.9115 66.8697 98.4159C67.0637 98.9203 68.6157 98.6487 68.6157 98.6487C68.6157 98.6487 68.9649 100.589 68.6157 100.783C68.3053 100.938 67.9949 101.132 67.7233 101.365C67.7233 101.365 68.1889 102.102 66.8697 102.102C66.8697 102.102 67.1413 102.839 65.6669 102.839C64.9685 102.8 64.2701 102.878 63.5717 103.072L63.3389 97.4847Z" fill="#EA8383"/>
<path d="M35.4028 78.8994C35.4028 78.8994 39.8648 76.8042 40.1752 76.9594C40.4856 77.1146 43.9 84.9134 43.706 85.961C43.512 87.0086 35.4804 79.6366 35.4028 78.8994Z" fill="#F2EBEB"/>
<mask id="mask0_56_4374" style="mask-type:luminance" maskUnits="userSpaceOnUse" x="0" y="78" width="64" height="52">
<path d="M63.3388 97.5229C56.898 95.8933 48.1292 88.9869 43.2792 85.7277C40.5244 80.2181 35.7908 78.0065 32.1048 79.0541C26.3624 80.7225 1.25882 108.115 0.599217 110.172C-0.0603834 112.228 29.2724 129.378 29.2724 129.378C37.0712 122.045 42.5032 107.456 44.5596 101.248C52.8628 102.761 63.3 103.498 63.3 103.498C63.9596 102.024 63.3388 97.5229 63.3388 97.5229Z" fill="white"/>
</mask>
<g mask="url(#mask0_56_4374)">
<path d="M74.1253 150.408H74.0865L-30.4795 117.505C-30.5959 117.467 -30.6347 117.35 -30.5959 117.273C-30.5571 117.156 -30.4407 117.117 -30.3631 117.156L74.1641 150.02C74.2805 150.02 74.3581 150.136 74.3193 150.253C74.3193 150.369 74.2029 150.408 74.1253 150.408Z" fill="#E1C692"/>
<path d="M76.2205 143.036H76.1817L-28.7336 112.074C-28.85 112.035 -28.8888 111.957 -28.85 111.841C-28.8112 111.725 -28.6948 111.686 -28.6172 111.725L76.2981 142.648C76.4145 142.687 76.4533 142.765 76.4145 142.881C76.4145 142.959 76.3369 143.036 76.2205 143.036Z" fill="#E1C692"/>
<path d="M78.1992 136.129H78.1604L-26.9876 106.059C-27.104 106.02 -27.1428 105.904 -27.1428 105.826C-27.104 105.71 -27.0264 105.671 -26.91 105.71L78.238 135.78C78.3544 135.819 78.3932 135.935 78.3932 136.013C78.3544 136.09 78.2768 136.129 78.1992 136.129Z" fill="#E1C692"/>
<path d="M80.0617 129.611H80.0229L-25.3579 100.162C-25.4743 100.123 -25.5131 100.006 -25.4743 99.9288C-25.4355 99.8124 -25.3191 99.7736 -25.2415 99.8124L80.1393 129.262C80.2557 129.3 80.2945 129.417 80.2557 129.494C80.2169 129.572 80.1393 129.611 80.0617 129.611Z" fill="#E1C692"/>
<path d="M82.0793 122.588H82.0405L-23.9223 95.2337C-24.0387 95.1949 -24.0775 95.1173 -24.0775 95.0009C-24.0775 94.8845 -23.9611 94.8457 -23.8447 94.8457L82.1181 122.2C82.2345 122.239 82.2733 122.316 82.2733 122.433C82.2733 122.51 82.1957 122.588 82.0793 122.588Z" fill="#E1C692"/>
<path d="M83.8252 116.613H83.7864L-22.3704 89.9183C-22.4868 89.8795 -22.5256 89.8019 -22.5256 89.6855C-22.4868 89.5691 -22.4092 89.5303 -22.2928 89.5303L83.864 116.225C83.9804 116.225 84.058 116.341 84.0192 116.457C83.9804 116.574 83.9416 116.613 83.8252 116.613Z" fill="#E1C692"/>
<path d="M84.9117 112.811H84.8729L-21.4003 86.5042C-21.5167 86.4654 -21.5555 86.3878 -21.5555 86.2714C-21.5167 86.155 -21.4391 86.1162 -21.3227 86.1162L84.9117 112.423C85.0281 112.423 85.1057 112.539 85.0669 112.655C85.0281 112.772 84.9893 112.849 84.9117 112.811Z" fill="#E1C692"/>
<path d="M85.8428 109.552H85.804L-20.1588 82.1976C-20.2752 82.1588 -20.314 82.0812 -20.314 81.9648C-20.314 81.8484 -20.1976 81.8096 -20.0812 81.8096L85.8816 109.164C85.998 109.202 86.0368 109.28 86.0368 109.396C85.998 109.513 85.9204 109.552 85.8428 109.552Z" fill="#E1C692"/>
<path d="M-10.3812 149.205H-10.42C-10.5364 149.167 -10.5752 149.089 -10.5364 148.973L14.8 60.3145C14.8388 60.1981 14.9552 60.1593 15.0328 60.1981C15.1492 60.2369 15.188 60.3145 15.1492 60.4309L-10.1872 149.05C-10.226 149.128 -10.3036 149.205 -10.3812 149.205Z" fill="#E1C692"/>
<path d="M-15.7355 147.537H-15.7743C-15.8907 147.498 -15.9295 147.382 -15.8907 147.304L10.2217 60.1593C10.2605 60.0429 10.3769 60.0041 10.4545 60.0429C10.5709 60.0817 10.6097 60.1981 10.5709 60.2757L-15.5415 147.382C-15.5803 147.459 -15.6579 147.537 -15.7355 147.537Z" fill="#E1C692"/>
<path d="M10.0276 159.642H9.95004C9.83364 159.603 9.79484 159.487 9.83364 159.409L44.4432 48.6739C44.482 48.5575 44.5984 48.5187 44.676 48.5575C44.7924 48.5963 44.8312 48.6739 44.7924 48.7903L10.2216 159.487C10.1828 159.564 10.1052 159.642 10.0276 159.642Z" fill="#E1C692"/>
<path d="M4.71199 157.897H4.67319C4.55679 157.858 4.51799 157.741 4.55679 157.664L37.2264 46.6183C37.2652 46.5019 37.3816 46.4631 37.4592 46.5019C37.5756 46.5407 37.6144 46.6183 37.5756 46.7347L4.86719 157.741C4.86719 157.819 4.78959 157.897 4.71199 157.897Z" fill="#E1C692"/>
<path d="M-1.1856 156.189H-1.2244C-1.3408 156.15 -1.3796 156.034 -1.3408 155.956L30.514 44.6777C30.5528 44.5613 30.6304 44.5225 30.7468 44.5225C30.8632 44.5613 30.902 44.6777 30.8632 44.7553L-0.991598 156.072C-1.0304 156.15 -1.108 156.189 -1.1856 156.189Z" fill="#E1C692"/>
<path d="M-6.96672 154.598H-7.00552C-7.12192 154.56 -7.16072 154.443 -7.12192 154.366L24.1121 42.8544C24.1509 42.738 24.2673 42.6992 24.3449 42.6992C24.4613 42.738 24.5001 42.8544 24.5001 42.932L-6.77272 154.443C-6.81152 154.521 -6.88912 154.598 -6.96672 154.598Z" fill="#E1C692"/>
<path d="M-11.7779 153.162H-11.8167C-11.9331 153.123 -11.9719 153.046 -11.9719 152.929L17.1669 40.8749C17.2057 40.7585 17.2833 40.7197 17.3997 40.7197C17.5161 40.7585 17.5549 40.8361 17.5161 40.9525L-11.5839 153.007C-11.6227 153.123 -11.7003 153.162 -11.7779 153.162Z" fill="#E1C692"/>
<path d="M-16.9771 151.649H-17.0159C-17.1323 151.61 -17.1711 151.533 -17.1711 151.416L11.3469 39.1679C11.3857 39.0515 11.4633 39.0127 11.5797 39.0127C11.6961 39.0515 11.7349 39.1291 11.7349 39.2455L-16.7831 151.494C-16.8219 151.61 -16.8995 151.649 -16.9771 151.649Z" fill="#E1C692"/>
<path d="M-20.3139 150.719H-20.3527C-20.4691 150.68 -20.5079 150.602 -20.5079 150.486L7.62207 38.121C7.66087 38.0046 7.73847 37.9658 7.85487 37.9658C7.97127 38.0046 8.01007 38.0822 8.01007 38.1986L-20.1199 150.563C-20.1587 150.641 -20.2363 150.719 -20.3139 150.719Z" fill="#E1C692"/>
<path d="M-24.5432 149.477H-24.582C-24.6984 149.438 -24.7372 149.36 -24.7372 149.244L4.40162 37.1894C4.44042 37.073 4.51802 37.0342 4.63442 37.0342C4.75082 37.0342 4.78962 37.1506 4.78962 37.267L-24.3492 149.36C-24.3492 149.438 -24.4268 149.477 -24.5432 149.477Z" fill="#E1C692"/>
<path d="M71.0601 103.771H71.0213L-15.0371 76.145C-15.1535 76.1062 -15.1923 75.9898 -15.1535 75.9122C-15.1147 75.7958 -14.9983 75.757 -14.9207 75.7958L71.0989 103.383C71.2153 103.383 71.2929 103.499 71.2541 103.615C71.2541 103.732 71.1377 103.809 71.0601 103.771Z" fill="#E1C692"/>
<path d="M73.1552 96.359H73.1164L-13.2912 70.7122C-13.4076 70.6734 -13.4464 70.557 -13.4464 70.4794C-13.4076 70.363 -13.2912 70.3242 -13.2136 70.3242L73.194 95.971C73.3104 96.0098 73.3492 96.1262 73.3104 96.2038C73.3104 96.3202 73.2328 96.359 73.1552 96.359Z" fill="#E1C692"/>
<path d="M75.134 89.4917H75.0952L-11.584 64.6985C-11.7004 64.6597 -11.7392 64.5433 -11.7004 64.4657C-11.6616 64.3493 -11.584 64.3105 -11.4676 64.3105L75.1728 89.1037C75.2892 89.1425 75.328 89.2201 75.2892 89.3365C75.2892 89.4529 75.2116 89.4917 75.134 89.4917Z" fill="#E1C692"/>
<path d="M76.9964 82.9735H76.9576L-9.91556 58.8011C-10.032 58.7623 -10.0708 58.6847 -10.032 58.5683C-9.99316 58.4519 -9.87676 58.4131 -9.79916 58.4131L77.074 82.5855C77.1904 82.5855 77.268 82.7019 77.2292 82.8183C77.1904 82.9347 77.1128 83.0123 76.9964 82.9735Z" fill="#E1C692"/>
<path d="M52.0092 173.92H51.9704C51.854 173.881 51.8152 173.765 51.854 173.687L86.4636 62.9522C86.5024 62.8358 86.6188 62.797 86.6964 62.8358C86.8128 62.8746 86.8516 62.991 86.8516 63.0686L52.242 173.804C52.1644 173.881 52.0868 173.92 52.0092 173.92Z" fill="#E1C692"/>
<path d="M46.6549 172.175H46.6161C46.4997 172.136 46.4609 172.02 46.4997 171.942L79.1693 60.8964C79.2081 60.78 79.3245 60.7412 79.4021 60.7412C79.5185 60.78 79.5573 60.8964 79.5573 60.974L46.8489 172.02C46.8489 172.136 46.7713 172.175 46.6549 172.175Z" fill="#E1C692"/>
<path d="M40.796 170.506H40.7572C40.6408 170.468 40.602 170.351 40.6408 170.274L72.4956 58.9952C72.5344 58.8788 72.612 58.84 72.7284 58.8788C72.8448 58.9176 72.8836 59.034 72.8448 59.1116L40.99 170.39C40.9512 170.429 40.8736 170.506 40.796 170.506Z" fill="#E1C692"/>
<path d="M35.0148 168.877H34.976C34.8596 168.838 34.8208 168.76 34.8208 168.644L66.0548 57.1327C66.0936 57.0163 66.21 56.9775 66.2876 56.9775C66.404 57.0163 66.4428 57.1327 66.404 57.2103L35.17 168.722C35.17 168.838 35.0924 168.877 35.0148 168.877Z" fill="#E1C692"/>
<path d="M30.1648 167.441H30.126C30.0096 167.403 29.9708 167.325 29.9708 167.209L59.1096 55.1542C59.1484 55.0378 59.2648 54.999 59.3424 54.999C59.4588 55.0378 59.4976 55.1542 59.4976 55.2318L30.32 167.286C30.3588 167.403 30.2812 167.441 30.1648 167.441Z" fill="#E1C692"/>
<path d="M25.0044 165.927H24.9656C24.8492 165.889 24.8104 165.811 24.8104 165.695L53.2896 53.4462C53.3284 53.3298 53.406 53.291 53.5224 53.291C53.6388 53.291 53.6776 53.4074 53.6776 53.5238L25.1596 165.772C25.1596 165.889 25.082 165.927 25.0044 165.927Z" fill="#E1C692"/>
<path d="M21.6676 164.996H21.6288C21.5124 164.957 21.4736 164.88 21.4736 164.763L49.6036 52.4374C49.6424 52.321 49.72 52.2822 49.8364 52.2822C49.9528 52.321 49.9916 52.3986 49.9916 52.515L21.8616 164.841C21.8228 164.919 21.7452 164.996 21.6676 164.996Z" fill="#E1C692"/>
<path d="M17.4384 163.794H17.3996C17.2832 163.755 17.2444 163.678 17.2444 163.561L46.3832 51.5068C46.422 51.3904 46.4996 51.3516 46.616 51.3516C46.7324 51.3516 46.7712 51.468 46.7712 51.5844L17.5936 163.639C17.5936 163.716 17.516 163.794 17.4384 163.794Z" fill="#E1C692"/>
</g>
<path d="M63.3388 103.421C60.7392 103.459 58.1396 103.343 55.54 103.11C52.9404 102.877 50.3796 102.567 47.8188 102.101C45.258 101.636 42.736 100.976 40.2528 100.084C39.0112 99.6182 37.8472 99.0362 36.722 98.3766C36.4504 98.2214 36.1788 98.0274 35.9072 97.7946L35.5192 97.4842L35.17 97.135C34.7044 96.7082 34.3164 96.165 34.006 95.583C34.782 96.6306 35.752 97.4842 36.916 98.0274C38.0412 98.6094 39.244 99.1138 40.4468 99.5018C41.6496 99.8898 42.93 100.239 44.1716 100.549C45.4132 100.86 46.6936 101.131 47.974 101.325C50.496 101.791 53.0568 102.179 55.6176 102.528C58.1784 102.877 60.778 103.188 63.3388 103.421Z" fill="#000001"/>
<path d="M75.2504 102.218L53.2508 114.673C53.2508 114.673 52.63 126.235 64.3864 132.094L84.8728 119.212C84.8728 119.212 76.9964 102.994 75.2504 102.218Z" fill="#000001"/>
<path d="M92.0508 134.111L72.6508 126.895L66.016 131.085L91.3524 136.711C91.3524 136.711 94.728 140.397 94.9608 140.746C95.1936 141.095 97.0172 132.133 97.0172 132.133L92.0508 134.111Z" fill="#000001"/>
<path d="M95.1936 134.655C95.1936 134.655 93.564 140.281 94.9608 140.708C96.3576 141.135 98.4916 131.473 97.0172 132.094C95.5428 132.715 95.1936 134.655 95.1936 134.655Z" fill="#EA8383"/>
<path d="M95.6592 136.207C95.6592 136.207 95.504 136.944 95.698 136.828C95.892 136.711 96.1636 136.168 95.6592 136.207Z" fill="#000001"/>
<path d="M96.0472 134.19C96.0472 134.19 95.8144 135.121 96.28 134.81C96.7456 134.5 96.3964 134.073 96.0472 134.19Z" fill="#000001"/>
<path d="M94.8057 138.69C94.8057 138.69 95.1937 139.699 95.4265 138.962C95.6593 138.224 94.8057 138.69 94.8057 138.69Z" fill="#000001"/>
<path d="M96.3964 137.177C96.3964 137.177 95.9308 137.992 96.3188 137.759C96.7068 137.526 96.9396 136.867 96.3964 137.177Z" fill="#000001"/>
<path d="M84.9892 117.35C84.5624 117.35 84.0968 117.312 83.67 117.273L83.7864 116.497C86.1144 116.807 91.236 116.109 91.9732 114.596C92.206 114.13 91.9344 113.509 91.1584 112.811C87.356 109.319 75.9488 110.522 75.8324 110.522L75.7548 109.746C76.2204 109.707 87.6664 108.504 91.7016 112.229C92.7492 113.199 93.0596 114.091 92.6716 114.906C91.818 116.691 87.6276 117.35 84.9892 117.35Z" fill="#000001"/>
<path d="M75.6772 109.202C75.522 109.396 73.8924 110.017 75.522 110.677C77.1516 111.336 76.686 109.59 75.522 109.396" fill="#E1C692"/>
<path d="M106.756 145.363C106.756 145.363 105.126 149.942 108.036 149.592C110.946 149.243 106.756 145.363 106.756 145.363Z" fill="#E1C692"/>
<path d="M107.299 153.473C107.299 153.473 105.088 157.042 107.299 156.887C109.511 156.732 107.299 153.473 107.299 153.473Z" fill="#E1C692"/>
<path d="M99.8108 140.746C99.8108 140.746 99.19 145.557 101.673 144.432C104.156 143.307 99.8108 140.746 99.8108 140.746Z" fill="#E1C692"/>
<path d="M101.246 148.933C101.246 148.933 100.432 153.821 102.216 152.735C104.001 151.649 101.246 148.933 101.246 148.933Z" fill="#E1C692"/>
<path d="M14.6836 99.1143C14.6836 99.1143 15.188 91.5095 24.694 89.8023C34.2 88.0951 38.3904 100.86 29.2336 106.215L14.6836 99.1143Z" fill="#000001"/>
<path d="M16.5072 100.123C16.5072 100.123 17.0116 92.5183 26.5176 90.8111C36.0236 89.1039 40.214 101.869 31.0572 107.224L16.5072 100.123Z" fill="#E1C692"/>
<path d="M32.7644 107.961C31.096 107.302 29.4276 106.603 27.798 105.866C26.1684 105.129 24.5388 104.353 22.9092 103.577C21.2796 102.801 19.6888 101.986 18.1368 101.133C16.5848 100.279 14.994 99.4253 13.442 98.4941C15.1104 99.1149 16.7788 99.8521 18.4084 100.589C20.038 101.327 21.6676 102.103 23.2972 102.879C24.9268 103.655 26.5176 104.469 28.1084 105.323C29.6992 106.177 31.2124 107.03 32.7644 107.961Z" fill="#000001"/>
<path d="M34.6656 46.1918C33.8508 43.3206 35.0924 40.2166 37.5756 38.5094C39.438 37.2678 42.0376 36.259 44.9476 37.617C52.2808 40.9926 46.7324 51.0806 42.6584 51.3134C39.7096 51.4686 35.752 49.9554 34.6656 46.1918Z" fill="#000001"/>
<path d="M36.8384 41.5355C36.8384 41.5355 40.3304 33.7367 47.1592 38.5091C52.5136 42.2727 48.0516 51.2355 44.3268 51.6623C39.6708 52.2055 34.588 49.2955 36.8384 41.5355Z" fill="#E1C692"/>
<path d="M41.96 37.1895C40.7184 37.7327 39.5932 38.5087 38.662 39.5175C37.7696 40.5263 37.1488 41.7291 36.8772 43.0095C36.5668 44.2899 36.5668 45.6479 36.916 46.9283C37.304 48.2475 37.9636 49.4503 38.856 50.4591C37.692 49.6055 36.8384 48.4415 36.334 47.0835C36.0624 46.3851 35.946 45.6867 35.9072 44.9495C35.8684 44.2123 35.946 43.5139 36.1012 42.7767C36.2564 42.0783 36.528 41.3799 36.8772 40.7591C37.2264 40.1383 37.692 39.5563 38.1964 39.0519C39.244 38.0819 40.5632 37.4223 41.96 37.1895Z" fill="#000001"/>
<path d="M34.9373 46.6954C35.0537 46.579 35.2089 46.5014 35.3641 46.4626C35.4805 46.4238 35.6357 46.4238 35.7909 46.4238C35.9461 46.4238 36.0625 46.5014 36.1789 46.579C36.3341 46.6566 36.4505 46.773 36.5281 46.9282C36.4117 47.0446 36.2565 47.1222 36.1013 47.161C35.9849 47.1998 35.8297 47.1998 35.6745 47.1998C35.5193 47.161 35.4029 47.1222 35.2865 47.0446C35.1701 46.967 35.0537 46.8506 34.9373 46.6954Z" fill="#000001"/>
<path d="M34.8984 43.8638C34.976 43.7474 35.0924 43.631 35.2476 43.5922C35.364 43.5534 35.4804 43.5146 35.5968 43.5146C35.7132 43.5146 35.8296 43.5534 35.9072 43.631C36.0236 43.7086 36.14 43.825 36.2176 43.9802C36.14 44.0966 36.0236 44.213 35.8684 44.2518C35.6744 44.3682 35.4028 44.3294 35.2088 44.213C35.0536 44.1354 34.976 44.019 34.8984 43.8638Z" fill="#000001"/>
<path d="M35.7908 41.0702C35.8684 40.9538 35.9848 40.8762 36.14 40.7986C36.2564 40.7598 36.334 40.7598 36.4504 40.7598C36.5668 40.7598 36.6444 40.7986 36.7608 40.8762C36.8772 40.9538 36.9548 41.0702 37.0324 41.2254C36.9548 41.3418 36.8384 41.4194 36.6832 41.497C36.4892 41.5746 36.2564 41.5746 36.0624 41.4194C35.946 41.303 35.8296 41.1866 35.7908 41.0702Z" fill="#000001"/>
<path d="M37.1488 39.0519C37.2652 38.9355 37.3816 38.8579 37.5368 38.8191C37.6532 38.7803 37.7696 38.7803 37.886 38.7803C38.0024 38.8191 38.1188 38.8579 38.1964 38.9355C38.3128 39.0131 38.3904 39.1683 38.468 39.2847C38.3516 39.4011 38.2352 39.4787 38.08 39.5175C37.9636 39.5563 37.8472 39.5563 37.7308 39.5175C37.6144 39.4787 37.498 39.4399 37.4204 39.3623C37.304 39.2847 37.2264 39.1683 37.1488 39.0519Z" fill="#000001"/>
<path d="M14.4509 62.9532C14.4897 59.5388 16.9341 56.5124 20.2321 55.5036C22.6765 54.7664 25.8969 54.5336 28.6129 56.978C35.5581 63.1472 26.0909 72.3816 21.5513 71.2564C18.1757 70.4416 14.3733 67.454 14.4509 62.9532Z" fill="#000001"/>
<path d="M18.3696 58.5685C18.3696 58.5685 24.8104 51.1577 30.708 58.7237C35.3252 64.6213 27.41 73.0021 23.1808 72.2261C17.904 71.2561 13.3256 66.3285 18.3696 58.5685Z" fill="#E1C692"/>
<path d="M25.47 55.5038C23.918 55.6202 22.4048 56.1246 21.0468 56.9006C19.7276 57.6766 18.6412 58.8018 17.8652 60.121C17.0892 61.4402 16.6624 62.9534 16.6236 64.4666C16.6236 66.0186 16.934 67.5706 17.5936 69.0062C16.158 66.9886 15.6536 64.4278 16.2356 62.0222C16.6624 60.3926 17.516 58.957 18.68 57.793C20.5424 56.0858 22.9868 55.2322 25.47 55.5038Z" fill="#000001"/>
<path d="M14.5673 63.5737C14.7613 63.4961 14.9165 63.4961 15.1105 63.4961C15.2657 63.4961 15.4209 63.5349 15.5761 63.6125C15.7313 63.6901 15.8477 63.7677 15.9641 63.8841C16.0805 64.0005 16.1969 64.1945 16.2745 64.3497C16.1193 64.4273 15.9253 64.4661 15.7313 64.4273C15.5761 64.4273 15.4209 64.3885 15.2657 64.3109C15.1105 64.2333 14.9941 64.1557 14.8777 64.0393C14.7225 63.9229 14.6449 63.7677 14.5673 63.5737Z" fill="#000001"/>
<path d="M15.4596 60.4697C15.6148 60.3921 15.77 60.3145 15.9252 60.3145C16.0416 60.3145 16.1968 60.3144 16.3132 60.3532C16.4296 60.392 16.546 60.4697 16.6236 60.5861C16.74 60.7025 16.8176 60.8577 16.8564 61.0129C16.7012 61.0905 16.546 61.1681 16.3908 61.1681C16.2744 61.1681 16.1192 61.168 16.0028 61.1292C15.8864 61.0904 15.77 61.0129 15.6924 60.8965C15.576 60.7801 15.4984 60.6637 15.4596 60.4697Z" fill="#000001"/>
<path d="M17.3608 57.7148C17.4772 57.6372 17.6324 57.5984 17.7876 57.5596C17.904 57.5596 18.0204 57.5596 18.1368 57.6372C18.2532 57.676 18.3308 57.7536 18.4084 57.87C18.5248 57.9864 18.5636 58.1416 18.6024 58.2968C18.486 58.3744 18.3308 58.4132 18.1756 58.452C17.9428 58.452 17.71 58.3744 17.5548 58.1804C17.4772 57.9864 17.3996 57.87 17.3608 57.7148Z" fill="#000001"/>
<path d="M19.5336 55.9307C19.6888 55.8531 19.844 55.8143 19.9992 55.8531C20.1156 55.8531 20.2708 55.8919 20.3872 55.9695C20.5036 56.0471 20.62 56.1247 20.6976 56.2023C20.814 56.3187 20.8528 56.4739 20.8916 56.6679C20.7364 56.7455 20.5812 56.7843 20.426 56.7455C20.3096 56.7455 20.1544 56.7067 20.038 56.6291C19.9216 56.5515 19.8052 56.4739 19.7276 56.3575C19.65 56.2411 19.5724 56.0859 19.5336 55.9307Z" fill="#000001"/>
<path d="M121.19 139.583C121.19 139.583 116.301 111.336 139.814 103.576C139.852 103.576 147.806 130.542 121.19 139.583Z" fill="#E1C692"/>
<path d="M120.802 144.783C120.802 144.783 120.84 130.155 104.35 124.49C104.35 124.49 98.2976 138.381 120.802 144.783Z" fill="#E1C692"/>
<path d="M125.07 167.169L128.639 166.704C128.639 166.704 117.232 120.726 122.742 103.227C128.251 85.7282 140.473 40.2158 117.232 20.195C93.9907 0.174198 69.0035 15.151 69.0035 15.151C69.0035 15.151 79.7899 9.0982 97.1335 11.3874C114.477 13.6766 126.544 33.6586 128.6 51.1186C130.191 64.5434 126.428 84.8746 119.87 107.029C114.865 123.946 122.237 163.251 125.07 167.169Z" fill="#000001"/>
<path d="M55.6951 27.1016C55.6951 27.1016 59.5751 23.6484 62.1747 28.0328C64.1923 31.4472 59.4587 35.2884 57.2859 34.59C54.6087 33.7364 52.5135 30.8264 55.6951 27.1016Z" fill="#E1C692"/>
<path d="M54.8028 16.587C54.8028 16.587 57.4024 12.0862 61.2436 15.423C64.2312 18.0226 61.0108 23.183 58.7216 23.183C55.8504 23.2218 52.9404 21.1654 54.8028 16.587Z" fill="#E1C692"/>
<path d="M56.6652 22.8338C57.0532 22.8726 57.4412 22.9114 57.8292 22.8726C58.0232 22.8726 58.2172 22.8338 58.4112 22.8338C58.6052 22.795 58.7992 22.7562 58.9544 22.7174C59.6916 22.5234 60.3512 22.1354 60.8556 21.5922C61.3212 21.0102 61.7092 20.3118 61.9032 19.6134C61.9808 19.2254 62.0972 18.8762 62.1748 18.4882C62.2524 18.1002 62.2524 17.7122 62.33 17.3242C62.3688 17.7122 62.33 18.1002 62.3688 18.527C62.4076 18.9538 62.2912 19.303 62.2136 19.7298C62.0584 20.5446 61.6704 21.2818 61.166 21.9026C60.584 22.5234 59.8468 22.9114 59.032 23.0666C58.2172 23.183 57.4024 23.1054 56.6652 22.8338Z" fill="#000001"/>
<path d="M59.0708 7.11946C59.0708 7.11946 64.1924 7.97306 62.4464 12.7067C61.0884 16.4315 55.1131 15.2287 54.2595 13.0947C53.2507 10.4563 54.182 7.04186 59.0708 7.11946Z" fill="#E1C692"/>
<path d="M53.9104 11.0771C53.988 11.4651 54.1044 11.8143 54.2596 12.2023C54.3372 12.3963 54.4148 12.5515 54.4924 12.7067C54.57 12.8619 54.6864 13.0171 54.8028 13.1723C55.2296 13.7931 55.8116 14.2587 56.51 14.5691C57.2472 14.8019 57.9844 14.9183 58.7604 14.8407C59.1484 14.8019 59.5364 14.7243 59.9244 14.6855C60.3124 14.6467 60.7004 14.4915 61.0884 14.4139C60.7392 14.5691 60.3512 14.7243 60.002 14.8795C59.6528 15.0347 59.226 15.0735 58.838 15.1511C58.0232 15.2675 57.2084 15.1899 56.4324 14.9183C55.6564 14.6079 55.0356 14.0647 54.6088 13.3275C54.182 12.6679 53.9492 11.8919 53.9104 11.0771Z" fill="#000001"/>
<path d="M67.6068 3.86067C67.6068 3.86067 69.6244 8.63307 64.658 9.68067C60.778 10.4955 58.644 4.79187 60.002 2.96827C61.6704 0.679072 65.0848 -0.368528 67.6068 3.86067Z" fill="#E1C692"/>
<path d="M61.5151 1.57129C61.2435 1.84289 60.9719 2.15329 60.7779 2.46369C60.6615 2.61889 60.5839 2.77409 60.4675 2.92929C60.3511 3.08449 60.3123 3.27849 60.2347 3.43369C59.9243 4.13209 59.8467 4.86929 59.9631 5.64529C60.1571 6.38249 60.4675 7.08089 60.8943 7.70169C61.1271 8.01209 61.3987 8.28369 61.6315 8.59409C61.8643 8.90449 62.1747 9.13729 62.4463 9.40889C62.1359 9.17609 61.8255 8.94329 61.4763 8.71049C61.1271 8.47769 60.8943 8.16729 60.6227 7.85689C60.0795 7.23609 59.7303 6.49889 59.5363 5.72289C59.4199 4.90809 59.5363 4.05449 59.9243 3.31729C60.3123 2.61889 60.8555 2.03689 61.5151 1.57129Z" fill="#000001"/>
<path d="M74.6683 8.16761C74.6683 8.16761 71.6807 12.3968 68.1499 8.74961C65.3951 5.87841 69.1199 1.06721 71.4091 1.22241C74.2415 1.45521 76.9187 3.78321 74.6683 8.16761Z" fill="#E1C692"/>
<path d="M73.3879 1.76567C72.9999 1.68807 72.6119 1.61047 72.2239 1.61047C72.0299 1.61047 71.8359 1.61047 71.6419 1.61047C71.4479 1.61047 71.2539 1.64927 71.0599 1.68807C70.3227 1.80447 69.6243 2.11487 69.0423 2.61927C68.4991 3.16247 68.0723 3.78327 67.8007 4.48167C67.6843 4.83087 67.5679 5.21887 67.4515 5.56807C67.3351 5.91727 67.2963 6.34407 67.1799 6.73207C67.1799 6.34407 67.2187 5.95607 67.2575 5.56807C67.2963 5.18007 67.4127 4.79207 67.5291 4.40407C67.7619 3.62807 68.2275 2.92967 68.7707 2.34767C69.3915 1.76567 70.1675 1.41647 71.0211 1.33887C71.8747 1.30007 72.6507 1.45527 73.3879 1.76567Z" fill="#000001"/>
<path d="M77.8888 15.1898C77.8888 15.1898 73.1164 17.2074 72.0688 12.2798C71.254 8.39983 76.9576 6.26583 78.7812 7.62383C81.0316 9.25343 82.0792 12.6678 77.8888 15.1898Z" fill="#E1C692"/>
<path d="M80.1391 9.09853C79.8675 8.82693 79.5571 8.55533 79.2467 8.36133C79.0915 8.24493 78.9363 8.12853 78.7423 8.05093C78.5871 7.97333 78.3931 7.85693 78.2379 7.77933C77.5395 7.46893 76.7635 7.39133 76.0263 7.50773C75.2891 7.70173 74.5907 8.01213 74.0087 8.47773C73.6983 8.71053 73.4267 8.98213 73.1163 9.21493C72.8059 9.44773 72.5731 9.75813 72.3015 10.0297C72.5343 9.71933 72.7671 9.37013 72.9999 9.05973C73.2327 8.74933 73.5431 8.47773 73.8535 8.20613C74.4743 7.66293 75.2115 7.31373 76.0263 7.11973C76.8411 6.96453 77.6947 7.11973 78.4319 7.46893C79.0915 7.89573 79.7123 8.43893 80.1391 9.09853Z" fill="#000001"/>
<path d="M75.4832 22.7946C75.4832 22.7946 70.4004 21.747 72.3404 17.0522C73.8536 13.3662 79.7512 14.8794 80.5272 17.0134C81.4584 19.6906 80.372 23.105 75.4832 22.7946Z" fill="#E1C692"/>
<path d="M80.7988 19.0706C80.7212 18.6826 80.6436 18.2946 80.4884 17.9454C80.4496 17.7514 80.3332 17.5962 80.2556 17.4022C80.178 17.2082 80.0616 17.053 79.984 16.8978C79.596 16.277 79.014 15.7338 78.3156 15.4234C77.6172 15.1518 76.8412 14.9966 76.104 15.0354C75.716 15.0742 75.328 15.113 74.94 15.1518C74.552 15.1906 74.164 15.307 73.776 15.3846C74.1252 15.2294 74.5132 15.113 74.9012 14.9966C75.2892 14.8802 75.6772 14.8414 76.0652 14.7638C76.88 14.6862 77.6948 14.8026 78.4708 15.0742C79.208 15.4234 79.8288 16.0054 80.2168 16.7426C80.6048 17.441 80.7988 18.2558 80.7988 19.0706Z" fill="#000001"/>
<path d="M67.4904 25.5888C67.4904 25.5888 65.6668 20.7 70.672 19.8852C74.5908 19.2256 76.492 25.0068 75.0564 26.7916C73.2716 29.0032 69.8184 29.8956 67.4904 25.5888Z" fill="#E1C692"/>
<path d="M73.4655 28.111C73.7371 27.8394 74.0087 27.5678 74.2415 27.2574C74.3579 27.1022 74.4743 26.947 74.5519 26.7918C74.6295 26.6366 74.7459 26.4426 74.8235 26.2874C75.1339 25.6278 75.2891 24.8518 75.1727 24.1146C75.0175 23.3774 74.7459 22.679 74.3191 22.0582C74.0863 21.7478 73.8535 21.4374 73.6207 21.127C73.3879 20.8166 73.0775 20.5838 72.8059 20.2734C73.1163 20.5062 73.4267 20.7778 73.7371 21.0106C74.0475 21.2434 74.2803 21.5926 74.5519 21.903C75.0563 22.5626 75.4055 23.2998 75.5607 24.1146C75.6771 24.9294 75.4831 25.783 75.0951 26.4814C74.7459 27.1022 74.1639 27.6842 73.4655 28.111Z" fill="#000001"/>
<path d="M55.5011 33.6202C55.8503 33.8142 56.1995 33.9306 56.5875 34.047C56.7815 34.1246 56.9755 34.1246 57.1307 34.1634C57.2859 34.2022 57.5187 34.2022 57.7127 34.241C58.4499 34.3186 59.2259 34.1634 59.8855 33.7754C60.5451 33.3874 61.0883 32.8442 61.5151 32.2234C61.7091 31.913 61.9419 31.5638 62.1359 31.2146C62.3299 30.8654 62.4851 30.5162 62.6791 30.167C62.5627 30.555 62.4463 30.9042 62.3299 31.2922C62.2135 31.6802 61.9807 32.0294 61.7867 32.3786C61.3599 33.077 60.7779 33.659 60.0795 34.0858C59.3423 34.4738 58.5275 34.629 57.6739 34.5126C56.8979 34.435 56.1219 34.1246 55.5011 33.6202Z" fill="#000001"/>
<path d="M60.39 14.6087C60.39 14.6087 60.9332 6.07274 69.2364 8.16794C75.7548 9.79754 74.6684 19.7303 71.254 21.4375C66.986 23.5715 61.0496 22.6403 60.39 14.6087Z" fill="#F2EBEB"/>
<path d="M65.0847 16.7811C64.9683 16.7423 64.5415 17.8287 64.5415 17.8287C64.5415 17.8287 66.4039 19.6911 68.3051 18.3331C70.2063 16.9751 68.7707 15.0351 67.2963 14.1427C65.8219 13.2503 67.2575 11.7759 68.0335 12.3191C68.4991 12.6295 68.9647 12.9399 69.4691 13.1727L69.8183 12.3967C69.8183 12.3967 67.9947 10.6895 66.7143 11.6595C65.4339 12.6295 65.2787 13.8323 66.7919 14.9963C68.3051 16.1603 68.6155 18.5659 65.0847 16.7811Z" fill="#E1C692"/>
<path d="M66.0159 19.2645L66.7143 19.4197L67.0247 18.1393L66.3263 17.9453L66.0159 19.2645Z" fill="#E1C692"/>
<path d="M68.4215 11.7756L68.7319 10.4176L68.0335 10.2236L67.7231 11.6204L68.4215 11.7756Z" fill="#E1C692"/>
<path d="M121.19 139.583C122.315 137.022 123.518 134.462 124.759 131.94C125.962 129.418 127.242 126.896 128.523 124.412C129.803 121.929 131.084 119.446 132.442 116.963C133.8 114.48 135.119 112.035 136.554 109.591C135.429 112.152 134.226 114.712 132.985 117.234C131.782 119.756 130.502 122.278 129.221 124.762C127.941 127.245 126.66 129.728 125.302 132.211C123.944 134.694 122.625 137.178 121.19 139.583Z" fill="#000001"/>
<path d="M136.554 120.727C135.972 121.27 135.313 121.774 134.653 122.201C133.994 122.667 133.334 123.093 132.636 123.481C131.937 123.869 131.278 124.257 130.54 124.645C129.842 124.995 129.105 125.344 128.329 125.615C128.911 125.072 129.57 124.568 130.23 124.141C130.89 123.675 131.549 123.249 132.248 122.861C132.946 122.473 133.606 122.085 134.343 121.697C135.041 121.309 135.778 120.998 136.554 120.727Z" fill="#000001"/>
<path d="M121.927 145.83C120.53 144.472 119.172 143.075 117.853 141.639C116.534 140.204 115.253 138.768 113.973 137.333C112.692 135.897 111.451 134.384 110.209 132.909C108.968 131.435 107.765 129.883 106.601 128.331C107.998 129.689 109.356 131.086 110.675 132.521C111.994 133.957 113.274 135.393 114.555 136.828C115.835 138.264 117.077 139.777 118.318 141.251C119.56 142.726 120.802 144.278 121.927 145.83Z" fill="#000001"/>
<path d="M109.084 135.819C109.55 135.781 110.015 135.781 110.442 135.858C110.869 135.897 111.334 135.975 111.761 136.091C112.188 136.207 112.615 136.324 113.042 136.479C113.468 136.634 113.895 136.828 114.283 137.1C113.818 137.139 113.352 137.139 112.925 137.1C112.498 137.061 112.033 136.983 111.606 136.867C111.179 136.751 110.752 136.634 110.326 136.479C109.86 136.246 109.472 136.052 109.084 135.819Z" fill="#000001"/>
<path d="M109.084 169.73C109.084 169.73 117.581 165.152 122.548 162.591C127.514 160.03 145.944 169.924 145.129 170.739C144.314 171.554 110.908 173.106 109.084 169.73Z" fill="#A04040"/>
</svg>
