<svg  viewBox="0 0 353 334" xmlns="http://www.w3.org/2000/svg">
<path d="M244.8 0.162109L132.415 2.5204L226.421 88.8825L335.39 86.5242L244.8 0.162109Z" fill="#EA8383"/>
<mask id="mask0_56_3656" style="mask-type:luminance" maskUnits="userSpaceOnUse" x="132" y="0" >
<path d="M244.637 0L132.252 2.27697L226.259 88.7204L335.228 86.3621L244.637 0Z" fill="white"/>
</mask>
<g mask="url(#mask0_56_3656)">
<path d="M339.212 143.042H339.131L84.6799 70.0974C84.4359 70.0161 84.3546 69.7721 84.3546 69.6095C84.3546 69.4468 84.6799 69.2842 84.8425 69.2842L339.294 142.147C339.538 142.228 339.619 142.472 339.538 142.635C339.619 142.879 339.456 143.042 339.212 143.042Z" fill="#F2EBEB"/>
<path d="M344.417 126.616H344.336L89.0712 58.0627C88.8273 57.9814 88.746 57.8187 88.746 57.5748C88.8273 57.3308 89.0712 57.2495 89.2339 57.3308L344.498 125.884C344.742 125.965 344.823 126.128 344.823 126.372C344.742 126.534 344.579 126.616 344.417 126.616Z" fill="#F2EBEB"/>
<path d="M349.134 111.409H349.052L93.2187 44.7263C92.9748 44.645 92.8934 44.4823 92.8934 44.2384C92.8934 43.9944 93.1374 43.9131 93.3814 43.9131L349.215 110.596C349.459 110.677 349.54 110.84 349.54 111.084C349.54 111.246 349.378 111.409 349.134 111.409Z" fill="#F2EBEB"/>
<path d="M353.687 96.9339H353.606L97.2033 31.7151C96.9594 31.6337 96.8781 31.4711 96.8781 31.2271C96.9594 30.9832 97.122 30.9019 97.366 30.9019L353.769 96.202C354.013 96.2833 354.094 96.446 354.094 96.6899C354.094 96.8526 353.931 96.9339 353.687 96.9339Z" fill="#F2EBEB"/>
<path d="M358.648 81.3201H358.485L100.7 20.7365C100.456 20.6552 100.375 20.4926 100.375 20.2486C100.456 20.0047 100.619 19.9233 100.863 19.9233L358.648 80.5069C358.892 80.5069 359.054 80.7509 358.973 80.9949C358.892 81.2388 358.81 81.4014 358.648 81.3201Z" fill="#F2EBEB"/>
<path d="M362.795 68.1459H362.714L104.522 9.02609C104.278 8.94477 104.197 8.78213 104.197 8.53817C104.278 8.29421 104.441 8.21289 104.685 8.21289L362.877 67.3327C363.121 67.414 363.202 67.5767 363.202 67.8206C363.202 67.9833 363.039 68.1459 362.795 68.1459Z" fill="#F2EBEB"/>
<path d="M365.479 59.7707H365.397L106.88 1.46408C106.636 1.38276 106.555 1.22012 106.555 0.976161C106.636 0.7322 106.799 0.650879 107.043 0.650879L365.56 58.9575C365.804 59.0388 365.885 59.2015 365.885 59.4454C365.804 59.6081 365.641 59.7707 365.479 59.7707Z" fill="#F2EBEB"/>
<path d="M367.756 52.5325H367.674L109.889 -8.05106C109.645 -8.13238 109.564 -8.29501 109.564 -8.53898C109.645 -8.78294 109.808 -8.86426 110.052 -8.86426L367.837 51.7193C368.081 51.7193 368.244 51.9633 368.162 52.2073C368.081 52.4512 368 52.5325 367.756 52.5325Z" fill="#F2EBEB"/>
<path d="M133.635 140.358H133.553C133.309 140.277 133.228 140.114 133.309 139.87L195.031 -56.518C195.113 -56.762 195.357 -56.8433 195.519 -56.762C195.763 -56.6807 195.845 -56.4367 195.763 -56.2741L134.041 140.033C133.96 140.196 133.797 140.358 133.635 140.358Z" fill="#F2EBEB"/>
<path d="M120.623 136.618H120.542C120.298 136.536 120.217 136.292 120.298 136.13L183.809 -57.0058C183.891 -57.2498 184.135 -57.3311 184.297 -57.2498C184.541 -57.1685 184.623 -56.9245 184.541 -56.7619L121.03 136.374C120.949 136.536 120.786 136.618 120.623 136.618Z" fill="#F2EBEB"/>
<path d="M106.311 132.877H106.23C105.986 132.796 105.905 132.552 105.986 132.389L153.152 -17.6464C153.233 -17.8904 153.396 -17.9717 153.64 -17.8904C153.884 -17.8091 153.965 -17.5651 153.884 -17.4025L106.799 132.633C106.637 132.796 106.474 132.877 106.311 132.877Z" fill="#F2EBEB"/>
<path d="M92.324 129.299H92.2427C91.9988 129.218 91.9174 128.974 91.9988 128.811L137.538 -21.7128C137.619 -21.9568 137.863 -22.0381 138.026 -22.0381C138.27 -21.9568 138.351 -21.7128 138.351 -21.5502L92.7306 128.892C92.6493 129.136 92.4867 129.299 92.324 129.299Z" fill="#F2EBEB"/>
<path d="M183.321 163.454C183.24 163.454 183.24 163.454 183.159 163.454C182.915 163.372 182.834 163.128 182.915 162.966L267.081 -82.3774C267.163 -82.6214 267.407 -82.7027 267.569 -82.6214C267.813 -82.54 267.895 -82.2961 267.813 -82.1334L183.647 163.21C183.565 163.372 183.484 163.454 183.321 163.454Z" fill="#F2EBEB"/>
<path d="M170.31 159.55C170.229 159.55 170.229 159.55 170.147 159.55C169.904 159.468 169.822 159.224 169.904 159.062L249.435 -86.9321C249.516 -87.176 249.76 -87.2574 249.923 -87.176C250.167 -87.0947 250.248 -86.8508 250.167 -86.6881L170.635 159.306C170.717 159.468 170.554 159.55 170.31 159.55Z" fill="#F2EBEB"/>
<path d="M155.998 155.809H155.916C155.672 155.728 155.591 155.484 155.672 155.321L233.171 -91.2417C233.252 -91.4856 233.415 -91.5669 233.659 -91.4856C233.903 -91.4043 233.984 -91.1603 233.903 -90.9977L156.404 155.565C156.323 155.728 156.16 155.891 155.998 155.809Z" fill="#F2EBEB"/>
<path d="M142.011 152.312H141.929C141.686 152.231 141.604 152.068 141.686 151.824L217.639 -95.2265C217.72 -95.4705 217.883 -95.5518 218.127 -95.4705C218.371 -95.3892 218.452 -95.1452 218.371 -94.9826L142.417 152.068C142.336 152.231 142.173 152.312 142.011 152.312Z" fill="#F2EBEB"/>
<path d="M130.219 149.142H130.138C129.894 149.06 129.813 148.898 129.894 148.654L200.724 -99.6171C200.805 -99.8611 200.968 -99.9424 201.212 -99.8611C201.456 -99.7798 201.537 -99.5358 201.456 -99.3732L130.545 148.898C130.545 148.979 130.382 149.142 130.219 149.142Z" fill="#F2EBEB"/>
<path d="M117.615 145.806H117.533C117.289 145.725 117.208 145.562 117.208 145.318L186.574 -103.44C186.656 -103.684 186.818 -103.766 187.062 -103.766C187.306 -103.684 187.387 -103.44 187.387 -103.278L118.021 145.4C117.94 145.644 117.777 145.806 117.615 145.806Z" fill="#F2EBEB"/>
<path d="M109.483 143.692H109.401C109.157 143.611 109.076 143.448 109.076 143.204L177.548 -105.717C177.629 -105.961 177.873 -106.043 178.035 -105.961C178.279 -105.88 178.361 -105.717 178.361 -105.473L109.889 143.367C109.808 143.529 109.645 143.692 109.483 143.692Z" fill="#F2EBEB"/>
<path d="M99.2361 141.009H99.1548C98.9109 140.927 98.8295 140.765 98.9109 140.521L169.822 -107.75C169.903 -107.994 170.066 -108.075 170.31 -107.994C170.554 -107.913 170.635 -107.75 170.554 -107.506L99.6427 140.765C99.5614 140.846 99.3988 141.009 99.2361 141.009Z" fill="#F2EBEB"/>
<path d="M331.731 39.6842H331.649L122.331 -21.4686C122.087 -21.5499 122.006 -21.7939 122.087 -21.9565C122.168 -22.2005 122.331 -22.2818 122.575 -22.2005L331.893 38.9524C332.137 38.9524 332.3 39.1963 332.219 39.4403C332.137 39.6842 331.975 39.6842 331.731 39.6842Z" fill="#F2EBEB"/>
<path d="M336.935 23.2568H336.854L126.56 -33.5047C126.316 -33.586 126.235 -33.83 126.235 -33.9926C126.316 -34.2366 126.479 -34.3179 126.723 -34.2366L336.935 22.6063C337.179 22.6876 337.261 22.8502 337.261 23.0942C337.261 23.1755 337.098 23.3381 336.935 23.2568Z" fill="#F2EBEB"/>
<path d="M341.652 8.05056H341.571L130.789 -46.8406C130.545 -46.9219 130.463 -47.0846 130.463 -47.3285C130.545 -47.5725 130.707 -47.6538 130.951 -47.6538L341.733 7.23736C341.977 7.31868 342.059 7.48132 342.059 7.72528C342.059 7.96924 341.896 8.05056 341.652 8.05056Z" fill="#F2EBEB"/>
<path d="M285.378 195.087H285.297C285.053 195.006 284.972 194.762 285.053 194.599L369.22 -50.7441C369.301 -50.9881 369.545 -51.0694 369.708 -50.9881C369.952 -50.9067 370.033 -50.6628 369.952 -50.5001L285.785 194.843C285.704 195.006 285.541 195.087 285.378 195.087Z" fill="#F2EBEB"/>
<path d="M272.448 191.265H272.286C272.042 191.184 271.96 190.94 272.042 190.777L351.573 -55.2163C351.654 -55.4602 351.898 -55.5415 352.061 -55.4602C352.305 -55.3789 352.386 -55.1349 352.305 -54.9723L272.774 191.021C272.774 191.103 272.611 191.265 272.448 191.265Z" fill="#F2EBEB"/>
<path d="M258.136 187.524H258.055C257.811 187.443 257.729 187.199 257.811 187.036L335.228 -59.5268C335.309 -59.7708 335.553 -59.8521 335.716 -59.7708C335.96 -59.6895 336.041 -59.4455 335.959 -59.2829L258.543 187.28C258.461 187.361 258.299 187.524 258.136 187.524Z" fill="#F2EBEB"/>
<path d="M244.067 183.946H243.986C243.742 183.864 243.661 183.62 243.742 183.458L319.695 -63.5932C319.777 -63.8372 320.021 -63.9185 320.183 -63.8372C320.427 -63.7559 320.508 -63.5119 320.427 -63.3493L244.474 183.702C244.393 183.864 244.23 183.946 244.067 183.946Z" fill="#F2EBEB"/>
<path d="M232.358 180.775H232.276C232.032 180.694 231.951 180.45 232.032 180.287L302.944 -67.9838C303.025 -68.2278 303.188 -68.3091 303.431 -68.3091C303.675 -68.2278 303.757 -68.0651 303.675 -67.8212L232.764 180.45C232.683 180.694 232.52 180.775 232.358 180.775Z" fill="#F2EBEB"/>
<path d="M219.672 177.441H219.59C219.346 177.359 219.265 177.197 219.265 176.953L288.631 -71.7245C288.713 -71.9685 288.875 -72.0498 289.119 -72.0498C289.363 -71.9685 289.445 -71.8058 289.445 -71.5619L220.078 177.115C220.078 177.278 219.916 177.441 219.672 177.441Z" fill="#F2EBEB"/>
<path d="M211.621 175.326H211.54C211.296 175.245 211.214 175.082 211.214 174.838L279.605 -74.083C279.686 -74.3269 279.93 -74.4082 280.092 -74.3269C280.336 -74.2456 280.418 -74.0016 280.418 -73.839L211.946 175.082C211.946 175.164 211.783 175.326 211.621 175.326Z" fill="#F2EBEB"/>
<path d="M201.374 172.643H201.293C201.049 172.561 200.968 172.399 201.049 172.155L271.96 -76.1161C272.042 -76.3601 272.204 -76.4414 272.448 -76.4414C272.692 -76.3601 272.774 -76.1161 272.774 -75.9535L201.862 172.317C201.7 172.561 201.537 172.643 201.374 172.643Z" fill="#F2EBEB"/>
</g>
<path d="M35.7251 88.8831L132.415 2.521L226.421 88.8831V231.356L35.7251 227.209V88.8831Z" fill="#F2EBEB"/>
<path d="M45.8901 92.4608L131.032 18.6221L214.142 92.4608L216.825 231.112L49.3056 227.452L45.8901 92.4608Z" fill="#000001"/>
<path d="M226.421 231.357V88.8837L335.39 86.5254V228.998L226.421 231.357Z" fill="#F2EBEB"/>
<path d="M226.421 231.356C226.259 219.483 226.177 207.611 226.015 195.738L225.771 160.12L225.689 124.501L225.608 88.8831L225.852 89.4523L202.432 67.8212C194.625 60.5837 186.818 53.3461 179.012 46.1087L155.673 24.3961L132.415 2.521L156.161 23.8269L179.825 45.2954C187.713 52.4516 195.601 59.6078 203.408 66.764L226.99 88.3139L227.234 88.5578V88.8831L227.153 124.501L227.072 160.12L226.828 195.738C226.665 207.611 226.584 219.483 226.421 231.356Z" fill="#000001"/>
<path d="M179.906 186.631C179.906 186.631 186.086 182.402 186.9 193.543C187.713 204.684 165.675 309.099 165.675 309.099L132.171 304.626L152.501 184.76L179.906 186.631Z" fill="#000001"/>
<path d="M149.818 180.612C149.818 180.612 136.807 244.286 134.774 252.662C132.741 261.038 166.814 286.003 172.181 281.043C177.548 276.082 184.785 297.958 192.023 296.006C199.26 294.054 204.384 293.973 206.417 300.804C208.45 307.635 220.81 309.18 220.81 309.18L229.186 259.574L182.346 239.488L190.884 205.09C190.884 205.09 195.52 194.518 193.324 189.314C188.282 177.034 152.339 178.661 152.339 178.661L149.818 180.612Z" fill="#E1C692"/>
<path d="M227.153 271.936C227.153 271.936 245.694 274.213 247.077 275.595C248.459 276.978 244.962 321.46 241.709 319.834C238.457 318.207 243.173 303 237.318 298.04C231.463 293.079 223.575 293.405 223.575 293.405L227.153 271.936Z" fill="#000001"/>
<path d="M159.007 304.545C159.007 304.545 156.893 327.64 156.161 329.754C155.429 331.868 111.191 333.007 113.305 329.754C115.419 326.501 126.641 329.266 131.846 323.167C137.05 317.068 139.571 301.942 139.571 301.942L159.007 304.545Z" fill="#000001"/>
<path d="M189.664 184.923C189.664 184.923 212.515 147.19 210.889 139.14C209.263 131.089 172.343 117.427 170.798 117.427C169.253 117.427 149.98 132.797 149.818 138.977C149.655 145.157 152.42 184.923 152.42 184.923H189.664Z" fill="#F2EBEB"/>
<path d="M185.111 94.4136C185.111 94.4136 189.014 106.449 188.526 106.612C187.875 106.693 187.225 106.612 186.574 106.449C187.794 113.036 187.794 119.704 186.737 126.291C186.737 126.291 174.458 125.397 168.684 120.436C168.684 120.436 168.196 90.6728 170.636 89.697C173.075 88.7211 185.111 94.4136 185.111 94.4136Z" fill="#EA8383"/>
<path d="M172.018 97.8288C172.018 97.8288 173.645 103.765 173.075 104.822C172.506 105.879 168.847 103.033 168.847 103.033C168.847 103.033 167.546 89.4528 168.847 87.6637C170.148 85.8747 198.285 95.2265 196.008 96.365C193.731 97.5035 185.111 94.4133 185.111 94.4133L176.247 94.088C176.247 94.088 174.539 97.1782 172.018 97.8288Z" fill="#A04040"/>
<path d="M169.091 103.115C169.091 103.115 164.618 101.326 165.838 97.341C167.058 93.3563 170.961 101 170.961 101L169.091 103.115Z" fill="#EA8383"/>
<path d="M177.954 106.612C178.198 107.018 178.524 107.344 178.849 107.588C179.011 107.669 179.255 107.75 179.418 107.832C179.662 107.913 179.906 108.076 180.15 108.157C179.906 108.32 179.662 108.482 179.337 108.482C179.011 108.482 178.686 108.401 178.442 108.238C178.117 108.076 177.954 107.832 177.792 107.506C177.792 107.181 177.792 106.856 177.954 106.612Z" fill="#000001"/>
<path d="M176.653 98.7235C177.06 98.2356 177.548 97.9103 178.117 97.7477C178.686 97.585 179.256 97.4224 179.825 97.4224C180.963 97.3411 182.183 97.829 182.996 98.6422C182.427 98.8048 181.939 98.9675 181.37 98.9675C180.882 99.0488 180.394 99.0488 179.825 99.0488C179.256 99.0488 178.849 99.0488 178.28 98.9675C177.71 98.8861 177.223 98.8048 176.653 98.7235Z" fill="#A04040"/>
<path d="M76.4667 184.678C64.4313 169.309 65.0819 147.678 76.7106 132.064C85.4119 120.436 99.643 108.563 121.112 110.108C175.596 113.93 164.455 186.955 139.165 197.364C120.868 205.009 92.2428 204.765 76.4667 184.678Z" fill="#E1C692"/>
<path d="M78.9877 151.744C78.9877 151.744 82.5658 97.0159 137.132 110.434C179.906 120.924 172.913 184.76 150.387 195.82C122.331 209.482 83.2976 203.383 78.9877 151.744Z" fill="#E1C692"/>
<path d="M101.269 114.093C94.1133 119.542 88.4208 126.698 84.6801 134.911C83.7856 136.944 83.0537 139.059 82.4031 141.173C81.8339 143.287 81.346 145.483 81.0207 147.679C80.4515 152.07 80.4514 156.542 81.102 160.934C82.2405 169.798 85.9812 178.174 91.6736 185.005C97.5287 191.835 104.848 197.284 113.142 200.781C104.522 197.772 96.7968 192.649 90.6978 185.818C89.1527 184.11 87.7703 182.24 86.5505 180.369C85.3307 178.418 84.1922 176.385 83.2163 174.352C81.346 170.123 80.0449 165.732 79.3943 161.178C78.7437 156.624 78.7437 151.988 79.3943 147.435C80.1262 142.881 81.4273 138.489 83.4603 134.342C87.5263 126.129 93.6253 119.135 101.269 114.093Z" fill="#F2EBEB"/>
<path d="M79.3131 186.956C80.1263 186.468 80.9395 186.062 81.834 185.736C83.5418 185.086 85.3308 184.76 87.2012 184.598C88.177 184.517 89.0715 184.517 90.0474 184.679C89.2342 185.167 88.421 185.574 87.5265 185.899C86.6319 186.224 85.8187 186.468 84.9242 186.631C84.0297 186.794 83.1352 186.956 82.1593 187.037C81.2648 187.119 80.289 187.037 79.3131 186.956Z" fill="#F2EBEB"/>
<path d="M72.3193 170.285C72.8886 169.797 73.5391 169.39 74.271 169.065C74.9216 168.74 75.6535 168.496 76.3853 168.333C77.1172 168.171 77.8491 168.008 78.581 167.927C79.3129 167.845 80.1261 167.845 80.858 167.927C80.2887 168.415 79.6382 168.821 78.9063 169.147C78.2557 169.472 77.5238 169.716 76.7919 169.878C76.0601 170.041 75.3282 170.204 74.5963 170.285C73.8644 170.366 73.0512 170.366 72.3193 170.285Z" fill="#F2EBEB"/>
<path d="M71.2623 151.338C71.8316 150.931 72.4821 150.524 73.1327 150.28C74.4338 149.711 75.7349 149.467 77.1174 149.386C77.8493 149.305 78.5812 149.386 79.2317 149.549C78.6625 150.036 78.0119 150.362 77.3613 150.606C76.7108 150.85 76.0602 151.094 75.4097 151.256C74.7591 151.419 74.0272 151.5 73.3767 151.582C72.7261 151.5 71.9942 151.5 71.2623 151.338Z" fill="#F2EBEB"/>
<path d="M75.1658 136.05C75.8163 135.643 76.5482 135.318 77.2801 135.074C78.012 134.83 78.7439 134.667 79.4757 134.504C80.2076 134.342 80.9395 134.342 81.7527 134.342C82.5659 134.342 83.2978 134.423 84.111 134.586C83.4604 134.992 82.7286 135.318 81.9967 135.562C80.5329 136.05 79.0691 136.293 77.5241 136.293C76.7109 136.293 75.8977 136.212 75.1658 136.05Z" fill="#F2EBEB"/>
<path d="M109.889 165.813C109.157 165.488 106.392 172.4 106.392 172.4C106.392 172.4 118.509 184.354 131.032 175.734C143.556 167.114 134.204 154.428 124.527 148.817C114.85 143.206 124.202 133.61 129.243 137.026C132.252 139.059 135.424 140.929 138.677 142.637L140.954 137.758C140.954 137.758 128.918 126.698 120.624 133.041C112.329 139.384 111.19 146.947 121.193 154.347C131.195 161.747 133.066 177.117 109.889 165.813Z" fill="#000001"/>
<path d="M117.874 173.42L115.944 181.821L120.541 182.876L122.47 174.475L117.874 173.42Z" fill="#000001"/>
<path d="M129.323 123.748L127.267 132.704L131.864 133.759L133.92 124.803L129.323 123.748Z" fill="#000001"/>
<path d="M158.926 181.996C158.926 181.996 129.732 192.974 125.91 192.974C122.087 192.974 112.98 190.453 112.248 192.079C111.516 193.706 117.94 196.389 117.94 196.389C117.94 196.389 112.654 198.341 111.922 199.479C111.191 200.618 114.443 203.708 114.443 203.708C112.898 206.392 119.079 207.205 119.079 207.205C119.079 207.205 119.404 208.994 125.096 209.238C130.789 209.482 175.19 199.642 179.988 190.372L200.48 159.876L176.247 149.711C176.247 149.711 164.862 176.303 158.926 181.996Z" fill="#EA8383"/>
<path d="M121.681 201.838C121.274 202.407 120.786 202.814 120.217 203.139C119.648 203.464 119.079 203.79 118.428 203.952C117.777 204.196 117.127 204.277 116.476 204.277C115.744 204.277 115.094 204.115 114.525 203.627C115.094 203.464 115.744 203.22 116.314 202.976C116.883 202.732 117.452 202.57 118.021 202.407C118.591 202.245 119.241 202.082 119.81 201.919C120.298 201.919 120.949 201.838 121.681 201.838Z" fill="#000001"/>
<path d="M124.364 205.822C123.551 206.392 122.657 206.961 121.681 207.286C120.705 207.693 119.648 207.937 118.591 208.018C117.452 208.018 116.395 207.774 115.419 207.286C114.931 207.042 114.443 206.636 114.118 206.066C113.793 205.578 113.793 204.928 114.118 204.44C114.118 204.928 114.362 205.334 114.769 205.578C115.094 205.822 115.5 205.985 115.907 206.066C116.802 206.31 117.615 206.392 118.509 206.392C119.322 206.392 120.298 206.148 121.274 206.066C122.413 205.904 123.388 205.822 124.364 205.822Z" fill="#000001"/>
<path d="M179.093 100.919C179.418 100.756 179.744 100.756 180.069 100.838C180.394 100.919 180.719 101 181.045 101.244C181.37 101.488 181.614 101.732 181.695 102.139C181.777 102.464 181.777 102.871 181.614 103.196C181.451 102.952 181.289 102.708 181.126 102.464C180.963 102.301 180.801 102.139 180.557 101.976C180.15 101.569 179.662 101.326 179.093 100.919Z" fill="#000001"/>
<path d="M326.038 216.231C326.038 216.231 326.77 207.53 327.583 206.473C328.396 205.415 331.731 203.464 332.625 202.081C333.52 200.699 332.137 200.617 332.137 200.617C332.137 200.617 334.739 197.609 333.032 197.853C333.032 197.853 333.438 195.25 331.161 196.633C328.884 198.015 322.297 202.081 319.939 202.407C318.231 202.65 316.442 202.325 314.816 201.512C313.677 201.024 313.027 201.512 313.108 201.837C313.19 202.163 316.036 204.277 316.605 206.96C317.174 209.644 314.979 215.499 314.979 215.499L326.038 216.231Z" fill="#EA8383"/>
<path d="M326.933 204.276C327.177 203.707 327.502 203.219 327.909 202.812C328.315 202.406 328.722 201.999 329.128 201.674C329.616 201.349 330.104 201.105 330.592 200.861C331.162 200.617 331.731 200.454 332.3 200.454C332.056 201.023 331.731 201.511 331.324 201.918C330.592 202.731 329.698 203.382 328.641 203.87C328.071 204.032 327.502 204.195 326.933 204.276Z" fill="#000001"/>
<path d="M326.364 202.326C326.689 201.675 327.014 201.025 327.502 200.537C327.99 200.049 328.478 199.561 329.047 199.154C329.616 198.748 330.267 198.422 330.917 198.178C331.568 197.853 332.381 197.772 333.113 197.934L331.568 199.317C331.08 199.723 330.592 200.13 330.023 200.537C329.454 200.943 328.884 201.268 328.315 201.594C327.746 201.838 327.014 202.082 326.364 202.326Z" fill="#000001"/>
<path d="M307.985 254.532C307.985 254.532 313.596 217.694 314.654 214.685C314.654 214.685 326.689 209.156 327.177 211.595C327.665 214.035 320.753 256.077 317.906 258.598C315.06 261.119 307.985 254.532 307.985 254.532Z" fill="#000001"/>
<path d="M315.304 202.488C310.343 196.145 310.587 187.281 315.385 180.857C318.963 176.059 324.818 171.18 333.682 171.831C356.045 173.376 351.491 203.464 341.082 207.693C333.52 210.783 321.728 210.783 315.304 202.488Z" fill="#E1C692"/>
<path d="M316.28 188.907C316.28 188.907 317.744 166.382 340.188 171.911C357.753 176.221 354.907 202.488 345.636 207.042C334.089 212.653 318.069 210.132 316.28 188.907Z" fill="#E1C692"/>
<path d="M325.469 173.457C322.623 175.815 320.427 178.824 318.964 182.158C316.199 188.907 317.256 196.633 321.81 202.407C324.168 205.253 327.014 207.53 330.348 209.156C326.689 208.099 323.436 206.066 320.834 203.22C319.533 201.756 318.476 200.211 317.662 198.422C316.849 196.633 316.28 194.844 316.036 192.892C315.792 190.94 315.792 189.07 316.036 187.118C316.361 185.167 317.012 183.378 317.825 181.589C319.533 178.173 322.216 175.408 325.469 173.457Z" fill="#F2EBEB"/>
<path d="M316.443 203.382C316.686 203.056 317.012 202.731 317.418 202.568C317.744 202.406 318.15 202.243 318.476 202.162C318.882 202.081 319.207 202.081 319.614 202.081C320.021 202.162 320.509 202.243 320.834 202.487C320.59 202.812 320.265 203.138 319.858 203.382C319.533 203.544 319.126 203.707 318.801 203.788C318.394 203.87 318.069 203.87 317.662 203.87C317.256 203.707 316.849 203.626 316.443 203.382Z" fill="#F2EBEB"/>
<path d="M313.596 196.551C313.759 196.226 314.003 195.901 314.328 195.738C314.572 195.575 314.816 195.413 315.141 195.331C315.467 195.25 315.792 195.25 316.036 195.25C316.443 195.25 316.768 195.413 317.093 195.657C316.93 195.982 316.687 196.307 316.361 196.551C315.873 196.958 315.223 197.12 314.653 197.039C314.247 196.876 313.84 196.714 313.596 196.551Z" fill="#F2EBEB"/>
<path d="M313.108 188.745C313.271 188.42 313.515 188.176 313.759 187.932C314.003 187.77 314.247 187.607 314.572 187.607C314.816 187.526 315.141 187.526 315.467 187.607C315.792 187.688 316.117 187.851 316.442 188.013C316.28 188.339 316.036 188.583 315.792 188.827C315.548 188.989 315.304 189.152 314.979 189.152C314.735 189.233 314.409 189.233 314.084 189.152C313.759 189.152 313.434 188.989 313.108 188.745Z" fill="#F2EBEB"/>
<path d="M314.735 182.484C314.897 182.158 315.223 181.833 315.548 181.67C315.792 181.508 316.117 181.426 316.442 181.345C316.768 181.264 317.093 181.264 317.418 181.345C317.825 181.426 318.15 181.589 318.475 181.833C318.313 182.158 317.988 182.484 317.662 182.646C317.418 182.809 317.093 182.89 316.768 182.972C316.442 183.053 316.117 183.053 315.792 182.972C315.385 182.89 315.06 182.728 314.735 182.484Z" fill="#F2EBEB"/>
<path d="M329.047 194.682C328.722 194.52 327.583 197.447 327.583 197.447C327.583 197.447 332.544 202.326 337.748 198.83C342.953 195.333 339.049 190.047 335.065 187.77C331.08 185.493 334.902 181.508 337.016 182.891C338.236 183.704 339.537 184.517 340.92 185.168L341.814 183.135C341.814 183.135 336.854 178.581 333.438 181.183C330.023 183.785 329.535 186.875 333.682 189.966C337.829 193.056 338.561 199.399 329.047 194.682Z" fill="#000001"/>
<path d="M332.333 197.83L331.532 201.317L333.434 201.754L334.235 198.266L332.333 197.83Z" fill="#000001"/>
<path d="M336.998 177.46L336.161 181.105L338.063 181.542L338.9 177.897L336.998 177.46Z" fill="#000001"/>
<path d="M282.695 296.657C282.695 296.657 271.879 299.828 269.683 298.283C267.488 296.738 270.334 274.212 271.635 274.05C272.936 273.887 282.288 287.874 282.288 287.874L282.695 296.657Z" fill="#000001"/>
<path d="M326.526 275.514C326.526 275.514 283.914 278.441 281.963 279.905C280.011 281.369 277.002 300.886 278.628 301.048C280.255 301.211 321.728 295.112 321.728 295.112L326.526 275.514Z" fill="#000001"/>
<path d="M338.155 319.751C338.155 319.751 341.814 330.242 340.513 332.6C339.212 334.958 319.045 333.901 318.801 332.6C318.557 331.299 330.267 320.809 330.267 320.809L338.155 319.751Z" fill="#000001"/>
<path d="M315.304 278.279C315.304 278.279 321.728 320.484 323.355 322.354C324.981 324.225 344.742 325.526 344.742 323.981C344.742 322.436 335.309 281.532 335.309 281.532L315.304 278.279Z" fill="#F2EBEB"/>
<path d="M318.801 221.273C318.801 221.273 312.62 227.941 312.864 228.266C313.271 228.51 313.678 228.673 314.165 228.754C314.165 228.754 309.774 233.634 312.458 237.374C312.458 237.374 318.15 241.115 323.436 239.651C323.436 239.651 330.917 223.956 329.616 222.574C328.315 221.192 318.801 221.273 318.801 221.273Z" fill="#EA8383"/>
<path d="M319.858 231.438C319.939 231.681 319.858 231.925 319.695 232.088C319.532 232.251 319.288 232.413 319.044 232.413C318.557 232.495 318.069 232.169 317.906 231.681C318.069 231.6 318.313 231.6 318.557 231.6C318.719 231.6 318.882 231.6 318.963 231.6C319.207 231.6 319.532 231.519 319.858 231.438Z" fill="#000001"/>
<path d="M323.111 226.64C322.297 226.397 321.647 226.071 320.996 225.746L320.021 225.258C319.695 225.095 319.37 224.851 319.045 224.689C319.858 224.526 320.671 224.689 321.403 225.014C321.81 225.177 322.135 225.421 322.379 225.665C322.623 225.909 322.867 226.234 323.111 226.64Z" fill="#A04040"/>
<path d="M320.752 227.372C320.346 227.535 319.939 227.616 319.533 227.698C319.37 227.698 319.207 227.779 319.045 227.779C318.801 227.86 318.638 227.942 318.394 228.023C318.313 227.779 318.394 227.454 318.638 227.21C318.801 226.966 319.045 226.885 319.37 226.803C319.614 226.722 319.858 226.803 320.183 226.885C320.427 226.966 320.59 227.128 320.752 227.372Z" fill="#000001"/>
<path d="M317.5 222.655L322.379 224.606L324.493 222.98V226.151L327.096 227.778L323.843 238.431C323.843 238.431 326.364 238.756 327.096 238.431C327.827 238.105 335.553 226.558 335.228 222.898C334.902 219.239 321.647 217.287 319.695 218.426C317.744 219.564 317.418 223.061 317.418 223.061" fill="#A04040"/>
<path d="M325.225 232.576C325.225 232.576 328.722 232.739 329.047 229.811C329.372 226.884 324.656 230.706 324.656 230.706L325.225 232.576Z" fill="#EA8383"/>
<path d="M313.434 244.449C313.434 244.449 312.864 238.676 313.921 238.676C314.979 238.676 326.445 237.7 326.851 239.082C327.258 240.465 324.656 246.645 324.656 246.645L313.434 244.449Z" fill="#E1C692"/>
<path d="M302.374 275.513C302.374 275.513 308.798 247.783 312.051 244.286C315.304 240.789 323.273 241.521 327.909 247.702C332.544 253.882 341.896 285.109 338.887 288.768C335.878 292.428 302.618 280.555 302.374 275.513Z" fill="#E1C692"/>
<path d="M343.847 222.899C343.847 222.899 344.579 214.198 345.392 213.141C346.206 212.084 349.54 210.132 350.434 208.75C351.329 207.367 349.946 207.286 349.946 207.286C349.946 207.286 352.549 204.277 350.841 204.521C350.841 204.521 351.248 201.919 348.971 203.22C346.694 204.521 340.107 208.668 337.748 209.075C336.041 209.319 334.252 208.994 332.625 208.18C331.487 207.692 330.836 208.18 330.917 208.506C330.999 208.831 333.845 210.945 334.414 213.629C334.983 216.312 332.788 222.167 332.788 222.167L343.847 222.899Z" fill="#EA8383"/>
<path d="M344.661 210.864C344.905 210.294 345.23 209.806 345.636 209.4C346.043 208.993 346.45 208.587 346.856 208.261C347.344 207.936 347.832 207.692 348.32 207.448C348.889 207.204 349.459 207.042 350.028 207.042C349.784 207.611 349.459 208.099 349.052 208.505C348.645 208.912 348.239 209.318 347.832 209.644C347.426 209.969 346.938 210.213 346.368 210.457C345.799 210.701 345.23 210.864 344.661 210.864Z" fill="#000001"/>
<path d="M344.172 208.993C344.498 208.342 344.823 207.692 345.311 207.204C345.799 206.716 346.287 206.228 346.856 205.821C347.425 205.415 348.076 205.089 348.726 204.845C349.377 204.52 350.19 204.439 350.922 204.601L349.377 205.984C348.889 206.39 348.401 206.797 347.832 207.204C347.263 207.61 346.693 207.935 346.124 208.261C345.474 208.505 344.823 208.749 344.172 208.993Z" fill="#000001"/>
<path d="M321.972 248.922C321.972 248.922 331.324 224.363 332.381 221.273C332.381 221.273 344.417 215.743 344.904 218.183C345.392 220.622 334.739 260.876 331.893 263.397C329.047 265.918 321.972 248.922 321.972 248.922Z" fill="#E1C692"/>
<path d="M321.972 248.922C322.541 246.482 323.192 244.124 324.005 241.766C324.818 239.407 325.55 237.13 326.445 234.772C327.339 232.414 328.234 230.218 329.21 227.941C330.186 225.664 331.243 223.469 332.381 221.273C331.812 223.713 331.161 226.071 330.348 228.429C329.535 230.787 328.803 233.064 327.909 235.423C327.014 237.781 326.119 239.977 325.144 242.254C324.168 244.531 323.192 246.726 321.972 248.922Z" fill="#000001"/>
<path d="M63.2929 253.069C63.2929 253.069 64.0248 244.123 63.2929 241.928C62.5611 239.732 1.73351 238.594 0.676348 240.301C-0.380815 242.009 -0.055534 252.825 0.676348 253.8C1.40823 254.776 63.1303 255.834 63.2929 253.069Z" fill="#E1C692"/>
<path d="M53.2091 241.765C53.5344 242.741 53.6971 243.717 53.8597 244.693C54.1037 246.644 54.1037 248.596 53.8597 250.548C53.7784 251.524 53.5344 252.499 53.2091 253.475C52.8839 252.499 52.6399 251.524 52.5586 250.548C52.3146 248.596 52.3146 246.644 52.5586 244.693C52.7212 243.717 52.8839 242.741 53.2091 241.765Z" fill="#F2EBEB"/>
<path d="M46.7851 240.22C47.1103 241.359 47.273 242.497 47.4356 243.636C47.5983 244.774 47.5983 245.913 47.5983 247.051C47.5983 248.19 47.517 249.328 47.4356 250.467C47.3543 251.605 47.1103 252.744 46.7851 253.882C46.4598 252.744 46.2158 251.605 46.1345 250.467C45.8905 248.19 45.8905 245.913 46.1345 243.636C46.2971 242.497 46.4598 241.359 46.7851 240.22Z" fill="#F2EBEB"/>
<path d="M40.1165 240.22C40.4418 241.359 40.6045 242.497 40.7671 243.636C40.8484 244.774 40.9297 245.913 40.9297 247.051C40.9297 248.19 40.8484 249.328 40.7671 250.467C40.6858 251.605 40.4418 252.744 40.1165 253.882C39.7913 252.744 39.5473 251.605 39.466 250.467C39.3847 249.328 39.3033 248.19 39.3033 247.051C39.3033 245.913 39.3847 244.774 39.466 243.636C39.6286 242.497 39.7913 241.359 40.1165 240.22Z" fill="#F2EBEB"/>
<path d="M33.4486 240.22C33.7739 241.359 34.0178 242.497 34.0991 243.636C34.2618 244.774 34.2618 245.913 34.2618 247.051C34.2618 248.19 34.1805 249.328 34.0991 250.467C34.0178 251.605 33.7739 252.744 33.4486 253.882C33.1233 252.744 32.9607 251.605 32.798 250.467C32.7167 249.328 32.6354 248.19 32.6354 247.051C32.6354 245.913 32.7167 244.774 32.798 243.636C32.9607 242.497 33.2046 241.359 33.4486 240.22Z" fill="#F2EBEB"/>
<path d="M6.28732 252.419C5.96204 251.443 5.71808 250.467 5.63676 249.492C5.55544 248.516 5.47412 247.54 5.47412 246.564C5.47412 245.588 5.55544 244.612 5.63676 243.636C5.71808 242.661 5.96204 241.685 6.28732 240.709C6.6126 241.685 6.77524 242.661 6.93789 243.636C7.18185 245.588 7.18185 247.54 6.93789 249.492C6.85656 250.467 6.6126 251.443 6.28732 252.419Z" fill="#F2EBEB"/>
<path d="M12.7118 253.964C12.3865 252.825 12.2238 251.687 12.0612 250.548C11.9799 249.41 11.8986 248.271 11.8986 247.133C11.8986 245.994 11.9799 244.856 12.0612 243.717C12.1425 242.579 12.3865 241.44 12.7118 240.302C13.037 241.44 13.281 242.579 13.3623 243.717C13.4436 244.856 13.525 245.994 13.525 247.133C13.525 248.271 13.4436 249.41 13.3623 250.548C13.281 251.687 13.037 252.825 12.7118 253.964Z" fill="#F2EBEB"/>
<path d="M19.38 253.964C19.0547 252.825 18.8107 251.687 18.7294 250.548C18.5668 249.41 18.5668 248.271 18.5668 247.133C18.5668 245.994 18.6481 244.856 18.7294 243.717C18.8107 242.579 19.0547 241.44 19.38 240.302C19.7053 241.44 19.8679 242.579 20.0305 243.717C20.1119 244.856 20.1932 245.994 20.1932 247.133C20.1932 248.271 20.1119 249.41 20.0305 250.548C19.8679 251.687 19.7053 252.825 19.38 253.964Z" fill="#F2EBEB"/>
<path d="M26.0483 253.964C25.723 252.825 25.5604 251.687 25.3977 250.548C25.3164 249.41 25.2351 248.271 25.2351 247.133C25.2351 245.994 25.3164 244.856 25.3977 243.717C25.4791 242.579 25.723 241.44 26.0483 240.302C26.3736 241.44 26.6176 242.579 26.6989 243.717C26.8615 244.856 26.8615 245.994 26.8615 247.133C26.8615 248.271 26.7802 249.41 26.6989 250.548C26.5362 251.687 26.3736 252.825 26.0483 253.964Z" fill="#F2EBEB"/>
<path d="M0.676392 253.882C4.49844 253.719 8.40182 253.638 12.2239 253.719C16.0459 253.801 19.9493 253.801 23.7713 253.882C27.5934 253.963 31.4154 254.126 35.2375 254.289L46.785 254.858C42.9629 255.264 39.1409 255.508 35.2375 255.508C31.4154 255.59 27.5121 255.508 23.69 255.427C19.868 255.346 15.9646 255.102 12.1425 254.858C8.32049 254.614 4.49844 254.37 0.676392 253.882Z" fill="#000001"/>
<path d="M65.0007 238.92C65.0007 238.92 65.7326 229.974 65.0007 227.779C64.2688 225.583 3.44128 224.445 2.38411 226.152C1.32695 227.86 1.65223 238.676 2.38411 239.652C3.11599 240.627 64.7567 241.766 65.0007 238.92Z" fill="#E1C692"/>
<path d="M54.917 227.616C55.2422 228.592 55.4049 229.568 55.5675 230.544C55.6488 231.52 55.7302 232.495 55.7302 233.471C55.7302 234.447 55.6488 235.423 55.5675 236.399C55.4862 237.375 55.2422 238.35 54.917 239.326C54.5917 238.35 54.3477 237.375 54.2664 236.399C54.1851 235.423 54.1038 234.447 54.1038 233.471C54.1038 232.495 54.1851 231.52 54.2664 230.544C54.429 229.568 54.5917 228.592 54.917 227.616Z" fill="#F2EBEB"/>
<path d="M48.4926 226.152C48.8179 227.29 48.9806 228.429 49.1432 229.567C49.3058 230.706 49.3058 231.844 49.3058 232.983C49.3058 234.121 49.2245 235.26 49.1432 236.398C49.0619 237.537 48.8179 238.675 48.4926 239.814C48.1674 238.675 47.9234 237.537 47.8421 236.398C47.6794 235.26 47.6794 234.121 47.6794 232.983C47.6794 231.844 47.7608 230.706 47.8421 229.567C47.9234 228.429 48.1674 227.209 48.4926 226.152Z" fill="#F2EBEB"/>
<path d="M41.8243 226.152C42.1496 227.29 42.3936 228.429 42.4749 229.567C42.5562 230.706 42.6375 231.844 42.6375 232.983C42.6375 234.121 42.5562 235.26 42.4749 236.398C42.3936 237.537 42.1496 238.675 41.8243 239.814C41.499 238.675 41.3364 237.537 41.1738 236.398C41.0924 235.26 41.0111 234.121 41.0111 232.983C41.0111 231.844 41.0924 230.706 41.1738 229.567C41.3364 228.348 41.499 227.209 41.8243 226.152Z" fill="#F2EBEB"/>
<path d="M35.1561 226.152C35.4814 227.29 35.644 228.429 35.8067 229.567C35.9693 230.706 35.9693 231.844 35.9693 232.983C35.9693 234.121 35.888 235.26 35.8067 236.398C35.7253 237.537 35.4814 238.675 35.1561 239.814C34.8308 238.675 34.5869 237.537 34.5055 236.398C34.3429 235.26 34.3429 234.121 34.3429 232.983C34.3429 231.844 34.4242 230.706 34.5055 229.567C34.6682 228.429 34.8308 227.209 35.1561 226.152Z" fill="#F2EBEB"/>
<path d="M7.99509 238.269C7.66981 237.293 7.50717 236.318 7.34453 235.342C7.26321 234.366 7.18188 233.39 7.18188 232.414C7.18188 231.438 7.26321 230.462 7.34453 229.487C7.42585 228.511 7.66981 227.535 7.99509 226.559C8.32037 227.535 8.56433 228.511 8.64565 229.487C8.72697 230.462 8.80829 231.438 8.80829 232.414C8.80829 233.39 8.72697 234.366 8.64565 235.342C8.48301 236.399 8.32037 237.375 7.99509 238.269Z" fill="#F2EBEB"/>
<path d="M14.4195 239.814C14.0942 238.675 13.9316 237.537 13.769 236.398C13.6876 235.26 13.6063 234.121 13.6063 232.983C13.6063 231.844 13.6876 230.706 13.769 229.567C13.8503 228.429 14.0942 227.29 14.4195 226.152C14.7448 227.29 14.9888 228.429 15.0701 229.567C15.2327 230.706 15.2327 231.844 15.2327 232.983C15.2327 234.121 15.1514 235.26 15.0701 236.398C14.9888 237.537 14.7448 238.757 14.4195 239.814Z" fill="#F2EBEB"/>
<path d="M21.0877 239.814C20.7625 238.675 20.5185 237.537 20.4372 236.398C20.3559 235.26 20.2745 234.121 20.2745 232.983C20.2745 231.844 20.3559 230.706 20.4372 229.567C20.5185 228.429 20.7625 227.29 21.0877 226.152C21.413 227.29 21.5757 228.429 21.7383 229.567C21.8196 230.706 21.9009 231.844 21.9009 232.983C21.9009 234.121 21.8196 235.26 21.7383 236.398C21.5757 237.618 21.413 238.757 21.0877 239.814Z" fill="#F2EBEB"/>
<path d="M27.6748 239.814C27.3495 238.675 27.1869 237.537 27.0242 236.398C26.9429 235.26 26.8616 234.121 26.8616 232.983C26.8616 231.844 26.9429 230.706 27.0242 229.567C27.1055 228.429 27.3495 227.29 27.6748 226.152C28.0001 227.29 28.1627 228.429 28.3253 229.567C28.488 230.706 28.488 231.844 28.488 232.983C28.488 234.121 28.4067 235.26 28.3253 236.398C28.244 237.618 28.0001 238.757 27.6748 239.814Z" fill="#F2EBEB"/>
<path d="M2.38416 239.733C6.20621 239.57 10.1096 239.489 13.9316 239.57C17.7537 239.652 21.6571 239.652 25.4791 239.733C29.3012 239.814 33.1232 239.977 37.0266 240.14L48.5741 240.709C44.752 241.116 40.93 241.36 37.0266 241.36C33.2045 241.441 29.3012 241.36 25.4791 241.278C21.6571 241.197 17.7537 240.953 13.9316 240.709C10.1096 240.465 6.20621 240.221 2.38416 239.733Z" fill="#000001"/>
<path d="M64.1062 224.201C64.1062 224.201 64.8381 215.256 64.1062 213.06C63.3743 210.864 2.54674 209.726 1.48958 211.434C0.432417 213.141 0.757698 223.957 1.48958 224.933C2.22146 225.909 63.9435 226.966 64.1062 224.201Z" fill="#E1C692"/>
<path d="M54.1037 212.897C54.429 213.873 54.673 214.849 54.7543 215.825C54.8356 216.8 54.9169 217.776 54.9169 218.752C54.9169 219.728 54.8356 220.704 54.7543 221.68C54.673 222.655 54.429 223.631 54.1037 224.607C53.7784 223.631 53.6158 222.655 53.4532 221.68C53.3719 220.704 53.2905 219.728 53.2905 218.752C53.2905 217.776 53.3719 216.8 53.4532 215.825C53.5345 214.849 53.7784 213.873 54.1037 212.897Z" fill="#F2EBEB"/>
<path d="M47.5981 211.352C47.9234 212.491 48.1674 213.629 48.2487 214.767C48.33 215.906 48.4113 217.044 48.4113 218.183C48.4113 219.321 48.33 220.46 48.2487 221.598C48.1674 222.737 47.9234 223.875 47.5981 225.014C47.2728 223.875 47.1102 222.737 46.9476 221.598C46.8662 220.46 46.7849 219.321 46.7849 218.183C46.7849 217.044 46.8662 215.906 46.9476 214.767C47.1102 213.629 47.3542 212.491 47.5981 211.352Z" fill="#F2EBEB"/>
<path d="M41.0113 211.352C41.3365 212.491 41.4992 213.629 41.6618 214.767C41.8245 215.906 41.8245 217.044 41.8245 218.183C41.8245 219.321 41.7431 220.46 41.6618 221.598C41.5805 222.737 41.3365 223.875 41.0113 225.014C40.686 223.875 40.442 222.737 40.3607 221.598C40.1167 219.321 40.1167 217.044 40.3607 214.767C40.442 213.629 40.686 212.491 41.0113 211.352Z" fill="#F2EBEB"/>
<path d="M34.3429 211.352C34.6681 212.491 34.8308 213.629 34.9934 214.767C35.0747 215.906 35.1561 217.044 35.1561 218.183C35.1561 219.321 35.0747 220.46 34.9934 221.598C34.9121 222.737 34.6681 223.875 34.3429 225.014C34.0176 223.875 33.7736 222.737 33.6923 221.598C33.611 220.46 33.5297 219.321 33.5297 218.183C33.5297 217.044 33.611 215.906 33.6923 214.767C33.7736 213.629 34.0176 212.491 34.3429 211.352Z" fill="#F2EBEB"/>
<path d="M7.10062 223.55C6.77534 222.574 6.6127 221.598 6.45006 220.622C6.2061 218.671 6.2061 216.719 6.45006 214.767C6.53138 213.792 6.77534 212.816 7.10062 211.84C7.42591 212.816 7.66987 213.792 7.75119 214.767C7.83251 215.743 7.91383 216.719 7.91383 217.695C7.91383 218.671 7.83251 219.647 7.75119 220.622C7.66987 221.598 7.42591 222.574 7.10062 223.55Z" fill="#F2EBEB"/>
<path d="M13.6061 225.095C13.2808 223.957 13.0369 222.818 12.9556 221.68C12.7116 219.403 12.7116 217.126 12.9556 214.849C13.0369 213.711 13.2808 212.572 13.6061 211.434C13.9314 212.572 14.094 213.711 14.2567 214.849C14.338 215.988 14.4193 217.126 14.4193 218.264C14.4193 219.403 14.338 220.541 14.2567 221.68C14.094 222.818 13.9314 223.957 13.6061 225.095Z" fill="#F2EBEB"/>
<path d="M20.1932 225.095C19.8679 223.957 19.7053 222.818 19.5426 221.68C19.4613 220.541 19.38 219.403 19.38 218.264C19.38 217.126 19.4613 215.988 19.5426 214.849C19.624 213.711 19.8679 212.572 20.1932 211.434C20.5185 212.572 20.7624 213.711 20.8438 214.849C21.0064 215.988 21.0064 217.126 21.0064 218.264C21.0064 219.403 20.9251 220.541 20.8438 221.68C20.6811 222.818 20.5185 223.957 20.1932 225.095Z" fill="#F2EBEB"/>
<path d="M26.8614 225.095C26.5361 223.957 26.2922 222.818 26.2109 221.68C26.1295 220.541 26.0482 219.403 26.0482 218.264C26.0482 217.126 26.1295 215.988 26.2109 214.849C26.2922 213.711 26.5361 212.572 26.8614 211.434C27.1867 212.572 27.3493 213.711 27.512 214.849C27.5933 215.988 27.6746 217.126 27.6746 218.264C27.6746 219.403 27.5933 220.541 27.512 221.68C27.4307 222.818 27.1867 223.957 26.8614 225.095Z" fill="#F2EBEB"/>
<path d="M1.4895 225.014C5.31155 224.851 9.21493 224.77 13.037 224.851C16.859 224.933 20.7624 224.933 24.5845 225.014C28.4065 225.095 32.2286 225.258 36.1319 225.42L47.6794 225.99C43.8574 226.396 40.0353 226.64 36.1319 226.64C32.3099 226.722 28.4065 226.64 24.5845 226.559C20.7624 226.478 16.859 226.234 13.037 225.99C9.21493 225.746 5.39287 225.502 1.4895 225.014Z" fill="#000001"/>
<path d="M82.7285 254.452C82.7285 254.452 90.454 249.979 91.8364 248.027C93.2188 246.076 59.9589 186.224 57.9259 186.305C55.8928 186.387 47.3542 192.892 46.8663 194.112C46.3784 195.332 80.2889 255.915 82.7285 254.452Z" fill="#E1C692"/>
<path d="M86.2252 238.106C85.6559 238.92 84.9241 239.652 84.1922 240.302C83.4603 240.953 82.7284 241.603 81.9152 242.091C81.102 242.66 80.2888 243.148 79.3943 243.636C78.4998 244.124 77.6052 244.531 76.6294 244.775C77.1986 243.962 77.9305 243.23 78.6624 242.579C79.3943 241.928 80.1262 241.278 80.9394 240.709C81.7526 240.139 82.5658 239.652 83.4603 239.164C84.3548 238.838 85.2493 238.432 86.2252 238.106Z" fill="#F2EBEB"/>
<path d="M83.8668 230.95C83.135 231.845 82.3218 232.658 81.4272 233.471C79.7195 235.016 77.8492 236.317 75.8161 237.456C74.8403 238.025 73.7831 238.513 72.6447 238.92C73.3765 238.025 74.1897 237.212 75.0843 236.399C76.792 234.854 78.6623 233.552 80.6954 232.414C81.7525 231.845 82.8097 231.357 83.8668 230.95Z" fill="#F2EBEB"/>
<path d="M80.1261 224.526C79.3942 225.421 78.581 226.315 77.6865 227.047C76.792 227.779 75.8975 228.511 75.0029 229.162C74.0271 229.812 73.1326 230.463 72.0754 231.032C71.0996 231.601 70.0424 232.089 68.9039 232.496C69.6358 231.601 70.449 230.707 71.3435 229.975C73.0513 228.43 74.9216 227.129 76.9546 225.99C78.0118 225.34 79.069 224.852 80.1261 224.526Z" fill="#F2EBEB"/>
<path d="M76.3854 218.02C75.6535 218.915 74.8403 219.728 73.9458 220.541C72.2381 222.086 70.3677 223.387 68.3347 224.526C67.3588 225.095 66.3017 225.583 65.1632 225.989C65.8951 225.095 66.7083 224.2 67.6028 223.468C68.4973 222.737 69.3919 222.005 70.2864 221.354C71.1809 220.704 72.1567 220.053 73.2139 219.484C74.2711 218.915 75.3282 218.427 76.3854 218.02Z" fill="#F2EBEB"/>
<path d="M51.1764 198.666C51.7456 197.853 52.4775 197.121 53.2094 196.47C54.6732 195.169 56.2182 194.031 58.0073 193.055C58.9018 192.567 59.7963 192.16 60.7722 191.917C60.2029 192.73 59.4711 193.462 58.7392 194.112C58.0073 194.763 57.2754 195.413 56.4622 195.983C55.649 196.552 54.8358 197.04 53.9413 197.528C53.0468 197.934 52.0709 198.341 51.1764 198.666Z" fill="#F2EBEB"/>
<path d="M53.5347 205.822C54.2666 204.928 55.0798 204.115 55.9743 203.301C57.682 201.756 59.5524 200.455 61.5854 199.317C62.5612 198.748 63.6184 198.26 64.7569 197.853C64.025 198.748 63.2118 199.642 62.3173 200.374C61.4227 201.106 60.5282 201.838 59.6337 202.488C58.7392 203.139 57.7633 203.789 56.7062 204.359C55.7303 204.928 54.6732 205.416 53.5347 205.822Z" fill="#F2EBEB"/>
<path d="M57.2754 212.327C58.0073 211.433 58.8205 210.538 59.715 209.806C60.6095 209.074 61.504 208.343 62.3986 207.692C63.3744 207.041 64.2689 206.391 65.3261 205.822C66.3019 205.252 67.3591 204.765 68.4976 204.358C67.7657 205.252 66.9525 206.147 66.058 206.879C65.1635 207.611 64.2689 208.343 63.3744 208.993C62.3986 209.644 61.504 210.294 60.4469 210.864C59.3897 211.433 58.3326 211.921 57.2754 212.327Z" fill="#F2EBEB"/>
<path d="M61.016 218.753C61.7479 217.858 62.5611 217.045 63.4556 216.232C65.1633 214.687 67.0337 213.385 69.0667 212.247C70.0425 211.678 71.0997 211.19 72.2382 210.783C71.5063 211.678 70.6931 212.572 69.7986 213.304C68.9041 214.036 68.0095 214.768 67.115 215.418C66.1392 216.069 65.2446 216.72 64.1875 217.289C63.1303 217.858 62.0732 218.346 61.016 218.753Z" fill="#F2EBEB"/>
<path d="M46.7849 194.031C49.1432 197.69 51.3388 201.431 53.4532 205.172C55.5675 208.912 57.6818 212.734 59.7962 216.475C61.9105 220.216 63.9435 224.119 65.8952 227.941L71.8316 239.489C69.2293 235.992 66.9523 232.333 64.7567 228.592C62.561 224.851 60.4467 221.11 58.3324 217.288C56.2181 213.466 54.2664 209.644 52.3147 205.822C50.363 202 48.574 198.015 46.7849 194.031Z" fill="#000001"/>
</svg>
