<svg viewBox="0 0 328 332" fill="none" xmlns="http://www.w3.org/2000/svg">
<path d="M59.1875 276.486L71.2681 119.666H78.714L72.3318 276.486H59.1875Z" fill="#000001"/>
<path d="M250.426 276.487H266.153L253.693 124.605H242.144L250.426 276.487Z" fill="#000001"/>
<path d="M276.866 136.153H49.8422V176.574H276.866V136.153Z" fill="#E1C692"/>
<mask id="mask0_56_5045" style="mask-type:luminance" maskUnits="userSpaceOnUse" x="49" y="136" width="228" height="41">
<path d="M276.866 136.155H49.8419V176.576H276.866V136.155Z" fill="white"/>
</mask>
<g mask="url(#mask0_56_5045)">
<path d="M192.986 313.261C192.758 313.261 192.606 313.109 192.606 312.881C192.606 312.729 192.682 312.653 192.758 312.577L364.394 173.232C364.545 173.08 364.773 173.156 364.925 173.308C365.077 173.46 365.001 173.688 364.849 173.84L193.29 313.185C193.214 313.261 193.138 313.261 192.986 313.261Z" fill="#F2EBEB"/>
<path d="M180.221 296.317C180.069 296.317 179.993 296.241 179.917 296.165C179.765 296.013 179.841 295.785 179.993 295.633L354.516 160.923C354.668 160.771 354.896 160.847 355.048 160.999C355.124 161.151 355.124 161.379 354.972 161.531L180.449 296.241C180.373 296.241 180.297 296.317 180.221 296.317Z" fill="#F2EBEB"/>
<path d="M168.369 280.514C168.141 280.514 167.989 280.362 167.989 280.134C167.989 279.982 168.065 279.906 168.141 279.83L344.183 147.096C344.335 146.944 344.563 147.02 344.715 147.171C344.867 147.323 344.791 147.551 344.639 147.703L168.597 280.438C168.521 280.514 168.445 280.514 168.369 280.514Z" fill="#F2EBEB"/>
<path d="M157.048 265.546C156.896 265.546 156.82 265.47 156.744 265.394C156.592 265.242 156.668 265.014 156.82 264.862L334.002 133.571C334.154 133.419 334.382 133.495 334.534 133.647C334.686 133.799 334.61 134.027 334.458 134.179L157.276 265.47C157.2 265.546 157.124 265.546 157.048 265.546Z" fill="#F2EBEB"/>
<path d="M144.815 249.362C144.663 249.362 144.587 249.286 144.511 249.21C144.359 249.058 144.435 248.83 144.587 248.678L325.341 122.25C325.493 122.098 325.72 122.174 325.872 122.326C326.024 122.478 325.948 122.706 325.796 122.858L145.043 249.286C145.043 249.362 144.967 249.362 144.815 249.362Z" fill="#F2EBEB"/>
<path d="M134.482 235.686C134.33 235.686 134.254 235.61 134.178 235.534C134.026 235.382 134.102 235.154 134.254 235.003L316.223 110.094C316.375 109.942 316.603 110.018 316.755 110.17C316.831 110.322 316.831 110.549 316.679 110.701L134.71 235.61C134.634 235.686 134.558 235.686 134.482 235.686Z" fill="#F2EBEB"/>
<path d="M127.948 227.024C127.796 227.024 127.72 226.948 127.644 226.872C127.492 226.721 127.568 226.493 127.72 226.341L310.297 102.267C310.449 102.115 310.677 102.191 310.829 102.343C310.981 102.495 310.905 102.723 310.753 102.875L128.176 226.948C128.1 227.024 128.024 227.024 127.948 227.024Z" fill="#F2EBEB"/>
<path d="M122.325 219.579C122.098 219.579 121.946 219.427 121.946 219.199C121.946 219.047 122.022 218.971 122.098 218.895L302.851 92.4666C303.003 92.3147 303.231 92.3906 303.383 92.5426C303.535 92.6946 303.459 92.9225 303.307 93.0744L122.477 219.503C122.477 219.503 122.401 219.579 122.325 219.579Z" fill="#F2EBEB"/>
<path d="M88.439 218.895C88.287 218.895 88.2111 218.819 88.1351 218.743C87.9831 218.591 88.0591 218.363 88.2111 218.211L285.528 80.4617C285.68 80.3098 285.908 80.3858 286.06 80.5377C286.212 80.6897 286.136 80.9176 285.984 81.0696L88.6669 218.819C88.5909 218.895 88.515 218.895 88.439 218.895Z" fill="#F2EBEB"/>
<path d="M74.5349 204.84C74.307 204.84 74.155 204.688 74.155 204.46C74.155 204.308 74.231 204.232 74.307 204.156L275.802 68.0779C275.954 67.926 276.182 68.002 276.334 68.1539C276.486 68.3059 276.41 68.5338 276.258 68.6858L74.7628 204.764C74.6869 204.764 74.6109 204.84 74.5349 204.84Z" fill="#F2EBEB"/>
<path d="M55.7681 197.393C55.5401 197.393 55.3882 197.241 55.3882 197.013C55.3882 196.861 55.4642 196.785 55.5401 196.709L265.317 54.325C265.469 54.1731 265.697 54.249 265.849 54.401C266.001 54.553 265.925 54.7809 265.773 54.9328L55.996 197.317C55.92 197.317 55.8441 197.393 55.7681 197.393Z" fill="#F2EBEB"/>
<path d="M38.521 186.149C38.3691 186.149 38.2931 186.073 38.2171 185.997C38.0652 185.845 38.1411 185.617 38.2931 185.465L255.288 40.7254C255.44 40.5735 255.668 40.6494 255.82 40.8014C255.972 40.9533 255.896 41.1813 255.744 41.3332L38.673 186.149C38.597 186.149 38.597 186.149 38.521 186.149Z" fill="#F2EBEB"/>
<path d="M32.8226 165.026C32.6707 165.026 32.5947 164.95 32.5187 164.874C32.4427 164.722 32.4427 164.494 32.6707 164.342L246.627 29.4038C246.779 29.3279 247.007 29.3279 247.159 29.5558C247.234 29.7078 247.234 29.9357 247.007 30.0876L32.9746 164.95C32.9746 164.95 32.8986 165.026 32.8226 165.026Z" fill="#F2EBEB"/>
</g>
<path d="M277.322 212.058H50.2979V235.307H277.322V212.058Z" fill="#E1C692"/>
<mask id="mask1_56_5045" style="mask-type:luminance" maskUnits="userSpaceOnUse" x="50" y="212" width="228" height="24">
<path d="M277.322 212.056H50.2981V235.305H277.322V212.056Z" fill="white"/>
</mask>
<g mask="url(#mask1_56_5045)">
<path d="M168.825 356.415C168.597 356.415 168.445 356.264 168.445 356.036C168.445 355.884 168.521 355.808 168.597 355.732L344.64 222.997C344.792 222.845 345.02 222.921 345.171 223.073C345.323 223.225 345.247 223.453 345.096 223.605L169.053 356.339C168.977 356.415 168.901 356.415 168.825 356.415Z" fill="#F2EBEB"/>
<path d="M157.504 341.448C157.276 341.448 157.124 341.296 157.124 341.068C157.124 340.916 157.2 340.84 157.276 340.765L334.459 209.473C334.61 209.321 334.838 209.321 334.99 209.473C335.142 209.625 335.142 209.853 334.99 210.005C334.99 210.005 334.914 210.005 334.914 210.081L157.732 341.372C157.732 341.372 157.58 341.448 157.504 341.448Z" fill="#F2EBEB"/>
<path d="M145.348 325.265C145.12 325.265 144.968 325.113 144.968 324.885C144.968 324.733 145.044 324.657 145.12 324.581L325.873 198.152C326.025 198 326.253 198.076 326.405 198.228C326.557 198.38 326.481 198.608 326.329 198.76L145.575 325.189C145.5 325.265 145.424 325.265 145.348 325.265Z" fill="#F2EBEB"/>
<path d="M134.938 311.588C134.71 311.588 134.558 311.436 134.558 311.208C134.558 311.056 134.634 310.98 134.71 310.904L316.603 185.995C316.755 185.843 316.983 185.919 317.135 186.071C317.287 186.223 317.211 186.451 317.059 186.603L135.166 311.512C135.166 311.588 135.09 311.588 134.938 311.588Z" fill="#F2EBEB"/>
<path d="M128.404 302.927C128.252 302.927 128.176 302.851 128.1 302.775C127.948 302.623 128.024 302.395 128.176 302.243L310.753 178.17C310.905 178.018 311.133 178.094 311.285 178.246C311.437 178.398 311.361 178.626 311.209 178.778L128.632 302.851C128.556 302.927 128.48 302.927 128.404 302.927Z" fill="#F2EBEB"/>
<path d="M122.782 295.405C122.63 295.405 122.554 295.329 122.478 295.253C122.326 295.101 122.402 294.873 122.554 294.721L303.307 168.293C303.459 168.217 303.687 168.217 303.839 168.444C303.915 168.596 303.915 168.824 303.763 168.976L123.01 295.405C122.934 295.405 122.858 295.405 122.782 295.405Z" fill="#F2EBEB"/>
<path d="M88.9712 294.796C88.8193 294.796 88.7433 294.72 88.6673 294.644C88.5153 294.492 88.5913 294.264 88.7433 294.112L286.06 156.363C286.212 156.211 286.44 156.287 286.592 156.439C286.744 156.591 286.668 156.819 286.516 156.971L89.1991 294.72C89.1232 294.796 89.0472 294.796 88.9712 294.796Z" fill="#F2EBEB"/>
<path d="M74.9912 280.665C74.8393 280.665 74.7633 280.589 74.6873 280.513C74.5354 280.361 74.6113 280.133 74.7633 279.981L276.259 143.903C276.411 143.751 276.639 143.827 276.791 143.979C276.943 144.131 276.867 144.359 276.715 144.511L75.2192 280.665C75.1432 280.665 75.0672 280.665 74.9912 280.665Z" fill="#F2EBEB"/>
<path d="M56.3004 273.218C56.1485 273.218 56.0725 273.142 55.9965 273.066C55.8446 272.914 55.9206 272.686 56.0725 272.534L265.85 130.15C266.002 129.998 266.23 130.074 266.382 130.226C266.534 130.378 266.458 130.606 266.306 130.758L56.5284 273.218C56.4524 273.218 56.3764 273.294 56.3004 273.218Z" fill="#F2EBEB"/>
<path d="M38.9773 262.05C38.7494 262.05 38.5974 261.898 38.5974 261.67C38.5974 261.518 38.6734 261.442 38.7494 261.366L255.745 116.627C255.896 116.475 256.124 116.551 256.276 116.703C256.428 116.855 256.352 117.083 256.2 117.235L39.2052 261.974C39.1293 262.05 39.0533 262.05 38.9773 262.05Z" fill="#F2EBEB"/>
<path d="M33.2788 240.852C33.1268 240.852 33.0509 240.776 32.9749 240.7C32.8989 240.548 32.8989 240.32 33.1268 240.168L247.235 105.306C247.387 105.23 247.615 105.23 247.767 105.458C247.843 105.61 247.843 105.838 247.691 105.99L33.5067 240.852C33.4308 240.852 33.3548 240.928 33.2788 240.852Z" fill="#F2EBEB"/>
</g>
<path d="M63.8982 124.453C63.8982 124.453 68.153 132.203 79.9297 130.228C91.7064 128.252 93.074 109.562 83.4247 103.787C73.7754 98.0129 56.1484 106.826 63.8982 124.453Z" fill="#E1C692"/>
<path d="M68.229 117.691V115.412H83.5767L82.8169 118.831L68.229 117.691Z" fill="#F2EBEB"/>
<path d="M234.394 126.96C234.394 126.96 238.649 134.71 250.426 132.735C262.202 130.759 263.57 112.069 253.921 106.294C244.272 100.52 226.72 109.409 234.394 126.96Z" fill="#E1C692"/>
<path d="M238.801 120.198V117.919H254.073L253.389 121.338L238.801 120.198Z" fill="#F2EBEB"/>
<path d="M118.755 148.007C118.755 148.007 161.151 192.302 165.102 191.162C169.053 190.023 208.941 151.198 208.789 147.931C208.638 144.663 167.533 102.191 163.734 102.191C159.935 102.191 118.755 148.007 118.755 148.007Z" fill="#000001"/>
<path d="M163.126 156.592C163.126 156.592 160.619 131.443 160.847 129.696C161.075 127.948 167.685 126.885 167.685 126.885L165.33 156.668H163.126V156.592Z" fill="#F2EBEB"/>
<path d="M161.759 165.33C161.759 165.33 162.594 166.849 164.95 166.47C167.305 166.09 167.609 162.291 165.634 161.151C163.658 160.011 160.239 161.835 161.759 165.33Z" fill="#F2EBEB"/>
<path d="M265.622 262.735C265.622 262.735 328 294.874 328 298.065C328 301.257 261.443 307.867 261.443 307.867L265.622 262.735Z" fill="#E1C692"/>
<mask id="mask2_56_5045" style="mask-type:luminance" maskUnits="userSpaceOnUse" x="261" y="262" width="67" height="46">
<path d="M265.621 262.734C265.621 262.734 328 294.873 328 298.064C328 301.256 261.443 307.866 261.443 307.866L265.621 262.734Z" fill="white"/>
</mask>
<g mask="url(#mask2_56_5045)">
<path d="M265.545 388.707C265.393 388.707 265.317 388.631 265.242 388.555C265.09 388.403 265.166 388.175 265.318 388.023L392.81 284.54C392.962 284.388 393.19 284.464 393.342 284.616C393.494 284.768 393.418 284.996 393.266 285.148L265.849 388.631C265.697 388.707 265.621 388.707 265.545 388.707Z" fill="#F2EBEB"/>
<path d="M256.048 376.093C255.896 376.093 255.82 376.017 255.744 375.941C255.592 375.789 255.668 375.561 255.82 375.409L385.44 275.346C385.592 275.194 385.82 275.27 385.972 275.422C386.048 275.573 386.048 275.801 385.896 275.953L256.276 376.017C256.2 376.093 256.124 376.093 256.048 376.093Z" fill="#F2EBEB"/>
<path d="M247.235 364.392C247.083 364.392 247.007 364.316 246.931 364.24C246.779 364.088 246.855 363.86 247.007 363.708L377.766 265.088C377.918 264.936 378.146 265.012 378.298 265.164C378.45 265.316 378.374 265.544 378.222 265.696L247.463 364.316C247.387 364.392 247.311 364.392 247.235 364.392Z" fill="#F2EBEB"/>
<path d="M238.877 353.301C238.725 353.301 238.649 353.225 238.573 353.149C238.421 352.997 238.497 352.769 238.649 352.617L370.244 255.06C370.396 254.908 370.624 254.984 370.776 255.136C370.928 255.288 370.852 255.516 370.7 255.668L239.105 353.225C239.029 353.225 238.953 353.301 238.877 353.301Z" fill="#F2EBEB"/>
<path d="M229.835 341.295C229.684 341.295 229.608 341.219 229.532 341.143C229.38 340.992 229.456 340.764 229.608 340.612L363.862 246.702C364.014 246.55 364.242 246.626 364.394 246.778C364.546 246.93 364.47 247.158 364.318 247.31L229.987 341.219C229.987 341.219 229.911 341.295 229.835 341.295Z" fill="#F2EBEB"/>
<path d="M222.086 331.114C221.934 331.114 221.858 331.038 221.782 330.962C221.63 330.81 221.706 330.582 221.858 330.43L356.948 237.66C357.1 237.508 357.328 237.584 357.48 237.736C357.632 237.888 357.556 238.116 357.404 238.268L222.314 331.038C222.238 331.114 222.162 331.114 222.086 331.114Z" fill="#F2EBEB"/>
<path d="M217.223 324.655C217.071 324.655 216.995 324.579 216.919 324.503C216.767 324.351 216.843 324.123 216.995 323.972L352.617 231.809C352.769 231.657 352.997 231.733 353.149 231.885C353.301 232.037 353.225 232.265 353.073 232.417L217.451 324.579C217.375 324.655 217.299 324.655 217.223 324.655Z" fill="#F2EBEB"/>
<path d="M213.044 319.11C212.892 319.11 212.816 319.034 212.74 318.958C212.588 318.806 212.664 318.578 212.816 318.426L347.071 224.516C347.223 224.44 347.451 224.44 347.602 224.668C347.678 224.82 347.678 225.048 347.526 225.2L213.272 319.034C213.196 319.11 213.12 319.11 213.044 319.11Z" fill="#F2EBEB"/>
<path d="M187.895 318.654C187.743 318.654 187.667 318.578 187.591 318.502C187.439 318.35 187.515 318.122 187.667 317.97L334.23 215.627C334.382 215.475 334.61 215.551 334.762 215.703C334.914 215.855 334.838 216.083 334.686 216.235L188.123 318.578C188.047 318.578 187.971 318.654 187.895 318.654Z" fill="#F2EBEB"/>
<path d="M177.562 308.169C177.41 308.169 177.334 308.093 177.258 308.017C177.106 307.865 177.182 307.637 177.334 307.485L326.936 206.433C327.088 206.281 327.316 206.357 327.468 206.509C327.62 206.661 327.544 206.889 327.392 207.041L177.79 308.093C177.714 308.169 177.638 308.169 177.562 308.169Z" fill="#F2EBEB"/>
<path d="M163.658 302.623C163.43 302.623 163.278 302.471 163.278 302.243C163.278 302.091 163.354 302.015 163.43 301.939L319.262 196.177C319.414 196.025 319.642 196.101 319.794 196.253C319.946 196.405 319.87 196.632 319.718 196.784L163.886 302.547C163.81 302.623 163.734 302.623 163.658 302.623Z" fill="#F2EBEB"/>
<path d="M150.818 294.341C150.666 294.341 150.59 294.265 150.514 294.189C150.362 294.037 150.438 293.809 150.59 293.657L311.741 186.147C311.892 185.995 312.12 186.071 312.272 186.223C312.424 186.375 312.348 186.603 312.196 186.755L151.046 294.265C150.97 294.265 150.894 294.341 150.818 294.341Z" fill="#F2EBEB"/>
<path d="M146.563 278.613C146.411 278.613 146.335 278.537 146.259 278.461C146.183 278.309 146.183 278.081 146.335 277.929L305.282 177.713C305.434 177.637 305.662 177.637 305.814 177.789C305.89 177.941 305.89 178.169 305.738 178.321L146.791 278.537C146.715 278.537 146.639 278.613 146.563 278.613Z" fill="#F2EBEB"/>
</g>
<path d="M231.127 310.677L257.036 331.191C257.036 331.191 271.396 261.747 269.648 259.24C267.901 256.732 243.74 241.233 242.296 242.296C240.852 243.36 231.127 310.677 231.127 310.677Z" fill="#E1C692"/>
<path d="M259.543 277.248C259.543 275.425 259.011 254.606 250.426 260.305C241.84 266.003 235.078 304.752 244.424 307.868C253.769 310.983 259.543 294.495 259.543 277.248Z" fill="#000001"/>
<path d="M14.132 284.997L0 296.241L76.7385 299.585C73.8513 294.19 59.7952 280.59 59.7952 280.59L14.132 284.997Z" fill="#000001"/>
<path d="M12.3086 290.391C12.3086 290.391 42.5481 198.077 44.9794 198.077H50.4499L66.5574 290.391C66.5574 290.391 34.5704 293.126 12.3086 290.391Z" fill="#000001"/>
<mask id="mask3_56_5045" style="mask-type:luminance" maskUnits="userSpaceOnUse" x="12" y="198" width="55" height="94">
<path d="M12.3085 290.392C12.3085 290.392 42.548 198.078 44.9793 198.078H50.4498L66.5573 290.392C66.5573 290.392 34.5702 293.127 12.3085 290.392Z" fill="white"/>
</mask>
<g mask="url(#mask3_56_5045)">
<path d="M13.3725 372.525C13.2205 372.525 13.1445 372.449 13.0685 372.373C12.9166 372.221 12.9926 371.993 13.1445 371.841L158.72 253.694C158.872 253.542 159.1 253.618 159.252 253.77C159.404 253.922 159.328 254.15 159.176 254.302L13.6004 372.449C13.5244 372.525 13.4484 372.525 13.3725 372.525Z" fill="#F2EBEB"/>
<path d="M2.50747 358.166C2.35551 358.166 2.27954 358.09 2.20356 358.014C2.0516 357.862 2.12758 357.634 2.27954 357.482L150.286 243.21C150.438 243.058 150.666 243.134 150.818 243.286C150.894 243.438 150.894 243.666 150.742 243.818L2.73541 358.09C2.65943 358.09 2.58345 358.166 2.50747 358.166Z" fill="#F2EBEB"/>
<path d="M-7.59775 344.793C-7.74971 344.793 -7.82569 344.717 -7.90167 344.641C-8.05362 344.489 -7.97765 344.261 -7.82569 344.109L141.472 231.509C141.624 231.357 141.852 231.433 142.004 231.585C142.156 231.737 142.08 231.964 141.928 232.116L-7.36982 344.717C-7.36982 344.717 -7.52177 344.793 -7.59775 344.793Z" fill="#F2EBEB"/>
<path d="M-17.1709 332.028C-17.3228 332.028 -17.3988 331.952 -17.4748 331.876C-17.6267 331.725 -17.5508 331.497 -17.3988 331.345L132.887 220.036C133.039 219.884 133.267 219.884 133.419 220.036C133.571 220.188 133.571 220.416 133.419 220.568C133.419 220.568 133.343 220.568 133.343 220.644L-16.9429 332.028C-17.0189 332.028 -17.0949 332.028 -17.1709 332.028Z" fill="#F2EBEB"/>
<path d="M-27.5041 318.353C-27.6561 318.353 -27.7321 318.277 -27.808 318.201C-27.96 318.049 -27.884 317.822 -27.7321 317.67L125.593 210.464C125.745 210.312 125.973 210.388 126.125 210.54C126.277 210.692 126.201 210.92 126.049 211.072L-27.2762 318.277C-27.3522 318.353 -27.4281 318.353 -27.5041 318.353Z" fill="#F2EBEB"/>
<path d="M-36.2417 306.728C-36.3936 306.728 -36.4696 306.652 -36.5456 306.576C-36.6975 306.424 -36.6216 306.196 -36.4696 306.044L117.843 200.13C117.995 199.978 118.223 200.054 118.375 200.206C118.451 200.358 118.451 200.586 118.299 200.738L-36.0897 306.652C-36.1657 306.728 -36.2417 306.728 -36.2417 306.728Z" fill="#F2EBEB"/>
<path d="M-41.788 299.357C-41.94 299.357 -42.016 299.281 -42.0919 299.206C-42.1679 299.054 -42.1679 298.826 -42.016 298.674L112.829 193.443C112.981 193.291 113.208 193.367 113.36 193.519C113.512 193.671 113.436 193.899 113.284 194.051L-41.6361 299.357C-41.712 299.357 -41.788 299.433 -41.788 299.357Z" fill="#F2EBEB"/>
<path d="M-46.6506 293.051C-46.8026 293.051 -46.8785 292.975 -46.9545 292.899C-47.1065 292.747 -47.0305 292.519 -46.8785 292.367L106.446 185.161C106.598 185.009 106.826 185.085 106.978 185.237C107.13 185.389 107.054 185.617 106.902 185.769L-46.4227 292.975C-46.4987 293.051 -46.5746 293.051 -46.6506 293.051Z" fill="#F2EBEB"/>
<path d="M155.832 329.825C155.68 329.825 155.605 329.749 155.529 329.673L25.529 157.278C25.377 157.126 25.453 156.898 25.605 156.746C25.7569 156.594 25.9849 156.67 26.1368 156.822L156.136 329.218C156.288 329.37 156.212 329.597 156.06 329.749C155.984 329.825 155.908 329.825 155.832 329.825Z" fill="#F2EBEB"/>
<path d="M163.278 323.823C163.126 323.823 163.05 323.747 162.974 323.671L33.1269 154.694C32.9749 154.542 33.0509 154.314 33.2029 154.162C33.3548 154.086 33.5828 154.086 33.7347 154.238L163.582 323.291C163.734 323.443 163.658 323.671 163.506 323.823C163.506 323.823 163.354 323.823 163.278 323.823Z" fill="#F2EBEB"/>
<path d="M-27.1242 273.982C-27.2002 273.982 -27.3522 273.906 -27.4282 273.83C-27.5801 273.678 -27.5041 273.45 -27.3522 273.298L91.8584 174.981C92.0103 174.829 92.2383 174.905 92.3903 175.057C92.5422 175.209 92.4662 175.437 92.3143 175.589L-26.8963 273.906C-26.9723 273.906 -27.0483 273.982 -27.1242 273.982Z" fill="#F2EBEB"/>
<path d="M-37.9892 259.545C-38.1412 259.545 -38.2172 259.469 -38.2931 259.393C-38.4451 259.241 -38.3691 259.013 -38.2172 258.861L83.5007 164.42C83.6527 164.268 83.8806 164.344 84.0326 164.496C84.1845 164.648 84.1085 164.876 83.9566 165.028L-37.7613 259.469C-37.8373 259.545 -37.9133 259.545 -37.9892 259.545Z" fill="#F2EBEB"/>
<path d="M-48.0945 246.173C-48.2464 246.173 -48.3224 246.097 -48.3984 246.021C-48.5503 245.869 -48.4743 245.641 -48.3224 245.49L74.6871 152.72C74.8391 152.568 75.067 152.644 75.219 152.796C75.3709 152.947 75.2949 153.175 75.143 153.327L-47.8665 246.173C-47.9425 246.173 -48.0185 246.249 -48.0945 246.173Z" fill="#F2EBEB"/>
<path d="M-57.6676 233.484C-57.8195 233.484 -57.8955 233.408 -57.9715 233.332C-58.1234 233.18 -58.0475 232.952 -57.8955 232.8L66.1017 141.246C66.2537 141.094 66.4816 141.17 66.6336 141.322C66.7855 141.474 66.7095 141.702 66.5576 141.854L-57.4396 233.408C-57.5156 233.484 -57.5916 233.484 -57.6676 233.484Z" fill="#F2EBEB"/>
<path d="M-68.0008 219.808C-68.1528 219.808 -68.2288 219.732 -68.3047 219.656C-68.4567 219.504 -68.3807 219.276 -68.2288 219.124L58.8076 131.749C58.9596 131.597 59.1875 131.597 59.3395 131.749C59.4914 131.901 59.4914 132.129 59.3395 132.281C59.3395 132.281 59.2635 132.281 59.2635 132.357L-67.7729 219.732C-67.8489 219.808 -67.9248 219.808 -68.0008 219.808Z" fill="#F2EBEB"/>
<path d="M-76.8142 208.184C-76.9661 208.184 -77.0421 208.108 -77.1181 208.032C-77.2701 207.88 -77.1941 207.652 -77.0421 207.5L50.982 121.416C51.1339 121.264 51.3619 121.34 51.5138 121.492C51.6658 121.644 51.5898 121.872 51.4379 122.024L-76.5862 208.108C-76.6622 208.183 -76.7382 208.184 -76.8142 208.184Z" fill="#F2EBEB"/>
<path d="M-82.3607 200.814C-82.5126 200.814 -82.5886 200.738 -82.6646 200.662C-82.8166 200.51 -82.7406 200.282 -82.5886 200.13L45.9673 114.73C46.1193 114.578 46.3472 114.654 46.4992 114.806C46.6511 114.958 46.5751 115.186 46.4232 115.338L-82.1328 200.738C-82.2087 200.814 -82.2847 200.814 -82.3607 200.814Z" fill="#F2EBEB"/>
</g>
<path d="M46.8029 24.0097C49.7822 24.0097 52.1974 21.5945 52.1974 18.6152C52.1974 15.6359 49.7822 13.2207 46.8029 13.2207C43.8236 13.2207 41.4084 15.6359 41.4084 18.6152C41.4084 21.5945 43.8236 24.0097 46.8029 24.0097Z" fill="#F2EBEB"/>
<path d="M33.3546 81.6773C36.5857 81.6773 39.205 79.058 39.205 75.8269C39.205 72.5959 36.5857 69.9766 33.3546 69.9766C30.1236 69.9766 27.5043 72.5959 27.5043 75.8269C27.5043 79.058 30.1236 81.6773 33.3546 81.6773Z" fill="#F2EBEB"/>
<path d="M300.116 55.0084C304.396 55.0084 307.866 51.5387 307.866 47.2586C307.866 42.9785 304.396 39.5088 300.116 39.5088C295.836 39.5088 292.366 42.9785 292.366 47.2586C292.366 51.5387 295.836 55.0084 300.116 55.0084Z" fill="#F2EBEB"/>
<path d="M122.857 44.5243C125.207 44.5243 127.112 42.6193 127.112 40.2695C127.112 37.9196 125.207 36.0146 122.857 36.0146C120.508 36.0146 118.603 37.9196 118.603 40.2695C118.603 42.6193 120.508 44.5243 122.857 44.5243Z" fill="#F2EBEB"/>
<path d="M171.028 293.354C174.259 293.354 176.878 290.735 176.878 287.504C176.878 284.273 174.259 281.653 171.028 281.653C167.797 281.653 165.178 284.273 165.178 287.504C165.178 290.735 167.797 293.354 171.028 293.354Z" fill="#F2EBEB"/>
<path d="M218.743 13.2203C222.393 13.2203 225.353 10.2608 225.353 6.61015C225.353 2.95946 222.393 0 218.743 0C215.092 0 212.132 2.95946 212.132 6.61015C212.132 10.2608 215.092 13.2203 218.743 13.2203Z" fill="#F2EBEB"/>
<path d="M206.586 66.1017C209.649 66.1017 212.132 63.6184 212.132 60.5552C212.132 57.492 209.649 55.0088 206.586 55.0088C203.523 55.0088 201.04 57.492 201.04 60.5552C201.04 63.6184 203.523 66.1017 206.586 66.1017Z" fill="#F2EBEB"/>
</svg>
