<svg viewBox="0 0 320 331" fill="none" xmlns="http://www.w3.org/2000/svg">
<path d="M28.1808 266.209C28.1808 266.209 11.6806 96.6187 16.4454 95.6481C21.2101 94.6775 301.625 88.2362 303.213 95.6481C304.801 103.06 293.154 262.591 287.948 266.209C282.742 269.826 28.5337 269.915 28.1808 266.209Z" fill="#000001"/>
<path d="M32.8572 112.589H287.154L279.389 251.385L41.4161 254.473L32.8572 112.589Z" fill="#F2EBEB"/>
<path d="M158.859 101.031C158.859 101.031 154.976 101.207 156.917 105.354C158.859 109.501 161.947 108.09 162.741 105.354C163.535 102.619 160.359 100.589 158.859 101.031Z" fill="#E1C692"/>
<path d="M32.8573 273.445C32.8573 273.445 -3.05491 322.239 0.209832 322.857C3.47457 323.474 317.772 322.857 319.096 318.974C320.419 315.092 289.095 276.356 287.154 273.445C285.213 270.533 32.8573 273.445 32.8573 273.445Z" fill="#F2EBEB"/>
<path d="M4.18049 328.592L0.298096 322.857L319.096 319.062C319.096 319.062 317.949 326.474 311.684 328.592C305.419 330.71 12.5629 332.739 4.18049 328.592Z" fill="#000001"/>
<path d="M63.74 284.562C63.74 284.562 65.6812 280.415 66.6518 280.062C67.6224 279.709 79.6225 280.062 79.6225 280.062C79.6225 280.062 79.1813 284.473 77.4166 284.562C75.6519 284.65 63.74 284.562 63.74 284.562Z" fill="#EA8383"/>
<path d="M87.4753 284.562C87.4753 284.562 89.4165 280.415 90.3871 280.062C91.3577 279.709 103.358 280.062 103.358 280.062C103.358 280.062 102.917 284.473 101.152 284.562C99.3872 284.65 87.4753 284.562 87.4753 284.562Z" fill="#EA8383"/>
<path d="M110.329 284.562C110.329 284.562 112.27 280.415 113.24 280.062C114.211 279.709 126.211 280.062 126.211 280.062C126.211 280.062 125.77 284.473 124.005 284.562C122.241 284.65 110.329 284.562 110.329 284.562Z" fill="#EA8383"/>
<path d="M133.888 284.562C133.888 284.562 135.829 280.415 136.799 280.062C137.77 279.709 149.77 280.062 149.77 280.062C149.77 280.062 149.329 284.473 147.564 284.562C145.8 284.65 133.888 284.562 133.888 284.562Z" fill="#EA8383"/>
<path d="M157.711 284.562C157.711 284.562 159.653 280.415 160.623 280.062C161.594 279.709 171.388 280.062 171.388 280.062C171.388 280.062 173.153 284.473 171.388 284.562C169.623 284.65 157.711 284.562 157.711 284.562Z" fill="#EA8383"/>
<path d="M266.772 284.562C266.772 284.562 264.83 280.415 263.86 280.062C262.889 279.709 250.889 280.062 250.889 280.062C250.889 280.062 251.33 284.473 253.095 284.562C254.86 284.65 266.772 284.562 266.772 284.562Z" fill="#EA8383"/>
<path d="M243.036 284.562C243.036 284.562 241.095 280.415 240.124 280.062C239.153 279.709 227.153 280.062 227.153 280.062C227.153 280.062 227.595 284.473 229.359 284.562C231.124 284.65 243.036 284.562 243.036 284.562Z" fill="#EA8383"/>
<path d="M220.183 284.562C220.183 284.562 218.242 280.415 217.271 280.062C216.3 279.709 204.3 280.062 204.3 280.062C204.3 280.062 204.741 284.473 206.506 284.562C208.271 284.65 220.183 284.562 220.183 284.562Z" fill="#EA8383"/>
<path d="M196.536 284.562C196.536 284.562 194.594 280.415 193.624 280.062C192.653 279.709 180.653 280.062 180.653 280.062C180.653 280.062 181.094 284.473 182.859 284.562C184.624 284.65 196.536 284.562 196.536 284.562Z" fill="#EA8383"/>
<path d="M55.5339 296.298C55.5339 296.298 57.5634 292.15 58.6222 291.797C59.681 291.445 72.4753 291.797 72.4753 291.797C72.4753 291.797 71.9459 296.209 70.0929 296.298C68.24 296.386 55.5339 296.298 55.5339 296.298Z" fill="#EA8383"/>
<path d="M80.946 296.298C80.946 296.298 82.9755 292.15 84.0343 291.797C85.0931 291.445 97.8874 291.797 97.8874 291.797C97.8874 291.797 97.358 296.209 95.505 296.298C93.6521 296.386 80.946 296.298 80.946 296.298Z" fill="#EA8383"/>
<path d="M105.564 296.298C105.564 296.298 107.593 292.15 108.652 291.797C109.711 291.445 122.505 291.797 122.505 291.797C122.505 291.797 121.976 296.209 120.123 296.298C118.27 296.386 105.564 296.298 105.564 296.298Z" fill="#EA8383"/>
<path d="M130.888 296.298C130.888 296.298 132.917 292.15 133.976 291.797C135.035 291.445 147.829 291.797 147.829 291.797C147.829 291.797 147.3 296.209 145.447 296.298C143.594 296.386 130.888 296.298 130.888 296.298Z" fill="#EA8383"/>
<path d="M156.388 296.298C156.388 296.298 158.417 292.15 159.476 291.797C160.535 291.445 171.035 291.797 171.035 291.797C171.035 291.797 172.888 296.209 171.035 296.298C169.182 296.386 156.388 296.298 156.388 296.298Z" fill="#EA8383"/>
<path d="M273.389 296.298C273.389 296.298 271.36 292.15 270.301 291.797C269.242 291.445 256.448 291.797 256.448 291.797C256.448 291.797 256.977 296.209 258.83 296.298C260.683 296.386 273.389 296.298 273.389 296.298Z" fill="#EA8383"/>
<path d="M247.889 296.298C247.889 296.298 245.86 292.15 244.801 291.797C243.742 291.445 230.859 291.797 230.859 291.797C230.859 291.797 231.389 296.209 233.242 296.298C235.095 296.386 247.889 296.298 247.889 296.298Z" fill="#EA8383"/>
<path d="M223.359 296.298C223.359 296.298 221.33 292.15 220.271 291.797C219.212 291.445 206.418 291.797 206.418 291.797C206.418 291.797 206.947 296.209 208.8 296.298C210.653 296.386 223.359 296.298 223.359 296.298Z" fill="#EA8383"/>
<path d="M198.036 296.298C198.036 296.298 196.006 292.15 194.947 291.797C193.889 291.445 181.094 291.797 181.094 291.797C181.094 291.797 181.624 296.209 183.477 296.298C185.33 296.386 198.036 296.298 198.036 296.298Z" fill="#EA8383"/>
<path d="M148.005 303.18C148.005 303.18 175.8 302.651 179.506 303.18C183.212 303.71 187.624 313.857 186.741 313.857C185.859 313.857 144.388 314.474 144.476 312.71C144.564 310.945 148.005 303.18 148.005 303.18Z" fill="#E1C692"/>
<path d="M91.0933 60.4421C91.0933 60.4421 102.829 59.7363 103.093 60.4421C103.358 61.148 101.858 64.0598 98.9463 65.5599C96.0345 67.0599 91.0933 60.4421 91.0933 60.4421Z" fill="#000001"/>
<path d="M78.1226 48.2656C78.1226 48.2656 90.6521 50.0304 90.8286 50.9127C91.0051 51.7951 90.8286 62.9128 98.8581 65.5599C95.5933 68.1188 91.0051 68.1188 87.7403 65.5599C82.005 61.1481 78.5637 51.3539 78.1226 48.2656Z" fill="#E1C692"/>
<path d="M233.242 58.5891C233.242 58.5891 240.477 55.0596 240.477 48.089C240.477 48.089 251.242 45.2654 251.419 46.5889C251.595 47.9125 247.007 56.8243 242.33 60.5303C237.654 64.148 233.242 58.5891 233.242 58.5891Z" fill="#000001"/>
<path d="M224.948 57.0003C224.948 57.0003 233.242 55.4121 233.242 57.0003C233.242 58.5886 237.389 62.9121 239.859 61.7651C239.859 61.6768 229.712 66.1769 224.948 57.0003Z" fill="#E1C692"/>
<path d="M179.859 4.58839C179.859 4.58839 177.829 23.3827 176.77 24.1768C175.712 24.971 148.094 20.7356 139.535 22.6768C139.535 22.6768 138.829 5.20604 141.652 2.20601C144.476 -0.794021 173.859 -1.32344 179.859 4.58839Z" fill="#E1C692"/>
<path d="M172.359 3.35306C172.359 3.35306 172.624 8.38253 176.771 10.2355L175.8 17.6473C175.8 17.6473 171.035 18.0003 170.594 22.0592L146.594 20.118C146.594 20.118 147.829 17.5591 142.27 14.6473L142.8 6.61781C142.8 6.61781 147.388 6.26486 148.359 3.26483C148.27 3.35306 166.976 1.58834 172.359 3.35306Z" fill="#F2EBEB"/>
<path d="M163.094 13.8531C163.094 13.8531 164.329 10.6766 160.623 9.52955C156.917 8.38247 156.212 12.6178 157.535 14.1178C158.859 15.6179 161.418 16.7649 163.094 13.8531Z" fill="#E1C692"/>
<path d="M169.8 13.6767C169.976 13.059 169.712 12.4414 169.094 12.1767C169.006 12.1767 169.006 12.1767 168.918 12.0884C167.594 11.6473 167.329 13.1473 167.859 13.6767C168.388 14.2061 169.27 14.6473 169.8 13.6767Z" fill="#E1C692"/>
<path d="M151.888 11.4711C152.064 10.8535 151.8 10.2358 151.182 9.97111C151.094 9.97111 151.094 9.97111 151.005 9.88287C149.682 9.44169 149.417 10.9417 149.947 11.4711C150.476 12.0005 151.27 12.4417 151.888 11.4711Z" fill="#E1C692"/>
<path d="M7.35703 81.795C7.35703 81.795 23.6807 72.2655 25.0043 72.6185C26.3278 72.9714 39.2103 97.6776 45.9163 103.413C45.9163 103.413 32.2397 114.354 28.1808 113.913C24.1219 113.472 6.12172 90.0892 7.35703 81.795Z" fill="#E1C692"/>
<path d="M10.71 88.5009C10.71 88.5009 14.6806 85.3244 13.71 80.9126L20.3277 77.2949C20.3277 77.2949 23.416 80.9126 26.9454 78.8832L39.6515 99.354C39.6515 99.354 36.8279 99.8834 37.7985 106.06L31.0043 110.384C31.0043 110.384 28.0043 106.942 25.0042 107.913C25.0042 107.913 12.4747 93.8833 10.71 88.5009Z" fill="#F2EBEB"/>
<path d="M24.7395 89.7362C24.7395 89.7362 21.4748 90.6186 22.7101 94.3245C23.9454 98.0304 27.8278 96.0892 28.1807 94.148C28.5337 92.2068 28.0042 89.3833 24.7395 89.7362Z" fill="#E1C692"/>
<path d="M20.5041 84.4422C19.8865 84.6186 19.5335 85.2363 19.71 85.8539C19.71 85.9422 19.71 85.9422 19.7982 86.0304C20.2394 87.3539 21.5629 86.6481 21.7394 85.9422C21.9159 85.2363 21.7394 84.3539 20.5041 84.4422Z" fill="#E1C692"/>
<path d="M29.416 100.236C28.7983 100.413 28.4454 101.031 28.6218 101.648C28.6218 101.736 28.6218 101.736 28.7101 101.825C29.1513 103.148 30.4748 102.442 30.6513 101.736C30.8278 101.031 30.563 100.06 29.416 100.236Z" fill="#E1C692"/>
<path d="M313.272 67.9418C313.272 67.9418 295.89 71.2066 294.39 71.0301C292.89 70.8536 277.007 58.4123 269.154 55.324C269.154 55.324 283.537 51.1769 288.037 51.7064C292.537 52.2358 314.155 64.1477 313.272 67.9418Z" fill="#E1C692"/>
<path d="M309.125 64.5889C309.125 64.5889 304.978 65.8242 306.39 67.9419L299.331 69.1772C297.037 68.0301 294.478 67.6771 291.919 68.0301L276.478 57.6182C276.478 57.6182 279.566 57.53 278.066 54.6182L285.301 53.1182C285.301 53.1182 288.831 54.8829 292.007 54.7064C292.007 54.6182 306.831 61.9418 309.125 64.5889Z" fill="#F2EBEB"/>
<path d="M293.595 63.0891C293.595 63.0891 297.125 62.9126 295.537 61.1479C293.948 59.3832 289.801 60.0008 289.448 60.8832C289.095 61.7656 289.978 63.0009 293.595 63.0891Z" fill="#E1C692"/>
<path d="M298.537 65.8242C298.537 65.8242 299.772 65.736 299.243 65.1183C298.625 64.5889 297.743 64.5889 297.125 65.0301C296.948 65.2948 297.301 65.8242 298.537 65.8242Z" fill="#E1C692"/>
<path d="M287.595 57.8828C287.595 57.8828 288.831 57.7946 288.301 57.1769C287.684 56.6475 286.801 56.6475 286.184 57.0887C286.095 57.3534 286.36 57.8828 287.595 57.8828Z" fill="#E1C692"/>
<path d="M251.771 22.6767C251.771 22.6767 248.948 11.206 249.301 10.4119C249.654 9.61775 264.919 3.70592 268.977 0C268.977 0 272.948 9.88246 272.066 12.4413C271.183 15.0002 256.007 24.3532 251.771 22.6767Z" fill="#E1C692"/>
<path d="M255.83 21.1767C255.83 21.1767 254.683 18.3531 252.124 18.5296L251.154 13.9413C251.154 13.9413 253.536 12.3531 252.918 9.79421L265.801 3.61768C265.801 3.61768 265.713 5.47064 269.154 5.47064L270.477 10.2354C270.477 10.2354 268.183 11.8236 268.271 13.8531C268.448 13.9413 259.007 20.6473 255.83 21.1767Z" fill="#F2EBEB"/>
<path d="M258.477 12.3532C258.477 13.3238 259.183 14.1179 260.154 14.2061C260.33 14.2061 260.507 14.2061 260.595 14.1179C262.801 13.6767 262.271 11.0296 261.301 10.5884C260.33 10.1473 258.83 10.1473 258.477 12.3532Z" fill="#E1C692"/>
<path d="M255.036 14.471C255.036 14.824 255.301 15.0887 255.654 15.0887C255.742 15.0887 255.742 15.0887 255.83 15.0887C256.183 15.0004 256.448 14.6475 256.36 14.2946C256.36 14.1181 256.183 13.9416 256.095 13.8534C255.742 13.6769 255.301 13.7651 255.124 14.1181C255.124 14.2063 255.036 14.3828 255.036 14.471Z" fill="#E1C692"/>
<path d="M264.919 10.3239C264.919 10.6769 265.183 10.9416 265.448 10.9416C265.536 10.9416 265.625 10.9416 265.625 10.9416C265.978 10.8534 266.242 10.5004 266.154 10.1475C266.154 9.971 265.978 9.79453 265.889 9.70629C265.536 9.52982 265.007 9.52982 264.919 10.3239Z" fill="#E1C692"/>
<path d="M41.9456 28.5003C41.9456 28.5003 49.5339 10.9413 50.7692 10.059C52.0045 9.1766 76.5342 10.9413 85.1813 8.4707C85.1813 8.4707 80.5048 24.6179 76.9753 27.618C73.4459 30.618 45.6515 33.5298 41.9456 28.5003Z" fill="#E1C692"/>
<path d="M48.475 29.1181C48.475 29.1181 49.7985 24.4416 46.4456 23.118L49.6221 16.1474C49.6221 16.1474 54.2103 15.4415 55.7986 11.6473L77.6812 11.5591C77.6812 11.5591 75.74 14.0297 80.0636 16.3238L77.0635 23.8239C77.0635 23.8239 72.6517 24.5298 70.887 27.3534C70.9752 27.1769 52.975 30.3534 48.475 29.1181Z" fill="#F2EBEB"/>
<path d="M60.387 18.6178C60.387 18.6178 58.2693 21.6178 61.3576 22.412C64.4458 23.2061 66.4753 19.2355 65.6811 18.0002C64.887 16.7649 62.7693 15.8825 60.387 18.6178Z" fill="#E1C692"/>
<path d="M54.034 19.3239C54.034 19.3239 53.3281 20.3827 54.3869 20.6474C55.4457 20.9121 56.1516 19.5004 55.8869 19.0592C55.6222 18.618 54.8281 18.3533 54.034 19.3239Z" fill="#E1C692"/>
<path d="M70.1812 19.9416C70.1812 19.9416 69.4753 21.0004 70.5341 21.2651C71.593 21.5298 72.2988 20.118 72.0341 19.6768C71.7694 19.2357 70.9753 18.971 70.1812 19.9416Z" fill="#E1C692"/>
<path d="M198.036 199.149L180.212 203.031L162.388 206.914C150.476 209.473 138.564 212.031 126.741 214.679C114.829 217.237 103.005 219.973 91.1814 222.884C85.2696 224.384 79.3578 225.885 73.6224 227.649C70.7106 228.532 67.8871 229.502 65.0635 230.737C64.3576 231.09 63.74 231.443 63.1223 231.796C62.8576 231.973 62.5047 232.238 62.3282 232.502C62.0635 232.767 61.9752 233.032 61.9752 233.385C62.1517 233.738 62.4164 234.002 62.6811 234.09C63.0341 234.267 63.387 234.443 63.74 234.532C64.4459 234.796 65.24 234.973 65.9459 235.061C65.1517 234.973 64.4459 234.796 63.6517 234.62C63.2988 234.532 62.9458 234.355 62.5929 234.267C62.24 234.09 61.887 233.826 61.7105 233.473C61.6223 233.032 61.7105 232.59 62.0635 232.326C62.3282 232.061 62.5929 231.796 62.9458 231.532C63.5635 231.09 64.2694 230.649 64.887 230.296C67.6224 228.973 70.4459 227.826 73.3577 226.767C79.0931 224.826 85.0049 223.149 90.9167 221.473C96.8286 219.796 102.74 218.384 108.652 216.973C114.564 215.561 120.476 214.149 126.476 212.826C138.388 210.267 150.3 207.708 162.3 205.414L180.3 202.061C186.035 201.178 192.036 200.12 198.036 199.149Z" fill="#E1C692"/>
<path d="M62.5044 119.207V108.354C62.5044 108.354 255.565 104.736 256.095 106.236C256.624 107.736 260.33 118.148 256.095 119.207C251.859 120.266 62.5044 119.207 62.5044 119.207Z" fill="#E1C692"/>
<path d="M160.712 45.1769C160.712 45.1769 67.7105 104.913 70.2694 108.178C72.8282 111.442 249.654 105.883 249.654 105.883C249.654 105.883 164.153 42.8827 160.712 45.1769Z" fill="#E1C692"/>
<path d="M78.8281 131.296C78.8281 131.296 79.2693 246.003 80.5046 246.003H110.417C110.417 246.003 110.417 130.061 109.181 131.296C107.946 132.531 78.8281 131.296 78.8281 131.296Z" fill="#E1C692"/>
<path d="M97.5342 97.2365C102.652 93.5305 107.858 89.9128 113.064 86.2952L128.682 75.5303C133.888 71.9127 139.182 68.3832 144.388 64.8537L160.182 54.1772L160.711 53.8242L161.241 54.1772L176.241 64.8537C181.27 68.3832 186.3 71.9127 191.241 75.5303L206.153 86.2952C211.094 89.9128 216.035 93.5305 220.977 97.2365C215.859 93.8835 210.741 90.354 205.624 87.0011L190.447 76.5892C185.329 73.148 180.3 69.6185 175.27 66.0891L160.182 55.5889H161.153L145.358 66.1773C140.064 69.7067 134.858 73.2362 129.476 76.6774L113.593 87.0893C108.211 90.354 102.917 93.8835 97.5342 97.2365Z" fill="#000001"/>
<path d="M88.0049 142.061C88.3579 149.825 88.5343 157.59 88.7108 165.355C88.8873 173.12 88.8873 180.885 88.8873 188.649C88.8873 196.414 88.7991 204.179 88.7108 211.944C88.6226 219.708 88.3579 227.473 88.0049 235.238C87.652 227.473 87.4755 219.708 87.299 211.944C87.1226 204.179 87.1226 196.414 87.1226 188.649C87.1226 180.885 87.2108 173.12 87.299 165.355C87.3873 157.59 87.652 149.825 88.0049 142.061Z" fill="#F2EBEB"/>
<path d="M97.5342 142.061C97.8872 149.649 98.0636 157.149 98.2401 164.737C98.4166 172.326 98.4166 179.826 98.4166 187.414C98.4166 195.002 98.3283 202.502 98.2401 210.091C98.1519 217.679 97.8872 225.179 97.5342 232.767C97.1813 225.179 96.9166 217.679 96.8283 210.091C96.6519 202.591 96.6519 195.002 96.6519 187.414C96.6519 179.826 96.7401 172.326 96.8283 164.737C96.9166 157.149 97.1813 149.649 97.5342 142.061Z" fill="#F2EBEB"/>
<path d="M62.5044 246.003C71.3281 243.885 251.33 244.767 251.771 246.003C252.212 247.238 253.007 268.856 249.654 269.65C246.301 270.444 62.4162 270.885 62.5044 269.65C62.5927 268.415 62.5044 246.003 62.5044 246.003Z" fill="#E1C692"/>
<path d="M75.9164 119.649C75.9164 119.649 73.0046 132.531 75.9164 135.002C78.8282 137.472 112.093 137.913 113.329 135.002C114.564 132.09 113.329 119.384 113.329 119.384L75.9164 119.649Z" fill="#000001"/>
<path d="M143.682 132.002C143.682 132.002 144.123 246.709 145.358 246.709H175.27C175.27 246.709 175.27 130.766 174.035 132.002C172.8 133.237 143.682 132.002 143.682 132.002Z" fill="#E1C692"/>
<path d="M152.77 142.767C153.123 150.531 153.3 158.296 153.476 166.061C153.653 173.826 153.653 181.591 153.653 189.355C153.653 197.12 153.564 204.885 153.476 212.65C153.388 220.415 153.123 228.179 152.77 235.944C152.417 228.179 152.153 220.415 152.064 212.65C151.888 204.885 151.888 197.12 151.888 189.355C151.888 181.591 151.976 173.826 152.064 166.061C152.153 158.296 152.506 150.531 152.77 142.767Z" fill="#F2EBEB"/>
<path d="M162.388 142.767C162.741 150.355 163.006 157.855 163.094 165.443C163.27 173.032 163.27 180.532 163.27 188.12C163.27 195.708 163.182 203.208 163.094 210.797C163.006 218.385 162.741 225.885 162.388 233.473C162.035 225.885 161.859 218.385 161.682 210.797C161.506 203.208 161.506 195.708 161.506 188.12C161.506 180.532 161.594 173.032 161.682 165.443C161.77 157.855 162.035 150.355 162.388 142.767Z" fill="#F2EBEB"/>
<path d="M140.77 120.354C140.77 120.354 137.858 133.237 140.77 135.707C143.682 138.178 176.947 138.619 178.182 135.707C179.418 132.796 178.182 120.178 178.182 120.178L140.77 120.354Z" fill="#000001"/>
<path d="M202.094 132.002C202.094 132.002 202.535 246.709 203.771 246.709H233.683C233.683 246.709 233.683 130.766 232.448 132.002C231.212 133.237 202.094 132.002 202.094 132.002Z" fill="#E1C692"/>
<path d="M211.271 142.767C211.624 150.531 211.8 158.296 211.977 166.061C212.153 173.826 212.153 181.591 212.153 189.355C212.153 197.12 212.065 204.885 211.977 212.65C211.889 220.415 211.624 228.179 211.271 235.944C210.918 228.179 210.653 220.415 210.565 212.65C210.389 204.885 210.389 197.12 210.389 189.355C210.389 181.591 210.477 173.826 210.565 166.061C210.653 158.296 210.918 150.531 211.271 142.767Z" fill="#F2EBEB"/>
<path d="M220.801 142.767C221.154 150.355 221.33 157.855 221.506 165.443C221.683 173.032 221.683 180.532 221.683 188.12C221.683 195.708 221.595 203.208 221.506 210.797C221.418 218.385 221.154 225.885 220.801 233.473C220.448 225.885 220.271 218.385 220.095 210.797C219.918 203.208 219.918 195.708 219.918 188.12C219.918 180.532 220.006 173.032 220.095 165.443C220.183 157.855 220.448 150.355 220.801 142.767Z" fill="#F2EBEB"/>
<path d="M199.183 120.354C199.183 120.354 196.271 133.237 199.183 135.707C202.094 138.178 235.359 138.619 236.595 135.707C237.83 132.796 236.595 120.178 236.595 120.178L199.183 120.354Z" fill="#000001"/>
<path d="M142.27 86.1191C142.27 86.1191 143.682 64.5895 165.123 69.8836C181.977 74.0308 179.241 99.1781 170.329 103.502C159.388 108.796 144.035 106.413 142.27 86.1191Z" fill="#F2EBEB"/>
<path d="M154.447 91.5895C154.182 91.413 153.035 94.2366 153.035 94.2366C153.035 94.2366 157.8 98.9131 162.741 95.5601C167.682 92.2072 163.976 87.1777 160.182 84.9718C156.388 82.7659 160.094 78.9717 162.035 80.3835C163.182 81.1776 164.417 81.9718 165.741 82.5894L166.623 80.6482C166.623 80.6482 161.859 76.3246 158.594 78.7952C155.329 81.2659 154.888 84.2659 158.77 87.1777C162.653 90.0895 163.535 96.0896 154.447 91.5895Z" fill="#E1C692"/>
<path d="M157.663 94.531L156.893 97.8848L158.699 98.2995L159.469 94.9457L157.663 94.531Z" fill="#E1C692"/>
<path d="M162.077 75.0294L161.267 78.5552L163.073 78.9699L163.883 75.4441L162.077 75.0294Z" fill="#E1C692"/>
<path d="M71.6812 245.826C79.1812 245.649 86.6813 245.561 94.1814 245.385L116.682 245.208C131.682 245.12 146.682 245.12 161.682 245.032C176.682 245.12 191.682 245.12 206.683 245.296L229.183 245.561C236.683 245.738 244.183 245.826 251.683 246.002C244.183 246.179 236.683 246.267 229.183 246.444L206.683 246.62C191.682 246.708 176.682 246.708 161.682 246.796C146.682 246.885 131.682 246.708 116.682 246.532L94.1814 246.267C86.6813 246.091 79.1812 246.002 71.6812 245.826Z" fill="#000001"/>
<path d="M67.0928 108.266C74.5046 108.001 81.9165 107.737 89.3283 107.56L111.564 107.031C126.388 106.678 141.211 106.501 155.947 106.237C170.77 106.148 185.594 105.884 200.418 105.884L222.653 105.795C230.065 105.884 237.477 105.795 244.889 105.884C237.477 106.148 230.065 106.413 222.653 106.59L200.418 107.119C185.594 107.472 170.77 107.648 155.947 107.913C141.123 108.001 126.299 108.266 111.476 108.266L89.2401 108.354C81.9165 108.354 74.5046 108.354 67.0928 108.266Z" fill="#000001"/>
<path d="M72.5635 165.531C65.5929 168.09 58.7104 170.914 51.9162 173.826C45.122 176.826 38.4161 180.002 31.9748 183.62C28.7101 185.385 25.6218 187.326 22.5336 189.443C21.0335 190.502 19.6218 191.649 18.21 192.885C16.7982 194.032 15.6511 195.443 14.5923 196.943C13.5335 198.355 13.0923 200.032 13.2688 201.708C13.4452 202.502 13.7982 203.296 14.3276 203.914C14.857 204.62 15.4747 205.238 16.2688 205.679C17.7688 206.561 19.4453 207.267 21.21 207.62C22.9747 208.061 24.8277 208.326 26.5924 208.591C30.2101 209.032 33.916 209.297 37.622 209.385C41.3279 209.473 45.0338 209.473 48.7397 209.473C56.1516 209.385 63.5634 208.944 70.9753 208.502C85.799 207.532 100.534 205.944 115.27 204.091C144.741 200.473 174.035 195.796 202.977 189.443C210.212 187.855 217.447 186.09 224.595 184.149C231.742 182.296 238.801 179.826 245.595 177.002C248.948 175.414 252.213 173.649 255.301 171.708C256.889 170.737 258.389 169.678 259.889 168.531C260.595 168.002 261.301 167.384 261.919 166.678C262.536 166.061 263.066 165.355 263.33 164.473C263.419 164.12 263.242 163.678 262.977 163.414C262.624 163.149 262.271 162.972 261.83 162.796C260.948 162.531 260.066 162.355 259.183 162.355C257.33 162.267 255.477 162.267 253.624 162.443C249.918 162.708 246.213 163.237 242.595 163.855C246.213 163.149 249.918 162.531 253.624 162.178C255.477 162.002 257.33 161.914 259.183 162.002C260.154 162.002 261.036 162.178 262.007 162.443C262.448 162.531 262.889 162.796 263.33 163.149C263.772 163.502 263.948 164.031 263.86 164.561C263.595 165.531 263.066 166.414 262.36 167.031C261.742 167.737 261.036 168.355 260.242 168.884C258.742 170.031 257.242 171.09 255.654 172.149C252.566 174.179 249.301 176.031 245.948 177.708C239.154 180.708 232.095 183.179 224.948 185.208C217.8 187.326 210.565 189.09 203.33 190.767C188.859 194.12 174.212 196.855 159.564 199.414C144.917 201.973 130.182 204.002 115.446 205.855C100.711 207.708 85.8872 209.12 71.0635 210.091C63.6517 210.532 56.2398 210.885 48.7397 210.973C41.3279 211.15 33.8278 210.797 26.416 210.002C24.563 209.738 22.71 209.385 20.8571 208.944C19.0041 208.502 17.1511 207.797 15.4747 206.738C14.6805 206.208 13.8864 205.502 13.357 204.708C12.7393 203.914 12.2982 202.944 12.1217 201.973C11.9452 201.002 12.0334 199.943 12.3864 198.973C12.7393 198.002 13.1805 197.12 13.7099 196.326C14.857 194.738 16.0923 193.326 17.5923 192.179C19.0041 190.943 20.5041 189.796 22.0041 188.737C25.0924 186.62 28.2689 184.679 31.5337 183.002C38.0631 179.473 44.8573 176.384 51.7398 173.561C58.6222 170.737 65.5046 167.914 72.5635 165.531Z" fill="#E1C692"/>
<path d="M72.5637 237.355L106.446 237.443C117.741 237.443 129.035 237.532 140.329 237.355C151.623 237.179 162.918 237.002 174.124 236.208C176.947 236.032 179.771 235.767 182.506 235.326C183.918 235.149 185.241 234.884 186.653 234.531C187.359 234.355 187.977 234.179 188.594 233.914C189.212 233.737 189.83 233.384 190.359 233.031C190.8 232.767 190.977 232.237 190.712 231.796C190.712 231.708 190.624 231.708 190.624 231.62C190.183 231.09 189.741 230.649 189.124 230.296C187.977 229.59 186.653 228.973 185.418 228.443C182.859 227.384 180.124 226.502 177.477 225.62C180.212 226.237 182.947 227.12 185.594 228.002C186.918 228.443 188.241 229.061 189.477 229.767C190.183 230.12 190.712 230.649 191.242 231.179C191.506 231.531 191.683 231.973 191.594 232.502C191.506 232.943 191.242 233.296 190.889 233.649C190.271 234.09 189.653 234.531 188.947 234.796C188.241 235.061 187.624 235.326 186.918 235.502C185.506 235.855 184.094 236.208 182.683 236.384C179.859 236.826 177.035 237.179 174.212 237.532C168.565 238.149 162.918 238.414 157.271 238.59C151.623 238.767 145.976 238.943 140.329 239.032C129.035 239.12 117.741 239.032 106.446 238.679C100.799 238.502 95.1522 238.326 89.5051 238.149C83.7697 237.973 78.2108 237.796 72.5637 237.355Z" fill="#E1C692"/>
</svg>
