<svg viewBox="0 0 324 332" fill="none" xmlns="http://www.w3.org/2000/svg">
<path d="M107.087 105.896C107.087 105.896 127.994 109.008 129.51 109.087C131.026 109.167 142.916 120.658 142.676 121.935C142.437 123.211 138.048 121.376 138.048 121.376C138.048 121.376 137.729 123.132 135.415 122.334C132.941 122.733 130.388 122.812 127.834 122.573C124.722 122.094 117.461 118.743 117.461 118.743L103.257 117.386L107.087 105.896Z" fill="#EA8383"/>
<path d="M131.904 115.87C131.904 115.87 137.171 121.775 140.442 122.094Z" fill="#A04040"/>
<path d="M131.904 115.87C132.702 116.269 133.5 116.827 134.218 117.306C134.936 117.865 135.655 118.343 136.293 118.902L138.288 120.578C138.926 121.136 139.644 121.695 140.442 122.094C139.485 122.253 138.527 122.094 137.649 121.615C136.772 121.216 135.974 120.737 135.256 120.099C134.537 119.54 133.899 118.822 133.34 118.184C132.782 117.545 132.303 116.747 131.904 115.87Z" fill="#000001"/>
<path d="M130.707 119.221C130.707 119.221 136.053 124.328 137.649 122.094Z" fill="#A04040"/>
<path d="M130.707 119.221C131.345 119.461 131.984 119.7 132.622 120.019C133.181 120.338 133.739 120.658 134.298 120.977C134.856 121.296 135.415 121.615 135.894 121.934C136.373 122.253 137.011 122.333 137.57 122.094C137.49 122.493 137.171 122.892 136.772 122.972C136.373 123.131 135.974 123.131 135.495 123.131C134.777 123.051 134.058 122.732 133.42 122.333C132.782 121.934 132.223 121.535 131.744 120.977C131.425 120.498 131.026 119.86 130.707 119.221Z" fill="#000001"/>
<path d="M54.3414 288.55L52.9849 312.888H56.9747C56.9747 312.888 57.5333 304.43 60.9645 308.5C64.3958 312.569 63.9968 312.729 66.5503 312.888C70.9392 313.128 79.4774 314.245 78.9986 311.213C78.5199 308.18 73.732 313.926 67.9069 305.228C62.0817 296.53 62.8797 284.401 62.8797 284.401L54.3414 288.55Z" fill="#000001"/>
<path d="M87.7764 283.443V313.287H91.447C91.447 313.287 92.0056 307.702 93.3621 309.697C94.7187 311.692 95.1177 313.048 97.8308 313.287C100.544 313.527 116.344 314.484 117.541 313.287C118.738 312.091 118.179 309.936 110.917 310.894C103.656 311.851 97.8308 289.588 97.8308 284.401C97.8308 279.214 87.7764 283.443 87.7764 283.443Z" fill="#000001"/>
<path d="M51.5483 130.632C51.5483 130.632 41.9727 157.444 41.9727 163.349C41.9727 169.254 51.1493 291.742 51.5483 292.54L51.0695 291.742C51.0695 291.742 67.1885 292.46 68.0662 290.625C68.944 288.79 75.2479 183.378 75.2479 183.378C75.2479 183.378 81.5519 219.366 81.5519 222.08C81.5519 224.793 83.7064 284.8 83.7064 284.8C83.7064 284.8 93.7608 288.869 99.4264 286.156C99.4264 286.156 109.002 221.361 108.603 209.711C108.204 198.061 87.0579 133.266 87.0579 133.266L51.5483 130.632Z" fill="#E1C692"/>
<path d="M54.4211 130.951L66.8694 67.5129C66.8694 67.5129 74.6895 64.0018 80.1955 67.1139C85.7015 70.226 91.2075 87.5419 91.2075 91.8509C91.2075 96.16 82.5894 103.182 82.5894 103.182L86.9782 133.186L54.4211 130.951Z" fill="#000001"/>
<path d="M88.335 29.6098C88.335 29.6098 87.3775 26.1785 80.9139 24.822C74.4504 23.4654 65.194 25.221 61.7627 35.3552C56.0971 52.3519 61.6031 65.3588 62.6405 66.6355C63.6778 67.9123 78.3604 70.9446 80.1958 69.588C82.0311 68.2315 83.0684 62.4063 80.0362 53.7084C80.0362 53.7084 88.4148 31.6845 88.335 29.6098Z" fill="#F2EBEB"/>
<path d="M82.8287 56.5007C86.9781 57.4583 94.878 47.2443 94.878 47.2443C94.878 47.2443 100.703 45.8878 100.863 44.6908C101.022 43.4939 96.873 40.4616 94.2397 37.1101C91.6064 33.7587 89.0529 29.0506 87.3771 29.29C86.659 29.3698 83.4671 30.487 79.1581 36.5515C77.2429 39.2646 75.5672 42.1373 74.1309 45.1696C74.1309 45.2494 77.5621 55.3038 82.8287 56.5007Z" fill="#EA8383"/>
<path d="M84.824 40.621C85.223 40.3816 85.6219 40.2221 86.1007 40.1423C86.5795 40.0625 87.0583 40.0625 87.4573 40.2221C87.9361 40.3019 88.4148 40.5412 88.734 40.8604C89.0532 41.1796 89.2926 41.6584 89.3724 42.1372C89.0532 41.818 88.734 41.5786 88.4148 41.3392C88.0956 41.1796 87.6967 41.02 87.2977 40.9402C86.8987 40.8604 86.4997 40.7806 86.1007 40.7008C85.7017 40.7008 85.3028 40.7008 84.824 40.621Z" fill="#000001"/>
<path d="M85.3025 43.6533C85.1429 43.5735 85.0631 43.4139 85.1429 43.2544C85.1429 43.0948 85.2227 43.015 85.3025 42.9352C85.4621 42.6958 85.7813 42.6958 86.0206 42.8554C86.0206 43.015 86.0206 43.1746 85.9408 43.2544C85.9408 43.3341 85.8611 43.4139 85.8611 43.4937C85.7813 43.5735 85.7015 43.5735 85.7015 43.5735C85.6217 43.5735 85.5419 43.5735 85.3025 43.6533Z" fill="#000001"/>
<path d="M86.9784 44.1324C86.739 43.893 86.739 43.494 86.8986 43.2546C86.9784 43.1748 87.0582 43.095 87.138 43.095C87.2976 43.0152 87.4572 43.0152 87.6168 43.095C87.6168 43.494 87.6167 43.5738 87.5369 43.7334C87.3774 43.893 87.2178 44.0526 86.9784 44.1324Z" fill="#000001"/>
<path d="M86.4995 49.6385C87.0581 49.0799 87.9358 49.0799 88.5742 49.5587C89.6116 50.4364 87.2975 52.9101 85.5419 52.192C83.7864 51.4738 86.4995 49.6385 86.4995 49.6385Z" fill="#A04040"/>
<path d="M86.5793 47.9624C86.5793 48.4412 86.6591 48.8402 86.8187 49.3189C86.8985 49.7179 87.1378 50.1169 87.3772 50.4361C87.6166 50.7553 87.9358 51.0745 88.255 51.3139C88.4146 51.4735 88.654 51.5533 88.8136 51.7129C89.053 51.7926 89.2126 51.9522 89.452 52.1118C89.2126 52.1118 88.9732 52.1118 88.7338 52.1118C88.4944 52.032 88.255 52.032 88.0156 51.8724C87.5368 51.7129 87.1378 51.3139 86.8187 50.9149C86.0207 50.0371 86.0207 48.92 86.5793 47.9624Z" fill="#000001"/>
<path d="M85.6218 36.3126C86.1804 35.754 86.9784 35.5944 87.7763 35.8338C88.1753 35.9136 88.4945 36.153 88.7339 36.4722C88.9733 36.7116 89.2127 37.0308 89.2925 37.4297C88.9733 37.2701 88.6541 37.1105 88.4147 36.951C88.1753 36.7914 87.8561 36.7116 87.5369 36.6318C86.8986 36.4722 86.2602 36.3924 85.6218 36.3126Z" fill="#000001"/>
<path d="M74.1312 29.689C73.7322 31.4445 73.4928 33.2 73.413 35.0354C73.413 35.9131 73.3332 36.7909 73.413 37.6686C73.413 38.1474 73.4928 38.5464 73.4928 39.0252L73.6524 40.3019C73.6524 40.7807 73.812 41.1797 73.812 41.5787C73.812 41.9777 73.9716 42.4565 74.0514 42.8554L74.3705 44.1322L74.7695 45.4089C75.0089 46.2867 75.3281 47.0847 75.6473 47.9624C75.9665 48.8402 76.3655 49.6382 76.6048 50.5159C75.9665 49.7978 75.4079 49.0796 74.9291 48.2816C74.4503 47.4837 73.9715 46.6857 73.5726 45.8079C72.7746 44.1322 72.2958 42.2969 72.0564 40.3817C71.817 38.5464 71.8968 36.6313 72.216 34.796C72.4554 33.0404 73.0938 31.2849 74.1312 29.689Z" fill="#000001"/>
<path d="M68.7048 68.6303C68.7048 68.6303 54.4211 67.7525 52.9848 73.5777C50.3515 84.4301 42.3718 100.07 42.3718 100.07C42.3718 100.07 45.3243 71.3434 50.9899 65.4384C56.6555 59.6931 77.1632 62.2466 68.7048 68.6303Z" fill="#F2EBEB"/>
<path d="M61.0444 63.0444C62.4808 62.2464 64.0767 61.7676 65.6727 61.608C67.2686 61.4484 68.9443 61.4484 70.5403 61.8474C72.1362 62.1666 73.7321 62.7252 75.0887 63.6029C76.525 64.4009 77.722 65.5181 78.7593 66.715C77.4028 65.9968 75.9665 65.2787 74.5301 64.7201C73.0938 64.1615 71.6574 63.6827 70.2211 63.4433C68.7049 63.1241 67.1888 62.9646 65.6727 62.8848C64.1565 62.805 62.5606 62.8848 61.0444 63.0444Z" fill="#000001"/>
<path d="M58.5707 67.1138C69.0241 59.5331 68.3857 67.1138 68.3857 67.1138C68.3857 67.1138 78.3603 168.536 72.8544 170.451L31.6792 168.695C31.6792 168.695 48.1173 127.52 48.1173 124.488C48.1173 121.455 45.0053 71.0239 58.5707 67.1138Z" fill="#E1C692"/>
<path d="M112.433 121.216L113.231 105.895C113.231 105.895 77.243 101.347 75.647 100.15C74.0511 98.9526 72.7743 63.7622 64.8744 63.3632C56.9746 62.9642 50.8302 74.9338 50.4312 89.377C50.0322 103.82 56.1766 122.014 56.1766 122.014L112.433 121.216Z" fill="#E1C692"/>
<path d="M82.5895 158.401C82.0309 160.556 81.3925 162.631 80.7542 164.785C80.1158 166.94 79.4774 169.014 78.839 171.089C77.5623 175.318 76.2057 179.468 74.8492 183.617L74.929 183.378C74.929 189.841 74.8492 196.305 74.6098 202.768C74.53 205.96 74.4502 209.232 74.2906 212.424C74.2108 214.02 74.131 215.616 74.0512 217.291C73.9714 218.967 73.8916 220.483 73.7321 222.159C73.6523 220.563 73.5724 218.967 73.5724 217.291C73.5724 215.616 73.4927 214.1 73.4129 212.424C73.3331 209.152 73.2533 205.96 73.2533 202.768C73.1735 196.305 73.2533 189.841 73.3331 183.378V183.218V183.138C74.7694 178.989 76.2855 174.84 77.8017 170.69C78.5997 168.615 79.3178 166.541 80.1158 164.546C80.9138 162.551 81.7117 160.396 82.5895 158.401Z" fill="#000001"/>
<path d="M52.6658 93.0479C53.1446 96.1599 53.5435 99.272 54.1021 102.384C54.6607 105.496 55.2193 108.608 55.8576 111.641C56.1768 113.157 56.6556 114.673 57.1344 116.109C57.3738 116.827 57.693 117.545 58.0122 118.184C58.2516 118.822 58.6505 119.301 59.1293 119.78C59.3687 119.939 59.3687 119.939 59.8475 119.939C60.3263 119.939 60.5657 120.019 60.9646 120.019H63.2788H67.9868C74.2907 120.099 80.5947 120.099 86.8986 120.179C93.2026 120.259 99.5065 120.418 105.81 120.658C99.5065 121.057 93.2026 121.296 86.8986 121.456C80.5947 121.615 74.2907 121.695 67.9868 121.695H63.199L60.8051 121.615C60.4061 121.615 60.0071 121.535 59.6081 121.535C59.3687 121.535 59.1293 121.535 58.8899 121.456C58.5707 121.376 58.3313 121.216 58.092 121.057C57.3738 120.418 56.8152 119.7 56.496 118.822C56.1768 118.104 55.8576 117.306 55.6183 116.508C55.2193 114.992 54.8203 113.396 54.5809 111.8C53.5435 105.656 52.8254 99.3518 52.6658 93.0479Z" fill="#000001"/>
<path d="M0 195.268L6.54334 191.917C30.1632 179.867 110.758 139.331 123.446 139.331C138.368 139.331 240.508 147.869 240.508 147.869V162.472C240.508 162.472 159.594 224.394 145.789 224.394C131.984 224.394 1.03736 211.068 1.03736 211.068L0 195.268Z" fill="#F2EBEB"/>
<path d="M19.5503 208.434C19.5503 208.434 29.0461 321.985 31.3602 323.342C33.6743 324.698 124.164 330.922 133.101 330.284C142.038 329.646 208.11 244.263 208.11 240.912C208.11 237.56 216.728 173.324 216.728 173.324L19.5503 208.434Z" fill="#F2EBEB"/>
<path d="M233.805 152.018L211.462 165.584L189.039 179.069C181.538 183.538 174.117 188.006 166.616 192.475L144.193 205.801L144.033 205.881H143.794L126.717 205.163L109.641 204.365L75.5676 202.769L41.4944 201.093C30.1632 200.455 18.7523 199.896 7.42114 199.178C18.8321 199.497 30.1632 199.896 41.5742 200.215L75.7272 201.412L109.88 202.769L126.957 203.487L144.033 204.285L143.634 204.365L166.137 191.119C173.638 186.73 181.139 182.341 188.72 177.952L211.302 164.865L233.805 152.018Z" fill="#000001"/>
<path d="M145.949 220.244C145.47 219.047 145.071 217.85 144.831 216.574C144.512 215.377 144.273 214.1 144.113 212.823C143.954 211.546 143.794 210.27 143.714 208.993C143.634 207.716 143.634 206.439 143.794 205.163C144.273 206.36 144.672 207.557 144.911 208.833C145.23 210.11 145.47 211.307 145.629 212.584C145.789 213.86 145.949 215.137 146.028 216.414C146.108 217.611 146.108 218.888 145.949 220.244Z" fill="#F2EBEB"/>
<path d="M132.064 217.851C132.463 226.628 132.782 235.486 132.942 244.263C133.181 253.041 133.261 261.819 133.42 270.676C133.58 279.534 133.58 288.311 133.5 297.089C133.42 305.867 133.34 314.724 133.181 323.502C132.782 314.724 132.463 305.867 132.303 297.089C132.064 288.311 131.984 279.454 131.824 270.676C131.665 261.898 131.665 253.041 131.745 244.263C131.824 235.486 131.824 226.708 132.064 217.851Z" fill="#000001"/>
<path d="M1.03735 211.068C13.1665 211.627 25.2158 212.265 37.2651 212.903L73.4929 214.898L109.721 217.133L127.835 218.25L145.948 219.447L145.47 219.526L169.09 205.163C176.989 200.375 184.889 195.587 192.789 190.879L216.489 176.596L240.268 162.472L216.808 177.234L193.268 191.837C185.448 196.705 177.628 201.572 169.728 206.36L146.188 220.883L145.948 221.043H145.709L127.595 219.925L109.481 218.728L73.2535 216.335L37.0257 213.781C25.136 212.903 13.0867 212.026 1.03735 211.068Z" fill="#000001"/>
<path d="M106.449 198.54V187.767L53.1448 179.468V192.076L106.449 198.54Z" fill="#EA8383"/>
<path d="M143.953 176.596V185.613L106.449 198.54V187.767L143.953 176.596Z" fill="#E1C692"/>
<path d="M53.1448 179.469L106.449 187.767L143.954 176.596L90.9685 169.015L53.1448 179.469Z" fill="#000001"/>
<path d="M60.3264 183.778C60.3264 183.778 57.6931 185.773 59.0497 187.608C60.4062 189.443 63.4385 188.167 63.4385 185.693C63.4385 183.219 60.3264 183.778 60.3264 183.778Z" fill="#F2EBEB"/>
<path d="M59.4487 158.88V177.952L100.704 184.495V163.908L59.4487 158.88Z" fill="#EA8383"/>
<path d="M141.56 175.239L100.704 184.495V163.908L141.56 156.886V175.239Z" fill="#E1C692"/>
<path d="M59.4487 158.88L100.704 153.614L141.56 156.885L100.704 163.908L59.4487 158.88Z" fill="#000001"/>
<path d="M100.704 174.76L121.93 171.728L100.704 177.952V174.76Z" fill="#F2EBEB"/>
<path d="M141.56 171.728L127.116 174.76L141.56 173.244V171.728Z" fill="#F2EBEB"/>
<path d="M150.257 159.04C149.858 159.359 149.38 159.599 148.901 159.758C148.422 159.918 147.943 159.998 147.464 159.998C146.986 159.998 146.507 159.998 146.028 159.918C145.549 159.838 145.071 159.599 144.592 159.359C144.991 159.04 145.47 158.801 145.948 158.641C146.427 158.482 146.906 158.402 147.385 158.402C147.863 158.402 148.342 158.402 148.821 158.482C149.3 158.561 149.858 158.721 150.257 159.04Z" fill="#E1C692"/>
<path d="M149.699 149.464C149.459 150.183 149.06 150.821 148.582 151.459C147.704 152.656 146.666 153.694 145.47 154.571C144.831 155.05 144.193 155.369 143.475 155.688C143.714 154.97 144.113 154.332 144.592 153.694C144.991 153.135 145.47 152.576 146.028 152.018C146.507 151.459 147.065 150.98 147.704 150.582C148.342 150.103 148.981 149.704 149.699 149.464Z" fill="#E1C692"/>
<path d="M141.16 152.018C141.081 151.619 141.001 151.22 141.081 150.741C141.16 150.343 141.24 150.023 141.4 149.704C141.559 149.385 141.799 149.066 142.038 148.826C142.357 148.507 142.677 148.268 143.076 148.188C143.155 148.587 143.235 148.986 143.155 149.465C143.076 149.864 142.996 150.183 142.836 150.502C142.677 150.821 142.437 151.14 142.198 151.38C141.879 151.619 141.559 151.859 141.16 152.018Z" fill="#E1C692"/>
<path d="M16.438 288.311C16.438 288.311 6.70274 281.528 3.90985 265.569C1.11696 249.609 2.7927 247.854 6.62295 249.21C10.4532 250.567 25.2156 276.421 16.438 288.311Z" fill="#E1C692"/>
<path d="M24.0187 264.851C24.0187 264.851 13.4855 246.897 19.7895 230.139C26.0934 213.382 33.1156 215.138 33.8337 233.89C34.5519 252.642 28.5672 266.766 24.0187 264.851Z" fill="#E1C692"/>
<path d="M31.0408 288.072C31.0408 288.072 28.0085 281.848 32.9559 271.634C37.9033 261.42 44.2871 259.026 43.2497 269.799C42.2123 280.571 33.9135 291.424 31.0408 288.072Z" fill="#E1C692"/>
<path d="M26.3327 222.08C26.4923 229.98 26.4923 237.88 26.4125 245.7C26.3327 253.6 26.1731 261.5 25.9338 269.32C25.6944 277.14 25.455 285.04 25.056 292.94C24.8964 296.85 24.657 300.84 24.3378 304.75L23.859 310.655L23.6197 313.607L23.4601 315.043C23.3803 315.522 23.3005 316.001 23.1409 316.48C23.2207 316.001 23.3005 315.522 23.3005 315.043L23.3803 313.527L23.4601 310.575L23.5399 304.67L23.7792 292.86C23.9388 284.96 24.0984 277.14 24.3378 269.24C24.8166 253.6 25.3752 237.8 26.3327 222.08Z" fill="#000001"/>
<path d="M4.54834 251.126C6.70285 256.552 8.77757 261.899 10.7725 267.405C12.7674 272.831 14.6825 278.337 16.5977 283.763C18.5128 289.189 20.3481 294.775 22.1036 300.281C23.8592 305.787 25.5349 311.373 27.1308 316.958C24.9763 311.612 22.9016 306.186 20.9067 300.68C18.9118 295.254 16.9966 289.748 15.0815 284.242C13.1664 278.736 11.4109 273.309 9.57554 267.724C7.74021 262.138 6.14428 256.712 4.54834 251.126Z" fill="#000001"/>
<path d="M20.9065 238.917C21.5449 239.396 22.1832 240.034 22.662 240.673C23.1408 241.311 23.6196 241.949 24.0186 242.667C24.4176 243.386 24.8165 244.104 25.0559 244.822C25.3751 245.62 25.6145 246.418 25.6943 247.216C25.0559 246.737 24.4176 246.099 23.9388 245.46C22.9812 244.184 22.1034 242.827 21.5449 241.311C21.3055 240.513 21.0661 239.715 20.9065 238.917Z" fill="#000001"/>
<path d="M15.4806 266.527C15.5604 267.325 15.5604 268.203 15.4806 269.001C15.4008 269.799 15.2412 270.596 15.0018 271.315C14.7624 272.113 14.523 272.831 14.2038 273.549C13.8846 274.267 13.4857 274.985 13.0069 275.703C12.9271 274.906 12.9271 274.028 13.0069 273.23C13.0867 272.432 13.2463 271.634 13.4856 270.836C13.725 270.038 13.9644 269.32 14.2836 268.602C14.6028 267.883 15.0018 267.165 15.4806 266.527Z" fill="#000001"/>
<path d="M40.0576 267.165C38.8607 271.075 37.5041 274.826 36.0678 278.656C34.6314 282.486 33.1153 286.236 31.6789 289.907C30.2426 293.578 28.5669 297.408 26.8911 301.079C25.2154 304.749 23.5397 308.42 21.7043 312.091C22.9013 308.181 24.2578 304.43 25.6942 300.6C27.1305 296.77 28.6467 293.019 30.1628 289.349C31.6789 285.678 33.2749 281.848 34.9506 278.177C36.6264 274.506 38.2223 270.756 40.0576 267.165Z" fill="#000001"/>
<path d="M38.3023 279.534C38.1427 280.012 37.8235 280.491 37.5043 280.89C37.1851 281.289 36.8659 281.608 36.467 281.848C36.068 282.087 35.669 282.327 35.1902 282.486C34.7114 282.646 34.1529 282.805 33.6741 282.805C33.8337 282.327 34.1529 281.848 34.472 281.449C35.1104 280.731 35.9084 280.172 36.7862 279.853C37.2649 279.613 37.8235 279.534 38.3023 279.534Z" fill="#000001"/>
<path d="M36.387 269.319C36.7062 269.718 36.9456 270.277 37.1052 270.756C37.2648 271.234 37.3446 271.713 37.3446 272.272C37.3446 272.751 37.3446 273.309 37.2648 273.788C37.185 274.347 37.0254 274.825 36.7062 275.304C36.387 274.905 36.1477 274.347 35.9881 273.868C35.6689 272.91 35.6689 271.873 35.8285 270.915C35.9083 270.277 36.1477 269.798 36.387 269.319Z" fill="#000001"/>
<path d="M11.1715 308.5H34.5519L31.5995 313.607C31.5995 313.607 36.6266 326.214 33.5146 329.326C30.4025 332.439 14.3633 333.316 11.0917 329.326C7.81999 325.337 14.2037 312.729 14.2037 312.729L11.1715 308.5Z" fill="#000001"/>
<path d="M145.39 107.57C145.39 107.57 131.665 102.703 130.228 103.102C128.792 103.501 119.536 110.922 119.855 111.56C120.174 112.199 126.558 114.194 130.069 109.007L140.442 120.099C140.442 120.099 145.23 116.667 146.267 116.348C147.305 116.029 145.948 107.81 145.39 107.57Z" fill="#A04040"/>
<path d="M143.794 104.219L142.757 120.737C142.757 120.737 166.775 124.009 182.735 122.652C189.917 122.014 237.076 77.3277 237.076 77.3277L222.873 53.3887L181.298 101.267L143.794 104.219Z" fill="#000001"/>
<path d="M230.533 313.845C229.416 313.925 206.035 316.479 207.153 313.845C208.03 311.93 209.147 310.175 210.424 308.579L215.531 274.506C215.531 274.506 228.299 272.431 228.299 274.506C228.299 276.58 227.9 306.424 227.9 306.424C227.9 306.424 234.204 313.526 230.533 313.845Z" fill="#000001"/>
<path d="M287.109 311.93H316.554C316.554 311.93 316.155 309.616 311.766 309.217C307.377 308.818 301.871 302.195 301.871 302.195L294.051 265.888H273.304L287.109 311.93Z" fill="#000001"/>
<path d="M262.93 140.606C262.93 140.606 302.829 292.539 302.829 294.375C302.829 296.21 285.513 297.407 282.401 296.051C279.289 294.694 237.156 170.69 237.156 170.69C237.156 170.69 231.331 213.461 229.974 216.573C228.618 219.685 231.331 298.764 231.331 298.764C231.331 298.764 211.86 300.519 208.748 298.764C205.636 297.008 204.439 143.319 204.918 141.085C205.397 138.851 262.93 140.606 262.93 140.606Z" fill="#E1C692"/>
<path d="M204.838 141.005C204.838 141.005 208.908 60.5701 225.585 51.2339C235.161 45.8875 263.569 43.4138 270.272 51.4733C276.975 59.5327 261.973 131.19 261.973 131.19L277.852 179.388L244.018 174.44L231.81 142.282L213.536 141.404L209.945 171.647L203.402 177.074L204.838 141.005Z" fill="#000001"/>
<path d="M228.618 57.9373L238.273 49.8778L252.318 45.9678C252.318 45.9678 241.385 73.7371 231.89 142.362L213.616 141.485C213.616 141.485 210.983 109.805 228.618 57.9373Z" fill="#F2EBEB"/>
<path d="M238.593 51.3937L243.62 56.5805L252.318 45.8877L233.326 51.2341L228.618 57.937L238.593 51.3937Z" fill="#F2EBEB"/>
<path d="M252.317 45.888C252.317 45.888 248.966 9.50064 246.732 8.62287C244.497 7.74511 226.543 10.538 226.144 12.8521C224.548 22.5075 219.92 27.1357 222.952 28.3327C225.665 29.3701 227.261 28.3327 227.261 28.3327C227.261 28.3327 227.58 37.7487 229.735 38.4669C231.89 39.1851 235.401 38.2275 235.401 38.2275L233.246 51.0748C233.326 51.2344 248.248 46.6062 252.317 45.888Z" fill="#A04040"/>
<path d="M240.428 26.178C240.428 26.178 248.089 34.8759 250.163 34.7163C252.238 34.5567 250.083 8.14393 248.567 6.78739C247.051 5.43084 227.82 -1.1125 225.027 0.16425C222.234 1.441 225.586 5.11165 225.586 5.11165C225.586 5.11165 218.404 3.9147 217.287 6.86719C216.17 9.81967 223.671 11.4954 227.022 12.2934C230.374 13.0913 237.396 12.1338 237.396 12.1338C237.396 12.1338 235.321 18.1185 236.119 19.2357C236.917 20.3529 239.311 21.6296 239.311 21.6296C239.311 21.6296 240.508 17.0014 242.822 18.3579C245.136 19.7145 243.301 26.4174 240.428 26.178Z" fill="#000001"/>
<path d="M235.002 27.2954C235.241 27.6146 235.401 28.0136 235.48 28.4126C235.48 28.8116 235.401 29.2105 235.161 29.6095C234.922 30.0085 234.523 30.3277 234.044 30.4075C233.565 30.4873 233.087 30.3277 232.767 30.0085C233.007 29.7691 233.246 29.5297 233.486 29.2903C233.645 29.1307 233.725 28.9711 233.805 28.7318C233.885 28.4924 234.044 28.3328 234.283 28.0934C234.443 27.7742 234.682 27.5348 235.002 27.2954Z" fill="#000001"/>
<path d="M232.209 17.9587L231.092 17.7193C230.852 17.6395 230.613 17.5597 230.373 17.4799C230.134 17.4001 229.895 17.2405 229.655 17.1607C229.336 17.0012 228.937 16.7618 228.618 16.5224C228.857 16.1234 229.256 15.8042 229.655 15.6446C230.134 15.485 230.613 15.5648 231.012 15.7244C231.411 15.884 231.81 16.2032 232.049 16.6022C232.368 17.0012 232.368 17.4799 232.209 17.9587Z" fill="#000001"/>
<path d="M241.465 37.7483C240.587 38.2271 239.63 38.5463 238.672 38.8655C237.715 39.1049 236.757 39.3443 235.8 39.4241C234.842 39.5039 233.805 39.5837 232.847 39.5039C231.81 39.5039 230.852 39.1847 229.895 38.7059C230.932 38.6261 231.81 38.3867 232.767 38.2271C233.725 38.0675 234.682 37.9079 235.64 37.8281C236.597 37.7483 237.555 37.6685 238.513 37.6685C239.47 37.5089 240.428 37.5887 241.465 37.7483Z" fill="#000001"/>
<path d="M233.725 20.0333C233.725 20.0333 229.655 18.4373 228.139 21.8686C228.059 22.108 228.139 22.4272 228.458 22.507C229.655 22.8262 232.767 23.3049 233.725 20.0333Z" fill="#F2EBEB"/>
<path d="M233.964 19.9539C233.406 19.9539 232.767 19.9539 232.209 19.9539C231.65 19.9539 231.092 20.0337 230.533 20.1932C229.416 20.5124 228.538 21.2306 227.979 22.268C227.979 21.6296 228.219 20.9912 228.618 20.5124C229.017 20.0337 229.655 19.6347 230.294 19.4751C230.932 19.3155 231.57 19.2357 232.209 19.3155C232.847 19.3953 233.406 19.6347 233.964 19.9539Z" fill="#000001"/>
<path d="M231.57 22.5076C231.411 21.7096 230.932 20.9915 230.294 20.5127C229.176 20.0339 227.58 22.0288 228.059 22.4278C229.176 23.0662 230.453 23.0662 231.57 22.5076Z" fill="#000001"/>
<path d="M320.304 189.602L315.437 184.176L264.367 220.084C264.367 220.084 266.362 225.67 268.117 225.59C269.873 225.511 320.703 223.915 322.938 222.877C325.172 221.84 320.304 189.602 320.304 189.602Z" fill="#000001"/>
<path d="M267.399 187.128C267.399 187.128 315.277 183.378 315.437 184.256C315.597 185.133 317.991 218.887 317.991 218.887C317.991 218.887 264.527 221.521 264.367 220.244C264.208 218.967 267.399 187.128 267.399 187.128Z" fill="#A04040"/>
<path d="M300.914 184.335C300.914 184.335 301.313 179.707 299.956 178.51C298.6 177.313 294.131 179.149 292.455 180.585C290.78 182.021 289.184 185.213 289.184 185.213L287.189 185.452C287.189 185.452 288.944 178.75 294.211 177.632C299.477 176.515 301.632 176.116 301.951 177.712L303.387 186.33L300.914 184.335Z" fill="#000001"/>
<path d="M268.357 188.245C272.426 190.879 276.496 193.512 280.566 196.225L286.63 200.215C287.668 200.853 288.625 201.571 289.662 202.21L290.061 202.449L290.221 202.529C290.141 202.529 290.061 202.529 289.982 202.529H289.902L290.061 202.449L290.46 202.21L291.897 201.172C295.727 198.3 299.637 195.427 303.627 192.554C307.537 189.682 311.527 186.968 315.596 184.255C312.006 187.447 308.255 190.559 304.425 193.592C300.595 196.624 296.844 199.576 292.854 202.449L291.338 203.486L290.939 203.726L290.7 203.885L290.54 203.965C290.46 203.965 290.46 204.045 290.381 204.045C290.301 204.045 290.301 204.125 290.221 204.125C290.141 204.125 290.061 204.125 289.982 204.125H289.902H289.822H289.742L289.583 204.045L289.343 203.885L288.944 203.646C287.907 202.928 286.949 202.289 285.912 201.571C283.917 200.215 282.002 198.778 280.007 197.342C276.017 194.31 272.187 191.277 268.357 188.245Z" fill="#000001"/>
<path d="M291.338 203.167C291.338 203.167 286.391 203.247 287.109 205.96C287.827 208.673 293.812 204.763 292.615 203.965L291.338 203.167Z" fill="#000001"/>
<path d="M270.352 51.4736C270.352 51.4736 282.96 56.1018 291.338 95.4417C299.717 134.782 304.185 166.301 304.185 166.301L287.348 167.977L262.133 75.4127L270.352 51.4736Z" fill="#000001"/>
<path d="M290.141 181.463C290.061 180.346 289.662 180.505 289.662 180.505C289.662 180.505 286.79 183.219 286.231 182.66C285.673 182.101 288.386 176.196 288.466 173.404C288.545 170.611 288.466 167.898 288.466 167.898L301.552 166.541C301.552 166.541 303.707 176.994 302.35 180.665C302.35 180.665 299.158 184.735 298.6 181.463C298.6 181.463 293.732 185.293 293.892 181.463C293.892 181.463 290.381 186.011 290.141 181.463Z" fill="#A04040"/>
<path d="M289.662 177.153C289.982 177.552 290.301 178.031 290.46 178.51C290.62 178.989 290.78 179.467 290.859 179.946C290.939 180.425 290.939 180.904 290.859 181.383C290.78 181.941 290.7 182.42 290.46 182.899C290.141 182.5 289.822 182.021 289.662 181.542C289.503 181.063 289.343 180.585 289.263 180.106C289.184 179.627 289.184 179.148 289.263 178.669C289.263 178.191 289.423 177.632 289.662 177.153Z" fill="#000001"/>
<path d="M300.595 177.153C300.754 177.951 300.675 178.829 300.435 179.627C300.196 180.425 299.797 181.223 299.238 181.861C298.68 182.58 297.882 183.058 297.004 183.298C296.126 183.537 295.248 183.377 294.45 182.899C295.169 182.739 295.887 182.42 296.525 182.101C297.084 181.782 297.563 181.303 298.041 180.824C298.52 180.265 298.919 179.707 299.318 179.068C299.717 178.51 300.116 177.871 300.595 177.153Z" fill="#000001"/>
<path d="M296.924 177.074C297.004 177.872 296.924 178.67 296.685 179.468C296.445 180.266 296.046 180.984 295.568 181.622C295.089 182.34 294.371 182.899 293.652 183.298C292.854 183.697 291.977 183.777 291.179 183.457C291.817 183.138 292.455 182.739 293.014 182.261C293.493 181.782 293.972 181.303 294.371 180.744C295.169 179.547 295.887 178.35 296.924 177.074Z" fill="#000001"/>
<path d="M225.107 153.853C227.261 156.566 229.256 159.359 231.411 162.072L234.523 166.221L237.635 170.37V170.45V170.53C240.109 177.393 242.582 184.255 244.976 191.118C247.37 197.98 249.764 204.843 252.158 211.785C254.472 218.727 256.866 225.59 259.1 232.532C261.334 239.475 263.569 246.417 265.723 253.359C263.09 246.576 260.536 239.714 258.063 232.931C255.589 226.148 253.115 219.206 250.721 212.344C248.328 205.481 245.934 198.619 243.54 191.676C241.146 184.734 238.832 177.871 236.597 170.929L236.677 171.089L233.725 166.859L230.852 162.63C228.937 159.598 227.022 156.725 225.107 153.853Z" fill="#000001"/>
<path d="M238.513 51.2344L241.864 54.7454L237.954 57.8575L235.48 99.0327L224.708 115.471C224.708 115.471 220.319 103.581 220.638 99.0327C220.957 94.4843 235.48 57.7777 235.48 57.7777L233.326 54.506L238.513 51.2344Z" fill="#EA8383"/>
<path d="M263.569 81.7163C265.005 85.8657 266.362 90.0152 267.559 94.2444C268.835 98.3938 270.032 102.623 271.15 106.852C272.267 111.082 273.384 115.311 274.421 119.54C275.459 123.769 276.416 128.078 277.214 132.387C275.778 128.238 274.421 124.088 273.224 119.859C271.948 115.71 270.751 111.481 269.633 107.251C268.516 103.022 267.399 98.7928 266.362 94.5636C265.324 90.3344 264.447 86.0253 263.569 81.7163Z" fill="#000001"/>
<path d="M122.089 96.1598C121.291 96.08 120.573 95.9204 119.855 95.6012C119.137 95.3619 118.498 95.0427 117.86 94.6437C117.222 94.2447 116.583 93.8457 116.025 93.3669C115.386 92.8882 114.907 92.4094 114.429 91.771C115.227 91.8508 115.945 92.0104 116.663 92.3296C117.381 92.569 118.02 92.8881 118.658 93.2871C119.296 93.6861 119.935 94.0851 120.493 94.4841C121.132 95.0427 121.69 95.5214 122.089 96.1598Z" fill="#E1C692"/>
<path d="M130.228 92.0904C129.909 91.452 129.75 90.7338 129.59 90.0157C129.51 89.3773 129.43 88.6591 129.43 87.9409C129.43 87.2228 129.51 86.5844 129.59 85.8662C129.67 85.148 129.909 84.5097 130.228 83.7915C130.548 84.4299 130.707 85.148 130.867 85.8662C130.947 86.5046 131.026 87.2228 131.026 87.9409C131.026 88.6591 130.947 89.2975 130.867 90.0157C130.707 90.7338 130.548 91.452 130.228 92.0904Z" fill="#E1C692"/>
<path d="M141.958 92.9679C141.958 92.4093 141.958 91.8507 142.118 91.2922C142.278 90.8134 142.437 90.3346 142.677 89.8558C142.916 89.377 143.235 88.9781 143.554 88.5791C143.953 88.1801 144.352 87.7811 144.831 87.4619C144.831 88.0205 144.831 88.5791 144.672 89.1377C144.512 89.6164 144.352 90.175 144.113 90.574C143.874 91.0528 143.554 91.4518 143.235 91.8507C142.916 92.3295 142.437 92.6487 141.958 92.9679Z" fill="#E1C692"/>
<path d="M150.816 97.3573C151.215 96.7987 151.694 96.3997 152.173 95.9209C152.651 95.5219 153.21 95.2027 153.769 94.8836C154.327 94.5644 154.886 94.325 155.524 94.1654C156.163 93.926 156.801 93.8462 157.439 93.8462C157.04 94.4048 156.562 94.8836 156.083 95.2825C155.125 96.0805 154.008 96.6391 152.811 97.0381C152.173 97.1977 151.455 97.3573 150.816 97.3573Z" fill="#E1C692"/>
</svg>
