<svg viewBox="0 0 428 395" fill="none" xmlns="http://www.w3.org/2000/svg">
<path d="M159.45 239.308C159.45 239.308 14.6263 197.778 9.39867 204.748C4.17106 211.718 -3.47674 317.432 1.75087 319.659C6.97848 321.885 147.349 352.186 152.771 338.536C158.192 324.886 159.45 239.308 159.45 239.308Z" fill="#000001"/>
<path d="M10.4634 312.592C10.4634 312.592 13.0772 219.076 16.9495 216.849C20.8218 214.623 148.221 243.762 149.189 246.569C150.157 249.377 151.512 335.051 143.961 333.89L10.4634 312.592Z" fill="#F2EBEB"/>
<path d="M4.46143 326.145C5.04227 328.081 5.81673 329.92 6.78481 331.759C8.04331 333.792 51.5099 385.391 59.2545 387.521C66.9991 389.65 194.688 399.137 202.53 390.909L4.46143 326.145Z" fill="#000001"/>
<path d="M4.55841 326.242C4.55841 326.242 50.4452 381.809 59.8355 383.552C69.2259 385.294 201.465 394.781 202.53 390.812C203.595 386.843 152.964 345.022 145.51 342.989C138.056 340.956 1.65419 322.853 4.55841 326.242Z" fill="#E1C692"/>
<mask id="mask0_54_1700" style="mask-type:luminance" maskUnits="userSpaceOnUse" x="4" y="325" width="199" height="67">
<path d="M4.55841 326.242C4.55841 326.242 50.4452 381.809 59.8355 383.552C69.2259 385.294 201.465 394.781 202.53 390.812C203.595 386.843 152.964 345.022 145.51 342.989C138.056 340.956 1.65419 322.853 4.55841 326.242Z" fill="white"/>
</mask>
<g mask="url(#mask0_54_1700)">
<path d="M213.76 387.132C213.663 387.132 213.469 387.036 213.372 387.036L43.572 217.816C43.3784 217.622 43.3784 217.332 43.572 217.138C43.7656 216.945 44.056 216.945 44.2496 217.138L214.05 386.261C214.244 386.455 214.244 386.745 214.05 386.939C213.953 387.036 213.856 387.036 213.76 387.132Z" fill="#F2EBEB"/>
<path d="M200.303 408.914C200.207 408.914 200.013 408.817 199.916 408.817L33.8912 236.693C33.6976 236.5 33.7944 236.209 33.988 236.016C34.1816 235.822 34.472 235.822 34.6656 236.016L200.691 408.043C200.884 408.236 200.884 408.527 200.691 408.72C200.497 408.817 200.4 408.914 200.303 408.914Z" fill="#F2EBEB"/>
<path d="M185.782 416.755C185.686 416.755 185.492 416.659 185.395 416.659L20.9191 243.083C20.7255 242.889 20.7255 242.599 20.9191 242.405C21.1128 242.211 21.4032 242.211 21.5968 242.405L186.073 415.884C186.266 416.078 186.266 416.368 186.073 416.562C186.073 416.659 185.976 416.755 185.782 416.755Z" fill="#F2EBEB"/>
<path d="M175.908 422.951C175.811 422.951 175.617 422.854 175.521 422.758L12.2062 248.117C12.0126 247.923 12.0126 247.633 12.2062 247.439C12.3999 247.246 12.6903 247.246 12.8839 247.439L176.295 422.177C176.489 422.37 176.489 422.661 176.295 422.854C176.198 422.854 176.101 422.951 175.908 422.951Z" fill="#F2EBEB"/>
<path d="M164 434.278C163.904 434.278 163.71 434.181 163.613 434.084L4.17109 255.861C3.97748 255.668 3.97748 255.377 4.17109 255.184C4.36471 254.99 4.65513 254.99 4.84874 255.184L164.388 433.406C164.581 433.6 164.581 433.891 164.388 434.084C164.291 434.181 164.194 434.278 164 434.278Z" fill="#F2EBEB"/>
<path d="M156.353 445.411C156.256 445.411 156.062 445.314 155.966 445.217L-2.31475 265.833C-2.50836 265.639 -2.50836 265.349 -2.31475 265.155C-2.12113 264.961 -1.83071 264.961 -1.6371 265.155L156.643 444.539C156.837 444.733 156.837 445.023 156.643 445.217C156.643 445.411 156.45 445.411 156.353 445.411Z" fill="#F2EBEB"/>
<path d="M145.413 451.897C145.317 451.897 145.123 451.8 145.026 451.703L-12.5765 271.641C-12.7701 271.448 -12.7701 271.157 -12.5765 270.964C-12.3829 270.77 -12.0924 270.77 -11.8988 270.964L-11.802 271.06L145.801 451.122C145.994 451.316 145.994 451.606 145.801 451.8C145.607 451.897 145.51 451.897 145.413 451.897Z" fill="#F2EBEB"/>
<path d="M139.508 457.512C139.411 457.512 139.218 457.415 139.121 457.318L-20.4178 279.095C-20.6114 278.902 -20.6114 278.611 -20.4178 278.418C-20.2242 278.224 -19.9337 278.224 -19.7401 278.418L139.799 456.737C139.992 456.931 139.992 457.221 139.799 457.415C139.702 457.512 139.605 457.512 139.508 457.512Z" fill="#F2EBEB"/>
<path d="M268.843 396.426L-49.3631 381.905C-49.6536 381.905 -49.8472 381.615 -49.8472 381.421C-49.8472 381.131 -49.6536 380.937 -49.3631 380.937L268.843 395.458C269.134 395.458 269.327 395.652 269.327 395.942C269.327 396.233 269.134 396.426 268.843 396.426Z" fill="#F2EBEB"/>
<path d="M269.521 384.422L-48.7821 368.642C-49.0725 368.642 -49.2661 368.449 -49.2661 368.158C-49.2661 367.868 -49.0725 367.674 -48.7821 367.674L269.521 383.454C269.812 383.454 270.005 383.648 270.005 383.938C269.908 384.228 269.715 384.422 269.521 384.422Z" fill="#F2EBEB"/>
<path d="M269.811 374.354L-48.2015 354.218C-48.4919 354.218 -48.6855 353.928 -48.6855 353.734C-48.6855 353.444 -48.4919 353.25 -48.2015 353.25L269.811 373.386C270.102 373.386 270.295 373.676 270.295 373.87C270.295 374.16 270.102 374.354 269.811 374.354Z" fill="#F2EBEB"/>
<path d="M270.392 367.578L-47.6209 346.183C-47.9114 346.183 -48.105 345.893 -48.105 345.699C-48.105 345.409 -47.8146 345.215 -47.6209 345.215L270.295 366.707C270.585 366.707 270.779 366.997 270.779 367.191C270.779 367.384 270.585 367.578 270.392 367.578Z" fill="#F2EBEB"/>
<path d="M270.779 359.156L-47.1371 336.987C-47.4275 336.987 -47.6211 336.696 -47.6211 336.503C-47.6211 336.212 -47.4275 336.019 -47.1371 336.019L270.779 358.284C271.069 358.284 271.263 358.575 271.263 358.768C271.263 358.962 270.973 359.156 270.779 359.156Z" fill="#F2EBEB"/>
<path d="M277.943 356.445L-47.1371 327.499C-47.4275 327.499 -47.6211 327.209 -47.6211 327.015C-47.6211 326.725 -47.3307 326.531 -47.1371 326.531L277.846 355.38C278.136 355.38 278.33 355.67 278.33 355.864C278.427 356.251 278.233 356.445 277.943 356.445Z" fill="#F2EBEB"/>
</g>
<path d="M93.6513 227.525C93.9492 226.443 93.3551 225.335 92.3242 225.051C91.2932 224.768 90.2159 225.415 89.918 226.498C89.62 227.58 90.2141 228.688 91.2451 228.971C92.276 229.255 93.3533 228.608 93.6513 227.525Z" fill="#E1C692"/>
<path d="M15.207 223.916L149.479 250.828L148.995 244.826C148.995 244.826 18.8857 213.073 17.0464 215.493C15.207 217.914 15.207 223.916 15.207 223.916Z" fill="#F2EBEB"/>
<path d="M149.673 257.992L49.3803 238.437L44.2495 229.725L149.479 250.829L149.673 257.992Z" fill="#F2EBEB"/>
<path d="M24.7912 219.463C24.7912 219.463 20.9189 219.85 23.0487 221.593C25.1784 223.335 27.2114 220.237 24.7912 219.463Z" fill="#000001"/>
<path d="M31.8581 220.528C31.8581 220.528 27.9858 220.915 30.1156 222.561C32.2453 224.206 34.1815 221.302 31.8581 220.528Z" fill="#000001"/>
<path d="M37.7636 221.689C37.7636 221.689 33.9881 222.077 36.021 223.722C38.054 225.368 40.1838 222.464 37.7636 221.689Z" fill="#000001"/>
<path d="M255.096 84.6099C255.096 84.6099 386.464 10.8425 393.143 16.4574C399.823 22.0722 431.576 123.139 427.026 126.528C422.476 129.916 292.851 191.679 284.428 179.675C276.006 167.671 255.096 84.6099 255.096 84.6099Z" fill="#E1C692"/>
<path d="M416.958 121.687C416.958 121.687 392.95 31.3656 388.594 30.0103C384.237 28.655 267.003 86.4491 266.81 89.3533C266.616 92.2575 284.913 175.996 291.98 173.092L416.958 121.687Z" fill="#F2EBEB"/>
<path d="M425.865 133.498C425.768 135.531 425.381 137.563 424.897 139.5C424.122 141.823 393.725 201.94 386.658 205.813C379.591 209.685 257.516 248.408 248.029 242.116L425.865 133.498Z" fill="#E1C692"/>
<path d="M425.864 133.594C425.864 133.594 394.015 198.262 385.205 202.134C376.396 206.006 249.965 245.601 248.029 242.116C246.093 238.631 285.784 186.064 292.56 182.385C299.337 178.707 427.897 129.625 425.864 133.594Z" fill="#000001"/>
<path d="M406.407 150.148C401.373 161.184 395.758 171.93 389.369 182.192C387.723 184.806 385.98 187.226 383.947 189.646C383.463 190.227 382.882 190.808 382.302 191.388C382.011 191.679 381.721 191.969 381.334 192.163C381.043 192.453 380.656 192.647 380.269 192.841C379.591 193.131 378.817 193.518 378.139 193.809L376.009 194.583C370.297 196.616 364.489 198.455 358.777 200.295C347.257 203.877 335.64 207.265 323.927 210.46C312.213 213.654 300.596 216.849 288.882 219.753C300.402 216.074 311.923 212.492 323.539 209.007C335.06 205.426 346.676 202.037 358.197 198.455C364.005 196.713 369.717 194.874 375.428 192.841L377.558 192.066L379.591 191.195C380.849 190.517 381.914 189.646 382.786 188.484C384.722 186.258 386.561 183.837 388.207 181.32C391.595 176.383 394.693 171.156 397.694 165.928C400.695 160.7 403.502 155.376 406.407 150.148Z" fill="#F2EBEB"/>
<path d="M319.053 58.8069C319.991 58.2934 320.314 57.0788 319.775 56.094C319.236 55.1093 318.038 54.7272 317.101 55.2407C316.163 55.7542 315.839 56.9687 316.379 57.9535C316.918 58.9383 318.115 59.3204 319.053 58.8069Z" fill="#000001"/>
<path d="M391.885 36.4964L267.391 93.6128L266.52 87.7076C266.52 87.7076 385.786 26.8156 388.207 28.7518C390.627 30.6879 391.885 36.4964 391.885 36.4964Z" fill="#F2EBEB"/>
<path d="M301.37 85.8684L394.499 43.7571L391.885 36.4966L290.721 82.8674L301.37 85.8684Z" fill="#F2EBEB"/>
<path d="M391.111 8.71268C390.723 8.03503 390.433 7.35737 390.239 6.58291C390.046 5.90526 389.949 5.1308 389.852 4.45315C389.755 3.67869 389.852 3.00103 389.949 2.22657C390.046 1.45211 390.239 0.677653 390.53 0C390.917 0.677653 391.207 1.3553 391.401 2.12976C391.595 2.80742 391.691 3.58188 391.788 4.25953C391.885 5.03399 391.788 5.71164 391.691 6.4861C391.595 7.26056 391.401 7.93822 391.111 8.71268Z" fill="#E1C692"/>
<path d="M397.113 10.7458C397.403 9.87452 397.887 9.10006 398.468 8.42241C398.952 7.74476 399.533 7.0671 400.211 6.48626C400.791 5.90541 401.469 5.32457 402.244 4.84053C403.018 4.35649 403.793 3.87245 404.664 3.58203C404.373 4.4533 403.889 5.22776 403.308 6.00222C402.244 7.45433 400.985 8.61603 399.533 9.68091C398.759 10.0681 397.984 10.4554 397.113 10.7458Z" fill="#E1C692"/>
<path d="M271.553 86.933C271.553 86.933 268.552 89.3532 271.263 89.6436C273.973 89.934 273.973 86.3521 271.553 86.933Z" fill="#E1C692"/>
<path d="M277.943 83.9321C277.943 83.9321 274.942 86.3523 277.652 86.6427C280.363 86.9331 280.363 83.2545 277.943 83.9321Z" fill="#E1C692"/>
<path d="M283.558 81.5122C283.558 81.5122 280.556 83.9324 283.267 84.2228C285.978 84.5132 285.881 80.8346 283.558 81.5122Z" fill="#E1C692"/>
<path d="M10.4634 312.592C10.4634 312.592 103.495 294.585 144.639 231.661C155.965 214.235 142.702 177.351 137.572 164.089C132.441 150.826 143.961 153.053 148.995 157.7C154.029 162.346 162.161 182.966 162.161 182.966C162.161 182.966 168.453 154.118 171.261 131.561C174.068 109.005 179.489 103.778 183.749 113.846C188.008 123.914 191.203 156.151 191.203 156.151C191.203 156.151 196.721 106.101 200.981 98.7437C205.24 91.3864 212.21 100.97 213.566 121.978C214.921 142.985 214.727 155.086 214.727 155.086C214.727 155.086 221.601 121.203 224.989 118.492C230.12 114.427 232.637 120.235 230.991 146.373C229.345 172.511 207.66 218.398 202.723 233.984C187.912 280.548 116.758 329.436 116.758 329.436L10.4634 312.592Z" fill="#EA8383"/>
<path d="M181.813 240.664C182.491 238.437 182.975 236.21 183.362 233.887C183.749 231.661 184.04 229.337 184.233 227.111C184.33 225.949 184.33 224.884 184.33 223.722V221.98C184.33 221.399 184.33 220.818 184.233 220.237C184.233 219.076 184.136 217.914 184.04 216.752C183.943 215.59 183.846 214.429 183.846 213.267C184.33 214.332 184.717 215.494 185.008 216.655C185.298 217.817 185.588 218.979 185.782 220.14C186.169 222.464 186.266 224.884 186.073 227.304C185.879 229.724 185.492 232.048 184.814 234.274C184.233 236.501 183.168 238.727 181.813 240.664Z" fill="#000001"/>
<path d="M168.841 76.1875C169.809 78.0268 170.68 79.8662 171.455 81.7055C172.229 83.5449 172.907 85.481 173.488 87.4172C174.068 89.3533 174.649 91.2895 175.133 93.2256C175.617 95.1618 176.005 97.1947 176.295 99.2277C175.327 97.3883 174.456 95.549 173.681 93.7097C172.907 91.8703 172.229 89.9342 171.648 87.998C171.067 86.0619 170.487 84.1257 170.003 82.1896C169.422 80.2534 169.034 78.2205 168.841 76.1875Z" fill="#E1C692"/>
<path d="M136.991 88.2886C139.605 89.5471 142.122 90.9992 144.542 92.4513C146.962 93.9034 149.383 95.4523 151.803 97.0981C154.223 98.7438 156.546 100.293 158.773 102.035C160.999 103.778 163.323 105.52 165.453 107.456C162.839 106.198 160.322 104.746 157.902 103.294C155.481 101.842 153.061 100.293 150.641 98.647C148.221 97.0012 145.898 95.3555 143.671 93.7098C141.444 92.0641 139.121 90.2247 136.991 88.2886Z" fill="#E1C692"/>
<path d="M155.965 121.106C154.61 121.106 153.255 121.01 151.899 120.719C149.286 120.332 146.672 119.557 144.155 118.589C142.896 118.105 141.638 117.524 140.476 116.75C141.831 116.75 143.187 116.847 144.542 117.137C145.8 117.331 147.156 117.621 148.414 118.009C149.673 118.396 150.931 118.783 152.19 119.267C153.545 119.751 154.804 120.429 155.965 121.106Z" fill="#E1C692"/>
<path d="M220.439 295.457C218.503 297.393 216.276 299.136 213.856 300.588C211.436 302.137 208.725 303.105 205.821 303.395C202.723 303.686 199.722 302.33 197.883 299.91L197.205 298.942L196.624 297.974C196.237 297.296 195.947 296.716 195.656 296.038C195.366 295.36 195.172 294.586 195.075 293.811C194.979 292.94 195.172 291.972 195.559 291.198C196.044 290.423 196.915 289.842 197.786 289.649C198.561 289.455 199.432 289.455 200.206 289.552C200.981 289.649 201.755 289.939 202.433 290.326C203.304 290.714 203.885 291.391 204.272 292.262C204.466 292.747 204.466 293.327 204.369 293.908C204.272 294.295 204.079 294.683 203.788 295.07C203.401 295.651 202.82 296.232 202.336 296.812C201.271 297.781 200.109 298.652 198.754 299.329C196.237 300.782 193.236 301.266 190.332 300.685C188.977 300.298 187.718 299.523 186.653 298.458C185.685 297.393 185.007 296.232 184.523 294.876C185.201 296.038 186.072 297.2 187.04 298.071C188.009 298.942 189.267 299.523 190.526 299.717C191.784 299.91 193.139 299.91 194.398 299.523C195.656 299.233 196.915 298.652 197.98 297.974C199.141 297.296 200.109 296.522 201.078 295.554C201.562 295.07 201.949 294.586 202.239 294.102C202.336 293.908 202.53 293.618 202.53 293.424C202.53 293.327 202.53 293.134 202.53 293.037C202.336 292.65 201.949 292.262 201.465 292.069C200.981 291.778 200.4 291.585 199.819 291.585C198.657 291.391 197.496 291.682 197.108 292.359C196.721 293.037 196.818 294.392 197.302 295.554C197.786 296.716 198.367 297.877 199.141 298.942C199.819 300.007 200.787 300.782 201.949 301.362C203.11 301.846 204.369 302.137 205.627 302.137C208.338 301.943 210.855 301.266 213.275 300.007C215.889 298.555 218.212 297.103 220.439 295.457Z" fill="#E1C692"/>
<path d="M219.761 75.9942C219.18 73.2836 218.987 70.4762 218.987 67.6688C218.987 64.7646 219.664 61.9572 220.923 59.4402C222.278 56.6327 225.086 54.8902 228.184 54.6966H229.248H230.313C231.088 54.7934 231.765 54.7934 232.443 54.987C233.218 55.1806 233.992 55.3742 234.67 55.7615C235.541 56.1487 236.219 56.8264 236.606 57.6008C236.993 58.4721 237.09 59.4402 236.703 60.3114C236.412 61.0859 236.025 61.7635 235.444 62.4412C234.96 63.022 234.282 63.5061 233.605 63.8933C232.83 64.3773 231.862 64.571 230.991 64.4741C230.41 64.3773 229.926 64.0869 229.636 63.6997C229.345 63.4093 229.152 63.022 228.958 62.6348C228.668 61.9572 228.474 61.1827 228.28 60.505C227.99 59.0529 227.99 57.6008 228.087 56.1487C228.184 53.2445 229.442 50.4371 231.572 48.3073C232.637 47.3392 233.992 46.7584 235.444 46.4679C236.799 46.2743 238.252 46.2743 239.607 46.5648C238.252 46.4679 236.896 46.5648 235.541 46.952C234.282 47.3392 233.121 48.0169 232.249 48.9849C231.378 49.953 230.701 51.1147 230.313 52.3732C229.926 53.6317 229.636 54.8902 229.636 56.2455C229.636 57.504 229.732 58.8593 229.926 60.1178C230.023 60.6987 230.216 61.2795 230.507 61.8603C230.604 62.054 230.797 62.3444 230.894 62.538C230.991 62.6348 231.088 62.7316 231.281 62.7316C231.765 62.7316 232.249 62.6348 232.637 62.3444C233.121 62.054 233.605 61.6667 233.992 61.2795C234.766 60.4082 235.154 59.2465 234.766 58.5689C234.379 57.8912 233.218 57.3104 232.056 57.02C230.797 56.7295 229.442 56.6327 228.184 56.7295C226.925 56.7295 225.763 57.1168 224.698 57.7944C223.634 58.4721 222.762 59.3433 222.085 60.505C220.826 62.8284 219.955 65.4422 219.761 68.056C219.568 70.4762 219.568 73.2836 219.761 75.9942Z" fill="#E1C692"/>
<path d="M417.926 121.687C417.926 121.687 377.074 267.479 259.356 254.701C194.785 247.731 170.002 199.714 160.515 187.323C151.028 174.931 175.714 174.447 194.107 195.455C194.107 195.455 176.972 112.007 186.266 104.359C195.56 96.711 206.402 142.211 206.402 142.211C206.402 142.211 201.852 101.067 209.597 95.0653C217.341 89.0632 221.891 130.303 228.765 142.501C228.765 142.501 226.538 122.171 232.734 121.3C238.929 120.429 239.704 178.126 270.682 181.03C340.577 187.516 403.018 71.541 403.018 71.541L417.926 121.687Z" fill="#A04040"/>
<path d="M166.614 195.939C167.873 196.036 169.035 195.939 170.196 195.648C171.261 195.358 172.229 194.777 173.004 193.906C173.391 193.519 173.681 193.035 173.875 192.551C174.069 192.163 174.165 191.776 174.069 191.292C173.972 191.098 173.875 190.905 173.778 190.711C173.681 190.421 173.488 190.227 173.391 189.937C173.101 189.453 172.81 188.969 172.423 188.485C171.745 187.517 170.971 186.549 170.099 185.774C169.325 184.903 168.454 184.032 167.583 183.257C165.743 181.611 163.71 180.256 161.677 178.998C164.194 179.578 166.518 180.643 168.551 182.095C170.68 183.548 172.52 185.387 174.069 187.42C174.456 187.904 174.843 188.485 175.134 189.066C175.327 189.356 175.424 189.646 175.618 189.937C175.811 190.324 175.908 190.614 176.005 191.002C176.102 191.776 175.908 192.647 175.424 193.325C175.037 193.906 174.649 194.487 174.069 194.971C173.585 195.455 173.004 195.842 172.326 196.132C171.745 196.423 171.068 196.52 170.39 196.617C169.131 196.713 167.776 196.52 166.614 195.939Z" fill="#000001"/>
<path d="M185.975 106.682C186.556 108.425 186.944 110.264 187.331 112.007C187.718 113.749 188.202 115.395 188.686 117.137C188.783 117.331 188.783 117.525 188.88 117.718C188.977 117.912 189.073 118.105 189.17 118.202L189.267 118.396C189.267 118.493 189.364 118.493 189.364 118.493L189.461 118.589C189.557 118.589 189.557 118.686 189.654 118.686C190.332 118.977 191.106 118.977 191.784 118.783C193.526 118.396 195.269 117.815 196.915 117.234C195.559 118.589 193.914 119.654 192.171 120.235C191.687 120.429 191.203 120.526 190.622 120.622C190.332 120.622 190.041 120.622 189.751 120.622C189.461 120.622 189.17 120.526 188.88 120.429L188.396 120.235C188.299 120.138 188.105 120.042 188.008 119.945C187.815 119.751 187.621 119.461 187.428 119.267C187.234 119.073 187.137 118.783 187.04 118.589C186.944 118.396 186.847 118.105 186.75 117.912C186.169 116.072 185.782 114.233 185.685 112.394C185.782 110.361 185.782 108.521 185.975 106.682Z" fill="#000001"/>
<path d="M209.113 97.6792C209.403 99.3249 209.5 100.971 209.79 102.616C209.887 104.165 210.274 105.617 210.855 107.07C211.242 108.038 212.695 108.522 214.147 108.134C215.696 107.844 216.954 106.876 217.825 105.521C217.825 106.392 217.438 107.263 216.857 107.941C216.276 108.618 215.502 109.199 214.631 109.587C213.759 109.974 212.695 110.071 211.726 109.877C211.436 109.877 211.242 109.78 210.952 109.683C210.662 109.587 210.468 109.49 210.274 109.296C209.79 109.006 209.5 108.522 209.209 108.038C208.532 106.392 208.241 104.553 208.338 102.81C208.241 100.971 208.532 99.3249 209.113 97.6792Z" fill="#000001"/>
<path d="M232.056 121.688C232.249 123.043 232.346 124.398 232.54 125.753C232.637 127.012 232.927 128.27 233.217 129.432C233.411 129.916 233.605 130.4 233.992 130.884C234.379 131.271 234.766 131.659 235.25 131.852C236.412 132.24 237.671 132.24 238.832 131.659C238.445 132.24 237.864 132.724 237.187 133.014C236.412 133.304 235.638 133.401 234.863 133.304C234.089 133.111 233.314 132.724 232.733 132.143C232.153 131.562 231.669 130.884 231.475 130.11C231.088 128.754 230.894 127.302 231.088 125.85C231.088 124.398 231.475 123.043 232.056 121.688Z" fill="#000001"/>
<path d="M199.141 118.686C200.787 122.655 202.239 126.624 203.788 130.593L208.241 142.501C209.693 146.47 211.145 150.439 212.694 154.408C214.146 158.377 215.792 162.249 217.728 166.122C217.147 165.25 216.373 164.379 215.889 163.508C215.405 162.637 214.727 161.669 214.243 160.797L212.694 157.99L211.339 155.086C209.5 151.213 207.951 147.244 206.498 143.275C205.046 139.306 203.691 135.24 202.529 131.174C201.368 127.108 200.012 122.946 199.141 118.686Z" fill="#000001"/>
<path d="M224.312 130.4C225.28 132.626 226.054 134.853 226.925 137.08L229.346 143.759C229.733 144.824 230.12 145.986 230.507 147.051C230.894 148.116 231.378 149.277 231.766 150.342C232.54 152.569 233.605 154.699 234.767 156.732C232.927 155.086 231.475 153.15 230.41 150.923C229.249 148.793 228.281 146.567 227.506 144.34C226.732 142.114 226.054 139.79 225.473 137.467C224.892 135.143 224.505 132.82 224.312 130.4Z" fill="#000001"/>
<path d="M57.1249 87.9982C57.1249 87.9982 57.4153 84.1259 54.7047 72.993C53.4462 67.7654 43.3782 48.5007 60.9972 39.1104C78.6161 29.7201 92.75 42.305 91.0075 58.9559C89.265 75.6068 69.613 90.8056 69.613 90.8056L57.1249 87.9982Z" fill="#E1C692"/>
<path d="M59.4482 87.7074C60.4162 83.8351 61.2875 80.0596 62.062 76.0905C62.4492 74.1544 62.8364 72.2182 63.03 70.2821C63.3205 68.3459 63.5141 66.4098 63.5141 64.4736C63.5141 63.6024 63.4173 62.6343 63.2236 61.763C63.03 61.3758 62.9332 60.9885 62.7396 60.9885C62.546 60.7949 62.2556 60.7949 62.062 60.7949C61.5779 60.8917 60.9971 61.5694 60.7067 62.4407C60.4162 63.3119 60.2226 64.1832 60.2226 65.0545C60.1258 66.797 60.7067 68.6363 61.6747 70.0885C62.7396 71.5406 64.2885 72.5086 66.0311 72.8959C69.6129 73.8639 73.4852 73.3799 76.7767 71.6374C77.5512 71.1533 78.2288 70.5725 78.8097 69.8948C79.2937 69.4108 79.5841 68.6363 79.5841 67.9587C79.4873 67.6683 79.2937 67.4747 79.0033 67.3778C78.8097 67.281 78.7129 67.1842 78.5192 67.1842C78.3256 67.0874 78.132 67.0874 77.9384 67.0874C77.1639 67.0874 76.3895 67.4747 75.9054 68.0555C74.5501 69.4108 73.4852 70.9597 72.614 72.7023C71.6459 74.4448 70.8714 76.1873 70.0002 78.0267C68.3544 81.6086 66.9991 85.384 65.7406 89.0627C66.7087 85.1904 67.7736 81.4149 69.1289 77.7362C69.8066 75.8969 70.581 74.0576 71.4523 72.2182C71.9363 71.347 72.4204 70.3789 72.9044 69.5076C73.4852 68.6363 74.0661 67.7651 74.8406 66.9906C75.2278 66.6034 75.7118 66.2162 76.1959 65.9257C77.0671 65.4417 78.0352 65.3449 78.9065 65.6353C79.1969 65.7321 79.4873 65.8289 79.7777 66.0225C80.4554 66.313 80.9394 66.8938 81.133 67.5715C81.3267 68.2491 81.3267 68.9268 81.0362 69.6044C80.8426 70.1853 80.5522 70.6693 80.165 71.1533C79.4873 72.0246 78.616 72.7023 77.7448 73.2831C75.9054 74.348 73.8725 75.0256 71.7427 75.3161C69.613 75.5097 67.58 75.4129 65.547 74.9288C63.4173 74.4448 61.4811 73.1863 60.1258 71.347C58.8673 69.5076 58.1897 67.3778 58.2865 65.1513C58.2865 64.0864 58.5769 62.9247 58.9641 61.9566C59.1577 61.3758 59.4482 60.8917 59.8354 60.4077C60.2226 59.8269 60.9003 59.4396 61.4811 59.3428C62.2556 59.246 62.9332 59.3428 63.5141 59.8269C63.9981 60.2141 64.3853 60.7949 64.579 61.4726C64.8694 62.5375 64.9662 63.6023 64.8694 64.6672C64.579 68.6363 63.9013 72.6055 62.8364 76.4778C61.8683 80.2533 60.8035 84.0287 59.4482 87.7074Z" fill="#F2EBEB"/>
<path d="M55.8667 86.062L71.5495 89.8375L71.2591 91.096C70.1942 95.4523 65.8379 98.0662 61.4816 97.0013C57.1252 95.9364 54.5114 91.58 55.5763 87.2237L55.8667 86.062Z" fill="#000001"/>
<path d="M54.5109 91.6768L70.1937 95.4522C69.1288 99.8086 64.7725 102.422 60.4161 101.358C56.0598 100.293 53.446 95.9363 54.5109 91.6768Z" fill="#000001"/>
<path d="M59.7388 35.1413C59.3515 34.27 58.9643 33.3987 58.7707 32.5275C58.2867 30.7849 58.1899 28.9456 58.2867 27.1062C58.3835 26.1382 58.4803 25.2669 58.7707 24.2988C59.1579 25.1701 59.5452 26.0414 59.7388 26.9126C59.9324 27.7839 60.126 28.6552 60.2228 29.6232C60.3196 30.4945 60.3196 31.4626 60.2228 32.3339C60.126 33.3019 60.0292 34.27 59.7388 35.1413Z" fill="#E1C692"/>
<path d="M53.5431 39.7877C52.7687 39.5941 51.9942 39.2069 51.3166 38.8196C50.6389 38.4324 50.0581 37.9484 49.4772 37.4643C48.8964 36.9803 48.4123 36.3994 47.9283 35.8186C47.4443 35.2378 47.057 34.4633 46.7666 33.7856C47.5411 33.9793 48.3155 34.3665 48.9932 34.7537C49.6708 35.141 50.2517 35.625 50.8325 36.109C51.4134 36.5931 51.8974 37.1739 52.3814 37.7548C52.8655 38.3356 53.2527 39.0132 53.5431 39.7877Z" fill="#E1C692"/>
<path d="M109.304 17.4254C112.993 17.4254 115.984 14.4347 115.984 10.7456C115.984 7.05653 112.993 4.06592 109.304 4.06592C105.615 4.06592 102.625 7.05653 102.625 10.7456C102.625 14.4347 105.615 17.4254 109.304 17.4254Z" fill="#F2EBEB"/>
<path d="M387.336 272.997C391.292 272.997 394.499 269.79 394.499 265.834C394.499 261.877 391.292 258.67 387.336 258.67C383.379 258.67 380.172 261.877 380.172 265.834C380.172 269.79 383.379 272.997 387.336 272.997Z" fill="#F2EBEB"/>
<path d="M261.292 368.934C266.532 368.934 270.779 364.686 270.779 359.447C270.779 354.207 266.532 349.959 261.292 349.959C256.053 349.959 251.805 354.207 251.805 359.447C251.805 364.686 256.053 368.934 261.292 368.934Z" fill="#F2EBEB"/>
<path d="M29.4381 162.056C32.3252 162.056 34.6657 159.715 34.6657 156.828C34.6657 153.941 32.3252 151.601 29.4381 151.601C26.5509 151.601 24.2104 153.941 24.2104 156.828C24.2104 159.715 26.5509 162.056 29.4381 162.056Z" fill="#F2EBEB"/>
<path d="M363.424 293.424C363.424 293.424 335.834 284.614 315.698 313.85C295.562 343.086 308.824 367.578 334.188 368.159C359.552 368.74 383.173 346.474 380.365 321.692C377.558 296.909 363.424 293.424 363.424 293.424Z" fill="#000001"/>
<path d="M360.132 292.456C360.132 292.456 332.542 283.646 312.406 312.882C292.27 342.118 305.533 366.61 330.897 367.191C356.26 367.772 379.881 345.506 377.074 320.723C374.266 295.941 360.132 292.456 360.132 292.456Z" fill="#E1C692"/>
<path d="M357.422 297.49C357.422 297.49 334.962 287.809 316.182 312.785C297.401 337.762 306.791 360.511 327.992 362.641C349.193 364.771 370.394 346.281 369.716 323.918C369.039 301.555 357.422 297.49 357.422 297.49Z" fill="#F2EBEB"/>
<path d="M350.839 302.717C350.839 302.717 333.995 295.553 319.958 314.141C305.921 332.728 312.891 349.863 328.767 351.411C344.643 352.96 360.52 339.214 360.036 322.466C359.552 305.718 350.839 302.717 350.839 302.717Z" fill="#E1C692"/>
<path d="M340.868 309.784C340.868 309.784 330.509 305.331 321.797 316.851C313.084 328.371 317.44 338.923 327.218 339.891C336.995 340.859 346.773 332.34 346.482 321.982C346.192 311.623 340.868 309.784 340.868 309.784Z" fill="#F2EBEB"/>
<path d="M334.672 320.724C334.672 320.724 331.962 319.562 329.832 322.563C327.702 325.564 328.767 328.178 331.187 328.468C333.704 328.662 335.931 326.726 336.124 324.209C336.124 324.112 336.124 324.015 336.124 323.918C336.124 321.208 334.672 320.724 334.672 320.724Z" fill="#E1C692"/>
<path d="M290.721 298.941C292.464 299.135 294.206 299.619 295.755 300.394C298.079 301.555 302.048 300.394 302.048 300.394C302.048 300.394 301.08 295.36 300.692 294.972C300.305 294.585 293.916 292.262 293.916 292.262L294.206 296.618L290.721 298.941Z" fill="#000001"/>
<path d="M292.271 295.65C295.272 296.424 298.176 297.489 300.886 298.845C303.694 300.103 306.404 301.652 309.018 303.298C311.632 304.943 314.052 306.88 316.279 309.009C318.505 311.139 320.441 313.559 321.99 316.27C319.861 314.14 317.634 312.107 315.214 310.171C312.794 308.332 310.374 306.589 307.857 304.943C305.34 303.298 302.726 301.749 300.112 300.2L292.271 295.65Z" fill="#000001"/>
<path d="M318.215 316.27L323.637 317.626L322.959 312.398C322.959 312.495 320.732 316.173 318.215 316.27Z" fill="#000001"/>
<path d="M277.943 291.294C278.814 291.197 279.589 291.197 280.46 291.391C282.009 291.681 283.558 292.165 284.913 292.94C285.591 293.327 286.268 293.811 286.849 294.392C285.978 294.489 285.203 294.489 284.332 294.295C283.558 294.198 282.783 294.005 282.009 293.714C281.234 293.424 280.557 293.133 279.879 292.746C279.201 292.359 278.524 291.875 277.943 291.294Z" fill="#E1C692"/>
<path d="M274.458 281.323C275.717 281.71 276.878 282.291 278.04 282.968C280.266 284.227 282.299 285.679 284.236 287.422C285.204 288.293 286.075 289.261 286.946 290.229C285.688 289.842 284.526 289.261 283.364 288.583C282.299 288.002 281.138 287.228 280.17 286.55C279.105 285.776 278.137 285.001 277.169 284.13C276.201 283.259 275.232 282.291 274.458 281.323Z" fill="#E1C692"/>
</svg>
