<svg viewBox="0 0 317 261" fill="none" xmlns="http://www.w3.org/2000/svg">
<path d="M303.494 231.206C303.494 231.206 315.046 229.341 314.616 209.895C314.185 190.45 318.777 21.1818 314.616 9.62938C310.454 -1.92304 225.856 -3.35812 212.868 6.83097C199.881 17.0201 204.545 216.353 209.639 226.112C214.734 235.87 303.494 231.206 303.494 231.206Z" fill="#E1C692"/>
<path d="M300.337 227.475C300.337 227.475 310.956 225.681 310.526 206.81C310.095 187.939 314.4 24.2673 310.526 13.0736C306.651 1.87997 229.228 0.516642 217.317 10.4187C205.406 20.3208 210.429 212.765 214.375 222.524C217.245 229.628 300.337 227.475 300.337 227.475Z" fill="#F2EBEB"/>
<path d="M272.353 7.97914C272.353 7.97914 276.658 8.19441 276.443 11.7104C276.228 15.2263 275.151 15.8003 268.478 16.3026C261.805 16.8049 249.822 17.3789 247.741 14.724C245.66 12.0691 246.521 7.62037 251.114 7.47686C255.706 7.33336 272.353 7.97914 272.353 7.97914Z" fill="#E1C692"/>
<path d="M271.061 10.6344C271.061 10.6344 272.64 10.9932 272.353 12.5C272.066 14.0068 269.698 13.8633 269.124 12.5C268.55 11.1367 270.487 10.4191 271.061 10.6344Z" fill="#F2EBEB"/>
<path d="M104.376 259.406C104.376 259.406 115.928 257.54 115.498 238.095C115.067 218.649 119.66 49.381 115.498 37.8286C111.336 26.2762 26.738 24.8411 13.7505 35.0302C0.763006 45.2193 5.42703 244.552 10.5216 254.311C15.6161 264.07 104.376 259.406 104.376 259.406Z" fill="#000001"/>
<path d="M101.219 255.674C101.219 255.674 111.839 253.88 111.408 235.009C110.978 216.138 115.283 52.4665 111.408 41.2728C107.533 30.0792 30.1106 28.7159 18.2712 38.6179C6.43173 48.52 10.6652 241.323 15.3293 250.723C19.9933 260.123 101.219 255.674 101.219 255.674Z" fill="#F2EBEB"/>
<path d="M101.219 255.674C101.219 255.674 111.839 253.88 111.408 235.009C110.978 216.138 115.283 52.4665 111.408 41.2728C107.533 30.0792 30.1106 28.7159 18.2712 38.6179C6.43173 48.52 10.6652 241.323 15.3293 250.723C19.9933 260.123 101.219 255.674 101.219 255.674Z" fill="#E1C692"/>
<path d="M73.2347 36.1784C73.2347 36.1784 77.5399 36.3936 77.3247 39.9096C77.1094 43.4255 75.9613 43.9996 69.3599 44.5018C62.7586 45.0041 50.7039 45.5782 48.623 42.9233C46.5421 40.2684 47.4032 35.8196 51.9954 35.6761C56.5877 35.5326 73.2347 36.1784 73.2347 36.1784Z" fill="#000001"/>
<path d="M71.9435 38.9044C71.9435 38.9044 73.5221 39.2631 73.2351 40.77C72.9481 42.2768 70.5802 42.1333 69.9344 40.77C69.2886 39.4066 71.2977 38.6173 71.9435 38.9044Z" fill="#F2EBEB"/>
<path d="M34.7028 251.225C32.3349 251.656 29.8953 251.728 27.5274 251.584C25.0877 251.369 22.6481 251.082 20.352 249.647C19.7779 249.288 19.2756 248.714 18.9169 248.14C18.7734 247.853 18.6299 247.566 18.4863 247.279C18.3428 246.992 18.1993 246.705 18.1276 246.418C17.697 245.27 17.41 244.05 17.2665 242.83C16.9078 240.462 16.836 238.023 17.0513 235.583C17.41 237.951 17.7688 240.319 18.3428 242.615C18.6299 243.763 18.9886 244.839 19.4191 245.916C19.6344 246.418 19.8497 246.92 20.1367 247.422C20.4237 247.853 20.7825 248.212 21.213 248.499C22.1458 249.073 23.1504 249.503 24.2267 249.79C25.3747 250.077 26.5228 250.364 27.6709 250.508C29.967 250.795 32.3349 251.01 34.7028 251.225Z" fill="#E1C692"/>
<path d="M15.4006 228.05C15.1136 227.547 14.9701 226.973 14.8266 226.399C14.7549 225.825 14.6831 225.323 14.6831 224.749C14.6831 224.175 14.7549 223.601 14.8266 223.099C14.8984 222.525 15.1136 221.951 15.4006 221.448C15.6877 221.951 15.8312 222.525 15.9747 223.099C16.1899 224.175 16.1899 225.323 15.9747 226.399C15.9029 226.973 15.6877 227.476 15.4006 228.05Z" fill="#E1C692"/>
<path d="M109.973 176.602C110.26 178.467 110.475 180.261 110.547 182.127C110.69 183.992 110.69 185.786 110.69 187.652C110.69 189.517 110.619 191.311 110.547 193.177C110.475 195.042 110.26 196.908 109.973 198.702C109.686 196.836 109.542 195.042 109.399 193.177C109.255 191.311 109.255 189.517 109.255 187.652C109.255 185.786 109.327 183.992 109.399 182.127C109.542 180.261 109.686 178.395 109.973 176.602Z" fill="#E1C692"/>
<path d="M133.293 206.666C122.315 192.674 122.889 172.87 133.58 158.591C141.545 147.9 154.532 137.137 174.193 138.5C223.99 141.944 213.801 208.747 190.696 218.291C173.834 225.179 147.716 225.036 133.293 206.666Z" fill="#E1C692"/>
<path d="M135.589 176.529C135.589 176.529 138.89 126.516 188.687 138.715C227.793 148.33 221.407 206.666 200.814 216.783C175.269 229.34 139.536 223.743 135.589 176.529Z" fill="#E1C692"/>
<path d="M155.968 142.087C149.438 147.11 144.2 153.639 140.756 161.102C139.966 162.967 139.249 164.905 138.675 166.842C138.101 168.779 137.67 170.789 137.383 172.798C136.881 176.816 136.881 180.906 137.455 184.924C138.531 193.032 141.904 200.638 147.142 206.953C152.452 213.195 159.197 218.146 166.802 221.375C158.909 218.649 151.878 213.913 146.353 207.67C140.756 201.356 137.168 193.463 136.092 185.139C135.518 180.978 135.518 176.744 136.092 172.582C136.737 168.421 137.957 164.402 139.751 160.599C143.339 153.065 149.007 146.679 155.968 142.087Z" fill="#F2EBEB"/>
<path d="M135.876 208.747C136.594 208.317 137.383 207.958 138.244 207.671C139.822 207.097 141.473 206.738 143.123 206.595C143.984 206.523 144.845 206.523 145.706 206.595C144.989 207.025 144.199 207.384 143.338 207.671C142.549 207.958 141.76 208.173 140.899 208.317C140.109 208.46 139.248 208.604 138.387 208.676C137.598 208.819 136.737 208.819 135.876 208.747Z" fill="#F2EBEB"/>
<path d="M129.49 193.463C130.064 193.032 130.638 192.673 131.284 192.386C131.93 192.099 132.504 191.884 133.15 191.669C133.795 191.454 134.441 191.382 135.159 191.238C135.876 191.167 136.522 191.167 137.24 191.238C136.666 191.669 136.092 192.028 135.446 192.315C134.8 192.602 134.226 192.817 133.58 193.032C132.934 193.248 132.289 193.391 131.571 193.463C130.854 193.535 130.208 193.535 129.49 193.463Z" fill="#F2EBEB"/>
<path d="M128.557 176.171C129.059 175.74 129.633 175.453 130.279 175.238C130.853 175.023 131.427 174.807 132.073 174.664C132.647 174.52 133.293 174.449 133.939 174.377C134.584 174.305 135.23 174.377 135.876 174.52C135.374 174.951 134.8 175.238 134.154 175.525C133.58 175.74 133.006 175.955 132.36 176.099C131.714 176.242 131.14 176.314 130.494 176.386C129.849 176.314 129.203 176.314 128.557 176.171Z" fill="#F2EBEB"/>
<path d="M132.073 162.178C132.719 161.819 133.365 161.532 134.011 161.317C134.656 161.102 135.374 160.958 136.02 160.815C136.737 160.671 137.383 160.671 138.101 160.6C138.818 160.6 139.536 160.671 140.253 160.815C139.679 161.174 138.962 161.461 138.316 161.676C137.67 161.891 137.024 162.035 136.307 162.178C135.589 162.322 134.943 162.322 134.226 162.393C133.508 162.393 132.791 162.322 132.073 162.178Z" fill="#F2EBEB"/>
<path d="M163.86 189.446C163.143 189.087 160.631 195.473 160.631 195.473C160.631 195.473 171.681 206.38 183.162 198.559C194.643 190.737 186.032 179.113 177.207 173.947C168.381 168.781 176.92 160.027 181.512 163.184C184.238 165.049 187.18 166.771 190.122 168.278L192.203 163.83C192.203 163.83 181.225 153.712 173.619 159.524C166.013 165.336 164.937 172.225 174.121 178.97C183.306 185.715 185.028 199.778 163.86 189.446Z" fill="#000001"/>
<path d="M171.166 196.312L169.4 204.005L173.596 204.968L175.362 197.276L171.166 196.312Z" fill="#000001"/>
<path d="M179.832 151.153L177.991 159.271L182.19 160.223L184.031 152.106L179.832 151.153Z" fill="#000001"/>
<path d="M125.328 150.913C124.108 149.909 122.888 148.904 121.812 147.756C120.664 146.68 119.659 145.532 118.583 144.312C117.507 143.092 116.574 141.944 115.641 140.724C114.708 139.505 113.776 138.213 112.986 136.85C114.206 137.854 115.426 138.859 116.502 140.007C117.65 141.083 118.655 142.231 119.731 143.451C120.808 144.671 121.74 145.819 122.673 147.039C123.606 148.259 124.467 149.55 125.328 150.913Z" fill="#EA8383"/>
<path d="M160.631 132.329C160.703 130.392 160.631 128.526 160.56 126.661C160.488 124.795 160.416 122.858 160.416 120.992C160.416 119.126 160.344 117.189 160.416 115.323C160.488 113.458 160.488 111.52 160.703 109.583C161.134 111.449 161.421 113.314 161.564 115.252C161.779 117.117 161.851 119.055 161.923 120.992C161.995 122.929 161.923 124.795 161.779 126.732C161.564 128.598 161.205 130.463 160.631 132.329Z" fill="#EA8383"/>
<path d="M192.203 132.328C192.562 130.893 193.064 129.53 193.638 128.167C194.212 126.803 194.786 125.44 195.432 124.148C196.078 122.857 196.795 121.565 197.513 120.274C198.23 118.982 199.092 117.762 199.953 116.614C199.594 118.049 199.092 119.413 198.518 120.776C197.943 122.139 197.369 123.431 196.724 124.794C196.078 126.158 195.36 127.377 194.643 128.669C193.925 129.889 193.136 131.109 192.203 132.328Z" fill="#EA8383"/>
<path d="M217.245 147.756C218.25 147.182 219.326 146.679 220.402 146.249C221.479 145.818 222.555 145.459 223.631 145.101C224.708 144.742 225.856 144.527 226.932 144.311C228.08 144.096 229.228 143.953 230.376 143.881C229.372 144.455 228.295 144.957 227.219 145.388C226.143 145.818 225.066 146.177 223.99 146.536C222.914 146.895 221.766 147.11 220.689 147.325C219.541 147.54 218.393 147.684 217.245 147.756Z" fill="#EA8383"/>
<path d="M265.895 74.4954C265.895 74.4954 275.94 103.269 276.084 103.843C276.227 104.417 258.217 115.395 258.217 115.395L253.194 88.7027C253.194 88.7027 237.193 97.3132 237.695 77.222C237.695 77.222 228.654 78.2266 229.156 77.2938C229.659 76.361 238.126 62.9429 243.005 57.2744C247.884 51.6058 273.5 57.4179 274.003 60.8621C274.505 64.3063 273.429 74.5671 265.895 74.4954Z" fill="#EA8383"/>
<path d="M262.881 72.4143C262.881 72.4143 265.751 60.7901 268.262 61.2206C270.774 61.6512 273.285 69.3289 265.823 74.4952L267.975 80.666C274.361 76.7913 278.451 69.9747 278.81 62.5122C279.599 49.6682 269.913 43.2103 248.243 45.5065C248.243 45.5065 260.369 33.667 249.104 29.0748C237.838 24.4825 227.362 46.511 230.089 51.6056C232.816 56.7001 238.484 59.355 244.799 59.9291C251.113 60.5031 254.198 60.1443 254.485 61.7947C254.772 63.445 253.05 71.5533 250.18 73.6341C247.31 75.715 237.48 77.2218 237.48 77.2218C237.48 77.2218 228.726 88.4155 227.004 95.7344C225.281 103.053 229.874 99.9679 229.874 99.9679C229.874 99.9679 227.721 102.766 233.82 102.982C239.919 103.197 259.723 89.4918 262.881 72.4143Z" fill="#A04040"/>
<path d="M250.539 77.7246C250.898 78.2986 250.97 79.0162 250.826 79.662C250.611 80.3795 250.18 80.9535 249.606 81.3841C249.032 81.7428 248.386 82.0299 247.741 82.0299C247.454 82.0299 247.095 82.0299 246.736 82.0299C246.449 81.9581 246.09 81.8863 245.803 81.7428C246.09 81.5993 246.377 81.4558 246.664 81.3123C246.951 81.1688 247.167 81.0253 247.454 80.9535C247.884 80.7383 248.386 80.4513 248.817 80.1642C249.606 79.662 250.252 78.7292 250.539 77.7246Z" fill="#000001"/>
<path d="M232.744 31.1553C231.883 33.5949 231.165 36.0346 230.519 38.4742C230.232 39.694 229.945 40.9138 229.802 42.2054C229.586 43.4252 229.515 44.6451 229.515 45.9366C229.515 48.3763 230.089 50.8877 231.667 52.6098C233.246 54.3319 235.757 55.3364 238.269 55.8387C236.977 55.9105 235.686 55.767 234.394 55.4082C233.102 55.0494 231.883 54.3319 230.878 53.4708C229.873 52.538 229.156 51.3182 228.725 49.9549C228.295 48.6633 228.08 47.3 228.08 45.9366C228.08 43.2817 228.582 40.6986 229.443 38.1872C230.232 35.7475 231.38 33.3797 232.744 31.1553Z" fill="#A04040"/>
<path d="M248.171 65.5267C247.023 66.316 245.947 66.8183 245.014 67.464C244.583 67.7511 244.153 68.1098 243.794 68.5404C243.435 69.0426 243.076 69.5449 242.789 70.0472C242.502 69.4014 242.502 68.6121 242.789 67.9663C243.076 67.3205 243.579 66.7465 244.153 66.316C244.727 65.8854 245.373 65.6702 246.09 65.5267C246.736 65.3114 247.454 65.3114 248.171 65.5267Z" fill="#000001"/>
<path d="M249.965 57.9918C248.602 58.1354 247.454 58.0636 246.306 58.2071C245.732 58.2789 245.229 58.4224 244.727 58.5659C244.153 58.7811 243.651 59.0682 243.148 59.4269C243.22 58.7094 243.579 58.0636 244.153 57.5613C244.727 57.1308 245.445 56.8438 246.162 56.772C246.88 56.7003 247.525 56.772 248.243 56.9873C248.817 57.2025 249.463 57.4896 249.965 57.9918Z" fill="#000001"/>
<path d="M262.522 75.643C262.522 75.643 270.845 73.7774 270.271 65.3822C269.697 56.987 265.033 64.5211 263.742 66.4585C262.45 68.3959 262.522 75.643 262.522 75.643Z" fill="#EA8383"/>
<path d="M295.601 227.762C293.879 147.326 278.81 106.067 278.81 106.067C278.81 106.067 276.873 86.048 273.859 86.4785C270.846 86.9091 252.118 98.8202 251.902 101.834C251.759 104.345 249.822 113.96 251.544 117.118L248.458 126.23C245.373 132.832 241.57 142.949 237.767 158.161C229.73 190.522 202.966 207.887 200.957 208.676C198.948 209.465 204.473 227.762 204.473 227.762C213.514 225.395 222.196 222.022 230.448 217.645L229.228 227.26L295.601 227.762Z" fill="#E1C692"/>
<mask id="mask0_231_203" style="mask-type:luminance" maskUnits="userSpaceOnUse" x="200" y="86" width="96" height="142">
<path d="M295.601 227.69C293.879 147.254 278.81 105.995 278.81 105.995C278.81 105.995 276.873 85.9757 273.859 86.4063C270.846 86.8368 252.189 98.6762 251.974 101.762C251.831 104.273 249.893 113.888 251.615 117.045L248.53 126.158C245.445 132.759 241.642 142.949 237.839 158.089C229.802 190.45 203.038 207.814 201.029 208.604C199.02 209.393 204.545 227.69 204.545 227.69C213.586 225.322 222.268 221.95 230.52 217.573L229.3 227.26L295.601 227.69Z" fill="white"/>
</mask>
<g mask="url(#mask0_231_203)">
<path d="M330.115 263.783H330.043L108.609 194.109C108.394 194.037 108.322 193.894 108.394 193.679C108.466 193.463 108.681 193.392 108.825 193.463L330.186 263.137C330.402 263.137 330.545 263.352 330.473 263.567C330.473 263.711 330.258 263.854 330.115 263.783Z" fill="#F2EBEB"/>
<path d="M334.563 248.14H334.492L112.341 182.629C112.125 182.557 112.054 182.342 112.054 182.198C112.125 181.983 112.341 181.911 112.484 181.911L334.563 247.423C334.779 247.494 334.85 247.71 334.779 247.853C334.85 247.997 334.707 248.14 334.563 248.14Z" fill="#F2EBEB"/>
<path d="M338.725 233.574H338.653L116 169.856C115.785 169.784 115.713 169.569 115.713 169.426C115.785 169.21 116 169.139 116.143 169.139L338.797 232.856C339.012 232.928 339.084 233.143 339.012 233.287C339.012 233.43 338.868 233.574 338.725 233.574Z" fill="#F2EBEB"/>
<path d="M342.672 219.797H342.6L119.444 157.442C119.229 157.37 119.157 157.227 119.229 157.012C119.301 156.796 119.444 156.725 119.66 156.725L342.815 219.079C343.03 219.079 343.174 219.294 343.102 219.51C343.03 219.725 342.887 219.797 342.672 219.797Z" fill="#F2EBEB"/>
<path d="M346.977 204.872H346.905L122.601 146.967C122.386 146.895 122.314 146.751 122.314 146.536C122.386 146.321 122.53 146.249 122.745 146.249L347.049 204.155C347.264 204.226 347.336 204.37 347.336 204.585C347.264 204.729 347.12 204.872 346.977 204.872Z" fill="#F2EBEB"/>
<path d="M350.636 192.244H350.492L125.83 135.773C125.615 135.701 125.543 135.558 125.543 135.343C125.543 135.127 125.758 135.056 125.973 135.056L350.636 191.526C350.851 191.598 350.923 191.741 350.923 191.957C350.923 192.1 350.779 192.244 350.636 192.244Z" fill="#F2EBEB"/>
<path d="M352.933 184.206H352.861L127.912 128.525C127.696 128.453 127.625 128.31 127.625 128.095C127.696 127.879 127.84 127.808 128.055 127.808L353.004 183.489C353.22 183.489 353.363 183.704 353.291 183.919C353.22 184.135 353.076 184.206 352.933 184.206Z" fill="#F2EBEB"/>
<path d="M354.869 177.318H354.798L130.494 119.413C130.279 119.341 130.207 119.198 130.207 118.982C130.279 118.767 130.422 118.695 130.638 118.695L354.941 176.601C355.156 176.601 355.3 176.816 355.228 177.031C355.156 177.247 355.085 177.318 354.869 177.318Z" fill="#F2EBEB"/>
<path d="M151.16 261.2H151.088C150.873 261.128 150.801 260.912 150.873 260.769L204.545 73.1318C204.616 72.9165 204.832 72.8448 204.975 72.9166C205.191 72.9883 205.262 73.2036 205.191 73.3471L151.518 260.913C151.518 261.128 151.375 261.2 151.16 261.2Z" fill="#F2EBEB"/>
<path d="M194.356 283.3H194.284C194.069 283.228 193.997 283.013 194.069 282.869L267.258 48.4482C267.33 48.233 267.545 48.1612 267.689 48.233C267.904 48.3047 267.976 48.52 267.976 48.6635L194.715 283.084C194.643 283.228 194.571 283.3 194.356 283.3Z" fill="#F2EBEB"/>
<path d="M183.162 279.568H183.09C182.875 279.497 182.803 279.281 182.875 279.138L252.046 44.0713C252.118 43.856 252.261 43.7843 252.477 43.856C252.692 43.9278 252.764 44.143 252.692 44.2865L183.521 279.353C183.449 279.497 183.306 279.568 183.162 279.568Z" fill="#F2EBEB"/>
<path d="M170.677 276.052H170.605C170.39 275.98 170.318 275.837 170.318 275.622L237.695 40.0527C237.767 39.8375 237.982 39.7657 238.126 39.8375C238.341 39.9092 238.413 40.0527 238.341 40.268L170.964 275.837C170.964 275.909 170.82 276.052 170.677 276.052Z" fill="#F2EBEB"/>
<path d="M158.407 272.679H158.335C158.12 272.608 158.048 272.464 158.12 272.249L224.205 36.1777C224.277 35.9625 224.492 35.8907 224.636 35.9625C224.851 36.0342 224.923 36.2495 224.923 36.393L158.837 272.464C158.765 272.536 158.622 272.679 158.407 272.679Z" fill="#F2EBEB"/>
<path d="M148.218 269.594H148.146C147.931 269.522 147.859 269.379 147.859 269.164L209.567 31.9442C209.639 31.729 209.783 31.6572 209.998 31.6572C210.213 31.729 210.285 31.8725 210.285 32.0878L148.576 269.307C148.505 269.522 148.361 269.594 148.218 269.594Z" fill="#F2EBEB"/>
<path d="M323.585 165.048H323.441L141.329 106.64C141.114 106.569 141.042 106.353 141.114 106.21C141.186 105.995 141.401 105.923 141.544 105.923L323.656 164.331C323.872 164.331 324.015 164.546 323.943 164.761C323.943 164.905 323.8 165.048 323.585 165.048Z" fill="#F2EBEB"/>
<path d="M328.034 149.406H327.962L145.061 95.0878C144.845 95.016 144.774 94.8007 144.845 94.6572C144.845 94.442 145.061 94.2985 145.276 94.3702H145.348L328.249 148.688C328.464 148.76 328.536 148.975 328.464 149.119C328.392 149.262 328.249 149.406 328.034 149.406Z" fill="#F2EBEB"/>
<path d="M332.196 134.84H332.124L148.72 82.3162C148.505 82.2445 148.433 82.0292 148.505 81.8857C148.577 81.6705 148.72 81.5987 148.935 81.6705L332.339 134.123C332.554 134.195 332.626 134.41 332.554 134.553C332.483 134.769 332.339 134.84 332.196 134.84Z" fill="#F2EBEB"/>
<path d="M336.142 120.992H336.07L152.164 69.8308C151.949 69.7591 151.877 69.6156 151.949 69.4003C152.021 69.185 152.164 69.1133 152.379 69.1133L336.285 120.274C336.501 120.274 336.644 120.489 336.572 120.705C336.501 120.92 336.357 121.063 336.142 120.992Z" fill="#F2EBEB"/>
<path d="M340.447 106.138H340.375L155.321 59.4978C155.106 59.4261 155.034 59.2826 155.034 59.0673C155.106 58.852 155.249 58.7803 155.465 58.7803L340.59 105.42C340.806 105.42 340.949 105.636 340.877 105.851C340.806 106.066 340.662 106.138 340.447 106.138Z" fill="#F2EBEB"/>
<path d="M344.106 93.4378L158.55 48.1609C158.335 48.0891 158.263 47.9456 158.263 47.7304C158.335 47.5151 158.478 47.4434 158.694 47.4434L344.178 92.7202C344.394 92.7202 344.537 92.9355 344.465 93.1508C344.393 93.366 344.322 93.5095 344.106 93.4378Z" fill="#F2EBEB"/>
<path d="M283.259 313.58H283.187C282.972 313.508 282.9 313.293 282.972 313.149L356.233 78.7285C356.305 78.5132 356.448 78.4415 356.664 78.5132C356.879 78.585 356.951 78.7285 356.879 78.9438L283.546 313.293C283.546 313.508 283.403 313.58 283.259 313.58Z" fill="#F2EBEB"/>
<path d="M271.994 309.849H271.922C271.707 309.777 271.635 309.562 271.707 309.418L340.878 74.3515C340.949 74.1363 341.165 74.0645 341.308 74.1363C341.523 74.208 341.595 74.3515 341.523 74.5668L272.281 309.633C272.281 309.777 272.137 309.849 271.994 309.849Z" fill="#F2EBEB"/>
<path d="M259.508 306.332H259.437C259.221 306.261 259.149 306.045 259.221 305.902L326.598 70.3329C326.67 70.1176 326.814 70.0459 327.029 70.0459C327.244 70.1177 327.316 70.2612 327.244 70.4764L259.867 306.045C259.795 306.189 259.652 306.332 259.508 306.332Z" fill="#F2EBEB"/>
<path d="M247.31 302.888H247.166C246.951 302.817 246.879 302.601 246.879 302.458L312.965 66.3867C313.037 66.1714 313.252 66.0997 313.396 66.1714C313.611 66.2432 313.683 66.3867 313.611 66.602L247.525 302.673C247.597 302.817 247.453 302.888 247.31 302.888Z" fill="#F2EBEB"/>
<path d="M237.049 299.874H236.977C236.762 299.803 236.69 299.659 236.69 299.444L298.399 62.2245C298.471 62.0092 298.614 61.9375 298.83 61.9375C299.045 61.9375 299.117 62.1528 299.117 62.368L237.408 299.587C237.408 299.803 237.264 299.874 237.049 299.874Z" fill="#F2EBEB"/>
<path d="M226.071 296.645H225.999C225.784 296.573 225.712 296.43 225.712 296.215L286.057 58.6366C286.129 58.4214 286.272 58.3496 286.488 58.3496C286.703 58.3496 286.775 58.5649 286.775 58.7801L226.429 296.358C226.358 296.573 226.214 296.645 226.071 296.645Z" fill="#F2EBEB"/>
<path d="M219.039 294.636H218.967C218.752 294.565 218.68 294.421 218.68 294.206L278.236 56.3407C278.308 56.1255 278.451 56.0537 278.667 56.0537C278.882 56.1255 278.954 56.269 278.954 56.4842L219.398 294.278C219.326 294.565 219.182 294.636 219.039 294.636Z" fill="#F2EBEB"/>
<path d="M210.07 292.125H209.998C209.783 292.054 209.711 291.91 209.711 291.695L271.42 54.4755C271.491 54.2602 271.635 54.1885 271.85 54.1885C272.065 54.1885 272.137 54.4037 272.137 54.619L210.428 291.838C210.428 291.982 210.285 292.125 210.07 292.125Z" fill="#F2EBEB"/>
</g>
<path d="M203.54 224.461C203.54 224.461 183.521 228.264 179.502 229.054C175.484 229.843 158.55 222.165 160.057 222.093C161.564 222.022 184.238 218.291 184.238 218.291C184.238 218.291 171.179 212.191 180.292 212.191C182.803 212.191 200.742 212.191 200.742 212.191L203.54 224.461Z" fill="#EA8383"/>
<path d="M204.544 227.763C209.567 226.256 214.447 224.534 219.254 222.525C224.062 220.587 228.726 218.291 233.318 215.78C237.838 213.268 242.215 210.398 246.305 207.241C250.395 204.084 254.127 200.424 257.284 196.406C258.862 194.397 260.297 192.244 261.589 190.02C262.809 187.796 263.885 185.428 264.89 182.988C266.899 178.252 268.621 173.301 270.271 168.35C271.922 163.399 273.428 158.448 274.792 153.425C276.155 148.402 277.59 143.38 278.81 138.285C277.877 143.38 276.657 148.474 275.438 153.569C274.218 158.663 272.783 163.686 271.276 168.709C269.769 173.732 268.047 178.683 266.038 183.49C265.033 185.93 263.957 188.298 262.737 190.666C261.445 192.962 260.01 195.186 258.36 197.267C255.059 201.357 251.256 205.088 247.023 208.245C242.861 211.474 238.412 214.273 233.748 216.712C224.564 221.592 214.662 225.251 204.544 227.763Z" fill="#000001"/>
<path d="M80.3383 157.657L102.295 189.229L125.974 181.623L128.055 197.553C128.055 197.553 97.7746 207.813 87.9443 205.374C78.114 202.934 65.1265 171.291 65.1265 171.291L80.3383 157.657Z" fill="#000001"/>
<path d="M155.967 169.784C157.761 167.631 152.092 167.99 152.092 167.99C158.263 165.12 163.645 161.388 161.636 160.097C159.627 158.805 152.451 162.967 154.245 161.891C156.039 160.814 160.129 156.653 157.546 156.079C154.963 155.505 132.934 160.24 132.934 160.24L139.966 151.63C139.966 151.63 122.171 167.344 120.234 168.42C118.296 169.497 113.058 172.08 113.058 172.08L123.175 179.614C123.175 179.614 132.647 181.48 140.109 179.901C139.966 179.829 152.882 173.443 155.967 169.784Z" fill="#EA8383"/>
<path d="M141.975 167.417C143.195 166.699 144.415 166.053 145.635 165.479C146.854 164.905 148.074 164.259 149.294 163.685C150.514 163.111 151.734 162.537 152.953 161.963C154.173 161.389 155.393 160.743 156.469 159.954C155.68 161.174 154.676 162.178 153.528 162.896C152.379 163.685 151.16 164.403 149.868 164.977C148.576 165.551 147.285 166.053 145.993 166.484C144.702 166.914 143.338 167.273 141.975 167.417Z" fill="#000001"/>
<path d="M143.41 173.228C144.558 172.295 145.778 171.434 147.07 170.573C148.289 169.783 149.581 168.994 150.873 168.277C153.456 166.841 156.111 165.478 158.837 164.187C157.761 165.263 156.613 166.267 155.393 167.057C154.173 167.918 152.882 168.707 151.59 169.496C150.299 170.286 148.935 170.931 147.572 171.577C146.28 172.223 144.845 172.797 143.41 173.228Z" fill="#000001"/>
<path d="M101.219 255.673L80.984 171.29C80.984 171.29 88.59 161.245 90.2403 157.729C91.8907 154.213 62.7585 120.417 52.4976 116.973C42.2368 113.528 31.6889 116.112 30.6126 133.763C29.5363 151.271 43.7436 197.481 43.7436 197.481L24.0112 254.525C24.0112 254.525 67.6378 260.983 101.219 255.673Z" fill="#F2EBEB"/>
<path d="M118.798 168.276C118.798 168.276 77.8983 186.933 77.6831 186.933C77.4678 186.933 56.2286 139.934 56.2286 139.934C56.2286 139.934 34.7023 151.271 34.4153 153.639C34.1283 156.007 61.6101 207.239 69.9336 211.903C76.535 215.562 127.48 180.475 127.48 180.475L118.798 168.276Z" fill="#F2EBEB"/>
<path d="M52.0671 55.5511C52.0671 55.5511 41.6628 57.4168 35.7072 61.0045C29.8951 64.5204 27.2402 69.6867 28.2448 76.7186C29.3211 84.1093 30.3974 88.5581 36.353 92.5763C42.3086 96.5945 48.7665 98.3166 55.7984 91.213C62.8303 84.1093 58.812 66.8883 63.7631 63.7311C68.7141 60.5739 68.1401 52.681 64.4089 51.6764C60.6776 50.6719 60.3189 50.3131 52.0671 55.5511Z" fill="#A04040"/>
<path d="M59.8885 130.031C60.7495 130.749 61.9693 130.677 62.6869 129.816C63.0457 129.386 63.2609 128.74 63.1174 128.166C61.8258 120.201 59.8167 105.778 62.3999 102.119C64.983 98.4595 76.6072 83.6064 76.6072 83.6064C76.6072 83.6064 84.8589 81.669 84.7872 79.9469C84.7154 78.2248 75.8179 72.2692 71.5126 68.4662C67.2074 64.6633 59.3862 60.7168 59.3862 60.7168C59.9602 61.4343 60.8213 68.1792 57.8794 74.0631C56.0855 77.6508 50.4887 81.2385 50.4887 81.2385C50.4887 81.2385 50.4169 72.1975 44.8918 76.718C39.3668 81.2385 49.1253 86.9071 48.6231 88.4139C47.5468 91.4993 47.1162 113.026 46.3269 117.116C46.2552 117.761 55.655 126.515 59.8885 130.031Z" fill="#EA8383"/>
<path d="M61.8257 73.8488C62.328 73.4901 62.902 73.3466 63.4043 73.4183C63.9783 73.4901 64.5523 73.6336 64.9829 73.9924C65.4134 74.2794 65.8439 74.7099 66.1309 75.1404C66.418 75.571 66.6332 76.145 66.6332 76.719C65.7722 76.2885 64.9829 75.7862 64.1936 75.2122C63.8348 74.9969 63.476 74.7817 63.1173 74.5664C62.7585 74.3511 62.328 74.0641 61.8257 73.8488Z" fill="#000001"/>
<path d="M59.6734 78.3686C59.4581 78.225 59.3146 77.938 59.3863 77.7228C59.3863 77.5075 59.4581 77.364 59.6016 77.2205C59.7451 77.077 59.8886 77.0052 60.1039 77.077C60.3191 77.077 60.6062 77.2205 60.7497 77.364C60.7497 77.5793 60.7497 77.7945 60.7497 78.0098C60.7497 78.1533 60.6779 78.2251 60.6062 78.2968C60.5344 78.3686 60.3909 78.3686 60.3191 78.3686C60.0321 78.2968 59.8169 78.2968 59.6734 78.3686Z" fill="#000001"/>
<path d="M61.8256 79.1578C61.6103 79.0143 61.5386 78.799 61.4668 78.512C61.4668 78.2967 61.4668 78.1532 61.6103 77.938C61.7538 77.7944 61.8973 77.6509 62.1126 77.6509C62.3996 77.5792 62.6149 77.6509 62.8301 77.8662C62.8301 78.0815 62.8301 78.2967 62.8301 78.512C62.8301 78.5837 62.8301 78.7272 62.7584 78.799C62.6866 78.8708 62.6149 78.9425 62.4714 79.0143C62.1843 79.0143 61.9691 79.086 61.8256 79.1578Z" fill="#000001"/>
<path d="M62.615 86.9796C62.615 86.9796 64.1219 85.7598 65.4134 86.9796C66.705 88.1995 63.4761 91.5002 61.1799 90.3521C58.8838 89.204 62.615 86.9796 62.615 86.9796Z" fill="#A04040"/>
<path d="M62.7585 84.6836C62.8302 85.3294 62.9737 85.9034 63.1173 86.4774C63.2608 86.9797 63.476 87.482 63.763 87.9125C64.0501 88.3431 64.4088 88.7736 64.8394 89.1324C65.0546 89.3476 65.2699 89.4911 65.5569 89.7064C65.8439 89.9216 66.0592 90.1369 66.2744 90.3522C65.9157 90.4239 65.5569 90.4239 65.2699 90.3522C64.9111 90.2804 64.6241 90.2087 64.2653 90.0652C63.6195 89.7781 63.0455 89.2759 62.615 88.7018C62.1845 88.056 61.9692 87.3385 62.0409 86.621C62.0409 85.9034 62.2562 85.2576 62.7585 84.6836Z" fill="#000001"/>
<path d="M32.2629 89.3477C31.7606 90.2805 31.4018 91.285 31.043 92.3613C30.8995 92.8636 30.8278 93.3659 30.8278 93.8682C30.8278 94.2269 30.9713 94.5857 31.2583 94.8727C31.6171 95.0162 32.0476 95.088 32.4781 95.088C32.9804 95.088 33.5544 95.0162 34.1285 95.0162C34.7025 95.0162 35.2765 95.0162 35.8506 95.088C36.4964 95.1597 37.2139 95.375 37.7162 95.8055C38.0032 96.0925 38.2902 96.3796 38.362 96.8101C38.4337 96.9536 38.4337 97.1689 38.5055 97.3124C38.5055 97.4559 38.5055 97.6711 38.5772 97.8147C38.5772 98.3887 38.5055 98.9627 38.4337 99.5367C38.4337 99.6803 38.4337 99.8238 38.4337 99.9673C38.4337 99.9673 38.4337 100.039 38.5772 100.039C39.0795 100.111 39.51 100.111 40.0123 99.9673C40.2993 99.9673 40.5863 99.8955 40.8734 99.8955C41.2321 99.8955 41.5909 99.9673 41.8779 100.111C42.0932 100.183 42.2367 100.398 42.3802 100.613C42.452 100.828 42.5237 100.972 42.5237 101.187C42.5237 101.474 42.452 101.761 42.3802 102.048C42.1649 103.124 41.7344 104.201 41.1604 105.134C41.4474 104.057 41.5909 102.981 41.5909 101.905C41.5909 101.689 41.5909 101.402 41.5909 101.187C41.5191 100.972 41.5191 100.972 41.3756 100.9C40.9451 100.828 40.5146 100.9 40.0841 101.044C39.51 101.187 38.8642 101.259 38.2902 101.187C37.7879 101.115 37.3574 100.828 37.1421 100.398C36.9986 100.039 36.9269 99.6085 36.9986 99.2497C37.0704 98.7475 37.1421 98.2452 37.1421 97.7429C37.1421 97.3841 37.0704 97.0253 36.7834 96.8101C36.4246 96.5948 36.0658 96.4513 35.6353 96.3796C35.133 96.3078 34.6307 96.3078 34.1285 96.2361C33.6262 96.2361 33.0522 96.2361 32.5499 96.2361C31.9041 96.2361 31.1865 96.0925 30.6125 95.7338C30.0385 95.2315 29.7515 94.514 29.895 93.7964C29.9667 93.1506 30.182 92.5766 30.3973 92.0026C30.9713 91.0698 31.5453 90.137 32.2629 89.3477Z" fill="#F2EBEB"/>
<path d="M30.9714 98.9623C30.9714 98.9623 -5.69502 121.852 0.762854 138.212C7.22073 154.572 31.4736 127.377 34.1285 100.254C34.1285 100.326 32.9805 97.6707 30.9714 98.9623Z" fill="#A04040"/>
<path d="M61.5386 70.9066C61.8973 70.3325 62.3279 69.8302 62.9019 69.4715C63.4759 69.1127 64.1217 68.8974 64.8393 68.8257C65.5568 68.7539 66.2743 68.8257 66.9201 69.1127C67.5659 69.3997 68.14 69.8302 68.4987 70.476C67.7812 70.4043 67.2789 70.2608 66.7049 70.2608C66.1308 70.2608 65.6286 70.2608 65.1263 70.3325C63.9782 70.3325 62.9019 70.6195 61.5386 70.9066Z" fill="#000001"/>
<path d="M125.974 181.624C121.741 184.71 117.435 187.58 113.13 190.522C108.825 193.464 104.376 196.19 99.999 198.917C95.622 201.644 91.0297 204.227 86.4375 206.667C84.1413 207.886 81.7734 209.034 79.4056 210.111C78.1857 210.613 76.9659 211.115 75.7461 211.546C75.1003 211.761 74.4545 211.976 73.8087 212.12C73.5217 212.192 73.1629 212.263 72.8042 212.335C72.4454 212.407 72.1584 212.479 71.7996 212.479C71.0821 212.622 70.3645 212.622 69.647 212.479C68.9294 212.335 68.2837 211.976 67.6379 211.618C66.4898 210.828 65.4852 209.967 64.6242 208.963C62.8303 207.025 61.2517 204.944 59.7449 202.792C56.803 198.487 54.0763 194.038 51.6367 189.446C49.1253 184.853 46.7574 180.261 44.4613 175.597C42.1651 170.933 40.0125 166.197 37.9316 161.39C40.2995 166.054 42.5957 170.646 45.1071 175.238C47.6185 179.83 49.9863 184.423 52.6412 188.872C55.2962 193.32 57.8793 197.841 60.893 202.003C62.3281 204.083 63.9784 206.092 65.7005 208.03C66.5616 208.963 67.4944 209.752 68.4989 210.47C69.0012 210.757 69.5035 211.044 70.0775 211.187C70.6515 211.259 71.2256 211.259 71.7996 211.187C72.0866 211.187 72.3736 211.115 72.7324 211.044C73.0194 210.972 73.3782 210.9 73.6652 210.828C74.311 210.613 74.885 210.47 75.4591 210.254C76.6789 209.824 77.827 209.393 79.0468 208.891C81.4147 207.886 83.7108 206.738 86.0787 205.59C90.671 203.222 95.1915 200.639 99.712 198.056C104.232 195.473 108.61 192.746 113.058 190.02C117.507 187.293 121.597 184.423 125.974 181.624Z" fill="#000001"/>
<path d="M97.4159 177.893C95.6938 178.754 93.9717 179.543 92.2496 180.333C90.5275 181.122 88.8054 181.983 87.0833 182.701L81.8452 184.997L76.6072 187.293L76.0332 187.58L75.8179 186.934L66.4898 163.183C64.9113 159.237 63.3327 155.29 61.7541 151.344C60.9648 149.407 60.1037 147.397 59.2427 145.46C58.8122 144.456 58.3816 143.523 57.8793 142.59C57.4488 141.657 56.8748 140.724 56.229 139.863C56.6595 140.222 56.9465 140.653 57.3053 141.083C57.5923 141.514 57.8793 141.944 58.1664 142.446C58.7404 143.379 59.2427 144.312 59.745 145.245C60.7495 147.11 61.6823 149.048 62.6151 150.985C64.409 154.86 66.1311 158.735 67.7814 162.681C69.4318 166.628 71.0104 170.574 72.5172 174.521C74.024 178.467 75.5309 182.485 77.0377 186.503L76.2484 186.145L81.5582 183.992L86.868 181.911C88.6619 181.194 90.384 180.548 92.1778 179.83C93.9717 179.113 95.622 178.467 97.4159 177.893Z" fill="#000001"/>
<path d="M109.973 18.3115C113.345 17.9527 116.718 17.9527 120.018 18.3833C123.391 18.742 126.691 19.5313 129.849 20.6076C131.427 21.1817 133.006 21.8275 134.513 22.6168C136.019 23.406 137.455 24.2671 138.89 25.1999C141.688 27.1373 144.199 29.4334 146.352 32.0883C148.505 34.7432 150.37 37.6134 151.805 40.6988C153.24 43.7842 154.317 47.0132 155.034 50.3139C155.752 53.6146 156.111 57.0588 156.039 60.4312C155.967 62.1533 155.824 63.8754 155.465 65.5258C155.178 67.2479 154.604 68.8982 153.743 70.4768C153.312 71.2661 152.738 71.9836 152.021 72.6294C151.303 73.2752 150.37 73.7057 149.366 73.7775C148.792 73.8492 148.289 73.7775 147.787 73.5622C147.213 73.2752 146.783 72.7729 146.639 72.1989C146.424 71.2661 146.496 70.2615 146.854 69.3287C147.428 67.6784 148.361 66.0998 149.437 64.7365C150.514 63.3731 151.877 62.1533 153.456 61.364C154.317 60.9335 155.25 60.7182 156.182 60.7182C156.685 60.7182 157.187 60.79 157.617 60.9335C158.048 61.077 158.478 61.364 158.909 61.651C160.272 62.8708 161.205 64.4494 161.707 66.1715C162.21 67.8219 162.568 69.4722 162.784 71.1226C163.071 72.7729 163.43 74.3515 163.86 76.0019C164.721 79.2308 166.084 82.2445 167.878 84.9711C169.672 87.6978 172.255 89.9939 175.412 90.855C176.991 91.2855 178.641 91.2855 180.22 90.9267C181.799 90.568 183.377 89.9222 184.741 88.9894C187.539 87.1238 189.979 84.8276 191.988 82.1727C190.05 84.9711 187.682 87.339 184.884 89.2764C183.449 90.2809 181.942 90.9985 180.292 91.429C178.641 91.8595 176.848 91.9313 175.197 91.5008C173.547 91.0702 171.968 90.2809 170.605 89.2046C169.242 88.1283 168.094 86.8367 167.089 85.4734C165.152 82.675 163.717 79.5178 162.784 76.2889C162.281 74.6385 161.851 72.9882 161.564 71.3378L161.133 68.8982C160.99 68.1089 160.775 67.3196 160.488 66.5303C160.057 65.0235 159.268 63.6601 158.12 62.5838C157.546 62.1533 156.9 61.938 156.182 61.938C155.465 61.938 154.747 62.1533 154.101 62.5121C152.738 63.3014 151.518 64.3059 150.514 65.5975C149.509 66.8173 148.72 68.2524 148.146 69.7592C147.859 70.405 147.859 71.1226 147.931 71.8401C148.002 72.0554 148.146 72.2706 148.361 72.3424C148.648 72.4859 148.935 72.4859 149.222 72.4141C150.586 72.3424 151.662 71.1226 152.451 69.7592C153.24 68.3242 153.743 66.8173 154.03 65.2387C154.317 63.6601 154.532 62.0098 154.604 60.3595C154.676 57.0588 154.388 53.7581 153.743 50.5291C152.379 43.9995 149.581 37.9004 145.491 32.7341C143.41 30.1509 141.042 27.8548 138.316 25.9174C136.952 24.9846 135.517 24.1236 134.082 23.3343C132.575 22.545 131.068 21.8992 129.562 21.3252C123.391 18.8855 116.718 17.881 109.973 18.3115Z" fill="#E1C692"/>
</svg>
