<svg  viewBox="0 0 400 400" fill="none" xmlns="http://www.w3.org/2000/svg">
<rect width="400" height="400" rx="30" fill="#F5F5F5"/>
<path d="M99.3953 251.428L78.8475 258.888C78.8475 258.888 86.6308 318.333 99.3953 322.976C111.381 327.315 155.824 286.593 155.824 286.593L138.779 232.704L106.322 267.565L99.3953 251.428Z" fill="#000001"/>
<path d="M218.245 203.932C218.245 203.932 243.852 202.562 245.175 210.326C246.499 218.089 230.854 330.587 230.854 330.587L158.937 334.088C158.937 334.088 128.427 245.643 137.144 234.454C145.861 223.265 180.03 211.848 180.03 211.848L218.245 203.932Z" fill="#000001"/>
<path d="M187.891 149.435C187.891 149.435 178.24 173.107 179.174 173.639C180.108 174.172 183.143 173.563 183.143 173.563C183.143 173.563 178.006 190.232 180.263 213.447C180.263 213.447 205.715 213.219 218.246 203.933C218.246 203.933 223.227 144.107 218.246 141.824C213.264 139.54 187.891 149.435 187.891 149.435Z" fill="#A04040"/>
<path d="M214.354 158.035C214.354 158.035 210.229 169.757 211.318 172.04C212.408 174.324 220.269 168.92 220.269 168.92C220.269 168.92 224.861 141.671 222.293 138.017C219.724 134.364 160.649 149.434 165.241 152.022C169.834 154.61 187.891 149.434 187.891 149.434L206.103 149.891C206.103 149.891 209.372 156.437 214.354 158.035Z" fill="#E1C692"/>
<path d="M219.802 169.147C219.802 169.147 229.22 166.026 227.274 157.958C225.328 149.89 216.3 164.656 216.3 164.656L219.802 169.147Z" fill="#A04040"/>
<path d="M190.459 212.76L199.644 223.34L218.246 203.931L180.03 211.847L169.834 224.101L190.459 212.76Z" fill="#F2EBEB"/>
<path d="M203.068 162.906C203.068 162.906 194.974 158.872 191.082 165.571C190.771 166.027 191.004 166.712 191.471 166.941L191.549 167.017C194.04 167.93 200.422 169.376 203.068 162.906Z" fill="#F2EBEB"/>
<path d="M203.457 162.906C202.29 162.525 201.044 162.297 199.877 162.145C198.709 161.992 197.464 161.992 196.297 162.221C195.129 162.449 194.04 162.906 193.028 163.591C192.016 164.352 191.238 165.265 190.693 166.331C191.004 165.113 191.705 163.971 192.639 163.134C193.65 162.297 194.818 161.688 196.141 161.46C197.386 161.231 198.709 161.231 199.955 161.536C201.2 161.84 202.368 162.297 203.457 162.906Z" fill="#000001"/>
<path d="M194.896 162.221C194.896 162.221 197.231 163.134 195.752 167.854C195.752 167.854 190.07 167.701 190.848 166.103C190.771 166.027 192.872 162.069 194.896 162.221Z" fill="#000001"/>
<path d="M200.967 175.008C201.2 175.617 201.2 176.226 200.967 176.835C200.733 177.443 200.266 177.976 199.644 178.281C199.099 178.585 198.398 178.661 197.776 178.585C197.464 178.509 197.153 178.433 196.919 178.357C196.608 178.205 196.375 178.052 196.141 177.9C196.375 177.748 196.686 177.672 196.997 177.596C197.231 177.52 197.464 177.443 197.776 177.367C198.165 177.215 198.632 177.063 199.021 176.911C199.721 176.454 200.422 175.769 200.967 175.008Z" fill="#000001"/>
<path d="M204.78 159.176C202.523 158.947 200.422 158.719 198.243 158.567C197.153 158.491 196.063 158.415 195.051 158.338C194.04 158.262 192.872 158.262 191.705 158.11C192.716 157.653 193.806 157.273 194.974 157.121C196.063 156.968 197.231 156.892 198.398 156.968C199.566 157.044 200.655 157.273 201.745 157.577C202.835 158.034 203.846 158.567 204.78 159.176Z" fill="#000001"/>
<path d="M190.459 212.76C188.903 215.119 187.502 217.555 186.334 220.067C185.167 222.579 184.155 225.166 183.221 227.754C182.754 229.048 182.365 230.418 181.976 231.712C181.82 232.397 181.587 233.006 181.431 233.691C181.275 234.376 181.12 235.061 180.886 235.67C180.653 236.279 180.575 237.04 180.419 237.725L179.952 239.78C179.641 241.151 179.407 242.521 179.096 243.891C179.096 242.444 179.096 241.074 179.252 239.704C179.407 238.334 179.485 236.888 179.796 235.518C180.263 232.702 180.964 229.962 181.82 227.298C182.754 224.634 183.922 221.97 185.323 219.534C186.646 217.022 188.436 214.739 190.459 212.76Z" fill="#000001"/>
<path d="M99.3952 251.428C97.6051 246.1 98.3834 237.195 97.8386 231.791C97.3716 227.148 98.4612 217.862 95.7371 217.862C93.013 217.862 91.4563 228.898 91.4563 228.898C91.4563 228.898 78.3805 220.906 72.8544 216.035C67.3283 211.164 63.9036 208.576 67.8731 216.035C67.8731 216.035 62.5805 211.012 61.1795 211.392C59.7785 211.773 64.0593 218.623 64.0593 218.623C63.281 222.429 63.4366 226.387 64.4485 230.192C66.1608 235.977 77.8356 254.93 78.7696 258.888L99.3952 251.428Z" fill="#A04040"/>
<path d="M79.7816 237.192C78.3028 235.899 76.824 234.528 75.2674 233.387C74.489 232.778 73.7107 232.245 72.8546 231.788C72.0762 231.332 71.2979 231.027 70.3639 230.951H69.8191L69.6634 230.494C69.1964 229.353 68.8073 228.135 68.3403 226.993C67.8733 225.851 67.4063 224.634 66.8615 223.568C66.3945 222.426 65.694 221.437 64.8378 220.447C64.6822 220.219 64.4487 220.067 64.293 219.914C64.2152 219.914 64.293 219.838 64.1373 219.914C64.0595 219.914 64.0595 219.991 64.0595 220.067C64.0595 220.143 63.9817 220.219 63.9817 220.295C63.826 220.904 63.6703 221.513 63.5925 222.122C63.5147 221.437 63.4368 220.828 63.5147 220.143C63.5147 220.067 63.5147 219.991 63.5925 219.838C63.5925 219.762 63.6703 219.61 63.7482 219.534C63.826 219.382 63.9038 219.306 64.0595 219.229C64.2152 219.153 64.3708 219.153 64.5265 219.153C64.9156 219.229 65.227 219.458 65.5383 219.686C66.0831 220.143 66.5501 220.599 67.0171 221.132C67.4063 221.665 67.7954 222.198 68.1068 222.731C68.7294 223.872 69.3521 225.014 69.8191 226.232C70.3639 227.45 70.8309 228.592 71.2201 229.885L70.5196 229.353C71.6092 229.505 72.6989 229.885 73.6329 230.571C74.489 231.103 75.2674 231.788 76.0457 232.473C77.4467 233.92 78.7698 235.518 79.7816 237.192Z" fill="#000001"/>
<path d="M78.3028 223.493C76.6684 224.254 75.1117 224.711 73.6329 225.243C72.9324 225.472 72.1541 225.776 71.4536 226.157C70.7531 226.537 70.0526 226.918 69.4299 227.451C69.5856 226.537 70.0526 225.776 70.7531 225.167C71.4536 224.558 72.2319 224.102 73.0881 223.797C73.9442 223.493 74.8004 223.341 75.6565 223.264C76.5127 223.112 77.4467 223.264 78.3028 223.493Z" fill="#000001"/>
<path d="M337.796 238.259C337.796 238.259 349.082 241.456 353.596 242.597C358.11 243.739 352.117 247.164 343.4 244.576C334.683 241.988 337.796 238.259 337.796 238.259Z" fill="#000001"/>
<path d="M317.949 241.531C317.949 241.531 319.35 251.883 322.697 254.699C326.043 257.515 328.223 257.972 328.223 257.972C328.223 257.972 327.522 247.316 329.001 244.576C330.48 241.836 317.949 241.531 317.949 241.531Z" fill="#A04040"/>
<path d="M325.265 255.078C325.265 255.078 321.296 260.787 327.989 264.288C334.683 267.789 341.688 255.763 336.239 250.816C330.791 245.868 326.199 252.871 325.265 255.078Z" fill="#E1C692"/>
<path d="M324.876 229.201C324.876 229.201 340.442 239.4 338.963 244.728C337.484 250.056 331.725 258.277 330.324 257.516C328.923 256.754 331.102 247.697 331.102 247.697C331.102 247.697 324.253 248.077 323.475 250.132C322.696 252.188 314.213 257.744 314.213 257.744L304.873 238.867C304.873 238.867 319.35 227.907 324.876 229.201Z" fill="#A04040"/>
<path d="M322.385 232.779L326.744 230.42C326.744 230.42 341.221 238.031 342.855 239.706C344.49 241.38 347.214 256.375 345.501 256.679C343.789 256.984 336.94 245.262 336.94 245.262L322.385 232.779Z" fill="#A04040"/>
<path d="M331.491 257.059C333.282 254.7 334.994 252.188 336.551 249.6C337.329 248.382 337.952 247.012 338.419 245.642C338.652 245.033 338.73 244.348 338.808 243.663C338.808 243.054 338.652 242.445 338.341 241.913C337.64 240.695 336.706 239.553 335.694 238.564C334.683 237.498 333.593 236.508 332.425 235.443C330.168 233.464 327.833 231.561 325.498 229.582C328.223 231.028 330.791 232.703 333.204 234.529C334.449 235.443 335.617 236.432 336.706 237.498C337.874 238.564 338.886 239.781 339.664 241.151C339.897 241.532 340.053 241.913 340.131 242.369C340.287 242.826 340.287 243.283 340.287 243.663C340.287 244.5 340.053 245.338 339.82 246.099C339.275 247.545 338.496 248.915 337.64 250.209C335.85 252.721 333.749 255.004 331.491 257.059Z" fill="#000001"/>
<path d="M329.39 243.587C329.001 244.881 328.456 246.175 328.067 247.393C327.833 248.002 327.755 248.61 327.678 249.296C327.6 249.904 327.678 250.589 327.989 251.198C327.366 250.742 327.055 250.057 327.055 249.296C327.055 248.61 327.133 247.849 327.366 247.164C327.755 245.87 328.456 244.653 329.39 243.587Z" fill="#000001"/>
<path d="M231.944 261.169C231.944 261.169 246.421 305.696 260.275 311.861C274.129 318.027 314.213 257.744 314.213 257.744L304.873 238.867L271.016 260.408C271.016 260.408 252.803 209.563 242.451 206.899C232.1 204.235 231.944 261.169 231.944 261.169Z" fill="#000001"/>
<path d="M70.8308 169.834C70.8308 169.834 74.9559 172.27 78.0692 178.359C81.1825 184.448 98.9283 227.453 97.4495 231.791C95.9706 236.13 51.6062 247.623 48.6485 244.655C45.6909 241.686 70.8308 169.834 70.8308 169.834Z" fill="#000001"/>
<path d="M46.3914 243.437C46.3914 243.437 22.9638 187.949 25.1431 186.046C27.3224 184.143 66.55 169.453 70.8308 169.91C75.1116 170.367 95.2702 228.214 95.1145 230.116C94.9588 232.019 46.9362 249.45 46.3914 243.437Z" fill="#E1C692"/>
<path d="M36.3512 195.255C36.3512 195.255 67.562 184.599 69.3522 183.609C71.1423 182.62 72.0763 178.89 68.5738 177.824C65.0714 176.759 36.429 189.013 34.4054 189.927C32.3818 190.84 32.1483 195.483 36.3512 195.255Z" fill="#000001"/>
<path d="M40.6316 204.543C40.6316 204.543 40.7873 201.879 43.5114 202.564C45.6129 203.02 45.3015 206.141 44.2119 206.674C42.7331 207.283 40.8651 206.978 40.6316 204.543Z" fill="#F2EBEB"/>
<path d="M54.5635 199.595C54.5635 199.595 54.7192 196.931 57.3655 197.616C59.467 198.072 59.1557 201.193 58.066 201.726C56.7428 202.335 54.797 202.106 54.5635 199.595Z" fill="#F2EBEB"/>
<path d="M68.5737 194.648C68.5737 194.648 68.7294 191.984 71.4535 192.669C73.555 193.126 73.2437 196.247 72.154 196.779C70.753 197.388 68.8072 197.16 68.5737 194.648Z" fill="#F2EBEB"/>
<path d="M44.134 214.057C44.134 214.057 44.2897 211.393 47.0138 212.078C49.1153 212.535 48.804 215.656 47.7143 216.189C46.3133 216.798 44.3675 216.493 44.134 214.057Z" fill="#F2EBEB"/>
<path d="M58.1442 209.108C58.1442 209.108 58.2999 206.444 61.024 207.129C63.1255 207.586 62.8142 210.707 61.7245 211.239C60.2457 211.848 58.3777 211.544 58.1442 209.108Z" fill="#F2EBEB"/>
<path d="M72.0763 204.162C72.0763 204.162 72.232 201.498 74.9561 202.183C77.0576 202.64 76.7462 205.76 75.6566 206.293C74.2556 206.902 72.3098 206.674 72.0763 204.162Z" fill="#F2EBEB"/>
<path d="M47.6366 223.571C47.6366 222.429 48.6484 221.439 49.8159 221.439C50.0494 221.439 50.2829 221.439 50.5164 221.516C52.6179 221.972 52.3065 225.093 51.2169 225.626C49.8159 226.311 47.8701 226.006 47.6366 223.571Z" fill="#F2EBEB"/>
<path d="M61.6465 218.623C61.6465 217.482 62.5805 216.492 63.8259 216.492C64.0594 216.492 64.2929 216.492 64.5263 216.568C66.6278 217.025 66.3165 220.146 65.2268 220.678C63.748 221.364 61.88 221.059 61.6465 218.623Z" fill="#F2EBEB"/>
<path d="M51.1391 233.084C51.1391 231.943 52.1509 230.953 53.3184 230.953C53.5519 230.953 53.7854 230.953 53.9411 231.029C56.0425 231.486 55.7312 234.607 54.6416 235.139C53.3184 235.824 51.3726 235.52 51.1391 233.084Z" fill="#F2EBEB"/>
<path d="M65.1492 228.138C65.1492 228.138 65.3048 225.474 68.029 226.159C70.1304 226.616 69.8191 229.737 68.7295 230.27C67.2507 230.879 65.3827 230.574 65.1492 228.138Z" fill="#F2EBEB"/>
<path d="M83.4396 222.582L83.3618 222.506C83.3618 222.429 83.284 222.277 83.2061 222.201L79.8593 213.22C79.7815 213.067 79.7815 212.839 79.7037 212.687C79.4702 212.154 79.0032 211.849 78.4583 211.697C77.2909 211.317 76.1234 211.926 75.7342 213.067C75.6564 213.296 75.6564 213.524 75.6564 213.752C75.6564 214.057 75.7342 214.361 75.812 214.59L79.3145 224.028C79.8593 225.702 81.4938 225.855 82.6613 225.246C83.284 224.941 83.6731 223.647 83.4396 222.582Z" fill="#000001"/>
<path d="M58.8448 186.502L58.2999 185.97C58.7669 185.437 59.3117 184.828 59.7009 184.219C59.3896 183.458 59.4674 182.62 59.8566 181.859C60.0901 181.479 60.5571 181.327 60.9462 181.479C61.1797 181.555 61.4132 181.783 61.4911 182.088C61.4911 182.849 61.2576 183.686 60.7127 184.295C60.7906 184.371 61.0241 184.599 61.7246 184.143C61.9581 183.991 62.1137 183.838 62.3472 183.686C62.1915 183.534 62.1137 183.458 62.0359 183.306C61.7246 182.468 61.958 181.555 62.7364 181.022C63.1255 180.718 63.6704 180.794 63.9039 181.174C63.9039 181.174 63.9039 181.174 63.9817 181.25C64.293 182.012 64.1374 182.849 63.6704 183.458C63.7482 183.458 63.9039 183.458 63.9817 183.382C64.3709 183.306 64.76 183.077 64.9935 182.773C64.6822 181.935 64.76 181.022 65.3048 180.642C65.5383 180.489 65.7718 180.489 66.0053 180.642C66.3167 180.946 66.3945 181.403 66.2388 181.783C66.161 182.164 66.0053 182.468 65.8497 182.773C66.0832 183.153 66.3945 183.001 66.4723 183.001L66.7837 183.686C66.3167 183.914 65.694 183.838 65.3048 183.382C64.9935 183.686 64.5265 183.914 64.0595 184.067C63.6704 184.143 63.2812 184.219 62.9699 184.143C62.7364 184.371 62.425 184.599 62.1137 184.828C61.1019 185.513 60.4792 185.208 60.1679 184.904C59.6231 185.589 59.1561 186.198 58.8448 186.502ZM60.5571 182.24C60.5571 182.24 60.4792 182.24 60.4792 182.316C60.3236 182.62 60.2457 183.001 60.3236 183.382C60.5571 183.077 60.7127 182.697 60.7127 182.316C60.6349 182.316 60.6349 182.24 60.5571 182.24ZM63.2812 181.631C63.2034 181.631 63.2034 181.631 63.1255 181.707C62.6585 182.012 62.5029 182.544 62.7364 183.077C62.7364 183.153 62.8142 183.153 62.8142 183.229C63.1255 182.849 63.2812 182.392 63.359 181.935C63.359 181.707 63.2812 181.631 63.2812 181.631Z" fill="#F2EBEB"/>
<path d="M31.214 201.725C35.1056 200.05 38.9972 198.452 42.8889 196.929C46.7805 195.407 50.7499 193.961 54.7194 192.591C58.6888 191.221 62.6583 189.851 66.7056 188.557C70.7529 187.263 74.7223 186.045 78.8475 184.903C74.9558 186.578 71.0642 188.176 67.1726 189.699C63.281 191.221 59.3115 192.667 55.3421 194.037C51.3726 195.407 47.4031 196.777 43.3559 198.071C39.3086 199.365 35.2613 200.583 31.214 201.725Z" fill="#F2EBEB"/>
<path d="M97.5275 219.459C97.5275 219.459 97.2162 216.643 95.0369 217.1C92.8576 217.557 89.8999 227.299 89.8999 227.299C89.8999 227.299 77.6024 236.281 81.1049 242.903C84.6073 249.525 98.0723 239.858 98.0723 239.858C98.0723 239.858 98.228 220.221 97.5275 219.459Z" fill="#A04040"/>
<path d="M141.892 333.707C141.892 333.707 142.203 329.14 141.892 328.075C141.58 327.009 118.075 326.324 117.686 327.237C117.296 328.151 117.374 333.631 117.686 334.088C117.997 334.544 141.814 335.153 141.892 333.707Z" fill="#E1C692"/>
<path d="M117.686 334.163C119.164 333.935 120.643 333.783 122.2 333.783C123.679 333.707 125.158 333.783 126.636 333.783C129.594 333.935 132.552 334.24 135.509 334.696C134.03 335.077 132.552 335.229 131.073 335.305C129.594 335.381 128.115 335.381 126.559 335.305C125.002 335.229 123.601 335.077 122.122 334.925C120.643 334.772 119.164 334.544 117.686 334.163Z" fill="#000001"/>
<path d="M142.514 326.551C142.514 326.551 142.826 321.984 142.514 320.919C142.203 319.853 118.697 319.244 118.308 320.081C117.919 320.919 117.997 326.475 118.308 326.932C118.62 327.388 142.514 327.997 142.514 326.551Z" fill="#E1C692"/>
<path d="M118.386 326.932C119.865 326.704 121.344 326.551 122.901 326.551C124.379 326.475 125.858 326.551 127.337 326.551C130.295 326.704 133.33 326.932 136.288 327.465C134.809 327.845 133.33 327.998 131.851 328.074C130.372 328.15 128.894 328.15 127.337 328.074C125.78 327.998 124.379 327.845 122.901 327.693C121.344 327.617 119.787 327.313 118.386 326.932Z" fill="#000001"/>
<path d="M139.557 319.016C139.557 319.016 139.868 314.449 139.557 313.384C139.245 312.318 115.74 311.709 115.351 312.546C114.962 313.384 115.039 318.94 115.351 319.397C115.662 319.853 139.479 320.462 139.557 319.016Z" fill="#E1C692"/>
<path d="M115.351 319.398C116.83 319.17 118.309 319.018 119.865 319.018C121.344 319.018 122.823 319.018 124.302 319.018C127.259 319.094 130.217 319.398 133.175 319.855C131.696 320.235 130.217 320.388 128.66 320.464C127.181 320.54 125.703 320.54 124.224 320.464C122.745 320.388 121.266 320.312 119.787 320.083C118.231 320.007 116.752 319.779 115.351 319.398Z" fill="#000001"/>
<path d="M152.243 335.836C152.243 335.836 155.123 333.629 155.746 332.792C156.369 331.954 147.651 308.587 146.873 308.663C146.095 308.739 142.826 311.784 142.67 312.393C142.514 313.002 151.309 336.521 152.243 335.836Z" fill="#E1C692"/>
<path d="M142.67 312.319C143.448 313.689 144.226 315.136 144.849 316.582C145.472 318.028 146.094 319.474 146.639 320.996C147.729 323.965 148.585 327.009 149.286 330.054C148.352 328.76 147.573 327.314 146.951 325.868C146.25 324.422 145.705 322.975 145.16 321.453C144.616 319.931 144.149 318.485 143.759 316.962C143.215 315.44 142.903 313.918 142.67 312.319Z" fill="#000001"/>
<path d="M141.892 311.634C141.892 311.634 142.203 307.067 141.892 306.001C141.58 304.936 118.075 304.251 117.686 305.164C117.296 306.078 117.374 311.558 117.686 312.014C117.997 312.471 141.814 313.08 141.892 311.634Z" fill="#E1C692"/>
<path d="M117.686 312.013C119.164 311.785 120.643 311.709 122.2 311.632C123.679 311.556 125.158 311.632 126.636 311.632C129.594 311.709 132.552 312.013 135.509 312.47C134.03 312.85 132.552 313.003 131.073 313.079C129.594 313.155 128.115 313.155 126.559 313.079C125.002 313.003 123.601 312.926 122.122 312.698C120.643 312.622 119.164 312.394 117.686 312.013Z" fill="#000001"/>
<path d="M138.778 304.401C138.778 304.401 139.09 299.834 138.778 298.768C138.467 297.703 114.962 297.094 114.572 297.931C114.183 298.768 114.339 304.325 114.572 304.781C114.806 305.238 138.701 305.847 138.778 304.401Z" fill="#E1C692"/>
<path d="M114.572 304.858C116.051 304.63 117.53 304.478 119.087 304.478C120.565 304.478 122.044 304.478 123.523 304.478C126.481 304.554 129.438 304.858 132.396 305.315C130.917 305.695 129.438 305.848 127.882 305.924C126.403 306 124.924 306 123.367 305.924C121.811 305.848 120.41 305.772 118.931 305.543C117.53 305.467 116.051 305.163 114.572 304.858Z" fill="#000001"/>
<path d="M142.203 296.942C142.203 296.942 142.514 292.375 142.203 291.309C141.892 290.244 118.386 289.635 117.997 290.472C117.608 291.309 117.686 296.866 117.997 297.322C118.308 297.779 142.125 298.388 142.203 296.942Z" fill="#E1C692"/>
<path d="M117.997 297.4C119.476 297.172 120.955 297.02 122.511 297.02C123.99 297.02 125.469 297.02 126.948 297.02C129.905 297.096 132.863 297.4 135.821 297.857C134.342 298.237 132.863 298.39 131.384 298.466C129.905 298.542 128.427 298.542 126.87 298.466C125.313 298.39 123.912 298.313 122.434 298.085C120.955 298.009 119.476 297.781 117.997 297.4Z" fill="#000001"/>
<path d="M141.425 289.104C141.425 289.104 141.736 284.537 141.425 283.471C141.113 282.406 117.608 281.72 117.219 282.634C116.83 283.547 116.907 289.027 117.219 289.484C117.53 289.941 141.347 290.55 141.425 289.104Z" fill="#E1C692"/>
<path d="M117.219 289.484C118.697 289.255 120.176 289.179 121.733 289.103C123.212 289.027 124.691 289.103 126.169 289.103C129.127 289.179 132.085 289.484 135.042 289.94C133.563 290.321 132.085 290.473 130.606 290.549C129.127 290.625 127.648 290.625 126.092 290.549C124.535 290.473 123.134 290.397 121.655 290.169C120.176 290.093 118.697 289.864 117.219 289.484Z" fill="#000001"/>
<path d="M138.389 281.569C138.389 281.569 138.7 277.003 138.389 275.937C138.078 274.871 114.572 274.186 114.183 275.1C113.794 276.013 113.872 281.493 114.183 281.95C114.494 282.407 138.311 283.016 138.389 281.569Z" fill="#E1C692"/>
<path d="M114.183 281.948C115.662 281.719 117.141 281.567 118.698 281.567C120.176 281.491 121.655 281.567 123.134 281.567C126.092 281.643 129.049 281.948 132.007 282.48C130.528 282.861 129.049 283.013 127.493 283.089C126.014 283.165 124.535 283.165 123.056 283.089C121.577 283.013 120.099 282.937 118.62 282.709C117.141 282.557 115.662 282.328 114.183 281.948Z" fill="#000001"/>
<path d="M140.802 274.184C140.802 274.184 141.113 269.617 140.802 268.552C140.491 267.486 116.985 266.877 116.596 267.714C116.207 268.552 116.285 274.108 116.596 274.565C116.908 275.021 140.724 275.63 140.802 274.184Z" fill="#E1C692"/>
<path d="M116.596 274.566C118.075 274.338 119.554 274.186 121.11 274.186C122.589 274.186 124.068 274.186 125.547 274.186C128.505 274.262 131.462 274.566 134.42 275.023C132.941 275.403 131.462 275.556 129.983 275.632C128.505 275.708 127.026 275.708 125.469 275.632C123.99 275.556 122.511 275.479 121.033 275.251C119.476 275.175 117.997 274.947 116.596 274.566Z" fill="#000001"/>
<path d="M137.689 266.953C137.689 266.953 138 262.386 137.689 261.32C137.377 260.255 113.872 259.646 113.483 260.483C113.094 261.32 113.249 266.876 113.483 267.333C113.716 267.79 137.611 268.399 137.689 266.953Z" fill="#E1C692"/>
<path d="M113.483 267.412C114.961 267.184 116.44 267.032 117.997 267.032C119.476 266.956 120.955 267.032 122.433 267.032C125.391 267.108 128.349 267.412 131.306 267.869C129.827 268.25 128.349 268.402 126.792 268.478C125.313 268.554 123.834 268.554 122.278 268.478C120.721 268.402 119.32 268.25 117.841 268.097C116.362 268.021 114.884 267.717 113.483 267.412Z" fill="#000001"/>
<path d="M141.113 259.494C141.113 259.494 141.425 254.927 141.113 253.862C140.802 252.796 117.296 252.111 116.907 253.024C116.518 253.938 116.596 259.418 116.907 259.875C117.219 260.331 141.035 260.94 141.113 259.494Z" fill="#E1C692"/>
<path d="M116.908 259.952C118.386 259.724 119.865 259.572 121.422 259.572C122.901 259.496 124.38 259.572 125.858 259.572C128.816 259.648 131.774 259.952 134.731 260.485C133.252 260.866 131.774 261.018 130.295 261.094C128.816 261.17 127.337 261.17 125.78 261.094C124.224 261.018 122.823 260.866 121.344 260.714C119.865 260.561 118.386 260.257 116.908 259.952Z" fill="#000001"/>
<path d="M199.254 334.312C199.254 334.312 199.488 329.745 199.254 328.679C199.021 327.614 175.437 327.005 175.048 327.842C174.659 328.679 174.737 334.236 175.048 334.693C175.36 335.149 199.176 335.758 199.254 334.312Z" fill="#E1C692"/>
<path d="M175.048 334.697C176.527 334.468 178.006 334.392 179.562 334.316C181.041 334.24 182.52 334.316 183.999 334.316C186.956 334.392 189.914 334.697 192.872 335.153C191.393 335.534 189.914 335.686 188.435 335.762C186.956 335.838 185.478 335.838 183.921 335.762C182.364 335.686 180.963 335.61 179.485 335.382C178.006 335.306 176.527 335.077 175.048 334.697Z" fill="#000001"/>
<path d="M198.476 326.476C198.476 326.476 198.787 321.909 198.476 320.843C198.165 319.778 174.659 319.093 174.27 320.006C173.881 320.919 173.959 326.4 174.27 326.856C174.581 327.313 198.398 327.846 198.476 326.476Z" fill="#E1C692"/>
<path d="M174.27 326.858C175.749 326.629 177.228 326.477 178.784 326.477C180.263 326.401 181.742 326.477 183.221 326.477C186.178 326.553 189.136 326.858 192.094 327.391C190.615 327.771 189.136 327.923 187.657 327.999C186.178 328.076 184.7 328.076 183.143 327.999C181.664 327.923 180.185 327.771 178.706 327.619C177.15 327.467 175.671 327.238 174.27 326.858Z" fill="#000001"/>
<path d="M195.44 318.939C195.44 318.939 195.752 314.372 195.44 313.306C195.129 312.241 171.623 311.632 171.234 312.469C170.845 313.306 170.923 318.863 171.234 319.319C171.546 319.776 195.362 320.309 195.44 318.939Z" fill="#E1C692"/>
<path d="M171.234 319.319C172.713 319.09 174.192 318.938 175.749 318.938C177.228 318.862 178.706 318.938 180.185 318.938C183.143 319.014 186.1 319.319 189.058 319.775C187.579 320.156 186.1 320.308 184.622 320.384C183.143 320.46 181.664 320.46 180.107 320.384C178.629 320.308 177.15 320.156 175.671 320.004C174.192 319.928 172.713 319.699 171.234 319.319Z" fill="#000001"/>
<path d="M197.775 311.559C197.775 311.559 198.087 306.992 197.775 305.927C197.464 304.861 173.959 304.252 173.569 305.089C173.18 305.927 173.336 311.483 173.569 311.94C173.803 312.396 197.697 313.005 197.775 311.559Z" fill="#E1C692"/>
<path d="M173.569 311.938C175.048 311.71 176.527 311.558 178.084 311.558C179.562 311.558 181.041 311.558 182.52 311.558C185.478 311.634 188.435 311.938 191.393 312.395C189.914 312.775 188.435 312.928 186.879 313.004C185.4 313.08 183.921 313.08 182.364 313.004C180.886 312.928 179.407 312.775 177.928 312.623C176.527 312.547 175.048 312.319 173.569 311.938Z" fill="#000001"/>
<path d="M194.662 304.328C194.662 304.328 194.974 299.761 194.662 298.695C194.351 297.63 170.846 297.021 170.456 297.858C170.067 298.695 170.145 304.251 170.456 304.708C170.768 305.165 194.584 305.774 194.662 304.328Z" fill="#E1C692"/>
<path d="M170.456 304.71C171.935 304.481 173.414 304.329 174.97 304.329C176.449 304.329 177.928 304.329 179.407 304.329C182.364 304.405 185.322 304.71 188.28 305.166C186.801 305.547 185.322 305.699 183.765 305.775C182.287 305.851 180.808 305.851 179.251 305.775C177.694 305.699 176.293 305.623 174.815 305.395C173.414 305.395 171.935 305.09 170.456 304.71Z" fill="#000001"/>
<path d="M198.087 296.87C198.087 296.87 198.398 292.303 198.087 291.237C197.775 290.172 174.27 289.563 173.881 290.4C173.492 291.237 173.569 296.793 173.881 297.25C174.192 297.707 198.009 298.316 198.087 296.87Z" fill="#E1C692"/>
<path d="M173.881 297.247C175.36 297.019 176.838 296.867 178.395 296.867C179.874 296.791 181.353 296.791 182.832 296.867C185.789 296.943 188.747 297.247 191.704 297.704C190.226 298.084 188.747 298.237 187.268 298.313C185.789 298.389 184.31 298.389 182.754 298.313C181.197 298.237 179.796 298.085 178.317 297.932C176.839 297.856 175.36 297.628 173.881 297.247Z" fill="#000001"/>
<path d="M292.031 272.815C292.031 272.815 293.587 267.487 291.097 262.768C288.606 258.049 288.139 258.049 289.54 258.049C290.941 258.049 303.472 262.54 302.771 270.151C302.071 277.763 292.031 272.815 292.031 272.815Z" fill="#000001"/>
<path d="M325.109 328.306C325.109 328.306 326.666 337.516 329.779 338.429C332.893 339.342 337.407 337.363 337.718 335.765C338.03 334.166 338.497 328.306 338.497 328.306H325.109Z" fill="#000001"/>
<path d="M316.626 328.303C316.626 328.303 315.536 338.578 314.446 338.578C313.357 338.578 308.142 339.035 306.741 337.97C305.34 336.904 306.196 327.313 306.196 327.313L316.626 328.303Z" fill="#000001"/>
<path d="M313.435 268.25C313.435 268.25 334.761 267.489 346.046 272.132C357.332 276.775 367.373 289.638 363.403 304.557C359.434 319.475 348.148 325.26 348.148 325.26C348.148 325.26 347.992 336.601 345.112 337.743C342.233 338.884 337.874 340.178 336.94 337.743C336.006 335.307 335.773 329.75 335.773 329.75C335.773 329.75 314.602 331.044 309.076 329.75C309.076 329.75 308.298 339.036 306.585 339.113C304.873 339.189 297.09 338.656 297.09 336.829V328.609C297.09 328.609 283.002 324.346 277.865 311.255C272.728 298.163 267.591 296.717 267.591 295.575C267.591 294.433 275.375 279.363 275.375 279.363C277.787 279.972 280.356 279.819 282.613 278.83C286.038 277.155 290.007 268.174 302.616 268.174C302.616 268.174 297.479 256.452 298.646 256.452C299.814 256.452 310.01 259.345 313.435 268.25Z" fill="#EA8383"/>
<path d="M308.298 281.341C308.298 281.341 310.788 269.771 306.974 265.357C303.161 260.942 299.425 260.562 299.425 260.562C299.425 260.562 302.771 267.792 301.837 271.903C300.903 276.013 299.58 273.197 300.903 276.013C302.227 278.829 306.196 281.341 308.298 281.341Z" fill="#A04040"/>
<path d="M275.297 279.438C275.297 279.438 277.632 281.341 274.44 288.192C271.249 295.042 269.615 296.26 267.513 295.651C265.412 295.042 265.645 292.911 266.424 290.399C267.202 287.887 272.572 278.525 275.297 279.438Z" fill="#A04040"/>
<path d="M272.728 285.908C272.728 285.908 271.872 290.399 271.327 289.866C270.782 289.334 272.183 284.234 272.728 285.908Z" fill="#EA8383"/>
<path d="M270.938 285.222C270.938 285.222 269.693 288.115 269.148 287.658C268.603 287.201 270.938 283.396 270.938 285.222Z" fill="#EA8383"/>
<path d="M358.11 284.841C358.967 283.395 360.056 282.025 361.379 280.959C362.08 280.426 362.858 279.97 363.636 279.589C364.493 279.208 365.427 279.132 366.361 279.208C366.828 279.285 367.295 279.361 367.762 279.589C367.995 279.665 368.151 279.741 368.384 279.894C368.618 279.97 368.773 280.122 369.007 280.274C369.785 280.807 370.486 281.568 370.953 282.405C371.498 283.319 371.575 284.46 371.186 285.45C371.108 285.754 370.953 285.983 370.719 286.211C370.486 286.439 370.252 286.592 370.019 286.744C369.474 286.972 368.929 287.124 368.384 287.048C367.917 286.972 367.372 286.896 366.905 286.668C366.672 286.592 366.516 286.439 366.283 286.363C366.049 286.287 365.816 286.135 365.66 285.983C364.804 285.374 364.181 284.536 363.948 283.547C363.559 281.644 364.103 279.741 365.427 278.295C366.594 276.849 368.306 276.012 370.174 275.936C371.965 275.936 373.677 276.544 375 277.61C373.521 276.849 371.887 276.544 370.174 276.697C368.618 276.925 367.217 277.762 366.283 279.056C365.349 280.198 365.037 281.72 365.349 283.166C365.504 283.775 365.894 284.384 366.516 284.765C366.828 284.993 367.139 285.145 367.45 285.298C367.762 285.45 368.073 285.526 368.462 285.526C369.007 285.602 369.552 285.374 369.785 284.841C370.019 284.232 369.941 283.623 369.63 283.014C368.929 281.72 367.684 280.731 366.205 280.426C365.816 280.35 365.427 280.35 365.115 280.35C364.96 280.35 364.726 280.426 364.57 280.426C364.415 280.426 364.181 280.502 364.026 280.579C363.247 280.807 362.547 281.187 361.846 281.568C360.445 282.481 359.2 283.547 358.11 284.841Z" fill="#EA8383"/>
<path d="M333.126 271.675C333.126 271.675 316.003 270.381 315.847 270.914C315.692 271.447 314.602 272.436 315.847 272.512C317.093 272.588 333.126 273.349 333.126 273.045C333.126 272.741 333.982 271.751 333.126 271.675Z" fill="#000001"/>
<path d="M286.66 286.897C286.66 286.897 288.295 285.603 287.283 284.766C286.271 283.929 285.337 285.908 285.493 286.897C285.648 287.887 286.66 286.897 286.66 286.897Z" fill="#000001"/>
<path d="M287.594 296.26C287.438 296.945 287.049 297.554 286.582 298.087C286.115 298.619 285.493 299.076 284.87 299.304C284.169 299.609 283.391 299.761 282.691 299.685C281.912 299.609 281.29 299.228 280.745 298.695C281.368 298.695 281.99 298.619 282.613 298.467C283.158 298.315 283.703 298.163 284.169 297.934C285.337 297.478 286.349 296.869 287.594 296.26Z" fill="#000001"/>
<path d="M253.659 127.513C254.827 126.295 256.072 125.153 257.473 124.087C258.796 123.022 260.119 121.956 261.52 120.967C262.921 119.977 264.322 118.988 265.723 118.15C267.202 117.237 268.681 116.4 270.238 115.639C269.07 116.857 267.747 117.998 266.424 119.064C265.101 120.129 263.777 121.195 262.376 122.185C260.975 123.174 259.574 124.164 258.096 125.001C256.772 125.914 255.216 126.751 253.659 127.513Z" fill="#E1C692"/>
<path d="M258.252 112.291C257.24 112.138 256.228 112.443 255.527 113.128C254.749 113.737 254.204 114.498 253.815 115.335C253.193 117.086 255.294 117.999 256.851 118.684C257.551 118.989 258.407 119.065 259.186 118.836C259.575 118.684 259.886 118.456 260.12 118.151C260.353 117.771 260.587 117.39 260.664 117.01C260.82 116.096 260.742 115.107 260.353 114.27C260.197 113.813 259.886 113.356 259.575 113.052C259.186 112.671 258.796 112.367 258.252 112.291ZM258.252 112.291C259.263 112.519 260.042 113.204 260.509 114.117C261.054 115.031 261.365 116.02 261.365 117.086C261.365 117.619 261.209 118.227 260.976 118.684C260.664 119.217 260.275 119.674 259.73 120.054C259.186 120.359 258.563 120.511 257.94 120.511C257.629 120.511 257.318 120.511 257.084 120.435L256.228 120.206C255.216 119.826 254.282 119.217 253.504 118.38C253.27 118.151 253.115 117.923 252.959 117.695C252.803 117.39 252.726 117.162 252.648 116.857C252.57 116.248 252.648 115.64 252.959 115.183C253.504 114.346 254.36 113.584 255.216 113.052C256.228 112.291 257.24 112.062 258.252 112.291Z" fill="#E1C692"/>
<path d="M267.046 122.719C266.035 122.567 265.023 122.871 264.322 123.557C263.544 124.165 262.999 124.927 262.61 125.84C261.987 127.591 264.089 128.504 265.645 129.189C266.346 129.493 267.202 129.57 267.98 129.341C268.369 129.189 268.681 128.961 268.914 128.656C269.148 128.276 269.381 127.895 269.459 127.514C269.615 126.601 269.537 125.612 269.148 124.774C268.992 124.318 268.681 123.861 268.369 123.557C267.98 123.1 267.513 122.795 267.046 122.719ZM267.046 122.719C268.058 122.948 268.836 123.633 269.303 124.546C269.848 125.459 270.16 126.449 270.16 127.514C270.16 128.047 270.004 128.656 269.77 129.113C269.459 129.646 269.07 130.102 268.525 130.483C267.98 130.787 267.358 130.94 266.735 130.94C266.424 130.94 266.112 130.863 265.879 130.863C265.568 130.787 265.334 130.711 265.023 130.635C264.011 130.255 263.077 129.646 262.299 128.808C262.065 128.58 261.909 128.352 261.754 128.123C261.598 127.819 261.52 127.591 261.442 127.286C261.365 126.677 261.442 126.068 261.754 125.612C262.376 124.774 263.155 124.013 264.011 123.48C264.945 122.719 266.035 122.491 267.046 122.719Z" fill="#E1C692"/>
<path d="M120.021 142.356C120.332 143.727 120.488 145.097 120.643 146.543C120.721 147.913 120.799 149.283 120.799 150.729C120.799 152.175 120.721 153.469 120.643 154.915C120.566 156.285 120.332 157.732 120.021 159.102C119.709 157.732 119.476 156.362 119.398 154.915C119.32 153.545 119.242 152.175 119.242 150.729C119.242 149.283 119.32 147.989 119.398 146.543C119.554 145.173 119.709 143.727 120.021 142.356Z" fill="#E1C692"/>
<path d="M111.381 150.727C112.938 150.423 114.495 150.27 116.051 150.118C117.608 150.042 119.165 149.966 120.721 149.966C122.278 149.966 123.835 150.042 125.391 150.118C126.948 150.194 128.505 150.423 130.061 150.727C128.505 151.031 126.948 151.26 125.391 151.336C123.835 151.412 122.278 151.488 120.721 151.488C119.165 151.488 117.608 151.412 116.051 151.336C114.495 151.184 112.938 151.031 111.381 150.727Z" fill="#E1C692"/>
<path d="M224.783 79.5615C225.951 80.3227 227.118 81.1599 228.208 82.0733C229.298 82.9867 230.309 83.9001 231.321 84.8895C232.333 85.879 233.267 86.9446 234.201 87.9341C235.135 88.9997 235.991 90.1414 236.769 91.2832C235.602 90.522 234.434 89.6848 233.345 88.7714C232.255 87.858 231.243 86.9446 230.231 85.9551C229.22 84.9657 228.286 83.9 227.352 82.9106C226.418 81.845 225.562 80.7794 224.783 79.5615Z" fill="#E1C692"/>
<path d="M224.628 91.4346C225.484 90.1406 226.496 88.9228 227.507 87.7811C228.519 86.6394 229.609 85.4977 230.699 84.4321C231.788 83.3664 232.956 82.3008 234.123 81.3114C235.291 80.3219 236.536 79.3324 237.859 78.4951C237.003 79.7891 235.991 81.0069 234.979 82.1486C233.968 83.2903 232.878 84.4321 231.788 85.4977C230.699 86.5633 229.531 87.6289 228.364 88.6184C227.196 89.684 225.951 90.5973 224.628 91.4346Z" fill="#E1C692"/>
<path d="M127.181 75.376C127.181 74.8432 127.259 74.3104 127.415 73.8537C127.57 73.3209 127.804 72.7881 128.193 72.4075C128.582 71.9508 129.127 71.6464 129.75 71.4941C130.061 71.4941 130.372 71.4941 130.684 71.4941C130.995 71.5703 131.306 71.6464 131.54 71.7225C131.773 71.7986 132.085 71.9508 132.318 72.0269L133.019 72.4836C133.252 72.6359 133.486 72.7881 133.719 73.0164C133.953 73.2448 134.108 73.4731 134.342 73.7015C134.964 74.691 135.276 75.9088 135.276 77.0505C135.12 79.2578 134.575 81.389 133.641 83.368C132.785 85.347 131.773 87.1737 130.528 88.9244L129.827 88.011C131.228 87.5543 132.629 87.1737 134.03 86.7932C135.431 86.4126 136.832 86.032 138.233 85.7276C136.91 86.3365 135.587 86.9454 134.264 87.5543C132.941 88.1632 131.618 88.696 130.294 89.2288L128.66 89.8378L129.516 88.3155C130.528 86.5648 131.462 84.662 132.318 82.7591C133.174 80.9323 133.719 78.9534 133.875 76.9744C133.953 76.061 133.797 75.1476 133.33 74.3104C133.252 74.1582 133.096 73.9298 132.941 73.7776C132.785 73.6253 132.629 73.4731 132.396 73.3209L131.773 72.8642L131.151 72.4836C130.372 71.9508 129.36 72.0269 128.66 72.6359C127.959 73.4731 127.415 74.3865 127.181 75.376Z" fill="#E1C692"/>
<path d="M141.347 68.9821C140.958 69.1344 140.647 69.2866 140.335 69.591C140.024 69.8955 139.79 70.2 139.635 70.5044C139.323 71.1895 139.09 71.9506 139.09 72.7118C139.09 73.0923 139.09 73.4729 139.09 73.8535C139.09 74.234 139.168 74.6146 139.168 74.9952L139.323 76.1369L139.635 77.2786C139.946 78.7248 140.569 80.171 141.425 81.3888C141.814 81.9216 142.359 82.3022 142.981 82.4544C143.604 82.6066 144.305 82.5305 144.927 82.2261C145.628 81.9216 146.328 81.6172 146.951 81.1605L147.184 81.0082C147.262 80.9321 147.262 80.9321 147.262 80.9321L147.34 80.7799L147.418 80.6277C147.496 80.3232 147.574 80.0187 147.574 79.6382C147.574 78.1159 147.34 76.5936 146.873 75.1474C146.484 73.6251 145.861 72.1789 145.005 70.885C144.616 70.2 144.071 69.6672 143.448 69.1344C142.904 68.8299 142.048 68.7538 141.347 68.9821ZM141.347 68.9821C141.736 68.7538 142.125 68.6777 142.515 68.6016C142.982 68.6016 143.371 68.7538 143.76 68.906C144.538 69.2866 145.161 69.8955 145.706 70.5805C146.717 71.8745 147.574 73.3968 148.118 74.9191C148.741 76.5175 149.052 78.192 149.13 79.8665C149.13 80.3232 149.052 80.7799 148.897 81.2366C148.819 81.3888 148.819 81.4649 148.741 81.6172C148.663 81.7694 148.585 81.8455 148.508 81.9977C148.352 82.15 148.274 82.2261 148.118 82.3022L147.885 82.4544C147.184 82.9872 146.406 83.3678 145.55 83.6722C144.616 84.0528 143.682 84.1289 142.67 83.9006C141.736 83.6722 140.88 83.0633 140.257 82.3022C139.323 80.856 138.701 79.2576 138.467 77.507C138.156 75.9086 138.078 74.234 138.312 72.5595C138.467 71.7223 138.779 70.9611 139.246 70.2C139.713 69.6672 140.491 69.1344 141.347 68.9821Z" fill="#E1C692"/>
<path d="M151.932 64.7194C151.543 64.8717 151.232 65.0239 150.92 65.3284C150.609 65.6328 150.376 65.9373 150.22 66.2417C149.909 66.9268 149.675 67.6879 149.675 68.449C149.597 68.8296 149.675 69.2102 149.675 69.5908C149.675 69.9713 149.753 70.3519 149.753 70.7325L149.909 71.8742L150.22 73.0159C150.531 74.4621 151.154 75.9083 152.01 77.1261C152.399 77.6589 152.944 78.0395 153.567 78.1917C154.189 78.3439 154.89 78.2678 155.512 77.9634C156.213 77.6589 156.913 77.3545 157.536 76.9739L157.77 76.8217C157.847 76.7455 157.847 76.7455 157.847 76.7455C157.847 76.7455 157.925 76.6694 157.925 76.5933L158.003 76.4411C158.081 76.1366 158.159 75.8322 158.159 75.4516C158.159 73.9293 157.925 72.407 157.458 70.9608C157.069 69.4385 156.446 67.9924 155.59 66.6984C155.201 66.0134 154.656 65.4806 154.034 65.0239C153.567 64.5672 152.71 64.4911 151.932 64.7194ZM151.932 64.7194C152.321 64.4911 152.71 64.415 153.1 64.3389C153.567 64.3389 153.956 64.4911 154.345 64.6433C155.123 65.0239 155.746 65.6328 156.291 66.3178C157.303 67.6118 158.159 69.1341 158.704 70.6564C159.326 72.2548 159.638 73.9293 159.715 75.6038C159.715 76.0605 159.638 76.5933 159.482 76.9739C159.404 77.1261 159.404 77.2022 159.326 77.3545C159.248 77.5067 159.171 77.6589 159.015 77.735C158.937 77.8873 158.781 77.9634 158.626 78.0395L158.392 78.1917C157.692 78.7245 156.913 79.1051 156.057 79.4095C155.123 79.7901 154.189 79.8662 153.177 79.6379C152.244 79.4095 151.387 78.8006 150.765 77.9634C149.831 76.5172 149.208 74.9188 148.975 73.2443C148.663 71.6459 148.585 69.9713 148.819 68.2968C148.975 67.4596 149.286 66.6984 149.753 65.9373C150.376 65.3284 151.076 64.8717 151.932 64.7194Z" fill="#E1C692"/>
<path d="M161.739 60.3806C161.35 60.5328 161.038 60.685 160.727 60.9895C160.416 61.294 160.182 61.5984 160.027 61.9029C159.715 62.5879 159.482 63.349 159.482 64.1102C159.404 64.4908 159.482 64.8713 159.482 65.2519C159.482 65.6325 159.56 66.0131 159.56 66.3936L159.715 67.5353L160.027 68.6771C160.338 70.1232 160.961 71.5694 161.739 72.7873C162.128 73.3201 162.673 73.7006 163.296 73.8529C163.918 74.0051 164.619 73.929 165.241 73.6245C165.942 73.3201 166.642 73.0156 167.265 72.5589L167.499 72.4067C167.576 72.3306 167.576 72.3306 167.576 72.3306L167.654 72.2544L167.732 72.1022C167.81 71.7978 167.888 71.4933 167.888 71.1127C167.888 69.5904 167.654 68.0681 167.187 66.622C166.798 65.0997 166.175 63.6535 165.319 62.3596C164.93 61.6745 164.385 61.1417 163.763 60.6089C163.296 60.2283 162.439 60.0761 161.739 60.3806ZM161.739 60.3806C162.128 60.1522 162.517 60.0761 162.906 60C163.373 60 163.763 60.1522 164.152 60.3045C164.93 60.685 165.553 61.2939 166.098 61.979C167.109 63.2729 167.966 64.7952 168.51 66.3175C169.133 67.9159 169.444 69.5904 169.522 71.265C169.522 71.7216 169.444 72.1783 169.289 72.635C169.211 72.7872 169.211 72.8634 169.133 73.0156C169.055 73.1678 168.977 73.2439 168.822 73.3962C168.744 73.5484 168.588 73.6245 168.433 73.7006L168.199 73.8529C167.499 74.3857 166.72 74.7662 165.864 75.0707C164.93 75.4513 163.918 75.5274 162.984 75.299C162.05 74.9946 161.194 74.4618 160.649 73.6245C159.715 72.1783 159.093 70.5799 158.859 68.8293C158.548 67.2309 158.47 65.5564 158.704 63.8818C158.859 63.0446 159.171 62.2834 159.638 61.5223C160.105 60.9895 160.883 60.4567 161.739 60.3806Z" fill="#E1C692"/>
<path d="M139.167 84.2783C139.167 84.2783 137.922 84.9634 139.167 84.8872C140.413 84.8111 140.724 84.2783 139.167 84.2783Z" fill="#E1C692"/>
<path d="M81.5719 108.333C82.7394 107.115 84.0625 105.973 85.3857 104.908C86.7088 103.842 88.032 102.776 89.433 101.787C90.834 100.798 92.2349 99.808 93.6359 98.9708C95.1147 98.0574 96.5936 97.2201 98.1502 96.459C96.9827 97.6768 95.6596 98.8185 94.3364 99.8841C93.0133 100.95 91.6901 102.015 90.2891 103.005C88.8881 103.994 87.4872 104.984 86.0862 105.821C84.6074 106.811 83.1285 107.648 81.5719 108.333Z" fill="#E1C692"/>
<path d="M86.1638 93.1851C85.152 93.0328 84.1402 93.3373 83.4397 94.0223C82.6613 94.6312 82.1165 95.3924 81.7273 96.2296C81.1047 97.9803 83.2062 98.8937 84.7628 99.5787C85.4633 99.8831 86.3195 99.9593 87.0978 99.7309C87.4869 99.5787 87.7983 99.3503 88.0318 99.0459C88.2653 98.6653 88.4988 98.2847 88.5766 97.9042C88.7323 96.9908 88.6544 96.0013 88.2653 95.164C88.1096 94.7074 87.7983 94.3268 87.4869 93.9462C87.0978 93.4895 86.6308 93.2612 86.1638 93.1851ZM86.1638 93.1851C87.1756 93.4134 88.0318 94.0984 88.4209 95.0118C88.9658 95.9252 89.2771 96.9147 89.3549 97.9803C89.3549 98.5131 89.1993 99.122 88.9658 99.5787C88.6544 100.111 88.2653 100.568 87.7204 100.949C87.1756 101.253 86.553 101.405 85.9303 101.405C85.619 101.405 85.3076 101.329 84.9963 101.329C84.7628 101.253 84.4515 101.177 84.218 101.101C83.2062 100.72 82.2722 100.111 81.4938 99.2742C81.2603 99.0459 81.1047 98.8175 80.949 98.5892C80.7934 98.2847 80.7155 98.0564 80.6377 97.7519C80.5599 97.143 80.6377 96.5341 80.949 96.0774C81.4938 95.2402 82.35 94.479 83.2062 93.9462C84.1402 93.1851 85.152 92.9567 86.1638 93.1851Z" fill="#E1C692"/>
<path d="M94.8808 103.538C93.869 103.386 92.8572 103.69 92.1567 104.376C91.3784 104.984 90.8335 105.746 90.4444 106.659C89.8217 108.41 91.9232 109.323 93.4798 110.008C94.1803 110.312 95.0365 110.389 95.8148 110.16C96.204 110.008 96.5153 109.78 96.7488 109.475C96.9823 109.095 97.2158 108.714 97.2936 108.333C97.4493 107.42 97.3715 106.431 96.9823 105.593C96.8266 105.137 96.5153 104.68 96.204 104.376C95.8148 103.995 95.3478 103.69 94.8808 103.538ZM94.8808 103.538C95.8927 103.767 96.7488 104.452 97.138 105.365C97.6828 106.278 97.9941 107.268 98.072 108.333C98.072 108.866 97.9163 109.475 97.6828 109.932C97.4493 110.465 96.9823 110.921 96.4375 111.302C95.8927 111.606 95.27 111.759 94.6473 111.759C94.336 111.759 94.0247 111.759 93.7912 111.682L92.935 111.454C91.9232 111.074 90.9892 110.465 90.2109 109.627C89.9774 109.399 89.8217 109.171 89.6661 108.942C89.5104 108.638 89.4326 108.41 89.3547 108.105C89.2769 107.496 89.3547 106.887 89.6661 106.431C90.2109 105.593 90.9892 104.832 91.9232 104.299C92.8572 103.614 93.869 103.386 94.8808 103.538Z" fill="#E1C692"/>
<path d="M296.234 78.4951C297.012 78.5712 297.791 78.6473 298.491 78.7235C299.192 78.7996 299.97 78.9518 300.748 79.0279L301.76 79.1801L300.982 79.9413C299.97 80.9308 298.88 81.9203 297.791 82.9098L296.156 84.3559L294.444 85.726C293.276 86.6394 292.109 87.4766 290.941 88.3139C289.774 89.1512 288.529 89.9884 287.283 90.6734C288.217 89.5317 289.229 88.5422 290.241 87.4766C291.253 86.411 292.342 85.4977 293.432 84.5082L295.066 83.1381L296.779 81.768C297.946 80.8547 299.036 80.0174 300.281 79.1801L300.515 80.0935C299.814 79.8652 299.114 79.6368 298.335 79.3324C297.557 79.0279 296.934 78.7996 296.234 78.4951Z" fill="#E1C692"/>
<path d="M308.687 88.162C308.375 87.8575 308.064 87.7053 307.675 87.5531C307.286 87.4008 306.897 87.4008 306.507 87.4008C305.729 87.4008 304.951 87.6292 304.25 87.9336C303.861 88.0859 303.55 88.2381 303.161 88.4664C302.771 88.6948 302.46 88.847 302.149 89.0754L301.215 89.7604L300.281 90.5215C299.113 91.511 298.102 92.6527 297.323 93.9467C297.012 94.5556 296.934 95.1645 297.09 95.7734C297.245 96.3824 297.635 96.9913 298.179 97.3718C298.724 97.8285 299.347 98.2852 300.047 98.6658L300.281 98.818C300.359 98.8941 300.359 98.818 300.359 98.8941C300.436 98.8941 300.436 98.8941 300.514 98.8941H300.67C300.981 98.818 301.293 98.7419 301.604 98.5897C303.005 97.9046 304.25 96.9913 305.418 95.9257C306.585 94.8601 307.597 93.6422 308.453 92.3483C308.842 91.7394 309.154 90.9782 309.309 90.2171C309.543 89.4559 309.309 88.6187 308.687 88.162ZM308.687 88.162C309.076 88.3903 309.387 88.6948 309.543 89.0754C309.699 89.4559 309.854 89.9126 309.854 90.2932C309.854 91.1305 309.621 91.9677 309.232 92.7289C308.531 94.2511 307.519 95.6212 306.352 96.7629C305.184 98.0569 303.861 99.0464 302.304 99.8836C301.837 100.112 301.37 100.264 300.903 100.34C300.748 100.34 300.592 100.34 300.514 100.34C300.359 100.34 300.203 100.34 300.047 100.264C299.892 100.188 299.736 100.188 299.58 100.112L299.269 99.9597C298.491 99.5792 297.79 99.0464 297.09 98.5136C296.311 97.9046 295.844 97.0674 295.533 96.154C295.3 95.1645 295.455 94.175 295.922 93.3378C296.778 91.8916 298.024 90.5976 299.425 89.6082C300.748 88.5426 302.227 87.7814 303.861 87.2486C304.717 87.0203 305.573 86.868 306.43 87.0203C307.364 87.0203 308.142 87.4769 308.687 88.162Z" fill="#E1C692"/>
<path d="M317.482 95.3934C317.17 95.089 316.859 94.9367 316.47 94.7845C316.081 94.6323 315.692 94.6323 315.302 94.6323C314.524 94.6323 313.746 94.8606 313.045 95.1651C312.656 95.3173 312.345 95.4695 311.956 95.6979C311.566 95.9262 311.255 96.0785 310.944 96.3068L310.01 96.9918L309.076 97.753C307.908 98.7425 306.896 99.8842 306.118 101.178C305.807 101.787 305.729 102.396 305.885 103.005C306.04 103.614 306.429 104.223 306.974 104.603C307.519 105.06 308.142 105.517 308.842 105.897L309.076 106.049C309.154 106.126 309.154 106.049 309.154 106.126H309.309H309.465C309.776 106.049 310.088 105.973 310.399 105.821C311.8 105.136 313.045 104.223 314.213 103.157C315.38 102.092 316.392 100.874 317.248 99.5797C317.715 98.9708 317.949 98.2097 318.104 97.4485C318.338 96.6874 318.027 95.9262 317.482 95.3934ZM317.482 95.3934C317.871 95.6218 318.182 95.9262 318.338 96.3068C318.494 96.6874 318.649 97.1441 318.649 97.5246C318.649 98.3619 318.416 99.1992 318.027 99.9603C317.326 101.483 316.314 102.853 315.147 103.994C313.979 105.288 312.656 106.278 311.099 107.115C310.632 107.343 310.165 107.496 309.698 107.572C309.543 107.572 309.387 107.572 309.309 107.572C309.154 107.572 308.998 107.572 308.842 107.496C308.687 107.42 308.531 107.42 308.375 107.343L308.064 107.191C307.286 106.811 306.585 106.278 305.885 105.745C305.184 105.136 304.639 104.299 304.406 103.385C304.172 102.396 304.328 101.406 304.795 100.569C305.651 99.123 306.896 97.8291 308.297 96.8396C309.621 95.774 311.099 95.0129 312.734 94.4801C313.59 94.2517 314.446 94.0995 315.302 94.2517C316.159 94.2517 316.937 94.7084 317.482 95.3934Z" fill="#E1C692"/>
</svg>
