<svg  viewBox="0 0 400 400" fill="none" xmlns="http://www.w3.org/2000/svg">
<rect width="400" height="400" rx="30" fill="#F5F5F5"/>
<path d="M27.6486 315.646C27.6486 315.646 21.6892 242.175 27.6486 241.343C33.6081 240.511 82.8919 239.125 87.6216 241.343C92.3513 243.561 93.2973 315.646 93.2973 315.646H27.6486Z" fill="#F2EBEB"/>
<path d="M118.081 315.647C118.081 315.647 112.121 191.532 118.081 190.053C124.04 188.575 173.324 186.357 178.054 190.053C182.784 193.75 183.73 315.647 183.73 315.647H118.081Z" fill="#F2EBEB"/>
<path d="M213.054 315.647C213.054 315.647 207.094 139.687 213.054 137.653C219.013 135.62 268.297 132.478 273.027 137.653C277.757 142.829 278.703 315.647 278.703 315.647H213.054Z" fill="#F2EBEB"/>
<path d="M309.352 315.646C309.352 315.646 303.392 89.0414 309.352 86.5462C315.311 84.0509 364.595 79.7998 369.324 86.5462C374.054 93.2925 375 315.646 375 315.646H309.352Z" fill="#F2EBEB"/>
<mask id="mask0_198_1862" style="mask-type:luminance" maskUnits="userSpaceOnUse" x="306" y="82" width="69" height="234">
<path d="M308.972 315.645C308.972 315.645 303.013 89.0404 308.972 86.5452C314.932 84.05 364.215 79.7988 368.945 86.5452C373.675 93.2916 374.621 315.645 374.621 315.645H308.972Z" fill="white"/>
</mask>
<g mask="url(#mask0_198_1862)">
<path d="M487.094 327.384H486.999L157.148 245.688C156.864 245.595 156.77 245.411 156.77 245.133C156.864 244.856 157.053 244.764 157.337 244.764L487.188 326.367C487.472 326.367 487.661 326.644 487.567 326.922C487.472 327.199 487.283 327.384 487.094 327.384Z" fill="#E1C692"/>
<path d="M493.715 308.993H493.621L162.729 232.196C162.445 232.103 162.35 231.918 162.35 231.641C162.445 231.364 162.634 231.271 162.918 231.271L493.81 308.069C494.094 308.162 494.188 308.346 494.188 308.624C494.188 308.901 493.999 308.993 493.715 308.993Z" fill="#E1C692"/>
<path d="M499.959 291.988L168.216 217.316C167.932 217.223 167.837 217.039 167.837 216.761C167.932 216.484 168.121 216.392 168.405 216.392L500.053 291.064C500.337 291.156 500.432 291.341 500.432 291.618C500.337 291.803 500.148 291.988 499.959 291.988Z" fill="#E1C692"/>
<path d="M505.824 275.723L173.324 202.622C173.04 202.53 172.851 202.345 172.945 202.068C173.04 201.79 173.229 201.605 173.513 201.698L505.918 274.799C506.202 274.799 506.391 275.076 506.297 275.353C506.202 275.631 506.107 275.816 505.824 275.723Z" fill="#E1C692"/>
<path d="M512.162 258.256H512.067L177.959 190.422C177.675 190.33 177.581 190.145 177.581 189.868C177.675 189.59 177.864 189.498 178.148 189.498L512.256 257.331C512.54 257.424 512.635 257.609 512.635 257.886C512.54 258.163 512.351 258.256 512.162 258.256Z" fill="#E1C692"/>
<path d="M517.648 243.47L182.783 177.3C182.499 177.208 182.405 177.023 182.405 176.746C182.405 176.468 182.688 176.376 182.972 176.376L517.742 242.546C518.026 242.546 518.121 242.823 518.121 243.1C518.026 243.285 517.837 243.47 517.648 243.47Z" fill="#E1C692"/>
<path d="M521.054 234.135L185.905 168.89C185.621 168.797 185.432 168.612 185.527 168.335C185.621 168.058 185.81 167.873 186.094 167.965L521.148 233.304C521.432 233.396 521.527 233.581 521.527 233.858C521.527 233.951 521.243 234.135 521.054 234.135Z" fill="#E1C692"/>
<path d="M523.985 226.002L189.783 158.169C189.499 158.076 189.31 157.892 189.404 157.614C189.499 157.337 189.688 157.152 189.972 157.245L524.08 225.078C524.364 225.078 524.458 225.355 524.458 225.633C524.458 225.817 524.269 226.002 523.985 226.002Z" fill="#E1C692"/>
<path d="M284.945 350.211C284.85 350.211 284.85 350.211 284.756 350.211C284.472 350.119 284.377 349.842 284.472 349.657L393.634 74.9037C393.729 74.6265 394.013 74.534 394.202 74.6265C394.485 74.7189 394.58 74.9961 394.485 75.1809C394.485 75.1809 394.485 75.1809 394.485 75.2734L285.323 349.934C285.229 350.119 285.134 350.211 284.945 350.211Z" fill="#E1C692"/>
<path d="M268.107 345.868C268.013 345.868 268.013 345.868 267.918 345.868C267.634 345.775 267.54 345.498 267.634 345.313L370.742 69.8207C370.837 69.5434 371.121 69.451 371.31 69.5434C371.499 69.6359 371.688 69.9131 371.594 70.0979L268.486 345.59C268.486 345.775 268.296 345.868 268.107 345.868Z" fill="#E1C692"/>
<path d="M249.567 341.709C249.283 341.709 249.094 341.525 249.094 341.247C249.094 341.155 249.094 341.155 249.094 341.062L349.459 64.9232C349.553 64.646 349.837 64.5536 350.026 64.646C350.31 64.7384 350.405 65.0157 350.31 65.2005L250.04 341.432C249.945 341.617 249.756 341.709 249.567 341.709Z" fill="#E1C692"/>
<path d="M231.31 337.734H231.216C230.932 337.642 230.837 337.364 230.932 337.18L329.405 60.4859C329.499 60.2086 329.689 60.1162 329.972 60.1162C330.256 60.2086 330.351 60.3935 330.351 60.6707V60.7631L231.783 337.457C231.689 337.642 231.5 337.734 231.31 337.734Z" fill="#E1C692"/>
<path d="M216.08 334.222C215.986 334.222 215.986 334.222 215.891 334.222C215.607 334.13 215.513 333.852 215.607 333.668L307.553 55.6801C307.648 55.4028 307.932 55.3104 308.121 55.4028C308.405 55.4952 308.499 55.7725 308.405 55.9573L216.459 333.945C216.553 334.037 216.364 334.222 216.08 334.222Z" fill="#E1C692"/>
<path d="M477.35 211.587H477.256L205.958 143.107C205.675 143.014 205.58 142.83 205.58 142.552C205.675 142.275 205.864 142.183 206.148 142.183L477.445 210.663C477.729 210.663 477.918 210.94 477.823 211.217C477.729 211.495 477.634 211.679 477.35 211.587Z" fill="#E1C692"/>
<path d="M484.067 193.288H483.972L211.54 129.614C211.256 129.521 211.161 129.336 211.161 129.059C211.256 128.782 211.445 128.689 211.729 128.689L484.256 192.364C484.54 192.364 484.729 192.641 484.634 192.919C484.54 193.196 484.35 193.288 484.067 193.288Z" fill="#E1C692"/>
<path d="M490.215 176.281H490.121L216.837 114.732C216.553 114.64 216.364 114.455 216.459 114.178C216.553 113.901 216.743 113.716 217.026 113.808L490.31 175.357C490.594 175.45 490.688 175.635 490.688 175.912C490.688 176.097 490.405 176.281 490.215 176.281Z" fill="#E1C692"/>
<path d="M496.08 160.018H495.986L222.04 100.04C221.756 99.9476 221.567 99.7627 221.661 99.4855C221.756 99.2082 221.945 99.0234 222.229 99.1158L496.175 159.094C496.459 159.094 496.648 159.371 496.553 159.648C496.459 159.926 496.364 160.018 496.08 160.018Z" fill="#E1C692"/>
<path d="M502.513 142.551L226.675 87.8412C226.391 87.8412 226.297 87.5639 226.297 87.2867C226.391 87.0094 226.581 86.917 226.864 86.917L502.607 141.627C502.891 141.627 503.08 141.905 503.08 142.089C503.08 142.274 502.702 142.551 502.513 142.551Z" fill="#E1C692"/>
<path d="M507.904 127.763L231.499 74.7158C231.215 74.6234 231.026 74.4385 231.121 74.1613C231.215 73.884 231.405 73.6992 231.688 73.7916L507.999 126.838C508.283 126.838 508.377 127.116 508.377 127.393C508.377 127.578 508.188 127.763 507.904 127.763Z" fill="#E1C692"/>
<path d="M511.31 118.337H511.215L234.526 66.2148C234.242 66.1224 234.053 65.9376 234.148 65.6603C234.242 65.3831 234.432 65.1982 234.715 65.2906L511.404 117.413C511.688 117.506 511.783 117.691 511.783 117.968C511.783 118.245 511.594 118.337 511.31 118.337Z" fill="#E1C692"/>
<path d="M514.242 110.297H514.148L238.404 55.5863C238.121 55.5863 238.026 55.309 238.026 55.0318C238.121 54.7545 238.31 54.6621 238.594 54.6621L514.337 109.372C514.621 109.372 514.715 109.65 514.715 109.927C514.715 110.112 514.526 110.297 514.242 110.297Z" fill="#E1C692"/>
<path d="M363.743 373.222C363.459 373.222 363.27 373.037 363.27 372.76C363.27 372.667 363.27 372.667 363.27 372.575L461.742 95.8812C461.837 95.604 462.121 95.5116 462.31 95.604C462.594 95.6964 462.688 95.9737 462.594 96.1585L364.121 372.852C364.121 373.037 363.932 373.222 363.743 373.222Z" fill="#E1C692"/>
<path d="M348.513 369.618H348.418C348.134 369.525 348.04 369.248 348.134 369.063L440.08 91.0756C440.175 90.7983 440.459 90.7059 440.648 90.7983C440.932 90.8907 441.026 91.168 440.932 91.3528L348.986 369.34C348.891 369.525 348.702 369.618 348.513 369.618Z" fill="#E1C692"/>
<path d="M332.148 365.92H332.053C331.769 365.828 331.675 365.551 331.769 365.366L421.634 86.9164C421.729 86.6392 422.013 86.5467 422.202 86.6391C422.486 86.7316 422.58 87.0088 422.486 87.1936L332.621 365.643C332.526 365.736 332.337 365.92 332.148 365.92Z" fill="#E1C692"/>
<path d="M321.553 363.518H321.459C321.175 363.426 321.081 363.148 321.175 362.964L409.905 84.2367C409.999 83.9595 410.283 83.867 410.472 83.9595C410.756 84.0519 410.851 84.3291 410.756 84.514L322.026 363.241C321.932 363.426 321.743 363.518 321.553 363.518Z" fill="#E1C692"/>
<path d="M308.31 360.559H308.215C307.932 360.466 307.837 360.189 307.932 360.004L399.877 81.9242C399.972 81.647 400.256 81.5545 400.445 81.647C400.729 81.7394 400.823 82.0166 400.729 82.2015L308.783 360.189C308.688 360.374 308.499 360.559 308.31 360.559Z" fill="#E1C692"/>
</g>
<path d="M310.676 70.4673C304.338 62.612 304.716 51.4296 310.77 43.3894C315.405 37.3824 322.878 31.3753 334.135 32.1147C362.797 34.0554 356.932 71.6687 343.595 76.9364C333.946 80.9103 318.905 80.8179 310.676 70.4673Z" fill="#E1C692"/>
<path d="M312 53.5551C312 53.5551 313.892 25.4606 342.554 32.2994C365.068 37.6595 361.379 70.5596 349.554 76.197C334.798 83.2206 314.271 80.0785 312 53.5551Z" fill="#E1C692"/>
<path d="M323.73 34.1475C320.135 37.1048 317.203 40.8014 315.311 45.0526C311.716 53.5548 313.041 63.2585 318.905 70.3746C321.932 73.8864 325.622 76.7513 329.878 78.7844C325.243 77.3982 321.081 74.8105 317.77 71.2987C316.162 69.5428 314.743 67.5097 313.703 65.2917C312.662 63.0737 312 60.7633 311.622 58.3605C311.243 55.9577 311.243 53.5548 311.622 51.152C312 48.7492 312.757 46.4388 313.892 44.3132C316.068 40.1545 319.473 36.5503 323.73 34.1475Z" fill="#F2EBEB"/>
<path d="M312.095 71.576C312.473 71.2063 312.852 70.8366 313.325 70.5594C313.798 70.3745 314.176 70.1897 314.744 70.0973C315.217 70.0049 315.69 70.0049 316.163 70.0049C316.73 70.0049 317.203 70.1897 317.771 70.3745C317.392 70.7442 317.014 71.1139 316.541 71.3911C316.068 71.576 315.69 71.7608 315.122 71.8532C314.649 71.9456 314.176 71.9456 313.703 71.9456C313.136 72.038 312.663 71.8532 312.095 71.576Z" fill="#F2EBEB"/>
<path d="M308.406 62.9814C308.595 62.6118 308.973 62.2421 309.352 61.9649C309.635 61.78 310.014 61.5952 310.392 61.5028C310.771 61.4104 311.149 61.3179 311.527 61.4103C312 61.4103 312.473 61.5952 312.852 61.78C312.662 62.1497 312.284 62.5193 311.906 62.7966C311.622 62.9814 311.244 63.1663 310.865 63.2587C310.487 63.3511 310.108 63.4435 309.73 63.3511C309.257 63.3511 308.879 63.2587 308.406 62.9814Z" fill="#F2EBEB"/>
<path d="M307.933 53.2784C308.311 52.539 309.068 52.0769 309.825 51.8921C310.581 51.7073 311.433 51.8921 312.095 52.3542C311.906 52.7239 311.622 53.0011 311.243 53.2784C310.676 53.7404 309.919 53.8329 309.162 53.7404C308.689 53.7404 308.216 53.5556 307.933 53.2784Z" fill="#F2EBEB"/>
<path d="M309.919 45.4237C310.203 45.054 310.581 44.6844 310.96 44.4995C311.338 44.3147 311.716 44.2223 312.095 44.1299C312.473 44.0374 312.946 44.0374 313.325 44.1299C313.798 44.2223 314.271 44.4071 314.649 44.6844C314.365 45.054 313.987 45.4237 313.608 45.6085C313.23 45.7933 312.852 45.8858 312.473 45.9782C312.095 46.0706 311.622 46.0706 311.244 45.9782C310.771 45.8858 310.298 45.7009 309.919 45.4237Z" fill="#F2EBEB"/>
<path d="M328.176 60.7646C327.797 60.5798 326.284 64.184 326.284 64.184C326.284 64.184 332.716 70.2835 339.243 65.9399C345.77 61.5964 340.946 55.0348 335.838 52.0775C330.73 49.1202 335.649 44.2221 338.297 45.978C339.905 46.9946 341.513 48.0112 343.216 48.8429L344.446 46.3477C344.446 46.3477 338.108 40.6179 333.757 43.9449C329.405 47.2719 328.743 51.0609 334.04 54.85C339.338 58.639 340.378 66.5868 328.176 60.7646Z" fill="#000001"/>
<path d="M332.413 64.704L331.396 69.0273L333.793 69.5651L334.81 65.2418L332.413 64.704Z" fill="#000001"/>
<path d="M338.419 39.1223L337.34 43.7158L339.737 44.2536L340.816 39.6601L338.419 39.1223Z" fill="#000001"/>
<path d="M306.041 39.1372C305.19 38.7676 304.433 38.2131 303.676 37.6586C303.014 37.1041 302.352 36.4572 301.784 35.8103C301.217 35.1633 300.649 34.424 300.176 33.6847C299.703 32.9454 299.23 32.1136 298.946 31.1895C299.798 31.5591 300.555 32.1136 301.217 32.6681C301.879 33.2226 302.541 33.8695 303.109 34.5164C303.676 35.1633 304.244 35.9027 304.717 36.642C305.284 37.3813 305.757 38.2131 306.041 39.1372Z" fill="#E1C692"/>
<path d="M326.379 28.6027C326.19 27.4937 326 26.4771 325.906 25.3681C325.811 24.2591 325.717 23.2425 325.717 22.226C325.717 21.117 325.717 20.1004 325.811 18.9914C325.906 17.8824 326.095 16.7734 326.379 15.7568C326.852 16.7734 327.136 17.8824 327.325 18.899C327.514 20.008 327.609 21.0246 327.609 22.1335C327.609 23.2425 327.609 24.2591 327.419 25.3681C327.23 26.5695 326.946 27.6785 326.379 28.6027Z" fill="#E1C692"/>
<path d="M344.541 28.6047C344.541 27.773 344.73 26.8488 345.014 26.1095C345.298 25.2777 345.582 24.5384 345.96 23.7991C346.338 23.0598 346.811 22.3204 347.284 21.6735C347.757 21.0266 348.419 20.3797 349.082 19.8252C349.082 20.6569 348.892 21.5811 348.609 22.3204C348.325 23.1522 348.041 23.8915 347.663 24.6308C347.284 25.3702 346.811 26.1095 346.338 26.7564C345.865 27.4957 345.203 28.1426 344.541 28.6047Z" fill="#E1C692"/>
<path d="M358.919 37.289C359.392 36.827 359.96 36.3649 360.622 36.0876C361.189 35.8104 361.852 35.5331 362.419 35.3483C363.081 35.1635 363.743 35.0711 364.406 34.9786C365.068 34.8862 365.824 34.9786 366.487 35.1635C366.014 35.6256 365.446 36.0876 364.784 36.3649C364.216 36.6421 363.554 36.9194 362.892 37.1042C362.23 37.289 361.568 37.3815 360.906 37.4739C360.338 37.5663 359.581 37.4739 358.919 37.289Z" fill="#E1C692"/>
<path d="M170.676 189.127C173.324 188.665 176.824 188.018 176.824 188.018C176.824 188.018 173.419 185.245 171.432 185.523C169.446 185.8 167.365 173.416 167.365 173.416L162.351 174.617L158.189 184.506L160.932 185.615C160.932 185.615 163.108 182.196 163.676 184.044C164.054 185.43 164.243 186.816 164.432 188.295L170.676 189.127Z" fill="#000001"/>
<path d="M236.135 124.898C236.135 124.898 230.365 126.931 227.149 127.116C223.933 127.3 226.203 117.874 226.203 117.874L218.162 120.277C218.162 120.277 215.324 132.476 217.5 137.004L220.716 136.265C220.716 136.265 220.433 128.687 221.662 130.165C222.892 131.644 222.703 133.954 223.27 133.77C223.838 133.585 236.135 125.914 236.135 124.898Z" fill="#000001"/>
<path d="M158.189 176.558L172.851 173.416C172.851 173.416 191.581 91.3509 191.676 87.8391C191.77 84.3273 172.189 82.8486 169.824 87.8391C167.365 92.8295 158.189 176.558 158.189 176.558Z" fill="#000001"/>
<path d="M182.216 99.2994C182.216 99.2994 212.297 94.8634 213.906 95.2331C215.514 95.6027 216.649 122.588 216.649 122.588L230.838 116.951C230.838 116.951 228.946 84.5128 226.392 80.3541C223.838 76.1954 181.554 84.79 181.554 84.79L182.216 99.2994Z" fill="#000001"/>
<path d="M189.216 54.1066C189.216 54.1066 201.23 59.744 201.419 59.4668C201.608 59.1895 208.23 42.647 208.23 42.647C208.23 42.647 204.446 38.0262 204.73 36.4551C205.014 34.8841 207.095 35.531 207.095 35.531C207.095 35.531 209.932 31.9268 210.595 33.4978C210.595 33.4978 213.149 31.8343 212.865 34.6992C212.865 34.6992 215.135 34.0523 214.851 36.5476C214.568 39.0428 212.487 40.7987 211.73 43.2015C210.973 45.6043 210.5 68.1539 206.243 69.4477C201.987 70.7415 188.932 63.071 188.932 63.071L189.216 54.1066Z" fill="#EA8383"/>
<path d="M177.676 49.7646C177.676 49.7646 182.311 50.6888 192.716 55.7717L192.338 65.5678C192.338 65.5678 179.757 65.1057 178.905 60.3001C178.054 55.4944 177.676 49.7646 177.676 49.7646Z" fill="#000001"/>
<path d="M188.081 57.7124C190.068 60.3924 192.716 63.7194 192.811 64.736C193.095 67.5085 190.73 68.7099 190.919 72.1293L196.784 80.2619C179.757 90.4277 166.892 91.4442 166.892 91.4442C169.162 81.0936 170.487 70.4658 170.676 59.838C170.77 53.7385 176.541 50.2267 176.541 50.2267C176.541 50.2267 179.095 46.9921 188.081 57.7124Z" fill="#E1C692"/>
<path d="M206.527 37.4721C207.189 37.5645 207.946 37.5645 208.608 37.5645C208.702 37.5645 208.797 37.5645 208.892 37.4721C208.892 37.4721 208.892 37.4721 208.797 37.4721C208.702 37.2872 208.513 37.01 208.324 36.9175C207.851 36.5479 207.284 36.1782 206.716 35.901C206.148 35.6237 205.392 35.7161 204.919 36.1782C205.108 35.8086 205.392 35.5313 205.675 35.3465C206.054 35.1616 206.527 35.1616 206.905 35.2541C207.662 35.4389 208.419 35.8086 208.986 36.2706C209.365 36.5479 209.554 36.9175 209.743 37.3796C209.838 37.7493 209.648 38.119 209.365 38.3038C209.175 38.3962 208.892 38.4886 208.608 38.3962C207.757 38.2114 207.094 37.9341 206.527 37.4721Z" fill="#000001"/>
<path d="M212.865 34.7939C212.675 35.8105 212.486 36.7347 212.108 37.6588C212.013 37.8437 211.919 38.0285 211.919 38.3058C211.919 38.3982 211.919 38.4906 211.824 38.4906L211.73 38.3982C211.635 38.3982 211.635 38.3982 211.73 38.3982C212.203 38.3982 212.581 38.2133 212.865 37.8437C212.865 38.3982 212.392 38.9527 211.824 39.0451C211.73 39.0451 211.54 39.0451 211.446 39.0451C211.351 39.0451 211.257 38.9527 211.162 38.8603C211.162 38.7678 211.067 38.7678 211.067 38.6754C211.067 38.4906 211.067 38.3058 211.067 38.1209C211.067 37.8437 211.162 37.5664 211.257 37.3816C211.446 36.9195 211.635 36.4574 211.919 35.9953C212.203 35.5333 212.486 35.1636 212.865 34.7939Z" fill="#000001"/>
<path d="M210.595 33.5898C210.311 34.7913 209.932 35.9927 209.554 37.1941C209.365 37.7486 209.27 38.3955 209.459 38.3031C209.838 38.4879 210.5 38.2106 210.973 37.841C210.878 38.1182 210.689 38.3955 210.405 38.6727C210.122 38.95 209.649 39.0424 209.27 38.95C209.176 38.95 209.081 38.8576 208.892 38.8576C208.703 38.7651 208.608 38.6727 208.514 38.4879C208.419 38.3031 208.419 38.0258 208.419 37.841C208.419 37.4713 208.514 37.1941 208.608 36.8244C208.797 36.1775 209.081 35.623 209.365 35.0685C209.743 34.6064 210.122 34.0519 210.595 33.5898Z" fill="#000001"/>
<path d="M169.446 61.0378C169.446 61.0378 154.216 64.0875 154.121 64.3647C154.027 64.642 150.527 83.6797 150.527 83.6797C150.527 83.6797 155.067 87.6536 154.973 89.2247C154.878 90.7957 152.797 90.5185 152.797 90.5185C152.797 90.5185 150.527 94.5848 149.675 93.1061C149.675 93.1061 147.405 95.1393 147.216 92.2744C147.216 92.2744 145.04 93.291 144.946 90.7957C144.851 88.3005 146.554 86.1749 146.838 83.7721C147.121 81.3693 143.811 58.9122 147.878 56.9715C151.946 55.0307 171.716 51.6113 171.716 51.6113L169.446 61.0378Z" fill="#EA8383"/>
<path d="M176.54 50.2266C176.54 50.2266 161.878 52.7218 161.31 53.4611C160.743 54.2005 160.837 63.7193 161.216 63.6269L172 61.871L176.54 50.2266Z" fill="#E1C692"/>
<path d="M179.284 44.1278C181.27 44.1278 188.459 43.8505 188.459 43.8505C188.459 43.8505 186.473 37.3814 183.351 37.289C180.23 37.1966 179.284 44.1278 179.284 44.1278Z" fill="#000001"/>
<path d="M181.365 57.7117C181.743 57.989 182.216 57.8965 182.5 57.5269C182.595 57.342 182.689 57.1572 182.689 56.88C182.027 53.7378 179.662 44.681 181.649 44.219C185.243 43.2948 186.568 38.5816 186.568 38.5816C186.568 38.5816 189.5 37.1953 189.406 36.5484C189.311 35.9015 186.757 34.7925 184.96 33.4063C183.162 32.02 181.838 29.8945 179.946 30.5414C178.054 31.1883 180.608 33.4063 179.568 35.8091C179.095 36.7333 178.149 37.2878 177.203 37.3802C177.203 37.3802 176.541 35.1622 174.46 37.1029C172.379 39.0437 176.352 40.9844 176.162 41.6313C175.784 42.9251 175.973 51.335 175.784 52.9061C175.689 53.1833 179.568 56.4179 181.365 57.7117Z" fill="#EA8383"/>
<path d="M179.851 36.6403C179.851 36.6403 182.405 34.4224 184.203 36.1783C184.203 36.1783 181.554 38.3962 179.851 36.6403Z" fill="#F2EBEB"/>
<path d="M179.756 36.6417C179.946 36.2721 180.229 35.9948 180.608 35.7176C180.986 35.4403 181.365 35.2555 181.838 35.1631C182.311 35.0706 182.783 35.0706 183.256 35.1631C183.729 35.2555 184.108 35.6251 184.297 36.0872C183.919 35.9948 183.54 35.9024 183.162 35.9024C182.783 35.9024 182.405 35.9948 182.121 36.0872C181.27 36.1796 180.608 36.4569 179.756 36.6417Z" fill="#000001"/>
<path d="M182.5 35.5296C182.5 35.5296 181.743 36.0841 182.689 37.1007C182.689 37.1007 184.581 36.3614 184.203 36.0841C184.203 35.9917 183.162 35.2524 182.5 35.5296Z" fill="#000001"/>
<path d="M180.229 37.8419C180.04 37.8419 179.946 37.7495 179.946 37.5646C179.946 37.4722 179.946 37.3798 179.946 37.2874C180.04 37.195 180.229 37.1025 180.513 37.2874C180.702 37.657 180.702 37.7495 180.702 37.7495H180.608C180.513 37.7495 180.324 37.7495 180.229 37.8419Z" fill="#000001"/>
<path d="M181.175 37.8414C180.797 37.749 180.797 37.5642 180.797 37.3794C180.797 37.2869 180.892 37.1945 180.986 37.1945C181.175 37.1021 181.27 37.1945 181.365 37.2869C181.554 37.6566 181.648 37.6566 181.648 37.749C181.648 37.8414 181.554 37.749 181.175 37.8414Z" fill="#000001"/>
<path d="M182.311 40.7994C182.594 40.4297 182.973 40.3373 183.351 40.5221C184.013 40.7994 183.067 42.4628 182.027 42.278C180.986 42.0932 182.311 40.7994 182.311 40.7994Z" fill="#A04040"/>
<path d="M182.122 39.875C182.405 40.2447 182.689 40.6143 182.973 40.8916C183.068 40.984 183.257 41.0764 183.446 41.2612C183.635 41.4461 183.919 41.5385 184.108 41.7233C183.54 42.093 182.878 42.0006 182.405 41.6309C181.838 41.1688 181.743 40.4295 182.122 39.875Z" fill="#000001"/>
<path d="M180.135 34.6992C180.23 34.2371 180.514 33.9599 180.987 33.775C181.176 33.6826 181.365 33.6826 181.554 33.6826C181.838 33.6826 182.027 33.775 182.216 34.0523C182.027 34.2371 181.933 34.3295 181.743 34.4219C181.649 34.5144 181.46 34.6068 181.27 34.6992C180.892 34.6992 180.514 34.7916 180.135 34.6992Z" fill="#000001"/>
<path d="M181.554 30.1717C181.554 30.1717 180.608 36.9181 176.351 39.5982C176.351 39.5982 180.513 41.5389 179.851 43.9417C179.189 46.3445 183.257 46.8066 183.162 48.6549L162.351 47.5459C162.351 47.5459 163.959 41.8162 167.932 41.6313C171.905 41.4465 166.608 37.1953 170.865 32.9442C175.122 28.6931 181.554 30.1717 181.554 30.1717Z" fill="#A04040"/>
<path d="M181.554 30.1729C181.554 31.4667 181.364 32.7605 180.986 34.0543C180.608 35.3481 180.04 36.5496 179.189 37.5661C178.337 38.6751 177.202 39.5069 175.972 40.0614C174.648 40.5234 173.229 40.5234 172 40.1538C173.324 40.1538 174.554 39.969 175.689 39.4145C176.824 38.86 177.77 38.0282 178.432 37.1041C179.189 36.0875 179.851 34.9785 180.324 33.8695C180.797 32.5757 181.175 31.3743 181.554 30.1729Z" fill="#000001"/>
<path d="M180.986 48.4716L175.878 49.1185V48.1943L180.986 48.4716Z" fill="#000001"/>
<path d="M65.8647 316.201C65.8647 316.201 70.3107 322.67 69.3647 323.687C68.4188 324.703 65.6755 329.509 65.6755 329.509C65.6755 329.509 70.1215 332.096 68.9863 334.684C67.8512 337.272 65.9593 338.473 68.608 340.414C71.2566 342.355 71.2566 342.539 70.9728 343.833C70.689 345.127 68.135 347.992 69.2701 348.824C70.4053 349.656 73.9053 349.563 73.1485 351.227C72.3918 352.89 69.7431 354.646 69.7431 354.646C69.7431 354.646 266.784 386.53 268.959 386.437C271.135 386.345 328.743 332.374 328.554 330.803C328.365 329.232 325.811 323.409 326.851 322.393C327.892 321.191 328.554 319.713 328.743 318.142C328.648 317.125 326.378 315.369 326.378 315.369L329.878 309.547L327.419 304.649L334.23 293.651L65.8647 316.201Z" fill="#E1C692"/>
<path d="M65.8649 316.199C65.8649 316.199 139.365 266.202 144.378 265.832C149.392 265.463 333.946 289.768 334.135 293.557C334.324 297.346 270.473 348.914 270.473 348.914L65.8649 316.199Z" fill="#E1C692"/>
<path d="M93.2028 305.477C93.2028 305.477 134.257 278.954 135.77 278.861C137.284 278.769 155.257 280.248 161.027 273.594C161.027 273.594 290.149 289.304 295.919 292.077C295.919 292.077 293.081 303.537 305.851 310.745C305.851 310.745 279.743 334.126 277.757 334.219C275.77 334.311 257.324 329.783 245.122 339.949L100.392 316.567C100.297 316.567 98.8784 306.032 93.2028 305.477Z" fill="#F2EBEB"/>
<path d="M235.757 319.529C235.757 319.529 249.662 301.139 267.446 299.383C285.23 297.627 280.406 310.103 268.865 319.252C257.324 328.401 229.041 332.56 235.757 319.529Z" fill="#E1C692"/>
<path d="M100.959 309.732L99.8243 308.253L112.595 298.642L109.095 298.919L109 297.071L118.649 296.424L100.959 309.732Z" fill="#000001"/>
<path d="M115.716 313.796C114.581 313.888 113.541 313.611 112.5 313.057C111.176 312.225 110.419 310.654 110.608 309.083C110.798 302.891 124.23 299.471 125.933 299.102C128.392 298.27 131.041 299.564 131.987 301.874C132.933 304.185 132.271 307.789 127.257 310.192C124.325 311.763 119.406 313.796 115.716 313.796ZM127.541 300.673C127.162 300.673 126.879 300.765 126.5 300.858H126.406C122.622 301.782 112.595 305.016 112.5 309.083C112.311 310.007 112.689 310.931 113.446 311.485C115.338 312.687 120.352 311.578 126.311 308.621C130.189 306.68 130.757 304.185 130.095 302.614C129.716 301.505 128.676 300.765 127.541 300.673Z" fill="#000001"/>
<path d="M134.824 318.326C133.689 318.419 132.649 318.141 131.608 317.587C130.284 316.755 129.527 315.184 129.716 313.613C129.905 307.421 143.338 304.002 145.041 303.632C147.5 302.8 150.149 304.094 151.095 306.405C152.041 308.715 151.378 312.319 146.365 314.722C143.338 316.293 138.514 318.326 134.824 318.326ZM146.554 305.203C146.27 305.203 145.892 305.296 145.608 305.388H145.514C141.73 306.312 131.703 309.547 131.608 313.613C131.419 314.537 131.797 315.461 132.554 316.016C134.541 317.217 139.46 316.108 145.419 313.151C149.297 311.21 149.865 308.715 149.203 307.144C148.824 305.942 147.784 305.296 146.554 305.203Z" fill="#000001"/>
<path d="M270.473 348.916C270 350.672 269.432 352.52 269.054 354.276C268.959 354.738 268.865 355.2 268.77 355.57C268.676 355.94 268.676 356.402 268.77 356.771C268.77 356.771 268.77 356.771 268.77 356.864L268.959 357.049C269.149 357.141 269.338 357.326 269.432 357.418L270.568 358.158C271.419 358.62 272.176 359.174 273.027 359.729C273.5 360.098 273.878 360.468 274.162 361.023C274.257 361.207 274.351 361.392 274.351 361.669C274.351 361.947 274.257 362.224 274.162 362.501C274.068 362.594 274.068 362.686 273.973 362.686L273.878 362.778L273.595 363.056C272.176 364.442 270.757 365.643 269.338 366.845L269.243 365.459C270.473 366.29 271.608 367.214 272.743 368.139C273.311 368.601 273.878 369.155 274.351 369.71C274.635 369.987 274.919 370.357 275.108 370.726C275.297 371.003 275.297 371.281 275.392 371.558C275.487 372.02 275.297 372.482 274.919 372.852C274.824 372.944 274.73 373.037 274.635 373.037L274.446 373.129L273.973 373.406L273.122 373.961L271.419 375.255L268.014 377.842V376.826C269.338 377.842 270.568 378.859 271.797 379.875L272.081 380.153L271.892 380.43C270.851 382.371 269.811 384.311 268.77 386.252C269.432 384.127 270.284 382.093 271.041 380.06L271.23 380.615C269.905 379.691 268.486 378.766 267.162 377.842L266.5 377.38L267.162 376.826C268.203 375.902 269.338 374.885 270.473 374.053L272.176 372.667L273.027 372.02L273.5 371.65L273.784 371.466L273.878 371.373C273.784 371.373 273.689 371.65 273.784 371.65C273.784 371.558 273.784 371.558 273.689 371.466C273.5 371.188 273.405 371.003 273.122 370.819C272.649 370.357 272.176 369.894 271.608 369.432C270.568 368.508 269.432 367.676 268.297 366.845L267.351 366.198L268.297 365.459C269.716 364.257 271.23 363.056 272.554 361.854L272.932 361.485C272.932 361.577 272.932 361.577 272.932 361.669C272.743 361.392 272.459 361.115 272.176 360.838C271.514 360.283 270.757 359.729 270 359.174C269.622 358.897 269.243 358.62 268.865 358.342C268.676 358.158 268.487 357.973 268.297 357.88C268.203 357.788 268.108 357.696 268.014 357.511C267.919 357.326 267.824 357.141 267.824 356.956C267.824 356.402 267.824 355.94 268.014 355.385C268.108 354.923 268.297 354.461 268.392 353.999C268.959 352.335 269.716 350.672 270.473 348.916Z" fill="#000001"/>
<path d="M148.352 367.4C148.352 367.4 148.352 334.5 148.446 329.417C148.541 324.334 213.622 277.664 221.473 275.446C229.325 273.228 260.541 277.571 260.73 278.218C260.825 279.142 260.919 279.974 260.919 280.898C260.919 280.898 194.23 329.417 191.96 336.348C189.689 343.279 192.716 369.156 191.014 374.239C189.311 379.321 148.352 369.987 148.352 367.4Z" fill="#E1C692"/>
<path d="M74.946 323.041C80.2433 323.503 85.5406 324.15 90.8379 324.889C96.1352 325.629 101.338 326.368 106.635 327.2C111.933 328.031 117.135 328.956 122.338 329.972C127.541 330.989 132.838 332.005 138.041 333.207C132.743 332.745 127.446 332.098 122.149 331.358C116.851 330.619 111.554 329.88 106.351 329.048C101.149 328.216 95.8514 327.292 90.6487 326.276C85.446 325.259 80.1487 324.242 74.946 323.041Z" fill="#000001"/>
<path d="M73.4326 332.927C76.7434 333.112 80.0542 333.389 83.365 333.851C86.6759 334.313 89.9867 334.775 93.2029 335.237C96.4191 335.699 99.7299 336.346 102.946 337.085C106.162 337.825 109.473 338.472 112.595 339.396C109.284 339.211 105.973 338.934 102.662 338.472C99.3515 338.01 96.0407 337.548 92.8245 337.085C89.6083 336.623 86.2975 335.976 83.0813 335.237C79.8651 334.498 76.6488 333.851 73.4326 332.927Z" fill="#000001"/>
<path d="M85.8243 342.353C89.9865 342.63 94.0541 343.092 98.1216 343.646C102.189 344.201 106.257 344.848 110.419 345.495C114.581 346.142 118.554 346.881 122.622 347.713C126.689 348.544 130.757 349.376 134.73 350.485C130.568 350.208 126.5 349.746 122.338 349.191C118.176 348.637 114.203 348.082 110.135 347.343C106.068 346.604 102 345.957 97.9324 345.125C93.8649 344.293 89.7973 343.369 85.8243 342.353Z" fill="#000001"/>
<path d="M198.77 365.919C203.878 366.289 209.081 367.028 214.095 367.675C219.108 368.322 224.311 369.246 229.324 370.078C234.338 370.909 239.446 371.926 244.46 372.85C249.473 373.774 254.487 374.976 259.5 376.177C254.392 375.623 249.284 374.976 244.176 374.236C239.068 373.497 233.96 372.665 228.946 371.834C223.933 371.002 218.824 370.078 213.811 369.061C211.257 368.599 208.797 368.044 206.243 367.49L198.77 365.919Z" fill="#000001"/>
<path d="M260.446 364.72C255.811 364.166 251.081 363.334 246.541 362.595C242 361.855 237.27 360.839 232.73 359.915C228.189 358.991 223.554 357.974 219.014 356.865C214.473 355.756 209.933 354.647 205.392 353.261C210.027 353.815 214.662 354.647 219.297 355.386C223.933 356.126 228.568 357.142 233.108 358.066C237.649 358.991 242.284 360.007 246.824 361.116C251.365 362.225 255.905 363.427 260.446 364.72Z" fill="#000001"/>
<path d="M278.04 360.652C280.784 357.787 283.621 355.107 286.554 352.427C289.486 349.747 292.419 347.159 295.446 344.572C298.473 341.984 301.5 339.489 304.621 336.994C307.743 334.498 310.865 332.096 314.081 329.785C311.338 332.65 308.5 335.33 305.567 338.01C302.635 340.69 299.703 343.278 296.676 345.866C293.649 348.453 290.621 350.948 287.5 353.444C284.378 355.939 281.257 358.434 278.04 360.652Z" fill="#000001"/>
<path d="M294.122 336.715C295.824 334.867 297.622 333.203 299.419 331.54C301.216 329.876 303.108 328.305 305.095 326.734C307.081 325.163 308.973 323.685 310.959 322.206C312.946 320.727 315.027 319.341 317.203 318.14C315.5 319.988 313.703 321.744 311.905 323.315C310.108 324.886 308.216 326.549 306.23 328.121C304.243 329.692 302.351 331.17 300.365 332.649C298.378 334.035 296.297 335.421 294.122 336.715Z" fill="#000001"/>
<path d="M278.514 367.859C279.649 366.38 280.878 364.902 282.203 363.608C283.527 362.222 284.851 360.928 286.27 359.726C287.689 358.525 289.108 357.324 290.622 356.122C292.135 354.921 293.743 353.904 295.351 352.888C294.216 354.366 292.987 355.845 291.662 357.139C290.338 358.525 289.014 359.819 287.595 361.02C286.176 362.222 284.757 363.423 283.243 364.625C281.73 365.826 280.122 366.843 278.514 367.859Z" fill="#000001"/>
<path d="M65.8649 316.201L90.9324 319.898C99.2567 321.099 107.581 322.393 115.905 323.687C132.554 326.274 149.203 328.769 165.946 331.45L215.892 339.397L265.838 347.53L265.176 347.715L282.392 334.13L299.608 320.544L316.824 307.052L334.135 293.651L317.203 307.514L300.27 321.376L283.243 335.146L266.216 348.916L265.932 349.101L265.554 349.009L215.608 341.153L165.662 333.113C149.013 330.433 132.365 327.66 115.716 324.888C107.392 323.502 99.0676 322.116 90.7432 320.637L65.8649 316.201Z" fill="#000001"/>
<path d="M171.811 287.273C171.338 287.273 170.865 287.18 170.487 286.903C170.203 286.626 170.203 286.256 170.487 285.979C170.96 285.425 174.176 284.038 177.108 283.576C177.203 283.484 177.203 283.391 177.108 283.299C176.635 282.744 174.365 282.652 171.811 283.022C170.108 284.685 167.838 285.609 165.379 285.702C164.716 285.702 164.338 285.425 164.243 285.055C164.054 284.5 164.811 284.038 165.095 283.853C167.081 282.929 169.162 282.375 171.338 282.19C171.716 281.728 172 281.266 172.189 280.804C172.284 280.434 172.379 280.249 172.284 280.157C171.338 279.417 165.189 282.19 159.892 285.147L159.419 284.316C162.068 282.837 171.054 277.939 172.851 279.418C173.135 279.695 173.419 280.157 173.041 281.173C172.946 281.451 172.757 281.82 172.568 282.098C174.933 281.913 177.108 282.098 177.77 282.837C177.96 283.022 178.054 283.299 177.96 283.484C178.433 283.484 178.906 283.484 179.284 283.484C180.23 283.484 181.081 283.853 181.649 284.593L180.797 285.055C180.419 284.593 179.946 284.408 179.379 284.408C178.716 284.316 178.149 284.408 177.487 284.5C177.392 284.593 177.297 284.778 177.108 284.87C175.784 286.256 173.892 287.18 171.811 287.273ZM171.433 286.349C172.189 286.441 173.797 286.256 175.784 284.685C174.27 285.147 172.757 285.702 171.433 286.349ZM165.379 284.685C166.23 284.685 167.081 284.5 167.933 284.223C168.689 283.946 169.351 283.669 169.919 283.207C168.406 283.391 166.892 283.853 165.568 284.5L165.379 284.685Z" fill="#000001"/>
<path d="M286.743 194.764C288.162 194.671 289.487 194.671 290.906 194.764C292.23 194.856 293.649 195.041 294.973 195.226C296.297 195.503 297.622 195.78 298.946 196.15C300.27 196.52 301.595 196.982 302.824 197.536C301.406 197.629 300.081 197.629 298.662 197.536C295.919 197.351 293.27 196.889 290.622 196.15C289.297 195.78 287.973 195.318 286.743 194.764Z" fill="#EA8383"/>
<path d="M287.595 187.277C288.257 186.261 289.014 185.337 289.77 184.505C291.378 182.749 293.176 181.27 295.162 179.977C296.108 179.33 297.243 178.683 298.379 178.221C297.716 179.237 296.96 180.161 296.203 181.086C294.595 182.749 292.797 184.32 290.811 185.522C289.77 186.168 288.73 186.815 287.595 187.277Z" fill="#EA8383"/>
<path d="M281.73 178.592C282.108 177.113 282.676 175.634 283.338 174.248C284 172.862 284.662 171.476 285.419 170.089C286.176 168.703 287.027 167.409 287.879 166.116C288.73 164.822 289.676 163.528 290.811 162.419C290.433 163.898 289.865 165.376 289.203 166.762C288.541 168.149 287.879 169.535 287.122 170.921C286.365 172.307 285.514 173.601 284.662 174.895C283.811 176.189 282.77 177.39 281.73 178.592Z" fill="#EA8383"/>
<path d="M70.5 349.377C70.5 349.377 52.7162 239.217 57.3514 232.841C61.9865 226.464 229.513 208.258 276.527 183.768C276.527 183.768 308.027 282.283 296.676 303.816C285.324 325.349 114.486 373.96 70.5 349.377Z" fill="#E1C692"/>
<path d="M116 345.127C116 345.127 106.635 316.663 79.5811 312.504L73.5271 268.514C73.5271 268.514 100.77 259.365 96.7974 235.429L240.108 209.553C240.108 209.553 237.176 226.188 273.878 234.135L283.338 280.806C283.338 280.806 257.419 290.047 256.284 308.161C256.284 308.253 150.149 347.068 116 345.127Z" fill="#F2EBEB"/>
<path d="M155.635 285.794C155.635 285.794 141.919 255.205 175.973 247.072C202.649 240.695 217.216 277.292 207.851 289.583C196.311 304.832 172.851 312.502 155.635 285.794Z" fill="#E1C692"/>
<path d="M176.824 284.688C176.257 284.688 176.824 289.309 176.824 289.309C176.824 289.309 186.946 292.358 191.487 284.226C196.027 276.093 187.135 271.842 180.135 271.472C173.135 271.103 175.595 263.34 179.379 263.802C181.649 264.079 183.919 264.172 186.189 264.172L186 260.845C186 260.845 176.162 258.257 173.324 264.079C170.487 269.901 172.095 274.245 179.757 275.446C187.419 276.648 192.906 284.318 176.824 284.688Z" fill="#F2EBEB"/>
<path d="M186.237 285.912L183.399 286.63L184.75 291.73L187.589 291.011L186.237 285.912Z" fill="#F2EBEB"/>
<path d="M178.432 256.441L175.592 257.156L177.032 262.615L179.872 261.9L178.432 256.441Z" fill="#F2EBEB"/>
<path d="M223.743 267.681L221.851 267.588C221.851 266.294 222.419 254.558 226.486 251.415C227.338 250.676 228.473 250.491 229.608 250.676C231.973 251.138 233.865 253.079 234.905 256.036C236.135 254.742 237.743 253.911 239.54 253.449C240.675 253.264 241.716 253.818 242.284 254.742C244.554 252.802 246.635 252.247 248.148 253.356C250.04 254.742 252.311 257.607 251.365 259.086C251.081 259.548 250.324 260.287 248.338 259.456L249.094 257.792C249.283 257.885 249.473 257.884 249.567 257.977C249 256.775 248.054 255.667 246.919 254.835C246.162 254.28 244.743 255.02 243.702 255.944C243.419 256.221 243.135 256.498 242.851 256.776C243.608 259.733 242.756 262.136 241.338 262.783C240.392 263.245 239.256 262.783 238.783 261.858C237.932 260.472 239.162 258.069 240.675 256.313C240.675 256.221 240.581 256.129 240.581 255.944C240.486 255.482 240.108 255.297 239.635 255.389C238.405 255.482 236.702 256.776 235.283 258.162C235.662 260.472 235.473 262.967 234.243 264.076C233.675 264.538 232.729 264.723 232.067 264.354C231.121 263.984 230.648 262.967 230.838 261.951C231.311 260.38 232.162 258.901 233.297 257.7V257.607C232.919 256.313 231.878 253.171 229.229 252.617C228.662 252.524 228.094 252.617 227.621 252.986C224.784 255.112 223.838 264.354 223.743 267.681ZM233.675 260.287C233.202 260.842 232.919 261.581 232.729 262.228C232.635 262.598 232.729 262.598 232.824 262.69C232.919 262.783 233.013 262.69 233.013 262.69C233.581 261.951 233.77 261.119 233.675 260.287ZM241.338 258.901C240.675 259.918 240.392 260.842 240.581 261.119C240.581 261.211 240.675 261.211 240.77 261.304C240.77 261.304 240.865 261.119 241.054 260.842C241.243 260.102 241.338 259.456 241.338 258.901Z" fill="#000001"/>
<path d="M112.973 297.991L111.081 297.899C111.081 296.605 111.649 284.868 115.716 281.726C116.568 280.987 117.797 280.802 118.838 280.987C121.203 281.449 123.095 283.389 124.135 286.347C125.365 285.053 126.973 284.221 128.77 283.759C129.905 283.574 130.946 284.129 131.513 285.053C133.784 283.112 135.865 282.558 137.378 283.667C139.27 285.053 141.541 287.825 140.595 289.396C140.311 289.859 139.554 290.598 137.568 289.766L138.324 288.103C138.513 288.195 138.703 288.195 138.797 288.287C138.23 287.086 137.284 285.977 136.149 285.145C135.392 284.591 133.973 285.33 132.932 286.254C132.649 286.532 132.365 286.809 132.081 287.086C132.838 290.043 131.986 292.446 130.568 293.093C129.622 293.555 128.486 293.093 128.013 292.169C127.162 290.783 128.392 288.38 129.905 286.624C129.905 286.532 129.811 286.439 129.811 286.254C129.716 285.792 129.338 285.607 128.865 285.607C127.635 285.7 125.932 286.994 124.513 288.38C124.892 290.69 124.703 293.186 123.473 294.295C122.905 294.849 121.959 294.941 121.297 294.572C120.351 294.202 119.878 293.186 120.068 292.169C120.541 290.598 121.297 289.119 122.527 287.825V287.733C122.149 286.439 121.108 283.297 118.365 282.743C117.797 282.65 117.23 282.743 116.757 283.112C113.919 285.423 113.068 294.664 112.973 297.991ZM122.905 290.598C122.432 291.152 122.149 291.799 121.959 292.539C121.959 292.908 121.959 292.908 122.054 293.001C122.149 293.093 122.243 293.001 122.243 293.001C122.716 292.261 122.905 291.43 122.905 290.598ZM130.568 289.119C129.905 290.136 129.622 291.06 129.811 291.245C129.811 291.337 129.905 291.337 129.905 291.43C129.905 291.43 130 291.245 130.189 290.968C130.473 290.413 130.568 289.766 130.568 289.119Z" fill="#000001"/>
<path d="M70.5 349.376C74 350.577 77.5 351.409 81.0946 352.056C82.8919 352.333 84.6892 352.703 86.4865 352.888L91.8784 353.535C99.1621 354.181 106.446 354.459 113.73 354.366C128.297 354.181 142.959 352.888 157.338 350.577L162.73 349.838C164.527 349.561 166.324 349.191 168.122 348.914L178.905 346.973C180.703 346.696 182.5 346.234 184.297 345.864L189.595 344.663L200.284 342.352C207.378 340.504 214.473 338.748 221.473 336.9C228.473 335.051 235.473 332.833 242.567 330.893C235.662 333.203 228.662 335.421 221.757 337.731C214.757 339.765 207.662 341.705 200.662 343.738C197.162 344.663 193.568 345.494 189.973 346.326L184.581 347.527C182.784 347.897 180.986 348.359 179.189 348.729L168.405 350.762C166.608 351.132 164.811 351.501 163.013 351.779L157.527 352.61C143.054 354.828 128.392 356.03 113.635 356.03C106.257 356.03 98.973 355.568 91.6892 354.736L86.2027 353.904C84.4054 353.627 82.6081 353.165 80.8108 352.888C79.8649 352.703 79.0135 352.518 78.1622 352.241L75.5135 351.594L72.8649 350.762C72.2027 350.023 71.3514 349.745 70.5 349.376Z" fill="#000001"/>
<path d="M115.622 140.333C115.811 133.032 116.473 125.731 117.419 118.43C118.365 111.129 119.595 103.921 121.203 96.8048C124.419 82.4803 128.96 68.3406 135.96 55.31C139.365 48.7484 143.622 42.5566 148.635 37.0116C153.649 31.3742 159.514 26.661 166.135 23.0568C169.446 21.3009 172.946 19.8222 176.541 18.6208C180.135 17.4194 183.824 16.4952 187.514 15.7559L190.257 15.2014C191.203 15.0166 192.149 14.9242 193.095 14.7393C194.041 14.5545 194.987 14.4621 195.932 14.3697L198.77 14.1848L200.189 14.0924H201.608L204.446 14C205.392 14 206.338 14.0924 207.284 14.0924C208.23 14.0924 209.176 14.1848 210.122 14.2772L212.96 14.5545C213.905 14.6469 214.851 14.8317 215.797 15.0166L217.216 15.2014L218.635 15.4787C219.581 15.6635 220.527 15.8483 221.378 16.1256C224.973 17.1421 228.568 18.436 231.973 20.0995C238.784 23.4264 244.838 28.1397 249.757 33.8695C252.216 36.7344 254.203 39.9689 255.811 43.2959C257.514 46.7153 258.365 50.4119 258.365 54.201C258.27 56.1417 257.797 58.0825 256.946 59.8384C256.473 60.7625 255.905 61.5943 255.149 62.3336C254.297 63.0729 253.162 63.4426 251.932 63.3502C250.797 63.1654 249.851 62.7033 249 62.0564C248.243 61.4094 247.581 60.5777 247.108 59.746C246.068 58.0825 245.5 56.1417 245.405 54.201C245.216 52.2603 245.595 50.3195 246.257 48.4712C247.014 46.7153 248.149 45.0518 249.568 43.758C252.405 41.0779 256.095 39.5993 259.689 38.5827C263.284 37.4737 266.973 36.6419 270.757 36.1799C274.541 35.7178 278.324 35.8102 282.108 36.4571C284 36.8268 285.797 37.3813 287.595 38.1206C288.446 38.4903 289.297 39.0448 290.054 39.5992C290.432 39.8765 290.811 40.2462 291.095 40.7082C291.284 40.9855 291.378 41.2627 291.378 41.54C291.378 41.8172 291.189 42.0945 291.095 42.2793C290.527 43.0186 289.77 43.758 289.014 44.2201C288.257 44.7745 287.405 45.2366 286.554 45.6063C285.703 45.976 284.662 46.1608 283.716 46.1608C283.149 46.0684 282.676 45.7911 282.297 45.4215C282.014 44.9594 281.824 44.4973 281.824 44.0352C281.73 42.1869 281.824 40.3386 282.108 38.4903C282.297 36.6419 282.865 34.886 283.905 33.2225C284.378 32.3908 285.324 31.8363 286.27 31.7439C287.216 31.7439 288.162 32.1135 288.824 32.7605C289.487 33.4074 290.054 34.2391 290.338 35.0709C290.716 35.9026 290.905 36.8268 291.095 37.7509C290.905 36.8268 290.716 35.995 290.338 35.1633C289.959 34.3315 289.487 33.5922 288.824 32.9453C288.162 32.2984 287.216 32.0211 286.365 32.0211C285.419 32.1136 284.662 32.5756 284.189 33.4074C283.243 34.9784 282.77 36.7344 282.581 38.5827C282.392 40.3386 282.297 42.1869 282.392 44.0352C282.392 44.4049 282.581 44.867 282.77 45.1442C283.054 45.4215 283.338 45.6063 283.811 45.6987C284.662 45.6987 285.608 45.5139 286.365 45.1442C287.216 44.7745 287.973 44.3125 288.73 43.758C289.487 43.2959 290.149 42.649 290.622 41.9097C290.716 41.7248 290.811 41.6324 290.811 41.4476C290.811 41.2627 290.716 41.1703 290.622 41.0779C290.338 40.7082 290.054 40.431 289.676 40.1537C288.919 39.6917 288.162 39.2296 287.311 38.9523C285.608 38.213 283.811 37.7509 282.014 37.4737C278.324 36.9192 274.635 36.8268 270.946 37.2888C267.257 37.7509 263.662 38.5827 260.162 39.7841C259.311 40.0613 258.365 40.431 257.514 40.7082C256.662 40.9855 255.811 41.3552 255.054 41.8172C253.446 42.5566 251.932 43.5731 250.703 44.867C249.378 46.0684 248.432 47.547 247.77 49.2105C247.108 50.7816 246.919 52.5375 247.014 54.2934C247.108 55.9569 247.676 57.6204 248.527 59.099C249.378 60.5777 250.797 61.7791 252.216 61.9639C253.635 62.1488 254.865 60.8549 255.622 59.2839C256.378 57.7128 256.757 56.0493 256.851 54.2934C256.851 52.5375 256.662 50.7816 256.189 49.0257C255.716 47.2698 255.149 45.6063 254.392 44.0352C252.878 40.8007 250.892 37.7509 248.527 34.9784C243.797 29.4335 237.932 24.9051 231.311 21.6705C228 20.0995 224.5 18.8056 221 17.8815C220.149 17.6042 219.203 17.4194 218.351 17.2346L217.027 16.9573L215.703 16.7725C214.757 16.5877 213.905 16.4952 212.96 16.3104L210.216 16.0332C209.27 15.9407 208.419 15.8483 207.473 15.8483C206.527 15.8483 205.676 15.7559 204.73 15.7559L201.987 15.8483H200.568L199.149 15.9407L196.405 16.1256C195.46 16.218 194.608 16.3104 193.662 16.4952C192.716 16.6801 191.865 16.6801 190.919 16.8649L188.176 17.4194C180.892 18.898 173.703 21.0236 167.27 24.443C160.838 27.9548 154.973 32.5756 150.149 38.0282C145.23 43.4807 141.068 49.4878 137.568 55.9569C130.568 68.8027 125.838 82.7576 122.433 96.9896C120.73 104.106 119.311 111.314 118.27 118.523C117.703 122.127 117.23 125.731 116.946 129.428C116.095 133.032 115.811 136.636 115.622 140.333Z" fill="#E1C692"/>
</svg>
