<svg  viewBox="0 0 400 400" fill="none" xmlns="http://www.w3.org/2000/svg">
<rect width="400" height="400" rx="30" fill="#F5F5F5"/>
<path d="M134.25 160.6C134.25 160.6 126.443 165.865 120.27 166.046C114.097 166.228 121.995 172.583 125.989 173.218C129.984 173.854 142.784 170.132 142.784 170.132L134.25 160.6Z" fill="#E1C692"/>
<path d="M280.044 168.769C280.044 168.769 293.661 155.334 302.466 155.969C311.272 156.605 320.532 161.598 320.532 155.969C320.532 150.341 297.02 106.04 265.337 110.035C233.655 114.029 280.044 168.769 280.044 168.769Z" fill="#000001"/>
<path d="M255.987 84.9794C221.309 35.8672 186.086 39.4076 173.558 42.6757C161.031 45.9438 147.232 67.6403 147.232 67.6403C147.232 67.6403 121.451 83.7992 121.087 92.7865C120.724 101.774 140.877 102.682 140.877 102.682L142.148 118.84C134.704 131.822 161.122 138.54 161.122 138.54C161.122 138.54 150.954 144.713 177.008 176.395C211.323 217.973 199.431 257.825 194.256 270.353C173.74 262.818 112.463 266.54 120.997 273.984C130.256 282.154 165.933 287.51 167.658 302.761C169.383 318.012 166.205 358.682 173.922 359.408C180.276 359.953 205.967 317.649 213.956 296.588C230.296 288.509 254.988 271.624 266.971 239.306C285.581 188.741 290.756 134.092 255.987 84.9794Z" fill="#E1C692"/>
<path d="M216.316 75.7188C216.316 75.7188 187.357 109.852 140.877 102.681L142.148 118.839C142.148 118.839 139.97 129.098 164.117 127.191C188.265 125.285 217.859 94.6011 216.316 75.7188Z" fill="#F2EBEB"/>
<path d="M144.69 116.389C145.689 115.3 146.687 114.211 147.777 113.212C148.321 112.667 148.866 112.213 149.502 111.759C150.137 111.306 150.772 110.852 151.499 110.67C151.68 110.579 151.953 110.579 152.225 110.579C152.316 110.579 152.497 110.579 152.588 110.67C152.679 110.761 152.77 110.761 152.86 110.852C153.224 111.124 153.496 111.306 153.768 111.578C154.313 112.123 154.858 112.667 155.311 113.212C156.31 114.301 157.399 115.3 158.489 116.208C159.033 116.662 159.578 117.025 160.214 117.297C160.668 117.569 161.303 117.66 161.848 117.479C162.12 117.297 162.302 117.116 162.574 116.934C162.846 116.662 163.028 116.389 163.209 116.117C163.663 115.572 164.026 114.937 164.39 114.301C165.116 112.94 165.933 111.669 166.75 110.398C167.294 109.672 168.021 109.036 168.929 108.764C169.019 108.764 169.201 108.673 169.292 108.673H169.655C169.927 108.673 170.199 108.673 170.381 108.764C170.835 108.854 171.198 109.036 171.561 109.218C172.923 109.944 174.194 110.852 175.374 111.759C176.009 112.213 176.554 112.576 177.19 112.94C177.734 113.303 178.37 113.575 178.914 113.757C179.096 113.847 179.277 113.847 179.459 113.757C179.55 113.666 179.641 113.666 179.731 113.394C180.095 112.758 180.367 112.123 180.639 111.487C181.184 110.125 181.638 108.764 182.273 107.311C182.818 105.859 183.544 104.406 184.543 103.135C184.906 102.772 185.269 102.409 185.723 102.228C185.995 102.137 186.358 102.046 186.631 102.046C186.721 102.046 186.903 102.046 186.994 102.046H187.266L189.445 102.318C192.441 102.681 195.346 103.045 198.341 103.408L197.615 103.952C197.887 102.591 198.251 101.229 198.614 99.8673C198.977 98.5056 199.431 97.1438 199.975 95.8729C200.157 95.5098 200.339 95.2375 200.52 94.8743C200.702 94.6928 200.883 94.5112 201.065 94.4204C201.156 94.4204 201.246 94.3297 201.337 94.3297H201.519H201.609H201.791C202.426 94.2389 203.062 94.0573 203.697 93.8757C204.968 93.4218 206.33 92.9679 207.51 92.4233L207.419 92.6048C207.51 90.6077 207.51 88.7013 207.692 86.7041C207.783 88.7013 207.873 90.6077 207.964 92.6048V92.7864L207.783 92.8772C206.512 93.5126 205.331 94.1481 203.97 94.602C203.334 94.8743 202.608 95.1467 201.882 95.2375H201.609H201.519C201.428 95.3282 201.337 95.3282 201.337 95.419C201.156 95.6914 201.065 95.9637 200.883 96.236C200.429 97.507 200.066 98.7779 199.794 100.14C199.522 101.501 199.249 102.863 198.977 104.134L198.886 104.769L198.251 104.679C195.346 104.406 192.35 104.134 189.354 103.862L187.175 103.68H186.903C186.812 103.68 186.812 103.68 186.721 103.68C186.631 103.68 186.54 103.68 186.54 103.771C186.358 103.862 186.086 104.043 185.995 104.225C185.178 105.314 184.543 106.585 184.089 107.856C183.544 109.218 183.09 110.579 182.546 112.032C182.273 112.758 182.001 113.484 181.638 114.211C181.365 114.755 180.912 115.118 180.367 115.391C179.822 115.572 179.277 115.572 178.733 115.481C177.916 115.3 177.19 114.937 176.463 114.483C175.828 114.12 175.192 113.666 174.557 113.212C173.377 112.304 172.197 111.578 170.926 110.761C170.653 110.579 170.381 110.489 170.109 110.398C170.018 110.398 169.836 110.307 169.746 110.307H169.564L169.382 110.398C168.838 110.579 168.384 110.942 168.112 111.396C167.294 112.576 166.477 113.757 165.751 115.028C165.388 115.663 164.934 116.298 164.39 116.934C163.845 117.66 163.209 118.205 162.483 118.659C162.029 118.84 161.485 118.931 161.031 118.84C160.577 118.75 160.214 118.659 159.76 118.477C159.033 118.114 158.398 117.66 157.853 117.116C156.764 116.117 155.675 115.028 154.767 113.847L153.133 112.304C152.86 112.032 152.679 111.759 152.407 111.578C152.225 111.487 152.225 111.396 152.043 111.396C151.862 111.396 151.771 111.396 151.589 111.396C150.954 111.578 150.228 111.941 149.683 112.304C149.048 112.667 148.503 113.121 147.867 113.575C146.96 114.483 145.78 115.391 144.69 116.389Z" fill="#000001"/>
<path d="M161.031 67.6405C161.031 67.6405 198.251 50.7553 199.794 51.3C201.337 51.8447 212.412 71.0901 197.887 76.5369C183.363 81.9838 161.031 67.6405 161.031 67.6405Z" fill="#000001"/>
<path d="M156.764 67.5508L141.422 54.3877C141.422 54.3877 136.702 61.8317 139.425 69.0941C142.149 76.3565 156.764 67.5508 156.764 67.5508Z" fill="#000001"/>
<path d="M167.294 70.637C163.209 68.4583 158.579 67.4597 153.95 67.8228C153.405 67.9136 152.77 67.9136 152.225 67.8228L152.497 66.0072C152.951 66.0072 153.405 66.0072 153.859 66.0072C158.761 65.6441 163.754 66.6427 168.111 69.0029L167.294 70.637Z" fill="#000001"/>
<path d="M190.807 132.003C187.811 133.819 184.634 135.271 181.366 136.451C178.007 137.631 174.648 138.448 171.107 138.811C169.383 138.993 167.567 139.084 165.842 139.084C164.117 139.084 162.302 138.902 160.577 138.63C158.852 138.267 157.127 137.813 155.493 137.177C153.859 136.542 152.407 135.634 150.954 134.636C152.497 135.362 154.132 135.906 155.856 136.36C157.49 136.814 159.215 137.087 160.849 137.268C164.208 137.541 167.658 137.541 171.017 137.087C174.376 136.633 177.734 135.997 181.093 135.089C184.271 134.182 187.539 133.183 190.807 132.003Z" fill="#000001"/>
<path d="M180.549 69.82C180.912 68.8214 181.366 67.9136 181.91 67.0058C182.455 66.098 183 65.281 183.635 64.4639C184.271 63.6469 184.997 62.9207 185.723 62.1944C186.449 61.4682 187.266 60.7419 188.174 60.1973C187.811 61.1958 187.357 62.1037 186.813 63.0115C186.268 63.9193 185.632 64.7363 184.997 65.5533C184.361 66.3703 183.635 67.0966 182.909 67.8228C182.274 68.6398 181.457 69.2753 180.549 69.82Z" fill="#F2EBEB"/>
<path d="M188.991 69.8193C188.991 69.0931 189.082 68.4576 189.354 67.8222C189.717 66.5513 190.353 65.4619 191.261 64.4633C191.715 63.9186 192.259 63.4647 192.804 63.1924C192.804 63.9186 192.713 64.5541 192.441 65.1896C192.259 65.825 191.987 66.3697 191.624 66.9144C191.352 67.4591 190.898 68.0037 190.534 68.4576C190.081 69.0023 189.627 69.4562 188.991 69.8193Z" fill="#F2EBEB"/>
<path d="M78.1482 194.187C78.1482 194.187 138.426 171.583 144.599 171.583C150.772 171.583 229.57 172.037 225.303 177.484C221.036 182.931 176.917 206.715 174.103 208.349C171.289 209.983 78.1482 194.187 78.1482 194.187Z" fill="#000001"/>
<path d="M100.934 140.628C100.934 140.628 201.065 138.631 203.425 140.628C205.785 142.625 225.212 177.485 225.212 177.485L141.241 172.219C141.241 172.219 100.48 144.35 100.934 140.628Z" fill="#F2EBEB"/>
<path d="M100.934 140.628C100.934 140.628 108.469 120.293 112.191 119.022C115.913 117.751 211.323 120.293 216.225 123.924C221.127 127.555 236.379 154.063 236.379 158.511C236.379 162.96 225.303 177.394 225.303 177.394L203.516 140.537H100.934V140.628Z" fill="#A04040"/>
<path d="M213.32 126.466C212.775 127.828 212.14 129.189 211.414 130.369C210.687 131.64 209.961 132.82 209.144 134.001C208.327 135.181 207.419 136.361 206.511 137.45C205.604 138.54 204.514 139.629 203.425 140.537C203.97 139.175 204.605 137.813 205.331 136.542C206.058 135.272 206.784 134.091 207.601 132.911C208.418 131.731 209.326 130.551 210.233 129.462C211.141 128.463 212.231 127.464 213.32 126.466Z" fill="#000001"/>
<path d="M132.707 140.173C134.704 141.807 136.702 143.441 138.608 145.075C140.514 146.709 142.512 148.343 144.509 149.977C148.412 153.245 152.225 156.604 156.129 159.963L155.675 159.781C160.849 160.054 166.024 160.417 171.198 160.689C176.373 160.962 181.547 161.415 186.722 161.779C191.896 162.142 197.071 162.596 202.245 163.049C204.787 163.231 207.419 163.503 209.961 163.776C212.503 164.048 215.136 164.32 217.678 164.593C215.045 164.593 212.503 164.502 209.871 164.411C207.238 164.32 204.696 164.23 202.063 164.139C196.889 163.957 191.714 163.685 186.54 163.413C181.366 163.14 176.191 162.777 171.017 162.505C165.842 162.232 160.668 161.779 155.493 161.415H155.221L155.039 161.234C151.226 157.784 147.504 154.335 143.782 150.794C141.967 149.069 140.06 147.254 138.245 145.529C136.338 143.713 134.523 141.898 132.707 140.173Z" fill="#000001"/>
<path d="M144.599 171.584C145.235 170.404 145.961 169.314 146.869 168.316C148.503 166.319 150.319 164.412 152.316 162.778C153.314 161.961 154.404 161.144 155.584 160.509C154.948 161.689 154.222 162.778 153.314 163.777C151.68 165.774 149.865 167.59 147.867 169.224C146.778 170.132 145.689 170.949 144.599 171.584Z" fill="#000001"/>
<path d="M150.046 131.732C150.046 131.732 146.415 143.625 147.323 144.896C148.231 146.166 164.571 147.074 166.115 144.896C167.658 142.717 169.473 134.819 168.566 133.639C167.658 132.459 150.046 131.732 150.046 131.732Z" fill="#000001"/>
<path d="M234.2 122.563C231.567 127.375 228.935 132.277 226.483 137.179C224.032 142.081 221.491 146.983 219.13 151.976C216.77 156.969 214.5 161.962 212.594 167.046C211.686 169.588 210.688 172.13 210.052 174.762C209.689 176.033 209.417 177.395 209.235 178.666C209.054 179.937 209.054 181.208 209.326 182.388C209.417 182.842 209.689 183.296 210.052 183.659C210.234 183.84 210.506 183.931 210.778 184.022C211.051 184.113 211.323 184.203 211.595 184.294C212.866 184.566 214.137 184.657 215.408 184.476C218.041 184.203 220.674 183.568 223.215 182.66C228.39 180.844 233.292 178.484 237.922 175.579C242.552 172.674 246.909 169.406 250.903 165.593C254.807 161.871 258.347 157.514 260.345 152.339C259.528 154.972 258.257 157.514 256.713 159.783C255.17 162.053 253.445 164.232 251.448 166.229C247.545 170.223 243.278 173.764 238.648 176.759C234.018 179.846 229.025 182.388 223.76 184.294C221.127 185.293 218.313 185.928 215.499 186.2C214.047 186.382 212.503 186.291 211.051 185.928C210.688 185.837 210.325 185.747 209.961 185.565C209.598 185.383 209.235 185.202 208.872 184.93C208.146 184.385 207.692 183.568 207.51 182.751C207.147 181.298 207.147 179.755 207.42 178.303C207.601 176.941 207.964 175.488 208.327 174.127C209.054 171.403 209.961 168.771 211.051 166.229C213.139 161.054 215.408 156.061 217.95 151.159C222.852 141.446 228.39 131.823 234.2 122.563Z" fill="#000001"/>
<path d="M210.415 75.7198C211.323 75.1751 212.231 74.812 213.32 74.7212C214.409 74.6304 215.408 74.7212 216.497 75.0843C217.587 75.4475 218.494 76.1737 219.039 77.0815C219.584 77.9893 219.856 79.0787 219.675 80.0773C219.13 79.2602 218.585 78.6248 217.859 77.9893C217.223 77.4446 216.497 77.0815 215.771 76.7184C214.046 76.2645 212.231 75.9014 210.415 75.7198Z" fill="#000001"/>
<path d="M107.017 206.171V193.28L124.628 196.276C124.628 196.276 126.171 212.163 123.448 212.707C120.724 213.252 107.017 206.171 107.017 206.171Z" fill="#E1C692"/>
<path d="M136.52 183.022L107.017 193.281C107.017 193.281 123.085 196.821 124.628 196.276C126.171 195.732 155.312 185.837 153.042 185.02C150.773 184.203 136.52 183.022 136.52 183.022Z" fill="#E1C692"/>
<path d="M123.448 212.707L124.628 196.276C124.628 196.276 152.044 183.385 153.042 185.019C154.041 186.653 153.042 198.818 153.042 198.818L123.448 212.707Z" fill="#E1C692"/>
<path d="M107.017 193.28C109.831 193.552 112.554 193.825 115.368 194.279C116.73 194.46 118.092 194.642 119.544 194.914C120.997 195.186 122.268 195.368 123.629 195.549H123.175C125.627 194.642 128.078 193.734 130.529 192.917C132.98 192.1 135.431 191.192 137.882 190.375C140.333 189.558 142.784 188.741 145.326 188.015C147.868 187.288 150.319 186.562 152.861 185.927C150.5 187.016 148.14 188.015 145.689 189.013C143.238 190.012 140.878 190.92 138.427 191.827C135.976 192.735 133.524 193.643 131.073 194.551C128.622 195.459 126.171 196.276 123.72 197.093L123.539 197.184H123.357C121.995 196.911 120.634 196.639 119.272 196.366C117.91 196.094 116.549 195.822 115.187 195.459C112.463 194.732 109.74 194.006 107.017 193.28Z" fill="#000001"/>
<path d="M123.448 212.707C123.085 211.345 122.903 209.983 122.722 208.622C122.631 207.26 122.54 205.898 122.54 204.536C122.54 203.175 122.631 201.813 122.722 200.451C122.812 199.09 123.085 197.728 123.448 196.366C123.811 197.728 124.083 199.09 124.174 200.451C124.265 201.813 124.356 203.175 124.356 204.536C124.356 205.898 124.265 207.26 124.174 208.622C124.083 209.983 123.811 211.345 123.448 212.707Z" fill="#000001"/>
<path d="M114.551 193.189L120.724 193.824C122.358 192.462 124.719 193.824 124.719 193.824C124.719 193.824 147.595 187.106 147.595 186.289C147.595 185.472 148.775 185.291 148.775 185.291L139.334 184.746H134.795L115.005 191.373C115.187 191.918 115.096 192.553 114.642 193.007C114.551 193.189 114.551 193.189 114.551 193.189Z" fill="#F2EBEB"/>
<path d="M130.892 187.742C130.892 187.742 129.076 188.922 130.075 189.467C131.073 190.012 132.707 189.467 132.707 188.832C132.707 188.196 132.162 187.016 130.892 187.742Z" fill="#E1C692"/>
<path d="M127.442 210.71V197.729L145.053 200.724C145.053 200.724 146.597 216.611 143.873 217.156C141.15 217.7 127.442 210.71 127.442 210.71Z" fill="#E1C692"/>
<path d="M156.946 187.562L127.442 197.82C127.442 197.82 143.51 201.36 145.053 200.815C146.597 200.271 175.737 190.376 173.468 189.559C171.198 188.742 156.946 187.562 156.946 187.562Z" fill="#E1C692"/>
<path d="M143.873 217.156L145.053 200.725C145.053 200.725 172.469 187.834 173.468 189.468C174.466 191.102 173.468 203.267 173.468 203.267L143.873 217.156Z" fill="#E1C692"/>
<path d="M127.442 197.727C130.256 198 132.98 198.272 135.794 198.726C137.156 198.907 138.517 199.089 139.97 199.27C141.422 199.452 142.693 199.724 144.146 199.906H143.692C146.143 198.998 148.594 198.09 151.045 197.273C153.496 196.456 155.947 195.548 158.398 194.731C160.849 193.914 163.3 193.097 165.842 192.371C168.384 191.645 170.835 190.919 173.377 190.283C171.017 191.373 168.656 192.371 166.205 193.37C163.754 194.368 161.394 195.276 158.943 196.184C156.492 197.092 154.041 198 151.59 198.907C149.139 199.815 146.687 200.632 144.236 201.449L144.055 201.54H143.873C142.512 201.268 141.15 200.995 139.788 200.632C138.426 200.269 137.065 200.087 135.703 199.724C132.798 199.18 130.075 198.544 127.442 197.727Z" fill="#000001"/>
<path d="M143.873 217.157C143.51 215.795 143.329 214.433 143.147 213.072C143.056 211.71 142.965 210.348 142.965 208.987C142.965 207.625 143.056 206.263 143.147 204.902C143.238 203.54 143.51 202.178 143.873 200.816C144.236 202.178 144.509 203.54 144.6 204.902C144.781 206.263 144.781 207.625 144.781 208.987C144.781 210.348 144.69 211.71 144.6 213.072C144.418 214.433 144.146 215.795 143.873 217.157Z" fill="#000001"/>
<path d="M134.886 197.728L141.059 198.363C142.693 197.001 145.054 198.363 145.054 198.363C145.054 198.363 167.93 191.645 167.93 190.828C167.93 190.011 169.11 189.83 169.11 189.83L159.669 189.285H155.13L135.34 195.912C135.522 196.457 135.431 197.092 134.977 197.546C134.886 197.637 134.886 197.728 134.886 197.728Z" fill="#F2EBEB"/>
<path d="M151.226 192.281C151.226 192.281 149.411 193.462 150.409 194.006C151.408 194.551 153.042 194.006 153.042 193.371C153.042 192.735 152.497 191.555 151.226 192.281Z" fill="#E1C692"/>
<path d="M78.1484 215.702C78.1484 215.702 167.658 230.862 170.381 230.862C173.105 230.862 225.576 209.529 225.485 205.262C225.394 200.995 225.303 177.483 225.303 177.483L174.103 208.349L78.2392 194.187C78.1484 194.187 76.242 211.889 78.1484 215.702Z" fill="#A04040"/>
<path d="M174.012 208.35C174.103 210.256 174.012 212.162 173.831 214.069C173.649 215.975 173.377 217.882 173.104 219.697C172.832 221.513 172.469 223.419 172.015 225.326C171.561 227.232 171.017 229.048 170.381 230.863C170.29 228.957 170.381 227.05 170.563 225.144C170.744 223.238 171.017 221.331 171.289 219.516C171.561 217.7 171.924 215.794 172.378 213.887C172.832 211.981 173.377 210.165 174.012 208.35Z" fill="#000001"/>
<path d="M261.706 111.033C261.706 111.033 270.421 139.811 256.622 158.602C242.824 177.394 211.414 188.469 208.327 183.93C205.241 179.391 228.208 123.652 239.646 120.02" fill="#E1C692"/>
<path d="M189.082 189.742C186.903 190.65 184.452 190.014 183 188.108C181.547 186.564 181.093 184.295 181.729 182.298C183.817 176.034 191.896 179.484 192.441 182.752C192.804 185.203 191.896 188.562 189.082 189.742Z" fill="#E1C692"/>
<path d="M185.36 188.469C185.36 188.469 179.096 186.472 182.273 180.48C184.725 175.85 191.987 178.483 192.622 181.479C193.349 185.201 191.442 189.558 185.36 188.469Z" fill="#E1C692"/>
<path d="M181.638 184.746C182.273 185.563 183.09 186.199 183.998 186.743C184.815 187.197 185.632 187.56 186.631 187.651C187.539 187.742 188.446 187.651 189.354 187.379C190.353 187.016 191.261 186.562 192.078 185.926C191.715 187.016 190.988 188.014 189.99 188.65C188.9 189.285 187.629 189.648 186.449 189.467C185.178 189.376 183.998 188.831 183.181 187.923C182.183 187.106 181.638 186.017 181.638 184.746Z" fill="#F2EBEB"/>
<path d="M189.445 189.467C189.172 189.376 188.991 189.286 188.719 189.104C188.628 189.013 188.537 188.922 188.537 188.741C188.537 188.65 188.628 188.469 188.719 188.378C188.9 188.196 189.172 188.105 189.445 188.105C189.717 188.196 189.899 188.287 190.171 188.469C190.262 188.559 190.353 188.65 190.353 188.832C190.353 188.922 190.262 189.104 190.171 189.195C189.989 189.376 189.717 189.467 189.445 189.467Z" fill="#F2EBEB"/>
<path d="M187.266 189.831C186.994 189.831 186.812 189.74 186.54 189.558C186.449 189.467 186.359 189.377 186.359 189.286C186.359 189.195 186.449 189.104 186.54 189.014C186.722 188.923 186.994 188.741 187.266 188.741C187.539 188.741 187.72 188.832 187.993 189.014C188.083 189.104 188.174 189.195 188.174 189.286C188.174 189.377 188.083 189.467 187.993 189.558C187.811 189.649 187.539 189.74 187.266 189.831Z" fill="#F2EBEB"/>
<path d="M185.087 189.377C184.815 189.286 184.633 189.195 184.361 189.104C184.27 189.013 184.18 188.923 184.18 188.832C184.18 188.741 184.27 188.65 184.361 188.559C184.633 188.469 184.815 188.378 185.087 188.378C185.36 188.469 185.541 188.559 185.814 188.65C185.904 188.741 185.995 188.832 185.995 188.923C185.995 189.013 185.904 189.104 185.814 189.195C185.541 189.286 185.36 189.377 185.087 189.377Z" fill="#F2EBEB"/>
<path d="M183.363 188.469C183.09 188.378 182.909 188.288 182.636 188.106C182.546 188.015 182.455 187.925 182.455 187.834C182.455 187.743 182.546 187.652 182.636 187.561C182.909 187.471 183.09 187.38 183.363 187.38C183.635 187.471 183.817 187.561 184.089 187.743C184.18 187.834 184.27 187.925 184.27 188.015C184.27 188.106 184.18 188.197 184.089 188.288C183.907 188.378 183.635 188.469 183.363 188.469Z" fill="#F2EBEB"/>
<path d="M187.902 185.292C187.811 185.383 188.537 185.928 188.537 185.928C188.537 185.928 190.262 184.838 189.626 183.204C188.991 181.57 187.266 182.206 186.268 183.204C185.269 184.203 184.452 182.75 184.997 182.296C185.36 182.024 185.632 181.752 185.904 181.389L185.36 181.025C185.36 181.025 183.726 182.115 184.18 183.204C184.634 184.293 185.541 184.747 186.631 183.749C187.72 182.75 189.899 182.932 187.902 185.292Z" fill="#F2EBEB"/>
<path d="M189.292 184.103L189.043 184.588L189.931 185.044L190.18 184.56L189.292 184.103Z" fill="#F2EBEB"/>
<path d="M183.833 181.35L183.584 181.835L184.553 182.333L184.802 181.848L183.833 181.35Z" fill="#F2EBEB"/>
<path d="M191.987 179.028C191.987 179.028 207.057 197.184 219.494 195.096C219.494 195.096 213.32 211.074 210.325 213.252C207.329 215.431 192.713 211.164 182.364 193.19C182.364 193.099 189.173 177.303 191.987 179.028Z" fill="#E1C692"/>
<path d="M189.535 183.839C189.535 183.839 192.894 186.018 194.71 183.839C194.71 183.839 204.423 195.55 213.229 196.639C213.229 196.639 212.412 198.273 214.409 200.27C214.409 200.27 211.686 206.08 211.141 206.715C210.597 207.351 206.239 206.625 206.148 210.982C201.337 210.347 196.798 208.077 193.439 204.628C187.901 198.818 186.086 195.368 186.086 195.368C186.086 195.368 188.446 192.645 185.813 190.738C185.904 190.738 187.901 185.564 189.535 183.839Z" fill="#F2EBEB"/>
<path d="M197.887 195.641C197.887 195.641 195.709 197.366 197.887 199.817C200.066 202.268 202.336 199.454 202.063 197.91C201.791 196.367 200.248 194.279 197.887 195.641Z" fill="#E1C692"/>
<path d="M192.985 192.916C192.622 193.188 192.531 193.824 192.804 194.187C192.894 194.278 192.894 194.278 192.985 194.369C193.711 195.186 194.528 194.278 194.438 193.733C194.347 193.188 193.802 192.462 192.985 192.916Z" fill="#E1C692"/>
<path d="M204.878 202.087C204.515 202.36 204.424 202.995 204.696 203.358C204.787 203.449 204.787 203.449 204.878 203.54C205.604 204.357 206.421 203.449 206.33 202.814C206.239 202.178 205.786 201.634 204.878 202.087Z" fill="#E1C692"/>
<path d="M159.669 191.1C157.399 191.554 155.039 190.374 154.04 188.195C152.951 186.38 153.042 184.11 154.131 182.204C157.49 176.575 164.662 181.659 164.48 185.018C164.208 187.469 162.665 190.465 159.669 191.1Z" fill="#E1C692"/>
<path d="M156.31 189.014C156.31 189.014 150.682 185.655 155.039 180.572C158.489 176.577 164.934 180.753 164.934 183.749C164.753 187.471 162.029 191.375 156.31 189.014Z" fill="#E1C692"/>
<path d="M153.405 184.655C153.859 185.563 154.495 186.38 155.221 187.197C155.856 187.833 156.673 188.286 157.581 188.65C158.489 188.922 159.397 189.104 160.305 189.013C161.303 188.922 162.392 188.65 163.3 188.196C162.665 189.194 161.757 190.011 160.668 190.374C159.487 190.738 158.217 190.738 157.036 190.374C155.856 190.011 154.858 189.194 154.131 188.105C153.496 187.016 153.224 185.835 153.405 184.655Z" fill="#F2EBEB"/>
<path d="M160.032 190.92C159.76 190.829 159.578 190.648 159.397 190.466C159.306 190.375 159.306 190.194 159.306 190.103C159.306 190.012 159.487 189.831 159.578 189.831C159.85 189.74 160.123 189.649 160.395 189.74C160.667 189.831 160.849 190.012 161.031 190.284C161.121 190.375 161.121 190.557 161.121 190.648C161.121 190.738 160.94 190.92 160.849 190.92C160.577 190.829 160.304 190.92 160.032 190.92Z" fill="#F2EBEB"/>
<path d="M157.853 190.739C157.581 190.648 157.4 190.557 157.218 190.376C157.127 190.285 157.036 190.194 157.127 190.103C157.218 190.013 157.218 189.922 157.4 189.922C157.672 189.831 157.853 189.831 158.126 189.831C158.398 189.922 158.58 190.013 158.761 190.194C158.852 190.285 158.943 190.376 158.852 190.467C158.761 190.557 158.761 190.648 158.58 190.648C158.398 190.739 158.126 190.739 157.853 190.739Z" fill="#F2EBEB"/>
<path d="M155.765 189.832C155.493 189.741 155.312 189.559 155.13 189.469C155.039 189.378 154.948 189.287 155.039 189.196C155.13 189.105 155.13 189.015 155.312 189.015C155.584 188.924 155.765 188.924 156.038 188.924C156.31 189.015 156.492 189.196 156.673 189.287C156.764 189.378 156.855 189.469 156.764 189.559C156.673 189.65 156.673 189.741 156.492 189.741C156.31 189.832 156.038 189.832 155.765 189.832Z" fill="#F2EBEB"/>
<path d="M154.404 188.651C154.222 188.56 153.95 188.379 153.768 188.197C153.677 188.106 153.677 188.015 153.677 187.834C153.677 187.743 153.768 187.652 153.95 187.652C154.222 187.562 154.494 187.562 154.676 187.562C154.858 187.652 155.13 187.834 155.311 188.015C155.402 188.106 155.402 188.197 155.402 188.379C155.402 188.469 155.311 188.56 155.13 188.56C154.858 188.651 154.585 188.651 154.404 188.651Z" fill="#F2EBEB"/>
<path d="M159.397 186.472C159.306 186.563 159.942 187.199 159.942 187.199C159.942 187.199 161.848 186.563 161.666 184.748C161.485 182.932 159.578 183.295 158.398 184.021C157.218 184.748 156.764 183.204 157.4 182.932C157.763 182.751 158.126 182.478 158.489 182.206L158.126 181.661C158.126 181.661 156.31 182.387 156.492 183.568C156.673 184.748 157.49 185.383 158.761 184.657C160.032 183.931 161.939 184.657 159.397 186.472Z" fill="#F2EBEB"/>
<path d="M161.02 185.663L160.673 186.082L161.442 186.719L161.789 186.3L161.02 185.663Z" fill="#F2EBEB"/>
<path d="M156.355 181.735L156.007 182.154L156.846 182.849L157.194 182.43L156.355 181.735Z" fill="#F2EBEB"/>
<path d="M120.815 192.555C120.815 192.555 103.113 178.121 91.6746 182.388C91.6746 182.388 94.5795 166.047 97.0306 163.415C99.4817 160.782 114.097 162.144 127.351 177.395C127.442 177.395 123.811 193.735 120.815 192.555Z" fill="#E1C692"/>
<path d="M122.268 187.469C122.268 187.469 118.636 186.017 117.365 188.468C117.365 188.468 106.018 179.118 97.3029 179.662C97.3029 179.662 97.8476 177.937 95.4873 176.394C95.4873 176.394 96.9398 170.312 97.3937 169.676C97.8476 169.041 102.023 168.859 101.297 164.684C106.018 164.411 110.648 165.682 114.551 168.406C120.906 172.945 123.266 175.85 123.266 175.85C123.266 175.85 121.541 178.936 124.355 180.207C124.446 180.298 123.448 185.563 122.268 187.469Z" fill="#F2EBEB"/>
<path d="M112.191 177.846C112.191 177.846 113.916 175.849 111.465 173.943C109.014 172.037 107.289 175.032 107.924 176.576C108.56 178.119 110.103 179.571 112.191 177.846Z" fill="#E1C692"/>
<path d="M117.274 179.481C117.638 179.118 117.547 178.483 117.184 178.21C117.184 178.21 117.093 178.12 117.002 178.12C116.094 177.484 115.55 178.483 115.731 179.027C115.913 179.572 116.548 180.117 117.274 179.481Z" fill="#E1C692"/>
<path d="M104.293 173.036C104.656 172.673 104.565 172.037 104.202 171.765C104.202 171.765 104.112 171.674 104.021 171.674C103.113 171.039 102.568 172.037 102.75 172.582C102.931 173.127 103.567 173.581 104.293 173.036Z" fill="#E1C692"/>
<path d="M167.658 204.264C166.387 202.54 166.387 200.179 167.658 198.545C168.747 196.911 170.563 196.003 172.56 196.185C178.551 196.639 177.281 204.628 174.557 205.717C172.469 206.534 169.383 206.534 167.658 204.264Z" fill="#E1C692"/>
<path d="M167.93 200.723C167.93 200.723 168.293 194.732 174.285 196.184C178.915 197.364 178.188 204.354 175.737 205.534C172.651 206.987 168.384 206.351 167.93 200.723Z" fill="#E1C692"/>
<path d="M170.381 196.548C169.836 197.365 169.473 198.182 169.11 199.09C168.929 199.907 168.838 200.724 168.929 201.541C169.019 202.358 169.292 203.175 169.746 203.901C170.29 204.718 170.926 205.444 171.652 206.08C170.563 206.08 169.473 205.626 168.747 204.809C167.93 203.992 167.385 202.993 167.204 201.813C167.022 200.633 167.295 199.453 167.839 198.545C168.384 197.546 169.292 196.911 170.381 196.548Z" fill="#F2EBEB"/>
<path d="M167.93 204.537C167.93 204.264 168.021 203.992 168.112 203.81C168.112 203.629 168.293 203.538 168.475 203.538C168.566 203.538 168.656 203.629 168.656 203.629C168.838 203.81 169.02 203.992 169.11 204.264C169.11 204.537 169.02 204.809 168.929 204.991C168.838 205.172 168.747 205.172 168.656 205.263C168.566 205.263 168.384 205.263 168.293 205.172C168.203 204.991 168.021 204.809 167.93 204.537Z" fill="#F2EBEB"/>
<path d="M167.204 202.722C167.204 202.45 167.204 202.268 167.204 201.996C167.204 201.814 167.295 201.724 167.385 201.724C167.476 201.724 167.567 201.724 167.658 201.814C167.839 201.996 168.021 202.178 168.112 202.45C168.112 202.722 168.112 202.995 168.112 203.176C168.021 203.358 168.021 203.448 167.93 203.448C167.839 203.448 167.748 203.448 167.658 203.358C167.385 203.176 167.295 202.995 167.204 202.722Z" fill="#F2EBEB"/>
<path d="M167.022 200.632C167.022 200.36 167.022 200.178 167.113 199.906C167.113 199.724 167.204 199.724 167.295 199.633C167.385 199.543 167.476 199.633 167.567 199.724C167.749 199.906 167.839 200.178 167.93 200.36C167.93 200.632 167.93 200.904 167.839 201.086C167.839 201.267 167.749 201.267 167.658 201.358C167.567 201.449 167.476 201.358 167.385 201.177C167.295 201.086 167.113 200.904 167.022 200.632Z" fill="#F2EBEB"/>
<path d="M167.476 198.998C167.476 198.725 167.567 198.453 167.567 198.271C167.658 198.181 167.658 198.09 167.748 198.09C167.839 198.09 167.93 198.09 168.021 198.271C168.202 198.453 168.293 198.725 168.384 198.907C168.384 199.179 168.293 199.452 168.293 199.633C168.202 199.724 168.202 199.815 168.112 199.815C168.021 199.815 167.93 199.815 167.839 199.633C167.658 199.452 167.567 199.179 167.476 198.998Z" fill="#F2EBEB"/>
<path d="M171.289 202.268C171.198 202.268 170.926 202.995 170.926 202.995C171.652 203.721 172.742 203.902 173.65 203.358C175.011 202.45 174.013 200.997 172.923 200.453C172.56 200.362 172.288 199.999 172.469 199.636C172.56 199.273 172.923 199 173.286 199.182C173.377 199.182 173.377 199.182 173.468 199.273C173.831 199.545 174.103 199.727 174.467 199.908L174.739 199.363C174.739 199.363 173.468 198.183 172.56 198.819C171.652 199.454 171.562 200.362 172.651 201.179C173.74 201.996 173.831 203.449 171.289 202.268Z" fill="#F2EBEB"/>
<path d="M172.175 203.132L171.972 204.017L172.503 204.138L172.706 203.254L172.175 203.132Z" fill="#F2EBEB"/>
<path d="M173.371 197.698L173.148 198.671L173.679 198.793L173.902 197.82L173.371 197.698Z" fill="#F2EBEB"/>
<path d="M106.109 153.157C106.29 153.883 106.29 154.519 106.2 155.245C106.109 156.607 105.655 157.878 105.11 159.058C104.747 159.693 104.384 160.238 103.839 160.783C103.658 160.057 103.658 159.421 103.748 158.695C103.839 158.059 103.93 157.424 104.112 156.788C104.293 156.153 104.565 155.518 104.838 154.973C105.201 154.247 105.564 153.611 106.109 153.157Z" fill="#EA8383"/>
<path d="M96.5768 147.254C97.2123 148.162 97.6662 149.16 98.1201 150.159C98.4832 151.157 98.8463 152.156 99.1186 153.245C99.391 154.244 99.5725 155.333 99.7541 156.423C99.9357 157.512 99.9357 158.601 99.8449 159.691C99.2094 158.783 98.7555 157.784 98.3016 156.786C97.9385 155.787 97.5754 154.789 97.303 153.699C97.0307 152.701 96.8491 151.611 96.6676 150.522C96.5768 149.523 96.486 148.343 96.5768 147.254Z" fill="#EA8383"/>
<path d="M95.3055 160.237C94.7609 159.965 94.307 159.692 93.9438 159.238C93.5807 158.875 93.3084 158.421 93.036 158.058C92.7637 157.604 92.5821 157.15 92.4914 156.606C92.3098 156.061 92.3098 155.516 92.4006 154.972C92.9453 155.244 93.3992 155.516 93.7623 155.97C94.1254 156.333 94.3977 156.787 94.6701 157.15C94.9424 157.604 95.124 158.058 95.2148 158.603C95.3055 159.148 95.3963 159.692 95.3055 160.237Z" fill="#EA8383"/>
<path d="M112.826 334.899C117.138 334.899 120.634 331.404 120.634 327.092C120.634 322.781 117.138 319.285 112.826 319.285C108.515 319.285 105.019 322.781 105.019 327.092C105.019 331.404 108.515 334.899 112.826 334.899Z" fill="#F2EBEB"/>
<path d="M42.156 225.693C42.3111 221.033 38.6593 217.129 33.9994 216.974C29.3395 216.819 25.4361 220.471 25.281 225.131C25.1258 229.791 28.7776 233.694 33.4375 233.849C38.0974 234.004 42.0008 230.353 42.156 225.693Z" fill="#F2EBEB"/>
<path d="M299.289 320.374C305.456 320.374 310.455 315.375 310.455 309.208C310.455 303.041 305.456 298.042 299.289 298.042C293.123 298.042 288.123 303.041 288.123 309.208C288.123 315.375 293.123 320.374 299.289 320.374Z" fill="#F2EBEB"/>
<path d="M70.7951 109.218C74.2044 109.218 76.9682 106.454 76.9682 103.045C76.9682 99.6358 74.2044 96.8721 70.7951 96.8721C67.3858 96.8721 64.6221 99.6358 64.6221 103.045C64.6221 106.454 67.3858 109.218 70.7951 109.218Z" fill="#F2EBEB"/>
<path d="M293.479 73.8154C297.791 73.8154 301.286 70.32 301.286 66.0083C301.286 61.6965 297.791 58.2012 293.479 58.2012C289.167 58.2012 285.672 61.6965 285.672 66.0083C285.672 70.32 289.167 73.8154 293.479 73.8154Z" fill="#F2EBEB"/>
<path d="M359.023 90.3359C365.19 90.3359 370.189 85.3367 370.189 79.1699C370.189 73.0031 365.19 68.0039 359.023 68.0039C352.856 68.0039 347.857 73.0031 347.857 79.1699C347.857 85.3367 352.856 90.3359 359.023 90.3359Z" fill="#F2EBEB"/>
<path d="M370.189 168.59C372.846 168.59 375 166.436 375 163.779C375 161.122 372.846 158.968 370.189 158.968C367.532 158.968 365.377 161.122 365.377 163.779C365.377 166.436 367.532 168.59 370.189 168.59Z" fill="#F2EBEB"/>
<path d="M304.01 336.716C306.667 336.716 308.821 334.562 308.821 331.905C308.821 329.248 306.667 327.094 304.01 327.094C301.353 327.094 299.198 329.248 299.198 331.905C299.198 334.562 301.353 336.716 304.01 336.716Z" fill="#F2EBEB"/>
<path d="M85.4108 120.75C86.7144 120.75 87.7711 119.693 87.7711 118.39C87.7711 117.086 86.7144 116.029 85.4108 116.029C84.1073 116.029 83.0505 117.086 83.0505 118.39C83.0505 119.693 84.1073 120.75 85.4108 120.75Z" fill="#F2EBEB"/>
</svg>
