<svg  viewBox="0 0 400 400" fill="none" xmlns="http://www.w3.org/2000/svg">
<rect width="400" height="400" rx="30" fill="#F5F5F5"/>
<path d="M161.813 179.435C137.843 184.894 116.604 195.3 99.2026 209.631L163.348 307.896L178.872 308.066L189.62 308.152L201.221 308.237L199.856 175.255C187.061 175.255 174.266 176.705 161.813 179.435Z" fill="#F2EBEB"/>
<path d="M79.1573 230.017C61.8415 251.768 51.8615 278.467 50.4114 306.189C50.4114 306.189 102.444 307.213 163.263 307.895L99.1175 209.63C91.867 215.686 85.1283 222.51 79.1573 230.017Z" fill="#000001"/>
<path d="M237.388 308.493C247.112 308.237 256.922 308.152 266.646 308.066L281.232 307.981C286.094 307.896 290.956 307.981 295.818 307.981L310.405 308.066H317.74L325.076 307.981C329.938 307.896 334.8 307.725 339.662 307.469C342.136 307.299 344.525 307.128 346.913 306.872C348.107 306.787 349.301 306.616 350.495 306.36C350.751 306.275 351.093 306.19 351.348 306.104C351.519 306.019 351.69 305.934 351.86 305.763C352.116 305.251 352.287 304.74 352.287 304.143C352.543 301.754 352.457 299.366 352.116 296.977C351.775 294.589 351.348 292.201 350.922 289.812C349.898 285.121 348.534 280.429 346.998 275.823C345.463 271.217 343.671 266.696 341.624 262.346C339.577 257.91 337.445 253.56 335.056 249.38C332.668 245.201 330.109 241.021 327.379 237.097C324.65 233.088 321.664 229.25 318.593 225.582C312.367 218.161 305.372 211.337 297.695 205.195L297.78 205.024C313.731 216.54 326.953 231.382 336.592 248.527C341.454 257.057 345.463 266.014 348.448 275.397C349.984 280.088 351.263 284.78 352.201 289.642C352.713 292.03 353.054 294.504 353.225 296.892C353.481 299.366 353.481 301.839 353.225 304.313C353.14 304.996 352.884 305.593 352.628 306.19C352.543 306.275 352.543 306.36 352.457 306.446C352.372 306.531 352.287 306.616 352.201 306.702C352.031 306.787 351.86 306.872 351.69 306.957C351.348 307.043 351.093 307.128 350.751 307.213C349.557 307.384 348.278 307.555 347.083 307.64C344.61 307.81 342.221 307.981 339.748 308.066C334.886 308.322 330.024 308.408 325.161 308.578L310.575 309.005C305.713 309.175 300.851 309.261 295.989 309.346C291.127 309.431 286.265 309.516 281.403 309.431L266.817 309.346C257.092 309.261 247.283 309.005 237.559 308.663L237.388 308.493Z" fill="#E1C692"/>
<path d="M246.174 180.799C243.444 180.117 240.544 179.52 237.644 178.923C225.19 176.534 212.481 175.255 199.771 175.255L201.136 308.237L207.021 308.322L216.149 308.408C223.228 308.493 230.308 308.493 237.303 308.578L297.695 205.024C282.341 193.509 264.855 185.32 246.174 180.799Z" fill="#E1C692"/>
<path d="M152.941 307.811C152.941 307.811 165.225 278.894 191.753 275.567C218.281 272.241 237.132 308.493 237.132 308.493C237.132 308.493 158.742 311.478 152.941 307.811Z" fill="#E1C692"/>
<mask id="mask0_198_1640" style="mask-type:luminance" maskUnits="userSpaceOnUse" x="152" y="275" width="86" height="35">
<path d="M152.941 307.811C152.941 307.811 165.224 278.895 191.753 275.568C218.281 272.242 237.132 308.494 237.132 308.494C237.132 308.494 158.742 311.479 152.941 307.811Z" fill="white"/>
</mask>
<g mask="url(#mask0_198_1640)">
<path d="M255.045 365.217H254.959L70.6269 307.213C70.371 307.128 70.2857 306.872 70.371 306.702C70.4563 306.446 70.7122 306.36 70.9681 306.36L255.301 364.364C255.556 364.449 255.642 364.705 255.556 364.876C255.471 365.132 255.301 365.217 255.045 365.217Z" fill="#F2EBEB"/>
<path d="M258.798 352.166H258.713L73.7831 297.574C73.5272 297.489 73.4419 297.318 73.5272 297.062C73.6125 296.806 73.8684 296.721 74.039 296.806L258.969 351.398C259.224 351.483 259.31 351.739 259.224 351.91C259.139 352.081 258.969 352.166 258.798 352.166Z" fill="#F2EBEB"/>
<path d="M262.295 340.054H262.21L76.7685 286.998C76.5126 286.913 76.4273 286.657 76.5126 286.486C76.5979 286.23 76.8538 286.145 77.0244 286.23L262.38 339.287C262.636 339.372 262.722 339.628 262.636 339.798C262.636 339.969 262.466 340.054 262.295 340.054Z" fill="#F2EBEB"/>
<path d="M265.537 328.538H265.451L79.6688 276.59C79.4129 276.505 79.3276 276.334 79.3276 276.079C79.4129 275.823 79.5835 275.737 79.8394 275.737L265.622 327.685C265.878 327.685 266.048 327.941 265.963 328.197C265.878 328.452 265.793 328.623 265.537 328.538Z" fill="#F2EBEB"/>
<path d="M269.119 316.169H269.034L82.3131 267.975C82.0572 267.89 81.9719 267.719 81.9719 267.463C81.9719 267.207 82.2278 267.122 82.4837 267.122L269.205 315.316C269.46 315.402 269.546 315.572 269.546 315.828C269.46 315.999 269.29 316.169 269.119 316.169Z" fill="#F2EBEB"/>
<path d="M272.19 305.677L85.0427 258.677C84.7868 258.592 84.7015 258.421 84.7015 258.165C84.7015 257.91 84.9574 257.824 85.2133 257.824L272.275 304.824C272.531 304.91 272.617 305.08 272.617 305.336C272.531 305.507 272.361 305.592 272.19 305.677Z" fill="#F2EBEB"/>
<path d="M274.067 298.94H273.981L86.7487 252.537C86.4928 252.451 86.4075 252.281 86.4075 252.025C86.4928 251.769 86.6634 251.684 86.9193 251.684L274.152 298.087C274.408 298.172 274.493 298.342 274.493 298.598C274.493 298.854 274.322 298.94 274.067 298.94Z" fill="#F2EBEB"/>
<path d="M275.687 293.224H275.602L88.8811 245.03C88.6252 244.944 88.5399 244.774 88.5399 244.518C88.5399 244.262 88.7958 244.177 89.0517 244.177L275.773 292.371C276.028 292.456 276.114 292.627 276.114 292.883C276.114 293.053 275.943 293.224 275.687 293.224Z" fill="#F2EBEB"/>
<path d="M142.108 381.508H142.023C141.767 381.423 141.682 381.167 141.767 380.996L202.756 185.831C202.841 185.575 203.097 185.49 203.268 185.575C203.524 185.66 203.609 185.916 203.524 186.087L142.535 381.252C142.449 381.338 142.279 381.508 142.108 381.508Z" fill="#F2EBEB"/>
<path d="M132.725 378.354H132.64C132.384 378.268 132.298 378.012 132.384 377.842L189.961 182.164C190.046 181.909 190.302 181.823 190.473 181.823C190.643 181.823 190.814 182.164 190.814 182.335L133.151 378.012C133.066 378.268 132.896 378.439 132.725 378.354Z" fill="#F2EBEB"/>
<path d="M122.318 375.454H122.233C121.977 375.369 121.892 375.113 121.892 374.942L178.019 178.838C178.104 178.582 178.275 178.497 178.531 178.497C178.787 178.582 178.872 178.838 178.872 179.009L122.745 375.198C122.66 375.369 122.489 375.454 122.318 375.454Z" fill="#F2EBEB"/>
<path d="M112.168 372.637H112.083C111.827 372.552 111.741 372.381 111.741 372.125L166.76 175.595C166.845 175.339 167.015 175.254 167.271 175.254C167.527 175.339 167.613 175.595 167.613 175.766L112.594 372.296C112.509 372.467 112.338 372.637 112.168 372.637Z" fill="#F2EBEB"/>
<path d="M103.638 370.078H103.553C103.297 369.993 103.212 369.823 103.212 369.567L154.562 172.098C154.647 171.842 154.818 171.757 155.074 171.757C155.33 171.842 155.415 172.013 155.415 172.269L104.065 369.737C103.979 369.908 103.894 370.078 103.638 370.078Z" fill="#F2EBEB"/>
<path d="M249.671 282.988C249.586 282.988 249.586 282.988 249.5 282.988L97.8377 234.367C97.5818 234.282 97.4965 234.026 97.5818 233.855C97.6671 233.599 97.923 233.514 98.0936 233.599L249.756 282.22C250.012 282.22 250.183 282.476 250.098 282.732C250.098 282.903 249.927 283.073 249.671 282.988Z" fill="#F2EBEB"/>
<path d="M216.063 406.672H215.978C215.722 406.587 215.636 406.416 215.722 406.16L276.711 210.995C276.796 210.739 277.052 210.653 277.223 210.653C277.393 210.653 277.564 210.995 277.564 211.165L216.575 406.331C216.404 406.587 216.233 406.672 216.063 406.672Z" fill="#F2EBEB"/>
<path d="M206.68 403.601H206.595C206.339 403.516 206.254 403.26 206.339 403.09L263.916 207.327C264.001 207.071 264.257 206.986 264.513 207.071C264.684 207.156 264.769 207.327 264.769 207.498L207.192 403.175C207.021 403.431 206.851 403.601 206.68 403.601Z" fill="#F2EBEB"/>
<path d="M196.359 400.616H196.188C195.932 400.531 195.847 400.36 195.932 400.104L252.059 204C252.145 203.744 252.4 203.659 252.571 203.659C252.827 203.744 252.912 204 252.912 204.171L196.785 400.36C196.7 400.531 196.529 400.616 196.359 400.616Z" fill="#F2EBEB"/>
<path d="M186.123 397.802H186.037C185.781 397.716 185.696 397.546 185.696 397.29L240.714 200.76C240.8 200.504 241.055 200.418 241.226 200.504C241.482 200.589 241.567 200.76 241.482 201.015L186.549 397.46C186.549 397.631 186.378 397.802 186.123 397.802Z" fill="#F2EBEB"/>
<path d="M177.678 395.242H177.593C177.337 395.157 177.252 394.987 177.252 394.731L228.602 197.262C228.687 197.006 228.858 196.921 229.114 196.921C229.37 197.006 229.455 197.177 229.455 197.433L178.105 394.901C178.019 395.157 177.849 395.242 177.678 395.242Z" fill="#F2EBEB"/>
<path d="M168.466 392.598H168.38C168.124 392.513 168.039 392.342 168.039 392.087L218.281 194.277C218.366 194.021 218.536 193.936 218.792 193.936C219.048 193.936 219.134 194.191 219.134 194.447L168.892 392.257C168.807 392.513 168.636 392.598 168.466 392.598Z" fill="#F2EBEB"/>
<path d="M162.58 390.892H162.495C162.239 390.807 162.154 390.636 162.154 390.38L211.713 192.4C211.798 192.144 211.969 192.059 212.224 192.059C212.48 192.144 212.566 192.314 212.566 192.57L163.007 390.636C162.921 390.807 162.751 390.892 162.58 390.892Z" fill="#F2EBEB"/>
<path d="M155.159 388.845H155.073C154.817 388.76 154.732 388.589 154.732 388.333L206.083 190.865C206.168 190.609 206.338 190.523 206.594 190.523C206.85 190.609 206.936 190.779 206.936 191.035L155.5 388.504C155.585 388.674 155.415 388.845 155.159 388.845Z" fill="#F2EBEB"/>
</g>
<path d="M191.753 302.095C191.753 302.095 203.268 248.271 204.036 248.271C204.804 248.271 204.036 307.127 204.036 307.127L191.753 302.095Z" fill="#000001"/>
<path d="M192.947 295.869C192.947 295.869 179.385 299.537 182.37 309.517C185.356 319.497 199.259 321.97 206.169 314.891C213.078 307.811 208.045 291.945 192.947 295.869Z" fill="#000001"/>
<path d="M207.789 267.293C208.642 267.378 209.495 267.549 210.263 267.89C211.031 268.146 211.798 268.487 212.566 268.914C213.334 269.34 214.016 269.767 214.699 270.278C215.381 270.79 216.063 271.387 216.575 272.07C215.722 271.984 214.869 271.814 214.101 271.473C213.334 271.217 212.566 270.876 211.798 270.449C211.031 270.023 210.348 269.596 209.666 269.084C208.983 268.572 208.301 267.975 207.789 267.293Z" fill="#F2EBEB"/>
<path d="M225.873 253.389C224.849 253.816 223.74 254.072 222.631 254.328C221.522 254.498 220.499 254.669 219.39 254.754C218.281 254.839 217.172 254.839 216.148 254.839C215.04 254.839 213.931 254.669 212.822 254.413C213.845 253.986 214.954 253.73 216.063 253.475C218.196 253.048 220.413 252.877 222.546 252.963C223.74 253.048 224.849 253.133 225.873 253.389Z" fill="#F2EBEB"/>
<path d="M221.181 233.173C220.499 234.111 219.731 234.964 218.793 235.817C217.94 236.585 217.087 237.353 216.149 238.035C215.211 238.717 214.272 239.4 213.249 239.997C212.225 240.594 211.201 241.106 210.093 241.532C210.775 240.594 211.543 239.741 212.481 238.888C213.334 238.12 214.187 237.353 215.125 236.67C216.064 235.988 217.002 235.305 218.025 234.708C219.049 234.111 220.073 233.514 221.181 233.173Z" fill="#F2EBEB"/>
<path d="M42.4787 164.338C50.2409 161.95 58.6003 163.57 64.8272 168.688C75.4043 177.389 73.1012 202.893 58.7709 207.244C44.4406 211.594 30.9632 209.376 27.4659 191.804L54.0794 188.734L42.4787 164.338Z" fill="#E1C692"/>
<path d="M36.7636 165.788C34.8017 167.153 33.0104 168.944 31.6456 170.906C30.2808 172.868 29.1719 175 28.4895 177.304L28.063 179.01C27.8924 179.607 27.8071 180.204 27.7218 180.801C27.5512 181.995 27.3806 183.189 27.2953 184.383C27.2953 184.98 27.2953 185.578 27.2953 186.175V188.051C27.3806 189.245 27.4659 190.525 27.4659 191.804C27.0394 190.61 26.7835 189.416 26.4423 188.137C26.2717 186.857 26.1011 185.663 26.0158 184.383C25.9305 181.824 26.1864 179.265 26.8688 176.792C27.6365 174.318 28.916 172.015 30.622 170.053C32.328 168.091 34.4605 166.641 36.7636 165.788Z" fill="#E1C692"/>
<path d="M42.4786 188.734C42.7345 187.54 43.161 186.431 43.6728 185.322C44.1846 184.298 44.6964 183.189 45.2935 182.251C45.8906 181.228 46.4877 180.204 47.1701 179.266C47.8525 178.327 48.6202 177.389 49.4732 176.536C49.2173 177.73 48.7908 178.839 48.279 179.948C47.7672 181.057 47.2554 182.081 46.7436 183.104C46.1465 184.128 45.5494 185.066 44.867 186.09C44.0993 187.028 43.3316 187.881 42.4786 188.734Z" fill="#E1C692"/>
<path d="M34.8871 190.951C35.4842 189.159 36.2519 187.453 37.1049 185.833C37.8726 184.127 38.8109 182.506 39.6639 180.885C40.5169 179.265 41.5405 177.729 42.564 176.194C43.5876 174.658 44.6965 173.123 45.8907 171.673C45.2936 173.379 44.5259 175.17 43.6729 176.791C42.9052 178.497 41.967 180.118 41.114 181.738C40.261 183.359 39.2374 184.894 38.2138 186.43C37.1902 188.05 36.0813 189.5 34.8871 190.951Z" fill="#E1C692"/>
<path d="M27.8923 189.842C28.66 187.795 29.513 185.747 30.4513 183.785C31.3896 181.824 32.4132 179.862 33.4368 177.985C34.4604 176.108 35.5693 174.232 36.7635 172.355C37.8724 170.479 39.1519 168.687 40.5167 166.981C39.749 169.029 38.896 171.076 37.9577 173.038C37.0194 175 35.9958 176.961 34.9722 178.838C33.9486 180.715 32.8397 182.591 31.6455 184.468C30.4513 186.344 29.1718 188.136 27.8923 189.842Z" fill="#E1C692"/>
<path d="M226.47 101.471V133.117H232.185C232.185 133.117 233.635 100.874 232.185 101.471C230.735 102.068 226.47 101.471 226.47 101.471Z" fill="#E1C692"/>
<path d="M236.621 101.471V133.117H240.886C240.886 133.117 241.909 100.874 240.886 101.471C239.862 102.068 236.621 101.471 236.621 101.471Z" fill="#000001"/>
<path d="M246.942 100.96V132.607H251.207C251.207 132.607 252.23 100.363 251.207 100.96C250.183 101.557 246.942 100.96 246.942 100.96Z" fill="#000001"/>
<path d="M255.386 101.045V132.691H261.187C261.187 132.691 262.637 100.448 261.187 101.045C259.737 101.642 255.386 101.045 255.386 101.045Z" fill="#E1C692"/>
<path d="M221.693 99.1688C221.693 99.1688 243.53 81 245.406 81C247.283 81 265.367 99.1688 265.367 99.1688H221.693Z" fill="#E1C692"/>
<path d="M217.428 99.1685C217.428 99.1685 215.296 104.201 217.428 104.201C219.561 104.201 269.717 105.822 269.717 104.201V98.0596L217.428 99.1685Z" fill="#E1C692"/>
<path d="M218.793 131.156C218.793 131.156 217.172 136.445 218.793 137.298C220.414 138.151 272.361 137.042 272.361 135.677V128.768L218.793 131.156Z" fill="#E1C692"/>
<path d="M221.693 99.1685C225.276 98.9126 228.773 98.742 232.356 98.5714C235.938 98.4008 239.435 98.3155 243.018 98.2302C246.601 98.1449 250.098 98.0596 253.68 98.0596H259.054C260.846 98.0596 262.637 98.0596 264.343 98.1449C262.552 98.3155 260.76 98.4008 259.054 98.4861L253.766 98.742C250.183 98.9126 246.686 98.9979 243.103 99.0832C239.521 99.1685 236.023 99.2538 232.441 99.2538C228.858 99.2538 225.276 99.2538 221.693 99.1685Z" fill="#000001"/>
<path d="M223.143 130.901C226.64 130.559 230.052 130.304 233.55 130.133C237.047 129.962 240.459 129.792 243.956 129.536C247.453 129.28 250.865 129.28 254.363 129.195L259.566 129.109C261.272 129.109 263.063 129.109 264.769 129.109C263.063 129.28 261.272 129.365 259.566 129.536L254.363 129.877C250.865 130.133 247.453 130.218 243.956 130.474C240.459 130.73 237.047 130.73 233.55 130.815C230.052 130.901 226.555 130.986 223.143 130.901Z" fill="#000001"/>
<path d="M242.08 92.6006C242.08 92.6006 242.336 88.7622 246.174 89.7005C249.159 90.4682 248.648 94.9037 247.112 95.6714C245.15 96.695 242.335 96.2685 242.08 92.6006Z" fill="#000001"/>
<path d="M320.129 162.803C320.129 162.803 319.446 149.667 327.464 151.202C335.483 152.737 333.18 162.803 333.18 162.803H320.129Z" fill="#000001"/>
<path d="M327.465 151.117C327.465 151.117 365.338 149.497 368.408 151.885C371.479 154.273 370.797 182.934 371.906 189.076C373.015 195.217 374.038 214.41 374.038 214.41C374.038 214.41 341.795 215.177 336.592 214.41C331.388 213.642 328.829 194.876 329 184.811C329.171 174.745 331.644 154.615 327.465 151.117Z" fill="#F2EBEB"/>
<path d="M346.827 155.808C347.169 155.467 347.595 155.296 348.107 155.126C348.533 155.04 348.96 154.955 349.386 154.955C349.813 154.955 350.239 155.04 350.666 155.211C351.092 155.382 351.519 155.552 351.945 155.893C351.604 156.235 351.178 156.405 350.666 156.576C350.239 156.661 349.813 156.746 349.386 156.746C348.96 156.746 348.533 156.661 348.107 156.576C347.68 156.405 347.254 156.149 346.827 155.808Z" fill="#E1C692"/>
<path d="M334.289 162.802C336.762 162.461 339.236 162.29 341.71 162.12C344.183 161.949 346.657 161.949 349.045 161.949C351.434 161.949 353.993 162.035 356.466 162.12C358.94 162.205 361.414 162.461 363.888 162.802C361.414 163.143 358.94 163.314 356.466 163.485C353.993 163.655 351.519 163.655 349.045 163.655C346.572 163.655 344.098 163.57 341.71 163.485C339.321 163.399 336.762 163.143 334.289 162.802Z" fill="#E1C692"/>
<path d="M335.056 168.517C335.312 168.347 335.568 168.176 335.824 168.006C335.994 167.92 336.25 167.835 336.506 167.835C336.762 167.835 337.018 167.835 337.189 168.006C337.53 168.176 337.786 168.347 337.956 168.603C337.786 168.944 337.53 169.2 337.274 169.37C337.018 169.541 336.762 169.626 336.506 169.626C336.25 169.626 335.994 169.541 335.739 169.456C335.483 169.2 335.227 168.859 335.056 168.517Z" fill="#E1C692"/>
<path d="M342.819 168.518C344.525 168.177 346.316 168.006 348.022 167.836C349.728 167.75 351.519 167.665 353.225 167.665C354.931 167.665 356.722 167.75 358.428 167.836C360.22 167.921 361.926 168.177 363.632 168.518C361.926 168.859 360.134 169.115 358.428 169.2C356.722 169.286 354.931 169.371 353.225 169.371C351.519 169.371 349.728 169.286 348.022 169.2C346.316 169.115 344.61 168.859 342.819 168.518Z" fill="#E1C692"/>
<path d="M335.056 175C336.506 174.659 337.956 174.489 339.492 174.318C340.942 174.233 342.392 174.147 343.927 174.147C345.463 174.147 346.828 174.233 348.363 174.318C349.813 174.403 351.348 174.659 352.798 175C351.348 175.342 349.898 175.598 348.363 175.683C346.913 175.768 345.377 175.853 343.927 175.853C342.477 175.853 340.942 175.768 339.492 175.683C338.042 175.512 336.506 175.256 335.056 175Z" fill="#E1C692"/>
<path d="M358.002 175C358.684 174.659 359.366 174.489 360.049 174.318C360.731 174.233 361.414 174.147 362.096 174.147C362.778 174.147 363.461 174.233 364.143 174.318C364.826 174.403 365.593 174.659 366.19 175C365.593 175.342 364.826 175.598 364.143 175.683C363.461 175.768 362.778 175.853 362.096 175.853C361.414 175.853 360.731 175.768 360.049 175.683C359.366 175.512 358.599 175.342 358.002 175Z" fill="#E1C692"/>
<path d="M335.056 179.778C336.592 179.437 338.042 179.181 339.662 179.095C341.198 179.01 342.733 178.925 344.269 178.925C345.804 178.925 347.339 179.01 348.789 179.095C350.325 179.181 351.86 179.437 353.396 179.778C351.86 180.119 350.325 180.29 348.789 180.46C347.254 180.545 345.719 180.631 344.269 180.631C342.818 180.631 341.198 180.545 339.662 180.46C338.127 180.375 336.592 180.119 335.056 179.778Z" fill="#E1C692"/>
<path d="M356.637 179.778C357.49 179.437 358.343 179.266 359.281 179.095C360.134 179.01 360.987 178.925 361.84 178.925C362.693 178.925 363.546 179.01 364.485 179.095C365.338 179.181 366.276 179.437 367.129 179.778C366.276 180.119 365.423 180.29 364.485 180.46C363.632 180.545 362.779 180.631 361.84 180.631C360.987 180.631 360.134 180.545 359.281 180.46C358.343 180.29 357.49 180.119 356.637 179.778Z" fill="#E1C692"/>
<path d="M335.739 185.408C336.421 185.066 337.104 184.896 337.871 184.725C339.321 184.469 340.686 184.469 342.136 184.725C342.904 184.81 343.586 185.066 344.269 185.408C343.586 185.749 342.904 185.919 342.136 186.09C341.454 186.175 340.771 186.261 340.004 186.261C339.321 186.261 338.554 186.175 337.871 186.09C337.189 185.919 336.421 185.749 335.739 185.408Z" fill="#E1C692"/>
<path d="M369.858 150.69C369.773 150.093 369.773 149.581 369.944 148.984C370.199 147.96 370.626 146.937 371.308 146.084C371.65 145.657 372.076 145.231 372.588 144.89C372.673 145.487 372.673 145.999 372.503 146.596C372.417 147.107 372.247 147.619 371.991 148.131C371.735 148.643 371.479 149.069 371.138 149.496C370.797 150.008 370.37 150.349 369.858 150.69Z" fill="#EA8383"/>
<path d="M371.138 153.249C371.309 152.737 371.65 152.311 371.991 151.884C372.332 151.543 372.673 151.202 373.1 150.946C373.526 150.69 373.953 150.434 374.379 150.264C374.891 150.093 375.403 150.008 376 150.008C375.829 150.52 375.488 150.946 375.147 151.373C374.465 152.14 373.612 152.652 372.673 152.993C372.247 153.164 371.735 153.249 371.138 153.249Z" fill="#EA8383"/>
<path d="M42.4787 150.178C42.3081 145.06 43.1611 139.942 44.8671 135.165C48.1938 125.185 56.3825 117.594 66.5332 114.949C71.4806 113.585 76.6838 112.987 81.8018 113.329C83.0813 113.414 84.3608 113.67 85.6403 113.84C86.9198 114.011 88.1993 114.352 89.3935 114.693C90.5877 115.035 91.8672 115.461 93.0614 115.888C94.2556 116.314 95.4498 116.826 96.644 117.423C101.25 119.726 105.515 122.626 109.439 125.953C113.363 129.194 117.031 132.777 120.698 136.274C124.281 139.857 128.034 143.184 131.958 146.34C132.896 147.107 134.005 147.79 135.029 148.557C135.541 148.899 136.052 149.24 136.649 149.581C137.247 149.922 137.673 150.263 138.27 150.519C139.379 151.116 140.488 151.628 141.682 152.055C142.279 152.311 142.791 152.481 143.388 152.652L145.179 153.078C150.042 154.017 155.074 153.505 159.68 151.628C160.875 151.202 161.983 150.69 163.092 150.093C164.201 149.581 165.31 148.899 166.419 148.302C167.528 147.704 168.552 147.022 169.66 146.34C170.769 145.657 171.708 144.975 172.731 144.207C176.826 141.222 180.493 137.81 183.82 134.056C187.147 130.218 190.047 126.124 192.521 121.688C195.08 117.338 197.297 112.732 199.686 108.211C202.074 103.69 204.719 99.2542 208.386 95.6717C210.178 93.8804 212.31 92.345 214.528 91.1508C216.831 90.0419 219.219 89.1889 221.693 88.5918C219.219 89.1889 216.831 90.1272 214.613 91.4067C212.396 92.6009 210.348 94.2216 208.642 96.0129C205.145 99.6807 202.586 104.116 200.368 108.637C198.15 113.158 195.933 117.764 193.459 122.2C190.985 126.721 188.085 130.9 184.844 134.909C181.517 138.833 177.764 142.331 173.584 145.401C172.561 146.169 171.537 146.937 170.428 147.619C169.319 148.302 168.296 149.069 167.187 149.666C166.078 150.263 164.969 151.031 163.775 151.543C162.666 152.14 161.472 152.737 160.277 153.164C155.501 155.04 150.041 155.978 144.924 154.784L143.047 154.272C142.365 154.102 141.853 153.846 141.17 153.59C139.976 153.164 138.782 152.566 137.588 151.969C136.991 151.713 136.479 151.287 135.882 151.031C135.285 150.775 134.773 150.349 134.261 150.008C133.237 149.24 132.129 148.557 131.105 147.79C127.096 144.634 123.343 141.136 119.76 137.554C116.092 133.971 112.51 130.474 108.671 127.233C104.833 123.906 100.653 121.091 96.2175 118.873C91.7819 116.655 86.9198 115.205 81.8871 114.779C76.8544 114.352 71.8218 114.779 66.9597 116.144C56.9796 118.617 48.8762 125.868 45.4642 135.507C44.5259 137.895 43.8435 140.283 43.417 142.757C42.7346 145.145 42.4787 147.704 42.4787 150.178Z" fill="#EA8383"/>
<path d="M272.361 111.111C276.541 111.623 280.635 112.817 284.474 114.523C288.397 116.229 291.98 118.788 294.795 122.03C297.61 125.442 299.145 129.621 299.316 134.057C299.316 134.569 299.316 135.166 299.316 135.678C299.316 136.189 299.316 136.787 299.23 137.298L299.06 138.919L298.719 140.54C298.548 141.649 298.292 142.587 298.036 143.61C297.78 144.634 297.61 145.658 297.439 146.681C296.671 150.776 296.33 154.87 296.33 159.05C296.33 163.144 296.927 167.238 298.292 171.162C299.572 175.086 302.045 178.498 305.372 180.972C307.078 182.166 308.869 183.104 310.917 183.701C312.878 184.298 315.011 184.725 317.058 184.81C312.793 184.981 308.528 183.872 304.86 181.654C303.069 180.46 301.448 179.01 300.169 177.304C298.889 175.598 297.78 173.721 297.013 171.674C295.563 167.665 294.71 163.4 294.71 159.135C294.624 154.87 294.966 150.605 295.733 146.425C295.904 145.402 296.16 144.378 296.33 143.269C296.501 142.16 296.842 141.222 297.013 140.198C297.439 138.237 297.695 136.189 297.61 134.142C297.524 130.048 296.16 126.124 293.686 122.883C291.042 119.641 287.8 117.082 284.047 115.291C280.379 113.414 276.455 111.964 272.361 111.111Z" fill="#EA8383"/>
<path d="M118.225 145.913C107.221 139.686 102.359 126.55 105.515 114.352C107.904 105.225 113.533 94.6475 126.755 90.2972C160.277 79.2083 171.537 125.697 158.913 138.15C149.7 147.277 132.555 154.187 118.225 145.913Z" fill="#E1C692"/>
<path d="M111.657 125.611C111.657 125.611 100.397 92.0033 136.393 86.6294C164.542 82.4498 176.058 122.37 165.225 134.568C151.747 149.581 126.84 155.466 111.657 125.611Z" fill="#E1C692"/>
<path d="M115.751 97.5479C114.301 100.107 113.192 102.751 112.425 105.566C111.657 108.381 111.23 111.196 111.145 114.096C110.975 125.782 117.201 136.53 127.437 142.16C132.555 144.889 138.27 146.425 144.071 146.595C138.185 147.022 132.214 145.913 126.84 143.354C124.111 142.074 121.637 140.368 119.504 138.321C117.287 136.274 115.41 133.885 113.96 131.327C112.425 128.768 111.316 125.953 110.548 123.052C109.866 120.152 109.61 117.167 109.78 114.181C110.207 108.125 112.254 102.41 115.751 97.5479Z" fill="#F2EBEB"/>
<path d="M120.443 146.595C120.699 145.998 121.125 145.486 121.552 145.06C122.405 144.207 123.343 143.524 124.452 143.012C125.049 142.757 125.646 142.586 126.328 142.586C126.072 143.183 125.646 143.695 125.219 144.121C124.793 144.548 124.366 144.974 123.855 145.316C123.343 145.657 122.831 145.913 122.319 146.169C121.722 146.424 121.125 146.595 120.443 146.595Z" fill="#F2EBEB"/>
<path d="M112.169 138.321C112.339 137.809 112.595 137.297 112.851 136.956C113.448 136.188 114.216 135.591 115.069 135.164C115.581 134.909 116.092 134.823 116.604 134.823C116.434 135.335 116.178 135.847 115.922 136.188C115.666 136.615 115.325 136.956 114.898 137.212C114.557 137.468 114.13 137.723 113.704 137.979C113.192 138.15 112.68 138.321 112.169 138.321Z" fill="#F2EBEB"/>
<path d="M106.88 127.232C107.051 126.72 107.221 126.294 107.562 125.952C108.16 125.27 108.842 124.758 109.695 124.417C110.207 124.246 110.633 124.161 111.145 124.246C110.974 124.758 110.804 125.185 110.463 125.526C110.207 125.867 109.865 126.208 109.524 126.464C109.183 126.72 108.757 126.891 108.33 127.061C107.904 127.232 107.392 127.232 106.88 127.232Z" fill="#F2EBEB"/>
<path d="M105.515 117.166C105.686 116.654 106.027 116.227 106.454 115.801C106.795 115.46 107.221 115.119 107.648 114.863C108.074 114.607 108.501 114.436 109.013 114.266C109.524 114.095 110.036 114.01 110.633 114.095C110.463 114.607 110.121 115.033 109.695 115.46C109.354 115.801 108.927 116.142 108.501 116.398C108.074 116.654 107.648 116.825 107.136 116.995C106.539 117.08 106.027 117.166 105.515 117.166Z" fill="#F2EBEB"/>
<path d="M133.579 126.464C133.067 126.464 133.067 131.326 133.067 131.326C133.067 131.326 143.218 135.506 148.677 127.317C154.136 119.128 145.35 113.754 138.185 112.816C131.02 111.878 134.261 103.774 138.1 104.627C140.403 105.139 142.791 105.48 145.094 105.651L145.265 102.154C145.265 102.154 135.37 98.4857 131.958 104.371C128.546 110.257 129.655 115.034 137.503 116.996C145.35 118.958 150.212 127.573 133.579 126.464Z" fill="#000001"/>
<path d="M143.268 128.563L140.238 129.06L141.147 134.616L144.178 134.119L143.268 128.563Z" fill="#000001"/>
<path d="M137.945 95.9793L134.914 96.4756L135.879 102.368L138.91 101.872L137.945 95.9793Z" fill="#000001"/>
</svg>
