<svg viewBox="0 0 400 400" fill="none" xmlns="http://www.w3.org/2000/svg">
<rect width="400" height="400" rx="30" fill="#F5F5F5"/>
<path d="M200.808 357.72C200.808 357.72 117.835 308.497 93.8609 245.502C69.8871 182.507 68.8669 105.995 68.8669 99.959C68.8669 93.923 188.651 43 200.808 43C212.965 43 326.457 93.0729 329.858 104.295C333.259 115.516 311.155 310.877 200.808 357.72Z" fill="#E1C692"/>
<path d="M201.403 336.551C197.917 334.511 194.602 332.3 191.201 330.09C187.801 327.88 184.57 325.584 181.34 323.204C174.878 318.528 168.502 313.597 162.382 308.411C150.14 298.04 138.578 286.818 128.631 274.151C123.615 267.86 119.11 261.144 115.199 254.173C113.244 250.687 111.459 247.032 109.928 243.291L108.738 240.486C108.313 239.551 108.058 238.615 107.718 237.68L105.678 231.984C100.577 216.767 96.6662 201.21 93.9458 185.397C93.2656 181.486 92.5855 177.491 92.0755 173.495L91.2253 167.544L90.5452 161.593L90.2052 158.618L89.8651 155.642L89.27 149.691C88.93 145.696 88.5899 141.7 88.3349 137.705C88.1648 135.664 88.0798 133.709 87.9948 131.669C87.9098 129.628 87.8248 127.673 87.7398 125.633C87.6548 123.592 87.5698 121.637 87.5698 119.597L87.4847 116.621V114.411C87.4847 114.326 87.4847 114.241 87.4847 114.241C87.4847 114.156 87.4847 114.071 87.5698 113.986C87.6548 113.816 87.7398 113.731 87.8248 113.561C88.5049 112.796 89.355 112.116 90.2052 111.605C91.0553 111.095 91.9054 110.5 92.7556 109.99C94.4558 108.97 96.2411 108.035 98.0264 107.1C101.597 105.229 105.168 103.529 108.823 101.744C116.049 98.2584 123.36 95.0278 130.672 91.7973C137.983 88.5668 145.379 85.3363 152.775 82.2758C160.171 79.2154 167.567 76.1549 175.049 73.2644C178.789 71.8192 182.53 70.374 186.27 69.0138C190.011 67.6535 193.836 66.3783 197.747 65.2732C198.767 65.0181 199.702 64.7631 200.723 64.5931C201.233 64.508 201.828 64.508 202.338 64.5931C202.848 64.6781 203.358 64.7631 203.868 64.8481C205.823 65.2732 207.779 65.8683 209.649 66.4633C213.475 67.7385 217.215 69.0988 220.956 70.544C228.437 73.4344 235.833 76.4949 243.229 79.6404C257.937 85.9314 272.559 92.6475 286.841 99.9586C290.412 101.744 293.982 103.699 297.468 105.655C300.953 107.61 304.439 109.65 307.754 111.946C309.455 113.051 311.07 114.411 312.515 115.941C312.685 116.111 312.855 116.366 313.025 116.621L313.28 116.961C313.365 117.131 313.45 117.301 313.45 117.386C313.535 117.641 313.62 117.981 313.705 118.322L313.79 119.087C313.875 120.107 313.875 121.127 313.875 122.147C313.79 126.228 313.45 130.223 313.025 134.219C312.175 142.21 310.985 150.202 309.54 158.023C308.094 165.844 306.394 173.75 304.524 181.571C302.654 189.393 300.528 197.129 298.148 204.78C295.768 212.431 293.217 220.083 290.412 227.564C287.606 235.045 284.461 242.441 281.06 249.752C277.66 257.063 273.919 264.204 269.923 271.091C265.843 278.062 261.422 284.778 256.661 291.154C251.816 297.53 246.63 303.651 240.934 309.347C235.238 315.042 229.117 320.228 222.486 324.819C215.855 329.495 208.799 333.405 201.403 336.551ZM201.403 336.381C208.714 333.15 215.685 329.155 222.231 324.564C228.692 319.888 234.813 314.617 240.424 308.922C245.95 303.226 251.135 297.105 255.896 290.644C260.572 284.183 264.993 277.467 268.903 270.58C272.899 263.694 276.469 256.553 279.87 249.242C283.271 241.931 286.246 234.62 289.051 227.054C294.577 212.091 299.253 196.704 302.994 181.231C306.819 165.674 309.625 149.946 311.41 134.049C311.835 130.053 312.175 126.058 312.26 122.147C312.26 121.127 312.26 120.192 312.175 119.257L312.09 118.577C312.09 118.407 312.005 118.237 311.92 118.066C311.92 117.981 311.835 117.896 311.835 117.811L311.665 117.556C311.58 117.386 311.41 117.216 311.24 117.046C309.88 115.686 308.435 114.411 306.819 113.306C303.589 111.01 300.103 108.97 296.618 107.015C293.132 105.059 289.647 103.189 286.076 101.319C271.879 94.0077 257.341 87.2066 242.719 80.8306C235.408 77.6001 228.012 74.5396 220.531 71.5642C216.79 70.1189 213.049 68.6737 209.309 67.4835C207.439 66.8884 205.483 66.2933 203.613 65.7832C202.678 65.5282 201.743 65.4432 200.808 65.5282C199.872 65.6982 198.852 65.8683 197.917 66.1233C194.092 67.1435 190.266 68.4187 186.525 69.7789C182.785 71.1391 178.959 72.4993 175.304 73.9445C167.822 76.75 160.341 79.7254 153.03 82.7859C138.238 88.9069 123.445 95.2829 108.993 102.169C105.423 103.869 101.767 105.655 98.2814 107.525C96.4962 108.46 94.7109 109.395 93.0106 110.415C92.1605 110.925 91.3103 111.435 90.4602 112.031C89.6101 112.541 88.93 113.136 88.2499 113.816C88.1648 113.901 88.1648 113.986 88.0798 114.071V114.156C88.0798 114.241 88.0798 114.241 88.0798 114.326V115.091V116.621L88.1649 119.597C88.2499 121.637 88.3349 123.592 88.4199 125.548C88.5049 127.503 88.5899 129.543 88.7599 131.584C88.93 133.624 89.015 135.579 89.185 137.535C90.3752 153.517 92.4155 169.415 95.306 185.142C95.646 187.097 95.9861 189.053 96.4111 191.008L97.6013 196.874C98.4515 200.784 99.3866 204.695 100.322 208.521L101.852 214.302L102.617 217.192L103.042 218.637L103.467 220.083L105.253 225.778L106.103 228.669C106.443 229.604 106.783 230.539 107.038 231.474L109.078 237.085C109.418 238.02 109.758 238.956 110.098 239.891L111.203 242.611C112.734 246.267 114.519 249.837 116.389 253.323C120.3 260.294 124.721 266.925 129.651 273.216C139.598 285.713 150.735 297.275 162.977 307.646C175.049 318.188 187.886 327.794 201.403 336.381Z" fill="#F2EBEB"/>
<path d="M28.9108 163.378C31.7162 163.718 34.5217 164.143 37.3271 164.653C40.1325 165.163 42.853 165.758 45.6584 166.353C48.4638 166.948 51.1843 167.714 53.9047 168.479C56.6251 169.244 59.3456 170.094 62.066 171.029C59.2605 170.689 56.4551 170.264 53.6497 169.754C50.8442 169.244 48.0388 168.649 45.3184 168.054C42.5979 167.459 39.7925 166.693 37.0721 165.928C34.3516 165.163 31.5462 164.398 28.9108 163.378Z" fill="#E1C692"/>
<path d="M25 219.488C28.5706 218.808 32.1411 218.382 35.7117 217.957C39.2822 217.532 42.9378 217.192 46.5084 216.852C50.0789 216.512 53.7345 216.342 57.3051 216.087C60.8756 215.832 64.5312 215.832 68.1868 215.832C64.6162 216.512 61.0457 216.937 57.4751 217.362C53.9045 217.787 50.334 218.127 46.6784 218.467C43.0228 218.808 39.4523 218.978 35.8817 219.148C32.3111 219.318 28.6556 219.488 25 219.488Z" fill="#E1C692"/>
<path d="M79.0685 247.457C76.3481 249.837 73.4577 252.048 70.5672 254.173C67.6768 256.298 64.7863 258.424 61.8108 260.464C58.8354 262.504 55.8599 264.545 52.7994 266.5C49.7389 268.455 46.6785 270.411 43.533 272.111C46.2534 269.731 49.1438 267.52 52.0343 265.395C54.9248 263.27 57.8152 261.144 60.7907 259.104C63.7661 257.064 66.7416 255.023 69.8021 253.068C72.8626 251.113 75.838 249.242 79.0685 247.457Z" fill="#E1C692"/>
<path d="M371.175 163.634C368.454 164.654 365.734 165.419 363.013 166.184C360.293 166.949 357.487 167.629 354.767 168.31C352.046 168.99 349.241 169.585 346.436 170.095C343.63 170.605 340.825 171.115 338.019 171.37C340.655 170.35 343.46 169.585 346.181 168.82C348.901 168.054 351.706 167.374 354.427 166.694C357.147 166.014 359.953 165.504 362.758 164.909C365.564 164.314 368.284 163.889 371.175 163.634Z" fill="#E1C692"/>
<path d="M375 219.658C371.344 219.658 367.774 219.573 364.118 219.403C360.463 219.233 356.892 218.978 353.322 218.722C349.751 218.467 346.095 218.042 342.525 217.617C338.954 217.192 335.384 216.682 331.813 216.087C335.469 216.002 339.039 216.172 342.695 216.342C346.351 216.512 349.921 216.767 353.492 217.022C357.062 217.277 360.718 217.702 364.288 218.127C367.859 218.552 371.429 218.978 375 219.658Z" fill="#E1C692"/>
<path d="M321.017 247.713C324.162 249.498 327.223 251.368 330.283 253.324C333.344 255.279 336.319 257.319 339.294 259.36C342.27 261.4 345.16 263.525 348.051 265.651C350.941 267.776 353.832 269.986 356.552 272.367C353.407 270.581 350.346 268.711 347.286 266.756C344.225 264.801 341.25 262.76 338.274 260.72C335.299 258.68 332.408 256.554 329.518 254.429C326.627 252.304 323.737 250.008 321.017 247.713Z" fill="#E1C692"/>
<path d="M159.236 281.207C159.236 281.207 142.914 193.814 144.614 182.082C146.314 170.35 189.331 151.987 213.645 161.168C237.959 170.35 229.542 265.735 227.842 273.641C226.142 281.547 159.236 281.207 159.236 281.207Z" fill="#F2EBEB"/>
<path d="M159.661 305.013C159.661 305.013 156.771 292.431 159.236 281.209L227.842 273.643C227.842 273.643 240.254 296.001 242.294 307.393C242.294 307.393 216.45 335.277 201.488 336.467C201.403 336.467 163.912 312.834 159.661 305.013Z" fill="#000001"/>
<path d="M211.264 284.863L216.875 288.604C218.746 289.794 220.616 291.069 222.486 292.089C223.421 292.599 224.441 293.11 225.377 293.62C226.312 294.045 227.332 294.47 228.352 294.81C230.392 295.575 232.688 295.66 234.728 294.98C233.793 295.66 232.688 296.17 231.498 296.255C230.307 296.425 229.117 296.34 228.012 296.085C225.717 295.575 223.591 294.725 221.551 293.62C219.596 292.514 217.64 291.154 215.94 289.709C214.325 288.264 212.71 286.649 211.264 284.863Z" fill="#F2EBEB"/>
<path d="M183.125 296.425C184.57 297.615 185.93 298.805 187.29 299.995C188.651 301.186 190.011 302.461 191.371 303.736L191.456 303.821L191.541 303.991C192.306 306.456 192.986 309.007 193.666 311.472C194.347 313.938 194.942 316.488 195.537 319.038C196.132 321.589 196.727 324.139 197.237 326.69C197.747 329.24 198.257 331.79 198.682 334.341C197.747 331.875 196.982 329.41 196.217 326.945C195.452 324.479 194.687 321.929 194.006 319.463C193.326 316.998 192.646 314.448 192.051 311.897C191.456 309.347 190.861 306.881 190.266 304.331L190.436 304.671C189.161 303.311 187.971 301.951 186.695 300.59C185.42 299.23 184.315 297.87 183.125 296.425Z" fill="#F2EBEB"/>
<path d="M259.127 133.2C257.597 129.289 256.576 111.266 256.066 109.481C255.556 107.696 255.811 97.1542 254.536 95.1989C253.261 93.2436 251.391 88.7379 249.86 90.3532C248.33 91.9684 250.2 95.454 248.925 99.0245C248.925 99.0245 245.1 86.0175 242.634 86.6126C240.169 87.2077 240.764 100.47 240.764 100.47C240.764 100.47 235.408 100.725 233.708 102C232.008 103.275 226.567 112.032 228.352 111.436C230.137 110.841 234.048 106.421 236.258 105.571C238.469 104.72 241.529 113.137 238.554 115.092C235.578 117.047 229.372 110.076 228.352 112.372C227.332 114.667 240.339 131.925 246.035 136.43L259.127 133.2Z" fill="#EA8383"/>
<path d="M250.795 107.695C250.03 105.825 249.52 104.04 248.925 102.169C248.33 100.299 247.82 98.4288 247.225 96.6435C246.63 94.8582 246.035 92.9879 245.355 91.2026C245.014 90.3525 244.674 89.4173 244.249 88.5672C244.079 88.1421 243.824 87.7171 243.569 87.292C243.484 87.122 243.314 86.9519 243.144 86.7819C242.974 86.6119 242.719 86.5269 242.549 86.6119C242.804 86.4419 243.059 86.4419 243.314 86.6119C243.569 86.6969 243.739 86.8669 243.994 87.037C244.334 87.377 244.674 87.7171 245.014 88.1421C245.61 88.9923 246.12 89.8424 246.63 90.6925C247.565 92.4778 248.33 94.2631 248.925 96.1334C249.52 98.0037 249.945 99.874 250.285 101.829C250.625 103.785 250.795 105.74 250.795 107.695Z" fill="#000001"/>
<path d="M245.44 105.74C244.505 104.805 243.57 103.785 242.719 102.85C242.294 102.425 241.869 101.915 241.444 101.49C241.274 101.32 241.019 101.15 240.764 100.98C240.594 100.895 240.424 100.81 240.254 100.81C239.064 100.895 237.789 100.98 236.598 101.235C236.003 101.32 235.323 101.49 234.728 101.575C234.133 101.66 233.538 101.915 232.943 102.255C233.028 101.915 233.283 101.66 233.538 101.405C233.793 101.15 234.048 100.98 234.388 100.81C234.983 100.47 235.578 100.215 236.258 99.9595C237.534 99.4494 238.894 99.1094 240.339 99.1094C240.849 99.1094 241.274 99.2794 241.699 99.5344C242.039 99.7895 242.294 100.045 242.549 100.3C242.974 100.81 243.4 101.405 243.825 102C244.505 103.275 245.015 104.465 245.44 105.74Z" fill="#000001"/>
<path d="M218.916 209.033C218.916 209.033 275.109 232.921 288.456 217.109C301.804 201.296 259.637 130.82 259.637 130.82C259.637 130.82 241.274 136.431 240.679 139.492C240.084 142.552 251.561 178.598 251.561 178.598C251.561 178.598 210.584 156.579 206.589 159.045C202.593 161.51 218.916 209.033 218.916 209.033Z" fill="#F2EBEB"/>
<path d="M256.831 196.281C255.301 192.115 253.856 187.864 252.581 183.699C251.306 179.533 250.03 175.197 248.755 170.947C247.48 166.696 246.375 162.36 245.27 158.11C244.164 153.859 243.144 149.523 242.294 145.103C243.824 149.268 245.27 153.519 246.545 157.685C247.82 161.85 249.18 166.186 250.37 170.437C251.561 174.687 252.751 179.023 253.856 183.274C254.961 187.524 255.896 191.945 256.831 196.281Z" fill="#000001"/>
<path d="M215.515 208.097C219.341 209.117 223.081 210.222 226.822 211.412C230.562 212.602 234.303 213.793 238.044 214.983L249.18 218.553C250.115 218.893 251.051 219.148 251.986 219.403C252.921 219.658 253.856 219.999 254.791 220.254C255.726 220.509 256.661 220.849 257.597 221.019C258.532 221.274 259.467 221.444 260.487 221.614H259.042C258.532 221.614 258.022 221.529 257.597 221.444C256.576 221.359 255.641 221.189 254.621 221.019C252.666 220.679 250.796 220.254 248.84 219.743C245.015 218.808 241.274 217.618 237.533 216.428C233.793 215.238 230.052 213.878 226.397 212.517C222.741 211.157 219.086 209.712 215.515 208.097Z" fill="#000001"/>
<path d="M149.375 174.686C149.375 174.686 87.1447 236.49 94.2858 244.141C101.427 251.793 153.37 278.402 153.37 278.402C153.37 278.402 155.665 260.379 153.54 257.829C151.415 255.278 132.542 237.851 132.542 237.851C132.542 237.851 154.39 216.512 154.39 214.812C154.39 213.112 149.375 174.686 149.375 174.686Z" fill="#F2EBEB"/>
<path d="M127.696 233.006C130.077 234.791 132.372 236.746 134.667 238.787C136.963 240.827 139.088 242.867 141.298 244.908C143.509 246.948 145.634 249.073 147.674 251.284C149.715 253.494 151.755 255.619 153.71 258C151.33 256.215 149.035 254.259 146.739 252.219C144.444 250.179 142.318 248.138 140.108 246.098C137.898 244.058 135.772 241.932 133.732 239.722C131.692 237.512 129.566 235.301 127.696 233.006Z" fill="#000001"/>
<path d="M154.986 257.149L156.346 264.886C156.346 264.886 168.078 271.092 166.887 272.537C165.697 273.982 159.661 272.962 159.661 272.962C159.661 272.962 172.923 279.423 171.223 280.953C169.523 282.483 159.916 280.018 159.916 280.018C159.916 280.018 172.838 288.859 169.608 289.625C166.377 290.39 148.865 286.479 146.739 282.228C144.614 277.978 151.5 276.447 151.5 276.447C151.5 276.447 148.184 273.812 149.29 271.432C149.715 270.156 151.075 269.306 152.435 269.476C152.435 269.476 148.78 266.586 149.375 264.376C149.97 262.165 154.986 257.149 154.986 257.149Z" fill="#EA8383"/>
<path d="M168.333 281.377C166.377 281.547 164.422 281.547 162.467 281.292C160.511 281.122 158.556 280.697 156.686 280.102C155.751 279.762 154.816 279.422 153.965 278.996C153.03 278.571 152.18 277.976 151.415 277.381C150.565 276.786 149.97 275.936 149.46 275.086C148.95 274.151 148.78 273.131 148.95 272.11C149.375 273.896 150.65 275.426 152.265 276.276C153.88 277.211 155.581 277.891 157.281 278.486C159.066 279.081 160.851 279.507 162.722 280.017C164.592 280.527 166.462 280.867 168.333 281.377Z" fill="#000001"/>
<path d="M149.29 265.649C150.14 267.095 151.245 268.37 152.605 269.39C153.88 270.325 155.326 271.09 156.856 271.515C158.471 271.94 160.086 272.28 161.702 272.365C162.552 272.365 163.402 272.45 164.252 272.45C165.102 272.45 165.952 272.45 166.802 272.536C165.952 272.876 165.102 273.046 164.337 273.301C163.572 273.556 162.637 273.556 161.702 273.726C159.916 273.811 158.131 273.641 156.346 273.131C154.56 272.621 153.03 271.685 151.67 270.325C150.395 269.05 149.545 267.435 149.29 265.649Z" fill="#000001"/>
<path d="M200.638 161.424C200.638 161.424 188.736 103.7 184.995 102.85C181.255 102 153.115 109.481 152.945 113.307C152.095 129.034 145.549 137.365 150.65 138.641C155.155 139.831 157.536 137.875 157.536 137.875C157.536 137.875 159.661 152.923 163.317 153.688C166.972 154.453 172.328 152.328 172.328 152.328L171.138 173.241C171.138 173.326 194.262 163.294 200.638 161.424Z" fill="#EA8383"/>
<path d="M178.024 131.924C178.024 131.924 191.796 144.506 195.027 143.826C198.257 143.146 190.181 101.319 187.46 99.3637C184.74 97.4084 152.86 90.4373 148.609 92.9877C144.359 95.5381 150.31 100.809 150.31 100.809C150.31 100.809 138.578 100.129 137.388 105.145C136.197 110.16 148.354 111.436 153.965 112.031C159.576 112.626 170.458 109.905 170.458 109.905C170.458 109.905 168.162 119.852 169.608 121.552C171.053 123.252 175.049 124.783 175.049 124.783C175.049 124.783 176.154 117.131 180.064 118.917C183.975 120.702 182.7 131.839 178.024 131.924Z" fill="#A04040"/>
<path d="M171.223 134.729C171.563 135.41 171.733 136.175 171.648 136.855C171.563 137.62 171.223 138.385 170.713 138.98C170.203 139.575 169.438 140 168.587 140.085C168.247 140.17 167.822 140.17 167.482 140.085C167.142 140 166.802 139.83 166.462 139.66C166.802 139.49 167.142 139.405 167.397 139.235C167.652 139.15 167.992 138.98 168.247 138.81C168.673 138.555 169.098 138.215 169.438 137.875C170.203 136.94 170.798 135.835 171.223 134.729Z" fill="#000001"/>
<path d="M166.122 117.217C166.207 116.452 166.037 115.772 165.527 115.177C165.102 114.582 164.422 114.242 163.742 113.987C163.062 113.817 162.297 113.817 161.617 114.072C160.936 114.327 160.341 114.752 160.001 115.432C160.596 115.687 161.107 115.857 161.702 116.112C162.212 116.282 162.552 116.367 162.977 116.452C163.827 116.707 164.592 116.877 166.122 117.217Z" fill="#A04040"/>
<path d="M181.68 150.286C180.319 151.051 178.789 151.646 177.344 152.156C175.814 152.667 174.368 153.092 172.753 153.432C171.223 153.772 169.608 154.027 168.077 154.197C166.462 154.367 164.847 154.282 163.317 153.772C164.847 153.602 166.377 153.347 167.907 152.922C169.438 152.581 170.968 152.156 172.413 151.816C173.858 151.476 175.474 151.136 177.004 150.881C178.534 150.626 180.149 150.371 181.68 150.286Z" fill="#000001"/>
<path d="M161.021 127.078C160.766 126.568 160.681 125.973 160.766 125.378C160.851 124.783 161.021 124.273 161.361 123.763C161.701 123.252 162.211 122.827 162.807 122.572C163.402 122.402 164.082 122.487 164.592 122.827C164.167 123.082 163.827 123.337 163.487 123.763C163.232 124.018 162.977 124.358 162.807 124.698L162.041 125.803C161.701 126.228 161.361 126.653 161.021 127.078Z" fill="#000001"/>
<path d="M212.37 98.1749C213.475 98.0048 214.58 98.0898 215.685 98.4299C216.705 98.6849 217.725 99.025 218.746 99.5351C219.681 99.9601 220.701 100.47 221.551 101.065C222.486 101.66 223.336 102.341 224.101 103.106C222.996 102.936 221.976 102.681 220.956 102.341C219.936 102 219.001 101.575 217.98 101.15C216.96 100.725 216.11 100.215 215.175 99.7901C214.24 99.3651 213.39 98.6849 212.37 98.1749Z" fill="#E1C692"/>
<path d="M219.851 87.377C220.446 87.632 220.956 88.0571 221.466 88.5671C221.976 88.9922 222.401 89.5023 222.826 89.9274C223.676 90.8625 224.441 91.8827 225.206 92.9028C225.972 93.923 226.567 95.0282 227.247 96.1333C227.842 97.2385 228.437 98.4287 228.862 99.6189C227.927 98.7688 226.992 97.8336 226.227 96.8134C225.376 95.8783 224.611 94.8581 223.931 93.838C223.166 92.8178 222.571 91.7126 221.891 90.6075C221.551 90.0974 221.296 89.5023 220.956 88.9922C220.531 88.3971 220.191 87.887 219.851 87.377Z" fill="#E1C692"/>
<path d="M233.623 96.1334C233.113 95.7083 232.603 95.1132 232.263 94.6031C231.582 93.4979 231.072 92.3078 230.817 90.9475C230.647 90.2674 230.647 89.5873 230.732 88.9072C231.242 89.3323 231.753 89.8424 232.093 90.4375C232.773 91.5426 233.283 92.8178 233.538 94.093C233.623 94.7731 233.708 95.4533 233.623 96.1334Z" fill="#E1C692"/>
</svg>
